<?xml version="1.0" encoding="utf-8" standalone="no"?>
<!DOCTYPE svg PUBLIC "-//W3C//DTD SVG 1.1//EN"
  "http://www.w3.org/Graphics/SVG/1.1/DTD/svg11.dtd">
<!-- Created with matplotlib (https://matplotlib.org/) -->
<svg height="191.239375pt" version="1.1" viewBox="0 0 400.059943 191.239375" width="400.059943pt" xmlns="http://www.w3.org/2000/svg" xmlns:xlink="http://www.w3.org/1999/xlink">
 <defs>
  <style type="text/css">
*{stroke-linecap:butt;stroke-linejoin:round;white-space:pre;}
  </style>
 </defs>
 <g id="figure_1">
  <g id="patch_1">
   <path d="M 0 191.239375 
L 400.059943 191.239375 
L 400.059943 0 
L 0 0 
z
" style="fill:none;"/>
  </g>
  <g id="axes_1">
   <g id="patch_2">
    <path d="M 55.139375 149.811875 
L 389.939375 149.811875 
L 389.939375 38.931875 
L 55.139375 38.931875 
z
" style="fill:none;"/>
   </g>
   <g id="axes_2">
    <g id="patch_3">
     <path d="M 55.139375 38.931875 
L 389.939375 38.931875 
L 389.939375 38.931875 
L 55.139375 38.931875 
z
" style="fill:#ffffff;"/>
    </g>
    <g id="matplotlib.axis_1">
     <g id="xtick_1">
      <g id="line2d_1">
       <path clip-path="url(#p09cea580af)" d="M 376.648608 38.931875 
L 376.648608 38.931875 
" style="fill:none;stroke:#b0b0b0;stroke-dasharray:0.8,1.32;stroke-dashoffset:0;stroke-width:0.8;"/>
      </g>
      <g id="line2d_2">
       <defs>
        <path d="M 0 0 
L 0 -3.5 
" id="m355f0e6ddd" style="stroke:#000000;stroke-width:0.8;"/>
       </defs>
       <g>
        <use style="stroke:#000000;stroke-width:0.8;" x="376.648608" xlink:href="#m355f0e6ddd" y="38.931875"/>
       </g>
      </g>
      <g id="text_1">
       <!-- 1480 -->
       <defs>
        <path d="M 12.40625 8.296875 
L 28.515625 8.296875 
L 28.515625 63.921875 
L 10.984375 60.40625 
L 10.984375 69.390625 
L 28.421875 72.90625 
L 38.28125 72.90625 
L 38.28125 8.296875 
L 54.390625 8.296875 
L 54.390625 0 
L 12.40625 0 
z
" id="DejaVuSans-49"/>
        <path d="M 37.796875 64.3125 
L 12.890625 25.390625 
L 37.796875 25.390625 
z
M 35.203125 72.90625 
L 47.609375 72.90625 
L 47.609375 25.390625 
L 58.015625 25.390625 
L 58.015625 17.1875 
L 47.609375 17.1875 
L 47.609375 0 
L 37.796875 0 
L 37.796875 17.1875 
L 4.890625 17.1875 
L 4.890625 26.703125 
z
" id="DejaVuSans-52"/>
        <path d="M 31.78125 34.625 
Q 24.75 34.625 20.71875 30.859375 
Q 16.703125 27.09375 16.703125 20.515625 
Q 16.703125 13.921875 20.71875 10.15625 
Q 24.75 6.390625 31.78125 6.390625 
Q 38.8125 6.390625 42.859375 10.171875 
Q 46.921875 13.96875 46.921875 20.515625 
Q 46.921875 27.09375 42.890625 30.859375 
Q 38.875 34.625 31.78125 34.625 
z
M 21.921875 38.8125 
Q 15.578125 40.375 12.03125 44.71875 
Q 8.5 49.078125 8.5 55.328125 
Q 8.5 64.0625 14.71875 69.140625 
Q 20.953125 74.21875 31.78125 74.21875 
Q 42.671875 74.21875 48.875 69.140625 
Q 55.078125 64.0625 55.078125 55.328125 
Q 55.078125 49.078125 51.53125 44.71875 
Q 48 40.375 41.703125 38.8125 
Q 48.828125 37.15625 52.796875 32.3125 
Q 56.78125 27.484375 56.78125 20.515625 
Q 56.78125 9.90625 50.3125 4.234375 
Q 43.84375 -1.421875 31.78125 -1.421875 
Q 19.734375 -1.421875 13.25 4.234375 
Q 6.78125 9.90625 6.78125 20.515625 
Q 6.78125 27.484375 10.78125 32.3125 
Q 14.796875 37.15625 21.921875 38.8125 
z
M 18.3125 54.390625 
Q 18.3125 48.734375 21.84375 45.5625 
Q 25.390625 42.390625 31.78125 42.390625 
Q 38.140625 42.390625 41.71875 45.5625 
Q 45.3125 48.734375 45.3125 54.390625 
Q 45.3125 60.0625 41.71875 63.234375 
Q 38.140625 66.40625 31.78125 66.40625 
Q 25.390625 66.40625 21.84375 63.234375 
Q 18.3125 60.0625 18.3125 54.390625 
z
" id="DejaVuSans-56"/>
        <path d="M 31.78125 66.40625 
Q 24.171875 66.40625 20.328125 58.90625 
Q 16.5 51.421875 16.5 36.375 
Q 16.5 21.390625 20.328125 13.890625 
Q 24.171875 6.390625 31.78125 6.390625 
Q 39.453125 6.390625 43.28125 13.890625 
Q 47.125 21.390625 47.125 36.375 
Q 47.125 51.421875 43.28125 58.90625 
Q 39.453125 66.40625 31.78125 66.40625 
z
M 31.78125 74.21875 
Q 44.046875 74.21875 50.515625 64.515625 
Q 56.984375 54.828125 56.984375 36.375 
Q 56.984375 17.96875 50.515625 8.265625 
Q 44.046875 -1.421875 31.78125 -1.421875 
Q 19.53125 -1.421875 13.0625 8.265625 
Q 6.59375 17.96875 6.59375 36.375 
Q 6.59375 54.828125 13.0625 64.515625 
Q 19.53125 74.21875 31.78125 74.21875 
z
" id="DejaVuSans-48"/>
       </defs>
       <g transform="translate(361.378608 29.43625)scale(0.12 -0.12)">
        <use xlink:href="#DejaVuSans-49"/>
        <use x="63.623047" xlink:href="#DejaVuSans-52"/>
        <use x="127.246094" xlink:href="#DejaVuSans-56"/>
        <use x="190.869141" xlink:href="#DejaVuSans-48"/>
       </g>
      </g>
     </g>
     <g id="xtick_2">
      <g id="line2d_3">
       <path clip-path="url(#p09cea580af)" d="M 334.711271 38.931875 
L 334.711271 38.931875 
" style="fill:none;stroke:#b0b0b0;stroke-dasharray:0.8,1.32;stroke-dashoffset:0;stroke-width:0.8;"/>
      </g>
      <g id="line2d_4">
       <g>
        <use style="stroke:#000000;stroke-width:0.8;" x="334.711271" xlink:href="#m355f0e6ddd" y="38.931875"/>
       </g>
      </g>
      <g id="text_2">
       <!-- 1500 -->
       <defs>
        <path d="M 10.796875 72.90625 
L 49.515625 72.90625 
L 49.515625 64.59375 
L 19.828125 64.59375 
L 19.828125 46.734375 
Q 21.96875 47.46875 24.109375 47.828125 
Q 26.265625 48.1875 28.421875 48.1875 
Q 40.625 48.1875 47.75 41.5 
Q 54.890625 34.8125 54.890625 23.390625 
Q 54.890625 11.625 47.5625 5.09375 
Q 40.234375 -1.421875 26.90625 -1.421875 
Q 22.3125 -1.421875 17.546875 -0.640625 
Q 12.796875 0.140625 7.71875 1.703125 
L 7.71875 11.625 
Q 12.109375 9.234375 16.796875 8.0625 
Q 21.484375 6.890625 26.703125 6.890625 
Q 35.15625 6.890625 40.078125 11.328125 
Q 45.015625 15.765625 45.015625 23.390625 
Q 45.015625 31 40.078125 35.4375 
Q 35.15625 39.890625 26.703125 39.890625 
Q 22.75 39.890625 18.8125 39.015625 
Q 14.890625 38.140625 10.796875 36.28125 
z
" id="DejaVuSans-53"/>
       </defs>
       <g transform="translate(319.441271 29.43625)scale(0.12 -0.12)">
        <use xlink:href="#DejaVuSans-49"/>
        <use x="63.623047" xlink:href="#DejaVuSans-53"/>
        <use x="127.246094" xlink:href="#DejaVuSans-48"/>
        <use x="190.869141" xlink:href="#DejaVuSans-48"/>
       </g>
      </g>
     </g>
     <g id="xtick_3">
      <g id="line2d_5">
       <path clip-path="url(#p09cea580af)" d="M 293.876323 38.931875 
L 293.876323 38.931875 
" style="fill:none;stroke:#b0b0b0;stroke-dasharray:0.8,1.32;stroke-dashoffset:0;stroke-width:0.8;"/>
      </g>
      <g id="line2d_6">
       <g>
        <use style="stroke:#000000;stroke-width:0.8;" x="293.876323" xlink:href="#m355f0e6ddd" y="38.931875"/>
       </g>
      </g>
      <g id="text_3">
       <!-- 1520 -->
       <defs>
        <path d="M 19.1875 8.296875 
L 53.609375 8.296875 
L 53.609375 0 
L 7.328125 0 
L 7.328125 8.296875 
Q 12.9375 14.109375 22.625 23.890625 
Q 32.328125 33.6875 34.8125 36.53125 
Q 39.546875 41.84375 41.421875 45.53125 
Q 43.3125 49.21875 43.3125 52.78125 
Q 43.3125 58.59375 39.234375 62.25 
Q 35.15625 65.921875 28.609375 65.921875 
Q 23.96875 65.921875 18.8125 64.3125 
Q 13.671875 62.703125 7.8125 59.421875 
L 7.8125 69.390625 
Q 13.765625 71.78125 18.9375 73 
Q 24.125 74.21875 28.421875 74.21875 
Q 39.75 74.21875 46.484375 68.546875 
Q 53.21875 62.890625 53.21875 53.421875 
Q 53.21875 48.921875 51.53125 44.890625 
Q 49.859375 40.875 45.40625 35.40625 
Q 44.1875 33.984375 37.640625 27.21875 
Q 31.109375 20.453125 19.1875 8.296875 
z
" id="DejaVuSans-50"/>
       </defs>
       <g transform="translate(278.606323 29.43625)scale(0.12 -0.12)">
        <use xlink:href="#DejaVuSans-49"/>
        <use x="63.623047" xlink:href="#DejaVuSans-53"/>
        <use x="127.246094" xlink:href="#DejaVuSans-50"/>
        <use x="190.869141" xlink:href="#DejaVuSans-48"/>
       </g>
      </g>
     </g>
     <g id="xtick_4">
      <g id="line2d_7">
       <path clip-path="url(#p09cea580af)" d="M 254.112709 38.931875 
L 254.112709 38.931875 
" style="fill:none;stroke:#b0b0b0;stroke-dasharray:0.8,1.32;stroke-dashoffset:0;stroke-width:0.8;"/>
      </g>
      <g id="line2d_8">
       <g>
        <use style="stroke:#000000;stroke-width:0.8;" x="254.112709" xlink:href="#m355f0e6ddd" y="38.931875"/>
       </g>
      </g>
      <g id="text_4">
       <!-- 1540 -->
       <g transform="translate(238.842709 29.43625)scale(0.12 -0.12)">
        <use xlink:href="#DejaVuSans-49"/>
        <use x="63.623047" xlink:href="#DejaVuSans-53"/>
        <use x="127.246094" xlink:href="#DejaVuSans-52"/>
        <use x="190.869141" xlink:href="#DejaVuSans-48"/>
       </g>
      </g>
     </g>
     <g id="xtick_5">
      <g id="line2d_9">
       <path clip-path="url(#p09cea580af)" d="M 215.358324 38.931875 
L 215.358324 38.931875 
" style="fill:none;stroke:#b0b0b0;stroke-dasharray:0.8,1.32;stroke-dashoffset:0;stroke-width:0.8;"/>
      </g>
      <g id="line2d_10">
       <g>
        <use style="stroke:#000000;stroke-width:0.8;" x="215.358324" xlink:href="#m355f0e6ddd" y="38.931875"/>
       </g>
      </g>
      <g id="text_5">
       <!-- 1560 -->
       <defs>
        <path d="M 33.015625 40.375 
Q 26.375 40.375 22.484375 35.828125 
Q 18.609375 31.296875 18.609375 23.390625 
Q 18.609375 15.53125 22.484375 10.953125 
Q 26.375 6.390625 33.015625 6.390625 
Q 39.65625 6.390625 43.53125 10.953125 
Q 47.40625 15.53125 47.40625 23.390625 
Q 47.40625 31.296875 43.53125 35.828125 
Q 39.65625 40.375 33.015625 40.375 
z
M 52.59375 71.296875 
L 52.59375 62.3125 
Q 48.875 64.0625 45.09375 64.984375 
Q 41.3125 65.921875 37.59375 65.921875 
Q 27.828125 65.921875 22.671875 59.328125 
Q 17.53125 52.734375 16.796875 39.40625 
Q 19.671875 43.65625 24.015625 45.921875 
Q 28.375 48.1875 33.59375 48.1875 
Q 44.578125 48.1875 50.953125 41.515625 
Q 57.328125 34.859375 57.328125 23.390625 
Q 57.328125 12.15625 50.6875 5.359375 
Q 44.046875 -1.421875 33.015625 -1.421875 
Q 20.359375 -1.421875 13.671875 8.265625 
Q 6.984375 17.96875 6.984375 36.375 
Q 6.984375 53.65625 15.1875 63.9375 
Q 23.390625 74.21875 37.203125 74.21875 
Q 40.921875 74.21875 44.703125 73.484375 
Q 48.484375 72.75 52.59375 71.296875 
z
" id="DejaVuSans-54"/>
       </defs>
       <g transform="translate(200.088324 29.43625)scale(0.12 -0.12)">
        <use xlink:href="#DejaVuSans-49"/>
        <use x="63.623047" xlink:href="#DejaVuSans-53"/>
        <use x="127.246094" xlink:href="#DejaVuSans-54"/>
        <use x="190.869141" xlink:href="#DejaVuSans-48"/>
       </g>
      </g>
     </g>
     <g id="xtick_6">
      <g id="line2d_11">
       <path clip-path="url(#p09cea580af)" d="M 177.597641 38.931875 
L 177.597641 38.931875 
" style="fill:none;stroke:#b0b0b0;stroke-dasharray:0.8,1.32;stroke-dashoffset:0;stroke-width:0.8;"/>
      </g>
      <g id="line2d_12">
       <g>
        <use style="stroke:#000000;stroke-width:0.8;" x="177.597641" xlink:href="#m355f0e6ddd" y="38.931875"/>
       </g>
      </g>
      <g id="text_6">
       <!-- 1580 -->
       <g transform="translate(162.327641 29.43625)scale(0.12 -0.12)">
        <use xlink:href="#DejaVuSans-49"/>
        <use x="63.623047" xlink:href="#DejaVuSans-53"/>
        <use x="127.246094" xlink:href="#DejaVuSans-56"/>
        <use x="190.869141" xlink:href="#DejaVuSans-48"/>
       </g>
      </g>
     </g>
     <g id="xtick_7">
      <g id="line2d_13">
       <path clip-path="url(#p09cea580af)" d="M 140.768555 38.931875 
L 140.768555 38.931875 
" style="fill:none;stroke:#b0b0b0;stroke-dasharray:0.8,1.32;stroke-dashoffset:0;stroke-width:0.8;"/>
      </g>
      <g id="line2d_14">
       <g>
        <use style="stroke:#000000;stroke-width:0.8;" x="140.768555" xlink:href="#m355f0e6ddd" y="38.931875"/>
       </g>
      </g>
      <g id="text_7">
       <!-- 1600 -->
       <g transform="translate(125.498555 29.43625)scale(0.12 -0.12)">
        <use xlink:href="#DejaVuSans-49"/>
        <use x="63.623047" xlink:href="#DejaVuSans-54"/>
        <use x="127.246094" xlink:href="#DejaVuSans-48"/>
        <use x="190.869141" xlink:href="#DejaVuSans-48"/>
       </g>
      </g>
     </g>
     <g id="xtick_8">
      <g id="line2d_15">
       <path clip-path="url(#p09cea580af)" d="M 104.855537 38.931875 
L 104.855537 38.931875 
" style="fill:none;stroke:#b0b0b0;stroke-dasharray:0.8,1.32;stroke-dashoffset:0;stroke-width:0.8;"/>
      </g>
      <g id="line2d_16">
       <g>
        <use style="stroke:#000000;stroke-width:0.8;" x="104.855537" xlink:href="#m355f0e6ddd" y="38.931875"/>
       </g>
      </g>
      <g id="text_8">
       <!-- 1620 -->
       <g transform="translate(89.585537 29.43625)scale(0.12 -0.12)">
        <use xlink:href="#DejaVuSans-49"/>
        <use x="63.623047" xlink:href="#DejaVuSans-54"/>
        <use x="127.246094" xlink:href="#DejaVuSans-50"/>
        <use x="190.869141" xlink:href="#DejaVuSans-48"/>
       </g>
      </g>
     </g>
     <g id="xtick_9">
      <g id="line2d_17">
       <path clip-path="url(#p09cea580af)" d="M 69.812009 38.931875 
L 69.812009 38.931875 
" style="fill:none;stroke:#b0b0b0;stroke-dasharray:0.8,1.32;stroke-dashoffset:0;stroke-width:0.8;"/>
      </g>
      <g id="line2d_18">
       <g>
        <use style="stroke:#000000;stroke-width:0.8;" x="69.812009" xlink:href="#m355f0e6ddd" y="38.931875"/>
       </g>
      </g>
      <g id="text_9">
       <!-- 1640 -->
       <g transform="translate(54.542009 29.43625)scale(0.12 -0.12)">
        <use xlink:href="#DejaVuSans-49"/>
        <use x="63.623047" xlink:href="#DejaVuSans-54"/>
        <use x="127.246094" xlink:href="#DejaVuSans-52"/>
        <use x="190.869141" xlink:href="#DejaVuSans-48"/>
       </g>
      </g>
     </g>
     <g id="text_10">
      <!-- wavelength (nm) -->
      <defs>
       <path d="M 4.203125 54.6875 
L 13.1875 54.6875 
L 24.421875 12.015625 
L 35.59375 54.6875 
L 46.1875 54.6875 
L 57.421875 12.015625 
L 68.609375 54.6875 
L 77.59375 54.6875 
L 63.28125 0 
L 52.6875 0 
L 40.921875 44.828125 
L 29.109375 0 
L 18.5 0 
z
" id="DejaVuSans-119"/>
       <path d="M 34.28125 27.484375 
Q 23.390625 27.484375 19.1875 25 
Q 14.984375 22.515625 14.984375 16.5 
Q 14.984375 11.71875 18.140625 8.90625 
Q 21.296875 6.109375 26.703125 6.109375 
Q 34.1875 6.109375 38.703125 11.40625 
Q 43.21875 16.703125 43.21875 25.484375 
L 43.21875 27.484375 
z
M 52.203125 31.203125 
L 52.203125 0 
L 43.21875 0 
L 43.21875 8.296875 
Q 40.140625 3.328125 35.546875 0.953125 
Q 30.953125 -1.421875 24.3125 -1.421875 
Q 15.921875 -1.421875 10.953125 3.296875 
Q 6 8.015625 6 15.921875 
Q 6 25.140625 12.171875 29.828125 
Q 18.359375 34.515625 30.609375 34.515625 
L 43.21875 34.515625 
L 43.21875 35.40625 
Q 43.21875 41.609375 39.140625 45 
Q 35.0625 48.390625 27.6875 48.390625 
Q 23 48.390625 18.546875 47.265625 
Q 14.109375 46.140625 10.015625 43.890625 
L 10.015625 52.203125 
Q 14.9375 54.109375 19.578125 55.046875 
Q 24.21875 56 28.609375 56 
Q 40.484375 56 46.34375 49.84375 
Q 52.203125 43.703125 52.203125 31.203125 
z
" id="DejaVuSans-97"/>
       <path d="M 2.984375 54.6875 
L 12.5 54.6875 
L 29.59375 8.796875 
L 46.6875 54.6875 
L 56.203125 54.6875 
L 35.6875 0 
L 23.484375 0 
z
" id="DejaVuSans-118"/>
       <path d="M 56.203125 29.59375 
L 56.203125 25.203125 
L 14.890625 25.203125 
Q 15.484375 15.921875 20.484375 11.0625 
Q 25.484375 6.203125 34.421875 6.203125 
Q 39.59375 6.203125 44.453125 7.46875 
Q 49.3125 8.734375 54.109375 11.28125 
L 54.109375 2.78125 
Q 49.265625 0.734375 44.1875 -0.34375 
Q 39.109375 -1.421875 33.890625 -1.421875 
Q 20.796875 -1.421875 13.15625 6.1875 
Q 5.515625 13.8125 5.515625 26.8125 
Q 5.515625 40.234375 12.765625 48.109375 
Q 20.015625 56 32.328125 56 
Q 43.359375 56 49.78125 48.890625 
Q 56.203125 41.796875 56.203125 29.59375 
z
M 47.21875 32.234375 
Q 47.125 39.59375 43.09375 43.984375 
Q 39.0625 48.390625 32.421875 48.390625 
Q 24.90625 48.390625 20.390625 44.140625 
Q 15.875 39.890625 15.1875 32.171875 
z
" id="DejaVuSans-101"/>
       <path d="M 9.421875 75.984375 
L 18.40625 75.984375 
L 18.40625 0 
L 9.421875 0 
z
" id="DejaVuSans-108"/>
       <path d="M 54.890625 33.015625 
L 54.890625 0 
L 45.90625 0 
L 45.90625 32.71875 
Q 45.90625 40.484375 42.875 44.328125 
Q 39.84375 48.1875 33.796875 48.1875 
Q 26.515625 48.1875 22.3125 43.546875 
Q 18.109375 38.921875 18.109375 30.90625 
L 18.109375 0 
L 9.078125 0 
L 9.078125 54.6875 
L 18.109375 54.6875 
L 18.109375 46.1875 
Q 21.34375 51.125 25.703125 53.5625 
Q 30.078125 56 35.796875 56 
Q 45.21875 56 50.046875 50.171875 
Q 54.890625 44.34375 54.890625 33.015625 
z
" id="DejaVuSans-110"/>
       <path d="M 45.40625 27.984375 
Q 45.40625 37.75 41.375 43.109375 
Q 37.359375 48.484375 30.078125 48.484375 
Q 22.859375 48.484375 18.828125 43.109375 
Q 14.796875 37.75 14.796875 27.984375 
Q 14.796875 18.265625 18.828125 12.890625 
Q 22.859375 7.515625 30.078125 7.515625 
Q 37.359375 7.515625 41.375 12.890625 
Q 45.40625 18.265625 45.40625 27.984375 
z
M 54.390625 6.78125 
Q 54.390625 -7.171875 48.1875 -13.984375 
Q 42 -20.796875 29.203125 -20.796875 
Q 24.46875 -20.796875 20.265625 -20.09375 
Q 16.0625 -19.390625 12.109375 -17.921875 
L 12.109375 -9.1875 
Q 16.0625 -11.328125 19.921875 -12.34375 
Q 23.78125 -13.375 27.78125 -13.375 
Q 36.625 -13.375 41.015625 -8.765625 
Q 45.40625 -4.15625 45.40625 5.171875 
L 45.40625 9.625 
Q 42.625 4.78125 38.28125 2.390625 
Q 33.9375 0 27.875 0 
Q 17.828125 0 11.671875 7.65625 
Q 5.515625 15.328125 5.515625 27.984375 
Q 5.515625 40.671875 11.671875 48.328125 
Q 17.828125 56 27.875 56 
Q 33.9375 56 38.28125 53.609375 
Q 42.625 51.21875 45.40625 46.390625 
L 45.40625 54.6875 
L 54.390625 54.6875 
z
" id="DejaVuSans-103"/>
       <path d="M 18.3125 70.21875 
L 18.3125 54.6875 
L 36.8125 54.6875 
L 36.8125 47.703125 
L 18.3125 47.703125 
L 18.3125 18.015625 
Q 18.3125 11.328125 20.140625 9.421875 
Q 21.96875 7.515625 27.59375 7.515625 
L 36.8125 7.515625 
L 36.8125 0 
L 27.59375 0 
Q 17.1875 0 13.234375 3.875 
Q 9.28125 7.765625 9.28125 18.015625 
L 9.28125 47.703125 
L 2.6875 47.703125 
L 2.6875 54.6875 
L 9.28125 54.6875 
L 9.28125 70.21875 
z
" id="DejaVuSans-116"/>
       <path d="M 54.890625 33.015625 
L 54.890625 0 
L 45.90625 0 
L 45.90625 32.71875 
Q 45.90625 40.484375 42.875 44.328125 
Q 39.84375 48.1875 33.796875 48.1875 
Q 26.515625 48.1875 22.3125 43.546875 
Q 18.109375 38.921875 18.109375 30.90625 
L 18.109375 0 
L 9.078125 0 
L 9.078125 75.984375 
L 18.109375 75.984375 
L 18.109375 46.1875 
Q 21.34375 51.125 25.703125 53.5625 
Q 30.078125 56 35.796875 56 
Q 45.21875 56 50.046875 50.171875 
Q 54.890625 44.34375 54.890625 33.015625 
z
" id="DejaVuSans-104"/>
       <path id="DejaVuSans-32"/>
       <path d="M 31 75.875 
Q 24.46875 64.65625 21.28125 53.65625 
Q 18.109375 42.671875 18.109375 31.390625 
Q 18.109375 20.125 21.3125 9.0625 
Q 24.515625 -2 31 -13.1875 
L 23.1875 -13.1875 
Q 15.875 -1.703125 12.234375 9.375 
Q 8.59375 20.453125 8.59375 31.390625 
Q 8.59375 42.28125 12.203125 53.3125 
Q 15.828125 64.359375 23.1875 75.875 
z
" id="DejaVuSans-40"/>
       <path d="M 52 44.1875 
Q 55.375 50.25 60.0625 53.125 
Q 64.75 56 71.09375 56 
Q 79.640625 56 84.28125 50.015625 
Q 88.921875 44.046875 88.921875 33.015625 
L 88.921875 0 
L 79.890625 0 
L 79.890625 32.71875 
Q 79.890625 40.578125 77.09375 44.375 
Q 74.3125 48.1875 68.609375 48.1875 
Q 61.625 48.1875 57.5625 43.546875 
Q 53.515625 38.921875 53.515625 30.90625 
L 53.515625 0 
L 44.484375 0 
L 44.484375 32.71875 
Q 44.484375 40.625 41.703125 44.40625 
Q 38.921875 48.1875 33.109375 48.1875 
Q 26.21875 48.1875 22.15625 43.53125 
Q 18.109375 38.875 18.109375 30.90625 
L 18.109375 0 
L 9.078125 0 
L 9.078125 54.6875 
L 18.109375 54.6875 
L 18.109375 46.1875 
Q 21.1875 51.21875 25.484375 53.609375 
Q 29.78125 56 35.6875 56 
Q 41.65625 56 45.828125 52.96875 
Q 50 49.953125 52 44.1875 
z
" id="DejaVuSans-109"/>
       <path d="M 8.015625 75.875 
L 15.828125 75.875 
Q 23.140625 64.359375 26.78125 53.3125 
Q 30.421875 42.28125 30.421875 31.390625 
Q 30.421875 20.453125 26.78125 9.375 
Q 23.140625 -1.703125 15.828125 -13.1875 
L 8.015625 -13.1875 
Q 14.5 -2 17.703125 9.0625 
Q 20.90625 20.125 20.90625 31.390625 
Q 20.90625 42.671875 17.703125 53.65625 
Q 14.5 64.65625 8.015625 75.875 
z
" id="DejaVuSans-41"/>
      </defs>
      <g transform="translate(171.351875 16.318125)scale(0.12 -0.12)">
       <use xlink:href="#DejaVuSans-119"/>
       <use x="81.787109" xlink:href="#DejaVuSans-97"/>
       <use x="143.066406" xlink:href="#DejaVuSans-118"/>
       <use x="202.246094" xlink:href="#DejaVuSans-101"/>
       <use x="263.769531" xlink:href="#DejaVuSans-108"/>
       <use x="291.552734" xlink:href="#DejaVuSans-101"/>
       <use x="353.076172" xlink:href="#DejaVuSans-110"/>
       <use x="416.455078" xlink:href="#DejaVuSans-103"/>
       <use x="479.931641" xlink:href="#DejaVuSans-116"/>
       <use x="519.140625" xlink:href="#DejaVuSans-104"/>
       <use x="582.519531" xlink:href="#DejaVuSans-32"/>
       <use x="614.306641" xlink:href="#DejaVuSans-40"/>
       <use x="653.320312" xlink:href="#DejaVuSans-110"/>
       <use x="716.699219" xlink:href="#DejaVuSans-109"/>
       <use x="814.111328" xlink:href="#DejaVuSans-41"/>
      </g>
     </g>
    </g>
    <g id="matplotlib.axis_2"/>
    <g id="patch_4">
     <path d="M 389.939375 38.931875 
L 55.139375 38.931875 
" style="fill:none;stroke:#000000;stroke-linecap:square;stroke-linejoin:miter;stroke-width:0.8;"/>
    </g>
   </g>
   <g id="matplotlib.axis_3">
    <g id="xtick_10">
     <g id="line2d_19">
      <path clip-path="url(#p9c7f0895fe)" d="M 65.153836 149.811875 
L 65.153836 38.931875 
" style="fill:none;stroke:#b0b0b0;stroke-dasharray:0.8,1.32;stroke-dashoffset:0;stroke-width:0.8;"/>
     </g>
     <g id="line2d_20">
      <defs>
       <path d="M 0 0 
L 0 3.5 
" id="ma5d0796b73" style="stroke:#000000;stroke-width:0.8;"/>
      </defs>
      <g>
       <use style="stroke:#000000;stroke-width:0.8;" x="65.153836" xlink:href="#ma5d0796b73" y="149.811875"/>
      </g>
     </g>
     <g id="text_11">
      <!-- 182.5 -->
      <defs>
       <path d="M 10.6875 12.40625 
L 21 12.40625 
L 21 0 
L 10.6875 0 
z
" id="DejaVuSans-46"/>
      </defs>
      <g transform="translate(47.976961 165.93)scale(0.12 -0.12)">
       <use xlink:href="#DejaVuSans-49"/>
       <use x="63.623047" xlink:href="#DejaVuSans-56"/>
       <use x="127.246094" xlink:href="#DejaVuSans-50"/>
       <use x="190.869141" xlink:href="#DejaVuSans-46"/>
       <use x="222.65625" xlink:href="#DejaVuSans-53"/>
      </g>
     </g>
    </g>
    <g id="xtick_11">
     <g id="line2d_21">
      <path clip-path="url(#p9c7f0895fe)" d="M 103.96999 149.811875 
L 103.96999 38.931875 
" style="fill:none;stroke:#b0b0b0;stroke-dasharray:0.8,1.32;stroke-dashoffset:0;stroke-width:0.8;"/>
     </g>
     <g id="line2d_22">
      <g>
       <use style="stroke:#000000;stroke-width:0.8;" x="103.96999" xlink:href="#ma5d0796b73" y="149.811875"/>
      </g>
     </g>
     <g id="text_12">
      <!-- 185.0 -->
      <g transform="translate(86.793115 165.93)scale(0.12 -0.12)">
       <use xlink:href="#DejaVuSans-49"/>
       <use x="63.623047" xlink:href="#DejaVuSans-56"/>
       <use x="127.246094" xlink:href="#DejaVuSans-53"/>
       <use x="190.869141" xlink:href="#DejaVuSans-46"/>
       <use x="222.65625" xlink:href="#DejaVuSans-48"/>
      </g>
     </g>
    </g>
    <g id="xtick_12">
     <g id="line2d_23">
      <path clip-path="url(#p9c7f0895fe)" d="M 142.786144 149.811875 
L 142.786144 38.931875 
" style="fill:none;stroke:#b0b0b0;stroke-dasharray:0.8,1.32;stroke-dashoffset:0;stroke-width:0.8;"/>
     </g>
     <g id="line2d_24">
      <g>
       <use style="stroke:#000000;stroke-width:0.8;" x="142.786144" xlink:href="#ma5d0796b73" y="149.811875"/>
      </g>
     </g>
     <g id="text_13">
      <!-- 187.5 -->
      <defs>
       <path d="M 8.203125 72.90625 
L 55.078125 72.90625 
L 55.078125 68.703125 
L 28.609375 0 
L 18.3125 0 
L 43.21875 64.59375 
L 8.203125 64.59375 
z
" id="DejaVuSans-55"/>
      </defs>
      <g transform="translate(125.609269 165.93)scale(0.12 -0.12)">
       <use xlink:href="#DejaVuSans-49"/>
       <use x="63.623047" xlink:href="#DejaVuSans-56"/>
       <use x="127.246094" xlink:href="#DejaVuSans-55"/>
       <use x="190.869141" xlink:href="#DejaVuSans-46"/>
       <use x="222.65625" xlink:href="#DejaVuSans-53"/>
      </g>
     </g>
    </g>
    <g id="xtick_13">
     <g id="line2d_25">
      <path clip-path="url(#p9c7f0895fe)" d="M 181.602298 149.811875 
L 181.602298 38.931875 
" style="fill:none;stroke:#b0b0b0;stroke-dasharray:0.8,1.32;stroke-dashoffset:0;stroke-width:0.8;"/>
     </g>
     <g id="line2d_26">
      <g>
       <use style="stroke:#000000;stroke-width:0.8;" x="181.602298" xlink:href="#ma5d0796b73" y="149.811875"/>
      </g>
     </g>
     <g id="text_14">
      <!-- 190.0 -->
      <defs>
       <path d="M 10.984375 1.515625 
L 10.984375 10.5 
Q 14.703125 8.734375 18.5 7.8125 
Q 22.3125 6.890625 25.984375 6.890625 
Q 35.75 6.890625 40.890625 13.453125 
Q 46.046875 20.015625 46.78125 33.40625 
Q 43.953125 29.203125 39.59375 26.953125 
Q 35.25 24.703125 29.984375 24.703125 
Q 19.046875 24.703125 12.671875 31.3125 
Q 6.296875 37.9375 6.296875 49.421875 
Q 6.296875 60.640625 12.9375 67.421875 
Q 19.578125 74.21875 30.609375 74.21875 
Q 43.265625 74.21875 49.921875 64.515625 
Q 56.59375 54.828125 56.59375 36.375 
Q 56.59375 19.140625 48.40625 8.859375 
Q 40.234375 -1.421875 26.421875 -1.421875 
Q 22.703125 -1.421875 18.890625 -0.6875 
Q 15.09375 0.046875 10.984375 1.515625 
z
M 30.609375 32.421875 
Q 37.25 32.421875 41.125 36.953125 
Q 45.015625 41.5 45.015625 49.421875 
Q 45.015625 57.28125 41.125 61.84375 
Q 37.25 66.40625 30.609375 66.40625 
Q 23.96875 66.40625 20.09375 61.84375 
Q 16.21875 57.28125 16.21875 49.421875 
Q 16.21875 41.5 20.09375 36.953125 
Q 23.96875 32.421875 30.609375 32.421875 
z
" id="DejaVuSans-57"/>
      </defs>
      <g transform="translate(164.425423 165.93)scale(0.12 -0.12)">
       <use xlink:href="#DejaVuSans-49"/>
       <use x="63.623047" xlink:href="#DejaVuSans-57"/>
       <use x="127.246094" xlink:href="#DejaVuSans-48"/>
       <use x="190.869141" xlink:href="#DejaVuSans-46"/>
       <use x="222.65625" xlink:href="#DejaVuSans-48"/>
      </g>
     </g>
    </g>
    <g id="xtick_14">
     <g id="line2d_27">
      <path clip-path="url(#p9c7f0895fe)" d="M 220.418452 149.811875 
L 220.418452 38.931875 
" style="fill:none;stroke:#b0b0b0;stroke-dasharray:0.8,1.32;stroke-dashoffset:0;stroke-width:0.8;"/>
     </g>
     <g id="line2d_28">
      <g>
       <use style="stroke:#000000;stroke-width:0.8;" x="220.418452" xlink:href="#ma5d0796b73" y="149.811875"/>
      </g>
     </g>
     <g id="text_15">
      <!-- 192.5 -->
      <g transform="translate(203.241577 165.93)scale(0.12 -0.12)">
       <use xlink:href="#DejaVuSans-49"/>
       <use x="63.623047" xlink:href="#DejaVuSans-57"/>
       <use x="127.246094" xlink:href="#DejaVuSans-50"/>
       <use x="190.869141" xlink:href="#DejaVuSans-46"/>
       <use x="222.65625" xlink:href="#DejaVuSans-53"/>
      </g>
     </g>
    </g>
    <g id="xtick_15">
     <g id="line2d_29">
      <path clip-path="url(#p9c7f0895fe)" d="M 259.234606 149.811875 
L 259.234606 38.931875 
" style="fill:none;stroke:#b0b0b0;stroke-dasharray:0.8,1.32;stroke-dashoffset:0;stroke-width:0.8;"/>
     </g>
     <g id="line2d_30">
      <g>
       <use style="stroke:#000000;stroke-width:0.8;" x="259.234606" xlink:href="#ma5d0796b73" y="149.811875"/>
      </g>
     </g>
     <g id="text_16">
      <!-- 195.0 -->
      <g transform="translate(242.057731 165.93)scale(0.12 -0.12)">
       <use xlink:href="#DejaVuSans-49"/>
       <use x="63.623047" xlink:href="#DejaVuSans-57"/>
       <use x="127.246094" xlink:href="#DejaVuSans-53"/>
       <use x="190.869141" xlink:href="#DejaVuSans-46"/>
       <use x="222.65625" xlink:href="#DejaVuSans-48"/>
      </g>
     </g>
    </g>
    <g id="xtick_16">
     <g id="line2d_31">
      <path clip-path="url(#p9c7f0895fe)" d="M 298.05076 149.811875 
L 298.05076 38.931875 
" style="fill:none;stroke:#b0b0b0;stroke-dasharray:0.8,1.32;stroke-dashoffset:0;stroke-width:0.8;"/>
     </g>
     <g id="line2d_32">
      <g>
       <use style="stroke:#000000;stroke-width:0.8;" x="298.05076" xlink:href="#ma5d0796b73" y="149.811875"/>
      </g>
     </g>
     <g id="text_17">
      <!-- 197.5 -->
      <g transform="translate(280.873885 165.93)scale(0.12 -0.12)">
       <use xlink:href="#DejaVuSans-49"/>
       <use x="63.623047" xlink:href="#DejaVuSans-57"/>
       <use x="127.246094" xlink:href="#DejaVuSans-55"/>
       <use x="190.869141" xlink:href="#DejaVuSans-46"/>
       <use x="222.65625" xlink:href="#DejaVuSans-53"/>
      </g>
     </g>
    </g>
    <g id="xtick_17">
     <g id="line2d_33">
      <path clip-path="url(#p9c7f0895fe)" d="M 336.866914 149.811875 
L 336.866914 38.931875 
" style="fill:none;stroke:#b0b0b0;stroke-dasharray:0.8,1.32;stroke-dashoffset:0;stroke-width:0.8;"/>
     </g>
     <g id="line2d_34">
      <g>
       <use style="stroke:#000000;stroke-width:0.8;" x="336.866914" xlink:href="#ma5d0796b73" y="149.811875"/>
      </g>
     </g>
     <g id="text_18">
      <!-- 200.0 -->
      <g transform="translate(319.690039 165.93)scale(0.12 -0.12)">
       <use xlink:href="#DejaVuSans-50"/>
       <use x="63.623047" xlink:href="#DejaVuSans-48"/>
       <use x="127.246094" xlink:href="#DejaVuSans-48"/>
       <use x="190.869141" xlink:href="#DejaVuSans-46"/>
       <use x="222.65625" xlink:href="#DejaVuSans-48"/>
      </g>
     </g>
    </g>
    <g id="xtick_18">
     <g id="line2d_35">
      <path clip-path="url(#p9c7f0895fe)" d="M 375.683068 149.811875 
L 375.683068 38.931875 
" style="fill:none;stroke:#b0b0b0;stroke-dasharray:0.8,1.32;stroke-dashoffset:0;stroke-width:0.8;"/>
     </g>
     <g id="line2d_36">
      <g>
       <use style="stroke:#000000;stroke-width:0.8;" x="375.683068" xlink:href="#ma5d0796b73" y="149.811875"/>
      </g>
     </g>
     <g id="text_19">
      <!-- 202.5 -->
      <g transform="translate(358.506193 165.93)scale(0.12 -0.12)">
       <use xlink:href="#DejaVuSans-50"/>
       <use x="63.623047" xlink:href="#DejaVuSans-48"/>
       <use x="127.246094" xlink:href="#DejaVuSans-50"/>
       <use x="190.869141" xlink:href="#DejaVuSans-46"/>
       <use x="222.65625" xlink:href="#DejaVuSans-53"/>
      </g>
     </g>
    </g>
    <g id="text_20">
     <!-- frequency (THz) -->
     <defs>
      <path d="M 37.109375 75.984375 
L 37.109375 68.5 
L 28.515625 68.5 
Q 23.6875 68.5 21.796875 66.546875 
Q 19.921875 64.59375 19.921875 59.515625 
L 19.921875 54.6875 
L 34.71875 54.6875 
L 34.71875 47.703125 
L 19.921875 47.703125 
L 19.921875 0 
L 10.890625 0 
L 10.890625 47.703125 
L 2.296875 47.703125 
L 2.296875 54.6875 
L 10.890625 54.6875 
L 10.890625 58.5 
Q 10.890625 67.625 15.140625 71.796875 
Q 19.390625 75.984375 28.609375 75.984375 
z
" id="DejaVuSans-102"/>
      <path d="M 41.109375 46.296875 
Q 39.59375 47.171875 37.8125 47.578125 
Q 36.03125 48 33.890625 48 
Q 26.265625 48 22.1875 43.046875 
Q 18.109375 38.09375 18.109375 28.8125 
L 18.109375 0 
L 9.078125 0 
L 9.078125 54.6875 
L 18.109375 54.6875 
L 18.109375 46.1875 
Q 20.953125 51.171875 25.484375 53.578125 
Q 30.03125 56 36.53125 56 
Q 37.453125 56 38.578125 55.875 
Q 39.703125 55.765625 41.0625 55.515625 
z
" id="DejaVuSans-114"/>
      <path d="M 14.796875 27.296875 
Q 14.796875 17.390625 18.875 11.75 
Q 22.953125 6.109375 30.078125 6.109375 
Q 37.203125 6.109375 41.296875 11.75 
Q 45.40625 17.390625 45.40625 27.296875 
Q 45.40625 37.203125 41.296875 42.84375 
Q 37.203125 48.484375 30.078125 48.484375 
Q 22.953125 48.484375 18.875 42.84375 
Q 14.796875 37.203125 14.796875 27.296875 
z
M 45.40625 8.203125 
Q 42.578125 3.328125 38.25 0.953125 
Q 33.9375 -1.421875 27.875 -1.421875 
Q 17.96875 -1.421875 11.734375 6.484375 
Q 5.515625 14.40625 5.515625 27.296875 
Q 5.515625 40.1875 11.734375 48.09375 
Q 17.96875 56 27.875 56 
Q 33.9375 56 38.25 53.625 
Q 42.578125 51.265625 45.40625 46.390625 
L 45.40625 54.6875 
L 54.390625 54.6875 
L 54.390625 -20.796875 
L 45.40625 -20.796875 
z
" id="DejaVuSans-113"/>
      <path d="M 8.5 21.578125 
L 8.5 54.6875 
L 17.484375 54.6875 
L 17.484375 21.921875 
Q 17.484375 14.15625 20.5 10.265625 
Q 23.53125 6.390625 29.59375 6.390625 
Q 36.859375 6.390625 41.078125 11.03125 
Q 45.3125 15.671875 45.3125 23.6875 
L 45.3125 54.6875 
L 54.296875 54.6875 
L 54.296875 0 
L 45.3125 0 
L 45.3125 8.40625 
Q 42.046875 3.421875 37.71875 1 
Q 33.40625 -1.421875 27.6875 -1.421875 
Q 18.265625 -1.421875 13.375 4.4375 
Q 8.5 10.296875 8.5 21.578125 
z
M 31.109375 56 
z
" id="DejaVuSans-117"/>
      <path d="M 48.78125 52.59375 
L 48.78125 44.1875 
Q 44.96875 46.296875 41.140625 47.34375 
Q 37.3125 48.390625 33.40625 48.390625 
Q 24.65625 48.390625 19.8125 42.84375 
Q 14.984375 37.3125 14.984375 27.296875 
Q 14.984375 17.28125 19.8125 11.734375 
Q 24.65625 6.203125 33.40625 6.203125 
Q 37.3125 6.203125 41.140625 7.25 
Q 44.96875 8.296875 48.78125 10.40625 
L 48.78125 2.09375 
Q 45.015625 0.34375 40.984375 -0.53125 
Q 36.96875 -1.421875 32.421875 -1.421875 
Q 20.0625 -1.421875 12.78125 6.34375 
Q 5.515625 14.109375 5.515625 27.296875 
Q 5.515625 40.671875 12.859375 48.328125 
Q 20.21875 56 33.015625 56 
Q 37.15625 56 41.109375 55.140625 
Q 45.0625 54.296875 48.78125 52.59375 
z
" id="DejaVuSans-99"/>
      <path d="M 32.171875 -5.078125 
Q 28.375 -14.84375 24.75 -17.8125 
Q 21.140625 -20.796875 15.09375 -20.796875 
L 7.90625 -20.796875 
L 7.90625 -13.28125 
L 13.1875 -13.28125 
Q 16.890625 -13.28125 18.9375 -11.515625 
Q 21 -9.765625 23.484375 -3.21875 
L 25.09375 0.875 
L 2.984375 54.6875 
L 12.5 54.6875 
L 29.59375 11.921875 
L 46.6875 54.6875 
L 56.203125 54.6875 
z
" id="DejaVuSans-121"/>
      <path d="M -0.296875 72.90625 
L 61.375 72.90625 
L 61.375 64.59375 
L 35.5 64.59375 
L 35.5 0 
L 25.59375 0 
L 25.59375 64.59375 
L -0.296875 64.59375 
z
" id="DejaVuSans-84"/>
      <path d="M 9.8125 72.90625 
L 19.671875 72.90625 
L 19.671875 43.015625 
L 55.515625 43.015625 
L 55.515625 72.90625 
L 65.375 72.90625 
L 65.375 0 
L 55.515625 0 
L 55.515625 34.71875 
L 19.671875 34.71875 
L 19.671875 0 
L 9.8125 0 
z
" id="DejaVuSans-72"/>
      <path d="M 5.515625 54.6875 
L 48.1875 54.6875 
L 48.1875 46.484375 
L 14.40625 7.171875 
L 48.1875 7.171875 
L 48.1875 0 
L 4.296875 0 
L 4.296875 8.203125 
L 38.09375 47.515625 
L 5.515625 47.515625 
z
" id="DejaVuSans-122"/>
     </defs>
     <g transform="translate(174.399688 181.54375)scale(0.12 -0.12)">
      <use xlink:href="#DejaVuSans-102"/>
      <use x="35.205078" xlink:href="#DejaVuSans-114"/>
      <use x="76.287109" xlink:href="#DejaVuSans-101"/>
      <use x="137.810547" xlink:href="#DejaVuSans-113"/>
      <use x="201.287109" xlink:href="#DejaVuSans-117"/>
      <use x="264.666016" xlink:href="#DejaVuSans-101"/>
      <use x="326.189453" xlink:href="#DejaVuSans-110"/>
      <use x="389.568359" xlink:href="#DejaVuSans-99"/>
      <use x="444.548828" xlink:href="#DejaVuSans-121"/>
      <use x="503.728516" xlink:href="#DejaVuSans-32"/>
      <use x="535.515625" xlink:href="#DejaVuSans-40"/>
      <use x="574.529297" xlink:href="#DejaVuSans-84"/>
      <use x="635.613281" xlink:href="#DejaVuSans-72"/>
      <use x="710.808594" xlink:href="#DejaVuSans-122"/>
      <use x="763.298828" xlink:href="#DejaVuSans-41"/>
     </g>
    </g>
   </g>
   <g id="matplotlib.axis_4">
    <g id="ytick_1">
     <g id="line2d_37">
      <path clip-path="url(#p9c7f0895fe)" d="M 55.139375 140.103121 
L 389.939375 140.103121 
" style="fill:none;stroke:#b0b0b0;stroke-dasharray:0.8,1.32;stroke-dashoffset:0;stroke-width:0.8;"/>
     </g>
     <g id="line2d_38">
      <defs>
       <path d="M 0 0 
L -3.5 0 
" id="m09e0ef6402" style="stroke:#000000;stroke-width:0.8;"/>
      </defs>
      <g>
       <use style="stroke:#000000;stroke-width:0.8;" x="55.139375" xlink:href="#m09e0ef6402" y="140.103121"/>
      </g>
     </g>
     <g id="text_21">
      <!-- −20 -->
      <defs>
       <path d="M 10.59375 35.5 
L 73.1875 35.5 
L 73.1875 27.203125 
L 10.59375 27.203125 
z
" id="DejaVuSans-8722"/>
      </defs>
      <g transform="translate(22.81375 144.662183)scale(0.12 -0.12)">
       <use xlink:href="#DejaVuSans-8722"/>
       <use x="83.789062" xlink:href="#DejaVuSans-50"/>
       <use x="147.412109" xlink:href="#DejaVuSans-48"/>
      </g>
     </g>
    </g>
    <g id="ytick_2">
     <g id="line2d_39">
      <path clip-path="url(#p9c7f0895fe)" d="M 55.139375 108.19837 
L 389.939375 108.19837 
" style="fill:none;stroke:#b0b0b0;stroke-dasharray:0.8,1.32;stroke-dashoffset:0;stroke-width:0.8;"/>
     </g>
     <g id="line2d_40">
      <g>
       <use style="stroke:#000000;stroke-width:0.8;" x="55.139375" xlink:href="#m09e0ef6402" y="108.19837"/>
      </g>
     </g>
     <g id="text_22">
      <!-- −10 -->
      <g transform="translate(22.81375 112.757433)scale(0.12 -0.12)">
       <use xlink:href="#DejaVuSans-8722"/>
       <use x="83.789062" xlink:href="#DejaVuSans-49"/>
       <use x="147.412109" xlink:href="#DejaVuSans-48"/>
      </g>
     </g>
    </g>
    <g id="ytick_3">
     <g id="line2d_41">
      <path clip-path="url(#p9c7f0895fe)" d="M 55.139375 76.29362 
L 389.939375 76.29362 
" style="fill:none;stroke:#b0b0b0;stroke-dasharray:0.8,1.32;stroke-dashoffset:0;stroke-width:0.8;"/>
     </g>
     <g id="line2d_42">
      <g>
       <use style="stroke:#000000;stroke-width:0.8;" x="55.139375" xlink:href="#m09e0ef6402" y="76.29362"/>
      </g>
     </g>
     <g id="text_23">
      <!-- 0 -->
      <g transform="translate(40.504375 80.852683)scale(0.12 -0.12)">
       <use xlink:href="#DejaVuSans-48"/>
      </g>
     </g>
    </g>
    <g id="ytick_4">
     <g id="line2d_43">
      <path clip-path="url(#p9c7f0895fe)" d="M 55.139375 44.38887 
L 389.939375 44.38887 
" style="fill:none;stroke:#b0b0b0;stroke-dasharray:0.8,1.32;stroke-dashoffset:0;stroke-width:0.8;"/>
     </g>
     <g id="line2d_44">
      <g>
       <use style="stroke:#000000;stroke-width:0.8;" x="55.139375" xlink:href="#m09e0ef6402" y="44.38887"/>
      </g>
     </g>
     <g id="text_24">
      <!-- 10 -->
      <g transform="translate(32.869375 48.947932)scale(0.12 -0.12)">
       <use xlink:href="#DejaVuSans-49"/>
       <use x="63.623047" xlink:href="#DejaVuSans-48"/>
      </g>
     </g>
    </g>
    <g id="text_25">
     <!-- $D_{int}/{2\pi}$ (GHz) -->
     <defs>
      <path d="M 16.890625 72.90625 
L 38.09375 72.90625 
Q 54.984375 72.90625 63.59375 65.75 
Q 72.21875 58.59375 72.21875 44.484375 
Q 72.21875 35.15625 68.9375 26.53125 
Q 65.671875 17.921875 59.90625 12.015625 
Q 54.109375 5.953125 45.171875 2.96875 
Q 36.234375 0 24.03125 0 
L 2.6875 0 
z
M 25.203125 64.796875 
L 14.203125 8.109375 
L 27.09375 8.109375 
Q 43.65625 8.109375 52.734375 17.625 
Q 61.8125 27.15625 61.8125 44.484375 
Q 61.8125 54.984375 55.953125 59.890625 
Q 50.09375 64.796875 37.59375 64.796875 
z
" id="DejaVuSans-Oblique-68"/>
      <path d="M 18.3125 75.984375 
L 27.296875 75.984375 
L 25.09375 64.59375 
L 16.109375 64.59375 
z
M 14.203125 54.6875 
L 23.1875 54.6875 
L 12.5 0 
L 3.515625 0 
z
" id="DejaVuSans-Oblique-105"/>
      <path d="M 55.71875 33.015625 
L 49.3125 0 
L 40.28125 0 
L 46.6875 32.671875 
Q 47.125 34.96875 47.359375 36.71875 
Q 47.609375 38.484375 47.609375 39.5 
Q 47.609375 43.609375 45.015625 45.890625 
Q 42.4375 48.1875 37.796875 48.1875 
Q 30.5625 48.1875 25.34375 43.375 
Q 20.125 38.578125 18.5 30.328125 
L 12.5 0 
L 3.515625 0 
L 14.109375 54.6875 
L 23.09375 54.6875 
L 21.296875 46.09375 
Q 25.046875 50.828125 30.3125 53.40625 
Q 35.59375 56 41.40625 56 
Q 48.640625 56 52.609375 52.09375 
Q 56.59375 48.1875 56.59375 41.109375 
Q 56.59375 39.359375 56.375 37.359375 
Q 56.15625 35.359375 55.71875 33.015625 
z
" id="DejaVuSans-Oblique-110"/>
      <path d="M 42.28125 54.6875 
L 40.921875 47.703125 
L 23 47.703125 
L 17.1875 18.015625 
Q 16.890625 16.359375 16.75 15.234375 
Q 16.609375 14.109375 16.609375 13.484375 
Q 16.609375 10.359375 18.484375 8.9375 
Q 20.359375 7.515625 24.515625 7.515625 
L 33.59375 7.515625 
L 32.078125 0 
L 23.484375 0 
Q 15.484375 0 11.546875 3.125 
Q 7.625 6.25 7.625 12.59375 
Q 7.625 13.71875 7.765625 15.0625 
Q 7.90625 16.40625 8.203125 18.015625 
L 14.015625 47.703125 
L 6.390625 47.703125 
L 7.8125 54.6875 
L 15.28125 54.6875 
L 18.3125 70.21875 
L 27.296875 70.21875 
L 24.3125 54.6875 
z
" id="DejaVuSans-Oblique-116"/>
      <path d="M 25.390625 72.90625 
L 33.6875 72.90625 
L 8.296875 -9.28125 
L 0 -9.28125 
z
" id="DejaVuSans-47"/>
      <path d="M 9.125 54.6875 
L 61.53125 54.6875 
L 59.765625 45.703125 
L 52.875 45.703125 
L 46.34375 12.109375 
Q 45.65625 8.59375 46.578125 7.03125 
Q 47.46875 5.515625 50.140625 5.515625 
Q 50.875 5.515625 51.953125 5.671875 
Q 53.078125 5.765625 53.421875 5.8125 
L 52.15625 -0.6875 
Q 50.34375 -1.3125 48.484375 -1.609375 
Q 46.578125 -1.90625 44.78125 -1.90625 
Q 38.921875 -1.90625 37.3125 1.265625 
Q 35.6875 4.5 37.359375 13.09375 
L 43.703125 45.703125 
L 23.53125 45.703125 
L 14.65625 0 
L 5.46875 0 
L 14.359375 45.703125 
L 7.375 45.703125 
z
" id="DejaVuSans-Oblique-960"/>
      <path d="M 59.515625 10.40625 
L 59.515625 29.984375 
L 43.40625 29.984375 
L 43.40625 38.09375 
L 69.28125 38.09375 
L 69.28125 6.78125 
Q 63.578125 2.734375 56.6875 0.65625 
Q 49.8125 -1.421875 42 -1.421875 
Q 24.90625 -1.421875 15.25 8.5625 
Q 5.609375 18.5625 5.609375 36.375 
Q 5.609375 54.25 15.25 64.234375 
Q 24.90625 74.21875 42 74.21875 
Q 49.125 74.21875 55.546875 72.453125 
Q 61.96875 70.703125 67.390625 67.28125 
L 67.390625 56.78125 
Q 61.921875 61.421875 55.765625 63.765625 
Q 49.609375 66.109375 42.828125 66.109375 
Q 29.4375 66.109375 22.71875 58.640625 
Q 16.015625 51.171875 16.015625 36.375 
Q 16.015625 21.625 22.71875 14.15625 
Q 29.4375 6.6875 42.828125 6.6875 
Q 48.046875 6.6875 52.140625 7.59375 
Q 56.25 8.5 59.515625 10.40625 
z
" id="DejaVuSans-71"/>
     </defs>
     <g transform="translate(16.318125 133.011875)rotate(-90)scale(0.12 -0.12)">
      <use transform="translate(0 0.125)" xlink:href="#DejaVuSans-Oblique-68"/>
      <use transform="translate(77.001953 -16.28125)scale(0.7)" xlink:href="#DejaVuSans-Oblique-105"/>
      <use transform="translate(96.450195 -16.28125)scale(0.7)" xlink:href="#DejaVuSans-Oblique-110"/>
      <use transform="translate(140.81543 -16.28125)scale(0.7)" xlink:href="#DejaVuSans-Oblique-116"/>
      <use transform="translate(170.996094 0.125)" xlink:href="#DejaVuSans-47"/>
      <use transform="translate(204.6875 0.125)" xlink:href="#DejaVuSans-50"/>
      <use transform="translate(268.310547 0.125)" xlink:href="#DejaVuSans-Oblique-960"/>
      <use transform="translate(328.515625 0.125)" xlink:href="#DejaVuSans-32"/>
      <use transform="translate(360.302734 0.125)" xlink:href="#DejaVuSans-40"/>
      <use transform="translate(399.316406 0.125)" xlink:href="#DejaVuSans-71"/>
      <use transform="translate(476.806641 0.125)" xlink:href="#DejaVuSans-72"/>
      <use transform="translate(552.001953 0.125)" xlink:href="#DejaVuSans-122"/>
      <use transform="translate(604.492188 0.125)" xlink:href="#DejaVuSans-41"/>
     </g>
    </g>
   </g>
   <g id="line2d_45">
    <defs>
     <path d="M 0 1.5 
C 0.397805 1.5 0.77937 1.341951 1.06066 1.06066 
C 1.341951 0.77937 1.5 0.397805 1.5 0 
C 1.5 -0.397805 1.341951 -0.77937 1.06066 -1.06066 
C 0.77937 -1.341951 0.397805 -1.5 0 -1.5 
C -0.397805 -1.5 -0.77937 -1.341951 -1.06066 -1.06066 
C -1.341951 -0.77937 -1.5 -0.397805 -1.5 0 
C -1.5 0.397805 -1.341951 0.77937 -1.06066 1.06066 
C -0.77937 1.341951 -0.397805 1.5 0 1.5 
z
" id="m3a39a5a3d3" style="stroke:#0000ff;"/>
    </defs>
    <g clip-path="url(#p9c7f0895fe)">
     <use style="fill:#0000ff;stroke:#0000ff;" x="70.357557" xlink:href="#m3a39a5a3d3" y="144.67546"/>
     <use style="fill:#0000ff;stroke:#0000ff;" x="71.852105" xlink:href="#m3a39a5a3d3" y="142.603894"/>
     <use style="fill:#0000ff;stroke:#0000ff;" x="73.347013" xlink:href="#m3a39a5a3d3" y="140.458343"/>
     <use style="fill:#0000ff;stroke:#0000ff;" x="74.842801" xlink:href="#m3a39a5a3d3" y="138.132017"/>
     <use style="fill:#0000ff;stroke:#0000ff;" x="76.337904" xlink:href="#m3a39a5a3d3" y="135.946391"/>
     <use style="fill:#0000ff;stroke:#0000ff;" x="77.83023" xlink:href="#m3a39a5a3d3" y="134.331578"/>
     <use style="fill:#0000ff;stroke:#0000ff;" x="79.325167" xlink:href="#m3a39a5a3d3" y="132.180059"/>
     <use style="fill:#0000ff;stroke:#0000ff;" x="80.819582" xlink:href="#m3a39a5a3d3" y="130.135743"/>
     <use style="fill:#0000ff;stroke:#0000ff;" x="82.312541" xlink:href="#m3a39a5a3d3" y="128.390815"/>
     <use style="fill:#0000ff;stroke:#0000ff;" x="83.805958" xlink:href="#m3a39a5a3d3" y="126.551672"/>
     <use style="fill:#0000ff;stroke:#0000ff;" x="85.300262" xlink:href="#m3a39a5a3d3" y="124.530282"/>
     <use style="fill:#0000ff;stroke:#0000ff;" x="86.794222" xlink:href="#m3a39a5a3d3" y="122.579588"/>
     <use style="fill:#0000ff;stroke:#0000ff;" x="88.28895" xlink:href="#m3a39a5a3d3" y="120.471059"/>
     <use style="fill:#0000ff;stroke:#0000ff;" x="89.779803" xlink:href="#m3a39a5a3d3" y="119.158768"/>
     <use style="fill:#0000ff;stroke:#0000ff;" x="91.271286" xlink:href="#m3a39a5a3d3" y="117.716912"/>
     <use style="fill:#0000ff;stroke:#0000ff;" x="92.763192" xlink:href="#m3a39a5a3d3" y="116.188296"/>
     <use style="fill:#0000ff;stroke:#0000ff;" x="94.257356" xlink:href="#m3a39a5a3d3" y="114.195754"/>
     <use style="fill:#0000ff;stroke:#0000ff;" x="95.749115" xlink:href="#m3a39a5a3d3" y="112.69721"/>
     <use style="fill:#0000ff;stroke:#0000ff;" x="97.243357" xlink:href="#m3a39a5a3d3" y="110.688698"/>
     <use style="fill:#0000ff;stroke:#0000ff;" x="98.736685" xlink:href="#m3a39a5a3d3" y="108.867714"/>
     <use style="fill:#0000ff;stroke:#0000ff;" x="100.22998" xlink:href="#m3a39a5a3d3" y="107.053706"/>
     <use style="fill:#0000ff;stroke:#0000ff;" x="101.722353" xlink:href="#m3a39a5a3d3" y="105.429026"/>
     <use style="fill:#0000ff;stroke:#0000ff;" x="103.215749" xlink:href="#m3a39a5a3d3" y="103.594319"/>
     <use style="fill:#0000ff;stroke:#0000ff;" x="104.706507" xlink:href="#m3a39a5a3d3" y="102.301457"/>
     <use style="fill:#0000ff;stroke:#0000ff;" x="106.200461" xlink:href="#m3a39a5a3d3" y="100.352112"/>
     <use style="fill:#0000ff;stroke:#0000ff;" x="107.696626" xlink:href="#m3a39a5a3d3" y="97.948345"/>
     <use style="fill:#0000ff;stroke:#0000ff;" x="109.189071" xlink:href="#m3a39a5a3d3" y="96.308869"/>
     <use style="fill:#0000ff;stroke:#0000ff;" x="110.680929" xlink:href="#m3a39a5a3d3" y="94.790076"/>
     <use style="fill:#0000ff;stroke:#0000ff;" x="112.173986" xlink:href="#m3a39a5a3d3" y="93.024996"/>
     <use style="fill:#0000ff;stroke:#0000ff;" x="113.665365" xlink:href="#m3a39a5a3d3" y="91.604652"/>
     <use style="fill:#0000ff;stroke:#0000ff;" x="115.155736" xlink:href="#m3a39a5a3d3" y="90.391429"/>
     <use style="fill:#0000ff;stroke:#0000ff;" x="116.64753" xlink:href="#m3a39a5a3d3" y="88.885805"/>
     <use style="fill:#0000ff;stroke:#0000ff;" x="118.138779" xlink:href="#m3a39a5a3d3" y="87.491983"/>
     <use style="fill:#0000ff;stroke:#0000ff;" x="119.629541" xlink:href="#m3a39a5a3d3" y="86.198528"/>
     <use style="fill:#0000ff;stroke:#0000ff;" x="121.121962" xlink:href="#m3a39a5a3d3" y="84.563927"/>
     <use style="fill:#0000ff;stroke:#0000ff;" x="122.613174" xlink:href="#m3a39a5a3d3" y="83.177976"/>
     <use style="fill:#0000ff;stroke:#0000ff;" x="124.102478" xlink:href="#m3a39a5a3d3" y="82.184081"/>
     <use style="fill:#0000ff;stroke:#0000ff;" x="125.594102" xlink:href="#m3a39a5a3d3" y="80.713382"/>
     <use style="fill:#0000ff;stroke:#0000ff;" x="127.08453" xlink:href="#m3a39a5a3d3" y="79.488306"/>
     <use style="fill:#0000ff;stroke:#0000ff;" x="128.574512" xlink:href="#m3a39a5a3d3" y="78.355163"/>
     <use style="fill:#0000ff;stroke:#0000ff;" x="130.065125" xlink:href="#m3a39a5a3d3" y="77.092198"/>
     <use style="fill:#0000ff;stroke:#0000ff;" x="131.555526" xlink:href="#m3a39a5a3d3" y="75.872751"/>
     <use style="fill:#0000ff;stroke:#0000ff;" x="133.044627" xlink:href="#m3a39a5a3d3" y="74.920428"/>
     <use style="fill:#0000ff;stroke:#0000ff;" x="134.535401" xlink:href="#m3a39a5a3d3" y="73.62439"/>
     <use style="fill:#0000ff;stroke:#0000ff;" x="136.025187" xlink:href="#m3a39a5a3d3" y="72.531386"/>
     <use style="fill:#0000ff;stroke:#0000ff;" x="137.512875" xlink:href="#m3a39a5a3d3" y="71.86959"/>
     <use style="fill:#0000ff;stroke:#0000ff;" x="139.00425" xlink:href="#m3a39a5a3d3" y="70.450055"/>
     <use style="fill:#0000ff;stroke:#0000ff;" x="140.493983" xlink:href="#m3a39a5a3d3" y="69.367824"/>
     <use style="fill:#0000ff;stroke:#0000ff;" x="141.983061" xlink:href="#m3a39a5a3d3" y="68.42045"/>
     <use style="fill:#0000ff;stroke:#0000ff;" x="143.473762" xlink:href="#m3a39a5a3d3" y="67.139232"/>
     <use style="fill:#0000ff;stroke:#0000ff;" x="144.96087" xlink:href="#m3a39a5a3d3" y="66.596634"/>
     <use style="fill:#0000ff;stroke:#0000ff;" x="146.451239" xlink:href="#m3a39a5a3d3" y="65.383722"/>
     <use style="fill:#0000ff;stroke:#0000ff;" x="147.940211" xlink:href="#m3a39a5a3d3" y="64.458069"/>
     <use style="fill:#0000ff;stroke:#0000ff;" x="149.429241" xlink:href="#m3a39a5a3d3" y="63.520355"/>
     <use style="fill:#0000ff;stroke:#0000ff;" x="150.918328" xlink:href="#m3a39a5a3d3" y="62.571023"/>
     <use style="fill:#0000ff;stroke:#0000ff;" x="152.406369" xlink:href="#m3a39a5a3d3" y="61.836486"/>
     <use style="fill:#0000ff;stroke:#0000ff;" x="153.89281" xlink:href="#m3a39a5a3d3" y="61.430981"/>
     <use style="fill:#0000ff;stroke:#0000ff;" x="155.382383" xlink:href="#m3a39a5a3d3" y="60.381644"/>
     <use style="fill:#0000ff;stroke:#0000ff;" x="156.872256" xlink:href="#m3a39a5a3d3" y="59.270813"/>
     <use style="fill:#0000ff;stroke:#0000ff;" x="158.359749" xlink:href="#m3a39a5a3d3" y="58.648822"/>
     <use style="fill:#0000ff;stroke:#0000ff;" x="159.849678" xlink:href="#m3a39a5a3d3" y="57.52655"/>
     <use style="fill:#0000ff;stroke:#0000ff;" x="161.336637" xlink:href="#m3a39a5a3d3" y="57.014463"/>
     <use style="fill:#0000ff;stroke:#0000ff;" x="162.823445" xlink:href="#m3a39a5a3d3" y="56.533286"/>
     <use style="fill:#0000ff;stroke:#0000ff;" x="164.311271" xlink:href="#m3a39a5a3d3" y="55.843111"/>
     <use style="fill:#0000ff;stroke:#0000ff;" x="165.799251" xlink:href="#m3a39a5a3d3" y="55.121146"/>
     <use style="fill:#0000ff;stroke:#0000ff;" x="167.285286" xlink:href="#m3a39a5a3d3" y="54.798963"/>
     <use style="fill:#0000ff;stroke:#0000ff;" x="168.774006" xlink:href="#m3a39a5a3d3" y="53.924964"/>
     <use style="fill:#0000ff;stroke:#0000ff;" x="170.26137" xlink:href="#m3a39a5a3d3" y="53.329734"/>
     <use style="fill:#0000ff;stroke:#0000ff;" x="171.747606" xlink:href="#m3a39a5a3d3" y="52.966022"/>
     <use style="fill:#0000ff;stroke:#0000ff;" x="173.235832" xlink:href="#m3a39a5a3d3" y="52.193687"/>
     <use style="fill:#0000ff;stroke:#0000ff;" x="174.723546" xlink:href="#m3a39a5a3d3" y="51.526455"/>
     <use style="fill:#0000ff;stroke:#0000ff;" x="176.209542" xlink:href="#m3a39a5a3d3" y="51.212183"/>
     <use style="fill:#0000ff;stroke:#0000ff;" x="177.696726" xlink:href="#m3a39a5a3d3" y="50.653854"/>
     <use style="fill:#0000ff;stroke:#0000ff;" x="179.18168" xlink:href="#m3a39a5a3d3" y="50.5538"/>
     <use style="fill:#0000ff;stroke:#0000ff;" x="180.667851" xlink:href="#m3a39a5a3d3" y="50.203581"/>
     <use style="fill:#0000ff;stroke:#0000ff;" x="182.157018" xlink:href="#m3a39a5a3d3" y="49.237792"/>
     <use style="fill:#0000ff;stroke:#0000ff;" x="183.642073" xlink:href="#m3a39a5a3d3" y="49.116965"/>
     <use style="fill:#0000ff;stroke:#0000ff;" x="185.129701" xlink:href="#m3a39a5a3d3" y="48.46737"/>
     <use style="fill:#0000ff;stroke:#0000ff;" x="186.615409" xlink:href="#m3a39a5a3d3" y="48.21218"/>
     <use style="fill:#0000ff;stroke:#0000ff;" x="188.100837" xlink:href="#m3a39a5a3d3" y="48.014822"/>
     <use style="fill:#0000ff;stroke:#0000ff;" x="189.58712" xlink:href="#m3a39a5a3d3" y="47.641539"/>
     <use style="fill:#0000ff;stroke:#0000ff;" x="191.074522" xlink:href="#m3a39a5a3d3" y="47.038365"/>
     <use style="fill:#0000ff;stroke:#0000ff;" x="192.558238" xlink:href="#m3a39a5a3d3" y="47.192623"/>
     <use style="fill:#0000ff;stroke:#0000ff;" x="194.045146" xlink:href="#m3a39a5a3d3" y="46.691163"/>
     <use style="fill:#0000ff;stroke:#0000ff;" x="195.528983" xlink:href="#m3a39a5a3d3" y="46.820511"/>
     <use style="fill:#0000ff;stroke:#0000ff;" x="197.015819" xlink:href="#m3a39a5a3d3" y="46.333694"/>
     <use style="fill:#0000ff;stroke:#0000ff;" x="198.5015" xlink:href="#m3a39a5a3d3" y="46.084238"/>
     <use style="fill:#0000ff;stroke:#0000ff;" x="199.987029" xlink:href="#m3a39a5a3d3" y="45.865856"/>
     <use style="fill:#0000ff;stroke:#0000ff;" x="201.47449" xlink:href="#m3a39a5a3d3" y="45.250785"/>
     <use style="fill:#0000ff;stroke:#0000ff;" x="202.958762" xlink:href="#m3a39a5a3d3" y="45.29067"/>
     <use style="fill:#0000ff;stroke:#0000ff;" x="204.444519" xlink:href="#m3a39a5a3d3" y="45.025543"/>
     <use style="fill:#0000ff;stroke:#0000ff;" x="205.931383" xlink:href="#m3a39a5a3d3" y="44.533058"/>
     <use style="fill:#0000ff;stroke:#0000ff;" x="207.4165" xlink:href="#m3a39a5a3d3" y="44.399399"/>
     <use style="fill:#0000ff;stroke:#0000ff;" x="208.900435" xlink:href="#m3a39a5a3d3" y="44.508701"/>
     <use style="fill:#0000ff;stroke:#0000ff;" x="210.387514" xlink:href="#m3a39a5a3d3" y="43.971875"/>
     <use style="fill:#0000ff;stroke:#0000ff;" x="211.871188" xlink:href="#m3a39a5a3d3" y="44.134878"/>
     <use style="fill:#0000ff;stroke:#0000ff;" x="213.355021" xlink:href="#m3a39a5a3d3" y="44.265211"/>
     <use style="fill:#0000ff;stroke:#0000ff;" x="214.840679" xlink:href="#m3a39a5a3d3" y="44.020343"/>
     <use style="fill:#0000ff;stroke:#0000ff;" x="216.323736" xlink:href="#m3a39a5a3d3" y="44.310118"/>
     <use style="fill:#0000ff;stroke:#0000ff;" x="217.808778" xlink:href="#m3a39a5a3d3" y="44.191766"/>
     <use style="fill:#0000ff;stroke:#0000ff;" x="219.292871" xlink:href="#m3a39a5a3d3" y="44.268757"/>
     <use style="fill:#0000ff;stroke:#0000ff;" x="220.776455" xlink:href="#m3a39a5a3d3" y="44.450086"/>
     <use style="fill:#0000ff;stroke:#0000ff;" x="222.261397" xlink:href="#m3a39a5a3d3" y="44.352436"/>
     <use style="fill:#0000ff;stroke:#0000ff;" x="223.74542" xlink:href="#m3a39a5a3d3" y="44.443727"/>
     <use style="fill:#0000ff;stroke:#0000ff;" x="225.22822" xlink:href="#m3a39a5a3d3" y="44.786117"/>
     <use style="fill:#0000ff;stroke:#0000ff;" x="226.712877" xlink:href="#m3a39a5a3d3" y="44.747163"/>
     <use style="fill:#0000ff;stroke:#0000ff;" x="228.194918" xlink:href="#m3a39a5a3d3" y="45.245599"/>
     <use style="fill:#0000ff;stroke:#0000ff;" x="229.679835" xlink:href="#m3a39a5a3d3" y="45.153014"/>
     <use style="fill:#0000ff;stroke:#0000ff;" x="231.164993" xlink:href="#m3a39a5a3d3" y="45.011093"/>
     <use style="fill:#0000ff;stroke:#0000ff;" x="232.648269" xlink:href="#m3a39a5a3d3" y="45.25584"/>
     <use style="fill:#0000ff;stroke:#0000ff;" x="234.132754" xlink:href="#m3a39a5a3d3" y="45.252068"/>
     <use style="fill:#0000ff;stroke:#0000ff;" x="235.615929" xlink:href="#m3a39a5a3d3" y="45.517386"/>
     <use style="fill:#0000ff;stroke:#0000ff;" x="237.096496" xlink:href="#m3a39a5a3d3" y="46.318889"/>
     <use style="fill:#0000ff;stroke:#0000ff;" x="238.580271" xlink:href="#m3a39a5a3d3" y="46.4611"/>
     <use style="fill:#0000ff;stroke:#0000ff;" x="240.062983" xlink:href="#m3a39a5a3d3" y="46.821553"/>
     <use style="fill:#0000ff;stroke:#0000ff;" x="241.54677" xlink:href="#m3a39a5a3d3" y="46.961386"/>
     <use style="fill:#0000ff;stroke:#0000ff;" x="243.030072" xlink:href="#m3a39a5a3d3" y="47.200672"/>
     <use style="fill:#0000ff;stroke:#0000ff;" x="244.510741" xlink:href="#m3a39a5a3d3" y="47.980971"/>
     <use style="fill:#0000ff;stroke:#0000ff;" x="245.995015" xlink:href="#m3a39a5a3d3" y="48.020674"/>
     <use style="fill:#0000ff;stroke:#0000ff;" x="247.47878" xlink:href="#m3a39a5a3d3" y="48.164912"/>
     <use style="fill:#0000ff;stroke:#0000ff;" x="248.958565" xlink:href="#m3a39a5a3d3" y="49.12695"/>
     <use style="fill:#0000ff;stroke:#0000ff;" x="250.443114" xlink:href="#m3a39a5a3d3" y="49.11015"/>
     <use style="fill:#0000ff;stroke:#0000ff;" x="251.924616" xlink:href="#m3a39a5a3d3" y="49.71929"/>
     <use style="fill:#0000ff;stroke:#0000ff;" x="253.407538" xlink:href="#m3a39a5a3d3" y="50.036817"/>
     <use style="fill:#0000ff;stroke:#0000ff;" x="254.891595" xlink:href="#m3a39a5a3d3" y="50.121005"/>
     <use style="fill:#0000ff;stroke:#0000ff;" x="256.373012" xlink:href="#m3a39a5a3d3" y="50.747602"/>
     <use style="fill:#0000ff;stroke:#0000ff;" x="257.856055" xlink:href="#m3a39a5a3d3" y="51.040202"/>
     <use style="fill:#0000ff;stroke:#0000ff;" x="259.338434" xlink:href="#m3a39a5a3d3" y="51.469186"/>
     <use style="fill:#0000ff;stroke:#0000ff;" x="260.818957" xlink:href="#m3a39a5a3d3" y="52.279679"/>
     <use style="fill:#0000ff;stroke:#0000ff;" x="262.302967" xlink:href="#m3a39a5a3d3" y="52.373493"/>
     <use style="fill:#0000ff;stroke:#0000ff;" x="263.782267" xlink:href="#m3a39a5a3d3" y="53.43525"/>
     <use style="fill:#0000ff;stroke:#0000ff;" x="265.266523" xlink:href="#m3a39a5a3d3" y="53.478654"/>
     <use style="fill:#0000ff;stroke:#0000ff;" x="266.748562" xlink:href="#m3a39a5a3d3" y="53.977539"/>
     <use style="fill:#0000ff;stroke:#0000ff;" x="268.228808" xlink:href="#m3a39a5a3d3" y="54.844861"/>
     <use style="fill:#0000ff;stroke:#0000ff;" x="269.710102" xlink:href="#m3a39a5a3d3" y="55.496847"/>
     <use style="fill:#0000ff;stroke:#0000ff;" x="271.192463" xlink:href="#m3a39a5a3d3" y="55.929595"/>
     <use style="fill:#0000ff;stroke:#0000ff;" x="272.674139" xlink:href="#m3a39a5a3d3" y="56.502919"/>
     <use style="fill:#0000ff;stroke:#0000ff;" x="274.156002" xlink:href="#m3a39a5a3d3" y="57.038098"/>
     <use style="fill:#0000ff;stroke:#0000ff;" x="275.635327" xlink:href="#m3a39a5a3d3" y="58.094516"/>
     <use style="fill:#0000ff;stroke:#0000ff;" x="277.118085" xlink:href="#m3a39a5a3d3" y="58.445728"/>
     <use style="fill:#0000ff;stroke:#0000ff;" x="278.59923" xlink:href="#m3a39a5a3d3" y="59.128431"/>
     <use style="fill:#0000ff;stroke:#0000ff;" x="280.079087" xlink:href="#m3a39a5a3d3" y="60.075651"/>
     <use style="fill:#0000ff;stroke:#0000ff;" x="281.56054" xlink:href="#m3a39a5a3d3" y="60.694994"/>
     <use style="fill:#0000ff;stroke:#0000ff;" x="283.040141" xlink:href="#m3a39a5a3d3" y="61.694707"/>
     <use style="fill:#0000ff;stroke:#0000ff;" x="284.521361" xlink:href="#m3a39a5a3d3" y="62.361883"/>
     <use style="fill:#0000ff;stroke:#0000ff;" x="286.002763" xlink:href="#m3a39a5a3d3" y="62.991773"/>
     <use style="fill:#0000ff;stroke:#0000ff;" x="287.482064" xlink:href="#m3a39a5a3d3" y="64.053176"/>
     <use style="fill:#0000ff;stroke:#0000ff;" x="288.965477" xlink:href="#m3a39a5a3d3" y="64.269785"/>
     <use style="fill:#0000ff;stroke:#0000ff;" x="290.443161" xlink:href="#m3a39a5a3d3" y="65.66356"/>
     <use style="fill:#0000ff;stroke:#0000ff;" x="291.924756" xlink:href="#m3a39a5a3d3" y="66.253749"/>
     <use style="fill:#0000ff;stroke:#0000ff;" x="293.406175" xlink:href="#m3a39a5a3d3" y="66.879959"/>
     <use style="fill:#0000ff;stroke:#0000ff;" x="294.885804" xlink:href="#m3a39a5a3d3" y="67.874128"/>
     <use style="fill:#0000ff;stroke:#0000ff;" x="296.368478" xlink:href="#m3a39a5a3d3" y="68.24257"/>
     <use style="fill:#0000ff;stroke:#0000ff;" x="297.847942" xlink:href="#m3a39a5a3d3" y="69.270584"/>
     <use style="fill:#0000ff;stroke:#0000ff;" x="299.327015" xlink:href="#m3a39a5a3d3" y="70.378863"/>
     <use style="fill:#0000ff;stroke:#0000ff;" x="300.807921" xlink:href="#m3a39a5a3d3" y="71.110616"/>
     <use style="fill:#0000ff;stroke:#0000ff;" x="302.286206" xlink:href="#m3a39a5a3d3" y="72.380957"/>
     <use style="fill:#0000ff;stroke:#0000ff;" x="303.76774" xlink:href="#m3a39a5a3d3" y="72.983542"/>
     <use style="fill:#0000ff;stroke:#0000ff;" x="305.244616" xlink:href="#m3a39a5a3d3" y="74.543421"/>
     <use style="fill:#0000ff;stroke:#0000ff;" x="306.726772" xlink:href="#m3a39a5a3d3" y="75.018195"/>
     <use style="fill:#0000ff;stroke:#0000ff;" x="308.207944" xlink:href="#m3a39a5a3d3" y="75.695321"/>
     <use style="fill:#0000ff;stroke:#0000ff;" x="309.686014" xlink:href="#m3a39a5a3d3" y="77.009765"/>
     <use style="fill:#0000ff;stroke:#0000ff;" x="311.165734" xlink:href="#m3a39a5a3d3" y="77.985141"/>
     <use style="fill:#0000ff;stroke:#0000ff;" x="312.645314" xlink:href="#m3a39a5a3d3" y="78.989328"/>
     <use style="fill:#0000ff;stroke:#0000ff;" x="314.123489" xlink:href="#m3a39a5a3d3" y="80.282146"/>
     <use style="fill:#0000ff;stroke:#0000ff;" x="315.604656" xlink:href="#m3a39a5a3d3" y="80.960192"/>
     <use style="fill:#0000ff;stroke:#0000ff;" x="317.08312" xlink:href="#m3a39a5a3d3" y="82.19382"/>
     <use style="fill:#0000ff;stroke:#0000ff;" x="318.563411" xlink:href="#m3a39a5a3d3" y="83.051887"/>
     <use style="fill:#0000ff;stroke:#0000ff;" x="320.042459" xlink:href="#m3a39a5a3d3" y="84.165369"/>
     <use style="fill:#0000ff;stroke:#0000ff;" x="321.517387" xlink:href="#m3a39a5a3d3" y="86.125511"/>
     <use style="fill:#0000ff;stroke:#0000ff;" x="322.997625" xlink:href="#m3a39a5a3d3" y="86.994435"/>
     <use style="fill:#0000ff;stroke:#0000ff;" x="324.475172" xlink:href="#m3a39a5a3d3" y="88.416398"/>
     <use style="fill:#0000ff;stroke:#0000ff;" x="325.95372" xlink:href="#m3a39a5a3d3" y="89.632537"/>
     <use style="fill:#0000ff;stroke:#0000ff;" x="327.432242" xlink:href="#m3a39a5a3d3" y="90.854231"/>
     <use style="fill:#0000ff;stroke:#0000ff;" x="328.911764" xlink:href="#m3a39a5a3d3" y="91.870157"/>
     <use style="fill:#0000ff;stroke:#0000ff;" x="330.391577" xlink:href="#m3a39a5a3d3" y="92.826586"/>
     <use style="fill:#0000ff;stroke:#0000ff;" x="331.868999" xlink:href="#m3a39a5a3d3" y="94.274097"/>
     <use style="fill:#0000ff;stroke:#0000ff;" x="333.350356" xlink:href="#m3a39a5a3d3" y="94.913303"/>
     <use style="fill:#0000ff;stroke:#0000ff;" x="334.829956" xlink:href="#m3a39a5a3d3" y="95.91335"/>
     <use style="fill:#0000ff;stroke:#0000ff;" x="336.309104" xlink:href="#m3a39a5a3d3" y="97.006182"/>
     <use style="fill:#0000ff;stroke:#0000ff;" x="337.786209" xlink:href="#m3a39a5a3d3" y="98.519035"/>
     <use style="fill:#0000ff;stroke:#0000ff;" x="339.262657" xlink:href="#m3a39a5a3d3" y="100.166705"/>
     <use style="fill:#0000ff;stroke:#0000ff;" x="340.741869" xlink:href="#m3a39a5a3d3" y="101.246494"/>
     <use style="fill:#0000ff;stroke:#0000ff;" x="342.216751" xlink:href="#m3a39a5a3d3" y="103.216006"/>
     <use style="fill:#0000ff;stroke:#0000ff;" x="343.698734" xlink:href="#m3a39a5a3d3" y="103.726581"/>
     <use style="fill:#0000ff;stroke:#0000ff;" x="345.174536" xlink:href="#m3a39a5a3d3" y="105.507007"/>
     <use style="fill:#0000ff;stroke:#0000ff;" x="346.654392" xlink:href="#m3a39a5a3d3" y="106.454471"/>
     <use style="fill:#0000ff;stroke:#0000ff;" x="348.133569" xlink:href="#m3a39a5a3d3" y="107.541524"/>
     <use style="fill:#0000ff;stroke:#0000ff;" x="349.610391" xlink:href="#m3a39a5a3d3" y="109.112328"/>
     <use style="fill:#0000ff;stroke:#0000ff;" x="351.087968" xlink:href="#m3a39a5a3d3" y="110.528178"/>
     <use style="fill:#0000ff;stroke:#0000ff;" x="352.564682" xlink:href="#m3a39a5a3d3" y="112.121319"/>
     <use style="fill:#0000ff;stroke:#0000ff;" x="354.042147" xlink:href="#m3a39a5a3d3" y="113.560071"/>
     <use style="fill:#0000ff;stroke:#0000ff;" x="355.520173" xlink:href="#m3a39a5a3d3" y="114.883571"/>
     <use style="fill:#0000ff;stroke:#0000ff;" x="356.9975" xlink:href="#m3a39a5a3d3" y="116.350636"/>
     <use style="fill:#0000ff;stroke:#0000ff;" x="358.475035" xlink:href="#m3a39a5a3d3" y="117.77504"/>
     <use style="fill:#0000ff;stroke:#0000ff;" x="359.951515" xlink:href="#m3a39a5a3d3" y="119.416294"/>
     <use style="fill:#0000ff;stroke:#0000ff;" x="361.428197" xlink:href="#m3a39a5a3d3" y="121.01595"/>
     <use style="fill:#0000ff;stroke:#0000ff;" x="362.906063" xlink:href="#m3a39a5a3d3" y="122.372295"/>
     <use style="fill:#0000ff;stroke:#0000ff;" x="364.381741" xlink:href="#m3a39a5a3d3" y="124.178274"/>
     <use style="fill:#0000ff;stroke:#0000ff;" x="365.859866" xlink:href="#m3a39a5a3d3" y="125.481477"/>
     <use style="fill:#0000ff;stroke:#0000ff;" x="367.339597" xlink:href="#m3a39a5a3d3" y="126.454519"/>
     <use style="fill:#0000ff;stroke:#0000ff;" x="368.812903" xlink:href="#m3a39a5a3d3" y="128.747956"/>
     <use style="fill:#0000ff;stroke:#0000ff;" x="370.291615" xlink:href="#m3a39a5a3d3" y="129.930459"/>
     <use style="fill:#0000ff;stroke:#0000ff;" x="371.767273" xlink:href="#m3a39a5a3d3" y="131.740548"/>
     <use style="fill:#0000ff;stroke:#0000ff;" x="373.244956" xlink:href="#m3a39a5a3d3" y="133.134663"/>
     <use style="fill:#0000ff;stroke:#0000ff;" x="374.721193" xlink:href="#m3a39a5a3d3" y="134.825705"/>
    </g>
   </g>
   <g id="line2d_46">
    <path clip-path="url(#p9c7f0895fe)" d="M 70.357557 144.771875 
L 76.337904 136.284142 
L 82.312541 128.205237 
L 88.28895 120.530329 
L 94.257356 113.254589 
L 100.22998 106.373185 
L 106.200461 99.881287 
L 112.173986 93.774065 
L 118.138779 88.046687 
L 124.102478 82.694324 
L 130.065125 77.712144 
L 136.025187 73.095318 
L 140.493983 69.869555 
L 146.451239 65.880473 
L 152.406369 62.24346 
L 156.872256 59.74384 
L 161.336637 57.437504 
L 165.799251 55.322413 
L 170.26137 53.396531 
L 174.723546 51.657819 
L 179.18168 50.104239 
L 183.642073 48.733754 
L 188.100837 47.544325 
L 192.558238 46.533914 
L 197.015819 45.700485 
L 201.47449 45.041998 
L 205.931383 44.556416 
L 210.387514 44.241701 
L 214.840679 44.095815 
L 220.776455 44.160401 
L 226.712877 44.516675 
L 232.648269 45.159806 
L 238.580271 46.084962 
L 244.510741 47.287314 
L 250.443114 48.762031 
L 256.373012 50.504283 
L 262.302967 52.509239 
L 268.228808 54.772067 
L 274.156002 57.287939 
L 280.079087 60.052023 
L 286.002763 63.059489 
L 291.924756 66.305506 
L 297.847942 69.785243 
L 303.76774 73.493871 
L 311.165734 78.444173 
L 318.563411 83.735133 
L 325.95372 89.357317 
L 333.350356 95.30129 
L 340.741869 101.557617 
L 348.133569 108.116863 
L 355.520173 114.969595 
L 362.906063 122.106377 
L 371.767273 131.032177 
L 374.721193 134.092503 
L 374.721193 134.092503 
" style="fill:none;stroke:#ff0000;stroke-dasharray:3.7,1.6;stroke-dashoffset:0;"/>
   </g>
   <g id="patch_5">
    <path d="M 55.139375 149.811875 
L 55.139375 38.931875 
" style="fill:none;stroke:#000000;stroke-linecap:square;stroke-linejoin:miter;stroke-width:0.8;"/>
   </g>
   <g id="patch_6">
    <path d="M 389.939375 149.811875 
L 389.939375 38.931875 
" style="fill:none;stroke:#000000;stroke-linecap:square;stroke-linejoin:miter;stroke-width:0.8;"/>
   </g>
   <g id="patch_7">
    <path d="M 55.139375 149.811875 
L 389.939375 149.811875 
" style="fill:none;stroke:#000000;stroke-linecap:square;stroke-linejoin:miter;stroke-width:0.8;"/>
   </g>
   <g id="patch_8">
    <path d="M 55.139375 38.931875 
L 389.939375 38.931875 
" style="fill:none;stroke:#000000;stroke-linecap:square;stroke-linejoin:miter;stroke-width:0.8;"/>
   </g>
  </g>
 </g>
 <defs>
  <clipPath id="p09cea580af">
   <rect height="0" width="334.8" x="55.139375" y="38.931875"/>
  </clipPath>
  <clipPath id="p9c7f0895fe">
   <rect height="110.88" width="334.8" x="55.139375" y="38.931875"/>
  </clipPath>
 </defs>
</svg>
