<?xml version="1.0" encoding="utf-8" standalone="no"?>
<!DOCTYPE svg PUBLIC "-//W3C//DTD SVG 1.1//EN"
  "http://www.w3.org/Graphics/SVG/1.1/DTD/svg11.dtd">
<!-- Created with matplotlib (https://matplotlib.org/) -->
<svg height="199.0275pt" version="1.1" viewBox="0 0 211.009341 199.0275" width="211.009341pt" xmlns="http://www.w3.org/2000/svg" xmlns:xlink="http://www.w3.org/1999/xlink">
 <defs>
  <style type="text/css">
*{stroke-linecap:butt;stroke-linejoin:round;white-space:pre;}
  </style>
 </defs>
 <g id="figure_1">
  <g id="patch_1">
   <path d="M 0 199.0275 
L 211.009341 199.0275 
L 211.009341 0 
L 0 0 
z
" style="fill:none;"/>
  </g>
  <g id="axes_1">
   <g id="patch_2">
    <path d="M 44.004375 161.1 
L 161.004375 161.1 
L 161.004375 44.1 
L 44.004375 44.1 
z
" style="fill:none;"/>
   </g>
   <g id="patch_3">
    <path clip-path="url(#pe1284bce39)" d="M 102.504375 102.6 
L 102.504375 102.6 
L 102.504375 87 
L 102.504375 87 
z
" style="fill:none;stroke:#ff0000;stroke-dasharray:3.7,1.6;stroke-dashoffset:0;stroke-linejoin:miter;"/>
   </g>
   <g id="matplotlib.axis_1">
    <g id="xtick_1">
     <g id="line2d_1">
      <defs>
       <path d="M 0 0 
L 0 -3.5 
" id="ma2a27da145" style="stroke:#000000;stroke-width:0.8;"/>
      </defs>
      <g>
       <use style="stroke:#000000;stroke-width:0.8;" x="63.504375" xlink:href="#ma2a27da145" y="161.1"/>
      </g>
     </g>
     <g id="line2d_2">
      <defs>
       <path d="M 0 0 
L 0 3.5 
" id="m358b9ea28e" style="stroke:#000000;stroke-width:0.8;"/>
      </defs>
      <g>
       <use style="stroke:#000000;stroke-width:0.8;" x="63.504375" xlink:href="#m358b9ea28e" y="44.1"/>
      </g>
     </g>
     <g id="text_1">
      <!-- −2 -->
      <defs>
       <path d="M 10.59375 35.5 
L 73.1875 35.5 
L 73.1875 27.203125 
L 10.59375 27.203125 
z
" id="DejaVuSans-8722"/>
       <path d="M 19.1875 8.296875 
L 53.609375 8.296875 
L 53.609375 0 
L 7.328125 0 
L 7.328125 8.296875 
Q 12.9375 14.109375 22.625 23.890625 
Q 32.328125 33.6875 34.8125 36.53125 
Q 39.546875 41.84375 41.421875 45.53125 
Q 43.3125 49.21875 43.3125 52.78125 
Q 43.3125 58.59375 39.234375 62.25 
Q 35.15625 65.921875 28.609375 65.921875 
Q 23.96875 65.921875 18.8125 64.3125 
Q 13.671875 62.703125 7.8125 59.421875 
L 7.8125 69.390625 
Q 13.765625 71.78125 18.9375 73 
Q 24.125 74.21875 28.421875 74.21875 
Q 39.75 74.21875 46.484375 68.546875 
Q 53.21875 62.890625 53.21875 53.421875 
Q 53.21875 48.921875 51.53125 44.890625 
Q 49.859375 40.875 45.40625 35.40625 
Q 44.1875 33.984375 37.640625 27.21875 
Q 31.109375 20.453125 19.1875 8.296875 
z
" id="DejaVuSans-50"/>
      </defs>
      <g transform="translate(54.659063 173.718125)scale(0.12 -0.12)">
       <use xlink:href="#DejaVuSans-8722"/>
       <use x="83.789062" xlink:href="#DejaVuSans-50"/>
      </g>
     </g>
    </g>
    <g id="xtick_2">
     <g id="line2d_3">
      <g>
       <use style="stroke:#000000;stroke-width:0.8;" x="102.504375" xlink:href="#ma2a27da145" y="161.1"/>
      </g>
     </g>
     <g id="line2d_4">
      <g>
       <use style="stroke:#000000;stroke-width:0.8;" x="102.504375" xlink:href="#m358b9ea28e" y="44.1"/>
      </g>
     </g>
     <g id="text_2">
      <!-- 0 -->
      <defs>
       <path d="M 31.78125 66.40625 
Q 24.171875 66.40625 20.328125 58.90625 
Q 16.5 51.421875 16.5 36.375 
Q 16.5 21.390625 20.328125 13.890625 
Q 24.171875 6.390625 31.78125 6.390625 
Q 39.453125 6.390625 43.28125 13.890625 
Q 47.125 21.390625 47.125 36.375 
Q 47.125 51.421875 43.28125 58.90625 
Q 39.453125 66.40625 31.78125 66.40625 
z
M 31.78125 74.21875 
Q 44.046875 74.21875 50.515625 64.515625 
Q 56.984375 54.828125 56.984375 36.375 
Q 56.984375 17.96875 50.515625 8.265625 
Q 44.046875 -1.421875 31.78125 -1.421875 
Q 19.53125 -1.421875 13.0625 8.265625 
Q 6.59375 17.96875 6.59375 36.375 
Q 6.59375 54.828125 13.0625 64.515625 
Q 19.53125 74.21875 31.78125 74.21875 
z
" id="DejaVuSans-48"/>
      </defs>
      <g transform="translate(98.686875 173.718125)scale(0.12 -0.12)">
       <use xlink:href="#DejaVuSans-48"/>
      </g>
     </g>
    </g>
    <g id="xtick_3">
     <g id="line2d_5">
      <g>
       <use style="stroke:#000000;stroke-width:0.8;" x="141.504375" xlink:href="#ma2a27da145" y="161.1"/>
      </g>
     </g>
     <g id="line2d_6">
      <g>
       <use style="stroke:#000000;stroke-width:0.8;" x="141.504375" xlink:href="#m358b9ea28e" y="44.1"/>
      </g>
     </g>
     <g id="text_3">
      <!-- 2 -->
      <g transform="translate(137.686875 173.718125)scale(0.12 -0.12)">
       <use xlink:href="#DejaVuSans-50"/>
      </g>
     </g>
    </g>
    <g id="text_4">
     <!-- Y axis (um) -->
     <defs>
      <path d="M -0.203125 72.90625 
L 10.40625 72.90625 
L 30.609375 42.921875 
L 50.6875 72.90625 
L 61.28125 72.90625 
L 35.5 34.71875 
L 35.5 0 
L 25.59375 0 
L 25.59375 34.71875 
z
" id="DejaVuSans-89"/>
      <path id="DejaVuSans-32"/>
      <path d="M 34.28125 27.484375 
Q 23.390625 27.484375 19.1875 25 
Q 14.984375 22.515625 14.984375 16.5 
Q 14.984375 11.71875 18.140625 8.90625 
Q 21.296875 6.109375 26.703125 6.109375 
Q 34.1875 6.109375 38.703125 11.40625 
Q 43.21875 16.703125 43.21875 25.484375 
L 43.21875 27.484375 
z
M 52.203125 31.203125 
L 52.203125 0 
L 43.21875 0 
L 43.21875 8.296875 
Q 40.140625 3.328125 35.546875 0.953125 
Q 30.953125 -1.421875 24.3125 -1.421875 
Q 15.921875 -1.421875 10.953125 3.296875 
Q 6 8.015625 6 15.921875 
Q 6 25.140625 12.171875 29.828125 
Q 18.359375 34.515625 30.609375 34.515625 
L 43.21875 34.515625 
L 43.21875 35.40625 
Q 43.21875 41.609375 39.140625 45 
Q 35.0625 48.390625 27.6875 48.390625 
Q 23 48.390625 18.546875 47.265625 
Q 14.109375 46.140625 10.015625 43.890625 
L 10.015625 52.203125 
Q 14.9375 54.109375 19.578125 55.046875 
Q 24.21875 56 28.609375 56 
Q 40.484375 56 46.34375 49.84375 
Q 52.203125 43.703125 52.203125 31.203125 
z
" id="DejaVuSans-97"/>
      <path d="M 54.890625 54.6875 
L 35.109375 28.078125 
L 55.90625 0 
L 45.3125 0 
L 29.390625 21.484375 
L 13.484375 0 
L 2.875 0 
L 24.125 28.609375 
L 4.6875 54.6875 
L 15.28125 54.6875 
L 29.78125 35.203125 
L 44.28125 54.6875 
z
" id="DejaVuSans-120"/>
      <path d="M 9.421875 54.6875 
L 18.40625 54.6875 
L 18.40625 0 
L 9.421875 0 
z
M 9.421875 75.984375 
L 18.40625 75.984375 
L 18.40625 64.59375 
L 9.421875 64.59375 
z
" id="DejaVuSans-105"/>
      <path d="M 44.28125 53.078125 
L 44.28125 44.578125 
Q 40.484375 46.53125 36.375 47.5 
Q 32.28125 48.484375 27.875 48.484375 
Q 21.1875 48.484375 17.84375 46.4375 
Q 14.5 44.390625 14.5 40.28125 
Q 14.5 37.15625 16.890625 35.375 
Q 19.28125 33.59375 26.515625 31.984375 
L 29.59375 31.296875 
Q 39.15625 29.25 43.1875 25.515625 
Q 47.21875 21.78125 47.21875 15.09375 
Q 47.21875 7.46875 41.1875 3.015625 
Q 35.15625 -1.421875 24.609375 -1.421875 
Q 20.21875 -1.421875 15.453125 -0.5625 
Q 10.6875 0.296875 5.421875 2 
L 5.421875 11.28125 
Q 10.40625 8.6875 15.234375 7.390625 
Q 20.0625 6.109375 24.8125 6.109375 
Q 31.15625 6.109375 34.5625 8.28125 
Q 37.984375 10.453125 37.984375 14.40625 
Q 37.984375 18.0625 35.515625 20.015625 
Q 33.0625 21.96875 24.703125 23.78125 
L 21.578125 24.515625 
Q 13.234375 26.265625 9.515625 29.90625 
Q 5.8125 33.546875 5.8125 39.890625 
Q 5.8125 47.609375 11.28125 51.796875 
Q 16.75 56 26.8125 56 
Q 31.78125 56 36.171875 55.265625 
Q 40.578125 54.546875 44.28125 53.078125 
z
" id="DejaVuSans-115"/>
      <path d="M 31 75.875 
Q 24.46875 64.65625 21.28125 53.65625 
Q 18.109375 42.671875 18.109375 31.390625 
Q 18.109375 20.125 21.3125 9.0625 
Q 24.515625 -2 31 -13.1875 
L 23.1875 -13.1875 
Q 15.875 -1.703125 12.234375 9.375 
Q 8.59375 20.453125 8.59375 31.390625 
Q 8.59375 42.28125 12.203125 53.3125 
Q 15.828125 64.359375 23.1875 75.875 
z
" id="DejaVuSans-40"/>
      <path d="M 8.5 21.578125 
L 8.5 54.6875 
L 17.484375 54.6875 
L 17.484375 21.921875 
Q 17.484375 14.15625 20.5 10.265625 
Q 23.53125 6.390625 29.59375 6.390625 
Q 36.859375 6.390625 41.078125 11.03125 
Q 45.3125 15.671875 45.3125 23.6875 
L 45.3125 54.6875 
L 54.296875 54.6875 
L 54.296875 0 
L 45.3125 0 
L 45.3125 8.40625 
Q 42.046875 3.421875 37.71875 1 
Q 33.40625 -1.421875 27.6875 -1.421875 
Q 18.265625 -1.421875 13.375 4.4375 
Q 8.5 10.296875 8.5 21.578125 
z
M 31.109375 56 
z
" id="DejaVuSans-117"/>
      <path d="M 52 44.1875 
Q 55.375 50.25 60.0625 53.125 
Q 64.75 56 71.09375 56 
Q 79.640625 56 84.28125 50.015625 
Q 88.921875 44.046875 88.921875 33.015625 
L 88.921875 0 
L 79.890625 0 
L 79.890625 32.71875 
Q 79.890625 40.578125 77.09375 44.375 
Q 74.3125 48.1875 68.609375 48.1875 
Q 61.625 48.1875 57.5625 43.546875 
Q 53.515625 38.921875 53.515625 30.90625 
L 53.515625 0 
L 44.484375 0 
L 44.484375 32.71875 
Q 44.484375 40.625 41.703125 44.40625 
Q 38.921875 48.1875 33.109375 48.1875 
Q 26.21875 48.1875 22.15625 43.53125 
Q 18.109375 38.875 18.109375 30.90625 
L 18.109375 0 
L 9.078125 0 
L 9.078125 54.6875 
L 18.109375 54.6875 
L 18.109375 46.1875 
Q 21.1875 51.21875 25.484375 53.609375 
Q 29.78125 56 35.6875 56 
Q 41.65625 56 45.828125 52.96875 
Q 50 49.953125 52 44.1875 
z
" id="DejaVuSans-109"/>
      <path d="M 8.015625 75.875 
L 15.828125 75.875 
Q 23.140625 64.359375 26.78125 53.3125 
Q 30.421875 42.28125 30.421875 31.390625 
Q 30.421875 20.453125 26.78125 9.375 
Q 23.140625 -1.703125 15.828125 -13.1875 
L 8.015625 -13.1875 
Q 14.5 -2 17.703125 9.0625 
Q 20.90625 20.125 20.90625 31.390625 
Q 20.90625 42.671875 17.703125 53.65625 
Q 14.5 64.65625 8.015625 75.875 
z
" id="DejaVuSans-41"/>
     </defs>
     <g transform="translate(68.676563 189.331875)scale(0.12 -0.12)">
      <use xlink:href="#DejaVuSans-89"/>
      <use x="61.083984" xlink:href="#DejaVuSans-32"/>
      <use x="92.871094" xlink:href="#DejaVuSans-97"/>
      <use x="154.150391" xlink:href="#DejaVuSans-120"/>
      <use x="213.330078" xlink:href="#DejaVuSans-105"/>
      <use x="241.113281" xlink:href="#DejaVuSans-115"/>
      <use x="293.212891" xlink:href="#DejaVuSans-32"/>
      <use x="325" xlink:href="#DejaVuSans-40"/>
      <use x="364.013672" xlink:href="#DejaVuSans-117"/>
      <use x="427.392578" xlink:href="#DejaVuSans-109"/>
      <use x="524.804688" xlink:href="#DejaVuSans-41"/>
     </g>
    </g>
   </g>
   <g id="matplotlib.axis_2">
    <g id="ytick_1">
     <g id="line2d_7">
      <defs>
       <path d="M 0 0 
L 3.5 0 
" id="m28c00b9103" style="stroke:#000000;stroke-width:0.8;"/>
      </defs>
      <g>
       <use style="stroke:#000000;stroke-width:0.8;" x="44.004375" xlink:href="#m28c00b9103" y="141.6"/>
      </g>
     </g>
     <g id="line2d_8">
      <defs>
       <path d="M 0 0 
L -3.5 0 
" id="ma34bdccb0d" style="stroke:#000000;stroke-width:0.8;"/>
      </defs>
      <g>
       <use style="stroke:#000000;stroke-width:0.8;" x="161.004375" xlink:href="#ma34bdccb0d" y="141.6"/>
      </g>
     </g>
     <g id="text_5">
      <!-- −2 -->
      <g transform="translate(22.81375 146.159063)scale(0.12 -0.12)">
       <use xlink:href="#DejaVuSans-8722"/>
       <use x="83.789062" xlink:href="#DejaVuSans-50"/>
      </g>
     </g>
    </g>
    <g id="ytick_2">
     <g id="line2d_9">
      <g>
       <use style="stroke:#000000;stroke-width:0.8;" x="44.004375" xlink:href="#m28c00b9103" y="102.6"/>
      </g>
     </g>
     <g id="line2d_10">
      <g>
       <use style="stroke:#000000;stroke-width:0.8;" x="161.004375" xlink:href="#ma34bdccb0d" y="102.6"/>
      </g>
     </g>
     <g id="text_6">
      <!-- 0 -->
      <g transform="translate(32.869375 107.159062)scale(0.12 -0.12)">
       <use xlink:href="#DejaVuSans-48"/>
      </g>
     </g>
    </g>
    <g id="ytick_3">
     <g id="line2d_11">
      <g>
       <use style="stroke:#000000;stroke-width:0.8;" x="44.004375" xlink:href="#m28c00b9103" y="63.6"/>
      </g>
     </g>
     <g id="line2d_12">
      <g>
       <use style="stroke:#000000;stroke-width:0.8;" x="161.004375" xlink:href="#ma34bdccb0d" y="63.6"/>
      </g>
     </g>
     <g id="text_7">
      <!-- 2 -->
      <g transform="translate(32.869375 68.159063)scale(0.12 -0.12)">
       <use xlink:href="#DejaVuSans-50"/>
      </g>
     </g>
    </g>
    <g id="text_8">
     <!-- Z axis (um) -->
     <defs>
      <path d="M 5.609375 72.90625 
L 62.890625 72.90625 
L 62.890625 65.375 
L 16.796875 8.296875 
L 64.015625 8.296875 
L 64.015625 0 
L 4.5 0 
L 4.5 7.515625 
L 50.59375 64.59375 
L 5.609375 64.59375 
z
" id="DejaVuSans-90"/>
     </defs>
     <g transform="translate(16.318125 136.873125)rotate(-90)scale(0.12 -0.12)">
      <use xlink:href="#DejaVuSans-90"/>
      <use x="68.505859" xlink:href="#DejaVuSans-32"/>
      <use x="100.292969" xlink:href="#DejaVuSans-97"/>
      <use x="161.572266" xlink:href="#DejaVuSans-120"/>
      <use x="220.751953" xlink:href="#DejaVuSans-105"/>
      <use x="248.535156" xlink:href="#DejaVuSans-115"/>
      <use x="300.634766" xlink:href="#DejaVuSans-32"/>
      <use x="332.421875" xlink:href="#DejaVuSans-40"/>
      <use x="371.435547" xlink:href="#DejaVuSans-117"/>
      <use x="434.814453" xlink:href="#DejaVuSans-109"/>
      <use x="532.226562" xlink:href="#DejaVuSans-41"/>
     </g>
    </g>
   </g>
   <g id="LineCollection_1">
    <path clip-path="url(#pe1284bce39)" d="M 44.004375 161.1 
" style="fill:none;stroke:#440154;stroke-width:0.8;"/>
    <path clip-path="url(#pe1284bce39)" d="M 44.004375 44.1 
" style="fill:none;stroke:#440154;stroke-width:0.8;"/>
    <path clip-path="url(#pe1284bce39)" d="M 102.326563 44.1 
L 102.682187 44.1 
" style="fill:none;stroke:#440154;stroke-width:0.8;"/>
    <path clip-path="url(#pe1284bce39)" d="M 102.682187 161.1 
L 102.326563 161.1 
" style="fill:none;stroke:#440154;stroke-width:0.8;"/>
    <path clip-path="url(#pe1284bce39)" d="M 161.004375 161.1 
" style="fill:none;stroke:#440154;stroke-width:0.8;"/>
    <path clip-path="url(#pe1284bce39)" d="M 161.004375 44.1 
" style="fill:none;stroke:#440154;stroke-width:0.8;"/>
   </g>
   <g id="LineCollection_2">
    <path clip-path="url(#pe1284bce39)" d="M 44.004375 56.907647 
L 45.782491 57.030004 
L 47.916229 57.437409 
L 49.694345 57.75804 
L 50.405591 57.736887 
L 51.47246 57.456769 
L 52.539329 56.943736 
L 54.673068 55.568384 
L 56.806807 54.260551 
L 58.940545 53.24711 
L 61.074284 52.524371 
L 62.496776 52.185921 
L 64.986138 51.890727 
L 69.964861 51.574217 
L 74.943585 51.543381 
L 79.211062 51.707546 
L 83.478539 52.12939 
L 85.256655 52.529836 
L 87.746016 53.408661 
L 89.879755 54.481355 
L 94.858478 57.465734 
L 95.925348 57.734872 
L 96.992217 57.703107 
L 101.615317 56.91226 
L 103.393433 56.927498 
L 105.171548 57.142606 
L 108.727779 57.766591 
L 109.794649 57.572754 
L 110.861518 57.138035 
L 112.435848 56.171804 
L 112.435848 56.171804 
" style="fill:none;stroke:#46327e;stroke-width:0.8;"/>
    <path clip-path="url(#pe1284bce39)" d="M 148.234792 54.295759 
L 148.557566 54.481355 
L 148.91319 54.703048 
L 148.965235 54.736364 
L 149.268813 54.907953 
L 149.624436 55.121994 
L 149.980059 55.349996 
L 150.335682 55.590552 
L 150.500528 55.703306 
L 150.691305 55.826792 
L 151.046928 56.058174 
L 151.402551 56.293231 
L 151.758174 56.527423 
L 151.984749 56.670248 
L 152.113797 56.752299 
L 152.469421 56.960903 
L 152.825044 57.152929 
L 153.180667 57.322792 
L 153.53629 57.465734 
L 153.891913 57.578312 
L 154.152792 57.63719 
L 154.247536 57.66737 
L 154.603159 57.734872 
L 154.958782 57.760055 
L 155.314405 57.747443 
L 155.670028 57.703107 
L 156.007918 57.63719 
L 156.025652 57.634729 
L 156.381275 57.571233 
L 156.736898 57.498866 
L 157.092521 57.421663 
L 157.448144 57.343175 
L 157.803767 57.266309 
L 158.15939 57.193394 
L 158.515013 57.126214 
L 158.870636 57.066115 
L 159.226259 57.014087 
L 159.581883 56.970801 
L 159.937506 56.93676 
L 160.293129 56.91226 
L 160.648752 56.897493 
L 161.004375 56.892549 
" style="fill:none;stroke:#46327e;stroke-width:0.8;"/>
    <path clip-path="url(#pe1284bce39)" d="M 161.004375 126.315489 
L 160.648752 126.306037 
L 160.448378 126.290083 
L 160.293129 126.277136 
L 159.937506 126.22796 
L 159.581883 126.159449 
L 159.226259 126.071896 
L 158.870636 125.965971 
L 158.515013 125.842543 
L 158.15939 125.703049 
L 157.803767 125.5494 
L 157.448144 125.384379 
L 157.319729 125.32314 
L 157.092521 125.200542 
L 156.736898 125.007156 
L 156.381275 124.816954 
L 156.025652 124.638027 
L 155.670028 124.479924 
L 155.322696 124.356198 
L 155.314405 124.352678 
L 154.958782 124.254568 
L 154.603159 124.218442 
L 154.247536 124.255508 
L 153.945122 124.356198 
L 153.891913 124.371397 
L 153.53629 124.545157 
L 153.180667 124.790067 
L 152.825044 125.100292 
L 152.610696 125.32314 
L 152.469421 125.450904 
L 152.113797 125.815755 
L 151.758174 126.205892 
L 151.686565 126.290083 
L 151.402551 126.587804 
L 151.046928 126.965271 
L 150.769644 127.257025 
L 150.691305 127.333137 
L 150.335682 127.679457 
L 149.980059 128.00699 
L 149.732066 128.223967 
L 149.624436 128.314376 
L 149.268813 128.601942 
L 148.91319 128.865702 
L 148.557566 129.105983 
L 148.42326 129.190909 
L 148.201943 129.332242 
L 147.84632 129.541579 
L 147.490697 129.730027 
L 147.135074 129.899171 
L 147.080305 129.922486 
" style="fill:none;stroke:#46327e;stroke-width:0.8;"/>
    <path clip-path="url(#pe1284bce39)" d="M 111.665562 125.927183 
L 110.505895 124.796525 
L 109.738949 124.356198 
L 109.083402 124.212479 
L 108.33153 124.356198 
L 107.305287 124.797994 
L 105.171548 125.819435 
L 103.749056 126.204163 
L 102.326563 126.315489 
L 101.259694 126.22796 
L 99.837202 125.842543 
L 98.414709 125.200542 
L 96.636594 124.352678 
L 95.925348 124.218442 
L 95.214101 124.371397 
L 94.502855 124.790067 
L 93.435986 125.815755 
L 91.302247 128.00699 
L 89.879755 129.105983 
L 88.457263 129.899171 
L 86.679147 130.551184 
L 84.901032 130.923625 
L 82.767293 131.105825 
L 78.144193 131.195259 
L 62.852399 131.058312 
L 60.718661 130.793553 
L 58.940545 130.31614 
L 57.16243 129.538349 
L 55.739937 128.603811 
L 54.231633 127.257025 
L 51.828083 124.796525 
L 51.061137 124.356198 
L 50.405591 124.212479 
L 49.653719 124.356198 
L 48.627475 124.797994 
L 46.493737 125.819435 
L 45.071244 126.204163 
L 44.004375 126.292599 
L 44.004375 126.292599 
" style="fill:none;stroke:#46327e;stroke-width:0.8;"/>
   </g>
   <g id="LineCollection_3">
    <path clip-path="url(#pe1284bce39)" d="M 44.004375 75.445791 
L 44.359998 75.706446 
L 44.497324 76.009091 
L 44.715621 76.644295 
L 44.784125 76.976033 
L 44.923869 77.942975 
L 45.008234 78.909917 
L 45.043096 79.87686 
L 45.033686 80.843802 
L 44.98454 81.810744 
L 44.900101 82.777686 
L 44.784162 83.744628 
L 44.715621 84.204566 
L 44.591768 84.71157 
L 44.359998 85.521349 
L 44.226039 85.678512 
L 44.004375 85.909004 
" style="fill:none;stroke:#365c8d;stroke-width:0.8;"/>
    <path clip-path="url(#pe1284bce39)" d="M 161.004375 87.508604 
L 160.648752 87.148312 
L 160.482202 86.645455 
L 160.293129 86.015955 
L 160.23137 85.678512 
L 160.0751 84.71157 
L 159.942586 83.744628 
L 159.937506 83.697841 
L 159.864198 82.777686 
L 159.809356 81.810744 
L 159.779781 80.843802 
L 159.778545 79.87686 
L 159.808987 78.909917 
L 159.874994 77.942975 
L 159.937506 77.369437 
L 159.996947 76.976033 
L 160.202789 76.009091 
L 160.293129 75.686777 
L 160.594962 75.042149 
L 160.648752 74.950219 
L 161.004375 74.747137 
" style="fill:none;stroke:#365c8d;stroke-width:0.8;"/>
    <path clip-path="url(#pe1284bce39)" d="M 56.554823 124.691888 
L 56.09556 123.862785 
L 55.533856 122.422314 
L 55.178974 120.48843 
L 55.054371 117.587603 
L 54.507315 94.380992 
L 53.567243 76.009091 
L 53.65323 71.17438 
L 53.961822 67.074776 
L 54.433698 63.438843 
L 55.028691 60.395306 
L 55.384314 59.337825 
L 55.739937 58.592096 
L 56.464433 57.63719 
L 57.873676 56.589139 
L 59.296168 55.823469 
L 61.429907 55.041167 
L 63.005853 54.736364 
L 65.341761 54.46647 
L 68.897992 54.284422 
L 74.943585 54.246399 
L 79.922308 54.390748 
L 83.122916 54.708322 
L 85.256655 55.148943 
L 86.729391 55.703306 
L 88.101639 56.381661 
L 89.524132 57.365184 
L 89.879755 57.678531 
L 90.591001 58.627211 
L 91.035038 59.571074 
L 91.540402 61.504959 
L 92.162356 65.372727 
L 92.553975 69.240496 
L 92.733937 73.108264 
L 92.722133 77.942975 
L 92.474629 83.744628 
L 91.523545 101.149587 
L 91.367719 109.852066 
L 91.214192 119.521488 
L 91.028561 121.455372 
L 90.433537 123.43981 
L 90.433537 123.43981 
" style="fill:none;stroke:#365c8d;stroke-width:0.8;"/>
    <path clip-path="url(#pe1284bce39)" d="M 101.186386 82.777686 
L 101.131545 81.810744 
L 101.101969 80.843802 
L 101.100733 79.87686 
L 101.131176 78.909917 
L 101.197182 77.942975 
L 101.259694 77.369437 
L 101.319136 76.976033 
L 101.524978 76.009091 
L 101.615317 75.686777 
L 101.91715 75.042149 
L 101.97094 74.950219 
L 102.326563 74.747137 
L 102.498333 75.042149 
L 102.682187 75.445791 
L 103.03781 75.706446 
L 103.175136 76.009091 
L 103.393433 76.644295 
L 103.461937 76.976033 
L 103.601681 77.942975 
L 103.686045 78.909917 
L 103.720908 79.87686 
L 103.711497 80.843802 
L 103.662352 81.810744 
L 103.577912 82.777686 
L 103.461973 83.744628 
L 103.393433 84.204566 
L 103.26958 84.71157 
L 103.03781 85.521349 
L 102.90385 85.678512 
L 102.682187 85.909004 
L 102.522522 86.645455 
L 102.326563 87.508604 
L 101.97094 87.148312 
L 101.80439 86.645455 
L 101.615317 86.015955 
L 101.553559 85.678512 
L 101.397289 84.71157 
L 101.264774 83.744628 
L 101.259694 83.697841 
L 101.186386 82.777686 
" style="fill:none;stroke:#365c8d;stroke-width:0.8;"/>
    <path clip-path="url(#pe1284bce39)" d="M 149.977508 116.157831 
L 149.827237 120.48843 
L 149.624436 121.791746 
L 149.135201 123.389256 
L 148.557566 124.533504 
L 147.84632 125.539778 
L 146.779451 126.585452 
L 145.712582 127.299764 
L 144.290089 127.923714 
L 142.867597 128.293711 
L 141.089481 128.512865 
L 137.888873 128.66545 
L 131.132035 128.686903 
L 123.663949 128.577297 
L 121.174588 128.344386 
L 119.752095 128.027136 
L 118.329603 127.475877 
L 117.262734 126.844617 
L 116.195864 125.930194 
L 115.484618 125.074787 
L 114.773372 123.862785 
L 114.211668 122.422314 
L 113.856786 120.48843 
L 113.732182 117.587603 
L 113.185126 94.380992 
L 112.245055 76.009091 
L 112.331041 71.17438 
L 112.639633 67.074776 
L 113.11151 63.438843 
L 113.706503 60.395306 
L 114.062126 59.337825 
L 114.417749 58.592096 
L 115.142245 57.63719 
L 116.551487 56.589139 
L 117.97398 55.823469 
L 120.107718 55.041167 
L 121.683664 54.736364 
L 124.019573 54.46647 
L 127.575804 54.284422 
L 133.621396 54.246399 
L 138.60012 54.390748 
L 141.800728 54.708322 
L 143.934466 55.148943 
L 145.407202 55.703306 
L 146.779451 56.381661 
L 148.201943 57.365184 
L 148.557566 57.678531 
L 149.268813 58.627211 
L 149.71285 59.571074 
L 150.218214 61.504959 
L 150.840167 65.372727 
L 151.231786 69.240496 
L 151.411748 73.108264 
L 151.399945 77.942975 
L 151.3708 78.991798 
L 151.3708 78.991798 
" style="fill:none;stroke:#365c8d;stroke-width:0.8;"/>
   </g>
   <g id="LineCollection_4">
    <path clip-path="url(#pe1284bce39)" d="M 87.628859 58.469582 
L 87.761083 58.604132 
L 88.457263 59.845684 
L 88.965317 61.504959 
L 89.524132 64.431358 
L 89.997062 68.273554 
L 90.235378 72.242428 
L 90.267869 76.976033 
L 90.033906 82.777686 
L 89.389805 91.480165 
L 88.80342 100.182645 
L 88.599371 106.95124 
L 88.366807 120.48843 
L 88.101639 121.833996 
L 87.746016 122.762749 
L 87.03477 123.91134 
L 86.323524 124.659339 
L 85.256655 125.406507 
L 84.189785 125.854782 
L 82.767293 126.183598 
L 80.633554 126.432198 
L 77.432946 126.573477 
L 70.320484 126.589065 
L 66.053007 126.451712 
L 63.563646 126.174921 
L 62.141153 125.846055 
L 61.074284 125.398526 
L 60.363038 124.934973 
L 59.651791 124.332058 
L 58.911024 123.389256 
L 58.229299 121.838208 
L 58.109686 121.455372 
L 57.873676 119.219876 
L 57.782206 114.686777 
L 57.607282 102.116529 
L 57.233048 95.347934 
L 56.079593 77.942975 
L 56.062871 73.108264 
L 56.245107 69.240496 
L 56.681387 65.187759 
L 56.681387 65.187759 
" style="fill:none;stroke:#277f8e;stroke-width:0.8;"/>
    <path clip-path="url(#pe1284bce39)" d="M 115.22239 86.455942 
L 114.823494 79.87686 
L 114.718203 75.042149 
L 114.858403 70.207438 
L 115.205524 66.339669 
L 115.639186 63.438843 
L 116.281942 60.538017 
L 116.907111 59.119157 
L 117.262734 58.57211 
L 118.329603 57.606717 
L 119.752095 56.93759 
L 121.174588 56.51353 
L 122.952703 56.231736 
L 125.797688 55.995345 
L 130.065165 55.887185 
L 136.822004 55.950615 
L 140.378235 56.194659 
L 142.511974 56.518757 
L 143.934466 56.944209 
L 145.393395 57.63719 
L 146.438895 58.604132 
L 147.135074 59.845684 
L 147.643129 61.504959 
L 148.201943 64.431358 
L 148.674874 68.273554 
L 148.91319 72.242428 
L 148.945681 76.976033 
L 148.711717 82.777686 
L 148.067617 91.480165 
L 147.481231 100.182645 
L 147.277183 106.95124 
L 147.044619 120.48843 
L 146.779451 121.833996 
L 146.423828 122.762749 
L 145.712582 123.91134 
L 145.001335 124.659339 
L 143.934466 125.406507 
L 142.867597 125.854782 
L 141.445104 126.183598 
L 139.311366 126.432198 
L 136.110758 126.573477 
L 128.998296 126.589065 
L 124.730819 126.451712 
L 122.241457 126.174921 
L 120.818965 125.846055 
L 119.752095 125.398526 
L 119.040849 124.934973 
L 118.329603 124.332058 
L 117.61507 123.426924 
L 117.61507 123.426924 
" style="fill:none;stroke:#277f8e;stroke-width:0.8;"/>
   </g>
   <g id="LineCollection_5">
    <path clip-path="url(#pe1284bce39)" d="M 86.961916 62.6681 
L 87.390393 64.437577 
L 87.880425 67.306612 
L 88.18048 70.207438 
L 88.34176 74.075207 
L 88.284925 77.942975 
L 87.970881 82.777686 
L 87.329414 88.579339 
L 85.655537 102.116529 
L 85.436477 106.95124 
L 85.452042 113.719835 
L 85.405937 118.554545 
L 85.237967 120.48843 
L 84.901032 121.587131 
L 84.189785 122.529051 
L 83.122916 123.206508 
L 82.056047 123.581206 
L 80.277931 123.9493 
L 77.78857 124.205283 
L 74.232339 124.307312 
L 69.253615 124.242879 
L 66.40863 124.000734 
L 64.274892 123.580655 
L 63.208022 123.207058 
L 62.141153 122.532977 
L 61.78553 122.152406 
L 61.344582 121.455372 
L 61.074284 120.433796 
L 60.910361 118.554545 
L 60.858455 113.719835 
L 60.814915 105.017355 
L 60.486709 100.182645 
L 59.783976 94.380992 
L 58.543013 84.71157 
L 58.139019 79.87686 
L 57.980098 75.042149 
L 58.080667 71.17438 
L 58.442555 67.306612 
L 58.511037 66.834274 
L 58.511037 66.834274 
" style="fill:none;stroke:#1fa187;stroke-width:0.8;"/>
    <path clip-path="url(#pe1284bce39)" d="M 145.639727 62.6681 
L 146.068205 64.437577 
L 146.558237 67.306612 
L 146.858292 70.207438 
L 147.019572 74.075207 
L 146.962737 77.942975 
L 146.648693 82.777686 
L 146.007226 88.579339 
L 144.333348 102.116529 
L 144.114289 106.95124 
L 144.129854 113.719835 
L 144.083749 118.554545 
L 143.915779 120.48843 
L 143.578843 121.587131 
L 142.867597 122.529051 
L 141.800728 123.206508 
L 140.733858 123.581206 
L 138.955743 123.9493 
L 136.466381 124.205283 
L 132.91015 124.307312 
L 127.931427 124.242879 
L 125.086442 124.000734 
L 122.952703 123.580655 
L 121.885834 123.207058 
L 120.818965 122.532977 
L 120.463342 122.152406 
L 120.022393 121.455372 
L 119.752095 120.433796 
L 119.588172 118.554545 
L 119.536266 113.719835 
L 119.492726 105.017355 
L 119.16452 100.182645 
L 118.461788 94.380992 
L 117.220825 84.71157 
L 116.81683 79.87686 
L 116.65791 75.042149 
L 116.758479 71.17438 
L 117.120367 67.306612 
L 117.188849 66.834274 
L 117.188849 66.834274 
" style="fill:none;stroke:#1fa187;stroke-width:0.8;"/>
   </g>
   <g id="LineCollection_6">
    <path clip-path="url(#pe1284bce39)" d="M 86.22549 71.235133 
L 86.338998 74.075207 
L 86.271391 76.976033 
L 85.924515 80.843802 
L 85.278596 84.71157 
L 84.823815 86.645455 
L 84.189785 88.659801 
L 83.347316 90.513223 
L 82.732099 91.480165 
L 81.700424 92.751197 
L 80.633554 93.713225 
L 79.552481 94.380992 
L 78.499816 94.817826 
L 77.077323 95.12712 
L 74.943585 95.28033 
L 69.964861 95.327878 
L 68.542369 95.164108 
L 67.4755 94.871902 
L 66.40863 94.357392 
L 65.341761 93.590873 
L 64.236295 92.447107 
L 63.208022 91.032389 
L 62.456448 89.546281 
L 61.748742 87.612397 
L 61.039843 84.71157 
L 60.399389 80.843802 
L 60.114618 77.942975 
L 59.990105 75.042149 
L 60.042174 72.141322 
L 60.363038 68.780279 
L 60.829062 66.297592 
L 60.829062 66.297592 
" style="fill:none;stroke:#4ac16d;stroke-width:0.8;"/>
    <path clip-path="url(#pe1284bce39)" d="M 144.903302 71.235133 
L 145.01681 74.075207 
L 144.949202 76.976033 
L 144.602326 80.843802 
L 143.956407 84.71157 
L 143.501626 86.645455 
L 142.867597 88.659801 
L 142.025127 90.513223 
L 141.409911 91.480165 
L 140.378235 92.751197 
L 139.311366 93.713225 
L 138.230293 94.380992 
L 137.177627 94.817826 
L 135.755135 95.12712 
L 133.621396 95.28033 
L 128.642673 95.327878 
L 127.22018 95.164108 
L 126.153311 94.871902 
L 125.086442 94.357392 
L 124.019573 93.590873 
L 122.914106 92.447107 
L 121.885834 91.032389 
L 121.134259 89.546281 
L 120.426554 87.612397 
L 119.717655 84.71157 
L 119.077201 80.843802 
L 118.792429 77.942975 
L 118.667917 75.042149 
L 118.719985 72.141322 
L 119.040849 68.780279 
L 119.506873 66.297592 
L 119.506873 66.297592 
" style="fill:none;stroke:#4ac16d;stroke-width:0.8;"/>
   </g>
   <g id="LineCollection_7">
    <path clip-path="url(#pe1284bce39)" d="M 63.178773 76.976033 
L 62.914296 75.042149 
L 62.876935 73.108264 
L 63.077491 71.17438 
L 63.563646 69.295228 
L 63.992796 68.273554 
L 64.630515 67.184685 
L 65.697384 65.964504 
L 66.764253 65.166418 
L 68.186746 64.50876 
L 69.609238 64.149932 
L 71.387354 63.94032 
L 73.876715 63.897413 
L 76.010454 64.056857 
L 77.78857 64.414327 
L 79.211062 64.998247 
L 80.277931 65.692607 
L 80.995317 66.339669 
L 81.760289 67.306612 
L 82.41167 68.486731 
L 83.03024 70.207438 
L 83.367133 72.141322 
L 83.445905 74.075207 
L 83.290857 76.009091 
L 82.878061 77.942975 
L 82.41167 79.234657 
L 81.700424 80.601078 
L 80.989177 81.559424 
L 80.277931 82.260195 
L 79.211062 82.988156 
L 78.144193 83.443616 
L 76.7217 83.786918 
L 74.943585 83.969157 
L 72.0986 84.023554 
L 69.964861 83.899887 
L 68.542369 83.63315 
L 67.4755 83.250819 
L 66.40863 82.632775 
L 65.341761 81.652322 
L 64.630515 80.69443 
L 63.919269 79.327066 
L 63.422693 77.942975 
L 63.178773 76.976033 
L 63.178773 76.976033 
" style="fill:none;stroke:#a0da39;stroke-width:0.8;"/>
    <path clip-path="url(#pe1284bce39)" d="M 121.856585 76.976033 
L 121.592107 75.042149 
L 121.554746 73.108264 
L 121.755303 71.17438 
L 122.241457 69.295228 
L 122.670607 68.273554 
L 123.308326 67.184685 
L 124.375196 65.964504 
L 125.442065 65.166418 
L 126.864557 64.50876 
L 128.28705 64.149932 
L 130.065165 63.94032 
L 132.554527 63.897413 
L 134.688266 64.056857 
L 136.466381 64.414327 
L 137.888873 64.998247 
L 138.955743 65.692607 
L 139.673129 66.339669 
L 140.4381 67.306612 
L 141.089481 68.486731 
L 141.708052 70.207438 
L 142.044944 72.141322 
L 142.123717 74.075207 
L 141.968669 76.009091 
L 141.555872 77.942975 
L 141.089481 79.234657 
L 140.378235 80.601078 
L 139.666989 81.559424 
L 138.955743 82.260195 
L 137.888873 82.988156 
L 136.822004 83.443616 
L 135.399512 83.786918 
L 133.621396 83.969157 
L 130.776411 84.023554 
L 128.642673 83.899887 
L 127.22018 83.63315 
L 126.153311 83.250819 
L 125.086442 82.632775 
L 124.019573 81.652322 
L 123.308326 80.69443 
L 122.59708 79.327066 
L 122.100505 77.942975 
L 121.856585 76.976033 
L 121.856585 76.976033 
" style="fill:none;stroke:#a0da39;stroke-width:0.8;"/>
   </g>
   <g id="LineCollection_8"/>
   <g id="patch_4">
    <path d="M 44.004375 161.1 
L 44.004375 44.1 
" style="fill:none;stroke:#000000;stroke-linecap:square;stroke-linejoin:miter;stroke-width:0.8;"/>
   </g>
   <g id="patch_5">
    <path d="M 161.004375 161.1 
L 161.004375 44.1 
" style="fill:none;stroke:#000000;stroke-linecap:square;stroke-linejoin:miter;stroke-width:0.8;"/>
   </g>
   <g id="patch_6">
    <path d="M 44.004375 161.1 
L 161.004375 161.1 
" style="fill:none;stroke:#000000;stroke-linecap:square;stroke-linejoin:miter;stroke-width:0.8;"/>
   </g>
   <g id="patch_7">
    <path d="M 44.004375 44.1 
L 161.004375 44.1 
" style="fill:none;stroke:#000000;stroke-linecap:square;stroke-linejoin:miter;stroke-width:0.8;"/>
   </g>
   <g id="text_9">
    <g clip-path="url(#pe1284bce39)">
     <!-- 0.150 -->
     <defs>
      <path d="M 10.6875 12.40625 
L 21 12.40625 
L 21 0 
L 10.6875 0 
z
" id="DejaVuSans-46"/>
      <path d="M 12.40625 8.296875 
L 28.515625 8.296875 
L 28.515625 63.921875 
L 10.984375 60.40625 
L 10.984375 69.390625 
L 28.421875 72.90625 
L 38.28125 72.90625 
L 38.28125 8.296875 
L 54.390625 8.296875 
L 54.390625 0 
L 12.40625 0 
z
" id="DejaVuSans-49"/>
      <path d="M 10.796875 72.90625 
L 49.515625 72.90625 
L 49.515625 64.59375 
L 19.828125 64.59375 
L 19.828125 46.734375 
Q 21.96875 47.46875 24.109375 47.828125 
Q 26.265625 48.1875 28.421875 48.1875 
Q 40.625 48.1875 47.75 41.5 
Q 54.890625 34.8125 54.890625 23.390625 
Q 54.890625 11.625 47.5625 5.09375 
Q 40.234375 -1.421875 26.90625 -1.421875 
Q 22.3125 -1.421875 17.546875 -0.640625 
Q 12.796875 0.140625 7.71875 1.703125 
L 7.71875 11.625 
Q 12.109375 9.234375 16.796875 8.0625 
Q 21.484375 6.890625 26.703125 6.890625 
Q 35.15625 6.890625 40.078125 11.328125 
Q 45.015625 15.765625 45.015625 23.390625 
Q 45.015625 31 40.078125 35.4375 
Q 35.15625 39.890625 26.703125 39.890625 
Q 22.75 39.890625 18.8125 39.015625 
Q 14.890625 38.140625 10.796875 36.28125 
z
" id="DejaVuSans-53"/>
     </defs>
     <g style="fill:#46327e;" transform="translate(115.897867 54.979201)rotate(-2.714848)scale(0.1 -0.1)">
      <use xlink:href="#DejaVuSans-48"/>
      <use x="63.623047" xlink:href="#DejaVuSans-46"/>
      <use x="95.410156" xlink:href="#DejaVuSans-49"/>
      <use x="159.033203" xlink:href="#DejaVuSans-53"/>
      <use x="222.65625" xlink:href="#DejaVuSans-48"/>
     </g>
    </g>
   </g>
   <g id="text_10">
    <g clip-path="url(#pe1284bce39)">
     <!-- 0.150 -->
     <g style="fill:#46327e;" transform="translate(114.148149 132.736126)rotate(-355.208696)scale(0.1 -0.1)">
      <use xlink:href="#DejaVuSans-48"/>
      <use x="63.623047" xlink:href="#DejaVuSans-46"/>
      <use x="95.410156" xlink:href="#DejaVuSans-49"/>
      <use x="159.033203" xlink:href="#DejaVuSans-53"/>
      <use x="222.65625" xlink:href="#DejaVuSans-48"/>
     </g>
    </g>
   </g>
   <g id="text_11">
    <g clip-path="url(#pe1284bce39)">
     <!-- 0.300 -->
     <defs>
      <path d="M 40.578125 39.3125 
Q 47.65625 37.796875 51.625 33 
Q 55.609375 28.21875 55.609375 21.1875 
Q 55.609375 10.40625 48.1875 4.484375 
Q 40.765625 -1.421875 27.09375 -1.421875 
Q 22.515625 -1.421875 17.65625 -0.515625 
Q 12.796875 0.390625 7.625 2.203125 
L 7.625 11.71875 
Q 11.71875 9.328125 16.59375 8.109375 
Q 21.484375 6.890625 26.8125 6.890625 
Q 36.078125 6.890625 40.9375 10.546875 
Q 45.796875 14.203125 45.796875 21.1875 
Q 45.796875 27.640625 41.28125 31.265625 
Q 36.765625 34.90625 28.71875 34.90625 
L 20.21875 34.90625 
L 20.21875 43.015625 
L 29.109375 43.015625 
Q 36.375 43.015625 40.234375 45.921875 
Q 44.09375 48.828125 44.09375 54.296875 
Q 44.09375 59.90625 40.109375 62.90625 
Q 36.140625 65.921875 28.71875 65.921875 
Q 24.65625 65.921875 20.015625 65.03125 
Q 15.375 64.15625 9.8125 62.3125 
L 9.8125 71.09375 
Q 15.4375 72.65625 20.34375 73.4375 
Q 25.25 74.21875 29.59375 74.21875 
Q 40.828125 74.21875 47.359375 69.109375 
Q 53.90625 64.015625 53.90625 55.328125 
Q 53.90625 49.265625 50.4375 45.09375 
Q 46.96875 40.921875 40.578125 39.3125 
z
" id="DejaVuSans-51"/>
     </defs>
     <g style="fill:#365c8d;" transform="translate(59.645914 131.848614)rotate(-1.611496)scale(0.1 -0.1)">
      <use xlink:href="#DejaVuSans-48"/>
      <use x="63.623047" xlink:href="#DejaVuSans-46"/>
      <use x="95.410156" xlink:href="#DejaVuSans-51"/>
      <use x="159.033203" xlink:href="#DejaVuSans-48"/>
      <use x="222.65625" xlink:href="#DejaVuSans-48"/>
     </g>
    </g>
   </g>
   <g id="text_12">
    <g clip-path="url(#pe1284bce39)">
     <!-- 0.300 -->
     <g style="fill:#365c8d;" transform="translate(152.522695 111.974955)rotate(-87.717134)scale(0.1 -0.1)">
      <use xlink:href="#DejaVuSans-48"/>
      <use x="63.623047" xlink:href="#DejaVuSans-46"/>
      <use x="95.410156" xlink:href="#DejaVuSans-51"/>
      <use x="159.033203" xlink:href="#DejaVuSans-48"/>
      <use x="222.65625" xlink:href="#DejaVuSans-48"/>
     </g>
    </g>
   </g>
   <g id="text_13">
    <g clip-path="url(#pe1284bce39)">
     <!-- 0.450 -->
     <defs>
      <path d="M 37.796875 64.3125 
L 12.890625 25.390625 
L 37.796875 25.390625 
z
M 35.203125 72.90625 
L 47.609375 72.90625 
L 47.609375 25.390625 
L 58.015625 25.390625 
L 58.015625 17.1875 
L 47.609375 17.1875 
L 47.609375 0 
L 37.796875 0 
L 37.796875 17.1875 
L 4.890625 17.1875 
L 4.890625 26.703125 
z
" id="DejaVuSans-52"/>
     </defs>
     <g style="fill:#277f8e;" transform="translate(56.018543 61.182634)rotate(-10.292553)scale(0.1 -0.1)">
      <use xlink:href="#DejaVuSans-48"/>
      <use x="63.623047" xlink:href="#DejaVuSans-46"/>
      <use x="95.410156" xlink:href="#DejaVuSans-52"/>
      <use x="159.033203" xlink:href="#DejaVuSans-53"/>
      <use x="222.65625" xlink:href="#DejaVuSans-48"/>
     </g>
    </g>
   </g>
   <g id="text_14">
    <g clip-path="url(#pe1284bce39)">
     <!-- 0.450 -->
     <g style="fill:#277f8e;" transform="translate(113.088367 90.814137)rotate(-272.102041)scale(0.1 -0.1)">
      <use xlink:href="#DejaVuSans-48"/>
      <use x="63.623047" xlink:href="#DejaVuSans-46"/>
      <use x="95.410156" xlink:href="#DejaVuSans-52"/>
      <use x="159.033203" xlink:href="#DejaVuSans-53"/>
      <use x="222.65625" xlink:href="#DejaVuSans-48"/>
     </g>
    </g>
   </g>
   <g id="text_15">
    <g clip-path="url(#pe1284bce39)">
     <!-- 0.600 -->
     <defs>
      <path d="M 33.015625 40.375 
Q 26.375 40.375 22.484375 35.828125 
Q 18.609375 31.296875 18.609375 23.390625 
Q 18.609375 15.53125 22.484375 10.953125 
Q 26.375 6.390625 33.015625 6.390625 
Q 39.65625 6.390625 43.53125 10.953125 
Q 47.40625 15.53125 47.40625 23.390625 
Q 47.40625 31.296875 43.53125 35.828125 
Q 39.65625 40.375 33.015625 40.375 
z
M 52.59375 71.296875 
L 52.59375 62.3125 
Q 48.875 64.0625 45.09375 64.984375 
Q 41.3125 65.921875 37.59375 65.921875 
Q 27.828125 65.921875 22.671875 59.328125 
Q 17.53125 52.734375 16.796875 39.40625 
Q 19.671875 43.65625 24.015625 45.921875 
Q 28.375 48.1875 33.59375 48.1875 
Q 44.578125 48.1875 50.953125 41.515625 
Q 57.328125 34.859375 57.328125 23.390625 
Q 57.328125 12.15625 50.6875 5.359375 
Q 44.046875 -1.421875 33.015625 -1.421875 
Q 20.359375 -1.421875 13.671875 8.265625 
Q 6.984375 17.96875 6.984375 36.375 
Q 6.984375 53.65625 15.1875 63.9375 
Q 23.390625 74.21875 37.203125 74.21875 
Q 40.921875 74.21875 44.703125 73.484375 
Q 48.484375 72.75 52.59375 71.296875 
z
" id="DejaVuSans-54"/>
     </defs>
     <g style="fill:#1fa187;" transform="translate(57.277019 62.093087)rotate(-8.432026)scale(0.1 -0.1)">
      <use xlink:href="#DejaVuSans-48"/>
      <use x="63.623047" xlink:href="#DejaVuSans-46"/>
      <use x="95.410156" xlink:href="#DejaVuSans-54"/>
      <use x="159.033203" xlink:href="#DejaVuSans-48"/>
      <use x="222.65625" xlink:href="#DejaVuSans-48"/>
     </g>
    </g>
   </g>
   <g id="text_16">
    <g clip-path="url(#pe1284bce39)">
     <!-- 0.600 -->
     <g style="fill:#1fa187;" transform="translate(115.954831 62.093087)rotate(-8.432026)scale(0.1 -0.1)">
      <use xlink:href="#DejaVuSans-48"/>
      <use x="63.623047" xlink:href="#DejaVuSans-46"/>
      <use x="95.410156" xlink:href="#DejaVuSans-54"/>
      <use x="159.033203" xlink:href="#DejaVuSans-48"/>
      <use x="222.65625" xlink:href="#DejaVuSans-48"/>
     </g>
    </g>
   </g>
   <g id="text_17">
    <g clip-path="url(#pe1284bce39)">
     <!-- 0.750 -->
     <defs>
      <path d="M 8.203125 72.90625 
L 55.078125 72.90625 
L 55.078125 68.703125 
L 28.609375 0 
L 18.3125 0 
L 43.21875 64.59375 
L 8.203125 64.59375 
z
" id="DejaVuSans-55"/>
     </defs>
     <g style="fill:#4ac16d;" transform="translate(61.077604 59.039005)rotate(-348.676557)scale(0.1 -0.1)">
      <use xlink:href="#DejaVuSans-48"/>
      <use x="63.623047" xlink:href="#DejaVuSans-46"/>
      <use x="95.410156" xlink:href="#DejaVuSans-55"/>
      <use x="159.033203" xlink:href="#DejaVuSans-53"/>
      <use x="222.65625" xlink:href="#DejaVuSans-48"/>
     </g>
    </g>
   </g>
   <g id="text_18">
    <g clip-path="url(#pe1284bce39)">
     <!-- 0.750 -->
     <g style="fill:#4ac16d;" transform="translate(119.755416 59.039005)rotate(-348.676557)scale(0.1 -0.1)">
      <use xlink:href="#DejaVuSans-48"/>
      <use x="63.623047" xlink:href="#DejaVuSans-46"/>
      <use x="95.410156" xlink:href="#DejaVuSans-55"/>
      <use x="159.033203" xlink:href="#DejaVuSans-53"/>
      <use x="222.65625" xlink:href="#DejaVuSans-48"/>
     </g>
    </g>
   </g>
  </g>
  <g id="axes_2">
   <g id="patch_8">
    <path d="M 44.004375 43.2 
L 161.004375 43.2 
L 161.004375 7.2 
L 44.004375 7.2 
z
" style="fill:none;"/>
   </g>
   <g id="matplotlib.axis_3">
    <g id="xtick_4">
     <g id="line2d_13">
      <g>
       <use style="stroke:#000000;stroke-width:0.8;" x="63.504375" xlink:href="#ma2a27da145" y="43.2"/>
      </g>
     </g>
    </g>
    <g id="xtick_5">
     <g id="line2d_14">
      <g>
       <use style="stroke:#000000;stroke-width:0.8;" x="102.504375" xlink:href="#ma2a27da145" y="43.2"/>
      </g>
     </g>
    </g>
    <g id="xtick_6">
     <g id="line2d_15">
      <g>
       <use style="stroke:#000000;stroke-width:0.8;" x="141.504375" xlink:href="#ma2a27da145" y="43.2"/>
      </g>
     </g>
    </g>
   </g>
   <g id="matplotlib.axis_4">
    <g id="ytick_4">
     <g id="line2d_16">
      <g>
       <use style="stroke:#000000;stroke-width:0.8;" x="44.004375" xlink:href="#m28c00b9103" y="36.989582"/>
      </g>
     </g>
     <g id="text_19">
      <!-- 0.25 -->
      <g transform="translate(13.785625 41.548645)scale(0.12 -0.12)">
       <use xlink:href="#DejaVuSans-48"/>
       <use x="63.623047" xlink:href="#DejaVuSans-46"/>
       <use x="95.410156" xlink:href="#DejaVuSans-50"/>
       <use x="159.033203" xlink:href="#DejaVuSans-53"/>
      </g>
     </g>
    </g>
    <g id="ytick_5">
     <g id="line2d_17">
      <g>
       <use style="stroke:#000000;stroke-width:0.8;" x="44.004375" xlink:href="#m28c00b9103" y="27.016911"/>
      </g>
     </g>
     <g id="text_20">
      <!-- 0.50 -->
      <g transform="translate(13.785625 31.575974)scale(0.12 -0.12)">
       <use xlink:href="#DejaVuSans-48"/>
       <use x="63.623047" xlink:href="#DejaVuSans-46"/>
       <use x="95.410156" xlink:href="#DejaVuSans-53"/>
       <use x="159.033203" xlink:href="#DejaVuSans-48"/>
      </g>
     </g>
    </g>
    <g id="ytick_6">
     <g id="line2d_18">
      <g>
       <use style="stroke:#000000;stroke-width:0.8;" x="44.004375" xlink:href="#m28c00b9103" y="17.04424"/>
      </g>
     </g>
     <g id="text_21">
      <!-- 0.75 -->
      <g transform="translate(13.785625 21.603303)scale(0.12 -0.12)">
       <use xlink:href="#DejaVuSans-48"/>
       <use x="63.623047" xlink:href="#DejaVuSans-46"/>
       <use x="95.410156" xlink:href="#DejaVuSans-55"/>
       <use x="159.033203" xlink:href="#DejaVuSans-53"/>
      </g>
     </g>
    </g>
   </g>
   <g id="LineCollection_9">
    <path clip-path="url(#pb0fd3ea28b)" d="M 44.004375 41.563636 
L 161.004375 41.563636 
" style="fill:none;stroke:#000000;stroke-dasharray:0.8,1.32;stroke-dashoffset:0;stroke-width:0.8;"/>
   </g>
   <g id="line2d_19">
    <path clip-path="url(#pb0fd3ea28b)" d="M 44.004375 34.833391 
L 44.715621 34.909213 
L 45.782491 35.288983 
L 47.204983 36.155471 
L 48.983098 37.317608 
L 50.049968 37.719742 
L 50.761214 37.746455 
L 51.47246 37.524587 
L 52.183706 37.019753 
L 52.894953 36.212519 
L 53.606199 35.100185 
L 54.673068 32.896266 
L 55.739937 30.158727 
L 57.873676 23.828917 
L 59.651791 18.67903 
L 61.074284 15.215316 
L 62.141153 13.228259 
L 62.852399 12.27241 
L 63.919269 11.258592 
L 65.341761 10.274088 
L 66.764253 9.61369 
L 68.186746 9.206911 
L 69.964861 8.946375 
L 72.454223 8.83834 
L 75.654831 8.91739 
L 77.78857 9.173315 
L 79.211062 9.531346 
L 80.633554 10.121258 
L 82.056047 11.014525 
L 83.122916 11.922943 
L 83.834162 12.742429 
L 84.545408 13.80763 
L 85.612278 16.026766 
L 87.03477 19.664423 
L 89.168509 26.002829 
L 90.946624 31.133316 
L 92.013494 33.709923 
L 93.080363 35.703634 
L 93.791609 36.660602 
L 94.502855 37.310361 
L 95.214101 37.664078 
L 95.925348 37.749287 
L 96.636594 37.607129 
L 97.703463 37.081873 
L 100.904071 35.066523 
L 101.97094 34.785302 
L 102.682187 34.833391 
L 103.393433 34.909213 
L 104.460302 35.288983 
L 105.882794 36.155471 
L 107.66091 37.317608 
L 108.727779 37.719742 
L 109.439025 37.746455 
L 110.150272 37.524587 
L 110.861518 37.019753 
L 111.572764 36.212519 
L 112.28401 35.100185 
L 113.35088 32.896266 
L 114.417749 30.158727 
L 116.551487 23.828917 
L 118.329603 18.67903 
L 119.752095 15.215316 
L 120.818965 13.228259 
L 121.530211 12.27241 
L 122.59708 11.258592 
L 124.019573 10.274088 
L 125.442065 9.61369 
L 126.864557 9.206911 
L 128.642673 8.946375 
L 131.132035 8.83834 
L 134.332642 8.91739 
L 136.466381 9.173315 
L 137.888873 9.531346 
L 139.311366 10.121258 
L 140.733858 11.014525 
L 141.800728 11.922943 
L 142.511974 12.742429 
L 143.22322 13.80763 
L 144.290089 16.026766 
L 145.712582 19.664423 
L 147.84632 26.002829 
L 149.624436 31.133316 
L 150.691305 33.709923 
L 151.758174 35.703634 
L 152.469421 36.660602 
L 153.180667 37.310361 
L 153.891913 37.664078 
L 154.603159 37.749287 
L 155.314405 37.607129 
L 156.381275 37.081873 
L 159.581883 35.066523 
L 160.648752 34.785302 
L 161.004375 34.766 
L 161.004375 34.766 
" style="fill:none;stroke:#1f77b4;stroke-linecap:square;"/>
   </g>
   <g id="patch_9">
    <path d="M 44.004375 43.2 
L 44.004375 7.2 
" style="fill:none;stroke:#000000;stroke-linecap:square;stroke-linejoin:miter;stroke-width:0.8;"/>
   </g>
   <g id="patch_10">
    <path d="M 161.004375 43.2 
L 161.004375 7.2 
" style="fill:none;stroke:#000000;stroke-linecap:square;stroke-linejoin:miter;stroke-width:0.8;"/>
   </g>
   <g id="patch_11">
    <path d="M 44.004375 43.2 
L 161.004375 43.2 
" style="fill:none;stroke:#000000;stroke-linecap:square;stroke-linejoin:miter;stroke-width:0.8;"/>
   </g>
   <g id="patch_12">
    <path d="M 44.004375 7.2 
L 161.004375 7.2 
" style="fill:none;stroke:#000000;stroke-linecap:square;stroke-linejoin:miter;stroke-width:0.8;"/>
   </g>
  </g>
  <g id="axes_3">
   <g id="patch_13">
    <path d="M 161.904375 161.1 
L 197.904375 161.1 
L 197.904375 44.1 
L 161.904375 44.1 
z
" style="fill:none;"/>
   </g>
   <g id="matplotlib.axis_5">
    <g id="xtick_7">
     <g id="line2d_20">
      <g>
       <use style="stroke:#000000;stroke-width:0.8;" x="163.540739" xlink:href="#ma2a27da145" y="161.1"/>
      </g>
     </g>
     <g id="text_22">
      <!-- 0.00 -->
      <g transform="translate(150.181364 173.718125)scale(0.12 -0.12)">
       <use xlink:href="#DejaVuSans-48"/>
       <use x="63.623047" xlink:href="#DejaVuSans-46"/>
       <use x="95.410156" xlink:href="#DejaVuSans-48"/>
       <use x="159.033203" xlink:href="#DejaVuSans-48"/>
      </g>
     </g>
    </g>
    <g id="xtick_8">
     <g id="line2d_21">
      <g>
       <use style="stroke:#000000;stroke-width:0.8;" x="190.449966" xlink:href="#ma2a27da145" y="161.1"/>
      </g>
     </g>
     <g id="text_23">
      <!-- 0.25 -->
      <g transform="translate(177.090591 173.718125)scale(0.12 -0.12)">
       <use xlink:href="#DejaVuSans-48"/>
       <use x="63.623047" xlink:href="#DejaVuSans-46"/>
       <use x="95.410156" xlink:href="#DejaVuSans-50"/>
       <use x="159.033203" xlink:href="#DejaVuSans-53"/>
      </g>
     </g>
    </g>
   </g>
   <g id="matplotlib.axis_6">
    <g id="ytick_7">
     <g id="line2d_22">
      <g>
       <use style="stroke:#000000;stroke-width:0.8;" x="161.904375" xlink:href="#m28c00b9103" y="141.6"/>
      </g>
     </g>
    </g>
    <g id="ytick_8">
     <g id="line2d_23">
      <g>
       <use style="stroke:#000000;stroke-width:0.8;" x="161.904375" xlink:href="#m28c00b9103" y="102.6"/>
      </g>
     </g>
    </g>
    <g id="ytick_9">
     <g id="line2d_24">
      <g>
       <use style="stroke:#000000;stroke-width:0.8;" x="161.904375" xlink:href="#m28c00b9103" y="63.6"/>
      </g>
     </g>
    </g>
   </g>
   <g id="LineCollection_10">
    <path clip-path="url(#pdb24e10bb1)" d="M 178.10781 161.1 
L 178.10781 44.1 
" style="fill:none;stroke:#000000;stroke-dasharray:0.8,1.32;stroke-dashoffset:0;stroke-width:0.8;"/>
   </g>
   <g id="line2d_25">
    <path clip-path="url(#pdb24e10bb1)" d="M 163.540739 161.1 
L 163.546358 160.133058 
L 163.562988 159.166116 
L 163.589954 158.199174 
L 163.626168 157.232231 
L 163.670177 156.265289 
L 163.720228 155.298347 
L 163.774353 154.331405 
L 163.830461 153.364463 
L 163.886436 152.397521 
L 163.940249 151.430579 
L 163.990054 150.463636 
L 164.034296 149.496694 
L 164.071807 148.529752 
L 164.101891 147.56281 
L 164.124401 146.595868 
L 164.139791 145.628926 
L 164.14917 144.661983 
L 164.154323 143.695041 
L 164.157708 142.728099 
L 164.162465 141.761157 
L 164.17236 140.794215 
L 164.191746 139.827273 
L 164.225489 138.860331 
L 164.278879 137.893388 
L 164.357518 136.926446 
L 164.467202 135.959504 
L 164.67269 134.992562 
L 165.040119 134.02562 
L 165.601518 133.058678 
L 166.662902 132.091736 
L 168.107393 131.124793 
L 169.933185 130.157851 
L 172.098571 129.190909 
L 174.523596 128.223967 
L 177.097692 127.257025 
L 179.693029 126.290083 
L 182.180206 125.32314 
L 184.445371 124.356198 
L 186.404183 123.389256 
L 188.011316 122.422314 
L 189.26348 121.455372 
L 189.984703 120.48843 
L 190.421259 119.521488 
L 190.698817 118.554545 
L 190.889721 117.587603 
L 191.056895 116.620661 
L 191.210383 115.653719 
L 191.352317 114.686777 
L 191.48483 113.719835 
L 191.609967 112.752893 
L 191.729859 111.78595 
L 191.846108 110.819008 
L 191.960758 109.852066 
L 192.07514 108.885124 
L 192.190856 107.918182 
L 192.309238 106.95124 
L 192.431175 105.984298 
L 192.557644 105.017355 
L 192.689446 104.050413 
L 192.827025 103.083471 
L 192.970826 102.116529 
L 193.120936 101.149587 
L 193.277445 100.182645 
L 193.439998 99.215702 
L 193.608417 98.24876 
L 193.78208 97.281818 
L 193.960275 96.314876 
L 194.142291 95.347934 
L 194.326885 94.380992 
L 194.51299 93.41405 
L 194.699273 92.447107 
L 194.884311 91.480165 
L 195.066328 90.513223 
L 195.243634 89.546281 
L 195.414275 88.579339 
L 195.576117 87.612397 
L 195.727027 86.645455 
L 195.864606 85.678512 
L 195.986454 84.71157 
L 196.090083 83.744628 
L 196.172737 82.777686 
L 196.23175 81.810744 
L 196.264456 80.843802 
L 196.268011 79.87686 
L 196.23966 78.909917 
L 196.176914 77.942975 
L 196.076929 76.976033 
L 195.937484 76.009091 
L 195.756089 75.042149 
L 195.530791 74.075207 
L 195.259721 73.108264 
L 194.941369 72.141322 
L 194.574581 71.17438 
L 194.158555 70.207438 
L 193.69276 69.240496 
L 193.177372 68.273554 
L 192.612925 67.306612 
L 192.000307 66.339669 
L 191.34103 65.372727 
L 190.637137 64.405785 
L 189.89094 63.438843 
L 189.105549 62.471901 
L 188.284163 61.504959 
L 187.35906 60.538017 
L 186.154177 59.571074 
L 184.457814 58.604132 
L 182.093552 57.63719 
L 178.902928 56.670248 
L 175.918583 55.703306 
L 173.297828 54.736364 
L 171.138255 53.769421 
L 169.466785 52.802479 
L 168.243959 51.835537 
L 167.380473 50.868595 
L 166.761634 49.901653 
L 166.105236 48.934711 
L 165.483633 47.967769 
L 164.822676 47.000826 
L 164.186511 46.033884 
L 163.715374 45.066942 
L 163.540739 44.1 
" style="fill:none;stroke:#1f77b4;stroke-linecap:square;"/>
   </g>
   <g id="patch_14">
    <path d="M 161.904375 161.1 
L 161.904375 44.1 
" style="fill:none;stroke:#000000;stroke-linecap:square;stroke-linejoin:miter;stroke-width:0.8;"/>
   </g>
   <g id="patch_15">
    <path d="M 197.904375 161.1 
L 197.904375 44.1 
" style="fill:none;stroke:#000000;stroke-linecap:square;stroke-linejoin:miter;stroke-width:0.8;"/>
   </g>
   <g id="patch_16">
    <path d="M 161.904375 161.1 
L 197.904375 161.1 
" style="fill:none;stroke:#000000;stroke-linecap:square;stroke-linejoin:miter;stroke-width:0.8;"/>
   </g>
   <g id="patch_17">
    <path d="M 161.904375 44.1 
L 197.904375 44.1 
" style="fill:none;stroke:#000000;stroke-linecap:square;stroke-linejoin:miter;stroke-width:0.8;"/>
   </g>
  </g>
 </g>
 <defs>
  <clipPath id="pe1284bce39">
   <rect height="117" width="117" x="44.004375" y="44.1"/>
  </clipPath>
  <clipPath id="pb0fd3ea28b">
   <rect height="36" width="117" x="44.004375" y="7.2"/>
  </clipPath>
  <clipPath id="pdb24e10bb1">
   <rect height="117" width="36" x="161.904375" y="44.1"/>
  </clipPath>
 </defs>
</svg>
