<?xml version="1.0" encoding="utf-8" standalone="no"?>
<!DOCTYPE svg PUBLIC "-//W3C//DTD SVG 1.1//EN"
  "http://www.w3.org/Graphics/SVG/1.1/DTD/svg11.dtd">
<!-- Created with matplotlib (https://matplotlib.org/) -->
<svg height="201.950199pt" version="1.1" viewBox="0 0 207.285511 201.950199" width="207.285511pt" xmlns="http://www.w3.org/2000/svg" xmlns:xlink="http://www.w3.org/1999/xlink">
 <defs>
  <style type="text/css">
*{stroke-linecap:butt;stroke-linejoin:round;white-space:pre;}
  </style>
 </defs>
 <g id="figure_1">
  <g id="patch_1">
   <path d="M 0 201.950199 
L 207.285511 201.950199 
L 207.285511 0 
L 0 0 
z
" style="fill:none;"/>
  </g>
  <g id="axes_1">
   <g id="patch_2">
    <path d="M 44.004375 164.022699 
L 161.004375 164.022699 
L 161.004375 47.022699 
L 44.004375 47.022699 
z
" style="fill:none;"/>
   </g>
   <g id="patch_3">
    <path clip-path="url(#p18207c7842)" d="M 99.579375 105.522699 
L 105.429375 105.522699 
L 105.429375 89.922699 
L 99.579375 89.922699 
z
" style="fill:none;stroke:#ff0000;stroke-dasharray:3.7,1.6;stroke-dashoffset:0;stroke-linejoin:miter;"/>
   </g>
   <g id="matplotlib.axis_1">
    <g id="xtick_1">
     <g id="line2d_1">
      <defs>
       <path d="M 0 0 
L 0 -3.5 
" id="m6e07035ab1" style="stroke:#000000;stroke-width:0.8;"/>
      </defs>
      <g>
       <use style="stroke:#000000;stroke-width:0.8;" x="63.504375" xlink:href="#m6e07035ab1" y="164.022699"/>
      </g>
     </g>
     <g id="line2d_2">
      <defs>
       <path d="M 0 0 
L 0 3.5 
" id="mcafab4bb12" style="stroke:#000000;stroke-width:0.8;"/>
      </defs>
      <g>
       <use style="stroke:#000000;stroke-width:0.8;" x="63.504375" xlink:href="#mcafab4bb12" y="47.022699"/>
      </g>
     </g>
     <g id="text_1">
      <!-- −2 -->
      <defs>
       <path d="M 10.59375 35.5 
L 73.1875 35.5 
L 73.1875 27.203125 
L 10.59375 27.203125 
z
" id="DejaVuSans-8722"/>
       <path d="M 19.1875 8.296875 
L 53.609375 8.296875 
L 53.609375 0 
L 7.328125 0 
L 7.328125 8.296875 
Q 12.9375 14.109375 22.625 23.890625 
Q 32.328125 33.6875 34.8125 36.53125 
Q 39.546875 41.84375 41.421875 45.53125 
Q 43.3125 49.21875 43.3125 52.78125 
Q 43.3125 58.59375 39.234375 62.25 
Q 35.15625 65.921875 28.609375 65.921875 
Q 23.96875 65.921875 18.8125 64.3125 
Q 13.671875 62.703125 7.8125 59.421875 
L 7.8125 69.390625 
Q 13.765625 71.78125 18.9375 73 
Q 24.125 74.21875 28.421875 74.21875 
Q 39.75 74.21875 46.484375 68.546875 
Q 53.21875 62.890625 53.21875 53.421875 
Q 53.21875 48.921875 51.53125 44.890625 
Q 49.859375 40.875 45.40625 35.40625 
Q 44.1875 33.984375 37.640625 27.21875 
Q 31.109375 20.453125 19.1875 8.296875 
z
" id="DejaVuSans-50"/>
      </defs>
      <g transform="translate(54.659063 176.640824)scale(0.12 -0.12)">
       <use xlink:href="#DejaVuSans-8722"/>
       <use x="83.789062" xlink:href="#DejaVuSans-50"/>
      </g>
     </g>
    </g>
    <g id="xtick_2">
     <g id="line2d_3">
      <g>
       <use style="stroke:#000000;stroke-width:0.8;" x="102.504375" xlink:href="#m6e07035ab1" y="164.022699"/>
      </g>
     </g>
     <g id="line2d_4">
      <g>
       <use style="stroke:#000000;stroke-width:0.8;" x="102.504375" xlink:href="#mcafab4bb12" y="47.022699"/>
      </g>
     </g>
     <g id="text_2">
      <!-- 0 -->
      <defs>
       <path d="M 31.78125 66.40625 
Q 24.171875 66.40625 20.328125 58.90625 
Q 16.5 51.421875 16.5 36.375 
Q 16.5 21.390625 20.328125 13.890625 
Q 24.171875 6.390625 31.78125 6.390625 
Q 39.453125 6.390625 43.28125 13.890625 
Q 47.125 21.390625 47.125 36.375 
Q 47.125 51.421875 43.28125 58.90625 
Q 39.453125 66.40625 31.78125 66.40625 
z
M 31.78125 74.21875 
Q 44.046875 74.21875 50.515625 64.515625 
Q 56.984375 54.828125 56.984375 36.375 
Q 56.984375 17.96875 50.515625 8.265625 
Q 44.046875 -1.421875 31.78125 -1.421875 
Q 19.53125 -1.421875 13.0625 8.265625 
Q 6.59375 17.96875 6.59375 36.375 
Q 6.59375 54.828125 13.0625 64.515625 
Q 19.53125 74.21875 31.78125 74.21875 
z
" id="DejaVuSans-48"/>
      </defs>
      <g transform="translate(98.686875 176.640824)scale(0.12 -0.12)">
       <use xlink:href="#DejaVuSans-48"/>
      </g>
     </g>
    </g>
    <g id="xtick_3">
     <g id="line2d_5">
      <g>
       <use style="stroke:#000000;stroke-width:0.8;" x="141.504375" xlink:href="#m6e07035ab1" y="164.022699"/>
      </g>
     </g>
     <g id="line2d_6">
      <g>
       <use style="stroke:#000000;stroke-width:0.8;" x="141.504375" xlink:href="#mcafab4bb12" y="47.022699"/>
      </g>
     </g>
     <g id="text_3">
      <!-- 2 -->
      <g transform="translate(137.686875 176.640824)scale(0.12 -0.12)">
       <use xlink:href="#DejaVuSans-50"/>
      </g>
     </g>
    </g>
    <g id="text_4">
     <!-- Y axis (um) -->
     <defs>
      <path d="M -0.203125 72.90625 
L 10.40625 72.90625 
L 30.609375 42.921875 
L 50.6875 72.90625 
L 61.28125 72.90625 
L 35.5 34.71875 
L 35.5 0 
L 25.59375 0 
L 25.59375 34.71875 
z
" id="DejaVuSans-89"/>
      <path id="DejaVuSans-32"/>
      <path d="M 34.28125 27.484375 
Q 23.390625 27.484375 19.1875 25 
Q 14.984375 22.515625 14.984375 16.5 
Q 14.984375 11.71875 18.140625 8.90625 
Q 21.296875 6.109375 26.703125 6.109375 
Q 34.1875 6.109375 38.703125 11.40625 
Q 43.21875 16.703125 43.21875 25.484375 
L 43.21875 27.484375 
z
M 52.203125 31.203125 
L 52.203125 0 
L 43.21875 0 
L 43.21875 8.296875 
Q 40.140625 3.328125 35.546875 0.953125 
Q 30.953125 -1.421875 24.3125 -1.421875 
Q 15.921875 -1.421875 10.953125 3.296875 
Q 6 8.015625 6 15.921875 
Q 6 25.140625 12.171875 29.828125 
Q 18.359375 34.515625 30.609375 34.515625 
L 43.21875 34.515625 
L 43.21875 35.40625 
Q 43.21875 41.609375 39.140625 45 
Q 35.0625 48.390625 27.6875 48.390625 
Q 23 48.390625 18.546875 47.265625 
Q 14.109375 46.140625 10.015625 43.890625 
L 10.015625 52.203125 
Q 14.9375 54.109375 19.578125 55.046875 
Q 24.21875 56 28.609375 56 
Q 40.484375 56 46.34375 49.84375 
Q 52.203125 43.703125 52.203125 31.203125 
z
" id="DejaVuSans-97"/>
      <path d="M 54.890625 54.6875 
L 35.109375 28.078125 
L 55.90625 0 
L 45.3125 0 
L 29.390625 21.484375 
L 13.484375 0 
L 2.875 0 
L 24.125 28.609375 
L 4.6875 54.6875 
L 15.28125 54.6875 
L 29.78125 35.203125 
L 44.28125 54.6875 
z
" id="DejaVuSans-120"/>
      <path d="M 9.421875 54.6875 
L 18.40625 54.6875 
L 18.40625 0 
L 9.421875 0 
z
M 9.421875 75.984375 
L 18.40625 75.984375 
L 18.40625 64.59375 
L 9.421875 64.59375 
z
" id="DejaVuSans-105"/>
      <path d="M 44.28125 53.078125 
L 44.28125 44.578125 
Q 40.484375 46.53125 36.375 47.5 
Q 32.28125 48.484375 27.875 48.484375 
Q 21.1875 48.484375 17.84375 46.4375 
Q 14.5 44.390625 14.5 40.28125 
Q 14.5 37.15625 16.890625 35.375 
Q 19.28125 33.59375 26.515625 31.984375 
L 29.59375 31.296875 
Q 39.15625 29.25 43.1875 25.515625 
Q 47.21875 21.78125 47.21875 15.09375 
Q 47.21875 7.46875 41.1875 3.015625 
Q 35.15625 -1.421875 24.609375 -1.421875 
Q 20.21875 -1.421875 15.453125 -0.5625 
Q 10.6875 0.296875 5.421875 2 
L 5.421875 11.28125 
Q 10.40625 8.6875 15.234375 7.390625 
Q 20.0625 6.109375 24.8125 6.109375 
Q 31.15625 6.109375 34.5625 8.28125 
Q 37.984375 10.453125 37.984375 14.40625 
Q 37.984375 18.0625 35.515625 20.015625 
Q 33.0625 21.96875 24.703125 23.78125 
L 21.578125 24.515625 
Q 13.234375 26.265625 9.515625 29.90625 
Q 5.8125 33.546875 5.8125 39.890625 
Q 5.8125 47.609375 11.28125 51.796875 
Q 16.75 56 26.8125 56 
Q 31.78125 56 36.171875 55.265625 
Q 40.578125 54.546875 44.28125 53.078125 
z
" id="DejaVuSans-115"/>
      <path d="M 31 75.875 
Q 24.46875 64.65625 21.28125 53.65625 
Q 18.109375 42.671875 18.109375 31.390625 
Q 18.109375 20.125 21.3125 9.0625 
Q 24.515625 -2 31 -13.1875 
L 23.1875 -13.1875 
Q 15.875 -1.703125 12.234375 9.375 
Q 8.59375 20.453125 8.59375 31.390625 
Q 8.59375 42.28125 12.203125 53.3125 
Q 15.828125 64.359375 23.1875 75.875 
z
" id="DejaVuSans-40"/>
      <path d="M 8.5 21.578125 
L 8.5 54.6875 
L 17.484375 54.6875 
L 17.484375 21.921875 
Q 17.484375 14.15625 20.5 10.265625 
Q 23.53125 6.390625 29.59375 6.390625 
Q 36.859375 6.390625 41.078125 11.03125 
Q 45.3125 15.671875 45.3125 23.6875 
L 45.3125 54.6875 
L 54.296875 54.6875 
L 54.296875 0 
L 45.3125 0 
L 45.3125 8.40625 
Q 42.046875 3.421875 37.71875 1 
Q 33.40625 -1.421875 27.6875 -1.421875 
Q 18.265625 -1.421875 13.375 4.4375 
Q 8.5 10.296875 8.5 21.578125 
z
M 31.109375 56 
z
" id="DejaVuSans-117"/>
      <path d="M 52 44.1875 
Q 55.375 50.25 60.0625 53.125 
Q 64.75 56 71.09375 56 
Q 79.640625 56 84.28125 50.015625 
Q 88.921875 44.046875 88.921875 33.015625 
L 88.921875 0 
L 79.890625 0 
L 79.890625 32.71875 
Q 79.890625 40.578125 77.09375 44.375 
Q 74.3125 48.1875 68.609375 48.1875 
Q 61.625 48.1875 57.5625 43.546875 
Q 53.515625 38.921875 53.515625 30.90625 
L 53.515625 0 
L 44.484375 0 
L 44.484375 32.71875 
Q 44.484375 40.625 41.703125 44.40625 
Q 38.921875 48.1875 33.109375 48.1875 
Q 26.21875 48.1875 22.15625 43.53125 
Q 18.109375 38.875 18.109375 30.90625 
L 18.109375 0 
L 9.078125 0 
L 9.078125 54.6875 
L 18.109375 54.6875 
L 18.109375 46.1875 
Q 21.1875 51.21875 25.484375 53.609375 
Q 29.78125 56 35.6875 56 
Q 41.65625 56 45.828125 52.96875 
Q 50 49.953125 52 44.1875 
z
" id="DejaVuSans-109"/>
      <path d="M 8.015625 75.875 
L 15.828125 75.875 
Q 23.140625 64.359375 26.78125 53.3125 
Q 30.421875 42.28125 30.421875 31.390625 
Q 30.421875 20.453125 26.78125 9.375 
Q 23.140625 -1.703125 15.828125 -13.1875 
L 8.015625 -13.1875 
Q 14.5 -2 17.703125 9.0625 
Q 20.90625 20.125 20.90625 31.390625 
Q 20.90625 42.671875 17.703125 53.65625 
Q 14.5 64.65625 8.015625 75.875 
z
" id="DejaVuSans-41"/>
     </defs>
     <g transform="translate(68.676563 192.254574)scale(0.12 -0.12)">
      <use xlink:href="#DejaVuSans-89"/>
      <use x="61.083984" xlink:href="#DejaVuSans-32"/>
      <use x="92.871094" xlink:href="#DejaVuSans-97"/>
      <use x="154.150391" xlink:href="#DejaVuSans-120"/>
      <use x="213.330078" xlink:href="#DejaVuSans-105"/>
      <use x="241.113281" xlink:href="#DejaVuSans-115"/>
      <use x="293.212891" xlink:href="#DejaVuSans-32"/>
      <use x="325" xlink:href="#DejaVuSans-40"/>
      <use x="364.013672" xlink:href="#DejaVuSans-117"/>
      <use x="427.392578" xlink:href="#DejaVuSans-109"/>
      <use x="524.804688" xlink:href="#DejaVuSans-41"/>
     </g>
    </g>
   </g>
   <g id="matplotlib.axis_2">
    <g id="ytick_1">
     <g id="line2d_7">
      <defs>
       <path d="M 0 0 
L 3.5 0 
" id="m3dc4ab0d60" style="stroke:#000000;stroke-width:0.8;"/>
      </defs>
      <g>
       <use style="stroke:#000000;stroke-width:0.8;" x="44.004375" xlink:href="#m3dc4ab0d60" y="144.522699"/>
      </g>
     </g>
     <g id="line2d_8">
      <defs>
       <path d="M 0 0 
L -3.5 0 
" id="m57415f1240" style="stroke:#000000;stroke-width:0.8;"/>
      </defs>
      <g>
       <use style="stroke:#000000;stroke-width:0.8;" x="161.004375" xlink:href="#m57415f1240" y="144.522699"/>
      </g>
     </g>
     <g id="text_5">
      <!-- −2 -->
      <g transform="translate(22.81375 149.081761)scale(0.12 -0.12)">
       <use xlink:href="#DejaVuSans-8722"/>
       <use x="83.789062" xlink:href="#DejaVuSans-50"/>
      </g>
     </g>
    </g>
    <g id="ytick_2">
     <g id="line2d_9">
      <g>
       <use style="stroke:#000000;stroke-width:0.8;" x="44.004375" xlink:href="#m3dc4ab0d60" y="105.522699"/>
      </g>
     </g>
     <g id="line2d_10">
      <g>
       <use style="stroke:#000000;stroke-width:0.8;" x="161.004375" xlink:href="#m57415f1240" y="105.522699"/>
      </g>
     </g>
     <g id="text_6">
      <!-- 0 -->
      <g transform="translate(32.869375 110.081761)scale(0.12 -0.12)">
       <use xlink:href="#DejaVuSans-48"/>
      </g>
     </g>
    </g>
    <g id="ytick_3">
     <g id="line2d_11">
      <g>
       <use style="stroke:#000000;stroke-width:0.8;" x="44.004375" xlink:href="#m3dc4ab0d60" y="66.522699"/>
      </g>
     </g>
     <g id="line2d_12">
      <g>
       <use style="stroke:#000000;stroke-width:0.8;" x="161.004375" xlink:href="#m57415f1240" y="66.522699"/>
      </g>
     </g>
     <g id="text_7">
      <!-- 2 -->
      <g transform="translate(32.869375 71.081761)scale(0.12 -0.12)">
       <use xlink:href="#DejaVuSans-50"/>
      </g>
     </g>
    </g>
    <g id="text_8">
     <!-- Z axis (um) -->
     <defs>
      <path d="M 5.609375 72.90625 
L 62.890625 72.90625 
L 62.890625 65.375 
L 16.796875 8.296875 
L 64.015625 8.296875 
L 64.015625 0 
L 4.5 0 
L 4.5 7.515625 
L 50.59375 64.59375 
L 5.609375 64.59375 
z
" id="DejaVuSans-90"/>
     </defs>
     <g transform="translate(16.318125 139.795824)rotate(-90)scale(0.12 -0.12)">
      <use xlink:href="#DejaVuSans-90"/>
      <use x="68.505859" xlink:href="#DejaVuSans-32"/>
      <use x="100.292969" xlink:href="#DejaVuSans-97"/>
      <use x="161.572266" xlink:href="#DejaVuSans-120"/>
      <use x="220.751953" xlink:href="#DejaVuSans-105"/>
      <use x="248.535156" xlink:href="#DejaVuSans-115"/>
      <use x="300.634766" xlink:href="#DejaVuSans-32"/>
      <use x="332.421875" xlink:href="#DejaVuSans-40"/>
      <use x="371.435547" xlink:href="#DejaVuSans-117"/>
      <use x="434.814453" xlink:href="#DejaVuSans-109"/>
      <use x="532.226562" xlink:href="#DejaVuSans-41"/>
     </g>
    </g>
   </g>
   <g id="LineCollection_1">
    <path clip-path="url(#p18207c7842)" d="M 44.004375 164.022699 
" style="fill:none;stroke:#440154;stroke-width:0.8;"/>
    <path clip-path="url(#p18207c7842)" d="M 44.004375 47.022699 
" style="fill:none;stroke:#440154;stroke-width:0.8;"/>
    <path clip-path="url(#p18207c7842)" d="M 161.004375 164.022699 
" style="fill:none;stroke:#440154;stroke-width:0.8;"/>
    <path clip-path="url(#p18207c7842)" d="M 161.004375 47.022699 
" style="fill:none;stroke:#440154;stroke-width:0.8;"/>
   </g>
   <g id="LineCollection_2">
    <path clip-path="url(#p18207c7842)" d="M 91.081924 126.186936 
L 88.236082 125.653961 
L 85.382424 124.889584 
L 83.922096 124.378071 
L 82.144426 123.411129 
L 81.093523 122.444186 
L 80.388521 121.398536 
L 79.509014 119.54336 
L 77.534863 114.269043 
L 76.082352 109.873939 
L 74.934529 106.00617 
L 73.507763 100.204517 
L 72.81934 96.336748 
L 72.49987 93.435922 
L 72.359237 90.535096 
L 72.436721 87.634269 
L 72.72222 84.733443 
L 73.254375 81.689479 
L 73.96779 78.706263 
L 74.753725 76.030963 
L 76.108034 72.197459 
L 77.301343 69.262368 
L 79.116932 65.3946 
L 79.675107 64.331003 
L 80.388521 63.316908 
L 81.139981 62.493773 
L 82.577103 61.526831 
L 85.051702 60.559889 
L 87.522668 59.942769 
L 91.803155 59.167299 
L 95.370229 58.757799 
L 99.650716 58.497313 
L 103.931204 58.45962 
L 108.211692 58.650792 
L 111.778765 58.977847 
L 115.345838 59.534518 
L 119.946476 60.559889 
L 121.76657 61.240085 
L 122.479985 61.557533 
L 123.906814 62.535012 
L 124.740629 63.460715 
L 125.387383 64.427658 
L 127.28073 68.295426 
L 128.900716 72.190886 
L 129.945377 75.064021 
L 131.106938 78.93179 
L 131.786543 81.832616 
L 132.284979 84.733443 
L 132.568876 87.634269 
L 132.645384 90.535096 
L 132.46779 93.811591 
L 132.185795 96.336748 
L 131.499621 100.204517 
L 130.595028 104.072286 
L 128.900716 109.985884 
L 127.338309 114.708649 
L 125.554149 119.462625 
L 125.554149 119.462625 
" style="fill:none;stroke:#46327e;stroke-width:0.8;"/>
   </g>
   <g id="LineCollection_3">
    <path clip-path="url(#p18207c7842)" d="M 79.032398 78.883288 
L 79.675107 76.871637 
L 80.922179 74.097079 
L 81.815351 72.525118 
L 82.755511 71.196253 
L 84.669009 68.991592 
L 86.809253 66.969476 
L 88.949497 65.321666 
L 90.376326 64.398321 
L 92.51657 63.350859 
L 94.656814 62.678154 
L 96.083643 62.36915 
L 98.937302 62.004071 
L 101.79096 61.853693 
L 104.644619 61.903644 
L 107.498277 62.158744 
L 109.638521 62.49965 
L 111.778765 63.104757 
L 113.205595 63.65594 
L 115.345838 64.841348 
L 117.486082 66.387669 
L 119.646515 68.295426 
L 121.457928 70.22931 
L 122.479985 71.485684 
L 123.557376 73.130137 
L 124.620229 75.204845 
L 125.380232 76.997905 
L 126.262336 79.898732 
L 126.918071 82.799558 
L 127.362409 85.700385 
L 127.605414 88.601211 
L 127.653748 91.502038 
L 127.473887 94.83102 
L 127.202968 97.303691 
L 126.529197 101.171459 
L 125.576899 105.039228 
L 124.945069 106.973112 
L 123.774216 109.873939 
L 122.479985 112.363739 
L 120.933339 114.708649 
L 118.912912 117.356879 
L 116.772668 119.7186 
L 114.813876 121.477244 
L 113.105836 122.444186 
L 111.065351 123.139672 
L 109.638521 123.49052 
L 106.784863 123.893321 
L 103.931204 124.082575 
L 101.077546 124.081844 
L 98.223887 123.890805 
L 95.370229 123.485092 
L 93.943399 123.130305 
L 91.803155 122.376224 
L 90.232984 121.477244 
L 88.949497 120.375406 
L 86.809253 118.147192 
L 84.669009 115.481727 
L 84.052504 114.623989 
L 84.052504 114.623989 
" style="fill:none;stroke:#365c8d;stroke-width:0.8;"/>
   </g>
   <g id="LineCollection_4">
    <path clip-path="url(#p18207c7842)" d="M 119.887547 76.866484 
L 120.599666 77.964848 
L 121.76657 80.125232 
L 122.505883 81.832616 
L 123.193399 84.036632 
L 123.720484 86.667327 
L 124.008412 89.568153 
L 124.027783 92.46898 
L 123.796224 95.369806 
L 123.303063 98.270633 
L 122.808037 100.204517 
L 122.159601 102.138401 
L 120.890671 105.039228 
L 119.276108 107.940054 
L 117.974801 109.873939 
L 116.451381 111.807823 
L 114.632424 113.748738 
L 112.49218 115.599337 
L 110.999331 116.642534 
L 108.925107 117.790003 
L 106.784863 118.617028 
L 104.644619 119.108362 
L 102.504375 119.267625 
L 100.364131 119.103048 
L 98.937302 118.809691 
L 96.797058 118.090545 
L 94.656814 117.018018 
L 92.51657 115.568221 
L 90.41056 113.741707 
L 88.949497 112.215015 
L 87.522668 110.480774 
L 85.766019 107.940054 
L 84.644981 106.00617 
L 83.24218 103.060098 
L 82.517849 101.171459 
L 81.71902 98.270633 
L 81.222398 95.369806 
L 80.987933 92.46898 
L 81.005691 89.568153 
L 81.292819 86.667327 
L 81.889531 83.766501 
L 82.528765 81.773793 
L 83.352881 79.898732 
L 84.669009 77.555157 
L 86.095838 75.546017 
L 87.763642 73.663379 
L 87.763642 73.663379 
" style="fill:none;stroke:#277f8e;stroke-width:0.8;"/>
   </g>
   <g id="LineCollection_5">
    <path clip-path="url(#p18207c7842)" d="M 105.637214 113.023461 
L 104.644619 113.249169 
L 103.21779 113.418307 
L 101.79096 113.415976 
L 100.364131 113.242072 
L 98.585567 112.774765 
L 97.510473 112.366392 
L 96.083643 111.651596 
L 94.656814 110.737712 
L 93.229985 109.605317 
L 91.540764 107.940054 
L 89.97012 106.00617 
L 88.699331 104.072286 
L 87.522668 101.831798 
L 86.809253 100.144112 
L 86.095838 97.964686 
L 85.696897 96.336748 
L 85.377603 94.402864 
L 85.220656 92.46898 
L 85.228112 90.535096 
L 85.406043 88.601211 
L 85.765051 86.667327 
L 86.320234 84.733443 
L 87.095555 82.799558 
L 88.236082 80.691195 
L 89.662912 78.699646 
L 91.244249 76.997905 
L 92.51657 75.898074 
L 93.943399 74.886864 
L 95.370229 74.071095 
L 97.510473 73.164312 
L 99.650716 72.595236 
L 101.79096 72.341029 
L 103.931204 72.391275 
L 106.071448 72.748029 
L 108.211692 73.425625 
L 109.691972 74.097079 
L 111.339309 75.064021 
L 112.662858 76.030963 
L 113.919009 77.140698 
L 115.540247 78.93179 
L 116.888618 80.865674 
L 117.599081 82.150538 
L 117.599081 82.150538 
" style="fill:none;stroke:#1fa187;stroke-width:0.8;"/>
   </g>
   <g id="LineCollection_6">
    <path clip-path="url(#p18207c7842)" d="M 90.237812 96.336748 
L 89.853537 94.402864 
L 89.682081 92.46898 
L 89.72684 90.535096 
L 89.996827 88.601211 
L 90.510097 86.667327 
L 91.307482 84.733443 
L 92.51657 82.711473 
L 93.943399 81.013053 
L 95.186619 79.898732 
L 96.594517 78.93179 
L 97.510473 78.439874 
L 98.937302 77.856288 
L 100.364131 77.482746 
L 101.79096 77.297256 
L 103.21779 77.296711 
L 104.644619 77.481094 
L 106.380517 77.964848 
L 107.498277 78.435625 
L 108.925107 79.245699 
L 110.351936 80.333966 
L 111.82364 81.832616 
L 113.205595 83.791462 
L 114.151042 85.700385 
L 114.802274 87.634269 
L 115.191988 89.568153 
L 115.349999 91.502038 
L 115.288283 93.435922 
L 115.01279 95.369806 
L 114.521775 97.303691 
L 113.795683 99.237575 
L 112.799372 101.171459 
L 111.778765 102.696907 
L 110.624516 104.072286 
L 109.628731 105.039228 
L 108.211692 106.123285 
L 106.695261 106.973112 
L 105.358034 107.489648 
L 103.931204 107.818412 
L 102.504375 107.92546 
L 101.077546 107.812493 
L 99.650716 107.477758 
L 98.223887 106.914867 
L 96.663906 106.00617 
L 95.370229 104.997747 
L 93.943399 103.542881 
L 92.861076 102.138401 
L 91.703755 100.204517 
L 90.847376 98.270633 
L 90.237812 96.336748 
L 90.237812 96.336748 
" style="fill:none;stroke:#4ac16d;stroke-width:0.8;"/>
   </g>
   <g id="LineCollection_7">
    <path clip-path="url(#p18207c7842)" d="M 95.351453 95.369806 
L 95.107739 94.402864 
L 94.949065 93.435922 
L 94.87579 92.46898 
L 94.888697 91.502038 
L 94.989464 90.535096 
L 95.180214 89.568153 
L 95.370229 88.918222 
L 95.471138 88.601211 
L 95.880777 87.634269 
L 96.083643 87.252353 
L 96.428262 86.667327 
L 96.797058 86.147159 
L 97.154966 85.700385 
L 97.510473 85.319768 
L 98.143309 84.733443 
L 98.223887 84.667809 
L 98.937302 84.174697 
L 99.650716 83.774282 
L 99.668513 83.766501 
L 100.364131 83.492469 
L 101.077546 83.292359 
L 101.79096 83.17235 
L 102.504375 83.131942 
L 103.21779 83.170812 
L 103.931204 83.289275 
L 104.644619 83.487749 
L 105.356576 83.766501 
L 105.358034 83.767134 
L 106.071448 84.165565 
L 106.784863 84.656459 
L 106.87973 84.733443 
L 107.498277 85.304294 
L 107.869555 85.700385 
L 108.211692 86.125785 
L 108.597066 86.667327 
L 108.925107 87.221837 
L 109.145077 87.634269 
L 109.556501 88.601211 
L 109.638521 88.857271 
L 109.847601 89.568153 
L 110.03975 90.535096 
L 110.14185 91.502038 
L 110.155938 92.46898 
L 110.083654 93.435922 
L 109.9258 94.402864 
L 109.682728 95.369806 
L 109.638521 95.500626 
L 109.331846 96.336748 
L 108.925107 97.216331 
L 108.880579 97.303691 
L 108.287868 98.270633 
L 108.211692 98.377314 
L 107.520177 99.237575 
L 107.498277 99.261526 
L 106.784863 99.941962 
L 106.459439 100.204517 
L 106.071448 100.485727 
L 105.358034 100.908478 
L 104.785171 101.171459 
L 104.644619 101.230497 
L 103.931204 101.444395 
L 103.21779 101.571719 
L 102.504375 101.612756 
L 101.79096 101.567661 
L 101.077546 101.436327 
L 100.364131 101.218388 
L 100.25383 101.171459 
L 99.650716 100.89106 
L 98.937302 100.464131 
L 98.581678 100.204517 
L 98.223887 99.913816 
L 97.518959 99.237575 
L 97.510473 99.22833 
L 96.797058 98.337255 
L 96.749619 98.270633 
L 96.158024 97.303691 
L 96.083643 97.157519 
L 95.704476 96.336748 
L 95.370229 95.425321 
L 95.351453 95.369806 
" style="fill:none;stroke:#a0da39;stroke-width:0.8;"/>
   </g>
   <g id="LineCollection_8"/>
   <g id="patch_4">
    <path d="M 44.004375 164.022699 
L 44.004375 47.022699 
" style="fill:none;stroke:#000000;stroke-linecap:square;stroke-linejoin:miter;stroke-width:0.8;"/>
   </g>
   <g id="patch_5">
    <path d="M 161.004375 164.022699 
L 161.004375 47.022699 
" style="fill:none;stroke:#000000;stroke-linecap:square;stroke-linejoin:miter;stroke-width:0.8;"/>
   </g>
   <g id="patch_6">
    <path d="M 44.004375 164.022699 
L 161.004375 164.022699 
" style="fill:none;stroke:#000000;stroke-linecap:square;stroke-linejoin:miter;stroke-width:0.8;"/>
   </g>
   <g id="patch_7">
    <path d="M 44.004375 47.022699 
L 161.004375 47.022699 
" style="fill:none;stroke:#000000;stroke-linecap:square;stroke-linejoin:miter;stroke-width:0.8;"/>
   </g>
   <g id="text_9">
    <g clip-path="url(#p18207c7842)">
     <!-- 0.150 -->
     <defs>
      <path d="M 10.6875 12.40625 
L 21 12.40625 
L 21 0 
L 10.6875 0 
z
" id="DejaVuSans-46"/>
      <path d="M 12.40625 8.296875 
L 28.515625 8.296875 
L 28.515625 63.921875 
L 10.984375 60.40625 
L 10.984375 69.390625 
L 28.421875 72.90625 
L 38.28125 72.90625 
L 38.28125 8.296875 
L 54.390625 8.296875 
L 54.390625 0 
L 12.40625 0 
z
" id="DejaVuSans-49"/>
      <path d="M 10.796875 72.90625 
L 49.515625 72.90625 
L 49.515625 64.59375 
L 19.828125 64.59375 
L 19.828125 46.734375 
Q 21.96875 47.46875 24.109375 47.828125 
Q 26.265625 48.1875 28.421875 48.1875 
Q 40.625 48.1875 47.75 41.5 
Q 54.890625 34.8125 54.890625 23.390625 
Q 54.890625 11.625 47.5625 5.09375 
Q 40.234375 -1.421875 26.90625 -1.421875 
Q 22.3125 -1.421875 17.546875 -0.640625 
Q 12.796875 0.140625 7.71875 1.703125 
L 7.71875 11.625 
Q 12.109375 9.234375 16.796875 8.0625 
Q 21.484375 6.890625 26.703125 6.890625 
Q 35.15625 6.890625 40.078125 11.328125 
Q 45.015625 15.765625 45.015625 23.390625 
Q 45.015625 31 40.078125 35.4375 
Q 35.15625 39.890625 26.703125 39.890625 
Q 22.75 39.890625 18.8125 39.015625 
Q 14.890625 38.140625 10.796875 36.28125 
z
" id="DejaVuSans-53"/>
     </defs>
     <g style="fill:#46327e;" transform="translate(95.838829 131.385388)rotate(-7.890985)scale(0.1 -0.1)">
      <use xlink:href="#DejaVuSans-48"/>
      <use x="63.623047" xlink:href="#DejaVuSans-46"/>
      <use x="95.410156" xlink:href="#DejaVuSans-49"/>
      <use x="159.033203" xlink:href="#DejaVuSans-53"/>
      <use x="222.65625" xlink:href="#DejaVuSans-48"/>
     </g>
    </g>
   </g>
   <g id="text_10">
    <g clip-path="url(#p18207c7842)">
     <!-- 0.300 -->
     <defs>
      <path d="M 40.578125 39.3125 
Q 47.65625 37.796875 51.625 33 
Q 55.609375 28.21875 55.609375 21.1875 
Q 55.609375 10.40625 48.1875 4.484375 
Q 40.765625 -1.421875 27.09375 -1.421875 
Q 22.515625 -1.421875 17.65625 -0.515625 
Q 12.796875 0.390625 7.625 2.203125 
L 7.625 11.71875 
Q 11.71875 9.328125 16.59375 8.109375 
Q 21.484375 6.890625 26.8125 6.890625 
Q 36.078125 6.890625 40.9375 10.546875 
Q 45.796875 14.203125 45.796875 21.1875 
Q 45.796875 27.640625 41.28125 31.265625 
Q 36.765625 34.90625 28.71875 34.90625 
L 20.21875 34.90625 
L 20.21875 43.015625 
L 29.109375 43.015625 
Q 36.375 43.015625 40.234375 45.921875 
Q 44.09375 48.828125 44.09375 54.296875 
Q 44.09375 59.90625 40.109375 62.90625 
Q 36.140625 65.921875 28.71875 65.921875 
Q 24.65625 65.921875 20.015625 65.03125 
Q 15.375 64.15625 9.8125 62.3125 
L 9.8125 71.09375 
Q 15.4375 72.65625 20.34375 73.4375 
Q 25.25 74.21875 29.59375 74.21875 
Q 40.828125 74.21875 47.359375 69.109375 
Q 53.90625 64.015625 53.90625 55.328125 
Q 53.90625 49.265625 50.4375 45.09375 
Q 46.96875 40.921875 40.578125 39.3125 
z
" id="DejaVuSans-51"/>
     </defs>
     <g style="fill:#365c8d;" transform="translate(73.159971 83.487703)rotate(-277.691254)scale(0.1 -0.1)">
      <use xlink:href="#DejaVuSans-48"/>
      <use x="63.623047" xlink:href="#DejaVuSans-46"/>
      <use x="95.410156" xlink:href="#DejaVuSans-51"/>
      <use x="159.033203" xlink:href="#DejaVuSans-48"/>
      <use x="222.65625" xlink:href="#DejaVuSans-48"/>
     </g>
    </g>
   </g>
   <g id="text_11">
    <g clip-path="url(#p18207c7842)">
     <!-- 0.450 -->
     <defs>
      <path d="M 37.796875 64.3125 
L 12.890625 25.390625 
L 37.796875 25.390625 
z
M 35.203125 72.90625 
L 47.609375 72.90625 
L 47.609375 25.390625 
L 58.015625 25.390625 
L 58.015625 17.1875 
L 47.609375 17.1875 
L 47.609375 0 
L 37.796875 0 
L 37.796875 17.1875 
L 4.890625 17.1875 
L 4.890625 26.703125 
z
" id="DejaVuSans-52"/>
     </defs>
     <g style="fill:#277f8e;" transform="translate(90.059685 68.627511)rotate(-354.2012)scale(0.1 -0.1)">
      <use xlink:href="#DejaVuSans-48"/>
      <use x="63.623047" xlink:href="#DejaVuSans-46"/>
      <use x="95.410156" xlink:href="#DejaVuSans-52"/>
      <use x="159.033203" xlink:href="#DejaVuSans-53"/>
      <use x="222.65625" xlink:href="#DejaVuSans-48"/>
     </g>
    </g>
   </g>
   <g id="text_12">
    <g clip-path="url(#p18207c7842)">
     <!-- 0.600 -->
     <defs>
      <path d="M 33.015625 40.375 
Q 26.375 40.375 22.484375 35.828125 
Q 18.609375 31.296875 18.609375 23.390625 
Q 18.609375 15.53125 22.484375 10.953125 
Q 26.375 6.390625 33.015625 6.390625 
Q 39.65625 6.390625 43.53125 10.953125 
Q 47.40625 15.53125 47.40625 23.390625 
Q 47.40625 31.296875 43.53125 35.828125 
Q 39.65625 40.375 33.015625 40.375 
z
M 52.59375 71.296875 
L 52.59375 62.3125 
Q 48.875 64.0625 45.09375 64.984375 
Q 41.3125 65.921875 37.59375 65.921875 
Q 27.828125 65.921875 22.671875 59.328125 
Q 17.53125 52.734375 16.796875 39.40625 
Q 19.671875 43.65625 24.015625 45.921875 
Q 28.375 48.1875 33.59375 48.1875 
Q 44.578125 48.1875 50.953125 41.515625 
Q 57.328125 34.859375 57.328125 23.390625 
Q 57.328125 12.15625 50.6875 5.359375 
Q 44.046875 -1.421875 33.015625 -1.421875 
Q 20.359375 -1.421875 13.671875 8.265625 
Q 6.984375 17.96875 6.984375 36.375 
Q 6.984375 53.65625 15.1875 63.9375 
Q 23.390625 74.21875 37.203125 74.21875 
Q 40.921875 74.21875 44.703125 73.484375 
Q 48.484375 72.75 52.59375 71.296875 
z
" id="DejaVuSans-54"/>
     </defs>
     <g style="fill:#1fa187;" transform="translate(115.681062 114.562292)rotate(-69.125854)scale(0.1 -0.1)">
      <use xlink:href="#DejaVuSans-48"/>
      <use x="63.623047" xlink:href="#DejaVuSans-46"/>
      <use x="95.410156" xlink:href="#DejaVuSans-54"/>
      <use x="159.033203" xlink:href="#DejaVuSans-48"/>
      <use x="222.65625" xlink:href="#DejaVuSans-48"/>
     </g>
    </g>
   </g>
  </g>
  <g id="axes_2">
   <g id="patch_8">
    <path d="M 44.004375 46.122699 
L 161.004375 46.122699 
L 161.004375 10.122699 
L 44.004375 10.122699 
z
" style="fill:none;"/>
   </g>
   <g id="matplotlib.axis_3">
    <g id="xtick_4">
     <g id="line2d_13">
      <g>
       <use style="stroke:#000000;stroke-width:0.8;" x="63.504375" xlink:href="#m6e07035ab1" y="46.122699"/>
      </g>
     </g>
    </g>
    <g id="xtick_5">
     <g id="line2d_14">
      <g>
       <use style="stroke:#000000;stroke-width:0.8;" x="102.504375" xlink:href="#m6e07035ab1" y="46.122699"/>
      </g>
     </g>
    </g>
    <g id="xtick_6">
     <g id="line2d_15">
      <g>
       <use style="stroke:#000000;stroke-width:0.8;" x="141.504375" xlink:href="#m6e07035ab1" y="46.122699"/>
      </g>
     </g>
    </g>
   </g>
   <g id="matplotlib.axis_4">
    <g id="ytick_4">
     <g id="line2d_16">
      <g>
       <use style="stroke:#000000;stroke-width:0.8;" x="44.004375" xlink:href="#m3dc4ab0d60" y="44.500645"/>
      </g>
     </g>
     <g id="text_13">
      <!-- 0 -->
      <g transform="translate(32.869375 49.059708)scale(0.12 -0.12)">
       <use xlink:href="#DejaVuSans-48"/>
      </g>
     </g>
    </g>
    <g id="ytick_5">
     <g id="line2d_17">
      <g>
       <use style="stroke:#000000;stroke-width:0.8;" x="44.004375" xlink:href="#m3dc4ab0d60" y="11.759062"/>
      </g>
     </g>
     <g id="text_14">
      <!-- 1 -->
      <g transform="translate(32.869375 16.318125)scale(0.12 -0.12)">
       <use xlink:href="#DejaVuSans-49"/>
      </g>
     </g>
    </g>
   </g>
   <g id="LineCollection_9">
    <path clip-path="url(#pd778819c5b)" d="M 44.004375 40.069554 
L 161.004375 40.069554 
" style="fill:none;stroke:#000000;stroke-dasharray:0.8,1.32;stroke-dashoffset:0;stroke-width:0.8;"/>
   </g>
   <g id="line2d_18">
    <path clip-path="url(#pd778819c5b)" d="M 44.004375 44.486335 
L 46.858034 44.383489 
L 51.138521 44.202599 
L 54.705595 44.350784 
L 57.559253 44.390206 
L 59.699497 44.166338 
L 61.839741 43.697958 
L 65.406814 42.619075 
L 68.973887 41.388138 
L 71.114131 40.398844 
L 72.54096 39.515975 
L 73.96779 38.397666 
L 75.394619 37.020738 
L 76.821448 35.389483 
L 78.961692 32.532758 
L 80.388521 30.563734 
L 82.528765 27.870883 
L 91.089741 18.486897 
L 93.943399 15.801158 
L 96.083643 14.126534 
L 97.510473 13.222978 
L 98.937302 12.519504 
L 100.364131 12.037036 
L 101.79096 11.790775 
L 103.21779 11.788732 
L 104.644619 12.030987 
L 106.071448 12.509696 
L 107.498277 13.209819 
L 108.925107 14.110433 
L 111.065351 15.782114 
L 113.205595 17.756451 
L 116.059253 20.706678 
L 121.76657 27.062955 
L 123.906814 29.605907 
L 129.614131 37.020755 
L 131.04096 38.39926 
L 132.46779 39.518827 
L 133.894619 40.402588 
L 136.034863 41.392339 
L 138.888521 42.391163 
L 143.169009 43.697063 
L 145.309253 44.164582 
L 147.449497 44.389041 
L 149.589741 44.384864 
L 155.297058 44.225911 
L 161.004375 44.485832 
L 161.004375 44.485832 
" style="fill:none;stroke:#1f77b4;stroke-linecap:square;"/>
   </g>
   <g id="patch_9">
    <path d="M 44.004375 46.122699 
L 44.004375 10.122699 
" style="fill:none;stroke:#000000;stroke-linecap:square;stroke-linejoin:miter;stroke-width:0.8;"/>
   </g>
   <g id="patch_10">
    <path d="M 161.004375 46.122699 
L 161.004375 10.122699 
" style="fill:none;stroke:#000000;stroke-linecap:square;stroke-linejoin:miter;stroke-width:0.8;"/>
   </g>
   <g id="patch_11">
    <path d="M 44.004375 46.122699 
L 161.004375 46.122699 
" style="fill:none;stroke:#000000;stroke-linecap:square;stroke-linejoin:miter;stroke-width:0.8;"/>
   </g>
   <g id="patch_12">
    <path d="M 44.004375 10.122699 
L 161.004375 10.122699 
" style="fill:none;stroke:#000000;stroke-linecap:square;stroke-linejoin:miter;stroke-width:0.8;"/>
   </g>
  </g>
  <g id="axes_3">
   <g id="patch_13">
    <path d="M 161.904375 164.022699 
L 197.904375 164.022699 
L 197.904375 47.022699 
L 161.904375 47.022699 
z
" style="fill:none;"/>
   </g>
   <g id="matplotlib.axis_5">
    <g id="xtick_7">
     <g id="line2d_19">
      <g>
       <use style="stroke:#000000;stroke-width:0.8;" x="163.540738" xlink:href="#m6e07035ab1" y="164.022699"/>
      </g>
     </g>
     <g id="text_15">
      <!-- 0 -->
      <g transform="translate(159.723238 176.640824)scale(0.12 -0.12)">
       <use xlink:href="#DejaVuSans-48"/>
      </g>
     </g>
    </g>
    <g id="xtick_8">
     <g id="line2d_20">
      <g>
       <use style="stroke:#000000;stroke-width:0.8;" x="196.268011" xlink:href="#m6e07035ab1" y="164.022699"/>
      </g>
     </g>
     <g id="text_16">
      <!-- 1 -->
      <g transform="translate(192.450511 176.640824)scale(0.12 -0.12)">
       <use xlink:href="#DejaVuSans-49"/>
      </g>
     </g>
    </g>
   </g>
   <g id="matplotlib.axis_6">
    <g id="ytick_6">
     <g id="line2d_21">
      <g>
       <use style="stroke:#000000;stroke-width:0.8;" x="161.904375" xlink:href="#m3dc4ab0d60" y="144.522699"/>
      </g>
     </g>
    </g>
    <g id="ytick_7">
     <g id="line2d_22">
      <g>
       <use style="stroke:#000000;stroke-width:0.8;" x="161.904375" xlink:href="#m3dc4ab0d60" y="105.522699"/>
      </g>
     </g>
    </g>
    <g id="ytick_8">
     <g id="line2d_23">
      <g>
       <use style="stroke:#000000;stroke-width:0.8;" x="161.904375" xlink:href="#m3dc4ab0d60" y="66.522699"/>
      </g>
     </g>
    </g>
   </g>
   <g id="LineCollection_10">
    <path clip-path="url(#pb41627ac75)" d="M 167.969893 164.022699 
L 167.969893 47.022699 
" style="fill:none;stroke:#000000;stroke-dasharray:0.8,1.32;stroke-dashoffset:0;stroke-width:0.8;"/>
   </g>
   <g id="line2d_24">
    <path clip-path="url(#pb41627ac75)" d="M 163.540739 164.022699 
L 163.546548 163.055757 
L 163.563479 162.088815 
L 163.590082 161.121872 
L 163.624079 160.15493 
L 163.662562 159.187988 
L 163.70224 158.221046 
L 163.739727 157.254104 
L 163.771829 156.287162 
L 163.795822 155.32022 
L 163.809679 154.353277 
L 163.812251 153.386335 
L 163.803357 152.419393 
L 163.783797 151.452451 
L 163.75528 150.485509 
L 163.720268 149.518567 
L 163.681762 148.551624 
L 163.643029 147.584682 
L 163.607316 146.61774 
L 163.577564 145.650798 
L 163.556141 144.683856 
L 163.544639 143.716914 
L 163.543728 142.749972 
L 163.553101 141.783029 
L 163.571508 140.816087 
L 163.596874 139.849145 
L 163.626502 138.882203 
L 163.667657 137.915261 
L 163.711163 136.948319 
L 163.73685 135.981377 
L 163.730129 135.014434 
L 163.697425 134.047492 
L 163.698814 133.08055 
L 163.817597 132.113608 
L 164.135096 131.146666 
L 164.706547 130.179724 
L 165.548248 129.212782 
L 166.640946 128.245839 
L 167.947102 127.278897 
L 169.433817 126.311955 
L 171.090789 125.345013 
L 172.935411 124.378071 
L 174.43733 123.411129 
L 175.632394 122.444186 
L 176.564721 121.477244 
L 177.310616 120.510302 
L 178.050628 119.54336 
L 178.812943 118.576418 
L 179.596499 117.609476 
L 180.399827 116.642534 
L 181.221046 115.675591 
L 182.05795 114.708649 
L 182.9076 113.741707 
L 183.766971 112.774765 
L 184.63247 111.807823 
L 185.500256 110.840881 
L 186.366082 109.873939 
L 187.225453 108.906996 
L 188.073632 107.940054 
L 188.90588 106.973112 
L 189.717132 106.00617 
L 190.502323 105.039228 
L 191.25655 104.072286 
L 191.974667 103.105343 
L 192.651936 102.138401 
L 193.283536 101.171459 
L 193.864974 100.204517 
L 194.392083 99.237575 
L 194.860616 98.270633 
L 195.267222 97.303691 
L 195.608308 96.336748 
L 195.881257 95.369806 
L 196.083458 94.402864 
L 196.212866 93.435922 
L 196.268011 92.46898 
L 196.247914 91.502038 
L 196.15192 90.535096 
L 195.980111 89.568153 
L 195.732977 88.601211 
L 195.411744 87.634269 
L 195.017965 86.667327 
L 194.553925 85.700385 
L 194.022241 84.733443 
L 193.426179 83.766501 
L 192.76958 82.799558 
L 192.056691 81.832616 
L 191.29217 80.865674 
L 190.481081 79.898732 
L 189.628899 78.93179 
L 188.741342 77.964848 
L 187.824374 76.997905 
L 186.884205 76.030963 
L 185.927042 75.064021 
L 184.959095 74.097079 
L 183.986573 73.130137 
L 183.015522 72.163195 
L 182.05166 71.196253 
L 181.100461 70.22931 
L 180.167072 69.262368 
L 179.256068 68.295426 
L 178.371615 67.328484 
L 177.517227 66.361542 
L 176.695763 65.3946 
L 175.909511 64.427658 
L 175.099975 63.460715 
L 174.147795 62.493773 
L 172.967436 61.526831 
L 171.562549 60.559889 
L 169.971842 59.592947 
L 168.658896 58.626005 
L 167.528299 57.659062 
L 166.518899 56.69212 
L 165.618172 55.725178 
L 164.853896 54.758236 
L 164.268474 53.791294 
L 163.888371 52.824352 
L 163.670803 51.85741 
L 163.68088 50.890467 
L 163.72238 49.923525 
L 163.683033 48.956583 
L 163.589421 47.989641 
L 163.540739 47.022699 
" style="fill:none;stroke:#1f77b4;stroke-linecap:square;"/>
   </g>
   <g id="patch_14">
    <path d="M 161.904375 164.022699 
L 161.904375 47.022699 
" style="fill:none;stroke:#000000;stroke-linecap:square;stroke-linejoin:miter;stroke-width:0.8;"/>
   </g>
   <g id="patch_15">
    <path d="M 197.904375 164.022699 
L 197.904375 47.022699 
" style="fill:none;stroke:#000000;stroke-linecap:square;stroke-linejoin:miter;stroke-width:0.8;"/>
   </g>
   <g id="patch_16">
    <path d="M 161.904375 164.022699 
L 197.904375 164.022699 
" style="fill:none;stroke:#000000;stroke-linecap:square;stroke-linejoin:miter;stroke-width:0.8;"/>
   </g>
   <g id="patch_17">
    <path d="M 161.904375 47.022699 
L 197.904375 47.022699 
" style="fill:none;stroke:#000000;stroke-linecap:square;stroke-linejoin:miter;stroke-width:0.8;"/>
   </g>
  </g>
 </g>
 <defs>
  <clipPath id="p18207c7842">
   <rect height="117" width="117" x="44.004375" y="47.022699"/>
  </clipPath>
  <clipPath id="pd778819c5b">
   <rect height="36" width="117" x="44.004375" y="10.122699"/>
  </clipPath>
  <clipPath id="pb41627ac75">
   <rect height="117" width="36" x="161.904375" y="47.022699"/>
  </clipPath>
 </defs>
</svg>
