<?xml version="1.0" encoding="utf-8" standalone="no"?>
<!DOCTYPE svg PUBLIC "-//W3C//DTD SVG 1.1//EN"
  "http://www.w3.org/Graphics/SVG/1.1/DTD/svg11.dtd">
<!-- Created with matplotlib (https://matplotlib.org/) -->
<svg height="201.950199pt" version="1.1" viewBox="0 0 207.285511 201.950199" width="207.285511pt" xmlns="http://www.w3.org/2000/svg" xmlns:xlink="http://www.w3.org/1999/xlink">
 <defs>
  <style type="text/css">
*{stroke-linecap:butt;stroke-linejoin:round;white-space:pre;}
  </style>
 </defs>
 <g id="figure_1">
  <g id="patch_1">
   <path d="M 0 201.950199 
L 207.285511 201.950199 
L 207.285511 0 
L 0 0 
z
" style="fill:none;"/>
  </g>
  <g id="axes_1">
   <g id="patch_2">
    <path d="M 44.004375 164.022699 
L 161.004375 164.022699 
L 161.004375 47.022699 
L 44.004375 47.022699 
z
" style="fill:none;"/>
   </g>
   <g id="patch_3">
    <path clip-path="url(#p76b77d4815)" d="M 96.654375 105.522699 
L 108.354375 105.522699 
L 108.354375 89.922699 
L 96.654375 89.922699 
z
" style="fill:none;stroke:#ff0000;stroke-dasharray:3.7,1.6;stroke-dashoffset:0;stroke-linejoin:miter;"/>
   </g>
   <g id="matplotlib.axis_1">
    <g id="xtick_1">
     <g id="line2d_1">
      <defs>
       <path d="M 0 0 
L 0 -3.5 
" id="m76b811f984" style="stroke:#000000;stroke-width:0.8;"/>
      </defs>
      <g>
       <use style="stroke:#000000;stroke-width:0.8;" x="63.504375" xlink:href="#m76b811f984" y="164.022699"/>
      </g>
     </g>
     <g id="line2d_2">
      <defs>
       <path d="M 0 0 
L 0 3.5 
" id="mab7319c83b" style="stroke:#000000;stroke-width:0.8;"/>
      </defs>
      <g>
       <use style="stroke:#000000;stroke-width:0.8;" x="63.504375" xlink:href="#mab7319c83b" y="47.022699"/>
      </g>
     </g>
     <g id="text_1">
      <!-- −2 -->
      <defs>
       <path d="M 10.59375 35.5 
L 73.1875 35.5 
L 73.1875 27.203125 
L 10.59375 27.203125 
z
" id="DejaVuSans-8722"/>
       <path d="M 19.1875 8.296875 
L 53.609375 8.296875 
L 53.609375 0 
L 7.328125 0 
L 7.328125 8.296875 
Q 12.9375 14.109375 22.625 23.890625 
Q 32.328125 33.6875 34.8125 36.53125 
Q 39.546875 41.84375 41.421875 45.53125 
Q 43.3125 49.21875 43.3125 52.78125 
Q 43.3125 58.59375 39.234375 62.25 
Q 35.15625 65.921875 28.609375 65.921875 
Q 23.96875 65.921875 18.8125 64.3125 
Q 13.671875 62.703125 7.8125 59.421875 
L 7.8125 69.390625 
Q 13.765625 71.78125 18.9375 73 
Q 24.125 74.21875 28.421875 74.21875 
Q 39.75 74.21875 46.484375 68.546875 
Q 53.21875 62.890625 53.21875 53.421875 
Q 53.21875 48.921875 51.53125 44.890625 
Q 49.859375 40.875 45.40625 35.40625 
Q 44.1875 33.984375 37.640625 27.21875 
Q 31.109375 20.453125 19.1875 8.296875 
z
" id="DejaVuSans-50"/>
      </defs>
      <g transform="translate(54.659063 176.640824)scale(0.12 -0.12)">
       <use xlink:href="#DejaVuSans-8722"/>
       <use x="83.789062" xlink:href="#DejaVuSans-50"/>
      </g>
     </g>
    </g>
    <g id="xtick_2">
     <g id="line2d_3">
      <g>
       <use style="stroke:#000000;stroke-width:0.8;" x="102.504375" xlink:href="#m76b811f984" y="164.022699"/>
      </g>
     </g>
     <g id="line2d_4">
      <g>
       <use style="stroke:#000000;stroke-width:0.8;" x="102.504375" xlink:href="#mab7319c83b" y="47.022699"/>
      </g>
     </g>
     <g id="text_2">
      <!-- 0 -->
      <defs>
       <path d="M 31.78125 66.40625 
Q 24.171875 66.40625 20.328125 58.90625 
Q 16.5 51.421875 16.5 36.375 
Q 16.5 21.390625 20.328125 13.890625 
Q 24.171875 6.390625 31.78125 6.390625 
Q 39.453125 6.390625 43.28125 13.890625 
Q 47.125 21.390625 47.125 36.375 
Q 47.125 51.421875 43.28125 58.90625 
Q 39.453125 66.40625 31.78125 66.40625 
z
M 31.78125 74.21875 
Q 44.046875 74.21875 50.515625 64.515625 
Q 56.984375 54.828125 56.984375 36.375 
Q 56.984375 17.96875 50.515625 8.265625 
Q 44.046875 -1.421875 31.78125 -1.421875 
Q 19.53125 -1.421875 13.0625 8.265625 
Q 6.59375 17.96875 6.59375 36.375 
Q 6.59375 54.828125 13.0625 64.515625 
Q 19.53125 74.21875 31.78125 74.21875 
z
" id="DejaVuSans-48"/>
      </defs>
      <g transform="translate(98.686875 176.640824)scale(0.12 -0.12)">
       <use xlink:href="#DejaVuSans-48"/>
      </g>
     </g>
    </g>
    <g id="xtick_3">
     <g id="line2d_5">
      <g>
       <use style="stroke:#000000;stroke-width:0.8;" x="141.504375" xlink:href="#m76b811f984" y="164.022699"/>
      </g>
     </g>
     <g id="line2d_6">
      <g>
       <use style="stroke:#000000;stroke-width:0.8;" x="141.504375" xlink:href="#mab7319c83b" y="47.022699"/>
      </g>
     </g>
     <g id="text_3">
      <!-- 2 -->
      <g transform="translate(137.686875 176.640824)scale(0.12 -0.12)">
       <use xlink:href="#DejaVuSans-50"/>
      </g>
     </g>
    </g>
    <g id="text_4">
     <!-- Y axis (um) -->
     <defs>
      <path d="M -0.203125 72.90625 
L 10.40625 72.90625 
L 30.609375 42.921875 
L 50.6875 72.90625 
L 61.28125 72.90625 
L 35.5 34.71875 
L 35.5 0 
L 25.59375 0 
L 25.59375 34.71875 
z
" id="DejaVuSans-89"/>
      <path id="DejaVuSans-32"/>
      <path d="M 34.28125 27.484375 
Q 23.390625 27.484375 19.1875 25 
Q 14.984375 22.515625 14.984375 16.5 
Q 14.984375 11.71875 18.140625 8.90625 
Q 21.296875 6.109375 26.703125 6.109375 
Q 34.1875 6.109375 38.703125 11.40625 
Q 43.21875 16.703125 43.21875 25.484375 
L 43.21875 27.484375 
z
M 52.203125 31.203125 
L 52.203125 0 
L 43.21875 0 
L 43.21875 8.296875 
Q 40.140625 3.328125 35.546875 0.953125 
Q 30.953125 -1.421875 24.3125 -1.421875 
Q 15.921875 -1.421875 10.953125 3.296875 
Q 6 8.015625 6 15.921875 
Q 6 25.140625 12.171875 29.828125 
Q 18.359375 34.515625 30.609375 34.515625 
L 43.21875 34.515625 
L 43.21875 35.40625 
Q 43.21875 41.609375 39.140625 45 
Q 35.0625 48.390625 27.6875 48.390625 
Q 23 48.390625 18.546875 47.265625 
Q 14.109375 46.140625 10.015625 43.890625 
L 10.015625 52.203125 
Q 14.9375 54.109375 19.578125 55.046875 
Q 24.21875 56 28.609375 56 
Q 40.484375 56 46.34375 49.84375 
Q 52.203125 43.703125 52.203125 31.203125 
z
" id="DejaVuSans-97"/>
      <path d="M 54.890625 54.6875 
L 35.109375 28.078125 
L 55.90625 0 
L 45.3125 0 
L 29.390625 21.484375 
L 13.484375 0 
L 2.875 0 
L 24.125 28.609375 
L 4.6875 54.6875 
L 15.28125 54.6875 
L 29.78125 35.203125 
L 44.28125 54.6875 
z
" id="DejaVuSans-120"/>
      <path d="M 9.421875 54.6875 
L 18.40625 54.6875 
L 18.40625 0 
L 9.421875 0 
z
M 9.421875 75.984375 
L 18.40625 75.984375 
L 18.40625 64.59375 
L 9.421875 64.59375 
z
" id="DejaVuSans-105"/>
      <path d="M 44.28125 53.078125 
L 44.28125 44.578125 
Q 40.484375 46.53125 36.375 47.5 
Q 32.28125 48.484375 27.875 48.484375 
Q 21.1875 48.484375 17.84375 46.4375 
Q 14.5 44.390625 14.5 40.28125 
Q 14.5 37.15625 16.890625 35.375 
Q 19.28125 33.59375 26.515625 31.984375 
L 29.59375 31.296875 
Q 39.15625 29.25 43.1875 25.515625 
Q 47.21875 21.78125 47.21875 15.09375 
Q 47.21875 7.46875 41.1875 3.015625 
Q 35.15625 -1.421875 24.609375 -1.421875 
Q 20.21875 -1.421875 15.453125 -0.5625 
Q 10.6875 0.296875 5.421875 2 
L 5.421875 11.28125 
Q 10.40625 8.6875 15.234375 7.390625 
Q 20.0625 6.109375 24.8125 6.109375 
Q 31.15625 6.109375 34.5625 8.28125 
Q 37.984375 10.453125 37.984375 14.40625 
Q 37.984375 18.0625 35.515625 20.015625 
Q 33.0625 21.96875 24.703125 23.78125 
L 21.578125 24.515625 
Q 13.234375 26.265625 9.515625 29.90625 
Q 5.8125 33.546875 5.8125 39.890625 
Q 5.8125 47.609375 11.28125 51.796875 
Q 16.75 56 26.8125 56 
Q 31.78125 56 36.171875 55.265625 
Q 40.578125 54.546875 44.28125 53.078125 
z
" id="DejaVuSans-115"/>
      <path d="M 31 75.875 
Q 24.46875 64.65625 21.28125 53.65625 
Q 18.109375 42.671875 18.109375 31.390625 
Q 18.109375 20.125 21.3125 9.0625 
Q 24.515625 -2 31 -13.1875 
L 23.1875 -13.1875 
Q 15.875 -1.703125 12.234375 9.375 
Q 8.59375 20.453125 8.59375 31.390625 
Q 8.59375 42.28125 12.203125 53.3125 
Q 15.828125 64.359375 23.1875 75.875 
z
" id="DejaVuSans-40"/>
      <path d="M 8.5 21.578125 
L 8.5 54.6875 
L 17.484375 54.6875 
L 17.484375 21.921875 
Q 17.484375 14.15625 20.5 10.265625 
Q 23.53125 6.390625 29.59375 6.390625 
Q 36.859375 6.390625 41.078125 11.03125 
Q 45.3125 15.671875 45.3125 23.6875 
L 45.3125 54.6875 
L 54.296875 54.6875 
L 54.296875 0 
L 45.3125 0 
L 45.3125 8.40625 
Q 42.046875 3.421875 37.71875 1 
Q 33.40625 -1.421875 27.6875 -1.421875 
Q 18.265625 -1.421875 13.375 4.4375 
Q 8.5 10.296875 8.5 21.578125 
z
M 31.109375 56 
z
" id="DejaVuSans-117"/>
      <path d="M 52 44.1875 
Q 55.375 50.25 60.0625 53.125 
Q 64.75 56 71.09375 56 
Q 79.640625 56 84.28125 50.015625 
Q 88.921875 44.046875 88.921875 33.015625 
L 88.921875 0 
L 79.890625 0 
L 79.890625 32.71875 
Q 79.890625 40.578125 77.09375 44.375 
Q 74.3125 48.1875 68.609375 48.1875 
Q 61.625 48.1875 57.5625 43.546875 
Q 53.515625 38.921875 53.515625 30.90625 
L 53.515625 0 
L 44.484375 0 
L 44.484375 32.71875 
Q 44.484375 40.625 41.703125 44.40625 
Q 38.921875 48.1875 33.109375 48.1875 
Q 26.21875 48.1875 22.15625 43.53125 
Q 18.109375 38.875 18.109375 30.90625 
L 18.109375 0 
L 9.078125 0 
L 9.078125 54.6875 
L 18.109375 54.6875 
L 18.109375 46.1875 
Q 21.1875 51.21875 25.484375 53.609375 
Q 29.78125 56 35.6875 56 
Q 41.65625 56 45.828125 52.96875 
Q 50 49.953125 52 44.1875 
z
" id="DejaVuSans-109"/>
      <path d="M 8.015625 75.875 
L 15.828125 75.875 
Q 23.140625 64.359375 26.78125 53.3125 
Q 30.421875 42.28125 30.421875 31.390625 
Q 30.421875 20.453125 26.78125 9.375 
Q 23.140625 -1.703125 15.828125 -13.1875 
L 8.015625 -13.1875 
Q 14.5 -2 17.703125 9.0625 
Q 20.90625 20.125 20.90625 31.390625 
Q 20.90625 42.671875 17.703125 53.65625 
Q 14.5 64.65625 8.015625 75.875 
z
" id="DejaVuSans-41"/>
     </defs>
     <g transform="translate(68.676563 192.254574)scale(0.12 -0.12)">
      <use xlink:href="#DejaVuSans-89"/>
      <use x="61.083984" xlink:href="#DejaVuSans-32"/>
      <use x="92.871094" xlink:href="#DejaVuSans-97"/>
      <use x="154.150391" xlink:href="#DejaVuSans-120"/>
      <use x="213.330078" xlink:href="#DejaVuSans-105"/>
      <use x="241.113281" xlink:href="#DejaVuSans-115"/>
      <use x="293.212891" xlink:href="#DejaVuSans-32"/>
      <use x="325" xlink:href="#DejaVuSans-40"/>
      <use x="364.013672" xlink:href="#DejaVuSans-117"/>
      <use x="427.392578" xlink:href="#DejaVuSans-109"/>
      <use x="524.804688" xlink:href="#DejaVuSans-41"/>
     </g>
    </g>
   </g>
   <g id="matplotlib.axis_2">
    <g id="ytick_1">
     <g id="line2d_7">
      <defs>
       <path d="M 0 0 
L 3.5 0 
" id="m798c84e644" style="stroke:#000000;stroke-width:0.8;"/>
      </defs>
      <g>
       <use style="stroke:#000000;stroke-width:0.8;" x="44.004375" xlink:href="#m798c84e644" y="144.522699"/>
      </g>
     </g>
     <g id="line2d_8">
      <defs>
       <path d="M 0 0 
L -3.5 0 
" id="md09a5149ac" style="stroke:#000000;stroke-width:0.8;"/>
      </defs>
      <g>
       <use style="stroke:#000000;stroke-width:0.8;" x="161.004375" xlink:href="#md09a5149ac" y="144.522699"/>
      </g>
     </g>
     <g id="text_5">
      <!-- −2 -->
      <g transform="translate(22.81375 149.081761)scale(0.12 -0.12)">
       <use xlink:href="#DejaVuSans-8722"/>
       <use x="83.789062" xlink:href="#DejaVuSans-50"/>
      </g>
     </g>
    </g>
    <g id="ytick_2">
     <g id="line2d_9">
      <g>
       <use style="stroke:#000000;stroke-width:0.8;" x="44.004375" xlink:href="#m798c84e644" y="105.522699"/>
      </g>
     </g>
     <g id="line2d_10">
      <g>
       <use style="stroke:#000000;stroke-width:0.8;" x="161.004375" xlink:href="#md09a5149ac" y="105.522699"/>
      </g>
     </g>
     <g id="text_6">
      <!-- 0 -->
      <g transform="translate(32.869375 110.081761)scale(0.12 -0.12)">
       <use xlink:href="#DejaVuSans-48"/>
      </g>
     </g>
    </g>
    <g id="ytick_3">
     <g id="line2d_11">
      <g>
       <use style="stroke:#000000;stroke-width:0.8;" x="44.004375" xlink:href="#m798c84e644" y="66.522699"/>
      </g>
     </g>
     <g id="line2d_12">
      <g>
       <use style="stroke:#000000;stroke-width:0.8;" x="161.004375" xlink:href="#md09a5149ac" y="66.522699"/>
      </g>
     </g>
     <g id="text_7">
      <!-- 2 -->
      <g transform="translate(32.869375 71.081761)scale(0.12 -0.12)">
       <use xlink:href="#DejaVuSans-50"/>
      </g>
     </g>
    </g>
    <g id="text_8">
     <!-- Z axis (um) -->
     <defs>
      <path d="M 5.609375 72.90625 
L 62.890625 72.90625 
L 62.890625 65.375 
L 16.796875 8.296875 
L 64.015625 8.296875 
L 64.015625 0 
L 4.5 0 
L 4.5 7.515625 
L 50.59375 64.59375 
L 5.609375 64.59375 
z
" id="DejaVuSans-90"/>
     </defs>
     <g transform="translate(16.318125 139.795824)rotate(-90)scale(0.12 -0.12)">
      <use xlink:href="#DejaVuSans-90"/>
      <use x="68.505859" xlink:href="#DejaVuSans-32"/>
      <use x="100.292969" xlink:href="#DejaVuSans-97"/>
      <use x="161.572266" xlink:href="#DejaVuSans-120"/>
      <use x="220.751953" xlink:href="#DejaVuSans-105"/>
      <use x="248.535156" xlink:href="#DejaVuSans-115"/>
      <use x="300.634766" xlink:href="#DejaVuSans-32"/>
      <use x="332.421875" xlink:href="#DejaVuSans-40"/>
      <use x="371.435547" xlink:href="#DejaVuSans-117"/>
      <use x="434.814453" xlink:href="#DejaVuSans-109"/>
      <use x="532.226562" xlink:href="#DejaVuSans-41"/>
     </g>
    </g>
   </g>
   <g id="LineCollection_1">
    <path clip-path="url(#p76b77d4815)" d="M 44.004375 164.022699 
" style="fill:none;stroke:#440154;stroke-width:0.8;"/>
    <path clip-path="url(#p76b77d4815)" d="M 44.004375 47.022699 
" style="fill:none;stroke:#440154;stroke-width:0.8;"/>
    <path clip-path="url(#p76b77d4815)" d="M 161.004375 164.022699 
" style="fill:none;stroke:#440154;stroke-width:0.8;"/>
    <path clip-path="url(#p76b77d4815)" d="M 161.004375 47.022699 
" style="fill:none;stroke:#440154;stroke-width:0.8;"/>
   </g>
   <g id="LineCollection_2">
    <path clip-path="url(#p76b77d4815)" d="M 113.024388 125.355671 
L 111.065351 125.723054 
L 108.211692 126.035984 
L 104.644619 126.201724 
L 100.364131 126.199698 
L 96.797058 126.030901 
L 93.943399 125.716155 
L 91.803155 125.309351 
L 89.662912 124.701893 
L 88.236082 124.080183 
L 86.809253 123.166991 
L 85.96547 122.444186 
L 85.118331 121.477244 
L 82.528765 117.572381 
L 80.848891 114.708649 
L 79.391061 111.807823 
L 77.456192 106.973112 
L 76.170471 103.105343 
L 75.128231 99.237575 
L 74.541406 96.336748 
L 74.143184 93.435922 
L 73.987639 90.535096 
L 74.075409 87.634269 
L 74.424841 84.733443 
L 75.017859 81.832616 
L 76.130827 77.964848 
L 77.148301 75.064021 
L 78.961692 70.790744 
L 79.709169 69.262368 
L 81.538677 66.361542 
L 82.528765 65.070206 
L 84.066948 63.460715 
L 85.382424 62.453687 
L 87.082815 61.526831 
L 88.949497 60.738749 
L 93.229985 59.361234 
L 95.370229 58.82107 
L 97.510473 58.509236 
L 100.364131 58.326122 
L 103.931204 58.305781 
L 107.498277 58.509142 
L 109.638521 58.819591 
L 111.778765 59.357391 
L 117.486082 61.308988 
L 119.626326 62.44098 
L 120.339741 62.953498 
L 121.053155 63.545204 
L 122.750017 65.3946 
L 123.906814 66.949579 
L 125.333643 69.29629 
L 126.760473 72.351172 
L 127.872834 75.064021 
L 129.207075 78.93179 
L 130.222763 82.799558 
L 130.866362 86.667327 
L 131.039125 89.568153 
L 130.964946 92.46898 
L 130.735922 94.739357 
L 130.735922 94.739357 
" style="fill:none;stroke:#46327e;stroke-width:0.8;"/>
   </g>
   <g id="LineCollection_3">
    <path clip-path="url(#p76b77d4815)" d="M 78.596635 92.923257 
L 78.489954 90.535096 
L 78.585938 87.634269 
L 78.961692 84.582716 
L 79.537932 81.832616 
L 80.158476 79.898732 
L 81.101936 77.662506 
L 82.018302 76.030963 
L 83.24218 74.370014 
L 84.669009 72.793896 
L 86.809253 70.872341 
L 89.081071 69.262368 
L 91.089741 68.100938 
L 93.229985 67.096759 
L 95.370229 66.309785 
L 97.510473 65.713603 
L 99.650716 65.336932 
L 101.79096 65.154987 
L 103.931204 65.191106 
L 106.071448 65.442057 
L 108.211692 65.885242 
L 110.351936 66.545091 
L 112.49218 67.407484 
L 114.632424 68.480623 
L 116.772668 69.804916 
L 118.912912 71.450579 
L 120.680534 73.130137 
L 121.76657 74.348427 
L 123.007958 76.030963 
L 123.906814 77.629402 
L 124.866764 79.898732 
L 125.485767 81.832616 
L 126.090075 84.733443 
L 126.43908 87.634269 
L 126.535445 90.535096 
L 126.38871 93.435922 
L 125.997977 96.336748 
L 125.333643 99.369497 
L 124.372823 102.138401 
L 123.193399 104.704586 
L 122.432138 106.00617 
L 120.339741 108.940166 
L 117.964414 111.807823 
L 116.059253 113.851451 
L 113.919009 115.887796 
L 111.778765 117.610486 
L 109.638521 119.001964 
L 107.498277 120.018416 
L 105.957643 120.510302 
L 104.644619 120.790646 
L 103.21779 120.941043 
L 101.79096 120.940853 
L 100.051406 120.731451 
L 100.051406 120.731451 
" style="fill:none;stroke:#365c8d;stroke-width:0.8;"/>
   </g>
   <g id="LineCollection_4">
    <path clip-path="url(#p76b77d4815)" d="M 121.218817 82.532073 
L 121.76657 83.954012 
L 122.270842 85.700385 
L 122.613367 87.634269 
L 122.756247 89.568153 
L 122.720853 91.502038 
L 122.479985 93.611624 
L 122.103543 95.369806 
L 121.508142 97.303691 
L 120.726685 99.237575 
L 119.626326 101.40261 
L 118.199497 103.704504 
L 116.772668 105.655292 
L 115.345838 107.357596 
L 113.205595 109.534641 
L 111.065351 111.303133 
L 108.925107 112.670171 
L 107.498277 113.365106 
L 106.071448 113.880298 
L 104.644619 114.226502 
L 103.21779 114.397413 
L 101.79096 114.397889 
L 100.364131 114.227993 
L 98.516236 113.741707 
L 97.510473 113.369047 
L 96.083643 112.675415 
L 94.656814 111.806942 
L 93.229985 110.763892 
L 91.089741 108.862642 
L 88.949497 106.539491 
L 87.060631 104.072286 
L 85.811181 102.138401 
L 84.669009 100.029176 
L 83.881785 98.270633 
L 83.196521 96.336748 
L 82.69558 94.402864 
L 82.389656 92.46898 
L 82.267395 90.535096 
L 82.320775 88.601211 
L 82.557222 86.667327 
L 83.012921 84.733443 
L 83.691053 82.799558 
L 84.669009 80.777918 
L 85.83966 78.93179 
L 86.809253 77.69214 
L 88.384104 76.030963 
L 89.97667 74.678865 
L 89.97667 74.678865 
" style="fill:none;stroke:#277f8e;stroke-width:0.8;"/>
   </g>
   <g id="LineCollection_5">
    <path clip-path="url(#p76b77d4815)" d="M 86.748541 91.502038 
L 86.721833 89.568153 
L 86.927897 87.634269 
L 87.384115 85.700385 
L 88.118002 83.766501 
L 89.17399 81.832616 
L 90.627185 79.898732 
L 91.803155 78.685602 
L 93.229985 77.490359 
L 94.656814 76.529144 
L 96.083643 75.761427 
L 98.223887 74.926087 
L 100.364131 74.436533 
L 102.504375 74.27495 
L 104.644619 74.436687 
L 106.784863 74.926203 
L 108.211692 75.443074 
L 109.638521 76.121177 
L 111.09336 76.997905 
L 112.49218 78.049036 
L 113.919009 79.389601 
L 115.172526 80.865674 
L 116.059253 82.188546 
L 116.901415 83.766501 
L 117.636214 85.700385 
L 118.092595 87.634269 
L 118.298281 89.568153 
L 118.270384 91.502038 
L 118.019988 93.435922 
L 117.486082 95.574393 
L 116.772668 97.528436 
L 115.969634 99.237575 
L 114.632424 101.48039 
L 113.205595 103.401101 
L 111.71766 105.039228 
L 110.351936 106.276248 
L 108.925107 107.329716 
L 107.498277 108.156646 
L 105.6358 108.906996 
L 104.644619 109.172387 
L 103.21779 109.37386 
L 101.79096 109.374603 
L 100.364131 109.174845 
L 98.937302 108.772001 
L 97.095905 107.940054 
L 96.083643 107.337308 
L 94.327897 106.00617 
L 93.229985 104.98861 
L 91.554584 103.105343 
L 90.165258 101.171459 
L 88.949497 99.059649 
L 88.141301 97.303691 
L 87.462109 95.369806 
L 86.996979 93.435922 
L 86.748541 91.502038 
L 86.748541 91.502038 
" style="fill:none;stroke:#1fa187;stroke-width:0.8;"/>
   </g>
   <g id="LineCollection_6">
    <path clip-path="url(#p76b77d4815)" d="M 91.073203 91.502038 
L 91.043778 90.535096 
L 91.083054 89.568153 
L 91.089741 89.508995 
L 91.19445 88.601211 
L 91.381042 87.634269 
L 91.64664 86.667327 
L 91.803155 86.229823 
L 91.999519 85.700385 
L 92.446597 84.733443 
L 92.51657 84.606667 
L 93.003927 83.766501 
L 93.229985 83.433446 
L 93.687324 82.799558 
L 93.943399 82.488876 
L 94.525819 81.832616 
L 94.656814 81.700833 
L 95.370229 81.038924 
L 95.575596 80.865674 
L 96.083643 80.475472 
L 96.797058 79.986734 
L 96.941745 79.898732 
L 97.510473 79.578131 
L 98.223887 79.230874 
L 98.937302 78.939011 
L 98.958752 78.93179 
L 99.650716 78.711687 
L 100.364131 78.535889 
L 101.077546 78.41075 
L 101.79096 78.33588 
L 102.504375 78.311053 
L 103.21779 78.336118 
L 103.931204 78.411206 
L 104.644619 78.53654 
L 105.358034 78.712514 
L 106.046861 78.93179 
L 106.071448 78.940074 
L 106.784863 79.232022 
L 107.498277 79.579331 
L 108.064978 79.898732 
L 108.211692 79.987961 
L 108.925107 80.476591 
L 109.431869 80.865674 
L 109.638521 81.039956 
L 110.351936 81.701447 
L 110.482414 81.832616 
L 111.065351 82.489102 
L 111.321486 82.799558 
L 111.778765 83.432897 
L 112.005394 83.766501 
L 112.49218 84.605078 
L 112.563083 84.733443 
L 113.010435 85.700385 
L 113.205595 86.226397 
L 113.363413 86.667327 
L 113.629026 87.634269 
L 113.81541 88.601211 
L 113.919009 89.502269 
L 113.926432 89.568153 
L 113.965212 90.535096 
L 113.935153 91.502038 
L 113.919009 91.662898 
L 113.837365 92.46898 
L 113.672969 93.435922 
L 113.44297 94.402864 
L 113.205595 95.180594 
L 113.146527 95.369806 
L 112.779522 96.336748 
L 112.49218 96.978376 
L 112.341371 97.303691 
L 111.825891 98.270633 
L 111.778765 98.349346 
L 111.220769 99.237575 
L 111.065351 99.460531 
L 110.514609 100.204517 
L 110.351936 100.405407 
L 109.684262 101.171459 
L 109.638521 101.220042 
L 108.925107 101.917457 
L 108.67473 102.138401 
L 108.211692 102.521515 
L 107.498277 103.043864 
L 107.40223 103.105343 
L 106.784863 103.480549 
L 106.071448 103.846789 
L 105.534255 104.072286 
L 105.358034 104.143399 
L 104.644619 104.368379 
L 103.931204 104.52887 
L 103.21779 104.625172 
L 102.504375 104.657658 
L 101.79096 104.626299 
L 101.077546 104.531094 
L 100.364131 104.371743 
L 99.650716 104.147818 
L 99.462834 104.072286 
L 98.937302 103.85252 
L 98.223887 103.4873 
L 97.594046 103.105343 
L 97.510473 103.051965 
L 96.797058 102.530532 
L 96.322631 102.138401 
L 96.083643 101.927726 
L 95.370229 101.230895 
L 95.314261 101.171459 
L 94.656814 100.417256 
L 94.484629 100.204517 
L 93.943399 99.47302 
L 93.779428 99.237575 
L 93.229985 98.362012 
L 93.175351 98.270633 
L 92.660932 97.303691 
L 92.51657 96.991672 
L 92.223958 96.336748 
L 91.857984 95.369806 
L 91.803155 95.193571 
L 91.562711 94.402864 
L 91.333674 93.435922 
L 91.17022 92.46898 
L 91.089741 91.668152 
L 91.073203 91.502038 
" style="fill:none;stroke:#4ac16d;stroke-width:0.8;"/>
   </g>
   <g id="LineCollection_7">
    <path clip-path="url(#p76b77d4815)" d="M 95.91992 92.46898 
L 95.805215 91.502038 
L 95.790212 90.535096 
L 95.877877 89.568153 
L 96.072247 88.601211 
L 96.083643 88.564735 
L 96.401522 87.634269 
L 96.797058 86.796755 
L 96.865288 86.667327 
L 97.510473 85.710131 
L 97.517991 85.700385 
L 98.223887 84.947686 
L 98.461092 84.733443 
L 98.937302 84.366773 
L 99.650716 83.918366 
L 99.961471 83.766501 
L 100.364131 83.593502 
L 101.077546 83.374573 
L 101.79096 83.243802 
L 102.504375 83.200465 
L 103.21779 83.244448 
L 103.931204 83.376038 
L 104.644619 83.595589 
L 105.041553 83.766501 
L 105.358034 83.921526 
L 106.071448 84.370746 
L 106.541915 84.733443 
L 106.784863 84.953136 
L 107.484875 85.700385 
L 107.498277 85.717783 
L 108.137654 86.667327 
L 108.211692 86.807948 
L 108.601568 87.634269 
L 108.925107 88.582896 
L 108.930821 88.601211 
L 109.124687 89.568153 
L 109.211942 90.535096 
L 109.196479 91.502038 
L 109.081229 92.46898 
L 108.925107 93.177921 
L 108.863706 93.435922 
L 108.529151 94.402864 
L 108.211692 95.103328 
L 108.078107 95.369806 
L 107.498277 96.307547 
L 107.477802 96.336748 
L 106.784863 97.171759 
L 106.656893 97.303691 
L 106.071448 97.829358 
L 105.473253 98.270633 
L 105.358034 98.346472 
L 104.644619 98.714468 
L 103.931204 98.977469 
L 103.21779 99.135523 
L 102.504375 99.188812 
L 101.79096 99.137324 
L 101.077546 98.980969 
L 100.364131 98.719689 
L 99.650716 98.353218 
L 99.524819 98.270633 
L 98.937302 97.838598 
L 98.340291 97.303691 
L 98.223887 97.183952 
L 97.520093 96.336748 
L 97.510473 96.32304 
L 96.920653 95.369806 
L 96.797058 95.123298 
L 96.470704 94.402864 
L 96.136435 93.435922 
L 96.083643 93.213782 
L 95.91992 92.46898 
" style="fill:none;stroke:#a0da39;stroke-width:0.8;"/>
   </g>
   <g id="LineCollection_8"/>
   <g id="patch_4">
    <path d="M 44.004375 164.022699 
L 44.004375 47.022699 
" style="fill:none;stroke:#000000;stroke-linecap:square;stroke-linejoin:miter;stroke-width:0.8;"/>
   </g>
   <g id="patch_5">
    <path d="M 161.004375 164.022699 
L 161.004375 47.022699 
" style="fill:none;stroke:#000000;stroke-linecap:square;stroke-linejoin:miter;stroke-width:0.8;"/>
   </g>
   <g id="patch_6">
    <path d="M 44.004375 164.022699 
L 161.004375 164.022699 
" style="fill:none;stroke:#000000;stroke-linecap:square;stroke-linejoin:miter;stroke-width:0.8;"/>
   </g>
   <g id="patch_7">
    <path d="M 44.004375 47.022699 
L 161.004375 47.022699 
" style="fill:none;stroke:#000000;stroke-linecap:square;stroke-linejoin:miter;stroke-width:0.8;"/>
   </g>
   <g id="text_9">
    <g clip-path="url(#p76b77d4815)">
     <!-- 0.150 -->
     <defs>
      <path d="M 10.6875 12.40625 
L 21 12.40625 
L 21 0 
L 10.6875 0 
z
" id="DejaVuSans-46"/>
      <path d="M 12.40625 8.296875 
L 28.515625 8.296875 
L 28.515625 63.921875 
L 10.984375 60.40625 
L 10.984375 69.390625 
L 28.421875 72.90625 
L 38.28125 72.90625 
L 38.28125 8.296875 
L 54.390625 8.296875 
L 54.390625 0 
L 12.40625 0 
z
" id="DejaVuSans-49"/>
      <path d="M 10.796875 72.90625 
L 49.515625 72.90625 
L 49.515625 64.59375 
L 19.828125 64.59375 
L 19.828125 46.734375 
Q 21.96875 47.46875 24.109375 47.828125 
Q 26.265625 48.1875 28.421875 48.1875 
Q 40.625 48.1875 47.75 41.5 
Q 54.890625 34.8125 54.890625 23.390625 
Q 54.890625 11.625 47.5625 5.09375 
Q 40.234375 -1.421875 26.90625 -1.421875 
Q 22.3125 -1.421875 17.546875 -0.640625 
Q 12.796875 0.140625 7.71875 1.703125 
L 7.71875 11.625 
Q 12.109375 9.234375 16.796875 8.0625 
Q 21.484375 6.890625 26.703125 6.890625 
Q 35.15625 6.890625 40.078125 11.328125 
Q 45.015625 15.765625 45.015625 23.390625 
Q 45.015625 31 40.078125 35.4375 
Q 35.15625 39.890625 26.703125 39.890625 
Q 22.75 39.890625 18.8125 39.015625 
Q 14.890625 38.140625 10.796875 36.28125 
z
" id="DejaVuSans-53"/>
     </defs>
     <g style="fill:#46327e;" transform="translate(121.108399 126.426238)rotate(-62.240057)scale(0.1 -0.1)">
      <use xlink:href="#DejaVuSans-48"/>
      <use x="63.623047" xlink:href="#DejaVuSans-46"/>
      <use x="95.410156" xlink:href="#DejaVuSans-49"/>
      <use x="159.033203" xlink:href="#DejaVuSans-53"/>
      <use x="222.65625" xlink:href="#DejaVuSans-48"/>
     </g>
    </g>
   </g>
   <g id="text_10">
    <g clip-path="url(#p76b77d4815)">
     <!-- 0.300 -->
     <defs>
      <path d="M 40.578125 39.3125 
Q 47.65625 37.796875 51.625 33 
Q 55.609375 28.21875 55.609375 21.1875 
Q 55.609375 10.40625 48.1875 4.484375 
Q 40.765625 -1.421875 27.09375 -1.421875 
Q 22.515625 -1.421875 17.65625 -0.515625 
Q 12.796875 0.390625 7.625 2.203125 
L 7.625 11.71875 
Q 11.71875 9.328125 16.59375 8.109375 
Q 21.484375 6.890625 26.8125 6.890625 
Q 36.078125 6.890625 40.9375 10.546875 
Q 45.796875 14.203125 45.796875 21.1875 
Q 45.796875 27.640625 41.28125 31.265625 
Q 36.765625 34.90625 28.71875 34.90625 
L 20.21875 34.90625 
L 20.21875 43.015625 
L 29.109375 43.015625 
Q 36.375 43.015625 40.234375 45.921875 
Q 44.09375 48.828125 44.09375 54.296875 
Q 44.09375 59.90625 40.109375 62.90625 
Q 36.140625 65.921875 28.71875 65.921875 
Q 24.65625 65.921875 20.015625 65.03125 
Q 15.375 64.15625 9.8125 62.3125 
L 9.8125 71.09375 
Q 15.4375 72.65625 20.34375 73.4375 
Q 25.25 74.21875 29.59375 74.21875 
Q 40.828125 74.21875 47.359375 69.109375 
Q 53.90625 64.015625 53.90625 55.328125 
Q 53.90625 49.265625 50.4375 45.09375 
Q 46.96875 40.921875 40.578125 39.3125 
z
" id="DejaVuSans-51"/>
     </defs>
     <g style="fill:#365c8d;" transform="translate(74.553837 100.143193)rotate(-307.213289)scale(0.1 -0.1)">
      <use xlink:href="#DejaVuSans-48"/>
      <use x="63.623047" xlink:href="#DejaVuSans-46"/>
      <use x="95.410156" xlink:href="#DejaVuSans-51"/>
      <use x="159.033203" xlink:href="#DejaVuSans-48"/>
      <use x="222.65625" xlink:href="#DejaVuSans-48"/>
     </g>
    </g>
   </g>
   <g id="text_11">
    <g clip-path="url(#p76b77d4815)">
     <!-- 0.450 -->
     <defs>
      <path d="M 37.796875 64.3125 
L 12.890625 25.390625 
L 37.796875 25.390625 
z
M 35.203125 72.90625 
L 47.609375 72.90625 
L 47.609375 25.390625 
L 58.015625 25.390625 
L 58.015625 17.1875 
L 47.609375 17.1875 
L 47.609375 0 
L 37.796875 0 
L 37.796875 17.1875 
L 4.890625 17.1875 
L 4.890625 26.703125 
z
" id="DejaVuSans-52"/>
     </defs>
     <g style="fill:#277f8e;" transform="translate(92.943432 70.066678)rotate(-345.886721)scale(0.1 -0.1)">
      <use xlink:href="#DejaVuSans-48"/>
      <use x="63.623047" xlink:href="#DejaVuSans-46"/>
      <use x="95.410156" xlink:href="#DejaVuSans-52"/>
      <use x="159.033203" xlink:href="#DejaVuSans-53"/>
      <use x="222.65625" xlink:href="#DejaVuSans-48"/>
     </g>
    </g>
   </g>
  </g>
  <g id="axes_2">
   <g id="patch_8">
    <path d="M 44.004375 46.122699 
L 161.004375 46.122699 
L 161.004375 10.122699 
L 44.004375 10.122699 
z
" style="fill:none;"/>
   </g>
   <g id="matplotlib.axis_3">
    <g id="xtick_4">
     <g id="line2d_13">
      <g>
       <use style="stroke:#000000;stroke-width:0.8;" x="63.504375" xlink:href="#m76b811f984" y="46.122699"/>
      </g>
     </g>
    </g>
    <g id="xtick_5">
     <g id="line2d_14">
      <g>
       <use style="stroke:#000000;stroke-width:0.8;" x="102.504375" xlink:href="#m76b811f984" y="46.122699"/>
      </g>
     </g>
    </g>
    <g id="xtick_6">
     <g id="line2d_15">
      <g>
       <use style="stroke:#000000;stroke-width:0.8;" x="141.504375" xlink:href="#m76b811f984" y="46.122699"/>
      </g>
     </g>
    </g>
   </g>
   <g id="matplotlib.axis_4">
    <g id="ytick_4">
     <g id="line2d_16">
      <g>
       <use style="stroke:#000000;stroke-width:0.8;" x="44.004375" xlink:href="#m798c84e644" y="44.504191"/>
      </g>
     </g>
     <g id="text_12">
      <!-- 0 -->
      <g transform="translate(32.869375 49.063254)scale(0.12 -0.12)">
       <use xlink:href="#DejaVuSans-48"/>
      </g>
     </g>
    </g>
    <g id="ytick_5">
     <g id="line2d_17">
      <g>
       <use style="stroke:#000000;stroke-width:0.8;" x="44.004375" xlink:href="#m798c84e644" y="11.759063"/>
      </g>
     </g>
     <g id="text_13">
      <!-- 1 -->
      <g transform="translate(32.869375 16.318125)scale(0.12 -0.12)">
       <use xlink:href="#DejaVuSans-49"/>
      </g>
     </g>
    </g>
   </g>
   <g id="LineCollection_9">
    <path clip-path="url(#pab903ca3b6)" d="M 44.004375 40.07262 
L 161.004375 40.07262 
" style="fill:none;stroke:#000000;stroke-dasharray:0.8,1.32;stroke-dashoffset:0;stroke-width:0.8;"/>
   </g>
   <g id="line2d_18">
    <path clip-path="url(#pab903ca3b6)" d="M 44.004375 44.486335 
L 46.144619 44.323322 
L 50.425107 43.71924 
L 52.565351 43.772517 
L 57.559253 44.284436 
L 58.986082 44.135639 
L 60.412912 43.785337 
L 63.26657 42.741832 
L 65.406814 42.038422 
L 67.547058 41.610009 
L 70.400716 41.184349 
L 71.827546 40.775604 
L 73.254375 40.083018 
L 74.681204 39.043065 
L 76.108034 37.651019 
L 77.534863 35.953931 
L 82.528765 29.466987 
L 88.236082 23.129228 
L 93.943399 16.804796 
L 96.083643 14.770558 
L 97.510473 13.63838 
L 98.937302 12.740601 
L 100.364131 12.117609 
L 101.79096 11.798883 
L 103.21779 11.799933 
L 104.644619 12.120678 
L 106.071448 12.745205 
L 107.498277 13.644034 
L 108.925107 14.776535 
L 111.065351 16.809561 
L 113.919009 19.893348 
L 124.620229 32.069616 
L 126.047058 34.005231 
L 128.187302 36.815783 
L 129.614131 38.371302 
L 131.04096 39.592232 
L 132.46779 40.454899 
L 133.894619 40.993655 
L 135.321448 41.298642 
L 139.601936 42.020774 
L 141.74218 42.72852 
L 144.595838 43.779857 
L 146.022668 44.133024 
L 147.449497 44.283189 
L 148.876326 44.236242 
L 154.583643 43.713753 
L 156.723887 43.966066 
L 160.29096 44.466457 
L 161.004375 44.485961 
L 161.004375 44.485961 
" style="fill:none;stroke:#1f77b4;stroke-linecap:square;"/>
   </g>
   <g id="patch_9">
    <path d="M 44.004375 46.122699 
L 44.004375 10.122699 
" style="fill:none;stroke:#000000;stroke-linecap:square;stroke-linejoin:miter;stroke-width:0.8;"/>
   </g>
   <g id="patch_10">
    <path d="M 161.004375 46.122699 
L 161.004375 10.122699 
" style="fill:none;stroke:#000000;stroke-linecap:square;stroke-linejoin:miter;stroke-width:0.8;"/>
   </g>
   <g id="patch_11">
    <path d="M 44.004375 46.122699 
L 161.004375 46.122699 
" style="fill:none;stroke:#000000;stroke-linecap:square;stroke-linejoin:miter;stroke-width:0.8;"/>
   </g>
   <g id="patch_12">
    <path d="M 44.004375 10.122699 
L 161.004375 10.122699 
" style="fill:none;stroke:#000000;stroke-linecap:square;stroke-linejoin:miter;stroke-width:0.8;"/>
   </g>
  </g>
  <g id="axes_3">
   <g id="patch_13">
    <path d="M 161.904375 164.022699 
L 197.904375 164.022699 
L 197.904375 47.022699 
L 161.904375 47.022699 
z
" style="fill:none;"/>
   </g>
   <g id="matplotlib.axis_5">
    <g id="xtick_7">
     <g id="line2d_19">
      <g>
       <use style="stroke:#000000;stroke-width:0.8;" x="163.540739" xlink:href="#m76b811f984" y="164.022699"/>
      </g>
     </g>
     <g id="text_14">
      <!-- 0 -->
      <g transform="translate(159.723239 176.640824)scale(0.12 -0.12)">
       <use xlink:href="#DejaVuSans-48"/>
      </g>
     </g>
    </g>
    <g id="xtick_8">
     <g id="line2d_20">
      <g>
       <use style="stroke:#000000;stroke-width:0.8;" x="196.268011" xlink:href="#m76b811f984" y="164.022699"/>
      </g>
     </g>
     <g id="text_15">
      <!-- 1 -->
      <g transform="translate(192.450511 176.640824)scale(0.12 -0.12)">
       <use xlink:href="#DejaVuSans-49"/>
      </g>
     </g>
    </g>
   </g>
   <g id="matplotlib.axis_6">
    <g id="ytick_6">
     <g id="line2d_21">
      <g>
       <use style="stroke:#000000;stroke-width:0.8;" x="161.904375" xlink:href="#m798c84e644" y="144.522699"/>
      </g>
     </g>
    </g>
    <g id="ytick_7">
     <g id="line2d_22">
      <g>
       <use style="stroke:#000000;stroke-width:0.8;" x="161.904375" xlink:href="#m798c84e644" y="105.522699"/>
      </g>
     </g>
    </g>
    <g id="ytick_8">
     <g id="line2d_23">
      <g>
       <use style="stroke:#000000;stroke-width:0.8;" x="161.904375" xlink:href="#m798c84e644" y="66.522699"/>
      </g>
     </g>
    </g>
   </g>
   <g id="LineCollection_10">
    <path clip-path="url(#p79534cc916)" d="M 167.969893 164.022699 
L 167.969893 47.022699 
" style="fill:none;stroke:#000000;stroke-dasharray:0.8,1.32;stroke-dashoffset:0;stroke-width:0.8;"/>
   </g>
   <g id="line2d_24">
    <path clip-path="url(#p79534cc916)" d="M 163.540739 164.022699 
L 163.553635 163.055757 
L 163.591207 162.088815 
L 163.650192 161.121872 
L 163.725473 160.15493 
L 163.810513 159.187988 
L 163.897927 158.221046 
L 163.98012 157.254104 
L 164.049951 156.287162 
L 164.101346 155.32022 
L 164.129838 154.353277 
L 164.132956 153.386335 
L 164.110447 152.419393 
L 164.064307 151.452451 
L 163.99862 150.485509 
L 163.919212 149.518567 
L 163.833163 148.551624 
L 163.748196 147.584682 
L 163.672022 146.61774 
L 163.611677 145.650798 
L 163.572914 144.683856 
L 163.559714 143.716914 
L 163.573935 142.749972 
L 163.615154 141.783029 
L 163.680703 140.816087 
L 163.7659 139.849145 
L 163.864459 138.882203 
L 164.004871 137.915261 
L 164.167422 136.948319 
L 164.294779 135.981377 
L 164.352375 135.014434 
L 164.29097 134.047492 
L 164.192913 133.08055 
L 164.182676 132.113608 
L 164.375916 131.146666 
L 164.833166 130.179724 
L 165.539517 129.212782 
L 166.419337 128.245839 
L 167.379077 127.278897 
L 168.358555 126.311955 
L 169.367837 125.345013 
L 170.493933 124.378071 
L 171.479433 123.411129 
L 172.330134 122.444186 
L 173.039408 121.477244 
L 173.636148 120.510302 
L 174.253796 119.54336 
L 174.915925 118.576418 
L 175.622938 117.609476 
L 176.374514 116.642534 
L 177.16944 115.675591 
L 178.005779 114.708649 
L 178.880707 113.741707 
L 179.79067 112.774765 
L 180.731471 111.807823 
L 181.698267 110.840881 
L 182.685406 109.873939 
L 183.686914 108.906996 
L 184.696415 107.940054 
L 185.707045 106.973112 
L 186.711702 106.00617 
L 187.70312 105.039228 
L 188.673871 104.072286 
L 189.616529 103.105343 
L 190.523747 102.138401 
L 191.38818 101.171459 
L 192.202642 100.204517 
L 192.960272 99.237575 
L 193.654531 98.270633 
L 194.279122 97.303691 
L 194.82807 96.336748 
L 195.295969 95.369806 
L 195.677891 94.402864 
L 195.969561 93.435922 
L 196.167021 92.46898 
L 196.267366 91.502038 
L 196.268011 90.535096 
L 196.167344 89.568153 
L 195.964556 88.601211 
L 195.659728 87.634269 
L 195.253748 86.667327 
L 194.748554 85.700385 
L 194.14689 84.733443 
L 193.452873 83.766501 
L 192.671186 82.799558 
L 191.807803 81.832616 
L 190.869585 80.865674 
L 189.864282 79.898732 
L 188.800533 78.93179 
L 187.687782 77.964848 
L 186.5362 76.997905 
L 185.356283 76.030963 
L 184.15901 75.064021 
L 182.955763 74.097079 
L 181.757521 73.130137 
L 180.575586 72.163195 
L 179.420452 71.196253 
L 178.302212 70.22931 
L 177.230228 69.262368 
L 176.212735 68.295426 
L 175.256919 67.328484 
L 174.36851 66.361542 
L 173.551948 65.3946 
L 172.810141 64.427658 
L 172.092794 63.460715 
L 171.318284 62.493773 
L 170.478829 61.526831 
L 169.68069 60.559889 
L 169.044773 59.592947 
L 168.623624 58.626005 
L 168.124024 57.659063 
L 167.387166 56.69212 
L 166.430348 55.725178 
L 165.415947 54.758236 
L 164.562502 53.791294 
L 164.038277 52.824352 
L 163.907524 51.85741 
L 164.178351 50.890467 
L 164.341299 49.923525 
L 164.135743 48.956583 
L 163.73865 47.989641 
L 163.540739 47.022699 
" style="fill:none;stroke:#1f77b4;stroke-linecap:square;"/>
   </g>
   <g id="patch_14">
    <path d="M 161.904375 164.022699 
L 161.904375 47.022699 
" style="fill:none;stroke:#000000;stroke-linecap:square;stroke-linejoin:miter;stroke-width:0.8;"/>
   </g>
   <g id="patch_15">
    <path d="M 197.904375 164.022699 
L 197.904375 47.022699 
" style="fill:none;stroke:#000000;stroke-linecap:square;stroke-linejoin:miter;stroke-width:0.8;"/>
   </g>
   <g id="patch_16">
    <path d="M 161.904375 164.022699 
L 197.904375 164.022699 
" style="fill:none;stroke:#000000;stroke-linecap:square;stroke-linejoin:miter;stroke-width:0.8;"/>
   </g>
   <g id="patch_17">
    <path d="M 161.904375 47.022699 
L 197.904375 47.022699 
" style="fill:none;stroke:#000000;stroke-linecap:square;stroke-linejoin:miter;stroke-width:0.8;"/>
   </g>
  </g>
 </g>
 <defs>
  <clipPath id="p76b77d4815">
   <rect height="117" width="117" x="44.004375" y="47.022699"/>
  </clipPath>
  <clipPath id="pab903ca3b6">
   <rect height="36" width="117" x="44.004375" y="10.122699"/>
  </clipPath>
  <clipPath id="p79534cc916">
   <rect height="117" width="36" x="161.904375" y="47.022699"/>
  </clipPath>
 </defs>
</svg>
