<?xml version="1.0" encoding="utf-8" standalone="no"?>
<!DOCTYPE svg PUBLIC "-//W3C//DTD SVG 1.1//EN"
  "http://www.w3.org/Graphics/SVG/1.1/DTD/svg11.dtd">
<!-- Created with matplotlib (https://matplotlib.org/) -->
<svg height="201.950199pt" version="1.1" viewBox="0 0 207.285511 201.950199" width="207.285511pt" xmlns="http://www.w3.org/2000/svg" xmlns:xlink="http://www.w3.org/1999/xlink">
 <defs>
  <style type="text/css">
*{stroke-linecap:butt;stroke-linejoin:round;white-space:pre;}
  </style>
 </defs>
 <g id="figure_1">
  <g id="patch_1">
   <path d="M 0 201.950199 
L 207.285511 201.950199 
L 207.285511 0 
L 0 0 
z
" style="fill:none;"/>
  </g>
  <g id="axes_1">
   <g id="patch_2">
    <path d="M 44.004375 164.022699 
L 161.004375 164.022699 
L 161.004375 47.022699 
L 44.004375 47.022699 
z
" style="fill:none;"/>
   </g>
   <g id="patch_3">
    <path clip-path="url(#pdd4f263376)" d="M 93.729375 105.522699 
L 111.279375 105.522699 
L 111.279375 89.922699 
L 93.729375 89.922699 
z
" style="fill:none;stroke:#ff0000;stroke-dasharray:3.7,1.6;stroke-dashoffset:0;stroke-linejoin:miter;"/>
   </g>
   <g id="matplotlib.axis_1">
    <g id="xtick_1">
     <g id="line2d_1">
      <defs>
       <path d="M 0 0 
L 0 -3.5 
" id="md3b79fab30" style="stroke:#000000;stroke-width:0.8;"/>
      </defs>
      <g>
       <use style="stroke:#000000;stroke-width:0.8;" x="63.504375" xlink:href="#md3b79fab30" y="164.022699"/>
      </g>
     </g>
     <g id="line2d_2">
      <defs>
       <path d="M 0 0 
L 0 3.5 
" id="m9d993145be" style="stroke:#000000;stroke-width:0.8;"/>
      </defs>
      <g>
       <use style="stroke:#000000;stroke-width:0.8;" x="63.504375" xlink:href="#m9d993145be" y="47.022699"/>
      </g>
     </g>
     <g id="text_1">
      <!-- −2 -->
      <defs>
       <path d="M 10.59375 35.5 
L 73.1875 35.5 
L 73.1875 27.203125 
L 10.59375 27.203125 
z
" id="DejaVuSans-8722"/>
       <path d="M 19.1875 8.296875 
L 53.609375 8.296875 
L 53.609375 0 
L 7.328125 0 
L 7.328125 8.296875 
Q 12.9375 14.109375 22.625 23.890625 
Q 32.328125 33.6875 34.8125 36.53125 
Q 39.546875 41.84375 41.421875 45.53125 
Q 43.3125 49.21875 43.3125 52.78125 
Q 43.3125 58.59375 39.234375 62.25 
Q 35.15625 65.921875 28.609375 65.921875 
Q 23.96875 65.921875 18.8125 64.3125 
Q 13.671875 62.703125 7.8125 59.421875 
L 7.8125 69.390625 
Q 13.765625 71.78125 18.9375 73 
Q 24.125 74.21875 28.421875 74.21875 
Q 39.75 74.21875 46.484375 68.546875 
Q 53.21875 62.890625 53.21875 53.421875 
Q 53.21875 48.921875 51.53125 44.890625 
Q 49.859375 40.875 45.40625 35.40625 
Q 44.1875 33.984375 37.640625 27.21875 
Q 31.109375 20.453125 19.1875 8.296875 
z
" id="DejaVuSans-50"/>
      </defs>
      <g transform="translate(54.659063 176.640824)scale(0.12 -0.12)">
       <use xlink:href="#DejaVuSans-8722"/>
       <use x="83.789062" xlink:href="#DejaVuSans-50"/>
      </g>
     </g>
    </g>
    <g id="xtick_2">
     <g id="line2d_3">
      <g>
       <use style="stroke:#000000;stroke-width:0.8;" x="102.504375" xlink:href="#md3b79fab30" y="164.022699"/>
      </g>
     </g>
     <g id="line2d_4">
      <g>
       <use style="stroke:#000000;stroke-width:0.8;" x="102.504375" xlink:href="#m9d993145be" y="47.022699"/>
      </g>
     </g>
     <g id="text_2">
      <!-- 0 -->
      <defs>
       <path d="M 31.78125 66.40625 
Q 24.171875 66.40625 20.328125 58.90625 
Q 16.5 51.421875 16.5 36.375 
Q 16.5 21.390625 20.328125 13.890625 
Q 24.171875 6.390625 31.78125 6.390625 
Q 39.453125 6.390625 43.28125 13.890625 
Q 47.125 21.390625 47.125 36.375 
Q 47.125 51.421875 43.28125 58.90625 
Q 39.453125 66.40625 31.78125 66.40625 
z
M 31.78125 74.21875 
Q 44.046875 74.21875 50.515625 64.515625 
Q 56.984375 54.828125 56.984375 36.375 
Q 56.984375 17.96875 50.515625 8.265625 
Q 44.046875 -1.421875 31.78125 -1.421875 
Q 19.53125 -1.421875 13.0625 8.265625 
Q 6.59375 17.96875 6.59375 36.375 
Q 6.59375 54.828125 13.0625 64.515625 
Q 19.53125 74.21875 31.78125 74.21875 
z
" id="DejaVuSans-48"/>
      </defs>
      <g transform="translate(98.686875 176.640824)scale(0.12 -0.12)">
       <use xlink:href="#DejaVuSans-48"/>
      </g>
     </g>
    </g>
    <g id="xtick_3">
     <g id="line2d_5">
      <g>
       <use style="stroke:#000000;stroke-width:0.8;" x="141.504375" xlink:href="#md3b79fab30" y="164.022699"/>
      </g>
     </g>
     <g id="line2d_6">
      <g>
       <use style="stroke:#000000;stroke-width:0.8;" x="141.504375" xlink:href="#m9d993145be" y="47.022699"/>
      </g>
     </g>
     <g id="text_3">
      <!-- 2 -->
      <g transform="translate(137.686875 176.640824)scale(0.12 -0.12)">
       <use xlink:href="#DejaVuSans-50"/>
      </g>
     </g>
    </g>
    <g id="text_4">
     <!-- Y axis (um) -->
     <defs>
      <path d="M -0.203125 72.90625 
L 10.40625 72.90625 
L 30.609375 42.921875 
L 50.6875 72.90625 
L 61.28125 72.90625 
L 35.5 34.71875 
L 35.5 0 
L 25.59375 0 
L 25.59375 34.71875 
z
" id="DejaVuSans-89"/>
      <path id="DejaVuSans-32"/>
      <path d="M 34.28125 27.484375 
Q 23.390625 27.484375 19.1875 25 
Q 14.984375 22.515625 14.984375 16.5 
Q 14.984375 11.71875 18.140625 8.90625 
Q 21.296875 6.109375 26.703125 6.109375 
Q 34.1875 6.109375 38.703125 11.40625 
Q 43.21875 16.703125 43.21875 25.484375 
L 43.21875 27.484375 
z
M 52.203125 31.203125 
L 52.203125 0 
L 43.21875 0 
L 43.21875 8.296875 
Q 40.140625 3.328125 35.546875 0.953125 
Q 30.953125 -1.421875 24.3125 -1.421875 
Q 15.921875 -1.421875 10.953125 3.296875 
Q 6 8.015625 6 15.921875 
Q 6 25.140625 12.171875 29.828125 
Q 18.359375 34.515625 30.609375 34.515625 
L 43.21875 34.515625 
L 43.21875 35.40625 
Q 43.21875 41.609375 39.140625 45 
Q 35.0625 48.390625 27.6875 48.390625 
Q 23 48.390625 18.546875 47.265625 
Q 14.109375 46.140625 10.015625 43.890625 
L 10.015625 52.203125 
Q 14.9375 54.109375 19.578125 55.046875 
Q 24.21875 56 28.609375 56 
Q 40.484375 56 46.34375 49.84375 
Q 52.203125 43.703125 52.203125 31.203125 
z
" id="DejaVuSans-97"/>
      <path d="M 54.890625 54.6875 
L 35.109375 28.078125 
L 55.90625 0 
L 45.3125 0 
L 29.390625 21.484375 
L 13.484375 0 
L 2.875 0 
L 24.125 28.609375 
L 4.6875 54.6875 
L 15.28125 54.6875 
L 29.78125 35.203125 
L 44.28125 54.6875 
z
" id="DejaVuSans-120"/>
      <path d="M 9.421875 54.6875 
L 18.40625 54.6875 
L 18.40625 0 
L 9.421875 0 
z
M 9.421875 75.984375 
L 18.40625 75.984375 
L 18.40625 64.59375 
L 9.421875 64.59375 
z
" id="DejaVuSans-105"/>
      <path d="M 44.28125 53.078125 
L 44.28125 44.578125 
Q 40.484375 46.53125 36.375 47.5 
Q 32.28125 48.484375 27.875 48.484375 
Q 21.1875 48.484375 17.84375 46.4375 
Q 14.5 44.390625 14.5 40.28125 
Q 14.5 37.15625 16.890625 35.375 
Q 19.28125 33.59375 26.515625 31.984375 
L 29.59375 31.296875 
Q 39.15625 29.25 43.1875 25.515625 
Q 47.21875 21.78125 47.21875 15.09375 
Q 47.21875 7.46875 41.1875 3.015625 
Q 35.15625 -1.421875 24.609375 -1.421875 
Q 20.21875 -1.421875 15.453125 -0.5625 
Q 10.6875 0.296875 5.421875 2 
L 5.421875 11.28125 
Q 10.40625 8.6875 15.234375 7.390625 
Q 20.0625 6.109375 24.8125 6.109375 
Q 31.15625 6.109375 34.5625 8.28125 
Q 37.984375 10.453125 37.984375 14.40625 
Q 37.984375 18.0625 35.515625 20.015625 
Q 33.0625 21.96875 24.703125 23.78125 
L 21.578125 24.515625 
Q 13.234375 26.265625 9.515625 29.90625 
Q 5.8125 33.546875 5.8125 39.890625 
Q 5.8125 47.609375 11.28125 51.796875 
Q 16.75 56 26.8125 56 
Q 31.78125 56 36.171875 55.265625 
Q 40.578125 54.546875 44.28125 53.078125 
z
" id="DejaVuSans-115"/>
      <path d="M 31 75.875 
Q 24.46875 64.65625 21.28125 53.65625 
Q 18.109375 42.671875 18.109375 31.390625 
Q 18.109375 20.125 21.3125 9.0625 
Q 24.515625 -2 31 -13.1875 
L 23.1875 -13.1875 
Q 15.875 -1.703125 12.234375 9.375 
Q 8.59375 20.453125 8.59375 31.390625 
Q 8.59375 42.28125 12.203125 53.3125 
Q 15.828125 64.359375 23.1875 75.875 
z
" id="DejaVuSans-40"/>
      <path d="M 8.5 21.578125 
L 8.5 54.6875 
L 17.484375 54.6875 
L 17.484375 21.921875 
Q 17.484375 14.15625 20.5 10.265625 
Q 23.53125 6.390625 29.59375 6.390625 
Q 36.859375 6.390625 41.078125 11.03125 
Q 45.3125 15.671875 45.3125 23.6875 
L 45.3125 54.6875 
L 54.296875 54.6875 
L 54.296875 0 
L 45.3125 0 
L 45.3125 8.40625 
Q 42.046875 3.421875 37.71875 1 
Q 33.40625 -1.421875 27.6875 -1.421875 
Q 18.265625 -1.421875 13.375 4.4375 
Q 8.5 10.296875 8.5 21.578125 
z
M 31.109375 56 
z
" id="DejaVuSans-117"/>
      <path d="M 52 44.1875 
Q 55.375 50.25 60.0625 53.125 
Q 64.75 56 71.09375 56 
Q 79.640625 56 84.28125 50.015625 
Q 88.921875 44.046875 88.921875 33.015625 
L 88.921875 0 
L 79.890625 0 
L 79.890625 32.71875 
Q 79.890625 40.578125 77.09375 44.375 
Q 74.3125 48.1875 68.609375 48.1875 
Q 61.625 48.1875 57.5625 43.546875 
Q 53.515625 38.921875 53.515625 30.90625 
L 53.515625 0 
L 44.484375 0 
L 44.484375 32.71875 
Q 44.484375 40.625 41.703125 44.40625 
Q 38.921875 48.1875 33.109375 48.1875 
Q 26.21875 48.1875 22.15625 43.53125 
Q 18.109375 38.875 18.109375 30.90625 
L 18.109375 0 
L 9.078125 0 
L 9.078125 54.6875 
L 18.109375 54.6875 
L 18.109375 46.1875 
Q 21.1875 51.21875 25.484375 53.609375 
Q 29.78125 56 35.6875 56 
Q 41.65625 56 45.828125 52.96875 
Q 50 49.953125 52 44.1875 
z
" id="DejaVuSans-109"/>
      <path d="M 8.015625 75.875 
L 15.828125 75.875 
Q 23.140625 64.359375 26.78125 53.3125 
Q 30.421875 42.28125 30.421875 31.390625 
Q 30.421875 20.453125 26.78125 9.375 
Q 23.140625 -1.703125 15.828125 -13.1875 
L 8.015625 -13.1875 
Q 14.5 -2 17.703125 9.0625 
Q 20.90625 20.125 20.90625 31.390625 
Q 20.90625 42.671875 17.703125 53.65625 
Q 14.5 64.65625 8.015625 75.875 
z
" id="DejaVuSans-41"/>
     </defs>
     <g transform="translate(68.676563 192.254574)scale(0.12 -0.12)">
      <use xlink:href="#DejaVuSans-89"/>
      <use x="61.083984" xlink:href="#DejaVuSans-32"/>
      <use x="92.871094" xlink:href="#DejaVuSans-97"/>
      <use x="154.150391" xlink:href="#DejaVuSans-120"/>
      <use x="213.330078" xlink:href="#DejaVuSans-105"/>
      <use x="241.113281" xlink:href="#DejaVuSans-115"/>
      <use x="293.212891" xlink:href="#DejaVuSans-32"/>
      <use x="325" xlink:href="#DejaVuSans-40"/>
      <use x="364.013672" xlink:href="#DejaVuSans-117"/>
      <use x="427.392578" xlink:href="#DejaVuSans-109"/>
      <use x="524.804688" xlink:href="#DejaVuSans-41"/>
     </g>
    </g>
   </g>
   <g id="matplotlib.axis_2">
    <g id="ytick_1">
     <g id="line2d_7">
      <defs>
       <path d="M 0 0 
L 3.5 0 
" id="m1cd1ec2a2d" style="stroke:#000000;stroke-width:0.8;"/>
      </defs>
      <g>
       <use style="stroke:#000000;stroke-width:0.8;" x="44.004375" xlink:href="#m1cd1ec2a2d" y="144.522699"/>
      </g>
     </g>
     <g id="line2d_8">
      <defs>
       <path d="M 0 0 
L -3.5 0 
" id="m6402ad2162" style="stroke:#000000;stroke-width:0.8;"/>
      </defs>
      <g>
       <use style="stroke:#000000;stroke-width:0.8;" x="161.004375" xlink:href="#m6402ad2162" y="144.522699"/>
      </g>
     </g>
     <g id="text_5">
      <!-- −2 -->
      <g transform="translate(22.81375 149.081761)scale(0.12 -0.12)">
       <use xlink:href="#DejaVuSans-8722"/>
       <use x="83.789062" xlink:href="#DejaVuSans-50"/>
      </g>
     </g>
    </g>
    <g id="ytick_2">
     <g id="line2d_9">
      <g>
       <use style="stroke:#000000;stroke-width:0.8;" x="44.004375" xlink:href="#m1cd1ec2a2d" y="105.522699"/>
      </g>
     </g>
     <g id="line2d_10">
      <g>
       <use style="stroke:#000000;stroke-width:0.8;" x="161.004375" xlink:href="#m6402ad2162" y="105.522699"/>
      </g>
     </g>
     <g id="text_6">
      <!-- 0 -->
      <g transform="translate(32.869375 110.081761)scale(0.12 -0.12)">
       <use xlink:href="#DejaVuSans-48"/>
      </g>
     </g>
    </g>
    <g id="ytick_3">
     <g id="line2d_11">
      <g>
       <use style="stroke:#000000;stroke-width:0.8;" x="44.004375" xlink:href="#m1cd1ec2a2d" y="66.522699"/>
      </g>
     </g>
     <g id="line2d_12">
      <g>
       <use style="stroke:#000000;stroke-width:0.8;" x="161.004375" xlink:href="#m6402ad2162" y="66.522699"/>
      </g>
     </g>
     <g id="text_7">
      <!-- 2 -->
      <g transform="translate(32.869375 71.081761)scale(0.12 -0.12)">
       <use xlink:href="#DejaVuSans-50"/>
      </g>
     </g>
    </g>
    <g id="text_8">
     <!-- Z axis (um) -->
     <defs>
      <path d="M 5.609375 72.90625 
L 62.890625 72.90625 
L 62.890625 65.375 
L 16.796875 8.296875 
L 64.015625 8.296875 
L 64.015625 0 
L 4.5 0 
L 4.5 7.515625 
L 50.59375 64.59375 
L 5.609375 64.59375 
z
" id="DejaVuSans-90"/>
     </defs>
     <g transform="translate(16.318125 139.795824)rotate(-90)scale(0.12 -0.12)">
      <use xlink:href="#DejaVuSans-90"/>
      <use x="68.505859" xlink:href="#DejaVuSans-32"/>
      <use x="100.292969" xlink:href="#DejaVuSans-97"/>
      <use x="161.572266" xlink:href="#DejaVuSans-120"/>
      <use x="220.751953" xlink:href="#DejaVuSans-105"/>
      <use x="248.535156" xlink:href="#DejaVuSans-115"/>
      <use x="300.634766" xlink:href="#DejaVuSans-32"/>
      <use x="332.421875" xlink:href="#DejaVuSans-40"/>
      <use x="371.435547" xlink:href="#DejaVuSans-117"/>
      <use x="434.814453" xlink:href="#DejaVuSans-109"/>
      <use x="532.226562" xlink:href="#DejaVuSans-41"/>
     </g>
    </g>
   </g>
   <g id="LineCollection_1">
    <path clip-path="url(#pdd4f263376)" d="M 44.004375 164.022699 
" style="fill:none;stroke:#440154;stroke-width:0.8;"/>
    <path clip-path="url(#pdd4f263376)" d="M 44.004375 47.022699 
" style="fill:none;stroke:#440154;stroke-width:0.8;"/>
    <path clip-path="url(#pdd4f263376)" d="M 161.004375 164.022699 
" style="fill:none;stroke:#440154;stroke-width:0.8;"/>
    <path clip-path="url(#pdd4f263376)" d="M 161.004375 47.022699 
" style="fill:none;stroke:#440154;stroke-width:0.8;"/>
   </g>
   <g id="LineCollection_2">
    <path clip-path="url(#pdd4f263376)" d="M 111.847617 125.696954 
L 110.351936 125.935151 
L 107.498277 126.200518 
L 103.21779 126.333008 
L 98.223887 126.243036 
L 94.656814 125.940946 
L 92.51657 125.574576 
L 90.376326 124.959079 
L 88.949497 124.31455 
L 87.522668 123.311804 
L 86.095838 121.855906 
L 85.150615 120.510302 
L 80.388521 113.249655 
L 79.148947 110.840881 
L 77.508469 106.973112 
L 76.450607 104.072286 
L 75.283145 100.204517 
L 74.581579 97.303691 
L 74.054932 94.402864 
L 73.737999 91.502038 
L 73.696011 88.601211 
L 73.96779 85.740686 
L 74.293842 83.766501 
L 75.017264 80.865674 
L 76.310645 76.997905 
L 77.905436 73.130137 
L 79.675107 69.520904 
L 81.101936 67.319409 
L 82.652488 65.3946 
L 83.955595 64.055738 
L 85.382424 62.897208 
L 86.809253 62.044651 
L 88.949497 61.07349 
L 95.549393 58.626005 
L 98.223887 58.272437 
L 101.077546 58.115829 
L 104.644619 58.144977 
L 107.498277 58.359877 
L 109.638521 58.715268 
L 111.778765 59.522812 
L 112.49218 59.767836 
L 116.059253 61.106182 
L 118.199497 62.080321 
L 119.626326 62.940098 
L 121.053155 64.10794 
L 122.479985 65.572034 
L 123.906814 67.37025 
L 125.333643 69.573522 
L 127.076056 73.130137 
L 128.669586 76.997905 
L 129.957658 80.865674 
L 130.677056 83.766501 
L 131.122278 86.667327 
L 131.288807 89.568153 
L 131.147931 92.46898 
L 130.707792 95.706446 
L 130.707792 95.706446 
" style="fill:none;stroke:#46327e;stroke-width:0.8;"/>
   </g>
   <g id="LineCollection_3">
    <path clip-path="url(#pdd4f263376)" d="M 78.344506 91.367244 
L 78.366557 88.601211 
L 78.646291 85.700385 
L 79.199192 82.799558 
L 79.735343 80.865674 
L 80.499738 78.93179 
L 81.472897 76.997905 
L 82.528765 75.413807 
L 83.955595 73.782912 
L 85.685105 72.163195 
L 87.522668 70.751269 
L 89.972937 69.262368 
L 91.957912 68.295426 
L 93.943399 67.502152 
L 96.797058 66.653427 
L 99.650716 66.140748 
L 101.79096 65.975902 
L 103.931204 66.010132 
L 106.071448 66.244913 
L 108.925107 66.840122 
L 111.065351 67.513197 
L 113.205595 68.37612 
L 115.345838 69.44658 
L 117.486082 70.777233 
L 119.626326 72.452613 
L 121.311589 74.097079 
L 122.479985 75.458647 
L 123.505305 76.997905 
L 124.480876 78.93179 
L 125.333643 81.129104 
L 125.997624 83.766501 
L 126.46037 86.667327 
L 126.651647 89.568153 
L 126.58556 92.46898 
L 126.263262 95.369806 
L 125.684216 98.270633 
L 125.123394 100.204517 
L 123.906814 103.168801 
L 122.869374 105.039228 
L 121.501838 106.973112 
L 119.626326 109.249453 
L 117.223353 111.807823 
L 115.181792 113.741707 
L 113.205595 115.410971 
L 111.065351 116.947247 
L 108.925107 118.168544 
L 106.784863 119.046832 
L 104.744354 119.54336 
L 103.931204 119.664165 
L 102.504375 119.744244 
L 101.077546 119.664165 
L 99.375945 119.364587 
L 99.375945 119.364587 
" style="fill:none;stroke:#365c8d;stroke-width:0.8;"/>
   </g>
   <g id="LineCollection_4">
    <path clip-path="url(#pdd4f263376)" d="M 121.66186 83.564534 
L 122.075664 84.733443 
L 122.558774 86.667327 
L 122.81228 88.601211 
L 122.873391 90.535096 
L 122.747271 92.46898 
L 122.431394 94.402864 
L 121.76657 96.70103 
L 121.053155 98.493248 
L 120.207173 100.204517 
L 118.912912 102.339144 
L 117.486082 104.311816 
L 116.059253 106.019802 
L 113.919009 108.210931 
L 111.778765 110.017014 
L 109.638521 111.455082 
L 107.498277 112.518127 
L 105.358034 113.207084 
L 103.931204 113.455917 
L 102.504375 113.538038 
L 101.077546 113.455571 
L 99.650716 113.206555 
L 98.197474 112.774765 
L 96.797058 112.205725 
L 94.656814 111.016677 
L 92.51657 109.459992 
L 90.376326 107.532796 
L 88.236082 105.210345 
L 86.601506 103.105343 
L 85.331639 101.171459 
L 83.955595 98.55431 
L 83.24218 96.786571 
L 82.787858 95.369806 
L 82.363551 93.435922 
L 82.143462 91.502038 
L 82.110204 89.568153 
L 82.266317 87.634269 
L 82.625882 85.700385 
L 83.24218 83.736117 
L 84.084159 81.832616 
L 85.382424 79.679086 
L 86.809253 77.875991 
L 88.69958 76.030963 
L 90.489799 74.6611 
L 90.489799 74.6611 
" style="fill:none;stroke:#277f8e;stroke-width:0.8;"/>
   </g>
   <g id="LineCollection_5">
    <path clip-path="url(#pdd4f263376)" d="M 86.791732 92.46898 
L 86.642009 90.535096 
L 86.736046 88.601211 
L 87.086697 86.667327 
L 87.718171 84.733443 
L 88.669178 82.799558 
L 89.662912 81.314751 
L 90.854291 79.898732 
L 91.852468 78.93179 
L 93.229985 77.830067 
L 94.656814 76.907639 
L 96.797058 75.866585 
L 98.937302 75.179064 
L 101.077546 74.815388 
L 103.21779 74.76469 
L 105.358034 75.025466 
L 107.498277 75.606319 
L 108.925107 76.180622 
L 110.485511 76.997905 
L 111.94251 77.964848 
L 113.205595 78.997957 
L 114.632424 80.460634 
L 115.698205 81.832616 
L 116.83015 83.766501 
L 117.614537 85.700385 
L 118.101795 87.634269 
L 118.322535 89.568153 
L 118.294538 91.502038 
L 118.028833 93.435922 
L 117.486082 95.496653 
L 116.772668 97.362737 
L 115.835259 99.237575 
L 114.620019 101.171459 
L 113.116427 103.105343 
L 111.224848 105.039228 
L 109.638521 106.318889 
L 108.211692 107.230712 
L 106.756515 107.940054 
L 105.358034 108.423649 
L 103.931204 108.717507 
L 102.504375 108.814862 
L 101.077546 108.717293 
L 99.650716 108.423301 
L 98.223887 107.928797 
L 96.36359 106.973112 
L 94.948455 106.00617 
L 93.779742 105.039228 
L 92.51657 103.803108 
L 91.089741 102.137675 
L 89.662912 100.086593 
L 88.642818 98.270633 
L 87.792813 96.336748 
L 87.175861 94.402864 
L 86.791732 92.46898 
L 86.791732 92.46898 
" style="fill:none;stroke:#1fa187;stroke-width:0.8;"/>
   </g>
   <g id="LineCollection_6">
    <path clip-path="url(#pdd4f263376)" d="M 91.071769 90.535096 
L 91.089741 90.123759 
L 91.11439 89.568153 
L 91.23314 88.601211 
L 91.431603 87.634269 
L 91.714247 86.667327 
L 91.803155 86.432825 
L 92.090918 85.700385 
L 92.51657 84.83411 
L 92.56836 84.733443 
L 93.164447 83.766501 
L 93.229985 83.675383 
L 93.900204 82.799558 
L 93.943399 82.750131 
L 94.656814 81.988211 
L 94.81519 81.832616 
L 95.370229 81.344352 
L 95.972845 80.865674 
L 96.083643 80.785474 
L 96.797058 80.318575 
L 97.510473 79.910354 
L 97.5337 79.898732 
L 98.223887 79.577475 
L 98.937302 79.298214 
L 99.650716 79.071077 
L 100.21485 78.93179 
L 100.364131 78.896812 
L 101.077546 78.776954 
L 101.79096 78.705381 
L 102.504375 78.681844 
L 103.21779 78.706272 
L 103.931204 78.778696 
L 104.644619 78.899354 
L 104.782298 78.93179 
L 105.358034 79.074733 
L 106.071448 79.302987 
L 106.784863 79.583358 
L 107.460079 79.898732 
L 107.498277 79.917911 
L 108.211692 80.327623 
L 108.925107 80.796172 
L 109.020846 80.865674 
L 109.638521 81.357745 
L 110.176832 81.832616 
L 110.351936 82.005108 
L 111.065351 82.769679 
L 111.091391 82.799558 
L 111.778765 83.700174 
L 111.826347 83.766501 
L 112.421587 84.733443 
L 112.49218 84.870967 
L 112.898806 85.700385 
L 113.205595 86.482803 
L 113.275421 86.667327 
L 113.558015 87.634269 
L 113.756583 88.601211 
L 113.875713 89.568153 
L 113.919009 90.534247 
L 113.919047 90.535096 
L 113.919009 90.536313 
L 113.88924 91.502038 
L 113.78834 92.46898 
L 113.617639 93.435922 
L 113.377732 94.402864 
L 113.205595 94.942825 
L 113.066852 95.369806 
L 112.683078 96.336748 
L 112.49218 96.744584 
L 112.222139 97.303691 
L 111.778765 98.099375 
L 111.679216 98.270633 
L 111.065351 99.204983 
L 111.042734 99.237575 
L 110.351936 100.133449 
L 110.29324 100.204517 
L 109.638521 100.928418 
L 109.399329 101.171459 
L 108.925107 101.617209 
L 108.310705 102.138401 
L 108.211692 102.21705 
L 107.498277 102.724021 
L 106.879007 103.105343 
L 106.784863 103.160319 
L 106.071448 103.516456 
L 105.358034 103.807057 
L 104.644619 104.032596 
L 104.469334 104.072286 
L 103.931204 104.189841 
L 103.21779 104.283316 
L 102.504375 104.314453 
L 101.79096 104.283316 
L 101.077546 104.189831 
L 100.539416 104.072286 
L 100.364131 104.032603 
L 99.650716 103.807267 
L 98.937302 103.51685 
L 98.223887 103.161064 
L 98.128365 103.105343 
L 97.510473 102.725318 
L 96.797058 102.219093 
L 96.695313 102.138401 
L 96.083643 101.620366 
L 95.605135 101.171459 
L 95.370229 100.933272 
L 94.709644 100.204517 
L 94.656814 100.140705 
L 93.958636 99.237575 
L 93.943399 99.21568 
L 93.320688 98.270633 
L 93.229985 98.115093 
L 92.776384 97.303691 
L 92.51657 96.767704 
L 92.314086 96.336748 
L 91.928855 95.369806 
L 91.803155 94.984656 
L 91.616816 94.402864 
L 91.375641 93.435922 
L 91.203886 92.46898 
L 91.10212 91.502038 
L 91.089741 91.10832 
L 91.071769 90.535096 
" style="fill:none;stroke:#4ac16d;stroke-width:0.8;"/>
   </g>
   <g id="LineCollection_7">
    <path clip-path="url(#pdd4f263376)" d="M 95.96764 92.46898 
L 95.855398 91.502038 
L 95.846881 90.535096 
L 95.945291 89.568153 
L 96.083643 88.928245 
L 96.160701 88.601211 
L 96.513097 87.634269 
L 96.797058 87.066054 
L 97.019586 86.667327 
L 97.510473 85.977099 
L 97.735931 85.700385 
L 98.223887 85.206559 
L 98.776827 84.733443 
L 98.937302 84.616102 
L 99.650716 84.187321 
L 100.364131 83.856105 
L 100.634602 83.766501 
L 101.077546 83.636785 
L 101.79096 83.51161 
L 102.504375 83.470374 
L 103.21779 83.512789 
L 103.931204 83.639167 
L 104.363609 83.766501 
L 104.644619 83.860114 
L 105.358034 84.192848 
L 106.071448 84.623102 
L 106.221925 84.733443 
L 106.784863 85.216526 
L 107.2618 85.700385 
L 107.498277 85.991278 
L 107.978 86.667327 
L 108.211692 87.086872 
L 108.484752 87.634269 
L 108.83696 88.601211 
L 108.925107 88.975492 
L 109.053188 89.568153 
L 109.151934 90.535096 
L 109.143978 91.502038 
L 109.032554 92.46898 
L 108.925107 92.956984 
L 108.811536 93.435922 
L 108.474089 94.402864 
L 108.211692 94.973513 
L 108.010634 95.369806 
L 107.498277 96.18449 
L 107.389949 96.336748 
L 106.784863 97.052259 
L 106.536732 97.303691 
L 106.071448 97.712837 
L 105.358034 98.229074 
L 105.284764 98.270633 
L 104.644619 98.594037 
L 103.931204 98.851823 
L 103.21779 99.00657 
L 102.504375 99.058272 
L 101.79096 99.00693 
L 101.077546 98.852535 
L 100.364131 98.595193 
L 99.720749 98.270633 
L 99.650716 98.230975 
L 98.937302 97.715718 
L 98.467892 97.303691 
L 98.223887 97.056976 
L 97.613506 96.336748 
L 97.510473 96.192262 
L 96.99189 95.369806 
L 96.797058 94.986943 
L 96.527641 94.402864 
L 96.189035 93.435922 
L 96.083643 92.993476 
L 95.96764 92.46898 
" style="fill:none;stroke:#a0da39;stroke-width:0.8;"/>
   </g>
   <g id="LineCollection_8"/>
   <g id="patch_4">
    <path d="M 44.004375 164.022699 
L 44.004375 47.022699 
" style="fill:none;stroke:#000000;stroke-linecap:square;stroke-linejoin:miter;stroke-width:0.8;"/>
   </g>
   <g id="patch_5">
    <path d="M 161.004375 164.022699 
L 161.004375 47.022699 
" style="fill:none;stroke:#000000;stroke-linecap:square;stroke-linejoin:miter;stroke-width:0.8;"/>
   </g>
   <g id="patch_6">
    <path d="M 44.004375 164.022699 
L 161.004375 164.022699 
" style="fill:none;stroke:#000000;stroke-linecap:square;stroke-linejoin:miter;stroke-width:0.8;"/>
   </g>
   <g id="patch_7">
    <path d="M 44.004375 47.022699 
L 161.004375 47.022699 
" style="fill:none;stroke:#000000;stroke-linecap:square;stroke-linejoin:miter;stroke-width:0.8;"/>
   </g>
   <g id="text_9">
    <g clip-path="url(#pdd4f263376)">
     <!-- 0.150 -->
     <defs>
      <path d="M 10.6875 12.40625 
L 21 12.40625 
L 21 0 
L 10.6875 0 
z
" id="DejaVuSans-46"/>
      <path d="M 12.40625 8.296875 
L 28.515625 8.296875 
L 28.515625 63.921875 
L 10.984375 60.40625 
L 10.984375 69.390625 
L 28.421875 72.90625 
L 38.28125 72.90625 
L 38.28125 8.296875 
L 54.390625 8.296875 
L 54.390625 0 
L 12.40625 0 
z
" id="DejaVuSans-49"/>
      <path d="M 10.796875 72.90625 
L 49.515625 72.90625 
L 49.515625 64.59375 
L 19.828125 64.59375 
L 19.828125 46.734375 
Q 21.96875 47.46875 24.109375 47.828125 
Q 26.265625 48.1875 28.421875 48.1875 
Q 40.625 48.1875 47.75 41.5 
Q 54.890625 34.8125 54.890625 23.390625 
Q 54.890625 11.625 47.5625 5.09375 
Q 40.234375 -1.421875 26.90625 -1.421875 
Q 22.3125 -1.421875 17.546875 -0.640625 
Q 12.796875 0.140625 7.71875 1.703125 
L 7.71875 11.625 
Q 12.109375 9.234375 16.796875 8.0625 
Q 21.484375 6.890625 26.703125 6.890625 
Q 35.15625 6.890625 40.078125 11.328125 
Q 45.015625 15.765625 45.015625 23.390625 
Q 45.015625 31 40.078125 35.4375 
Q 35.15625 39.890625 26.703125 39.890625 
Q 22.75 39.890625 18.8125 39.015625 
Q 14.890625 38.140625 10.796875 36.28125 
z
" id="DejaVuSans-53"/>
     </defs>
     <g style="fill:#46327e;" transform="translate(119.867355 126.985735)rotate(-60.060166)scale(0.1 -0.1)">
      <use xlink:href="#DejaVuSans-48"/>
      <use x="63.623047" xlink:href="#DejaVuSans-46"/>
      <use x="95.410156" xlink:href="#DejaVuSans-49"/>
      <use x="159.033203" xlink:href="#DejaVuSans-53"/>
      <use x="222.65625" xlink:href="#DejaVuSans-48"/>
     </g>
    </g>
   </g>
   <g id="text_10">
    <g clip-path="url(#pdd4f263376)">
     <!-- 0.300 -->
     <defs>
      <path d="M 40.578125 39.3125 
Q 47.65625 37.796875 51.625 33 
Q 55.609375 28.21875 55.609375 21.1875 
Q 55.609375 10.40625 48.1875 4.484375 
Q 40.765625 -1.421875 27.09375 -1.421875 
Q 22.515625 -1.421875 17.65625 -0.515625 
Q 12.796875 0.390625 7.625 2.203125 
L 7.625 11.71875 
Q 11.71875 9.328125 16.59375 8.109375 
Q 21.484375 6.890625 26.8125 6.890625 
Q 36.078125 6.890625 40.9375 10.546875 
Q 45.796875 14.203125 45.796875 21.1875 
Q 45.796875 27.640625 41.28125 31.265625 
Q 36.765625 34.90625 28.71875 34.90625 
L 20.21875 34.90625 
L 20.21875 43.015625 
L 29.109375 43.015625 
Q 36.375 43.015625 40.234375 45.921875 
Q 44.09375 48.828125 44.09375 54.296875 
Q 44.09375 59.90625 40.109375 62.90625 
Q 36.140625 65.921875 28.71875 65.921875 
Q 24.65625 65.921875 20.015625 65.03125 
Q 15.375 64.15625 9.8125 62.3125 
L 9.8125 71.09375 
Q 15.4375 72.65625 20.34375 73.4375 
Q 25.25 74.21875 29.59375 74.21875 
Q 40.828125 74.21875 47.359375 69.109375 
Q 53.90625 64.015625 53.90625 55.328125 
Q 53.90625 49.265625 50.4375 45.09375 
Q 46.96875 40.921875 40.578125 39.3125 
z
" id="DejaVuSans-51"/>
     </defs>
     <g style="fill:#365c8d;" transform="translate(73.883545 98.635226)rotate(-306.808675)scale(0.1 -0.1)">
      <use xlink:href="#DejaVuSans-48"/>
      <use x="63.623047" xlink:href="#DejaVuSans-46"/>
      <use x="95.410156" xlink:href="#DejaVuSans-51"/>
      <use x="159.033203" xlink:href="#DejaVuSans-48"/>
      <use x="222.65625" xlink:href="#DejaVuSans-48"/>
     </g>
    </g>
   </g>
   <g id="text_11">
    <g clip-path="url(#pdd4f263376)">
     <!-- 0.450 -->
     <defs>
      <path d="M 37.796875 64.3125 
L 12.890625 25.390625 
L 37.796875 25.390625 
z
M 35.203125 72.90625 
L 47.609375 72.90625 
L 47.609375 25.390625 
L 58.015625 25.390625 
L 58.015625 17.1875 
L 47.609375 17.1875 
L 47.609375 0 
L 37.796875 0 
L 37.796875 17.1875 
L 4.890625 17.1875 
L 4.890625 26.703125 
z
" id="DejaVuSans-52"/>
     </defs>
     <g style="fill:#277f8e;" transform="translate(93.68753 70.401269)rotate(-344.18115)scale(0.1 -0.1)">
      <use xlink:href="#DejaVuSans-48"/>
      <use x="63.623047" xlink:href="#DejaVuSans-46"/>
      <use x="95.410156" xlink:href="#DejaVuSans-52"/>
      <use x="159.033203" xlink:href="#DejaVuSans-53"/>
      <use x="222.65625" xlink:href="#DejaVuSans-48"/>
     </g>
    </g>
   </g>
  </g>
  <g id="axes_2">
   <g id="patch_8">
    <path d="M 44.004375 46.122699 
L 161.004375 46.122699 
L 161.004375 10.122699 
L 44.004375 10.122699 
z
" style="fill:none;"/>
   </g>
   <g id="matplotlib.axis_3">
    <g id="xtick_4">
     <g id="line2d_13">
      <g>
       <use style="stroke:#000000;stroke-width:0.8;" x="63.504375" xlink:href="#md3b79fab30" y="46.122699"/>
      </g>
     </g>
    </g>
    <g id="xtick_5">
     <g id="line2d_14">
      <g>
       <use style="stroke:#000000;stroke-width:0.8;" x="102.504375" xlink:href="#md3b79fab30" y="46.122699"/>
      </g>
     </g>
    </g>
    <g id="xtick_6">
     <g id="line2d_15">
      <g>
       <use style="stroke:#000000;stroke-width:0.8;" x="141.504375" xlink:href="#md3b79fab30" y="46.122699"/>
      </g>
     </g>
    </g>
   </g>
   <g id="matplotlib.axis_4">
    <g id="ytick_4">
     <g id="line2d_16">
      <g>
       <use style="stroke:#000000;stroke-width:0.8;" x="44.004375" xlink:href="#m1cd1ec2a2d" y="44.500991"/>
      </g>
     </g>
     <g id="text_12">
      <!-- 0 -->
      <g transform="translate(32.869375 49.060053)scale(0.12 -0.12)">
       <use xlink:href="#DejaVuSans-48"/>
      </g>
     </g>
    </g>
    <g id="ytick_5">
     <g id="line2d_17">
      <g>
       <use style="stroke:#000000;stroke-width:0.8;" x="44.004375" xlink:href="#m1cd1ec2a2d" y="11.759062"/>
      </g>
     </g>
     <g id="text_13">
      <!-- 1 -->
      <g transform="translate(32.869375 16.318125)scale(0.12 -0.12)">
       <use xlink:href="#DejaVuSans-49"/>
      </g>
     </g>
    </g>
   </g>
   <g id="LineCollection_9">
    <path clip-path="url(#p09d0f8485c)" d="M 44.004375 40.069853 
L 161.004375 40.069853 
" style="fill:none;stroke:#000000;stroke-dasharray:0.8,1.32;stroke-dashoffset:0;stroke-width:0.8;"/>
   </g>
   <g id="line2d_18">
    <path clip-path="url(#p09d0f8485c)" d="M 44.004375 44.486011 
L 46.144619 44.318701 
L 50.425107 43.697978 
L 52.565351 43.747798 
L 57.559253 44.219215 
L 58.986082 44.039593 
L 60.412912 43.652304 
L 66.120229 41.637958 
L 68.260473 41.300614 
L 70.400716 40.998823 
L 71.827546 40.602651 
L 73.254375 39.91315 
L 74.681204 38.866622 
L 76.108034 37.462694 
L 77.534863 35.75595 
L 82.528765 29.331088 
L 88.236082 23.145305 
L 93.943399 16.877328 
L 96.083643 14.826404 
L 97.510473 13.67761 
L 98.937302 12.763059 
L 100.364131 12.126517 
L 101.79096 11.799993 
L 103.21779 11.80066 
L 104.644619 12.128601 
L 106.071448 12.76681 
L 107.498277 13.683278 
L 108.925107 14.83449 
L 111.065351 16.889749 
L 114.632424 20.775443 
L 121.053155 27.847684 
L 123.906814 31.034898 
L 126.760473 34.850152 
L 128.900716 37.494663 
L 130.327546 38.896699 
L 131.754375 39.941617 
L 133.181204 40.629794 
L 134.608034 41.024723 
L 137.461692 41.412826 
L 139.601936 41.830005 
L 141.74218 42.552334 
L 145.309253 43.874536 
L 146.736082 44.160639 
L 148.162912 44.233095 
L 150.303155 44.033827 
L 153.156814 43.701086 
L 154.583643 43.703291 
L 156.723887 43.959523 
L 160.29096 44.466565 
L 161.004375 44.486335 
L 161.004375 44.486335 
" style="fill:none;stroke:#1f77b4;stroke-linecap:square;"/>
   </g>
   <g id="patch_9">
    <path d="M 44.004375 46.122699 
L 44.004375 10.122699 
" style="fill:none;stroke:#000000;stroke-linecap:square;stroke-linejoin:miter;stroke-width:0.8;"/>
   </g>
   <g id="patch_10">
    <path d="M 161.004375 46.122699 
L 161.004375 10.122699 
" style="fill:none;stroke:#000000;stroke-linecap:square;stroke-linejoin:miter;stroke-width:0.8;"/>
   </g>
   <g id="patch_11">
    <path d="M 44.004375 46.122699 
L 161.004375 46.122699 
" style="fill:none;stroke:#000000;stroke-linecap:square;stroke-linejoin:miter;stroke-width:0.8;"/>
   </g>
   <g id="patch_12">
    <path d="M 44.004375 10.122699 
L 161.004375 10.122699 
" style="fill:none;stroke:#000000;stroke-linecap:square;stroke-linejoin:miter;stroke-width:0.8;"/>
   </g>
  </g>
  <g id="axes_3">
   <g id="patch_13">
    <path d="M 161.904375 164.022699 
L 197.904375 164.022699 
L 197.904375 47.022699 
L 161.904375 47.022699 
z
" style="fill:none;"/>
   </g>
   <g id="matplotlib.axis_5">
    <g id="xtick_7">
     <g id="line2d_19">
      <g>
       <use style="stroke:#000000;stroke-width:0.8;" x="163.540737" xlink:href="#md3b79fab30" y="164.022699"/>
      </g>
     </g>
     <g id="text_14">
      <!-- 0 -->
      <g transform="translate(159.723237 176.640824)scale(0.12 -0.12)">
       <use xlink:href="#DejaVuSans-48"/>
      </g>
     </g>
    </g>
    <g id="xtick_8">
     <g id="line2d_20">
      <g>
       <use style="stroke:#000000;stroke-width:0.8;" x="196.268011" xlink:href="#md3b79fab30" y="164.022699"/>
      </g>
     </g>
     <g id="text_15">
      <!-- 1 -->
      <g transform="translate(192.450511 176.640824)scale(0.12 -0.12)">
       <use xlink:href="#DejaVuSans-49"/>
      </g>
     </g>
    </g>
   </g>
   <g id="matplotlib.axis_6">
    <g id="ytick_6">
     <g id="line2d_21">
      <g>
       <use style="stroke:#000000;stroke-width:0.8;" x="161.904375" xlink:href="#m1cd1ec2a2d" y="144.522699"/>
      </g>
     </g>
    </g>
    <g id="ytick_7">
     <g id="line2d_22">
      <g>
       <use style="stroke:#000000;stroke-width:0.8;" x="161.904375" xlink:href="#m1cd1ec2a2d" y="105.522699"/>
      </g>
     </g>
    </g>
    <g id="ytick_8">
     <g id="line2d_23">
      <g>
       <use style="stroke:#000000;stroke-width:0.8;" x="161.904375" xlink:href="#m1cd1ec2a2d" y="66.522699"/>
      </g>
     </g>
    </g>
   </g>
   <g id="LineCollection_10">
    <path clip-path="url(#p4ce5570a25)" d="M 167.969892 164.022699 
L 167.969892 47.022699 
" style="fill:none;stroke:#000000;stroke-dasharray:0.8,1.32;stroke-dashoffset:0;stroke-width:0.8;"/>
   </g>
   <g id="line2d_24">
    <path clip-path="url(#p4ce5570a25)" d="M 163.540739 164.022699 
L 163.560338 163.055757 
L 163.617452 162.088815 
L 163.707171 161.121872 
L 163.821784 160.15493 
L 163.951438 159.187988 
L 164.084992 158.221046 
L 164.210972 157.254104 
L 164.318562 156.287162 
L 164.398535 155.32022 
L 164.444055 154.353277 
L 164.451287 153.386335 
L 164.419699 152.419393 
L 164.35217 151.452451 
L 164.254713 150.485509 
L 164.135998 149.518567 
L 164.006613 148.551624 
L 163.878168 147.584682 
L 163.76231 146.61774 
L 163.669735 145.650798 
L 163.609274 144.683856 
L 163.587145 143.716914 
L 163.606416 142.749972 
L 163.666749 141.783029 
L 163.764424 140.816087 
L 163.892663 139.849145 
L 164.042207 138.882203 
L 164.257179 137.915261 
L 164.50933 136.948319 
L 164.711264 135.981377 
L 164.808553 135.014434 
L 164.710581 134.047492 
L 164.523495 133.08055 
L 164.415875 132.113608 
L 164.545684 131.146666 
L 164.993123 130.179724 
L 165.730502 129.212782 
L 166.642601 128.245839 
L 167.587756 127.278897 
L 168.471359 126.311955 
L 169.29916 125.345013 
L 170.187413 124.378071 
L 170.992092 123.411129 
L 171.721697 122.444186 
L 172.354022 121.477244 
L 172.90079 120.510302 
L 173.479055 119.54336 
L 174.111063 118.576418 
L 174.797565 117.609476 
L 175.53856 116.642534 
L 176.332716 115.675591 
L 177.177865 114.708649 
L 178.070759 113.741707 
L 179.007231 112.774765 
L 179.982198 111.807823 
L 180.989745 110.840881 
L 182.023289 109.873939 
L 183.075747 108.906996 
L 184.139454 107.940054 
L 185.20641 106.973112 
L 186.268284 106.00617 
L 187.316743 105.039228 
L 188.343287 104.072286 
L 189.339585 103.105343 
L 190.297388 102.138401 
L 191.20853 101.171459 
L 192.065428 100.204517 
L 192.860583 99.237575 
L 193.586997 98.270633 
L 194.238253 97.303691 
L 194.808185 96.336748 
L 195.291378 95.369806 
L 195.682914 94.402864 
L 195.978462 93.435922 
L 196.174522 92.46898 
L 196.268011 91.502038 
L 196.256929 90.535096 
L 196.13986 89.568153 
L 195.916303 88.601211 
L 195.586592 87.634269 
L 195.151977 86.667327 
L 194.614791 85.700385 
L 193.978367 84.733443 
L 193.246787 83.766501 
L 192.425552 82.799558 
L 191.520909 81.832616 
L 190.540193 80.865674 
L 189.491734 79.898732 
L 188.384866 78.93179 
L 187.22942 77.964848 
L 186.036312 76.997905 
L 184.81679 76.030963 
L 183.582603 75.064021 
L 182.345501 74.097079 
L 181.117647 73.130137 
L 179.910623 72.163195 
L 178.73593 71.196253 
L 177.604064 70.22931 
L 176.524943 69.262368 
L 175.507314 68.295426 
L 174.55851 67.328484 
L 173.684614 66.361542 
L 172.889875 65.3946 
L 172.177043 64.427658 
L 171.498799 63.460715 
L 170.783426 62.493773 
L 170.039122 61.526831 
L 169.387058 60.559889 
L 168.949244 59.592947 
L 168.681242 58.626005 
L 168.256109 57.659062 
L 167.51054 56.69212 
L 166.489261 55.725178 
L 165.402949 54.758236 
L 164.518537 53.791294 
L 164.031259 52.824352 
L 164.048407 51.85741 
L 164.475926 50.890467 
L 164.679968 49.923525 
L 164.369181 48.956583 
L 163.813178 47.989641 
L 163.540741 47.022699 
" style="fill:none;stroke:#1f77b4;stroke-linecap:square;"/>
   </g>
   <g id="patch_14">
    <path d="M 161.904375 164.022699 
L 161.904375 47.022699 
" style="fill:none;stroke:#000000;stroke-linecap:square;stroke-linejoin:miter;stroke-width:0.8;"/>
   </g>
   <g id="patch_15">
    <path d="M 197.904375 164.022699 
L 197.904375 47.022699 
" style="fill:none;stroke:#000000;stroke-linecap:square;stroke-linejoin:miter;stroke-width:0.8;"/>
   </g>
   <g id="patch_16">
    <path d="M 161.904375 164.022699 
L 197.904375 164.022699 
" style="fill:none;stroke:#000000;stroke-linecap:square;stroke-linejoin:miter;stroke-width:0.8;"/>
   </g>
   <g id="patch_17">
    <path d="M 161.904375 47.022699 
L 197.904375 47.022699 
" style="fill:none;stroke:#000000;stroke-linecap:square;stroke-linejoin:miter;stroke-width:0.8;"/>
   </g>
  </g>
 </g>
 <defs>
  <clipPath id="pdd4f263376">
   <rect height="117" width="117" x="44.004375" y="47.022699"/>
  </clipPath>
  <clipPath id="p09d0f8485c">
   <rect height="36" width="117" x="44.004375" y="10.122699"/>
  </clipPath>
  <clipPath id="p4ce5570a25">
   <rect height="117" width="36" x="161.904375" y="47.022699"/>
  </clipPath>
 </defs>
</svg>
