<?xml version="1.0" encoding="utf-8" standalone="no"?>
<!DOCTYPE svg PUBLIC "-//W3C//DTD SVG 1.1//EN"
  "http://www.w3.org/Graphics/SVG/1.1/DTD/svg11.dtd">
<!-- Created with matplotlib (https://matplotlib.org/) -->
<svg height="201.950199pt" version="1.1" viewBox="0 0 207.285511 201.950199" width="207.285511pt" xmlns="http://www.w3.org/2000/svg" xmlns:xlink="http://www.w3.org/1999/xlink">
 <defs>
  <style type="text/css">
*{stroke-linecap:butt;stroke-linejoin:round;white-space:pre;}
  </style>
 </defs>
 <g id="figure_1">
  <g id="patch_1">
   <path d="M 0 201.950199 
L 207.285511 201.950199 
L 207.285511 0 
L 0 0 
z
" style="fill:none;"/>
  </g>
  <g id="axes_1">
   <g id="patch_2">
    <path d="M 44.004375 164.022699 
L 161.004375 164.022699 
L 161.004375 47.022699 
L 44.004375 47.022699 
z
" style="fill:none;"/>
   </g>
   <g id="patch_3">
    <path clip-path="url(#pf3fc17f7d4)" d="M 87.879375 105.522699 
L 117.129375 105.522699 
L 117.129375 89.922699 
L 87.879375 89.922699 
z
" style="fill:none;stroke:#ff0000;stroke-dasharray:3.7,1.6;stroke-dashoffset:0;stroke-linejoin:miter;"/>
   </g>
   <g id="matplotlib.axis_1">
    <g id="xtick_1">
     <g id="line2d_1">
      <defs>
       <path d="M 0 0 
L 0 -3.5 
" id="m535dcb96cb" style="stroke:#000000;stroke-width:0.8;"/>
      </defs>
      <g>
       <use style="stroke:#000000;stroke-width:0.8;" x="63.504375" xlink:href="#m535dcb96cb" y="164.022699"/>
      </g>
     </g>
     <g id="line2d_2">
      <defs>
       <path d="M 0 0 
L 0 3.5 
" id="m964d145518" style="stroke:#000000;stroke-width:0.8;"/>
      </defs>
      <g>
       <use style="stroke:#000000;stroke-width:0.8;" x="63.504375" xlink:href="#m964d145518" y="47.022699"/>
      </g>
     </g>
     <g id="text_1">
      <!-- −2 -->
      <defs>
       <path d="M 10.59375 35.5 
L 73.1875 35.5 
L 73.1875 27.203125 
L 10.59375 27.203125 
z
" id="DejaVuSans-8722"/>
       <path d="M 19.1875 8.296875 
L 53.609375 8.296875 
L 53.609375 0 
L 7.328125 0 
L 7.328125 8.296875 
Q 12.9375 14.109375 22.625 23.890625 
Q 32.328125 33.6875 34.8125 36.53125 
Q 39.546875 41.84375 41.421875 45.53125 
Q 43.3125 49.21875 43.3125 52.78125 
Q 43.3125 58.59375 39.234375 62.25 
Q 35.15625 65.921875 28.609375 65.921875 
Q 23.96875 65.921875 18.8125 64.3125 
Q 13.671875 62.703125 7.8125 59.421875 
L 7.8125 69.390625 
Q 13.765625 71.78125 18.9375 73 
Q 24.125 74.21875 28.421875 74.21875 
Q 39.75 74.21875 46.484375 68.546875 
Q 53.21875 62.890625 53.21875 53.421875 
Q 53.21875 48.921875 51.53125 44.890625 
Q 49.859375 40.875 45.40625 35.40625 
Q 44.1875 33.984375 37.640625 27.21875 
Q 31.109375 20.453125 19.1875 8.296875 
z
" id="DejaVuSans-50"/>
      </defs>
      <g transform="translate(54.659063 176.640824)scale(0.12 -0.12)">
       <use xlink:href="#DejaVuSans-8722"/>
       <use x="83.789062" xlink:href="#DejaVuSans-50"/>
      </g>
     </g>
    </g>
    <g id="xtick_2">
     <g id="line2d_3">
      <g>
       <use style="stroke:#000000;stroke-width:0.8;" x="102.504375" xlink:href="#m535dcb96cb" y="164.022699"/>
      </g>
     </g>
     <g id="line2d_4">
      <g>
       <use style="stroke:#000000;stroke-width:0.8;" x="102.504375" xlink:href="#m964d145518" y="47.022699"/>
      </g>
     </g>
     <g id="text_2">
      <!-- 0 -->
      <defs>
       <path d="M 31.78125 66.40625 
Q 24.171875 66.40625 20.328125 58.90625 
Q 16.5 51.421875 16.5 36.375 
Q 16.5 21.390625 20.328125 13.890625 
Q 24.171875 6.390625 31.78125 6.390625 
Q 39.453125 6.390625 43.28125 13.890625 
Q 47.125 21.390625 47.125 36.375 
Q 47.125 51.421875 43.28125 58.90625 
Q 39.453125 66.40625 31.78125 66.40625 
z
M 31.78125 74.21875 
Q 44.046875 74.21875 50.515625 64.515625 
Q 56.984375 54.828125 56.984375 36.375 
Q 56.984375 17.96875 50.515625 8.265625 
Q 44.046875 -1.421875 31.78125 -1.421875 
Q 19.53125 -1.421875 13.0625 8.265625 
Q 6.59375 17.96875 6.59375 36.375 
Q 6.59375 54.828125 13.0625 64.515625 
Q 19.53125 74.21875 31.78125 74.21875 
z
" id="DejaVuSans-48"/>
      </defs>
      <g transform="translate(98.686875 176.640824)scale(0.12 -0.12)">
       <use xlink:href="#DejaVuSans-48"/>
      </g>
     </g>
    </g>
    <g id="xtick_3">
     <g id="line2d_5">
      <g>
       <use style="stroke:#000000;stroke-width:0.8;" x="141.504375" xlink:href="#m535dcb96cb" y="164.022699"/>
      </g>
     </g>
     <g id="line2d_6">
      <g>
       <use style="stroke:#000000;stroke-width:0.8;" x="141.504375" xlink:href="#m964d145518" y="47.022699"/>
      </g>
     </g>
     <g id="text_3">
      <!-- 2 -->
      <g transform="translate(137.686875 176.640824)scale(0.12 -0.12)">
       <use xlink:href="#DejaVuSans-50"/>
      </g>
     </g>
    </g>
    <g id="text_4">
     <!-- Y axis (um) -->
     <defs>
      <path d="M -0.203125 72.90625 
L 10.40625 72.90625 
L 30.609375 42.921875 
L 50.6875 72.90625 
L 61.28125 72.90625 
L 35.5 34.71875 
L 35.5 0 
L 25.59375 0 
L 25.59375 34.71875 
z
" id="DejaVuSans-89"/>
      <path id="DejaVuSans-32"/>
      <path d="M 34.28125 27.484375 
Q 23.390625 27.484375 19.1875 25 
Q 14.984375 22.515625 14.984375 16.5 
Q 14.984375 11.71875 18.140625 8.90625 
Q 21.296875 6.109375 26.703125 6.109375 
Q 34.1875 6.109375 38.703125 11.40625 
Q 43.21875 16.703125 43.21875 25.484375 
L 43.21875 27.484375 
z
M 52.203125 31.203125 
L 52.203125 0 
L 43.21875 0 
L 43.21875 8.296875 
Q 40.140625 3.328125 35.546875 0.953125 
Q 30.953125 -1.421875 24.3125 -1.421875 
Q 15.921875 -1.421875 10.953125 3.296875 
Q 6 8.015625 6 15.921875 
Q 6 25.140625 12.171875 29.828125 
Q 18.359375 34.515625 30.609375 34.515625 
L 43.21875 34.515625 
L 43.21875 35.40625 
Q 43.21875 41.609375 39.140625 45 
Q 35.0625 48.390625 27.6875 48.390625 
Q 23 48.390625 18.546875 47.265625 
Q 14.109375 46.140625 10.015625 43.890625 
L 10.015625 52.203125 
Q 14.9375 54.109375 19.578125 55.046875 
Q 24.21875 56 28.609375 56 
Q 40.484375 56 46.34375 49.84375 
Q 52.203125 43.703125 52.203125 31.203125 
z
" id="DejaVuSans-97"/>
      <path d="M 54.890625 54.6875 
L 35.109375 28.078125 
L 55.90625 0 
L 45.3125 0 
L 29.390625 21.484375 
L 13.484375 0 
L 2.875 0 
L 24.125 28.609375 
L 4.6875 54.6875 
L 15.28125 54.6875 
L 29.78125 35.203125 
L 44.28125 54.6875 
z
" id="DejaVuSans-120"/>
      <path d="M 9.421875 54.6875 
L 18.40625 54.6875 
L 18.40625 0 
L 9.421875 0 
z
M 9.421875 75.984375 
L 18.40625 75.984375 
L 18.40625 64.59375 
L 9.421875 64.59375 
z
" id="DejaVuSans-105"/>
      <path d="M 44.28125 53.078125 
L 44.28125 44.578125 
Q 40.484375 46.53125 36.375 47.5 
Q 32.28125 48.484375 27.875 48.484375 
Q 21.1875 48.484375 17.84375 46.4375 
Q 14.5 44.390625 14.5 40.28125 
Q 14.5 37.15625 16.890625 35.375 
Q 19.28125 33.59375 26.515625 31.984375 
L 29.59375 31.296875 
Q 39.15625 29.25 43.1875 25.515625 
Q 47.21875 21.78125 47.21875 15.09375 
Q 47.21875 7.46875 41.1875 3.015625 
Q 35.15625 -1.421875 24.609375 -1.421875 
Q 20.21875 -1.421875 15.453125 -0.5625 
Q 10.6875 0.296875 5.421875 2 
L 5.421875 11.28125 
Q 10.40625 8.6875 15.234375 7.390625 
Q 20.0625 6.109375 24.8125 6.109375 
Q 31.15625 6.109375 34.5625 8.28125 
Q 37.984375 10.453125 37.984375 14.40625 
Q 37.984375 18.0625 35.515625 20.015625 
Q 33.0625 21.96875 24.703125 23.78125 
L 21.578125 24.515625 
Q 13.234375 26.265625 9.515625 29.90625 
Q 5.8125 33.546875 5.8125 39.890625 
Q 5.8125 47.609375 11.28125 51.796875 
Q 16.75 56 26.8125 56 
Q 31.78125 56 36.171875 55.265625 
Q 40.578125 54.546875 44.28125 53.078125 
z
" id="DejaVuSans-115"/>
      <path d="M 31 75.875 
Q 24.46875 64.65625 21.28125 53.65625 
Q 18.109375 42.671875 18.109375 31.390625 
Q 18.109375 20.125 21.3125 9.0625 
Q 24.515625 -2 31 -13.1875 
L 23.1875 -13.1875 
Q 15.875 -1.703125 12.234375 9.375 
Q 8.59375 20.453125 8.59375 31.390625 
Q 8.59375 42.28125 12.203125 53.3125 
Q 15.828125 64.359375 23.1875 75.875 
z
" id="DejaVuSans-40"/>
      <path d="M 8.5 21.578125 
L 8.5 54.6875 
L 17.484375 54.6875 
L 17.484375 21.921875 
Q 17.484375 14.15625 20.5 10.265625 
Q 23.53125 6.390625 29.59375 6.390625 
Q 36.859375 6.390625 41.078125 11.03125 
Q 45.3125 15.671875 45.3125 23.6875 
L 45.3125 54.6875 
L 54.296875 54.6875 
L 54.296875 0 
L 45.3125 0 
L 45.3125 8.40625 
Q 42.046875 3.421875 37.71875 1 
Q 33.40625 -1.421875 27.6875 -1.421875 
Q 18.265625 -1.421875 13.375 4.4375 
Q 8.5 10.296875 8.5 21.578125 
z
M 31.109375 56 
z
" id="DejaVuSans-117"/>
      <path d="M 52 44.1875 
Q 55.375 50.25 60.0625 53.125 
Q 64.75 56 71.09375 56 
Q 79.640625 56 84.28125 50.015625 
Q 88.921875 44.046875 88.921875 33.015625 
L 88.921875 0 
L 79.890625 0 
L 79.890625 32.71875 
Q 79.890625 40.578125 77.09375 44.375 
Q 74.3125 48.1875 68.609375 48.1875 
Q 61.625 48.1875 57.5625 43.546875 
Q 53.515625 38.921875 53.515625 30.90625 
L 53.515625 0 
L 44.484375 0 
L 44.484375 32.71875 
Q 44.484375 40.625 41.703125 44.40625 
Q 38.921875 48.1875 33.109375 48.1875 
Q 26.21875 48.1875 22.15625 43.53125 
Q 18.109375 38.875 18.109375 30.90625 
L 18.109375 0 
L 9.078125 0 
L 9.078125 54.6875 
L 18.109375 54.6875 
L 18.109375 46.1875 
Q 21.1875 51.21875 25.484375 53.609375 
Q 29.78125 56 35.6875 56 
Q 41.65625 56 45.828125 52.96875 
Q 50 49.953125 52 44.1875 
z
" id="DejaVuSans-109"/>
      <path d="M 8.015625 75.875 
L 15.828125 75.875 
Q 23.140625 64.359375 26.78125 53.3125 
Q 30.421875 42.28125 30.421875 31.390625 
Q 30.421875 20.453125 26.78125 9.375 
Q 23.140625 -1.703125 15.828125 -13.1875 
L 8.015625 -13.1875 
Q 14.5 -2 17.703125 9.0625 
Q 20.90625 20.125 20.90625 31.390625 
Q 20.90625 42.671875 17.703125 53.65625 
Q 14.5 64.65625 8.015625 75.875 
z
" id="DejaVuSans-41"/>
     </defs>
     <g transform="translate(68.676563 192.254574)scale(0.12 -0.12)">
      <use xlink:href="#DejaVuSans-89"/>
      <use x="61.083984" xlink:href="#DejaVuSans-32"/>
      <use x="92.871094" xlink:href="#DejaVuSans-97"/>
      <use x="154.150391" xlink:href="#DejaVuSans-120"/>
      <use x="213.330078" xlink:href="#DejaVuSans-105"/>
      <use x="241.113281" xlink:href="#DejaVuSans-115"/>
      <use x="293.212891" xlink:href="#DejaVuSans-32"/>
      <use x="325" xlink:href="#DejaVuSans-40"/>
      <use x="364.013672" xlink:href="#DejaVuSans-117"/>
      <use x="427.392578" xlink:href="#DejaVuSans-109"/>
      <use x="524.804688" xlink:href="#DejaVuSans-41"/>
     </g>
    </g>
   </g>
   <g id="matplotlib.axis_2">
    <g id="ytick_1">
     <g id="line2d_7">
      <defs>
       <path d="M 0 0 
L 3.5 0 
" id="m2c398ac291" style="stroke:#000000;stroke-width:0.8;"/>
      </defs>
      <g>
       <use style="stroke:#000000;stroke-width:0.8;" x="44.004375" xlink:href="#m2c398ac291" y="144.522699"/>
      </g>
     </g>
     <g id="line2d_8">
      <defs>
       <path d="M 0 0 
L -3.5 0 
" id="m9dbde13297" style="stroke:#000000;stroke-width:0.8;"/>
      </defs>
      <g>
       <use style="stroke:#000000;stroke-width:0.8;" x="161.004375" xlink:href="#m9dbde13297" y="144.522699"/>
      </g>
     </g>
     <g id="text_5">
      <!-- −2 -->
      <g transform="translate(22.81375 149.081761)scale(0.12 -0.12)">
       <use xlink:href="#DejaVuSans-8722"/>
       <use x="83.789062" xlink:href="#DejaVuSans-50"/>
      </g>
     </g>
    </g>
    <g id="ytick_2">
     <g id="line2d_9">
      <g>
       <use style="stroke:#000000;stroke-width:0.8;" x="44.004375" xlink:href="#m2c398ac291" y="105.522699"/>
      </g>
     </g>
     <g id="line2d_10">
      <g>
       <use style="stroke:#000000;stroke-width:0.8;" x="161.004375" xlink:href="#m9dbde13297" y="105.522699"/>
      </g>
     </g>
     <g id="text_6">
      <!-- 0 -->
      <g transform="translate(32.869375 110.081761)scale(0.12 -0.12)">
       <use xlink:href="#DejaVuSans-48"/>
      </g>
     </g>
    </g>
    <g id="ytick_3">
     <g id="line2d_11">
      <g>
       <use style="stroke:#000000;stroke-width:0.8;" x="44.004375" xlink:href="#m2c398ac291" y="66.522699"/>
      </g>
     </g>
     <g id="line2d_12">
      <g>
       <use style="stroke:#000000;stroke-width:0.8;" x="161.004375" xlink:href="#m9dbde13297" y="66.522699"/>
      </g>
     </g>
     <g id="text_7">
      <!-- 2 -->
      <g transform="translate(32.869375 71.081761)scale(0.12 -0.12)">
       <use xlink:href="#DejaVuSans-50"/>
      </g>
     </g>
    </g>
    <g id="text_8">
     <!-- Z axis (um) -->
     <defs>
      <path d="M 5.609375 72.90625 
L 62.890625 72.90625 
L 62.890625 65.375 
L 16.796875 8.296875 
L 64.015625 8.296875 
L 64.015625 0 
L 4.5 0 
L 4.5 7.515625 
L 50.59375 64.59375 
L 5.609375 64.59375 
z
" id="DejaVuSans-90"/>
     </defs>
     <g transform="translate(16.318125 139.795824)rotate(-90)scale(0.12 -0.12)">
      <use xlink:href="#DejaVuSans-90"/>
      <use x="68.505859" xlink:href="#DejaVuSans-32"/>
      <use x="100.292969" xlink:href="#DejaVuSans-97"/>
      <use x="161.572266" xlink:href="#DejaVuSans-120"/>
      <use x="220.751953" xlink:href="#DejaVuSans-105"/>
      <use x="248.535156" xlink:href="#DejaVuSans-115"/>
      <use x="300.634766" xlink:href="#DejaVuSans-32"/>
      <use x="332.421875" xlink:href="#DejaVuSans-40"/>
      <use x="371.435547" xlink:href="#DejaVuSans-117"/>
      <use x="434.814453" xlink:href="#DejaVuSans-109"/>
      <use x="532.226562" xlink:href="#DejaVuSans-41"/>
     </g>
    </g>
   </g>
   <g id="LineCollection_1">
    <path clip-path="url(#pf3fc17f7d4)" d="M 44.004375 164.022699 
" style="fill:none;stroke:#440154;stroke-width:0.8;"/>
    <path clip-path="url(#pf3fc17f7d4)" d="M 44.004375 47.022699 
" style="fill:none;stroke:#440154;stroke-width:0.8;"/>
    <path clip-path="url(#pf3fc17f7d4)" d="M 161.004375 164.022699 
" style="fill:none;stroke:#440154;stroke-width:0.8;"/>
    <path clip-path="url(#pf3fc17f7d4)" d="M 161.004375 47.022699 
" style="fill:none;stroke:#440154;stroke-width:0.8;"/>
   </g>
   <g id="LineCollection_2">
    <path clip-path="url(#pf3fc17f7d4)" d="M 111.778516 125.606354 
L 109.638521 126.025055 
L 106.784863 126.347637 
L 103.21779 126.490065 
L 99.650716 126.433122 
L 96.797058 126.223539 
L 93.943399 125.78089 
L 91.803155 125.231326 
L 90.376326 124.700153 
L 88.949497 123.938682 
L 87.522668 122.83649 
L 86.809253 122.110363 
L 86.095838 121.2117 
L 81.101936 113.63945 
L 79.611126 110.840881 
L 77.962944 106.973112 
L 76.559528 103.105343 
L 75.448359 99.237575 
L 74.681204 95.363743 
L 74.37012 92.46898 
L 74.337742 89.568153 
L 74.592706 86.667327 
L 75.105781 83.766501 
L 75.871393 80.865674 
L 77.226291 76.997905 
L 78.961692 73.086518 
L 79.960541 71.196253 
L 81.214262 69.262368 
L 82.746802 67.328484 
L 85.382424 64.529679 
L 86.809253 63.220616 
L 88.236082 62.20387 
L 91.803155 59.986735 
L 92.51657 59.380301 
L 93.289221 58.626005 
L 95.370229 57.986769 
L 96.856812 57.659063 
L 100.364131 57.440191 
L 103.931204 57.42286 
L 107.498277 57.606694 
L 108.925107 57.834598 
L 111.065351 58.429665 
L 111.778765 58.765903 
L 113.205595 60.066955 
L 113.919009 60.630494 
L 116.059253 61.826088 
L 117.486082 62.73679 
L 118.912912 63.898626 
L 121.76657 66.83002 
L 123.193399 68.493872 
L 124.620229 70.562064 
L 125.564792 72.163195 
L 127.362082 76.030963 
L 128.808974 79.898732 
L 129.885007 83.766501 
L 130.398236 86.667327 
L 130.6544 89.568153 
L 130.621943 92.46898 
L 130.325172 95.254562 
L 130.325172 95.254562 
" style="fill:none;stroke:#46327e;stroke-width:0.8;"/>
   </g>
   <g id="LineCollection_3">
    <path clip-path="url(#pf3fc17f7d4)" d="M 79.036864 89.380745 
L 79.247717 86.667327 
L 79.754896 83.766501 
L 80.388521 81.61499 
L 81.101936 79.720605 
L 81.97643 77.964848 
L 83.265743 76.030963 
L 84.88638 74.097079 
L 86.809253 72.234024 
L 88.236082 71.083603 
L 90.376326 69.652036 
L 92.51657 68.522027 
L 94.656814 67.641242 
L 96.797058 66.988197 
L 98.937302 66.551841 
L 101.077546 66.323624 
L 103.21779 66.290673 
L 105.358034 66.460545 
L 107.498277 66.828026 
L 109.638521 67.420107 
L 111.930242 68.295426 
L 113.919009 69.274762 
L 116.059253 70.595882 
L 118.199497 72.266319 
L 120.086995 74.097079 
L 121.709484 76.030963 
L 122.479985 77.106237 
L 123.513388 78.93179 
L 124.335929 80.865674 
L 125.229296 83.766501 
L 125.605175 85.700385 
L 125.914942 88.601211 
L 125.958352 91.502038 
L 125.744339 94.402864 
L 125.261704 97.303691 
L 124.440073 100.204517 
L 123.723082 102.138401 
L 122.479985 104.674919 
L 121.007602 106.973112 
L 118.816927 109.873939 
L 116.772668 112.188029 
L 114.632424 114.275723 
L 112.49218 116.047501 
L 110.151431 117.609476 
L 108.925107 118.287431 
L 106.784863 119.182641 
L 104.644619 119.72012 
L 103.21779 119.885415 
L 101.79096 119.887043 
L 100.364131 119.725157 
L 98.223887 119.192628 
L 97.774755 119.030602 
L 97.774755 119.030602 
" style="fill:none;stroke:#365c8d;stroke-width:0.8;"/>
   </g>
   <g id="LineCollection_4">
    <path clip-path="url(#pf3fc17f7d4)" d="M 121.265122 85.087014 
L 121.648554 86.667327 
L 121.925084 88.601211 
L 122.007816 90.535096 
L 121.903176 92.46898 
L 121.617289 94.402864 
L 121.053155 96.656143 
L 120.339741 98.692196 
L 119.626326 100.321956 
L 118.67301 102.138401 
L 117.457997 104.072286 
L 116.013333 106.00617 
L 114.281805 107.940054 
L 112.49218 109.593141 
L 110.837552 110.840881 
L 109.261447 111.807823 
L 108.211692 112.344208 
L 106.071448 113.141368 
L 104.644619 113.466579 
L 103.21779 113.627785 
L 101.79096 113.629381 
L 100.364131 113.471474 
L 98.937302 113.149916 
L 97.510473 112.660953 
L 95.714921 111.807823 
L 94.13667 110.840881 
L 92.51657 109.623086 
L 90.688391 107.940054 
L 88.949497 105.999743 
L 87.508647 104.072286 
L 86.095838 101.782542 
L 85.28128 100.204517 
L 84.456819 98.270633 
L 83.81452 96.336748 
L 83.24218 93.762039 
L 83.065508 92.46898 
L 82.96212 90.535096 
L 83.045859 88.601211 
L 83.323741 86.667327 
L 83.955595 84.282643 
L 84.669009 82.450224 
L 85.466878 80.865674 
L 86.809253 78.816888 
L 88.360891 76.997905 
L 89.662912 75.77499 
L 91.164077 74.61705 
L 91.164077 74.61705 
" style="fill:none;stroke:#277f8e;stroke-width:0.8;"/>
   </g>
   <g id="LineCollection_5">
    <path clip-path="url(#pf3fc17f7d4)" d="M 87.362683 93.435922 
L 87.148533 91.502038 
L 87.148218 89.568153 
L 87.372741 87.634269 
L 87.841361 85.700385 
L 88.58668 83.766501 
L 89.663017 81.832616 
L 91.174916 79.898732 
L 92.51657 78.617665 
L 93.943399 77.548822 
L 95.370229 76.712512 
L 96.891995 76.030963 
L 98.937302 75.401497 
L 101.077546 75.056062 
L 103.21779 75.009191 
L 105.358034 75.258063 
L 107.498277 75.817567 
L 108.925107 76.382731 
L 110.351936 77.122477 
L 111.778765 78.073013 
L 113.205595 79.294568 
L 114.632424 80.882778 
L 115.894364 82.799558 
L 116.795704 84.733443 
L 117.39614 86.667327 
L 117.738695 88.601211 
L 117.848013 90.535096 
L 117.739079 92.46898 
L 117.419431 94.402864 
L 116.772668 96.673266 
L 116.059253 98.46342 
L 115.175177 100.204517 
L 113.919009 102.163277 
L 112.359945 104.072286 
L 111.065351 105.344945 
L 109.638521 106.484502 
L 108.211692 107.384539 
L 106.784863 108.067429 
L 105.358034 108.547628 
L 103.931204 108.832707 
L 102.504375 108.928656 
L 101.077546 108.836843 
L 99.650716 108.556016 
L 97.901358 107.940054 
L 96.797058 107.402942 
L 95.370229 106.50903 
L 93.574 105.039228 
L 92.51657 103.969445 
L 91.03273 102.138401 
L 89.662912 99.965988 
L 88.819056 98.270633 
L 88.076121 96.336748 
L 87.522668 94.268636 
L 87.362683 93.435922 
L 87.362683 93.435922 
" style="fill:none;stroke:#1fa187;stroke-width:0.8;"/>
   </g>
   <g id="LineCollection_6">
    <path clip-path="url(#pf3fc17f7d4)" d="M 91.629942 94.402864 
L 91.414603 93.435922 
L 91.26461 92.46898 
L 91.180435 91.502038 
L 91.163347 90.535096 
L 91.215291 89.568153 
L 91.339018 88.601211 
L 91.53813 87.634269 
L 91.803155 86.71453 
L 91.817346 86.667327 
L 92.191078 85.700385 
L 92.51657 85.023622 
L 92.66437 84.733443 
L 93.229985 83.807038 
L 93.256518 83.766501 
L 93.943399 82.865115 
L 93.997667 82.799558 
L 94.656814 82.099499 
L 94.93379 81.832616 
L 95.370229 81.455454 
L 96.083643 80.904228 
L 96.139438 80.865674 
L 96.797058 80.44985 
L 97.510473 80.058162 
L 97.847935 79.898732 
L 98.223887 79.733192 
L 98.937302 79.468944 
L 99.650716 79.255238 
L 100.364131 79.090716 
L 101.077546 78.974249 
L 101.514597 78.93179 
L 101.79096 78.906131 
L 102.504375 78.884738 
L 103.21779 78.908022 
L 103.466659 78.93179 
L 103.931204 78.978219 
L 104.644619 79.09674 
L 105.358034 79.263353 
L 106.071448 79.479218 
L 106.784863 79.745792 
L 107.129814 79.898732 
L 107.498277 80.074021 
L 108.211692 80.46847 
L 108.836418 80.865674 
L 108.925107 80.927311 
L 109.638521 81.48201 
L 110.042267 81.832616 
L 110.351936 82.132524 
L 110.977077 82.799558 
L 111.065351 82.906714 
L 111.717591 83.766501 
L 111.778765 83.860424 
L 112.30938 84.733443 
L 112.49218 85.094123 
L 112.782418 85.700385 
L 113.155089 86.667327 
L 113.205595 86.836272 
L 113.43434 87.634269 
L 113.632726 88.601211 
L 113.755912 89.568153 
L 113.8074 90.535096 
L 113.790047 91.502038 
L 113.705784 92.46898 
L 113.555768 93.435922 
L 113.340598 94.402864 
L 113.205595 94.870152 
L 113.056922 95.369806 
L 112.702769 96.336748 
L 112.49218 96.821117 
L 112.273406 97.303691 
L 111.778765 98.244502 
L 111.764284 98.270633 
L 111.157814 99.237575 
L 111.065351 99.369754 
L 110.440686 100.204517 
L 110.351936 100.312436 
L 109.638521 101.113947 
L 109.582518 101.171459 
L 108.925107 101.794683 
L 108.520465 102.138401 
L 108.211692 102.38354 
L 107.498277 102.884615 
L 107.135735 103.105343 
L 106.784863 103.307658 
L 106.071448 103.656096 
L 105.358034 103.939813 
L 104.929579 104.072286 
L 104.644619 104.157007 
L 103.931204 104.309061 
L 103.21779 104.400617 
L 102.504375 104.43205 
L 101.79096 104.403416 
L 101.077546 104.314675 
L 100.364131 104.165453 
L 100.046483 104.072286 
L 99.650716 103.951589 
L 98.937302 103.671056 
L 98.223887 103.32584 
L 97.838552 103.105343 
L 97.510473 102.907142 
L 96.797058 102.409812 
L 96.453166 102.138401 
L 96.083643 101.826387 
L 95.389086 101.171459 
L 95.370229 101.152199 
L 94.656814 100.355531 
L 94.532046 100.204517 
L 93.943399 99.421366 
L 93.814316 99.237575 
L 93.229985 98.309343 
L 93.206938 98.270633 
L 92.697104 97.303691 
L 92.51657 96.906838 
L 92.267952 96.336748 
L 91.913141 95.369806 
L 91.803155 95.001144 
L 91.629942 94.402864 
" style="fill:none;stroke:#4ac16d;stroke-width:0.8;"/>
   </g>
   <g id="LineCollection_7">
    <path clip-path="url(#pf3fc17f7d4)" d="M 96.065445 93.435922 
L 95.86469 92.46898 
L 95.7658 91.502038 
L 95.771044 90.535096 
L 95.884009 89.568153 
L 96.083643 88.710977 
L 96.111782 88.601211 
L 96.486399 87.634269 
L 96.797058 87.044137 
L 97.020775 86.667327 
L 97.510473 86.015756 
L 97.784519 85.700385 
L 98.223887 85.281702 
L 98.910165 84.733443 
L 98.937302 84.714858 
L 99.650716 84.314582 
L 100.364131 84.006948 
L 101.077546 83.789412 
L 101.203786 83.766501 
L 101.79096 83.671789 
L 102.504375 83.63461 
L 103.21779 83.675209 
L 103.76766 83.766501 
L 103.931204 83.797056 
L 104.644619 84.018561 
L 105.358034 84.330325 
L 106.068938 84.733443 
L 106.071448 84.735098 
L 106.784863 85.310183 
L 107.191273 85.700385 
L 107.498277 86.056391 
L 107.954331 86.667327 
L 108.211692 87.104076 
L 108.488915 87.634269 
L 108.861411 88.601211 
L 108.925107 88.851663 
L 109.09079 89.568153 
L 109.202984 90.535096 
L 109.207958 91.502038 
L 109.109241 92.46898 
L 108.925107 93.35885 
L 108.907795 93.435922 
L 108.58196 94.402864 
L 108.211692 95.227176 
L 108.140533 95.369806 
L 107.539262 96.336748 
L 107.498277 96.392028 
L 106.784863 97.236016 
L 106.717852 97.303691 
L 106.071448 97.868586 
L 105.510243 98.270633 
L 105.358034 98.367379 
L 104.644619 98.722362 
L 103.931204 98.976077 
L 103.21779 99.129127 
L 102.504375 99.181706 
L 101.79096 99.133997 
L 101.077546 98.985774 
L 100.364131 98.736905 
L 99.650716 98.386953 
L 99.465749 98.270633 
L 98.937302 97.896092 
L 98.253382 97.303691 
L 98.223887 97.274165 
L 97.510473 96.436758 
L 97.435853 96.336748 
L 96.831167 95.369806 
L 96.797058 95.301852 
L 96.391186 94.402864 
L 96.083643 93.494481 
L 96.065445 93.435922 
" style="fill:none;stroke:#a0da39;stroke-width:0.8;"/>
   </g>
   <g id="LineCollection_8"/>
   <g id="patch_4">
    <path d="M 44.004375 164.022699 
L 44.004375 47.022699 
" style="fill:none;stroke:#000000;stroke-linecap:square;stroke-linejoin:miter;stroke-width:0.8;"/>
   </g>
   <g id="patch_5">
    <path d="M 161.004375 164.022699 
L 161.004375 47.022699 
" style="fill:none;stroke:#000000;stroke-linecap:square;stroke-linejoin:miter;stroke-width:0.8;"/>
   </g>
   <g id="patch_6">
    <path d="M 44.004375 164.022699 
L 161.004375 164.022699 
" style="fill:none;stroke:#000000;stroke-linecap:square;stroke-linejoin:miter;stroke-width:0.8;"/>
   </g>
   <g id="patch_7">
    <path d="M 44.004375 47.022699 
L 161.004375 47.022699 
" style="fill:none;stroke:#000000;stroke-linecap:square;stroke-linejoin:miter;stroke-width:0.8;"/>
   </g>
   <g id="text_9">
    <g clip-path="url(#pf3fc17f7d4)">
     <!-- 0.150 -->
     <defs>
      <path d="M 10.6875 12.40625 
L 21 12.40625 
L 21 0 
L 10.6875 0 
z
" id="DejaVuSans-46"/>
      <path d="M 12.40625 8.296875 
L 28.515625 8.296875 
L 28.515625 63.921875 
L 10.984375 60.40625 
L 10.984375 69.390625 
L 28.421875 72.90625 
L 38.28125 72.90625 
L 38.28125 8.296875 
L 54.390625 8.296875 
L 54.390625 0 
L 12.40625 0 
z
" id="DejaVuSans-49"/>
      <path d="M 10.796875 72.90625 
L 49.515625 72.90625 
L 49.515625 64.59375 
L 19.828125 64.59375 
L 19.828125 46.734375 
Q 21.96875 47.46875 24.109375 47.828125 
Q 26.265625 48.1875 28.421875 48.1875 
Q 40.625 48.1875 47.75 41.5 
Q 54.890625 34.8125 54.890625 23.390625 
Q 54.890625 11.625 47.5625 5.09375 
Q 40.234375 -1.421875 26.90625 -1.421875 
Q 22.3125 -1.421875 17.546875 -0.640625 
Q 12.796875 0.140625 7.71875 1.703125 
L 7.71875 11.625 
Q 12.109375 9.234375 16.796875 8.0625 
Q 21.484375 6.890625 26.703125 6.890625 
Q 35.15625 6.890625 40.078125 11.328125 
Q 45.015625 15.765625 45.015625 23.390625 
Q 45.015625 31 40.078125 35.4375 
Q 35.15625 39.890625 26.703125 39.890625 
Q 22.75 39.890625 18.8125 39.015625 
Q 14.890625 38.140625 10.796875 36.28125 
z
" id="DejaVuSans-53"/>
     </defs>
     <g style="fill:#46327e;" transform="translate(119.702892 126.595289)rotate(-60.542176)scale(0.1 -0.1)">
      <use xlink:href="#DejaVuSans-48"/>
      <use x="63.623047" xlink:href="#DejaVuSans-46"/>
      <use x="95.410156" xlink:href="#DejaVuSans-49"/>
      <use x="159.033203" xlink:href="#DejaVuSans-53"/>
      <use x="222.65625" xlink:href="#DejaVuSans-48"/>
     </g>
    </g>
   </g>
   <g id="text_10">
    <g clip-path="url(#pf3fc17f7d4)">
     <!-- 0.300 -->
     <defs>
      <path d="M 40.578125 39.3125 
Q 47.65625 37.796875 51.625 33 
Q 55.609375 28.21875 55.609375 21.1875 
Q 55.609375 10.40625 48.1875 4.484375 
Q 40.765625 -1.421875 27.09375 -1.421875 
Q 22.515625 -1.421875 17.65625 -0.515625 
Q 12.796875 0.390625 7.625 2.203125 
L 7.625 11.71875 
Q 11.71875 9.328125 16.59375 8.109375 
Q 21.484375 6.890625 26.8125 6.890625 
Q 36.078125 6.890625 40.9375 10.546875 
Q 45.796875 14.203125 45.796875 21.1875 
Q 45.796875 27.640625 41.28125 31.265625 
Q 36.765625 34.90625 28.71875 34.90625 
L 20.21875 34.90625 
L 20.21875 43.015625 
L 29.109375 43.015625 
Q 36.375 43.015625 40.234375 45.921875 
Q 44.09375 48.828125 44.09375 54.296875 
Q 44.09375 59.90625 40.109375 62.90625 
Q 36.140625 65.921875 28.71875 65.921875 
Q 24.65625 65.921875 20.015625 65.03125 
Q 15.375 64.15625 9.8125 62.3125 
L 9.8125 71.09375 
Q 15.4375 72.65625 20.34375 73.4375 
Q 25.25 74.21875 29.59375 74.21875 
Q 40.828125 74.21875 47.359375 69.109375 
Q 53.90625 64.015625 53.90625 55.328125 
Q 53.90625 49.265625 50.4375 45.09375 
Q 46.96875 40.921875 40.578125 39.3125 
z
" id="DejaVuSans-51"/>
     </defs>
     <g style="fill:#365c8d;" transform="translate(73.983612 96.33878)rotate(-302.250596)scale(0.1 -0.1)">
      <use xlink:href="#DejaVuSans-48"/>
      <use x="63.623047" xlink:href="#DejaVuSans-46"/>
      <use x="95.410156" xlink:href="#DejaVuSans-51"/>
      <use x="159.033203" xlink:href="#DejaVuSans-48"/>
      <use x="222.65625" xlink:href="#DejaVuSans-48"/>
     </g>
    </g>
   </g>
   <g id="text_11">
    <g clip-path="url(#pf3fc17f7d4)">
     <!-- 0.450 -->
     <defs>
      <path d="M 37.796875 64.3125 
L 12.890625 25.390625 
L 37.796875 25.390625 
z
M 35.203125 72.90625 
L 47.609375 72.90625 
L 47.609375 25.390625 
L 58.015625 25.390625 
L 58.015625 17.1875 
L 47.609375 17.1875 
L 47.609375 0 
L 37.796875 0 
L 37.796875 17.1875 
L 4.890625 17.1875 
L 4.890625 26.703125 
z
" id="DejaVuSans-52"/>
     </defs>
     <g style="fill:#277f8e;" transform="translate(94.495967 70.076653)rotate(-340.904543)scale(0.1 -0.1)">
      <use xlink:href="#DejaVuSans-48"/>
      <use x="63.623047" xlink:href="#DejaVuSans-46"/>
      <use x="95.410156" xlink:href="#DejaVuSans-52"/>
      <use x="159.033203" xlink:href="#DejaVuSans-53"/>
      <use x="222.65625" xlink:href="#DejaVuSans-48"/>
     </g>
    </g>
   </g>
  </g>
  <g id="axes_2">
   <g id="patch_8">
    <path d="M 44.004375 46.122699 
L 161.004375 46.122699 
L 161.004375 10.122699 
L 44.004375 10.122699 
z
" style="fill:none;"/>
   </g>
   <g id="matplotlib.axis_3">
    <g id="xtick_4">
     <g id="line2d_13">
      <g>
       <use style="stroke:#000000;stroke-width:0.8;" x="63.504375" xlink:href="#m535dcb96cb" y="46.122699"/>
      </g>
     </g>
    </g>
    <g id="xtick_5">
     <g id="line2d_14">
      <g>
       <use style="stroke:#000000;stroke-width:0.8;" x="102.504375" xlink:href="#m535dcb96cb" y="46.122699"/>
      </g>
     </g>
    </g>
    <g id="xtick_6">
     <g id="line2d_15">
      <g>
       <use style="stroke:#000000;stroke-width:0.8;" x="141.504375" xlink:href="#m535dcb96cb" y="46.122699"/>
      </g>
     </g>
    </g>
   </g>
   <g id="matplotlib.axis_4">
    <g id="ytick_4">
     <g id="line2d_16">
      <g>
       <use style="stroke:#000000;stroke-width:0.8;" x="44.004375" xlink:href="#m2c398ac291" y="44.501158"/>
      </g>
     </g>
     <g id="text_12">
      <!-- 0 -->
      <g transform="translate(32.869375 49.06022)scale(0.12 -0.12)">
       <use xlink:href="#DejaVuSans-48"/>
      </g>
     </g>
    </g>
    <g id="ytick_5">
     <g id="line2d_17">
      <g>
       <use style="stroke:#000000;stroke-width:0.8;" x="44.004375" xlink:href="#m2c398ac291" y="11.759063"/>
      </g>
     </g>
     <g id="text_13">
      <!-- 1 -->
      <g transform="translate(32.869375 16.318125)scale(0.12 -0.12)">
       <use xlink:href="#DejaVuSans-49"/>
      </g>
     </g>
    </g>
   </g>
   <g id="LineCollection_9">
    <path clip-path="url(#p30b7f64d9b)" d="M 44.004375 40.069997 
L 161.004375 40.069997 
" style="fill:none;stroke:#000000;stroke-dasharray:0.8,1.32;stroke-dashoffset:0;stroke-width:0.8;"/>
   </g>
   <g id="line2d_18">
    <path clip-path="url(#p30b7f64d9b)" d="M 44.004375 44.486335 
L 47.571448 44.352689 
L 51.138521 44.220261 
L 58.272668 44.233611 
L 60.412912 43.927742 
L 63.979985 43.123068 
L 71.114131 41.359331 
L 72.54096 40.72275 
L 73.96779 39.857472 
L 75.394619 38.730601 
L 76.821448 37.334196 
L 78.248277 35.681784 
L 82.528765 30.286368 
L 86.095838 26.134474 
L 93.229985 17.587991 
L 95.370229 15.392152 
L 96.797058 14.149089 
L 98.223887 13.131788 
L 99.650716 12.376877 
L 101.077546 11.913248 
L 102.504375 11.759063 
L 103.931204 11.920605 
L 105.358034 12.391437 
L 106.784863 13.153168 
L 108.211692 14.17683 
L 109.638521 15.425563 
L 111.778765 17.628453 
L 114.632424 20.955163 
L 122.479985 30.329589 
L 125.333643 33.834625 
L 127.473887 36.562296 
L 128.900716 38.083444 
L 130.327546 39.340867 
L 131.754375 40.331462 
L 133.181204 41.075659 
L 134.608034 41.617661 
L 136.748277 42.186944 
L 146.022668 44.156963 
L 148.162912 44.321073 
L 151.01657 44.286827 
L 155.297058 44.247017 
L 161.004375 44.485905 
L 161.004375 44.485905 
" style="fill:none;stroke:#1f77b4;stroke-linecap:square;"/>
   </g>
   <g id="patch_9">
    <path d="M 44.004375 46.122699 
L 44.004375 10.122699 
" style="fill:none;stroke:#000000;stroke-linecap:square;stroke-linejoin:miter;stroke-width:0.8;"/>
   </g>
   <g id="patch_10">
    <path d="M 161.004375 46.122699 
L 161.004375 10.122699 
" style="fill:none;stroke:#000000;stroke-linecap:square;stroke-linejoin:miter;stroke-width:0.8;"/>
   </g>
   <g id="patch_11">
    <path d="M 44.004375 46.122699 
L 161.004375 46.122699 
" style="fill:none;stroke:#000000;stroke-linecap:square;stroke-linejoin:miter;stroke-width:0.8;"/>
   </g>
   <g id="patch_12">
    <path d="M 44.004375 10.122699 
L 161.004375 10.122699 
" style="fill:none;stroke:#000000;stroke-linecap:square;stroke-linejoin:miter;stroke-width:0.8;"/>
   </g>
  </g>
  <g id="axes_3">
   <g id="patch_13">
    <path d="M 161.904375 164.022699 
L 197.904375 164.022699 
L 197.904375 47.022699 
L 161.904375 47.022699 
z
" style="fill:none;"/>
   </g>
   <g id="matplotlib.axis_5">
    <g id="xtick_7">
     <g id="line2d_19">
      <g>
       <use style="stroke:#000000;stroke-width:0.8;" x="163.540739" xlink:href="#m535dcb96cb" y="164.022699"/>
      </g>
     </g>
     <g id="text_14">
      <!-- 0 -->
      <g transform="translate(159.723239 176.640824)scale(0.12 -0.12)">
       <use xlink:href="#DejaVuSans-48"/>
      </g>
     </g>
    </g>
    <g id="xtick_8">
     <g id="line2d_20">
      <g>
       <use style="stroke:#000000;stroke-width:0.8;" x="196.268011" xlink:href="#m535dcb96cb" y="164.022699"/>
      </g>
     </g>
     <g id="text_15">
      <!-- 1 -->
      <g transform="translate(192.450511 176.640824)scale(0.12 -0.12)">
       <use xlink:href="#DejaVuSans-49"/>
      </g>
     </g>
    </g>
   </g>
   <g id="matplotlib.axis_6">
    <g id="ytick_6">
     <g id="line2d_21">
      <g>
       <use style="stroke:#000000;stroke-width:0.8;" x="161.904375" xlink:href="#m2c398ac291" y="144.522699"/>
      </g>
     </g>
    </g>
    <g id="ytick_7">
     <g id="line2d_22">
      <g>
       <use style="stroke:#000000;stroke-width:0.8;" x="161.904375" xlink:href="#m2c398ac291" y="105.522699"/>
      </g>
     </g>
    </g>
    <g id="ytick_8">
     <g id="line2d_23">
      <g>
       <use style="stroke:#000000;stroke-width:0.8;" x="161.904375" xlink:href="#m2c398ac291" y="66.522699"/>
      </g>
     </g>
    </g>
   </g>
   <g id="LineCollection_10">
    <path clip-path="url(#pad7e5743e0)" d="M 167.969893 164.022699 
L 167.969893 47.022699 
" style="fill:none;stroke:#000000;stroke-dasharray:0.8,1.32;stroke-dashoffset:0;stroke-width:0.8;"/>
   </g>
   <g id="line2d_24">
    <path clip-path="url(#pad7e5743e0)" d="M 163.540741 164.022699 
L 163.564335 163.055757 
L 163.633114 162.088815 
L 163.741235 161.121872 
L 163.879521 160.15493 
L 164.036241 159.187988 
L 164.198112 158.221046 
L 164.351439 157.254104 
L 164.483279 156.287162 
L 164.582558 155.32022 
L 164.64101 154.353277 
L 164.653902 153.386335 
L 164.620398 152.419393 
L 164.543708 151.452451 
L 164.430733 150.485509 
L 164.291553 149.518567 
L 164.138524 148.551624 
L 163.985244 147.584682 
L 163.845396 146.61774 
L 163.731581 145.650798 
L 163.654249 144.683856 
L 163.62081 143.716914 
L 163.635009 142.749972 
L 163.696613 141.783029 
L 163.801435 140.816087 
L 163.941709 139.849145 
L 164.106762 138.882203 
L 164.344989 137.915261 
L 164.623837 136.948319 
L 164.843444 135.981377 
L 164.935822 135.014434 
L 164.799561 134.047492 
L 164.555443 133.08055 
L 164.395904 132.113608 
L 164.500843 131.146666 
L 164.960662 130.179724 
L 165.742255 129.212782 
L 166.712816 128.245839 
L 167.709397 127.278897 
L 168.621888 126.311955 
L 169.451952 125.345013 
L 170.323242 124.378071 
L 171.111238 123.411129 
L 171.829813 122.444186 
L 172.455774 121.477244 
L 172.999162 120.510302 
L 173.575333 119.54336 
L 174.206426 118.576418 
L 174.893282 117.609476 
L 175.635672 116.642534 
L 176.432293 115.675591 
L 177.280618 114.708649 
L 178.177277 113.741707 
L 179.117826 112.774765 
L 180.096905 111.807823 
L 181.108384 110.840881 
L 182.145447 109.873939 
L 183.20074 108.906996 
L 184.266375 107.940054 
L 185.334307 106.973112 
L 186.396035 106.00617 
L 187.443209 105.039228 
L 188.467173 104.072286 
L 189.459656 103.105343 
L 190.412385 102.138401 
L 191.317393 101.171459 
L 192.16702 100.204517 
L 192.953837 99.237575 
L 193.671179 98.270633 
L 194.312306 97.303691 
L 194.871549 96.336748 
L 195.343241 95.369806 
L 195.722709 94.402864 
L 196.005586 93.435922 
L 196.188349 92.46898 
L 196.268011 91.502038 
L 196.242428 90.535096 
L 196.110219 89.568153 
L 195.870696 88.601211 
L 195.524396 87.634269 
L 195.07239 86.667327 
L 194.516976 85.700385 
L 193.861449 84.733443 
L 193.110097 83.766501 
L 192.268359 82.799558 
L 191.342823 81.832616 
L 190.340842 80.865674 
L 189.271225 79.898732 
L 188.143393 78.93179 
L 186.967917 77.964848 
L 185.755827 76.997905 
L 184.519072 76.030963 
L 183.269909 75.064021 
L 182.020745 74.097079 
L 180.784144 73.130137 
L 179.57236 72.163195 
L 178.397344 71.196253 
L 177.270201 70.22931 
L 176.20112 69.262368 
L 175.198985 68.295426 
L 174.271534 67.328484 
L 173.424665 66.361542 
L 172.662589 65.3946 
L 171.987682 64.427658 
L 171.355824 63.460715 
L 170.705298 62.493773 
L 170.057369 61.526831 
L 169.540783 60.559889 
L 169.264838 59.592947 
L 169.091489 58.626005 
L 168.667342 57.659063 
L 167.833195 56.69212 
L 166.669385 55.725178 
L 165.441454 54.758236 
L 164.469239 53.791294 
L 163.977453 52.824352 
L 164.111743 51.85741 
L 164.693557 50.890467 
L 164.957284 49.923525 
L 164.569223 48.956583 
L 163.878325 47.989641 
L 163.540739 47.022699 
" style="fill:none;stroke:#1f77b4;stroke-linecap:square;"/>
   </g>
   <g id="patch_14">
    <path d="M 161.904375 164.022699 
L 161.904375 47.022699 
" style="fill:none;stroke:#000000;stroke-linecap:square;stroke-linejoin:miter;stroke-width:0.8;"/>
   </g>
   <g id="patch_15">
    <path d="M 197.904375 164.022699 
L 197.904375 47.022699 
" style="fill:none;stroke:#000000;stroke-linecap:square;stroke-linejoin:miter;stroke-width:0.8;"/>
   </g>
   <g id="patch_16">
    <path d="M 161.904375 164.022699 
L 197.904375 164.022699 
" style="fill:none;stroke:#000000;stroke-linecap:square;stroke-linejoin:miter;stroke-width:0.8;"/>
   </g>
   <g id="patch_17">
    <path d="M 161.904375 47.022699 
L 197.904375 47.022699 
" style="fill:none;stroke:#000000;stroke-linecap:square;stroke-linejoin:miter;stroke-width:0.8;"/>
   </g>
  </g>
 </g>
 <defs>
  <clipPath id="pf3fc17f7d4">
   <rect height="117" width="117" x="44.004375" y="47.022699"/>
  </clipPath>
  <clipPath id="p30b7f64d9b">
   <rect height="36" width="117" x="44.004375" y="10.122699"/>
  </clipPath>
  <clipPath id="pad7e5743e0">
   <rect height="117" width="36" x="161.904375" y="47.022699"/>
  </clipPath>
 </defs>
</svg>
