<?xml version="1.0" encoding="utf-8" standalone="no"?>
<!DOCTYPE svg PUBLIC "-//W3C//DTD SVG 1.1//EN"
  "http://www.w3.org/Graphics/SVG/1.1/DTD/svg11.dtd">
<!-- Created with matplotlib (https://matplotlib.org/) -->
<svg height="201.950199pt" version="1.1" viewBox="0 0 207.285511 201.950199" width="207.285511pt" xmlns="http://www.w3.org/2000/svg" xmlns:xlink="http://www.w3.org/1999/xlink">
 <defs>
  <style type="text/css">
*{stroke-linecap:butt;stroke-linejoin:round;white-space:pre;}
  </style>
 </defs>
 <g id="figure_1">
  <g id="patch_1">
   <path d="M 0 201.950199 
L 207.285511 201.950199 
L 207.285511 0 
L 0 0 
z
" style="fill:none;"/>
  </g>
  <g id="axes_1">
   <g id="patch_2">
    <path d="M 44.004375 164.022699 
L 161.004375 164.022699 
L 161.004375 47.022699 
L 44.004375 47.022699 
z
" style="fill:none;"/>
   </g>
   <g id="patch_3">
    <path clip-path="url(#p150aad3007)" d="M 90.804375 105.522699 
L 114.204375 105.522699 
L 114.204375 89.922699 
L 90.804375 89.922699 
z
" style="fill:none;stroke:#ff0000;stroke-dasharray:3.7,1.6;stroke-dashoffset:0;stroke-linejoin:miter;"/>
   </g>
   <g id="matplotlib.axis_1">
    <g id="xtick_1">
     <g id="line2d_1">
      <defs>
       <path d="M 0 0 
L 0 -3.5 
" id="m58ff556754" style="stroke:#000000;stroke-width:0.8;"/>
      </defs>
      <g>
       <use style="stroke:#000000;stroke-width:0.8;" x="63.504375" xlink:href="#m58ff556754" y="164.022699"/>
      </g>
     </g>
     <g id="line2d_2">
      <defs>
       <path d="M 0 0 
L 0 3.5 
" id="mfa79f7a13f" style="stroke:#000000;stroke-width:0.8;"/>
      </defs>
      <g>
       <use style="stroke:#000000;stroke-width:0.8;" x="63.504375" xlink:href="#mfa79f7a13f" y="47.022699"/>
      </g>
     </g>
     <g id="text_1">
      <!-- −2 -->
      <defs>
       <path d="M 10.59375 35.5 
L 73.1875 35.5 
L 73.1875 27.203125 
L 10.59375 27.203125 
z
" id="DejaVuSans-8722"/>
       <path d="M 19.1875 8.296875 
L 53.609375 8.296875 
L 53.609375 0 
L 7.328125 0 
L 7.328125 8.296875 
Q 12.9375 14.109375 22.625 23.890625 
Q 32.328125 33.6875 34.8125 36.53125 
Q 39.546875 41.84375 41.421875 45.53125 
Q 43.3125 49.21875 43.3125 52.78125 
Q 43.3125 58.59375 39.234375 62.25 
Q 35.15625 65.921875 28.609375 65.921875 
Q 23.96875 65.921875 18.8125 64.3125 
Q 13.671875 62.703125 7.8125 59.421875 
L 7.8125 69.390625 
Q 13.765625 71.78125 18.9375 73 
Q 24.125 74.21875 28.421875 74.21875 
Q 39.75 74.21875 46.484375 68.546875 
Q 53.21875 62.890625 53.21875 53.421875 
Q 53.21875 48.921875 51.53125 44.890625 
Q 49.859375 40.875 45.40625 35.40625 
Q 44.1875 33.984375 37.640625 27.21875 
Q 31.109375 20.453125 19.1875 8.296875 
z
" id="DejaVuSans-50"/>
      </defs>
      <g transform="translate(54.659063 176.640824)scale(0.12 -0.12)">
       <use xlink:href="#DejaVuSans-8722"/>
       <use x="83.789062" xlink:href="#DejaVuSans-50"/>
      </g>
     </g>
    </g>
    <g id="xtick_2">
     <g id="line2d_3">
      <g>
       <use style="stroke:#000000;stroke-width:0.8;" x="102.504375" xlink:href="#m58ff556754" y="164.022699"/>
      </g>
     </g>
     <g id="line2d_4">
      <g>
       <use style="stroke:#000000;stroke-width:0.8;" x="102.504375" xlink:href="#mfa79f7a13f" y="47.022699"/>
      </g>
     </g>
     <g id="text_2">
      <!-- 0 -->
      <defs>
       <path d="M 31.78125 66.40625 
Q 24.171875 66.40625 20.328125 58.90625 
Q 16.5 51.421875 16.5 36.375 
Q 16.5 21.390625 20.328125 13.890625 
Q 24.171875 6.390625 31.78125 6.390625 
Q 39.453125 6.390625 43.28125 13.890625 
Q 47.125 21.390625 47.125 36.375 
Q 47.125 51.421875 43.28125 58.90625 
Q 39.453125 66.40625 31.78125 66.40625 
z
M 31.78125 74.21875 
Q 44.046875 74.21875 50.515625 64.515625 
Q 56.984375 54.828125 56.984375 36.375 
Q 56.984375 17.96875 50.515625 8.265625 
Q 44.046875 -1.421875 31.78125 -1.421875 
Q 19.53125 -1.421875 13.0625 8.265625 
Q 6.59375 17.96875 6.59375 36.375 
Q 6.59375 54.828125 13.0625 64.515625 
Q 19.53125 74.21875 31.78125 74.21875 
z
" id="DejaVuSans-48"/>
      </defs>
      <g transform="translate(98.686875 176.640824)scale(0.12 -0.12)">
       <use xlink:href="#DejaVuSans-48"/>
      </g>
     </g>
    </g>
    <g id="xtick_3">
     <g id="line2d_5">
      <g>
       <use style="stroke:#000000;stroke-width:0.8;" x="141.504375" xlink:href="#m58ff556754" y="164.022699"/>
      </g>
     </g>
     <g id="line2d_6">
      <g>
       <use style="stroke:#000000;stroke-width:0.8;" x="141.504375" xlink:href="#mfa79f7a13f" y="47.022699"/>
      </g>
     </g>
     <g id="text_3">
      <!-- 2 -->
      <g transform="translate(137.686875 176.640824)scale(0.12 -0.12)">
       <use xlink:href="#DejaVuSans-50"/>
      </g>
     </g>
    </g>
    <g id="text_4">
     <!-- Y axis (um) -->
     <defs>
      <path d="M -0.203125 72.90625 
L 10.40625 72.90625 
L 30.609375 42.921875 
L 50.6875 72.90625 
L 61.28125 72.90625 
L 35.5 34.71875 
L 35.5 0 
L 25.59375 0 
L 25.59375 34.71875 
z
" id="DejaVuSans-89"/>
      <path id="DejaVuSans-32"/>
      <path d="M 34.28125 27.484375 
Q 23.390625 27.484375 19.1875 25 
Q 14.984375 22.515625 14.984375 16.5 
Q 14.984375 11.71875 18.140625 8.90625 
Q 21.296875 6.109375 26.703125 6.109375 
Q 34.1875 6.109375 38.703125 11.40625 
Q 43.21875 16.703125 43.21875 25.484375 
L 43.21875 27.484375 
z
M 52.203125 31.203125 
L 52.203125 0 
L 43.21875 0 
L 43.21875 8.296875 
Q 40.140625 3.328125 35.546875 0.953125 
Q 30.953125 -1.421875 24.3125 -1.421875 
Q 15.921875 -1.421875 10.953125 3.296875 
Q 6 8.015625 6 15.921875 
Q 6 25.140625 12.171875 29.828125 
Q 18.359375 34.515625 30.609375 34.515625 
L 43.21875 34.515625 
L 43.21875 35.40625 
Q 43.21875 41.609375 39.140625 45 
Q 35.0625 48.390625 27.6875 48.390625 
Q 23 48.390625 18.546875 47.265625 
Q 14.109375 46.140625 10.015625 43.890625 
L 10.015625 52.203125 
Q 14.9375 54.109375 19.578125 55.046875 
Q 24.21875 56 28.609375 56 
Q 40.484375 56 46.34375 49.84375 
Q 52.203125 43.703125 52.203125 31.203125 
z
" id="DejaVuSans-97"/>
      <path d="M 54.890625 54.6875 
L 35.109375 28.078125 
L 55.90625 0 
L 45.3125 0 
L 29.390625 21.484375 
L 13.484375 0 
L 2.875 0 
L 24.125 28.609375 
L 4.6875 54.6875 
L 15.28125 54.6875 
L 29.78125 35.203125 
L 44.28125 54.6875 
z
" id="DejaVuSans-120"/>
      <path d="M 9.421875 54.6875 
L 18.40625 54.6875 
L 18.40625 0 
L 9.421875 0 
z
M 9.421875 75.984375 
L 18.40625 75.984375 
L 18.40625 64.59375 
L 9.421875 64.59375 
z
" id="DejaVuSans-105"/>
      <path d="M 44.28125 53.078125 
L 44.28125 44.578125 
Q 40.484375 46.53125 36.375 47.5 
Q 32.28125 48.484375 27.875 48.484375 
Q 21.1875 48.484375 17.84375 46.4375 
Q 14.5 44.390625 14.5 40.28125 
Q 14.5 37.15625 16.890625 35.375 
Q 19.28125 33.59375 26.515625 31.984375 
L 29.59375 31.296875 
Q 39.15625 29.25 43.1875 25.515625 
Q 47.21875 21.78125 47.21875 15.09375 
Q 47.21875 7.46875 41.1875 3.015625 
Q 35.15625 -1.421875 24.609375 -1.421875 
Q 20.21875 -1.421875 15.453125 -0.5625 
Q 10.6875 0.296875 5.421875 2 
L 5.421875 11.28125 
Q 10.40625 8.6875 15.234375 7.390625 
Q 20.0625 6.109375 24.8125 6.109375 
Q 31.15625 6.109375 34.5625 8.28125 
Q 37.984375 10.453125 37.984375 14.40625 
Q 37.984375 18.0625 35.515625 20.015625 
Q 33.0625 21.96875 24.703125 23.78125 
L 21.578125 24.515625 
Q 13.234375 26.265625 9.515625 29.90625 
Q 5.8125 33.546875 5.8125 39.890625 
Q 5.8125 47.609375 11.28125 51.796875 
Q 16.75 56 26.8125 56 
Q 31.78125 56 36.171875 55.265625 
Q 40.578125 54.546875 44.28125 53.078125 
z
" id="DejaVuSans-115"/>
      <path d="M 31 75.875 
Q 24.46875 64.65625 21.28125 53.65625 
Q 18.109375 42.671875 18.109375 31.390625 
Q 18.109375 20.125 21.3125 9.0625 
Q 24.515625 -2 31 -13.1875 
L 23.1875 -13.1875 
Q 15.875 -1.703125 12.234375 9.375 
Q 8.59375 20.453125 8.59375 31.390625 
Q 8.59375 42.28125 12.203125 53.3125 
Q 15.828125 64.359375 23.1875 75.875 
z
" id="DejaVuSans-40"/>
      <path d="M 8.5 21.578125 
L 8.5 54.6875 
L 17.484375 54.6875 
L 17.484375 21.921875 
Q 17.484375 14.15625 20.5 10.265625 
Q 23.53125 6.390625 29.59375 6.390625 
Q 36.859375 6.390625 41.078125 11.03125 
Q 45.3125 15.671875 45.3125 23.6875 
L 45.3125 54.6875 
L 54.296875 54.6875 
L 54.296875 0 
L 45.3125 0 
L 45.3125 8.40625 
Q 42.046875 3.421875 37.71875 1 
Q 33.40625 -1.421875 27.6875 -1.421875 
Q 18.265625 -1.421875 13.375 4.4375 
Q 8.5 10.296875 8.5 21.578125 
z
M 31.109375 56 
z
" id="DejaVuSans-117"/>
      <path d="M 52 44.1875 
Q 55.375 50.25 60.0625 53.125 
Q 64.75 56 71.09375 56 
Q 79.640625 56 84.28125 50.015625 
Q 88.921875 44.046875 88.921875 33.015625 
L 88.921875 0 
L 79.890625 0 
L 79.890625 32.71875 
Q 79.890625 40.578125 77.09375 44.375 
Q 74.3125 48.1875 68.609375 48.1875 
Q 61.625 48.1875 57.5625 43.546875 
Q 53.515625 38.921875 53.515625 30.90625 
L 53.515625 0 
L 44.484375 0 
L 44.484375 32.71875 
Q 44.484375 40.625 41.703125 44.40625 
Q 38.921875 48.1875 33.109375 48.1875 
Q 26.21875 48.1875 22.15625 43.53125 
Q 18.109375 38.875 18.109375 30.90625 
L 18.109375 0 
L 9.078125 0 
L 9.078125 54.6875 
L 18.109375 54.6875 
L 18.109375 46.1875 
Q 21.1875 51.21875 25.484375 53.609375 
Q 29.78125 56 35.6875 56 
Q 41.65625 56 45.828125 52.96875 
Q 50 49.953125 52 44.1875 
z
" id="DejaVuSans-109"/>
      <path d="M 8.015625 75.875 
L 15.828125 75.875 
Q 23.140625 64.359375 26.78125 53.3125 
Q 30.421875 42.28125 30.421875 31.390625 
Q 30.421875 20.453125 26.78125 9.375 
Q 23.140625 -1.703125 15.828125 -13.1875 
L 8.015625 -13.1875 
Q 14.5 -2 17.703125 9.0625 
Q 20.90625 20.125 20.90625 31.390625 
Q 20.90625 42.671875 17.703125 53.65625 
Q 14.5 64.65625 8.015625 75.875 
z
" id="DejaVuSans-41"/>
     </defs>
     <g transform="translate(68.676563 192.254574)scale(0.12 -0.12)">
      <use xlink:href="#DejaVuSans-89"/>
      <use x="61.083984" xlink:href="#DejaVuSans-32"/>
      <use x="92.871094" xlink:href="#DejaVuSans-97"/>
      <use x="154.150391" xlink:href="#DejaVuSans-120"/>
      <use x="213.330078" xlink:href="#DejaVuSans-105"/>
      <use x="241.113281" xlink:href="#DejaVuSans-115"/>
      <use x="293.212891" xlink:href="#DejaVuSans-32"/>
      <use x="325" xlink:href="#DejaVuSans-40"/>
      <use x="364.013672" xlink:href="#DejaVuSans-117"/>
      <use x="427.392578" xlink:href="#DejaVuSans-109"/>
      <use x="524.804688" xlink:href="#DejaVuSans-41"/>
     </g>
    </g>
   </g>
   <g id="matplotlib.axis_2">
    <g id="ytick_1">
     <g id="line2d_7">
      <defs>
       <path d="M 0 0 
L 3.5 0 
" id="m50c94cf99d" style="stroke:#000000;stroke-width:0.8;"/>
      </defs>
      <g>
       <use style="stroke:#000000;stroke-width:0.8;" x="44.004375" xlink:href="#m50c94cf99d" y="144.522699"/>
      </g>
     </g>
     <g id="line2d_8">
      <defs>
       <path d="M 0 0 
L -3.5 0 
" id="me49182625d" style="stroke:#000000;stroke-width:0.8;"/>
      </defs>
      <g>
       <use style="stroke:#000000;stroke-width:0.8;" x="161.004375" xlink:href="#me49182625d" y="144.522699"/>
      </g>
     </g>
     <g id="text_5">
      <!-- −2 -->
      <g transform="translate(22.81375 149.081761)scale(0.12 -0.12)">
       <use xlink:href="#DejaVuSans-8722"/>
       <use x="83.789062" xlink:href="#DejaVuSans-50"/>
      </g>
     </g>
    </g>
    <g id="ytick_2">
     <g id="line2d_9">
      <g>
       <use style="stroke:#000000;stroke-width:0.8;" x="44.004375" xlink:href="#m50c94cf99d" y="105.522699"/>
      </g>
     </g>
     <g id="line2d_10">
      <g>
       <use style="stroke:#000000;stroke-width:0.8;" x="161.004375" xlink:href="#me49182625d" y="105.522699"/>
      </g>
     </g>
     <g id="text_6">
      <!-- 0 -->
      <g transform="translate(32.869375 110.081761)scale(0.12 -0.12)">
       <use xlink:href="#DejaVuSans-48"/>
      </g>
     </g>
    </g>
    <g id="ytick_3">
     <g id="line2d_11">
      <g>
       <use style="stroke:#000000;stroke-width:0.8;" x="44.004375" xlink:href="#m50c94cf99d" y="66.522699"/>
      </g>
     </g>
     <g id="line2d_12">
      <g>
       <use style="stroke:#000000;stroke-width:0.8;" x="161.004375" xlink:href="#me49182625d" y="66.522699"/>
      </g>
     </g>
     <g id="text_7">
      <!-- 2 -->
      <g transform="translate(32.869375 71.081761)scale(0.12 -0.12)">
       <use xlink:href="#DejaVuSans-50"/>
      </g>
     </g>
    </g>
    <g id="text_8">
     <!-- Z axis (um) -->
     <defs>
      <path d="M 5.609375 72.90625 
L 62.890625 72.90625 
L 62.890625 65.375 
L 16.796875 8.296875 
L 64.015625 8.296875 
L 64.015625 0 
L 4.5 0 
L 4.5 7.515625 
L 50.59375 64.59375 
L 5.609375 64.59375 
z
" id="DejaVuSans-90"/>
     </defs>
     <g transform="translate(16.318125 139.795824)rotate(-90)scale(0.12 -0.12)">
      <use xlink:href="#DejaVuSans-90"/>
      <use x="68.505859" xlink:href="#DejaVuSans-32"/>
      <use x="100.292969" xlink:href="#DejaVuSans-97"/>
      <use x="161.572266" xlink:href="#DejaVuSans-120"/>
      <use x="220.751953" xlink:href="#DejaVuSans-105"/>
      <use x="248.535156" xlink:href="#DejaVuSans-115"/>
      <use x="300.634766" xlink:href="#DejaVuSans-32"/>
      <use x="332.421875" xlink:href="#DejaVuSans-40"/>
      <use x="371.435547" xlink:href="#DejaVuSans-117"/>
      <use x="434.814453" xlink:href="#DejaVuSans-109"/>
      <use x="532.226562" xlink:href="#DejaVuSans-41"/>
     </g>
    </g>
   </g>
   <g id="LineCollection_1">
    <path clip-path="url(#p150aad3007)" d="M 44.004375 164.022699 
" style="fill:none;stroke:#440154;stroke-width:0.8;"/>
    <path clip-path="url(#p150aad3007)" d="M 44.004375 47.022699 
" style="fill:none;stroke:#440154;stroke-width:0.8;"/>
    <path clip-path="url(#p150aad3007)" d="M 161.004375 164.022699 
" style="fill:none;stroke:#440154;stroke-width:0.8;"/>
    <path clip-path="url(#p150aad3007)" d="M 161.004375 47.022699 
" style="fill:none;stroke:#440154;stroke-width:0.8;"/>
   </g>
   <g id="LineCollection_2">
    <path clip-path="url(#p150aad3007)" d="M 111.287811 125.782553 
L 108.925107 126.125094 
L 105.358034 126.368533 
L 101.077546 126.407072 
L 97.510473 126.259101 
L 94.656814 125.951833 
L 92.51657 125.545088 
L 90.376326 124.89121 
L 88.949497 124.21818 
L 87.522668 123.171558 
L 86.779338 122.444186 
L 86.015489 121.477244 
L 81.101936 113.418012 
L 79.39793 109.873939 
L 77.588346 105.039228 
L 76.393952 101.171459 
L 75.478898 97.303691 
L 74.886808 93.435922 
L 74.723464 90.535096 
L 74.81027 87.634269 
L 75.164697 84.733443 
L 75.770024 81.832616 
L 76.821448 78.283285 
L 77.631297 76.030963 
L 78.961692 72.900452 
L 79.804847 71.196253 
L 81.101936 69.101215 
L 82.528765 67.249547 
L 84.669009 65.003825 
L 86.393758 63.460715 
L 87.840468 62.493773 
L 88.949497 61.902463 
L 93.229985 59.872308 
L 93.943399 59.421207 
L 94.827667 58.626005 
L 96.797058 58.15448 
L 98.937302 57.834344 
L 101.79096 57.657542 
L 104.644619 57.715379 
L 107.498277 58.03434 
L 109.638521 58.49025 
L 110.123574 58.626005 
L 111.778765 59.915331 
L 113.205595 60.693849 
L 115.345838 61.617448 
L 117.094508 62.493773 
L 118.547273 63.460715 
L 119.667838 64.427658 
L 121.76657 66.529007 
L 123.279345 68.295426 
L 124.620229 70.28287 
L 125.672762 72.163195 
L 126.966181 75.064021 
L 128.187302 78.369208 
L 128.948021 80.865674 
L 129.626463 83.766501 
L 130.077669 86.667327 
L 130.249588 89.568153 
L 130.165669 92.46898 
L 129.833494 95.369806 
L 129.772456 95.724463 
L 129.772456 95.724463 
" style="fill:none;stroke:#46327e;stroke-width:0.8;"/>
   </g>
   <g id="LineCollection_3">
    <path clip-path="url(#p150aad3007)" d="M 79.370248 87.105371 
L 79.68063 84.733443 
L 80.388521 81.90496 
L 80.728285 80.865674 
L 81.526601 78.93179 
L 82.528765 77.132065 
L 83.314906 76.030963 
L 84.961332 74.097079 
L 86.095838 72.984139 
L 88.236082 71.254527 
L 90.376326 69.888461 
L 92.51657 68.813373 
L 94.656814 67.97988 
L 96.973624 67.328484 
L 98.937302 66.938582 
L 101.077546 66.715186 
L 103.21779 66.686092 
L 105.358034 66.8494 
L 107.498277 67.215715 
L 110.351936 68.001276 
L 112.49218 68.840733 
L 114.632424 69.922781 
L 116.772668 71.295414 
L 118.199497 72.405994 
L 119.993009 74.097079 
L 121.053155 75.291148 
L 122.479985 77.211957 
L 123.435903 78.93179 
L 124.236686 80.865674 
L 125.079079 83.766501 
L 125.437788 85.700385 
L 125.701918 88.601211 
L 125.703371 91.502038 
L 125.453503 94.402864 
L 125.128327 96.336748 
L 124.391536 99.237575 
L 123.742817 101.171459 
L 122.918658 103.105343 
L 121.76657 105.23034 
L 120.01579 107.940054 
L 118.199497 110.372668 
L 116.059253 112.871774 
L 113.919009 115.033812 
L 111.778765 116.849875 
L 109.638521 118.310304 
L 107.498277 119.390886 
L 105.358034 120.096 
L 103.931204 120.34616 
L 102.504375 120.429505 
L 101.077546 120.350259 
L 99.650716 120.104521 
L 97.878659 119.54336 
L 96.797058 119.095926 
L 95.642796 118.484092 
L 95.642796 118.484092 
" style="fill:none;stroke:#365c8d;stroke-width:0.8;"/>
   </g>
   <g id="LineCollection_4">
    <path clip-path="url(#p150aad3007)" d="M 121.074486 85.511895 
L 121.329596 86.667327 
L 121.58235 88.601211 
L 121.639714 90.535096 
L 121.512938 92.46898 
L 121.053155 95.087117 
L 120.731549 96.336748 
L 120.086084 98.270633 
L 118.912912 100.945279 
L 118.199497 102.294631 
L 116.772668 104.598703 
L 115.345838 106.535856 
L 113.919009 108.193173 
L 112.200497 109.873939 
L 110.351936 111.351739 
L 108.925107 112.263935 
L 107.498277 112.985906 
L 106.071448 113.524955 
L 104.644619 113.882266 
L 103.21779 114.064056 
L 101.79096 114.066304 
L 100.364131 113.889033 
L 98.937302 113.53629 
L 97.030224 112.774765 
L 96.083643 112.286874 
L 94.656814 111.381824 
L 92.761465 109.873939 
L 91.089741 108.247697 
L 89.662912 106.604179 
L 88.236082 104.685309 
L 86.809253 102.405654 
L 85.669172 100.204517 
L 84.669009 97.748401 
L 84.207997 96.336748 
L 83.7311 94.402864 
L 83.427015 92.46898 
L 83.301515 90.535096 
L 83.360293 88.601211 
L 83.614448 86.667327 
L 84.079961 84.733443 
L 84.776792 82.799558 
L 85.738629 80.865674 
L 87.020502 78.93179 
L 88.236082 77.494058 
L 89.766325 76.030963 
L 91.194828 74.928216 
L 91.194828 74.928216 
" style="fill:none;stroke:#277f8e;stroke-width:0.8;"/>
   </g>
   <g id="LineCollection_5">
    <path clip-path="url(#p150aad3007)" d="M 88.190124 95.369806 
L 87.774337 93.435922 
L 87.561507 91.502038 
L 87.558468 89.568153 
L 87.780233 87.634269 
L 88.251125 85.700385 
L 89.005766 83.766501 
L 90.104232 81.832616 
L 91.089741 80.533092 
L 92.657604 78.93179 
L 93.943399 77.921397 
L 95.437953 76.997905 
L 96.797058 76.348368 
L 98.223887 75.833438 
L 100.364131 75.353222 
L 102.504375 75.197901 
L 104.644619 75.359979 
L 106.784863 75.847587 
L 108.211692 76.368264 
L 109.638521 77.060935 
L 111.077806 77.964848 
L 112.49218 79.105321 
L 113.919009 80.596087 
L 114.849526 81.832616 
L 115.945659 83.766501 
L 116.69861 85.700385 
L 117.168055 87.634269 
L 117.389042 89.568153 
L 117.385688 91.502038 
L 117.17307 93.435922 
L 116.758153 95.369806 
L 116.059253 97.524215 
L 115.329015 99.237575 
L 114.290789 101.171459 
L 112.991555 103.105343 
L 111.344289 105.039228 
L 110.33598 106.00617 
L 108.925107 107.119176 
L 107.498277 107.993494 
L 106.071448 108.635737 
L 104.644619 109.058326 
L 103.21779 109.269582 
L 101.79096 109.272184 
L 100.364131 109.066387 
L 98.937302 108.649636 
L 97.377535 107.940054 
L 95.842409 106.973112 
L 94.629616 106.00617 
L 93.229985 104.626497 
L 91.803155 102.881708 
L 90.376326 100.670385 
L 89.623723 99.237575 
L 88.804377 97.303691 
L 88.190124 95.369806 
L 88.190124 95.369806 
" style="fill:none;stroke:#1fa187;stroke-width:0.8;"/>
   </g>
   <g id="LineCollection_6">
    <path clip-path="url(#p150aad3007)" d="M 91.785568 93.435922 
L 91.651278 92.46898 
L 91.579913 91.502038 
L 91.573143 90.535096 
L 91.633288 89.568153 
L 91.763549 88.601211 
L 91.803155 88.41135 
L 91.970748 87.634269 
L 92.259337 86.667327 
L 92.51657 86.000095 
L 92.63779 85.700385 
L 93.119789 84.733443 
L 93.229985 84.54783 
L 93.724525 83.766501 
L 93.943399 83.469712 
L 94.477424 82.799558 
L 94.656814 82.601744 
L 95.370229 81.882998 
L 95.425299 81.832616 
L 96.083643 81.291221 
L 96.669148 80.865674 
L 96.797058 80.780641 
L 97.510473 80.360708 
L 98.223887 80.001978 
L 98.467101 79.898732 
L 98.937302 79.712197 
L 99.650716 79.481865 
L 100.364131 79.304424 
L 101.077546 79.178811 
L 101.79096 79.104305 
L 102.504375 79.080539 
L 103.21779 79.107299 
L 103.931204 79.184846 
L 104.644619 79.313528 
L 105.358034 79.494181 
L 106.071448 79.727853 
L 106.497359 79.898732 
L 106.784863 80.022187 
L 107.498277 80.384904 
L 108.211692 80.809018 
L 108.296253 80.865674 
L 108.925107 81.326479 
L 109.536128 81.832616 
L 109.638521 81.926981 
L 110.351936 82.652184 
L 110.484718 82.799558 
L 111.065351 83.533295 
L 111.23624 83.766501 
L 111.778765 84.629322 
L 111.840196 84.733443 
L 112.320461 85.700385 
L 112.49218 86.127879 
L 112.698803 86.667327 
L 112.986408 87.634269 
L 113.193576 88.601211 
L 113.205595 88.688202 
L 113.323669 89.568153 
L 113.383707 90.535096 
L 113.377029 91.502038 
L 113.306007 92.46898 
L 113.205595 93.194762 
L 113.171722 93.435922 
L 112.973101 94.402864 
L 112.71209 95.369806 
L 112.49218 96.028016 
L 112.385813 96.336748 
L 111.989214 97.303691 
L 111.778765 97.745949 
L 111.517639 98.270633 
L 111.065351 99.068313 
L 110.963722 99.237575 
L 110.351936 100.148029 
L 110.311185 100.204517 
L 109.638521 101.050426 
L 109.533552 101.171459 
L 108.925107 101.816734 
L 108.588404 102.138401 
L 108.211692 102.473546 
L 107.498277 103.034916 
L 107.395716 103.105343 
L 106.784863 103.501254 
L 106.071448 103.890999 
L 105.66584 104.072286 
L 105.358034 104.203894 
L 104.644619 104.441811 
L 103.931204 104.611546 
L 103.21779 104.713792 
L 102.504375 104.748962 
L 101.79096 104.717281 
L 101.077546 104.618582 
L 100.364131 104.452436 
L 99.650716 104.218287 
L 99.305058 104.072286 
L 98.937302 103.909941 
L 98.223887 103.524541 
L 97.571264 103.105343 
L 97.510473 103.063982 
L 96.797058 102.50776 
L 96.378781 102.138401 
L 96.083643 101.858592 
L 95.431159 101.171459 
L 95.370229 101.101692 
L 94.656814 100.210566 
L 94.652312 100.204517 
L 93.998567 99.237575 
L 93.943399 99.146274 
L 93.443927 98.270633 
L 93.229985 97.843358 
L 92.971718 97.303691 
L 92.5734 96.336748 
L 92.51657 96.172717 
L 92.246896 95.369806 
L 91.984763 94.402864 
L 91.803155 93.522729 
L 91.785568 93.435922 
" style="fill:none;stroke:#4ac16d;stroke-width:0.8;"/>
   </g>
   <g id="LineCollection_7">
    <path clip-path="url(#p150aad3007)" d="M 96.038353 91.502038 
L 96.065339 90.535096 
L 96.083643 90.395508 
L 96.202163 89.568153 
L 96.45499 88.601211 
L 96.797058 87.717008 
L 96.832889 87.634269 
L 97.388806 86.667327 
L 97.510473 86.498648 
L 98.173932 85.700385 
L 98.223887 85.650354 
L 98.937302 85.044134 
L 99.388238 84.733443 
L 99.650716 84.577311 
L 100.364131 84.248089 
L 101.077546 84.015436 
L 101.79096 83.877499 
L 102.504375 83.833461 
L 103.21779 83.882806 
L 103.931204 84.02606 
L 104.644619 84.264245 
L 105.358034 84.599254 
L 105.580674 84.733443 
L 106.071448 85.076059 
L 106.784863 85.689683 
L 106.795447 85.700385 
L 107.498277 86.554292 
L 107.579109 86.667327 
L 108.131059 87.634269 
L 108.211692 87.822163 
L 108.510623 88.601211 
L 108.761994 89.568153 
L 108.899463 90.535096 
L 108.925107 91.382963 
L 108.928417 91.502038 
L 108.925107 91.547951 
L 108.853679 92.46898 
L 108.677173 93.435922 
L 108.40085 94.402864 
L 108.211692 94.89088 
L 108.006619 95.369806 
L 107.498277 96.309294 
L 107.481458 96.336748 
L 106.784863 97.280751 
L 106.765098 97.303691 
L 106.071448 97.995302 
L 105.735791 98.270633 
L 105.358034 98.543993 
L 104.644619 98.947339 
L 103.931204 99.235886 
L 103.92431 99.237575 
L 103.21779 99.39418 
L 102.504375 99.448737 
L 101.79096 99.399767 
L 101.077546 99.247218 
L 101.050575 99.237575 
L 100.364131 98.965835 
L 99.650716 98.568989 
L 99.233272 98.270633 
L 98.937302 98.030867 
L 98.223887 97.32714 
L 98.203543 97.303691 
L 97.510473 96.373191 
L 97.486605 96.336748 
L 96.959371 95.369806 
L 96.797058 94.993859 
L 96.566301 94.402864 
L 96.288049 93.435922 
L 96.110282 92.46898 
L 96.083643 92.127283 
L 96.038353 91.502038 
" style="fill:none;stroke:#a0da39;stroke-width:0.8;"/>
   </g>
   <g id="LineCollection_8"/>
   <g id="patch_4">
    <path d="M 44.004375 164.022699 
L 44.004375 47.022699 
" style="fill:none;stroke:#000000;stroke-linecap:square;stroke-linejoin:miter;stroke-width:0.8;"/>
   </g>
   <g id="patch_5">
    <path d="M 161.004375 164.022699 
L 161.004375 47.022699 
" style="fill:none;stroke:#000000;stroke-linecap:square;stroke-linejoin:miter;stroke-width:0.8;"/>
   </g>
   <g id="patch_6">
    <path d="M 44.004375 164.022699 
L 161.004375 164.022699 
" style="fill:none;stroke:#000000;stroke-linecap:square;stroke-linejoin:miter;stroke-width:0.8;"/>
   </g>
   <g id="patch_7">
    <path d="M 44.004375 47.022699 
L 161.004375 47.022699 
" style="fill:none;stroke:#000000;stroke-linecap:square;stroke-linejoin:miter;stroke-width:0.8;"/>
   </g>
   <g id="text_9">
    <g clip-path="url(#p150aad3007)">
     <!-- 0.150 -->
     <defs>
      <path d="M 10.6875 12.40625 
L 21 12.40625 
L 21 0 
L 10.6875 0 
z
" id="DejaVuSans-46"/>
      <path d="M 12.40625 8.296875 
L 28.515625 8.296875 
L 28.515625 63.921875 
L 10.984375 60.40625 
L 10.984375 69.390625 
L 28.421875 72.90625 
L 38.28125 72.90625 
L 38.28125 8.296875 
L 54.390625 8.296875 
L 54.390625 0 
L 12.40625 0 
z
" id="DejaVuSans-49"/>
      <path d="M 10.796875 72.90625 
L 49.515625 72.90625 
L 49.515625 64.59375 
L 19.828125 64.59375 
L 19.828125 46.734375 
Q 21.96875 47.46875 24.109375 47.828125 
Q 26.265625 48.1875 28.421875 48.1875 
Q 40.625 48.1875 47.75 41.5 
Q 54.890625 34.8125 54.890625 23.390625 
Q 54.890625 11.625 47.5625 5.09375 
Q 40.234375 -1.421875 26.90625 -1.421875 
Q 22.3125 -1.421875 17.546875 -0.640625 
Q 12.796875 0.140625 7.71875 1.703125 
L 7.71875 11.625 
Q 12.109375 9.234375 16.796875 8.0625 
Q 21.484375 6.890625 26.703125 6.890625 
Q 35.15625 6.890625 40.078125 11.328125 
Q 45.015625 15.765625 45.015625 23.390625 
Q 45.015625 31 40.078125 35.4375 
Q 35.15625 39.890625 26.703125 39.890625 
Q 22.75 39.890625 18.8125 39.015625 
Q 14.890625 38.140625 10.796875 36.28125 
z
" id="DejaVuSans-53"/>
     </defs>
     <g style="fill:#46327e;" transform="translate(119.321369 127.138166)rotate(-60.754831)scale(0.1 -0.1)">
      <use xlink:href="#DejaVuSans-48"/>
      <use x="63.623047" xlink:href="#DejaVuSans-46"/>
      <use x="95.410156" xlink:href="#DejaVuSans-49"/>
      <use x="159.033203" xlink:href="#DejaVuSans-53"/>
      <use x="222.65625" xlink:href="#DejaVuSans-48"/>
     </g>
    </g>
   </g>
   <g id="text_10">
    <g clip-path="url(#p150aad3007)">
     <!-- 0.300 -->
     <defs>
      <path d="M 40.578125 39.3125 
Q 47.65625 37.796875 51.625 33 
Q 55.609375 28.21875 55.609375 21.1875 
Q 55.609375 10.40625 48.1875 4.484375 
Q 40.765625 -1.421875 27.09375 -1.421875 
Q 22.515625 -1.421875 17.65625 -0.515625 
Q 12.796875 0.390625 7.625 2.203125 
L 7.625 11.71875 
Q 11.71875 9.328125 16.59375 8.109375 
Q 21.484375 6.890625 26.8125 6.890625 
Q 36.078125 6.890625 40.9375 10.546875 
Q 45.796875 14.203125 45.796875 21.1875 
Q 45.796875 27.640625 41.28125 31.265625 
Q 36.765625 34.90625 28.71875 34.90625 
L 20.21875 34.90625 
L 20.21875 43.015625 
L 29.109375 43.015625 
Q 36.375 43.015625 40.234375 45.921875 
Q 44.09375 48.828125 44.09375 54.296875 
Q 44.09375 59.90625 40.109375 62.90625 
Q 36.140625 65.921875 28.71875 65.921875 
Q 24.65625 65.921875 20.015625 65.03125 
Q 15.375 64.15625 9.8125 62.3125 
L 9.8125 71.09375 
Q 15.4375 72.65625 20.34375 73.4375 
Q 25.25 74.21875 29.59375 74.21875 
Q 40.828125 74.21875 47.359375 69.109375 
Q 53.90625 64.015625 53.90625 55.328125 
Q 53.90625 49.265625 50.4375 45.09375 
Q 46.96875 40.921875 40.578125 39.3125 
z
" id="DejaVuSans-51"/>
     </defs>
     <g style="fill:#365c8d;" transform="translate(73.98575 93.62684)rotate(-297.564503)scale(0.1 -0.1)">
      <use xlink:href="#DejaVuSans-48"/>
      <use x="63.623047" xlink:href="#DejaVuSans-46"/>
      <use x="95.410156" xlink:href="#DejaVuSans-51"/>
      <use x="159.033203" xlink:href="#DejaVuSans-48"/>
      <use x="222.65625" xlink:href="#DejaVuSans-48"/>
     </g>
    </g>
   </g>
   <g id="text_11">
    <g clip-path="url(#p150aad3007)">
     <!-- 0.450 -->
     <defs>
      <path d="M 37.796875 64.3125 
L 12.890625 25.390625 
L 37.796875 25.390625 
z
M 35.203125 72.90625 
L 47.609375 72.90625 
L 47.609375 25.390625 
L 58.015625 25.390625 
L 58.015625 17.1875 
L 47.609375 17.1875 
L 47.609375 0 
L 37.796875 0 
L 37.796875 17.1875 
L 4.890625 17.1875 
L 4.890625 26.703125 
z
" id="DejaVuSans-52"/>
     </defs>
     <g style="fill:#277f8e;" transform="translate(94.506522 70.294575)rotate(-340.618099)scale(0.1 -0.1)">
      <use xlink:href="#DejaVuSans-48"/>
      <use x="63.623047" xlink:href="#DejaVuSans-46"/>
      <use x="95.410156" xlink:href="#DejaVuSans-52"/>
      <use x="159.033203" xlink:href="#DejaVuSans-53"/>
      <use x="222.65625" xlink:href="#DejaVuSans-48"/>
     </g>
    </g>
   </g>
  </g>
  <g id="axes_2">
   <g id="patch_8">
    <path d="M 44.004375 46.122699 
L 161.004375 46.122699 
L 161.004375 10.122699 
L 44.004375 10.122699 
z
" style="fill:none;"/>
   </g>
   <g id="matplotlib.axis_3">
    <g id="xtick_4">
     <g id="line2d_13">
      <g>
       <use style="stroke:#000000;stroke-width:0.8;" x="63.504375" xlink:href="#m58ff556754" y="46.122699"/>
      </g>
     </g>
    </g>
    <g id="xtick_5">
     <g id="line2d_14">
      <g>
       <use style="stroke:#000000;stroke-width:0.8;" x="102.504375" xlink:href="#m58ff556754" y="46.122699"/>
      </g>
     </g>
    </g>
    <g id="xtick_6">
     <g id="line2d_15">
      <g>
       <use style="stroke:#000000;stroke-width:0.8;" x="141.504375" xlink:href="#m58ff556754" y="46.122699"/>
      </g>
     </g>
    </g>
   </g>
   <g id="matplotlib.axis_4">
    <g id="ytick_4">
     <g id="line2d_16">
      <g>
       <use style="stroke:#000000;stroke-width:0.8;" x="44.004375" xlink:href="#m50c94cf99d" y="44.49325"/>
      </g>
     </g>
     <g id="text_12">
      <!-- 0 -->
      <g transform="translate(32.869375 49.052313)scale(0.12 -0.12)">
       <use xlink:href="#DejaVuSans-48"/>
      </g>
     </g>
    </g>
    <g id="ytick_5">
     <g id="line2d_17">
      <g>
       <use style="stroke:#000000;stroke-width:0.8;" x="44.004375" xlink:href="#m50c94cf99d" y="11.759063"/>
      </g>
     </g>
     <g id="text_13">
      <!-- 1 -->
      <g transform="translate(32.869375 16.318125)scale(0.12 -0.12)">
       <use xlink:href="#DejaVuSans-49"/>
      </g>
     </g>
    </g>
   </g>
   <g id="LineCollection_9">
    <path clip-path="url(#p55b716fb32)" d="M 44.004375 40.06316 
L 161.004375 40.06316 
" style="fill:none;stroke:#000000;stroke-dasharray:0.8,1.32;stroke-dashoffset:0;stroke-width:0.8;"/>
   </g>
   <g id="line2d_18">
    <path clip-path="url(#p55b716fb32)" d="M 44.004375 44.486335 
L 46.144619 44.383062 
L 51.138521 44.003843 
L 53.99218 44.170554 
L 56.845838 44.333078 
L 58.272668 44.251447 
L 60.412912 43.854799 
L 66.833643 42.191803 
L 71.114131 41.455525 
L 72.54096 40.939131 
L 73.96779 40.149735 
L 75.394619 39.052793 
L 76.821448 37.654381 
L 78.248277 35.990891 
L 82.528765 30.655738 
L 86.095838 26.606389 
L 95.370229 15.678798 
L 96.797058 14.350074 
L 98.223887 13.252635 
L 99.650716 12.432816 
L 101.077546 11.927171 
L 102.504375 11.759063 
L 103.931204 11.93664 
L 105.358034 12.451598 
L 106.784863 13.280498 
L 108.211692 14.386552 
L 110.351936 16.462295 
L 113.205595 19.734434 
L 121.053155 29.154171 
L 123.906814 32.410321 
L 128.187302 37.699008 
L 129.614131 39.087183 
L 131.04096 40.175091 
L 132.46779 40.957432 
L 133.894619 41.469053 
L 136.034863 41.895502 
L 139.601936 42.469088 
L 142.455595 43.243699 
L 145.309253 44.022655 
L 147.449497 44.310483 
L 149.589741 44.286483 
L 154.583643 44.013002 
L 157.437302 44.237954 
L 160.29096 44.473799 
L 161.004375 44.486054 
L 161.004375 44.486054 
" style="fill:none;stroke:#1f77b4;stroke-linecap:square;"/>
   </g>
   <g id="patch_9">
    <path d="M 44.004375 46.122699 
L 44.004375 10.122699 
" style="fill:none;stroke:#000000;stroke-linecap:square;stroke-linejoin:miter;stroke-width:0.8;"/>
   </g>
   <g id="patch_10">
    <path d="M 161.004375 46.122699 
L 161.004375 10.122699 
" style="fill:none;stroke:#000000;stroke-linecap:square;stroke-linejoin:miter;stroke-width:0.8;"/>
   </g>
   <g id="patch_11">
    <path d="M 44.004375 46.122699 
L 161.004375 46.122699 
" style="fill:none;stroke:#000000;stroke-linecap:square;stroke-linejoin:miter;stroke-width:0.8;"/>
   </g>
   <g id="patch_12">
    <path d="M 44.004375 10.122699 
L 161.004375 10.122699 
" style="fill:none;stroke:#000000;stroke-linecap:square;stroke-linejoin:miter;stroke-width:0.8;"/>
   </g>
  </g>
  <g id="axes_3">
   <g id="patch_13">
    <path d="M 161.904375 164.022699 
L 197.904375 164.022699 
L 197.904375 47.022699 
L 161.904375 47.022699 
z
" style="fill:none;"/>
   </g>
   <g id="matplotlib.axis_5">
    <g id="xtick_7">
     <g id="line2d_19">
      <g>
       <use style="stroke:#000000;stroke-width:0.8;" x="163.540738" xlink:href="#m58ff556754" y="164.022699"/>
      </g>
     </g>
     <g id="text_14">
      <!-- 0 -->
      <g transform="translate(159.723238 176.640824)scale(0.12 -0.12)">
       <use xlink:href="#DejaVuSans-48"/>
      </g>
     </g>
    </g>
    <g id="xtick_8">
     <g id="line2d_20">
      <g>
       <use style="stroke:#000000;stroke-width:0.8;" x="196.268011" xlink:href="#m58ff556754" y="164.022699"/>
      </g>
     </g>
     <g id="text_15">
      <!-- 1 -->
      <g transform="translate(192.450511 176.640824)scale(0.12 -0.12)">
       <use xlink:href="#DejaVuSans-49"/>
      </g>
     </g>
    </g>
   </g>
   <g id="matplotlib.axis_6">
    <g id="ytick_6">
     <g id="line2d_21">
      <g>
       <use style="stroke:#000000;stroke-width:0.8;" x="161.904375" xlink:href="#m50c94cf99d" y="144.522699"/>
      </g>
     </g>
    </g>
    <g id="ytick_7">
     <g id="line2d_22">
      <g>
       <use style="stroke:#000000;stroke-width:0.8;" x="161.904375" xlink:href="#m50c94cf99d" y="105.522699"/>
      </g>
     </g>
    </g>
    <g id="ytick_8">
     <g id="line2d_23">
      <g>
       <use style="stroke:#000000;stroke-width:0.8;" x="161.904375" xlink:href="#m50c94cf99d" y="66.522699"/>
      </g>
     </g>
    </g>
   </g>
   <g id="LineCollection_10">
    <path clip-path="url(#p0d9e8ce35e)" d="M 167.969893 164.022699 
L 167.969893 47.022699 
" style="fill:none;stroke:#000000;stroke-dasharray:0.8,1.32;stroke-dashoffset:0;stroke-width:0.8;"/>
   </g>
   <g id="line2d_24">
    <path clip-path="url(#p0d9e8ce35e)" d="M 163.540739 164.022699 
L 163.562139 163.055757 
L 163.624513 162.088815 
L 163.722541 161.121872 
L 163.84786 160.15493 
L 163.989791 159.187988 
L 164.13624 158.221046 
L 164.274745 157.254104 
L 164.393541 156.287162 
L 164.482575 155.32022 
L 164.534355 154.353277 
L 164.544605 153.386335 
L 164.512651 152.419393 
L 164.441441 151.452451 
L 164.337346 150.485509 
L 164.20958 149.518567 
L 164.069441 148.551624 
L 163.929339 147.584682 
L 163.801737 146.61774 
L 163.698092 145.650798 
L 163.627872 144.683856 
L 163.597753 143.716914 
L 163.611049 142.749972 
L 163.667428 141.783029 
L 163.762952 140.816087 
L 163.890412 139.849145 
L 164.039959 138.882203 
L 164.254944 137.915261 
L 164.504705 136.948319 
L 164.697973 135.981377 
L 164.770394 135.014434 
L 164.634228 134.047492 
L 164.404211 133.08055 
L 164.26147 132.113608 
L 164.375647 131.146666 
L 164.833627 130.179724 
L 165.607794 129.212782 
L 166.577643 128.245839 
L 167.594003 127.278897 
L 168.555806 126.311955 
L 169.465006 125.345013 
L 170.43615 124.378071 
L 171.301734 123.411129 
L 172.075366 122.444186 
L 172.738967 121.477244 
L 173.308832 120.510302 
L 173.908261 119.54336 
L 174.560067 118.576418 
L 175.264871 117.609476 
L 176.022286 116.642534 
L 176.830914 115.675591 
L 177.688194 114.708649 
L 178.590713 113.741707 
L 179.534048 112.774765 
L 180.512844 111.807823 
L 181.521203 110.840881 
L 182.552377 109.873939 
L 183.599147 108.906996 
L 184.653754 107.940054 
L 185.708361 106.973112 
L 186.754743 106.00617 
L 187.784519 105.039228 
L 188.789465 104.072286 
L 189.761432 103.105343 
L 190.692196 102.138401 
L 191.574152 101.171459 
L 192.399696 100.204517 
L 193.161689 99.237575 
L 193.853457 98.270633 
L 194.468638 97.303691 
L 195.001567 96.336748 
L 195.446891 95.369806 
L 195.799952 94.402864 
L 196.056717 93.435922 
L 196.213617 92.46898 
L 196.268011 91.502038 
L 196.217807 90.535096 
L 196.061684 89.568153 
L 195.799409 88.601211 
L 195.431216 87.634269 
L 194.958579 86.667327 
L 194.383825 85.700385 
L 193.710215 84.733443 
L 192.942092 83.766501 
L 192.085044 82.799558 
L 191.145357 81.832616 
L 190.130634 80.865674 
L 189.049411 79.898732 
L 187.911078 78.93179 
L 186.725955 77.964848 
L 185.505059 76.997905 
L 184.260109 76.030963 
L 183.003054 75.064021 
L 181.746309 74.097079 
L 180.502135 73.130137 
L 179.282714 72.163195 
L 178.099841 71.196253 
L 176.964379 70.22931 
L 175.886571 69.262368 
L 174.87534 68.295426 
L 173.93829 67.328484 
L 173.081553 66.361542 
L 172.309551 65.3946 
L 171.624766 64.427658 
L 170.982651 63.460715 
L 170.320494 62.493773 
L 169.660485 61.526831 
L 169.138435 60.559889 
L 168.884634 59.592947 
L 168.77541 58.626005 
L 168.453247 57.659063 
L 167.739581 56.69212 
L 166.684369 55.725178 
L 165.521608 54.758236 
L 164.55072 53.791294 
L 163.996396 52.824352 
L 163.980695 51.85741 
L 164.434768 50.890467 
L 164.678605 49.923525 
L 164.38395 48.956583 
L 163.820363 47.989641 
L 163.540739 47.022699 
" style="fill:none;stroke:#1f77b4;stroke-linecap:square;"/>
   </g>
   <g id="patch_14">
    <path d="M 161.904375 164.022699 
L 161.904375 47.022699 
" style="fill:none;stroke:#000000;stroke-linecap:square;stroke-linejoin:miter;stroke-width:0.8;"/>
   </g>
   <g id="patch_15">
    <path d="M 197.904375 164.022699 
L 197.904375 47.022699 
" style="fill:none;stroke:#000000;stroke-linecap:square;stroke-linejoin:miter;stroke-width:0.8;"/>
   </g>
   <g id="patch_16">
    <path d="M 161.904375 164.022699 
L 197.904375 164.022699 
" style="fill:none;stroke:#000000;stroke-linecap:square;stroke-linejoin:miter;stroke-width:0.8;"/>
   </g>
   <g id="patch_17">
    <path d="M 161.904375 47.022699 
L 197.904375 47.022699 
" style="fill:none;stroke:#000000;stroke-linecap:square;stroke-linejoin:miter;stroke-width:0.8;"/>
   </g>
  </g>
 </g>
 <defs>
  <clipPath id="p150aad3007">
   <rect height="117" width="117" x="44.004375" y="47.022699"/>
  </clipPath>
  <clipPath id="p55b716fb32">
   <rect height="36" width="117" x="44.004375" y="10.122699"/>
  </clipPath>
  <clipPath id="p0d9e8ce35e">
   <rect height="117" width="36" x="161.904375" y="47.022699"/>
  </clipPath>
 </defs>
</svg>
