<?xml version="1.0" encoding="utf-8" standalone="no"?>
<!DOCTYPE svg PUBLIC "-//W3C//DTD SVG 1.1//EN"
  "http://www.w3.org/Graphics/SVG/1.1/DTD/svg11.dtd">
<!-- Created with matplotlib (https://matplotlib.org/) -->
<svg height="215.96925pt" version="1.1" viewBox="0 0 207.285511 215.96925" width="207.285511pt" xmlns="http://www.w3.org/2000/svg" xmlns:xlink="http://www.w3.org/1999/xlink">
 <defs>
  <style type="text/css">
*{stroke-linecap:butt;stroke-linejoin:round;white-space:pre;}
  </style>
 </defs>
 <g id="figure_1">
  <g id="patch_1">
   <path d="M 0 215.96925 
L 207.285511 215.96925 
L 207.285511 0 
L 0 0 
z
" style="fill:none;"/>
  </g>
  <g id="axes_1">
   <g id="patch_2">
    <path d="M 44.004375 178.04175 
L 161.004375 178.04175 
L 161.004375 61.04175 
L 44.004375 61.04175 
z
" style="fill:none;"/>
   </g>
   <g id="patch_3">
    <path clip-path="url(#pef88510ec8)" d="M 87.879375 119.54175 
L 117.129375 119.54175 
L 117.129375 103.94175 
L 87.879375 103.94175 
z
" style="fill:none;stroke:#ff0000;stroke-dasharray:3.7,1.6;stroke-dashoffset:0;stroke-linejoin:miter;"/>
   </g>
   <g id="matplotlib.axis_1">
    <g id="xtick_1">
     <g id="line2d_1">
      <defs>
       <path d="M 0 0 
L 0 -3.5 
" id="m362026f113" style="stroke:#000000;stroke-width:0.8;"/>
      </defs>
      <g>
       <use style="stroke:#000000;stroke-width:0.8;" x="63.504375" xlink:href="#m362026f113" y="178.04175"/>
      </g>
     </g>
     <g id="line2d_2">
      <defs>
       <path d="M 0 0 
L 0 3.5 
" id="m3973357596" style="stroke:#000000;stroke-width:0.8;"/>
      </defs>
      <g>
       <use style="stroke:#000000;stroke-width:0.8;" x="63.504375" xlink:href="#m3973357596" y="61.04175"/>
      </g>
     </g>
     <g id="text_1">
      <!-- −2 -->
      <defs>
       <path d="M 10.59375 35.5 
L 73.1875 35.5 
L 73.1875 27.203125 
L 10.59375 27.203125 
z
" id="DejaVuSans-8722"/>
       <path d="M 19.1875 8.296875 
L 53.609375 8.296875 
L 53.609375 0 
L 7.328125 0 
L 7.328125 8.296875 
Q 12.9375 14.109375 22.625 23.890625 
Q 32.328125 33.6875 34.8125 36.53125 
Q 39.546875 41.84375 41.421875 45.53125 
Q 43.3125 49.21875 43.3125 52.78125 
Q 43.3125 58.59375 39.234375 62.25 
Q 35.15625 65.921875 28.609375 65.921875 
Q 23.96875 65.921875 18.8125 64.3125 
Q 13.671875 62.703125 7.8125 59.421875 
L 7.8125 69.390625 
Q 13.765625 71.78125 18.9375 73 
Q 24.125 74.21875 28.421875 74.21875 
Q 39.75 74.21875 46.484375 68.546875 
Q 53.21875 62.890625 53.21875 53.421875 
Q 53.21875 48.921875 51.53125 44.890625 
Q 49.859375 40.875 45.40625 35.40625 
Q 44.1875 33.984375 37.640625 27.21875 
Q 31.109375 20.453125 19.1875 8.296875 
z
" id="DejaVuSans-50"/>
      </defs>
      <g transform="translate(54.659063 190.659875)scale(0.12 -0.12)">
       <use xlink:href="#DejaVuSans-8722"/>
       <use x="83.789062" xlink:href="#DejaVuSans-50"/>
      </g>
     </g>
    </g>
    <g id="xtick_2">
     <g id="line2d_3">
      <g>
       <use style="stroke:#000000;stroke-width:0.8;" x="102.504375" xlink:href="#m362026f113" y="178.04175"/>
      </g>
     </g>
     <g id="line2d_4">
      <g>
       <use style="stroke:#000000;stroke-width:0.8;" x="102.504375" xlink:href="#m3973357596" y="61.04175"/>
      </g>
     </g>
     <g id="text_2">
      <!-- 0 -->
      <defs>
       <path d="M 31.78125 66.40625 
Q 24.171875 66.40625 20.328125 58.90625 
Q 16.5 51.421875 16.5 36.375 
Q 16.5 21.390625 20.328125 13.890625 
Q 24.171875 6.390625 31.78125 6.390625 
Q 39.453125 6.390625 43.28125 13.890625 
Q 47.125 21.390625 47.125 36.375 
Q 47.125 51.421875 43.28125 58.90625 
Q 39.453125 66.40625 31.78125 66.40625 
z
M 31.78125 74.21875 
Q 44.046875 74.21875 50.515625 64.515625 
Q 56.984375 54.828125 56.984375 36.375 
Q 56.984375 17.96875 50.515625 8.265625 
Q 44.046875 -1.421875 31.78125 -1.421875 
Q 19.53125 -1.421875 13.0625 8.265625 
Q 6.59375 17.96875 6.59375 36.375 
Q 6.59375 54.828125 13.0625 64.515625 
Q 19.53125 74.21875 31.78125 74.21875 
z
" id="DejaVuSans-48"/>
      </defs>
      <g transform="translate(98.686875 190.659875)scale(0.12 -0.12)">
       <use xlink:href="#DejaVuSans-48"/>
      </g>
     </g>
    </g>
    <g id="xtick_3">
     <g id="line2d_5">
      <g>
       <use style="stroke:#000000;stroke-width:0.8;" x="141.504375" xlink:href="#m362026f113" y="178.04175"/>
      </g>
     </g>
     <g id="line2d_6">
      <g>
       <use style="stroke:#000000;stroke-width:0.8;" x="141.504375" xlink:href="#m3973357596" y="61.04175"/>
      </g>
     </g>
     <g id="text_3">
      <!-- 2 -->
      <g transform="translate(137.686875 190.659875)scale(0.12 -0.12)">
       <use xlink:href="#DejaVuSans-50"/>
      </g>
     </g>
    </g>
    <g id="text_4">
     <!-- Y axis (um) -->
     <defs>
      <path d="M -0.203125 72.90625 
L 10.40625 72.90625 
L 30.609375 42.921875 
L 50.6875 72.90625 
L 61.28125 72.90625 
L 35.5 34.71875 
L 35.5 0 
L 25.59375 0 
L 25.59375 34.71875 
z
" id="DejaVuSans-89"/>
      <path id="DejaVuSans-32"/>
      <path d="M 34.28125 27.484375 
Q 23.390625 27.484375 19.1875 25 
Q 14.984375 22.515625 14.984375 16.5 
Q 14.984375 11.71875 18.140625 8.90625 
Q 21.296875 6.109375 26.703125 6.109375 
Q 34.1875 6.109375 38.703125 11.40625 
Q 43.21875 16.703125 43.21875 25.484375 
L 43.21875 27.484375 
z
M 52.203125 31.203125 
L 52.203125 0 
L 43.21875 0 
L 43.21875 8.296875 
Q 40.140625 3.328125 35.546875 0.953125 
Q 30.953125 -1.421875 24.3125 -1.421875 
Q 15.921875 -1.421875 10.953125 3.296875 
Q 6 8.015625 6 15.921875 
Q 6 25.140625 12.171875 29.828125 
Q 18.359375 34.515625 30.609375 34.515625 
L 43.21875 34.515625 
L 43.21875 35.40625 
Q 43.21875 41.609375 39.140625 45 
Q 35.0625 48.390625 27.6875 48.390625 
Q 23 48.390625 18.546875 47.265625 
Q 14.109375 46.140625 10.015625 43.890625 
L 10.015625 52.203125 
Q 14.9375 54.109375 19.578125 55.046875 
Q 24.21875 56 28.609375 56 
Q 40.484375 56 46.34375 49.84375 
Q 52.203125 43.703125 52.203125 31.203125 
z
" id="DejaVuSans-97"/>
      <path d="M 54.890625 54.6875 
L 35.109375 28.078125 
L 55.90625 0 
L 45.3125 0 
L 29.390625 21.484375 
L 13.484375 0 
L 2.875 0 
L 24.125 28.609375 
L 4.6875 54.6875 
L 15.28125 54.6875 
L 29.78125 35.203125 
L 44.28125 54.6875 
z
" id="DejaVuSans-120"/>
      <path d="M 9.421875 54.6875 
L 18.40625 54.6875 
L 18.40625 0 
L 9.421875 0 
z
M 9.421875 75.984375 
L 18.40625 75.984375 
L 18.40625 64.59375 
L 9.421875 64.59375 
z
" id="DejaVuSans-105"/>
      <path d="M 44.28125 53.078125 
L 44.28125 44.578125 
Q 40.484375 46.53125 36.375 47.5 
Q 32.28125 48.484375 27.875 48.484375 
Q 21.1875 48.484375 17.84375 46.4375 
Q 14.5 44.390625 14.5 40.28125 
Q 14.5 37.15625 16.890625 35.375 
Q 19.28125 33.59375 26.515625 31.984375 
L 29.59375 31.296875 
Q 39.15625 29.25 43.1875 25.515625 
Q 47.21875 21.78125 47.21875 15.09375 
Q 47.21875 7.46875 41.1875 3.015625 
Q 35.15625 -1.421875 24.609375 -1.421875 
Q 20.21875 -1.421875 15.453125 -0.5625 
Q 10.6875 0.296875 5.421875 2 
L 5.421875 11.28125 
Q 10.40625 8.6875 15.234375 7.390625 
Q 20.0625 6.109375 24.8125 6.109375 
Q 31.15625 6.109375 34.5625 8.28125 
Q 37.984375 10.453125 37.984375 14.40625 
Q 37.984375 18.0625 35.515625 20.015625 
Q 33.0625 21.96875 24.703125 23.78125 
L 21.578125 24.515625 
Q 13.234375 26.265625 9.515625 29.90625 
Q 5.8125 33.546875 5.8125 39.890625 
Q 5.8125 47.609375 11.28125 51.796875 
Q 16.75 56 26.8125 56 
Q 31.78125 56 36.171875 55.265625 
Q 40.578125 54.546875 44.28125 53.078125 
z
" id="DejaVuSans-115"/>
      <path d="M 31 75.875 
Q 24.46875 64.65625 21.28125 53.65625 
Q 18.109375 42.671875 18.109375 31.390625 
Q 18.109375 20.125 21.3125 9.0625 
Q 24.515625 -2 31 -13.1875 
L 23.1875 -13.1875 
Q 15.875 -1.703125 12.234375 9.375 
Q 8.59375 20.453125 8.59375 31.390625 
Q 8.59375 42.28125 12.203125 53.3125 
Q 15.828125 64.359375 23.1875 75.875 
z
" id="DejaVuSans-40"/>
      <path d="M 8.5 21.578125 
L 8.5 54.6875 
L 17.484375 54.6875 
L 17.484375 21.921875 
Q 17.484375 14.15625 20.5 10.265625 
Q 23.53125 6.390625 29.59375 6.390625 
Q 36.859375 6.390625 41.078125 11.03125 
Q 45.3125 15.671875 45.3125 23.6875 
L 45.3125 54.6875 
L 54.296875 54.6875 
L 54.296875 0 
L 45.3125 0 
L 45.3125 8.40625 
Q 42.046875 3.421875 37.71875 1 
Q 33.40625 -1.421875 27.6875 -1.421875 
Q 18.265625 -1.421875 13.375 4.4375 
Q 8.5 10.296875 8.5 21.578125 
z
M 31.109375 56 
z
" id="DejaVuSans-117"/>
      <path d="M 52 44.1875 
Q 55.375 50.25 60.0625 53.125 
Q 64.75 56 71.09375 56 
Q 79.640625 56 84.28125 50.015625 
Q 88.921875 44.046875 88.921875 33.015625 
L 88.921875 0 
L 79.890625 0 
L 79.890625 32.71875 
Q 79.890625 40.578125 77.09375 44.375 
Q 74.3125 48.1875 68.609375 48.1875 
Q 61.625 48.1875 57.5625 43.546875 
Q 53.515625 38.921875 53.515625 30.90625 
L 53.515625 0 
L 44.484375 0 
L 44.484375 32.71875 
Q 44.484375 40.625 41.703125 44.40625 
Q 38.921875 48.1875 33.109375 48.1875 
Q 26.21875 48.1875 22.15625 43.53125 
Q 18.109375 38.875 18.109375 30.90625 
L 18.109375 0 
L 9.078125 0 
L 9.078125 54.6875 
L 18.109375 54.6875 
L 18.109375 46.1875 
Q 21.1875 51.21875 25.484375 53.609375 
Q 29.78125 56 35.6875 56 
Q 41.65625 56 45.828125 52.96875 
Q 50 49.953125 52 44.1875 
z
" id="DejaVuSans-109"/>
      <path d="M 8.015625 75.875 
L 15.828125 75.875 
Q 23.140625 64.359375 26.78125 53.3125 
Q 30.421875 42.28125 30.421875 31.390625 
Q 30.421875 20.453125 26.78125 9.375 
Q 23.140625 -1.703125 15.828125 -13.1875 
L 8.015625 -13.1875 
Q 14.5 -2 17.703125 9.0625 
Q 20.90625 20.125 20.90625 31.390625 
Q 20.90625 42.671875 17.703125 53.65625 
Q 14.5 64.65625 8.015625 75.875 
z
" id="DejaVuSans-41"/>
     </defs>
     <g transform="translate(68.676563 206.273625)scale(0.12 -0.12)">
      <use xlink:href="#DejaVuSans-89"/>
      <use x="61.083984" xlink:href="#DejaVuSans-32"/>
      <use x="92.871094" xlink:href="#DejaVuSans-97"/>
      <use x="154.150391" xlink:href="#DejaVuSans-120"/>
      <use x="213.330078" xlink:href="#DejaVuSans-105"/>
      <use x="241.113281" xlink:href="#DejaVuSans-115"/>
      <use x="293.212891" xlink:href="#DejaVuSans-32"/>
      <use x="325" xlink:href="#DejaVuSans-40"/>
      <use x="364.013672" xlink:href="#DejaVuSans-117"/>
      <use x="427.392578" xlink:href="#DejaVuSans-109"/>
      <use x="524.804688" xlink:href="#DejaVuSans-41"/>
     </g>
    </g>
   </g>
   <g id="matplotlib.axis_2">
    <g id="ytick_1">
     <g id="line2d_7">
      <defs>
       <path d="M 0 0 
L 3.5 0 
" id="mef846c3256" style="stroke:#000000;stroke-width:0.8;"/>
      </defs>
      <g>
       <use style="stroke:#000000;stroke-width:0.8;" x="44.004375" xlink:href="#mef846c3256" y="158.54175"/>
      </g>
     </g>
     <g id="line2d_8">
      <defs>
       <path d="M 0 0 
L -3.5 0 
" id="m170469a041" style="stroke:#000000;stroke-width:0.8;"/>
      </defs>
      <g>
       <use style="stroke:#000000;stroke-width:0.8;" x="161.004375" xlink:href="#m170469a041" y="158.54175"/>
      </g>
     </g>
     <g id="text_5">
      <!-- −2 -->
      <g transform="translate(22.81375 163.100812)scale(0.12 -0.12)">
       <use xlink:href="#DejaVuSans-8722"/>
       <use x="83.789062" xlink:href="#DejaVuSans-50"/>
      </g>
     </g>
    </g>
    <g id="ytick_2">
     <g id="line2d_9">
      <g>
       <use style="stroke:#000000;stroke-width:0.8;" x="44.004375" xlink:href="#mef846c3256" y="119.54175"/>
      </g>
     </g>
     <g id="line2d_10">
      <g>
       <use style="stroke:#000000;stroke-width:0.8;" x="161.004375" xlink:href="#m170469a041" y="119.54175"/>
      </g>
     </g>
     <g id="text_6">
      <!-- 0 -->
      <g transform="translate(32.869375 124.100812)scale(0.12 -0.12)">
       <use xlink:href="#DejaVuSans-48"/>
      </g>
     </g>
    </g>
    <g id="ytick_3">
     <g id="line2d_11">
      <g>
       <use style="stroke:#000000;stroke-width:0.8;" x="44.004375" xlink:href="#mef846c3256" y="80.54175"/>
      </g>
     </g>
     <g id="line2d_12">
      <g>
       <use style="stroke:#000000;stroke-width:0.8;" x="161.004375" xlink:href="#m170469a041" y="80.54175"/>
      </g>
     </g>
     <g id="text_7">
      <!-- 2 -->
      <g transform="translate(32.869375 85.100812)scale(0.12 -0.12)">
       <use xlink:href="#DejaVuSans-50"/>
      </g>
     </g>
    </g>
    <g id="text_8">
     <!-- Z axis (um) -->
     <defs>
      <path d="M 5.609375 72.90625 
L 62.890625 72.90625 
L 62.890625 65.375 
L 16.796875 8.296875 
L 64.015625 8.296875 
L 64.015625 0 
L 4.5 0 
L 4.5 7.515625 
L 50.59375 64.59375 
L 5.609375 64.59375 
z
" id="DejaVuSans-90"/>
     </defs>
     <g transform="translate(16.318125 153.814875)rotate(-90)scale(0.12 -0.12)">
      <use xlink:href="#DejaVuSans-90"/>
      <use x="68.505859" xlink:href="#DejaVuSans-32"/>
      <use x="100.292969" xlink:href="#DejaVuSans-97"/>
      <use x="161.572266" xlink:href="#DejaVuSans-120"/>
      <use x="220.751953" xlink:href="#DejaVuSans-105"/>
      <use x="248.535156" xlink:href="#DejaVuSans-115"/>
      <use x="300.634766" xlink:href="#DejaVuSans-32"/>
      <use x="332.421875" xlink:href="#DejaVuSans-40"/>
      <use x="371.435547" xlink:href="#DejaVuSans-117"/>
      <use x="434.814453" xlink:href="#DejaVuSans-109"/>
      <use x="532.226562" xlink:href="#DejaVuSans-41"/>
     </g>
    </g>
   </g>
   <g id="LineCollection_1">
    <path clip-path="url(#pef88510ec8)" d="M 44.004375 178.04175 
" style="fill:none;stroke:#440154;stroke-width:0.8;"/>
    <path clip-path="url(#pef88510ec8)" d="M 44.004375 61.04175 
" style="fill:none;stroke:#440154;stroke-width:0.8;"/>
    <path clip-path="url(#pef88510ec8)" d="M 161.004375 178.04175 
" style="fill:none;stroke:#440154;stroke-width:0.8;"/>
    <path clip-path="url(#pef88510ec8)" d="M 161.004375 61.04175 
" style="fill:none;stroke:#440154;stroke-width:0.8;"/>
   </g>
   <g id="LineCollection_2">
    <path clip-path="url(#pef88510ec8)" d="M 111.778516 139.625405 
L 109.638521 140.044106 
L 106.784863 140.366688 
L 103.21779 140.509116 
L 99.650716 140.452173 
L 96.797058 140.24259 
L 93.943399 139.799941 
L 91.803155 139.250377 
L 90.376326 138.719204 
L 88.949497 137.957734 
L 87.522668 136.855541 
L 86.809253 136.129414 
L 86.095838 135.230751 
L 81.101936 127.658501 
L 79.611126 124.859932 
L 77.962944 120.992163 
L 76.559528 117.124395 
L 75.448359 113.256626 
L 74.681204 109.382794 
L 74.37012 106.488031 
L 74.337742 103.587205 
L 74.592706 100.686378 
L 75.105781 97.785552 
L 75.871393 94.884725 
L 77.226291 91.016957 
L 78.961692 87.105569 
L 79.960541 85.215304 
L 81.214262 83.281419 
L 82.746802 81.347535 
L 85.382424 78.54873 
L 86.809253 77.239667 
L 88.236082 76.222921 
L 91.803155 74.005787 
L 92.51657 73.399353 
L 93.289221 72.645056 
L 95.370229 72.00582 
L 96.856812 71.678114 
L 100.364131 71.459242 
L 103.931204 71.441912 
L 107.498277 71.625746 
L 108.925107 71.853649 
L 111.065351 72.448716 
L 111.778765 72.784954 
L 113.205595 74.086006 
L 113.919009 74.649545 
L 116.059253 75.845139 
L 117.486082 76.755841 
L 118.912912 77.917677 
L 121.76657 80.849071 
L 123.193399 82.512923 
L 124.620229 84.581115 
L 125.564792 86.182246 
L 127.362082 90.050014 
L 128.808974 93.917783 
L 129.885007 97.785552 
L 130.398236 100.686378 
L 130.6544 103.587205 
L 130.621943 106.488031 
L 130.325172 109.273613 
L 130.325172 109.273613 
" style="fill:none;stroke:#46327e;stroke-width:0.8;"/>
   </g>
   <g id="LineCollection_3">
    <path clip-path="url(#pef88510ec8)" d="M 79.036864 103.399796 
L 79.247717 100.686378 
L 79.754896 97.785552 
L 80.388521 95.634041 
L 81.101936 93.739656 
L 81.97643 91.983899 
L 83.265743 90.050014 
L 84.88638 88.11613 
L 86.809253 86.253075 
L 88.236082 85.102654 
L 90.376326 83.671087 
L 92.51657 82.541078 
L 94.656814 81.660293 
L 96.797058 81.007248 
L 98.937302 80.570892 
L 101.077546 80.342675 
L 103.21779 80.309724 
L 105.358034 80.479596 
L 107.498277 80.847077 
L 109.638521 81.439158 
L 111.930242 82.314477 
L 113.919009 83.293813 
L 116.059253 84.614934 
L 118.199497 86.28537 
L 120.086995 88.11613 
L 121.709484 90.050014 
L 122.479985 91.125288 
L 123.513388 92.950841 
L 124.335929 94.884725 
L 125.229296 97.785552 
L 125.605175 99.719436 
L 125.914942 102.620262 
L 125.958352 105.521089 
L 125.744339 108.421915 
L 125.261704 111.322742 
L 124.440073 114.223568 
L 123.723082 116.157452 
L 122.479985 118.693971 
L 121.007602 120.992163 
L 118.816927 123.89299 
L 116.772668 126.20708 
L 114.632424 128.294774 
L 112.49218 130.066552 
L 110.151431 131.628527 
L 108.925107 132.306483 
L 106.784863 133.201692 
L 104.644619 133.739171 
L 103.21779 133.904466 
L 101.79096 133.906094 
L 100.364131 133.744208 
L 98.223887 133.211679 
L 97.774755 133.049654 
L 97.774755 133.049654 
" style="fill:none;stroke:#365c8d;stroke-width:0.8;"/>
   </g>
   <g id="LineCollection_4">
    <path clip-path="url(#pef88510ec8)" d="M 121.265122 99.106065 
L 121.648554 100.686378 
L 121.925084 102.620262 
L 122.007816 104.554147 
L 121.903176 106.488031 
L 121.617289 108.421915 
L 121.053155 110.675194 
L 120.339741 112.711247 
L 119.626326 114.341007 
L 118.67301 116.157452 
L 117.457997 118.091337 
L 116.013333 120.025221 
L 114.281805 121.959105 
L 112.49218 123.612193 
L 110.837552 124.859932 
L 109.261447 125.826874 
L 108.211692 126.363259 
L 106.071448 127.160419 
L 104.644619 127.48563 
L 103.21779 127.646836 
L 101.79096 127.648432 
L 100.364131 127.490525 
L 98.937302 127.168967 
L 97.510473 126.680004 
L 95.714921 125.826874 
L 94.13667 124.859932 
L 92.51657 123.642137 
L 90.688391 121.959105 
L 88.949497 120.018795 
L 87.508647 118.091337 
L 86.095838 115.801593 
L 85.28128 114.223568 
L 84.456819 112.289684 
L 83.81452 110.3558 
L 83.24218 107.78109 
L 83.065508 106.488031 
L 82.96212 104.554147 
L 83.045859 102.620262 
L 83.323741 100.686378 
L 83.955595 98.301695 
L 84.669009 96.469275 
L 85.466878 94.884725 
L 86.809253 92.835939 
L 88.360891 91.016957 
L 89.662912 89.794041 
L 91.164077 88.636102 
L 91.164077 88.636102 
" style="fill:none;stroke:#277f8e;stroke-width:0.8;"/>
   </g>
   <g id="LineCollection_5">
    <path clip-path="url(#pef88510ec8)" d="M 87.362683 107.454973 
L 87.148533 105.521089 
L 87.148218 103.587205 
L 87.372741 101.65332 
L 87.841361 99.719436 
L 88.58668 97.785552 
L 89.663017 95.851667 
L 91.174916 93.917783 
L 92.51657 92.636716 
L 93.943399 91.567873 
L 95.370229 90.731563 
L 96.891995 90.050014 
L 98.937302 89.420549 
L 101.077546 89.075113 
L 103.21779 89.028243 
L 105.358034 89.277114 
L 107.498277 89.836619 
L 108.925107 90.401782 
L 110.351936 91.141528 
L 111.778765 92.092064 
L 113.205595 93.313619 
L 114.632424 94.901829 
L 115.894364 96.81861 
L 116.795704 98.752494 
L 117.39614 100.686378 
L 117.738695 102.620262 
L 117.848013 104.554147 
L 117.739079 106.488031 
L 117.419431 108.421915 
L 116.772668 110.692317 
L 116.059253 112.482471 
L 115.175177 114.223568 
L 113.919009 116.182328 
L 112.359945 118.091337 
L 111.065351 119.363996 
L 109.638521 120.503553 
L 108.211692 121.40359 
L 106.784863 122.08648 
L 105.358034 122.566679 
L 103.931204 122.851758 
L 102.504375 122.947707 
L 101.077546 122.855895 
L 99.650716 122.575068 
L 97.901358 121.959105 
L 96.797058 121.421994 
L 95.370229 120.528081 
L 93.574 119.058279 
L 92.51657 117.988497 
L 91.03273 116.157452 
L 89.662912 113.985039 
L 88.819056 112.289684 
L 88.076121 110.3558 
L 87.522668 108.287687 
L 87.362683 107.454973 
L 87.362683 107.454973 
" style="fill:none;stroke:#1fa187;stroke-width:0.8;"/>
   </g>
   <g id="LineCollection_6">
    <path clip-path="url(#pef88510ec8)" d="M 91.629942 108.421915 
L 91.414603 107.454973 
L 91.26461 106.488031 
L 91.180435 105.521089 
L 91.163347 104.554147 
L 91.215291 103.587205 
L 91.339018 102.620262 
L 91.53813 101.65332 
L 91.803155 100.733582 
L 91.817346 100.686378 
L 92.191078 99.719436 
L 92.51657 99.042673 
L 92.66437 98.752494 
L 93.229985 97.826089 
L 93.256518 97.785552 
L 93.943399 96.884166 
L 93.997667 96.81861 
L 94.656814 96.11855 
L 94.93379 95.851667 
L 95.370229 95.474505 
L 96.083643 94.923279 
L 96.139438 94.884725 
L 96.797058 94.468901 
L 97.510473 94.077213 
L 97.847935 93.917783 
L 98.223887 93.752243 
L 98.937302 93.487995 
L 99.650716 93.274289 
L 100.364131 93.109767 
L 101.077546 92.9933 
L 101.514597 92.950841 
L 101.79096 92.925182 
L 102.504375 92.903789 
L 103.21779 92.927073 
L 103.466659 92.950841 
L 103.931204 92.99727 
L 104.644619 93.115791 
L 105.358034 93.282404 
L 106.071448 93.498269 
L 106.784863 93.764843 
L 107.129814 93.917783 
L 107.498277 94.093072 
L 108.211692 94.487521 
L 108.836418 94.884725 
L 108.925107 94.946362 
L 109.638521 95.501061 
L 110.042267 95.851667 
L 110.351936 96.151575 
L 110.977077 96.81861 
L 111.065351 96.925765 
L 111.717591 97.785552 
L 111.778765 97.879475 
L 112.30938 98.752494 
L 112.49218 99.113174 
L 112.782418 99.719436 
L 113.155089 100.686378 
L 113.205595 100.855324 
L 113.43434 101.65332 
L 113.632726 102.620262 
L 113.755912 103.587205 
L 113.8074 104.554147 
L 113.790047 105.521089 
L 113.705784 106.488031 
L 113.555768 107.454973 
L 113.340598 108.421915 
L 113.205595 108.889203 
L 113.056922 109.388857 
L 112.702769 110.3558 
L 112.49218 110.840168 
L 112.273406 111.322742 
L 111.778765 112.263553 
L 111.764284 112.289684 
L 111.157814 113.256626 
L 111.065351 113.388805 
L 110.440686 114.223568 
L 110.351936 114.331487 
L 109.638521 115.132998 
L 109.582518 115.19051 
L 108.925107 115.813734 
L 108.520465 116.157452 
L 108.211692 116.402591 
L 107.498277 116.903666 
L 107.135735 117.124395 
L 106.784863 117.32671 
L 106.071448 117.675147 
L 105.358034 117.958864 
L 104.929579 118.091337 
L 104.644619 118.176058 
L 103.931204 118.328112 
L 103.21779 118.419668 
L 102.504375 118.451101 
L 101.79096 118.422467 
L 101.077546 118.333726 
L 100.364131 118.184505 
L 100.046483 118.091337 
L 99.650716 117.97064 
L 98.937302 117.690108 
L 98.223887 117.344891 
L 97.838552 117.124395 
L 97.510473 116.926193 
L 96.797058 116.428863 
L 96.453166 116.157452 
L 96.083643 115.845438 
L 95.389086 115.19051 
L 95.370229 115.17125 
L 94.656814 114.374582 
L 94.532046 114.223568 
L 93.943399 113.440417 
L 93.814316 113.256626 
L 93.229985 112.328394 
L 93.206938 112.289684 
L 92.697104 111.322742 
L 92.51657 110.925889 
L 92.267952 110.3558 
L 91.913141 109.388857 
L 91.803155 109.020195 
L 91.629942 108.421915 
" style="fill:none;stroke:#4ac16d;stroke-width:0.8;"/>
   </g>
   <g id="LineCollection_7">
    <path clip-path="url(#pef88510ec8)" d="M 96.065445 107.454973 
L 95.86469 106.488031 
L 95.7658 105.521089 
L 95.771044 104.554147 
L 95.884009 103.587205 
L 96.083643 102.730028 
L 96.111782 102.620262 
L 96.486399 101.65332 
L 96.797058 101.063189 
L 97.020775 100.686378 
L 97.510473 100.034808 
L 97.784519 99.719436 
L 98.223887 99.300753 
L 98.910165 98.752494 
L 98.937302 98.733909 
L 99.650716 98.333633 
L 100.364131 98.025999 
L 101.077546 97.808464 
L 101.203786 97.785552 
L 101.79096 97.69084 
L 102.504375 97.653661 
L 103.21779 97.69426 
L 103.76766 97.785552 
L 103.931204 97.816107 
L 104.644619 98.037612 
L 105.358034 98.349376 
L 106.068938 98.752494 
L 106.071448 98.754149 
L 106.784863 99.329234 
L 107.191273 99.719436 
L 107.498277 100.075442 
L 107.954331 100.686378 
L 108.211692 101.123127 
L 108.488915 101.65332 
L 108.861411 102.620262 
L 108.925107 102.870714 
L 109.09079 103.587205 
L 109.202984 104.554147 
L 109.207958 105.521089 
L 109.109241 106.488031 
L 108.925107 107.377902 
L 108.907795 107.454973 
L 108.58196 108.421915 
L 108.211692 109.246227 
L 108.140533 109.388857 
L 107.539262 110.3558 
L 107.498277 110.411079 
L 106.784863 111.255067 
L 106.717852 111.322742 
L 106.071448 111.887637 
L 105.510243 112.289684 
L 105.358034 112.386431 
L 104.644619 112.741413 
L 103.931204 112.995129 
L 103.21779 113.148178 
L 102.504375 113.200757 
L 101.79096 113.153048 
L 101.077546 113.004825 
L 100.364131 112.755956 
L 99.650716 112.406004 
L 99.465749 112.289684 
L 98.937302 111.915143 
L 98.253382 111.322742 
L 98.223887 111.293216 
L 97.510473 110.45581 
L 97.435853 110.3558 
L 96.831167 109.388857 
L 96.797058 109.320903 
L 96.391186 108.421915 
L 96.083643 107.513532 
L 96.065445 107.454973 
" style="fill:none;stroke:#a0da39;stroke-width:0.8;"/>
   </g>
   <g id="LineCollection_8"/>
   <g id="patch_4">
    <path d="M 44.004375 178.04175 
L 44.004375 61.04175 
" style="fill:none;stroke:#000000;stroke-linecap:square;stroke-linejoin:miter;stroke-width:0.8;"/>
   </g>
   <g id="patch_5">
    <path d="M 161.004375 178.04175 
L 161.004375 61.04175 
" style="fill:none;stroke:#000000;stroke-linecap:square;stroke-linejoin:miter;stroke-width:0.8;"/>
   </g>
   <g id="patch_6">
    <path d="M 44.004375 178.04175 
L 161.004375 178.04175 
" style="fill:none;stroke:#000000;stroke-linecap:square;stroke-linejoin:miter;stroke-width:0.8;"/>
   </g>
   <g id="patch_7">
    <path d="M 44.004375 61.04175 
L 161.004375 61.04175 
" style="fill:none;stroke:#000000;stroke-linecap:square;stroke-linejoin:miter;stroke-width:0.8;"/>
   </g>
   <g id="text_9">
    <g clip-path="url(#pef88510ec8)">
     <!-- 0.150 -->
     <defs>
      <path d="M 10.6875 12.40625 
L 21 12.40625 
L 21 0 
L 10.6875 0 
z
" id="DejaVuSans-46"/>
      <path d="M 12.40625 8.296875 
L 28.515625 8.296875 
L 28.515625 63.921875 
L 10.984375 60.40625 
L 10.984375 69.390625 
L 28.421875 72.90625 
L 38.28125 72.90625 
L 38.28125 8.296875 
L 54.390625 8.296875 
L 54.390625 0 
L 12.40625 0 
z
" id="DejaVuSans-49"/>
      <path d="M 10.796875 72.90625 
L 49.515625 72.90625 
L 49.515625 64.59375 
L 19.828125 64.59375 
L 19.828125 46.734375 
Q 21.96875 47.46875 24.109375 47.828125 
Q 26.265625 48.1875 28.421875 48.1875 
Q 40.625 48.1875 47.75 41.5 
Q 54.890625 34.8125 54.890625 23.390625 
Q 54.890625 11.625 47.5625 5.09375 
Q 40.234375 -1.421875 26.90625 -1.421875 
Q 22.3125 -1.421875 17.546875 -0.640625 
Q 12.796875 0.140625 7.71875 1.703125 
L 7.71875 11.625 
Q 12.109375 9.234375 16.796875 8.0625 
Q 21.484375 6.890625 26.703125 6.890625 
Q 35.15625 6.890625 40.078125 11.328125 
Q 45.015625 15.765625 45.015625 23.390625 
Q 45.015625 31 40.078125 35.4375 
Q 35.15625 39.890625 26.703125 39.890625 
Q 22.75 39.890625 18.8125 39.015625 
Q 14.890625 38.140625 10.796875 36.28125 
z
" id="DejaVuSans-53"/>
     </defs>
     <g style="fill:#46327e;" transform="translate(119.702892 140.61434)rotate(-60.542176)scale(0.1 -0.1)">
      <use xlink:href="#DejaVuSans-48"/>
      <use x="63.623047" xlink:href="#DejaVuSans-46"/>
      <use x="95.410156" xlink:href="#DejaVuSans-49"/>
      <use x="159.033203" xlink:href="#DejaVuSans-53"/>
      <use x="222.65625" xlink:href="#DejaVuSans-48"/>
     </g>
    </g>
   </g>
   <g id="text_10">
    <g clip-path="url(#pef88510ec8)">
     <!-- 0.300 -->
     <defs>
      <path d="M 40.578125 39.3125 
Q 47.65625 37.796875 51.625 33 
Q 55.609375 28.21875 55.609375 21.1875 
Q 55.609375 10.40625 48.1875 4.484375 
Q 40.765625 -1.421875 27.09375 -1.421875 
Q 22.515625 -1.421875 17.65625 -0.515625 
Q 12.796875 0.390625 7.625 2.203125 
L 7.625 11.71875 
Q 11.71875 9.328125 16.59375 8.109375 
Q 21.484375 6.890625 26.8125 6.890625 
Q 36.078125 6.890625 40.9375 10.546875 
Q 45.796875 14.203125 45.796875 21.1875 
Q 45.796875 27.640625 41.28125 31.265625 
Q 36.765625 34.90625 28.71875 34.90625 
L 20.21875 34.90625 
L 20.21875 43.015625 
L 29.109375 43.015625 
Q 36.375 43.015625 40.234375 45.921875 
Q 44.09375 48.828125 44.09375 54.296875 
Q 44.09375 59.90625 40.109375 62.90625 
Q 36.140625 65.921875 28.71875 65.921875 
Q 24.65625 65.921875 20.015625 65.03125 
Q 15.375 64.15625 9.8125 62.3125 
L 9.8125 71.09375 
Q 15.4375 72.65625 20.34375 73.4375 
Q 25.25 74.21875 29.59375 74.21875 
Q 40.828125 74.21875 47.359375 69.109375 
Q 53.90625 64.015625 53.90625 55.328125 
Q 53.90625 49.265625 50.4375 45.09375 
Q 46.96875 40.921875 40.578125 39.3125 
z
" id="DejaVuSans-51"/>
     </defs>
     <g style="fill:#365c8d;" transform="translate(73.983612 110.357831)rotate(-302.250596)scale(0.1 -0.1)">
      <use xlink:href="#DejaVuSans-48"/>
      <use x="63.623047" xlink:href="#DejaVuSans-46"/>
      <use x="95.410156" xlink:href="#DejaVuSans-51"/>
      <use x="159.033203" xlink:href="#DejaVuSans-48"/>
      <use x="222.65625" xlink:href="#DejaVuSans-48"/>
     </g>
    </g>
   </g>
   <g id="text_11">
    <g clip-path="url(#pef88510ec8)">
     <!-- 0.450 -->
     <defs>
      <path d="M 37.796875 64.3125 
L 12.890625 25.390625 
L 37.796875 25.390625 
z
M 35.203125 72.90625 
L 47.609375 72.90625 
L 47.609375 25.390625 
L 58.015625 25.390625 
L 58.015625 17.1875 
L 47.609375 17.1875 
L 47.609375 0 
L 37.796875 0 
L 37.796875 17.1875 
L 4.890625 17.1875 
L 4.890625 26.703125 
z
" id="DejaVuSans-52"/>
     </defs>
     <g style="fill:#277f8e;" transform="translate(94.495967 84.095704)rotate(-340.904543)scale(0.1 -0.1)">
      <use xlink:href="#DejaVuSans-48"/>
      <use x="63.623047" xlink:href="#DejaVuSans-46"/>
      <use x="95.410156" xlink:href="#DejaVuSans-52"/>
      <use x="159.033203" xlink:href="#DejaVuSans-53"/>
      <use x="222.65625" xlink:href="#DejaVuSans-48"/>
     </g>
    </g>
   </g>
  </g>
  <g id="axes_2">
   <g id="patch_8">
    <path d="M 44.004375 60.14175 
L 161.004375 60.14175 
L 161.004375 24.14175 
L 44.004375 24.14175 
z
" style="fill:none;"/>
   </g>
   <g id="matplotlib.axis_3">
    <g id="xtick_4">
     <g id="line2d_13">
      <g>
       <use style="stroke:#000000;stroke-width:0.8;" x="63.504375" xlink:href="#m362026f113" y="60.14175"/>
      </g>
     </g>
    </g>
    <g id="xtick_5">
     <g id="line2d_14">
      <g>
       <use style="stroke:#000000;stroke-width:0.8;" x="102.504375" xlink:href="#m362026f113" y="60.14175"/>
      </g>
     </g>
    </g>
    <g id="xtick_6">
     <g id="line2d_15">
      <g>
       <use style="stroke:#000000;stroke-width:0.8;" x="141.504375" xlink:href="#m362026f113" y="60.14175"/>
      </g>
     </g>
    </g>
   </g>
   <g id="matplotlib.axis_4">
    <g id="ytick_4">
     <g id="line2d_16">
      <g>
       <use style="stroke:#000000;stroke-width:0.8;" x="44.004375" xlink:href="#mef846c3256" y="58.520209"/>
      </g>
     </g>
     <g id="text_12">
      <!-- 0 -->
      <g transform="translate(32.869375 63.079271)scale(0.12 -0.12)">
       <use xlink:href="#DejaVuSans-48"/>
      </g>
     </g>
    </g>
    <g id="ytick_5">
     <g id="line2d_17">
      <g>
       <use style="stroke:#000000;stroke-width:0.8;" x="44.004375" xlink:href="#mef846c3256" y="25.778114"/>
      </g>
     </g>
     <g id="text_13">
      <!-- 1 -->
      <g transform="translate(32.869375 30.337176)scale(0.12 -0.12)">
       <use xlink:href="#DejaVuSans-49"/>
      </g>
     </g>
    </g>
   </g>
   <g id="LineCollection_9">
    <path clip-path="url(#pe61abf8e3e)" d="M 44.004375 54.089048 
L 161.004375 54.089048 
" style="fill:none;stroke:#000000;stroke-dasharray:0.8,1.32;stroke-dashoffset:0;stroke-width:0.8;"/>
   </g>
   <g id="line2d_18">
    <path clip-path="url(#pe61abf8e3e)" d="M 44.004375 58.505386 
L 47.571448 58.37174 
L 51.138521 58.239312 
L 58.272668 58.252662 
L 60.412912 57.946793 
L 63.979985 57.142119 
L 71.114131 55.378383 
L 72.54096 54.741801 
L 73.96779 53.876523 
L 75.394619 52.749652 
L 76.821448 51.353247 
L 78.248277 49.700835 
L 82.528765 44.305419 
L 86.095838 40.153526 
L 93.229985 31.607042 
L 95.370229 29.411203 
L 96.797058 28.16814 
L 98.223887 27.150839 
L 99.650716 26.395928 
L 101.077546 25.932299 
L 102.504375 25.778114 
L 103.931204 25.939656 
L 105.358034 26.410488 
L 106.784863 27.172219 
L 108.211692 28.195882 
L 109.638521 29.444615 
L 111.778765 31.647504 
L 114.632424 34.974215 
L 122.479985 44.34864 
L 125.333643 47.853676 
L 127.473887 50.581347 
L 128.900716 52.102495 
L 130.327546 53.359918 
L 131.754375 54.350513 
L 133.181204 55.094711 
L 134.608034 55.636712 
L 136.748277 56.205995 
L 146.022668 58.176014 
L 148.162912 58.340124 
L 151.01657 58.305878 
L 155.297058 58.266068 
L 161.004375 58.504956 
L 161.004375 58.504956 
" style="fill:none;stroke:#1f77b4;stroke-linecap:square;"/>
   </g>
   <g id="patch_9">
    <path d="M 44.004375 60.14175 
L 44.004375 24.14175 
" style="fill:none;stroke:#000000;stroke-linecap:square;stroke-linejoin:miter;stroke-width:0.8;"/>
   </g>
   <g id="patch_10">
    <path d="M 161.004375 60.14175 
L 161.004375 24.14175 
" style="fill:none;stroke:#000000;stroke-linecap:square;stroke-linejoin:miter;stroke-width:0.8;"/>
   </g>
   <g id="patch_11">
    <path d="M 44.004375 60.14175 
L 161.004375 60.14175 
" style="fill:none;stroke:#000000;stroke-linecap:square;stroke-linejoin:miter;stroke-width:0.8;"/>
   </g>
   <g id="patch_12">
    <path d="M 44.004375 24.14175 
L 161.004375 24.14175 
" style="fill:none;stroke:#000000;stroke-linecap:square;stroke-linejoin:miter;stroke-width:0.8;"/>
   </g>
   <g id="text_14">
    <!-- end 1.5 um -->
    <defs>
     <path d="M 56.203125 29.59375 
L 56.203125 25.203125 
L 14.890625 25.203125 
Q 15.484375 15.921875 20.484375 11.0625 
Q 25.484375 6.203125 34.421875 6.203125 
Q 39.59375 6.203125 44.453125 7.46875 
Q 49.3125 8.734375 54.109375 11.28125 
L 54.109375 2.78125 
Q 49.265625 0.734375 44.1875 -0.34375 
Q 39.109375 -1.421875 33.890625 -1.421875 
Q 20.796875 -1.421875 13.15625 6.1875 
Q 5.515625 13.8125 5.515625 26.8125 
Q 5.515625 40.234375 12.765625 48.109375 
Q 20.015625 56 32.328125 56 
Q 43.359375 56 49.78125 48.890625 
Q 56.203125 41.796875 56.203125 29.59375 
z
M 47.21875 32.234375 
Q 47.125 39.59375 43.09375 43.984375 
Q 39.0625 48.390625 32.421875 48.390625 
Q 24.90625 48.390625 20.390625 44.140625 
Q 15.875 39.890625 15.1875 32.171875 
z
" id="DejaVuSans-101"/>
     <path d="M 54.890625 33.015625 
L 54.890625 0 
L 45.90625 0 
L 45.90625 32.71875 
Q 45.90625 40.484375 42.875 44.328125 
Q 39.84375 48.1875 33.796875 48.1875 
Q 26.515625 48.1875 22.3125 43.546875 
Q 18.109375 38.921875 18.109375 30.90625 
L 18.109375 0 
L 9.078125 0 
L 9.078125 54.6875 
L 18.109375 54.6875 
L 18.109375 46.1875 
Q 21.34375 51.125 25.703125 53.5625 
Q 30.078125 56 35.796875 56 
Q 45.21875 56 50.046875 50.171875 
Q 54.890625 44.34375 54.890625 33.015625 
z
" id="DejaVuSans-110"/>
     <path d="M 45.40625 46.390625 
L 45.40625 75.984375 
L 54.390625 75.984375 
L 54.390625 0 
L 45.40625 0 
L 45.40625 8.203125 
Q 42.578125 3.328125 38.25 0.953125 
Q 33.9375 -1.421875 27.875 -1.421875 
Q 17.96875 -1.421875 11.734375 6.484375 
Q 5.515625 14.40625 5.515625 27.296875 
Q 5.515625 40.1875 11.734375 48.09375 
Q 17.96875 56 27.875 56 
Q 33.9375 56 38.25 53.625 
Q 42.578125 51.265625 45.40625 46.390625 
z
M 14.796875 27.296875 
Q 14.796875 17.390625 18.875 11.75 
Q 22.953125 6.109375 30.078125 6.109375 
Q 37.203125 6.109375 41.296875 11.75 
Q 45.40625 17.390625 45.40625 27.296875 
Q 45.40625 37.203125 41.296875 42.84375 
Q 37.203125 48.484375 30.078125 48.484375 
Q 22.953125 48.484375 18.875 42.84375 
Q 14.796875 37.203125 14.796875 27.296875 
z
" id="DejaVuSans-100"/>
    </defs>
    <g transform="translate(61.33725 18.14175)scale(0.144 -0.144)">
     <use xlink:href="#DejaVuSans-101"/>
     <use x="61.523438" xlink:href="#DejaVuSans-110"/>
     <use x="124.902344" xlink:href="#DejaVuSans-100"/>
     <use x="188.378906" xlink:href="#DejaVuSans-32"/>
     <use x="220.166016" xlink:href="#DejaVuSans-49"/>
     <use x="283.789062" xlink:href="#DejaVuSans-46"/>
     <use x="315.576172" xlink:href="#DejaVuSans-53"/>
     <use x="379.199219" xlink:href="#DejaVuSans-32"/>
     <use x="410.986328" xlink:href="#DejaVuSans-117"/>
     <use x="474.365234" xlink:href="#DejaVuSans-109"/>
    </g>
   </g>
  </g>
  <g id="axes_3">
   <g id="patch_13">
    <path d="M 161.904375 178.04175 
L 197.904375 178.04175 
L 197.904375 61.04175 
L 161.904375 61.04175 
z
" style="fill:none;"/>
   </g>
   <g id="matplotlib.axis_5">
    <g id="xtick_7">
     <g id="line2d_19">
      <g>
       <use style="stroke:#000000;stroke-width:0.8;" x="163.540739" xlink:href="#m362026f113" y="178.04175"/>
      </g>
     </g>
     <g id="text_15">
      <!-- 0 -->
      <g transform="translate(159.723239 190.659875)scale(0.12 -0.12)">
       <use xlink:href="#DejaVuSans-48"/>
      </g>
     </g>
    </g>
    <g id="xtick_8">
     <g id="line2d_20">
      <g>
       <use style="stroke:#000000;stroke-width:0.8;" x="196.268011" xlink:href="#m362026f113" y="178.04175"/>
      </g>
     </g>
     <g id="text_16">
      <!-- 1 -->
      <g transform="translate(192.450511 190.659875)scale(0.12 -0.12)">
       <use xlink:href="#DejaVuSans-49"/>
      </g>
     </g>
    </g>
   </g>
   <g id="matplotlib.axis_6">
    <g id="ytick_6">
     <g id="line2d_21">
      <g>
       <use style="stroke:#000000;stroke-width:0.8;" x="161.904375" xlink:href="#mef846c3256" y="158.54175"/>
      </g>
     </g>
    </g>
    <g id="ytick_7">
     <g id="line2d_22">
      <g>
       <use style="stroke:#000000;stroke-width:0.8;" x="161.904375" xlink:href="#mef846c3256" y="119.54175"/>
      </g>
     </g>
    </g>
    <g id="ytick_8">
     <g id="line2d_23">
      <g>
       <use style="stroke:#000000;stroke-width:0.8;" x="161.904375" xlink:href="#mef846c3256" y="80.54175"/>
      </g>
     </g>
    </g>
   </g>
   <g id="LineCollection_10">
    <path clip-path="url(#p168f6c5c15)" d="M 167.969893 178.04175 
L 167.969893 61.04175 
" style="fill:none;stroke:#000000;stroke-dasharray:0.8,1.32;stroke-dashoffset:0;stroke-width:0.8;"/>
   </g>
   <g id="line2d_24">
    <path clip-path="url(#p168f6c5c15)" d="M 163.540741 178.04175 
L 163.564335 177.074808 
L 163.633114 176.107866 
L 163.741235 175.140924 
L 163.879521 174.173981 
L 164.036241 173.207039 
L 164.198112 172.240097 
L 164.351439 171.273155 
L 164.483279 170.306213 
L 164.582558 169.339271 
L 164.64101 168.372329 
L 164.653902 167.405386 
L 164.620398 166.438444 
L 164.543708 165.471502 
L 164.430733 164.50456 
L 164.291553 163.537618 
L 164.138524 162.570676 
L 163.985244 161.603733 
L 163.845396 160.636791 
L 163.731581 159.669849 
L 163.654249 158.702907 
L 163.62081 157.735965 
L 163.635009 156.769023 
L 163.696613 155.802081 
L 163.801435 154.835138 
L 163.941709 153.868196 
L 164.106762 152.901254 
L 164.344989 151.934312 
L 164.623837 150.96737 
L 164.843444 150.000428 
L 164.935822 149.033486 
L 164.799561 148.066543 
L 164.555443 147.099601 
L 164.395904 146.132659 
L 164.500843 145.165717 
L 164.960662 144.198775 
L 165.742255 143.231833 
L 166.712816 142.26489 
L 167.709397 141.297948 
L 168.621888 140.331006 
L 169.451952 139.364064 
L 170.323242 138.397122 
L 171.111238 137.43018 
L 171.829813 136.463238 
L 172.455774 135.496295 
L 172.999162 134.529353 
L 173.575333 133.562411 
L 174.206426 132.595469 
L 174.893282 131.628527 
L 175.635672 130.661585 
L 176.432293 129.694643 
L 177.280618 128.7277 
L 178.177277 127.760758 
L 179.117826 126.793816 
L 180.096905 125.826874 
L 181.108384 124.859932 
L 182.145447 123.89299 
L 183.20074 122.926048 
L 184.266375 121.959105 
L 185.334307 120.992163 
L 186.396035 120.025221 
L 187.443209 119.058279 
L 188.467173 118.091337 
L 189.459656 117.124395 
L 190.412385 116.157452 
L 191.317393 115.19051 
L 192.16702 114.223568 
L 192.953837 113.256626 
L 193.671179 112.289684 
L 194.312306 111.322742 
L 194.871549 110.3558 
L 195.343241 109.388857 
L 195.722709 108.421915 
L 196.005586 107.454973 
L 196.188349 106.488031 
L 196.268011 105.521089 
L 196.242428 104.554147 
L 196.110219 103.587205 
L 195.870696 102.620262 
L 195.524396 101.65332 
L 195.07239 100.686378 
L 194.516976 99.719436 
L 193.861449 98.752494 
L 193.110097 97.785552 
L 192.268359 96.81861 
L 191.342823 95.851667 
L 190.340842 94.884725 
L 189.271225 93.917783 
L 188.143393 92.950841 
L 186.967917 91.983899 
L 185.755827 91.016957 
L 184.519072 90.050014 
L 183.269909 89.083072 
L 182.020745 88.11613 
L 180.784144 87.149188 
L 179.57236 86.182246 
L 178.397344 85.215304 
L 177.270201 84.248362 
L 176.20112 83.281419 
L 175.198985 82.314477 
L 174.271534 81.347535 
L 173.424665 80.380593 
L 172.662589 79.413651 
L 171.987682 78.446709 
L 171.355824 77.479767 
L 170.705298 76.512824 
L 170.057369 75.545882 
L 169.540783 74.57894 
L 169.264838 73.611998 
L 169.091489 72.645056 
L 168.667342 71.678114 
L 167.833195 70.711171 
L 166.669385 69.744229 
L 165.441454 68.777287 
L 164.469239 67.810345 
L 163.977453 66.843403 
L 164.111743 65.876461 
L 164.693557 64.909519 
L 164.957284 63.942576 
L 164.569223 62.975634 
L 163.878325 62.008692 
L 163.540739 61.04175 
" style="fill:none;stroke:#1f77b4;stroke-linecap:square;"/>
   </g>
   <g id="patch_14">
    <path d="M 161.904375 178.04175 
L 161.904375 61.04175 
" style="fill:none;stroke:#000000;stroke-linecap:square;stroke-linejoin:miter;stroke-width:0.8;"/>
   </g>
   <g id="patch_15">
    <path d="M 197.904375 178.04175 
L 197.904375 61.04175 
" style="fill:none;stroke:#000000;stroke-linecap:square;stroke-linejoin:miter;stroke-width:0.8;"/>
   </g>
   <g id="patch_16">
    <path d="M 161.904375 178.04175 
L 197.904375 178.04175 
" style="fill:none;stroke:#000000;stroke-linecap:square;stroke-linejoin:miter;stroke-width:0.8;"/>
   </g>
   <g id="patch_17">
    <path d="M 161.904375 61.04175 
L 197.904375 61.04175 
" style="fill:none;stroke:#000000;stroke-linecap:square;stroke-linejoin:miter;stroke-width:0.8;"/>
   </g>
  </g>
 </g>
 <defs>
  <clipPath id="pef88510ec8">
   <rect height="117" width="117" x="44.004375" y="61.04175"/>
  </clipPath>
  <clipPath id="pe61abf8e3e">
   <rect height="36" width="117" x="44.004375" y="24.14175"/>
  </clipPath>
  <clipPath id="p168f6c5c15">
   <rect height="117" width="36" x="161.904375" y="61.04175"/>
  </clipPath>
 </defs>
</svg>
