<?xml version="1.0" encoding="utf-8" standalone="no"?>
<!DOCTYPE svg PUBLIC "-//W3C//DTD SVG 1.1//EN"
  "http://www.w3.org/Graphics/SVG/1.1/DTD/svg11.dtd">
<!-- Created with matplotlib (https://matplotlib.org/) -->
<svg height="215.96925pt" version="1.1" viewBox="0 0 207.285511 215.96925" width="207.285511pt" xmlns="http://www.w3.org/2000/svg" xmlns:xlink="http://www.w3.org/1999/xlink">
 <defs>
  <style type="text/css">
*{stroke-linecap:butt;stroke-linejoin:round;white-space:pre;}
  </style>
 </defs>
 <g id="figure_1">
  <g id="patch_1">
   <path d="M 0 215.96925 
L 207.285511 215.96925 
L 207.285511 0 
L 0 0 
z
" style="fill:none;"/>
  </g>
  <g id="axes_1">
   <g id="patch_2">
    <path d="M 44.004375 178.04175 
L 161.004375 178.04175 
L 161.004375 61.04175 
L 44.004375 61.04175 
z
" style="fill:none;"/>
   </g>
   <g id="patch_3">
    <path clip-path="url(#p9201b340d6)" d="M 90.804375 119.54175 
L 114.204375 119.54175 
L 114.204375 103.94175 
L 90.804375 103.94175 
z
" style="fill:none;stroke:#ff0000;stroke-dasharray:3.7,1.6;stroke-dashoffset:0;stroke-linejoin:miter;"/>
   </g>
   <g id="matplotlib.axis_1">
    <g id="xtick_1">
     <g id="line2d_1">
      <defs>
       <path d="M 0 0 
L 0 -3.5 
" id="mf5bfee9020" style="stroke:#000000;stroke-width:0.8;"/>
      </defs>
      <g>
       <use style="stroke:#000000;stroke-width:0.8;" x="63.504375" xlink:href="#mf5bfee9020" y="178.04175"/>
      </g>
     </g>
     <g id="line2d_2">
      <defs>
       <path d="M 0 0 
L 0 3.5 
" id="mdedf997074" style="stroke:#000000;stroke-width:0.8;"/>
      </defs>
      <g>
       <use style="stroke:#000000;stroke-width:0.8;" x="63.504375" xlink:href="#mdedf997074" y="61.04175"/>
      </g>
     </g>
     <g id="text_1">
      <!-- −2 -->
      <defs>
       <path d="M 10.59375 35.5 
L 73.1875 35.5 
L 73.1875 27.203125 
L 10.59375 27.203125 
z
" id="DejaVuSans-8722"/>
       <path d="M 19.1875 8.296875 
L 53.609375 8.296875 
L 53.609375 0 
L 7.328125 0 
L 7.328125 8.296875 
Q 12.9375 14.109375 22.625 23.890625 
Q 32.328125 33.6875 34.8125 36.53125 
Q 39.546875 41.84375 41.421875 45.53125 
Q 43.3125 49.21875 43.3125 52.78125 
Q 43.3125 58.59375 39.234375 62.25 
Q 35.15625 65.921875 28.609375 65.921875 
Q 23.96875 65.921875 18.8125 64.3125 
Q 13.671875 62.703125 7.8125 59.421875 
L 7.8125 69.390625 
Q 13.765625 71.78125 18.9375 73 
Q 24.125 74.21875 28.421875 74.21875 
Q 39.75 74.21875 46.484375 68.546875 
Q 53.21875 62.890625 53.21875 53.421875 
Q 53.21875 48.921875 51.53125 44.890625 
Q 49.859375 40.875 45.40625 35.40625 
Q 44.1875 33.984375 37.640625 27.21875 
Q 31.109375 20.453125 19.1875 8.296875 
z
" id="DejaVuSans-50"/>
      </defs>
      <g transform="translate(54.659063 190.659875)scale(0.12 -0.12)">
       <use xlink:href="#DejaVuSans-8722"/>
       <use x="83.789062" xlink:href="#DejaVuSans-50"/>
      </g>
     </g>
    </g>
    <g id="xtick_2">
     <g id="line2d_3">
      <g>
       <use style="stroke:#000000;stroke-width:0.8;" x="102.504375" xlink:href="#mf5bfee9020" y="178.04175"/>
      </g>
     </g>
     <g id="line2d_4">
      <g>
       <use style="stroke:#000000;stroke-width:0.8;" x="102.504375" xlink:href="#mdedf997074" y="61.04175"/>
      </g>
     </g>
     <g id="text_2">
      <!-- 0 -->
      <defs>
       <path d="M 31.78125 66.40625 
Q 24.171875 66.40625 20.328125 58.90625 
Q 16.5 51.421875 16.5 36.375 
Q 16.5 21.390625 20.328125 13.890625 
Q 24.171875 6.390625 31.78125 6.390625 
Q 39.453125 6.390625 43.28125 13.890625 
Q 47.125 21.390625 47.125 36.375 
Q 47.125 51.421875 43.28125 58.90625 
Q 39.453125 66.40625 31.78125 66.40625 
z
M 31.78125 74.21875 
Q 44.046875 74.21875 50.515625 64.515625 
Q 56.984375 54.828125 56.984375 36.375 
Q 56.984375 17.96875 50.515625 8.265625 
Q 44.046875 -1.421875 31.78125 -1.421875 
Q 19.53125 -1.421875 13.0625 8.265625 
Q 6.59375 17.96875 6.59375 36.375 
Q 6.59375 54.828125 13.0625 64.515625 
Q 19.53125 74.21875 31.78125 74.21875 
z
" id="DejaVuSans-48"/>
      </defs>
      <g transform="translate(98.686875 190.659875)scale(0.12 -0.12)">
       <use xlink:href="#DejaVuSans-48"/>
      </g>
     </g>
    </g>
    <g id="xtick_3">
     <g id="line2d_5">
      <g>
       <use style="stroke:#000000;stroke-width:0.8;" x="141.504375" xlink:href="#mf5bfee9020" y="178.04175"/>
      </g>
     </g>
     <g id="line2d_6">
      <g>
       <use style="stroke:#000000;stroke-width:0.8;" x="141.504375" xlink:href="#mdedf997074" y="61.04175"/>
      </g>
     </g>
     <g id="text_3">
      <!-- 2 -->
      <g transform="translate(137.686875 190.659875)scale(0.12 -0.12)">
       <use xlink:href="#DejaVuSans-50"/>
      </g>
     </g>
    </g>
    <g id="text_4">
     <!-- Y axis (um) -->
     <defs>
      <path d="M -0.203125 72.90625 
L 10.40625 72.90625 
L 30.609375 42.921875 
L 50.6875 72.90625 
L 61.28125 72.90625 
L 35.5 34.71875 
L 35.5 0 
L 25.59375 0 
L 25.59375 34.71875 
z
" id="DejaVuSans-89"/>
      <path id="DejaVuSans-32"/>
      <path d="M 34.28125 27.484375 
Q 23.390625 27.484375 19.1875 25 
Q 14.984375 22.515625 14.984375 16.5 
Q 14.984375 11.71875 18.140625 8.90625 
Q 21.296875 6.109375 26.703125 6.109375 
Q 34.1875 6.109375 38.703125 11.40625 
Q 43.21875 16.703125 43.21875 25.484375 
L 43.21875 27.484375 
z
M 52.203125 31.203125 
L 52.203125 0 
L 43.21875 0 
L 43.21875 8.296875 
Q 40.140625 3.328125 35.546875 0.953125 
Q 30.953125 -1.421875 24.3125 -1.421875 
Q 15.921875 -1.421875 10.953125 3.296875 
Q 6 8.015625 6 15.921875 
Q 6 25.140625 12.171875 29.828125 
Q 18.359375 34.515625 30.609375 34.515625 
L 43.21875 34.515625 
L 43.21875 35.40625 
Q 43.21875 41.609375 39.140625 45 
Q 35.0625 48.390625 27.6875 48.390625 
Q 23 48.390625 18.546875 47.265625 
Q 14.109375 46.140625 10.015625 43.890625 
L 10.015625 52.203125 
Q 14.9375 54.109375 19.578125 55.046875 
Q 24.21875 56 28.609375 56 
Q 40.484375 56 46.34375 49.84375 
Q 52.203125 43.703125 52.203125 31.203125 
z
" id="DejaVuSans-97"/>
      <path d="M 54.890625 54.6875 
L 35.109375 28.078125 
L 55.90625 0 
L 45.3125 0 
L 29.390625 21.484375 
L 13.484375 0 
L 2.875 0 
L 24.125 28.609375 
L 4.6875 54.6875 
L 15.28125 54.6875 
L 29.78125 35.203125 
L 44.28125 54.6875 
z
" id="DejaVuSans-120"/>
      <path d="M 9.421875 54.6875 
L 18.40625 54.6875 
L 18.40625 0 
L 9.421875 0 
z
M 9.421875 75.984375 
L 18.40625 75.984375 
L 18.40625 64.59375 
L 9.421875 64.59375 
z
" id="DejaVuSans-105"/>
      <path d="M 44.28125 53.078125 
L 44.28125 44.578125 
Q 40.484375 46.53125 36.375 47.5 
Q 32.28125 48.484375 27.875 48.484375 
Q 21.1875 48.484375 17.84375 46.4375 
Q 14.5 44.390625 14.5 40.28125 
Q 14.5 37.15625 16.890625 35.375 
Q 19.28125 33.59375 26.515625 31.984375 
L 29.59375 31.296875 
Q 39.15625 29.25 43.1875 25.515625 
Q 47.21875 21.78125 47.21875 15.09375 
Q 47.21875 7.46875 41.1875 3.015625 
Q 35.15625 -1.421875 24.609375 -1.421875 
Q 20.21875 -1.421875 15.453125 -0.5625 
Q 10.6875 0.296875 5.421875 2 
L 5.421875 11.28125 
Q 10.40625 8.6875 15.234375 7.390625 
Q 20.0625 6.109375 24.8125 6.109375 
Q 31.15625 6.109375 34.5625 8.28125 
Q 37.984375 10.453125 37.984375 14.40625 
Q 37.984375 18.0625 35.515625 20.015625 
Q 33.0625 21.96875 24.703125 23.78125 
L 21.578125 24.515625 
Q 13.234375 26.265625 9.515625 29.90625 
Q 5.8125 33.546875 5.8125 39.890625 
Q 5.8125 47.609375 11.28125 51.796875 
Q 16.75 56 26.8125 56 
Q 31.78125 56 36.171875 55.265625 
Q 40.578125 54.546875 44.28125 53.078125 
z
" id="DejaVuSans-115"/>
      <path d="M 31 75.875 
Q 24.46875 64.65625 21.28125 53.65625 
Q 18.109375 42.671875 18.109375 31.390625 
Q 18.109375 20.125 21.3125 9.0625 
Q 24.515625 -2 31 -13.1875 
L 23.1875 -13.1875 
Q 15.875 -1.703125 12.234375 9.375 
Q 8.59375 20.453125 8.59375 31.390625 
Q 8.59375 42.28125 12.203125 53.3125 
Q 15.828125 64.359375 23.1875 75.875 
z
" id="DejaVuSans-40"/>
      <path d="M 8.5 21.578125 
L 8.5 54.6875 
L 17.484375 54.6875 
L 17.484375 21.921875 
Q 17.484375 14.15625 20.5 10.265625 
Q 23.53125 6.390625 29.59375 6.390625 
Q 36.859375 6.390625 41.078125 11.03125 
Q 45.3125 15.671875 45.3125 23.6875 
L 45.3125 54.6875 
L 54.296875 54.6875 
L 54.296875 0 
L 45.3125 0 
L 45.3125 8.40625 
Q 42.046875 3.421875 37.71875 1 
Q 33.40625 -1.421875 27.6875 -1.421875 
Q 18.265625 -1.421875 13.375 4.4375 
Q 8.5 10.296875 8.5 21.578125 
z
M 31.109375 56 
z
" id="DejaVuSans-117"/>
      <path d="M 52 44.1875 
Q 55.375 50.25 60.0625 53.125 
Q 64.75 56 71.09375 56 
Q 79.640625 56 84.28125 50.015625 
Q 88.921875 44.046875 88.921875 33.015625 
L 88.921875 0 
L 79.890625 0 
L 79.890625 32.71875 
Q 79.890625 40.578125 77.09375 44.375 
Q 74.3125 48.1875 68.609375 48.1875 
Q 61.625 48.1875 57.5625 43.546875 
Q 53.515625 38.921875 53.515625 30.90625 
L 53.515625 0 
L 44.484375 0 
L 44.484375 32.71875 
Q 44.484375 40.625 41.703125 44.40625 
Q 38.921875 48.1875 33.109375 48.1875 
Q 26.21875 48.1875 22.15625 43.53125 
Q 18.109375 38.875 18.109375 30.90625 
L 18.109375 0 
L 9.078125 0 
L 9.078125 54.6875 
L 18.109375 54.6875 
L 18.109375 46.1875 
Q 21.1875 51.21875 25.484375 53.609375 
Q 29.78125 56 35.6875 56 
Q 41.65625 56 45.828125 52.96875 
Q 50 49.953125 52 44.1875 
z
" id="DejaVuSans-109"/>
      <path d="M 8.015625 75.875 
L 15.828125 75.875 
Q 23.140625 64.359375 26.78125 53.3125 
Q 30.421875 42.28125 30.421875 31.390625 
Q 30.421875 20.453125 26.78125 9.375 
Q 23.140625 -1.703125 15.828125 -13.1875 
L 8.015625 -13.1875 
Q 14.5 -2 17.703125 9.0625 
Q 20.90625 20.125 20.90625 31.390625 
Q 20.90625 42.671875 17.703125 53.65625 
Q 14.5 64.65625 8.015625 75.875 
z
" id="DejaVuSans-41"/>
     </defs>
     <g transform="translate(68.676563 206.273625)scale(0.12 -0.12)">
      <use xlink:href="#DejaVuSans-89"/>
      <use x="61.083984" xlink:href="#DejaVuSans-32"/>
      <use x="92.871094" xlink:href="#DejaVuSans-97"/>
      <use x="154.150391" xlink:href="#DejaVuSans-120"/>
      <use x="213.330078" xlink:href="#DejaVuSans-105"/>
      <use x="241.113281" xlink:href="#DejaVuSans-115"/>
      <use x="293.212891" xlink:href="#DejaVuSans-32"/>
      <use x="325" xlink:href="#DejaVuSans-40"/>
      <use x="364.013672" xlink:href="#DejaVuSans-117"/>
      <use x="427.392578" xlink:href="#DejaVuSans-109"/>
      <use x="524.804688" xlink:href="#DejaVuSans-41"/>
     </g>
    </g>
   </g>
   <g id="matplotlib.axis_2">
    <g id="ytick_1">
     <g id="line2d_7">
      <defs>
       <path d="M 0 0 
L 3.5 0 
" id="m283f4f6097" style="stroke:#000000;stroke-width:0.8;"/>
      </defs>
      <g>
       <use style="stroke:#000000;stroke-width:0.8;" x="44.004375" xlink:href="#m283f4f6097" y="158.54175"/>
      </g>
     </g>
     <g id="line2d_8">
      <defs>
       <path d="M 0 0 
L -3.5 0 
" id="m6ac88cd1be" style="stroke:#000000;stroke-width:0.8;"/>
      </defs>
      <g>
       <use style="stroke:#000000;stroke-width:0.8;" x="161.004375" xlink:href="#m6ac88cd1be" y="158.54175"/>
      </g>
     </g>
     <g id="text_5">
      <!-- −2 -->
      <g transform="translate(22.81375 163.100812)scale(0.12 -0.12)">
       <use xlink:href="#DejaVuSans-8722"/>
       <use x="83.789062" xlink:href="#DejaVuSans-50"/>
      </g>
     </g>
    </g>
    <g id="ytick_2">
     <g id="line2d_9">
      <g>
       <use style="stroke:#000000;stroke-width:0.8;" x="44.004375" xlink:href="#m283f4f6097" y="119.54175"/>
      </g>
     </g>
     <g id="line2d_10">
      <g>
       <use style="stroke:#000000;stroke-width:0.8;" x="161.004375" xlink:href="#m6ac88cd1be" y="119.54175"/>
      </g>
     </g>
     <g id="text_6">
      <!-- 0 -->
      <g transform="translate(32.869375 124.100812)scale(0.12 -0.12)">
       <use xlink:href="#DejaVuSans-48"/>
      </g>
     </g>
    </g>
    <g id="ytick_3">
     <g id="line2d_11">
      <g>
       <use style="stroke:#000000;stroke-width:0.8;" x="44.004375" xlink:href="#m283f4f6097" y="80.54175"/>
      </g>
     </g>
     <g id="line2d_12">
      <g>
       <use style="stroke:#000000;stroke-width:0.8;" x="161.004375" xlink:href="#m6ac88cd1be" y="80.54175"/>
      </g>
     </g>
     <g id="text_7">
      <!-- 2 -->
      <g transform="translate(32.869375 85.100812)scale(0.12 -0.12)">
       <use xlink:href="#DejaVuSans-50"/>
      </g>
     </g>
    </g>
    <g id="text_8">
     <!-- Z axis (um) -->
     <defs>
      <path d="M 5.609375 72.90625 
L 62.890625 72.90625 
L 62.890625 65.375 
L 16.796875 8.296875 
L 64.015625 8.296875 
L 64.015625 0 
L 4.5 0 
L 4.5 7.515625 
L 50.59375 64.59375 
L 5.609375 64.59375 
z
" id="DejaVuSans-90"/>
     </defs>
     <g transform="translate(16.318125 153.814875)rotate(-90)scale(0.12 -0.12)">
      <use xlink:href="#DejaVuSans-90"/>
      <use x="68.505859" xlink:href="#DejaVuSans-32"/>
      <use x="100.292969" xlink:href="#DejaVuSans-97"/>
      <use x="161.572266" xlink:href="#DejaVuSans-120"/>
      <use x="220.751953" xlink:href="#DejaVuSans-105"/>
      <use x="248.535156" xlink:href="#DejaVuSans-115"/>
      <use x="300.634766" xlink:href="#DejaVuSans-32"/>
      <use x="332.421875" xlink:href="#DejaVuSans-40"/>
      <use x="371.435547" xlink:href="#DejaVuSans-117"/>
      <use x="434.814453" xlink:href="#DejaVuSans-109"/>
      <use x="532.226562" xlink:href="#DejaVuSans-41"/>
     </g>
    </g>
   </g>
   <g id="LineCollection_1">
    <path clip-path="url(#p9201b340d6)" d="M 44.004375 178.04175 
" style="fill:none;stroke:#440154;stroke-width:0.8;"/>
    <path clip-path="url(#p9201b340d6)" d="M 44.004375 61.04175 
" style="fill:none;stroke:#440154;stroke-width:0.8;"/>
    <path clip-path="url(#p9201b340d6)" d="M 161.004375 178.04175 
" style="fill:none;stroke:#440154;stroke-width:0.8;"/>
    <path clip-path="url(#p9201b340d6)" d="M 161.004375 61.04175 
" style="fill:none;stroke:#440154;stroke-width:0.8;"/>
   </g>
   <g id="LineCollection_2">
    <path clip-path="url(#p9201b340d6)" d="M 111.287811 139.801605 
L 108.925107 140.144145 
L 105.358034 140.387584 
L 101.077546 140.426123 
L 97.510473 140.278153 
L 94.656814 139.970884 
L 92.51657 139.564139 
L 90.376326 138.910261 
L 88.949497 138.237231 
L 87.522668 137.190609 
L 86.779338 136.463238 
L 86.015489 135.496295 
L 81.101936 127.437063 
L 79.39793 123.89299 
L 77.588346 119.058279 
L 76.393952 115.19051 
L 75.478898 111.322742 
L 74.886808 107.454973 
L 74.723464 104.554147 
L 74.81027 101.65332 
L 75.164697 98.752494 
L 75.770024 95.851667 
L 76.821448 92.302337 
L 77.631297 90.050014 
L 78.961692 86.919503 
L 79.804847 85.215304 
L 81.101936 83.120266 
L 82.528765 81.268598 
L 84.669009 79.022876 
L 86.393758 77.479767 
L 87.840468 76.512824 
L 88.949497 75.921514 
L 93.229985 73.891359 
L 93.943399 73.440258 
L 94.827667 72.645056 
L 96.797058 72.173531 
L 98.937302 71.853395 
L 101.79096 71.676593 
L 104.644619 71.73443 
L 107.498277 72.053391 
L 109.638521 72.509301 
L 110.123574 72.645056 
L 111.778765 73.934382 
L 113.205595 74.7129 
L 115.345838 75.636499 
L 117.094508 76.512824 
L 118.547273 77.479767 
L 119.667838 78.446709 
L 121.76657 80.548058 
L 123.279345 82.314477 
L 124.620229 84.301921 
L 125.672762 86.182246 
L 126.966181 89.083072 
L 128.187302 92.388259 
L 128.948021 94.884725 
L 129.626463 97.785552 
L 130.077669 100.686378 
L 130.249588 103.587205 
L 130.165669 106.488031 
L 129.833494 109.388857 
L 129.772456 109.743514 
L 129.772456 109.743514 
" style="fill:none;stroke:#46327e;stroke-width:0.8;"/>
   </g>
   <g id="LineCollection_3">
    <path clip-path="url(#p9201b340d6)" d="M 79.370248 101.124422 
L 79.68063 98.752494 
L 80.388521 95.924012 
L 80.728285 94.884725 
L 81.526601 92.950841 
L 82.528765 91.151116 
L 83.314906 90.050014 
L 84.961332 88.11613 
L 86.095838 87.00319 
L 88.236082 85.273579 
L 90.376326 83.907512 
L 92.51657 82.832424 
L 94.656814 81.998932 
L 96.973624 81.347535 
L 98.937302 80.957633 
L 101.077546 80.734237 
L 103.21779 80.705143 
L 105.358034 80.868452 
L 107.498277 81.234766 
L 110.351936 82.020327 
L 112.49218 82.859784 
L 114.632424 83.941832 
L 116.772668 85.314465 
L 118.199497 86.425045 
L 119.993009 88.11613 
L 121.053155 89.310199 
L 122.479985 91.231009 
L 123.435903 92.950841 
L 124.236686 94.884725 
L 125.079079 97.785552 
L 125.437788 99.719436 
L 125.701918 102.620262 
L 125.703371 105.521089 
L 125.453503 108.421915 
L 125.128327 110.3558 
L 124.391536 113.256626 
L 123.742817 115.19051 
L 122.918658 117.124395 
L 121.76657 119.249391 
L 120.01579 121.959105 
L 118.199497 124.391719 
L 116.059253 126.890825 
L 113.919009 129.052863 
L 111.778765 130.868926 
L 109.638521 132.329355 
L 107.498277 133.409938 
L 105.358034 134.115051 
L 103.931204 134.365212 
L 102.504375 134.448556 
L 101.077546 134.36931 
L 99.650716 134.123573 
L 97.878659 133.562411 
L 96.797058 133.114977 
L 95.642796 132.503143 
L 95.642796 132.503143 
" style="fill:none;stroke:#365c8d;stroke-width:0.8;"/>
   </g>
   <g id="LineCollection_4">
    <path clip-path="url(#p9201b340d6)" d="M 121.074486 99.530946 
L 121.329596 100.686378 
L 121.58235 102.620262 
L 121.639714 104.554147 
L 121.512938 106.488031 
L 121.053155 109.106168 
L 120.731549 110.3558 
L 120.086084 112.289684 
L 118.912912 114.964331 
L 118.199497 116.313682 
L 116.772668 118.617754 
L 115.345838 120.554907 
L 113.919009 122.212224 
L 112.200497 123.89299 
L 110.351936 125.37079 
L 108.925107 126.282986 
L 107.498277 127.004957 
L 106.071448 127.544006 
L 104.644619 127.901317 
L 103.21779 128.083107 
L 101.79096 128.085355 
L 100.364131 127.908084 
L 98.937302 127.555341 
L 97.030224 126.793816 
L 96.083643 126.305925 
L 94.656814 125.400875 
L 92.761465 123.89299 
L 91.089741 122.266749 
L 89.662912 120.62323 
L 88.236082 118.70436 
L 86.809253 116.424705 
L 85.669172 114.223568 
L 84.669009 111.767452 
L 84.207997 110.3558 
L 83.7311 108.421915 
L 83.427015 106.488031 
L 83.301515 104.554147 
L 83.360293 102.620262 
L 83.614448 100.686378 
L 84.079961 98.752494 
L 84.776792 96.81861 
L 85.738629 94.884725 
L 87.020502 92.950841 
L 88.236082 91.51311 
L 89.766325 90.050014 
L 91.194828 88.947267 
L 91.194828 88.947267 
" style="fill:none;stroke:#277f8e;stroke-width:0.8;"/>
   </g>
   <g id="LineCollection_5">
    <path clip-path="url(#p9201b340d6)" d="M 88.190124 109.388857 
L 87.774337 107.454973 
L 87.561507 105.521089 
L 87.558468 103.587205 
L 87.780233 101.65332 
L 88.251125 99.719436 
L 89.005766 97.785552 
L 90.104232 95.851667 
L 91.089741 94.552143 
L 92.657604 92.950841 
L 93.943399 91.940448 
L 95.437953 91.016957 
L 96.797058 90.367419 
L 98.223887 89.852489 
L 100.364131 89.372273 
L 102.504375 89.216952 
L 104.644619 89.379031 
L 106.784863 89.866639 
L 108.211692 90.387315 
L 109.638521 91.079986 
L 111.077806 91.983899 
L 112.49218 93.124373 
L 113.919009 94.615139 
L 114.849526 95.851667 
L 115.945659 97.785552 
L 116.69861 99.719436 
L 117.168055 101.65332 
L 117.389042 103.587205 
L 117.385688 105.521089 
L 117.17307 107.454973 
L 116.758153 109.388857 
L 116.059253 111.543267 
L 115.329015 113.256626 
L 114.290789 115.19051 
L 112.991555 117.124395 
L 111.344289 119.058279 
L 110.33598 120.025221 
L 108.925107 121.138227 
L 107.498277 122.012545 
L 106.071448 122.654788 
L 104.644619 123.077377 
L 103.21779 123.288633 
L 101.79096 123.291235 
L 100.364131 123.085438 
L 98.937302 122.668687 
L 97.377535 121.959105 
L 95.842409 120.992163 
L 94.629616 120.025221 
L 93.229985 118.645549 
L 91.803155 116.900759 
L 90.376326 114.689436 
L 89.623723 113.256626 
L 88.804377 111.322742 
L 88.190124 109.388857 
L 88.190124 109.388857 
" style="fill:none;stroke:#1fa187;stroke-width:0.8;"/>
   </g>
   <g id="LineCollection_6">
    <path clip-path="url(#p9201b340d6)" d="M 91.785568 107.454973 
L 91.651278 106.488031 
L 91.579913 105.521089 
L 91.573143 104.554147 
L 91.633288 103.587205 
L 91.763549 102.620262 
L 91.803155 102.430401 
L 91.970748 101.65332 
L 92.259337 100.686378 
L 92.51657 100.019147 
L 92.63779 99.719436 
L 93.119789 98.752494 
L 93.229985 98.566881 
L 93.724525 97.785552 
L 93.943399 97.488763 
L 94.477424 96.81861 
L 94.656814 96.620796 
L 95.370229 95.902049 
L 95.425299 95.851667 
L 96.083643 95.310272 
L 96.669148 94.884725 
L 96.797058 94.799692 
L 97.510473 94.379759 
L 98.223887 94.021029 
L 98.467101 93.917783 
L 98.937302 93.731248 
L 99.650716 93.500916 
L 100.364131 93.323475 
L 101.077546 93.197863 
L 101.79096 93.123356 
L 102.504375 93.09959 
L 103.21779 93.12635 
L 103.931204 93.203897 
L 104.644619 93.332579 
L 105.358034 93.513232 
L 106.071448 93.746904 
L 106.497359 93.917783 
L 106.784863 94.041238 
L 107.498277 94.403956 
L 108.211692 94.828069 
L 108.296253 94.884725 
L 108.925107 95.34553 
L 109.536128 95.851667 
L 109.638521 95.946032 
L 110.351936 96.671235 
L 110.484718 96.81861 
L 111.065351 97.552346 
L 111.23624 97.785552 
L 111.778765 98.648373 
L 111.840196 98.752494 
L 112.320461 99.719436 
L 112.49218 100.14693 
L 112.698803 100.686378 
L 112.986408 101.65332 
L 113.193576 102.620262 
L 113.205595 102.707253 
L 113.323669 103.587205 
L 113.383707 104.554147 
L 113.377029 105.521089 
L 113.306007 106.488031 
L 113.205595 107.213813 
L 113.171722 107.454973 
L 112.973101 108.421915 
L 112.71209 109.388857 
L 112.49218 110.047067 
L 112.385813 110.3558 
L 111.989214 111.322742 
L 111.778765 111.765 
L 111.517639 112.289684 
L 111.065351 113.087364 
L 110.963722 113.256626 
L 110.351936 114.16708 
L 110.311185 114.223568 
L 109.638521 115.069477 
L 109.533552 115.19051 
L 108.925107 115.835786 
L 108.588404 116.157452 
L 108.211692 116.492597 
L 107.498277 117.053967 
L 107.395716 117.124395 
L 106.784863 117.520305 
L 106.071448 117.91005 
L 105.66584 118.091337 
L 105.358034 118.222945 
L 104.644619 118.460862 
L 103.931204 118.630597 
L 103.21779 118.732843 
L 102.504375 118.768013 
L 101.79096 118.736332 
L 101.077546 118.637634 
L 100.364131 118.471487 
L 99.650716 118.237338 
L 99.305058 118.091337 
L 98.937302 117.928992 
L 98.223887 117.543593 
L 97.571264 117.124395 
L 97.510473 117.083033 
L 96.797058 116.526811 
L 96.378781 116.157452 
L 96.083643 115.877643 
L 95.431159 115.19051 
L 95.370229 115.120743 
L 94.656814 114.229617 
L 94.652312 114.223568 
L 93.998567 113.256626 
L 93.943399 113.165325 
L 93.443927 112.289684 
L 93.229985 111.86241 
L 92.971718 111.322742 
L 92.5734 110.3558 
L 92.51657 110.191768 
L 92.246896 109.388857 
L 91.984763 108.421915 
L 91.803155 107.54178 
L 91.785568 107.454973 
" style="fill:none;stroke:#4ac16d;stroke-width:0.8;"/>
   </g>
   <g id="LineCollection_7">
    <path clip-path="url(#p9201b340d6)" d="M 96.038353 105.521089 
L 96.065339 104.554147 
L 96.083643 104.414559 
L 96.202163 103.587205 
L 96.45499 102.620262 
L 96.797058 101.736059 
L 96.832889 101.65332 
L 97.388806 100.686378 
L 97.510473 100.517699 
L 98.173932 99.719436 
L 98.223887 99.669405 
L 98.937302 99.063185 
L 99.388238 98.752494 
L 99.650716 98.596362 
L 100.364131 98.26714 
L 101.077546 98.034487 
L 101.79096 97.89655 
L 102.504375 97.852512 
L 103.21779 97.901857 
L 103.931204 98.045111 
L 104.644619 98.283296 
L 105.358034 98.618305 
L 105.580674 98.752494 
L 106.071448 99.09511 
L 106.784863 99.708734 
L 106.795447 99.719436 
L 107.498277 100.573343 
L 107.579109 100.686378 
L 108.131059 101.65332 
L 108.211692 101.841214 
L 108.510623 102.620262 
L 108.761994 103.587205 
L 108.899463 104.554147 
L 108.925107 105.402014 
L 108.928417 105.521089 
L 108.925107 105.567002 
L 108.853679 106.488031 
L 108.677173 107.454973 
L 108.40085 108.421915 
L 108.211692 108.909931 
L 108.006619 109.388857 
L 107.498277 110.328346 
L 107.481458 110.3558 
L 106.784863 111.299803 
L 106.765098 111.322742 
L 106.071448 112.014353 
L 105.735791 112.289684 
L 105.358034 112.563044 
L 104.644619 112.96639 
L 103.931204 113.254937 
L 103.92431 113.256626 
L 103.21779 113.413232 
L 102.504375 113.467788 
L 101.79096 113.418818 
L 101.077546 113.266269 
L 101.050575 113.256626 
L 100.364131 112.984886 
L 99.650716 112.58804 
L 99.233272 112.289684 
L 98.937302 112.049918 
L 98.223887 111.346192 
L 98.203543 111.322742 
L 97.510473 110.392242 
L 97.486605 110.3558 
L 96.959371 109.388857 
L 96.797058 109.012911 
L 96.566301 108.421915 
L 96.288049 107.454973 
L 96.110282 106.488031 
L 96.083643 106.146334 
L 96.038353 105.521089 
" style="fill:none;stroke:#a0da39;stroke-width:0.8;"/>
   </g>
   <g id="LineCollection_8"/>
   <g id="patch_4">
    <path d="M 44.004375 178.04175 
L 44.004375 61.04175 
" style="fill:none;stroke:#000000;stroke-linecap:square;stroke-linejoin:miter;stroke-width:0.8;"/>
   </g>
   <g id="patch_5">
    <path d="M 161.004375 178.04175 
L 161.004375 61.04175 
" style="fill:none;stroke:#000000;stroke-linecap:square;stroke-linejoin:miter;stroke-width:0.8;"/>
   </g>
   <g id="patch_6">
    <path d="M 44.004375 178.04175 
L 161.004375 178.04175 
" style="fill:none;stroke:#000000;stroke-linecap:square;stroke-linejoin:miter;stroke-width:0.8;"/>
   </g>
   <g id="patch_7">
    <path d="M 44.004375 61.04175 
L 161.004375 61.04175 
" style="fill:none;stroke:#000000;stroke-linecap:square;stroke-linejoin:miter;stroke-width:0.8;"/>
   </g>
   <g id="text_9">
    <g clip-path="url(#p9201b340d6)">
     <!-- 0.150 -->
     <defs>
      <path d="M 10.6875 12.40625 
L 21 12.40625 
L 21 0 
L 10.6875 0 
z
" id="DejaVuSans-46"/>
      <path d="M 12.40625 8.296875 
L 28.515625 8.296875 
L 28.515625 63.921875 
L 10.984375 60.40625 
L 10.984375 69.390625 
L 28.421875 72.90625 
L 38.28125 72.90625 
L 38.28125 8.296875 
L 54.390625 8.296875 
L 54.390625 0 
L 12.40625 0 
z
" id="DejaVuSans-49"/>
      <path d="M 10.796875 72.90625 
L 49.515625 72.90625 
L 49.515625 64.59375 
L 19.828125 64.59375 
L 19.828125 46.734375 
Q 21.96875 47.46875 24.109375 47.828125 
Q 26.265625 48.1875 28.421875 48.1875 
Q 40.625 48.1875 47.75 41.5 
Q 54.890625 34.8125 54.890625 23.390625 
Q 54.890625 11.625 47.5625 5.09375 
Q 40.234375 -1.421875 26.90625 -1.421875 
Q 22.3125 -1.421875 17.546875 -0.640625 
Q 12.796875 0.140625 7.71875 1.703125 
L 7.71875 11.625 
Q 12.109375 9.234375 16.796875 8.0625 
Q 21.484375 6.890625 26.703125 6.890625 
Q 35.15625 6.890625 40.078125 11.328125 
Q 45.015625 15.765625 45.015625 23.390625 
Q 45.015625 31 40.078125 35.4375 
Q 35.15625 39.890625 26.703125 39.890625 
Q 22.75 39.890625 18.8125 39.015625 
Q 14.890625 38.140625 10.796875 36.28125 
z
" id="DejaVuSans-53"/>
     </defs>
     <g style="fill:#46327e;" transform="translate(119.321369 141.157217)rotate(-60.754831)scale(0.1 -0.1)">
      <use xlink:href="#DejaVuSans-48"/>
      <use x="63.623047" xlink:href="#DejaVuSans-46"/>
      <use x="95.410156" xlink:href="#DejaVuSans-49"/>
      <use x="159.033203" xlink:href="#DejaVuSans-53"/>
      <use x="222.65625" xlink:href="#DejaVuSans-48"/>
     </g>
    </g>
   </g>
   <g id="text_10">
    <g clip-path="url(#p9201b340d6)">
     <!-- 0.300 -->
     <defs>
      <path d="M 40.578125 39.3125 
Q 47.65625 37.796875 51.625 33 
Q 55.609375 28.21875 55.609375 21.1875 
Q 55.609375 10.40625 48.1875 4.484375 
Q 40.765625 -1.421875 27.09375 -1.421875 
Q 22.515625 -1.421875 17.65625 -0.515625 
Q 12.796875 0.390625 7.625 2.203125 
L 7.625 11.71875 
Q 11.71875 9.328125 16.59375 8.109375 
Q 21.484375 6.890625 26.8125 6.890625 
Q 36.078125 6.890625 40.9375 10.546875 
Q 45.796875 14.203125 45.796875 21.1875 
Q 45.796875 27.640625 41.28125 31.265625 
Q 36.765625 34.90625 28.71875 34.90625 
L 20.21875 34.90625 
L 20.21875 43.015625 
L 29.109375 43.015625 
Q 36.375 43.015625 40.234375 45.921875 
Q 44.09375 48.828125 44.09375 54.296875 
Q 44.09375 59.90625 40.109375 62.90625 
Q 36.140625 65.921875 28.71875 65.921875 
Q 24.65625 65.921875 20.015625 65.03125 
Q 15.375 64.15625 9.8125 62.3125 
L 9.8125 71.09375 
Q 15.4375 72.65625 20.34375 73.4375 
Q 25.25 74.21875 29.59375 74.21875 
Q 40.828125 74.21875 47.359375 69.109375 
Q 53.90625 64.015625 53.90625 55.328125 
Q 53.90625 49.265625 50.4375 45.09375 
Q 46.96875 40.921875 40.578125 39.3125 
z
" id="DejaVuSans-51"/>
     </defs>
     <g style="fill:#365c8d;" transform="translate(73.98575 107.645892)rotate(-297.564503)scale(0.1 -0.1)">
      <use xlink:href="#DejaVuSans-48"/>
      <use x="63.623047" xlink:href="#DejaVuSans-46"/>
      <use x="95.410156" xlink:href="#DejaVuSans-51"/>
      <use x="159.033203" xlink:href="#DejaVuSans-48"/>
      <use x="222.65625" xlink:href="#DejaVuSans-48"/>
     </g>
    </g>
   </g>
   <g id="text_11">
    <g clip-path="url(#p9201b340d6)">
     <!-- 0.450 -->
     <defs>
      <path d="M 37.796875 64.3125 
L 12.890625 25.390625 
L 37.796875 25.390625 
z
M 35.203125 72.90625 
L 47.609375 72.90625 
L 47.609375 25.390625 
L 58.015625 25.390625 
L 58.015625 17.1875 
L 47.609375 17.1875 
L 47.609375 0 
L 37.796875 0 
L 37.796875 17.1875 
L 4.890625 17.1875 
L 4.890625 26.703125 
z
" id="DejaVuSans-52"/>
     </defs>
     <g style="fill:#277f8e;" transform="translate(94.506522 84.313626)rotate(-340.618099)scale(0.1 -0.1)">
      <use xlink:href="#DejaVuSans-48"/>
      <use x="63.623047" xlink:href="#DejaVuSans-46"/>
      <use x="95.410156" xlink:href="#DejaVuSans-52"/>
      <use x="159.033203" xlink:href="#DejaVuSans-53"/>
      <use x="222.65625" xlink:href="#DejaVuSans-48"/>
     </g>
    </g>
   </g>
  </g>
  <g id="axes_2">
   <g id="patch_8">
    <path d="M 44.004375 60.14175 
L 161.004375 60.14175 
L 161.004375 24.14175 
L 44.004375 24.14175 
z
" style="fill:none;"/>
   </g>
   <g id="matplotlib.axis_3">
    <g id="xtick_4">
     <g id="line2d_13">
      <g>
       <use style="stroke:#000000;stroke-width:0.8;" x="63.504375" xlink:href="#mf5bfee9020" y="60.14175"/>
      </g>
     </g>
    </g>
    <g id="xtick_5">
     <g id="line2d_14">
      <g>
       <use style="stroke:#000000;stroke-width:0.8;" x="102.504375" xlink:href="#mf5bfee9020" y="60.14175"/>
      </g>
     </g>
    </g>
    <g id="xtick_6">
     <g id="line2d_15">
      <g>
       <use style="stroke:#000000;stroke-width:0.8;" x="141.504375" xlink:href="#mf5bfee9020" y="60.14175"/>
      </g>
     </g>
    </g>
   </g>
   <g id="matplotlib.axis_4">
    <g id="ytick_4">
     <g id="line2d_16">
      <g>
       <use style="stroke:#000000;stroke-width:0.8;" x="44.004375" xlink:href="#m283f4f6097" y="58.512301"/>
      </g>
     </g>
     <g id="text_12">
      <!-- 0 -->
      <g transform="translate(32.869375 63.071364)scale(0.12 -0.12)">
       <use xlink:href="#DejaVuSans-48"/>
      </g>
     </g>
    </g>
    <g id="ytick_5">
     <g id="line2d_17">
      <g>
       <use style="stroke:#000000;stroke-width:0.8;" x="44.004375" xlink:href="#m283f4f6097" y="25.778114"/>
      </g>
     </g>
     <g id="text_13">
      <!-- 1 -->
      <g transform="translate(32.869375 30.337176)scale(0.12 -0.12)">
       <use xlink:href="#DejaVuSans-49"/>
      </g>
     </g>
    </g>
   </g>
   <g id="LineCollection_9">
    <path clip-path="url(#pceeddddcc2)" d="M 44.004375 54.082211 
L 161.004375 54.082211 
" style="fill:none;stroke:#000000;stroke-dasharray:0.8,1.32;stroke-dashoffset:0;stroke-width:0.8;"/>
   </g>
   <g id="line2d_18">
    <path clip-path="url(#pceeddddcc2)" d="M 44.004375 58.505386 
L 46.144619 58.402114 
L 51.138521 58.022894 
L 53.99218 58.189605 
L 56.845838 58.352129 
L 58.272668 58.270499 
L 60.412912 57.87385 
L 66.833643 56.210854 
L 71.114131 55.474576 
L 72.54096 54.958182 
L 73.96779 54.168786 
L 75.394619 53.071844 
L 76.821448 51.673432 
L 78.248277 50.009942 
L 82.528765 44.674789 
L 86.095838 40.625441 
L 95.370229 29.69785 
L 96.797058 28.369126 
L 98.223887 27.271686 
L 99.650716 26.451867 
L 101.077546 25.946222 
L 102.504375 25.778114 
L 103.931204 25.955691 
L 105.358034 26.470649 
L 106.784863 27.299549 
L 108.211692 28.405603 
L 110.351936 30.481347 
L 113.205595 33.753485 
L 121.053155 43.173222 
L 123.906814 46.429372 
L 128.187302 51.718059 
L 129.614131 53.106234 
L 131.04096 54.194142 
L 132.46779 54.976483 
L 133.894619 55.488104 
L 136.034863 55.914553 
L 139.601936 56.488139 
L 142.455595 57.26275 
L 145.309253 58.041707 
L 147.449497 58.329534 
L 149.589741 58.305534 
L 154.583643 58.032053 
L 157.437302 58.257005 
L 160.29096 58.49285 
L 161.004375 58.505105 
L 161.004375 58.505105 
" style="fill:none;stroke:#1f77b4;stroke-linecap:square;"/>
   </g>
   <g id="patch_9">
    <path d="M 44.004375 60.14175 
L 44.004375 24.14175 
" style="fill:none;stroke:#000000;stroke-linecap:square;stroke-linejoin:miter;stroke-width:0.8;"/>
   </g>
   <g id="patch_10">
    <path d="M 161.004375 60.14175 
L 161.004375 24.14175 
" style="fill:none;stroke:#000000;stroke-linecap:square;stroke-linejoin:miter;stroke-width:0.8;"/>
   </g>
   <g id="patch_11">
    <path d="M 44.004375 60.14175 
L 161.004375 60.14175 
" style="fill:none;stroke:#000000;stroke-linecap:square;stroke-linejoin:miter;stroke-width:0.8;"/>
   </g>
   <g id="patch_12">
    <path d="M 44.004375 24.14175 
L 161.004375 24.14175 
" style="fill:none;stroke:#000000;stroke-linecap:square;stroke-linejoin:miter;stroke-width:0.8;"/>
   </g>
   <g id="text_14">
    <!-- end 1.2 um -->
    <defs>
     <path d="M 56.203125 29.59375 
L 56.203125 25.203125 
L 14.890625 25.203125 
Q 15.484375 15.921875 20.484375 11.0625 
Q 25.484375 6.203125 34.421875 6.203125 
Q 39.59375 6.203125 44.453125 7.46875 
Q 49.3125 8.734375 54.109375 11.28125 
L 54.109375 2.78125 
Q 49.265625 0.734375 44.1875 -0.34375 
Q 39.109375 -1.421875 33.890625 -1.421875 
Q 20.796875 -1.421875 13.15625 6.1875 
Q 5.515625 13.8125 5.515625 26.8125 
Q 5.515625 40.234375 12.765625 48.109375 
Q 20.015625 56 32.328125 56 
Q 43.359375 56 49.78125 48.890625 
Q 56.203125 41.796875 56.203125 29.59375 
z
M 47.21875 32.234375 
Q 47.125 39.59375 43.09375 43.984375 
Q 39.0625 48.390625 32.421875 48.390625 
Q 24.90625 48.390625 20.390625 44.140625 
Q 15.875 39.890625 15.1875 32.171875 
z
" id="DejaVuSans-101"/>
     <path d="M 54.890625 33.015625 
L 54.890625 0 
L 45.90625 0 
L 45.90625 32.71875 
Q 45.90625 40.484375 42.875 44.328125 
Q 39.84375 48.1875 33.796875 48.1875 
Q 26.515625 48.1875 22.3125 43.546875 
Q 18.109375 38.921875 18.109375 30.90625 
L 18.109375 0 
L 9.078125 0 
L 9.078125 54.6875 
L 18.109375 54.6875 
L 18.109375 46.1875 
Q 21.34375 51.125 25.703125 53.5625 
Q 30.078125 56 35.796875 56 
Q 45.21875 56 50.046875 50.171875 
Q 54.890625 44.34375 54.890625 33.015625 
z
" id="DejaVuSans-110"/>
     <path d="M 45.40625 46.390625 
L 45.40625 75.984375 
L 54.390625 75.984375 
L 54.390625 0 
L 45.40625 0 
L 45.40625 8.203125 
Q 42.578125 3.328125 38.25 0.953125 
Q 33.9375 -1.421875 27.875 -1.421875 
Q 17.96875 -1.421875 11.734375 6.484375 
Q 5.515625 14.40625 5.515625 27.296875 
Q 5.515625 40.1875 11.734375 48.09375 
Q 17.96875 56 27.875 56 
Q 33.9375 56 38.25 53.625 
Q 42.578125 51.265625 45.40625 46.390625 
z
M 14.796875 27.296875 
Q 14.796875 17.390625 18.875 11.75 
Q 22.953125 6.109375 30.078125 6.109375 
Q 37.203125 6.109375 41.296875 11.75 
Q 45.40625 17.390625 45.40625 27.296875 
Q 45.40625 37.203125 41.296875 42.84375 
Q 37.203125 48.484375 30.078125 48.484375 
Q 22.953125 48.484375 18.875 42.84375 
Q 14.796875 37.203125 14.796875 27.296875 
z
" id="DejaVuSans-100"/>
    </defs>
    <g transform="translate(61.33725 18.14175)scale(0.144 -0.144)">
     <use xlink:href="#DejaVuSans-101"/>
     <use x="61.523438" xlink:href="#DejaVuSans-110"/>
     <use x="124.902344" xlink:href="#DejaVuSans-100"/>
     <use x="188.378906" xlink:href="#DejaVuSans-32"/>
     <use x="220.166016" xlink:href="#DejaVuSans-49"/>
     <use x="283.789062" xlink:href="#DejaVuSans-46"/>
     <use x="315.576172" xlink:href="#DejaVuSans-50"/>
     <use x="379.199219" xlink:href="#DejaVuSans-32"/>
     <use x="410.986328" xlink:href="#DejaVuSans-117"/>
     <use x="474.365234" xlink:href="#DejaVuSans-109"/>
    </g>
   </g>
  </g>
  <g id="axes_3">
   <g id="patch_13">
    <path d="M 161.904375 178.04175 
L 197.904375 178.04175 
L 197.904375 61.04175 
L 161.904375 61.04175 
z
" style="fill:none;"/>
   </g>
   <g id="matplotlib.axis_5">
    <g id="xtick_7">
     <g id="line2d_19">
      <g>
       <use style="stroke:#000000;stroke-width:0.8;" x="163.540738" xlink:href="#mf5bfee9020" y="178.04175"/>
      </g>
     </g>
     <g id="text_15">
      <!-- 0 -->
      <g transform="translate(159.723238 190.659875)scale(0.12 -0.12)">
       <use xlink:href="#DejaVuSans-48"/>
      </g>
     </g>
    </g>
    <g id="xtick_8">
     <g id="line2d_20">
      <g>
       <use style="stroke:#000000;stroke-width:0.8;" x="196.268011" xlink:href="#mf5bfee9020" y="178.04175"/>
      </g>
     </g>
     <g id="text_16">
      <!-- 1 -->
      <g transform="translate(192.450511 190.659875)scale(0.12 -0.12)">
       <use xlink:href="#DejaVuSans-49"/>
      </g>
     </g>
    </g>
   </g>
   <g id="matplotlib.axis_6">
    <g id="ytick_6">
     <g id="line2d_21">
      <g>
       <use style="stroke:#000000;stroke-width:0.8;" x="161.904375" xlink:href="#m283f4f6097" y="158.54175"/>
      </g>
     </g>
    </g>
    <g id="ytick_7">
     <g id="line2d_22">
      <g>
       <use style="stroke:#000000;stroke-width:0.8;" x="161.904375" xlink:href="#m283f4f6097" y="119.54175"/>
      </g>
     </g>
    </g>
    <g id="ytick_8">
     <g id="line2d_23">
      <g>
       <use style="stroke:#000000;stroke-width:0.8;" x="161.904375" xlink:href="#m283f4f6097" y="80.54175"/>
      </g>
     </g>
    </g>
   </g>
   <g id="LineCollection_10">
    <path clip-path="url(#p49cc23771e)" d="M 167.969893 178.04175 
L 167.969893 61.04175 
" style="fill:none;stroke:#000000;stroke-dasharray:0.8,1.32;stroke-dashoffset:0;stroke-width:0.8;"/>
   </g>
   <g id="line2d_24">
    <path clip-path="url(#p49cc23771e)" d="M 163.540739 178.04175 
L 163.562139 177.074808 
L 163.624513 176.107866 
L 163.722541 175.140924 
L 163.84786 174.173981 
L 163.989791 173.207039 
L 164.13624 172.240097 
L 164.274745 171.273155 
L 164.393541 170.306213 
L 164.482575 169.339271 
L 164.534355 168.372329 
L 164.544605 167.405386 
L 164.512651 166.438444 
L 164.441441 165.471502 
L 164.337346 164.50456 
L 164.20958 163.537618 
L 164.069441 162.570676 
L 163.929339 161.603733 
L 163.801737 160.636791 
L 163.698092 159.669849 
L 163.627872 158.702907 
L 163.597753 157.735965 
L 163.611049 156.769023 
L 163.667428 155.802081 
L 163.762952 154.835138 
L 163.890412 153.868196 
L 164.039959 152.901254 
L 164.254944 151.934312 
L 164.504705 150.96737 
L 164.697973 150.000428 
L 164.770394 149.033486 
L 164.634228 148.066543 
L 164.404211 147.099601 
L 164.26147 146.132659 
L 164.375647 145.165717 
L 164.833627 144.198775 
L 165.607794 143.231833 
L 166.577643 142.26489 
L 167.594003 141.297948 
L 168.555806 140.331006 
L 169.465006 139.364064 
L 170.43615 138.397122 
L 171.301734 137.43018 
L 172.075366 136.463238 
L 172.738967 135.496295 
L 173.308832 134.529353 
L 173.908261 133.562411 
L 174.560067 132.595469 
L 175.264871 131.628527 
L 176.022286 130.661585 
L 176.830914 129.694643 
L 177.688194 128.7277 
L 178.590713 127.760758 
L 179.534048 126.793816 
L 180.512844 125.826874 
L 181.521203 124.859932 
L 182.552377 123.89299 
L 183.599147 122.926048 
L 184.653754 121.959105 
L 185.708361 120.992163 
L 186.754743 120.025221 
L 187.784519 119.058279 
L 188.789465 118.091337 
L 189.761432 117.124395 
L 190.692196 116.157452 
L 191.574152 115.19051 
L 192.399696 114.223568 
L 193.161689 113.256626 
L 193.853457 112.289684 
L 194.468638 111.322742 
L 195.001567 110.3558 
L 195.446891 109.388857 
L 195.799952 108.421915 
L 196.056717 107.454973 
L 196.213617 106.488031 
L 196.268011 105.521089 
L 196.217807 104.554147 
L 196.061684 103.587205 
L 195.799409 102.620262 
L 195.431216 101.65332 
L 194.958579 100.686378 
L 194.383825 99.719436 
L 193.710215 98.752494 
L 192.942092 97.785552 
L 192.085044 96.81861 
L 191.145357 95.851667 
L 190.130634 94.884725 
L 189.049411 93.917783 
L 187.911078 92.950841 
L 186.725955 91.983899 
L 185.505059 91.016957 
L 184.260109 90.050014 
L 183.003054 89.083072 
L 181.746309 88.11613 
L 180.502135 87.149188 
L 179.282714 86.182246 
L 178.099841 85.215304 
L 176.964379 84.248362 
L 175.886571 83.281419 
L 174.87534 82.314477 
L 173.93829 81.347535 
L 173.081553 80.380593 
L 172.309551 79.413651 
L 171.624766 78.446709 
L 170.982651 77.479767 
L 170.320494 76.512824 
L 169.660485 75.545882 
L 169.138435 74.57894 
L 168.884634 73.611998 
L 168.77541 72.645056 
L 168.453247 71.678114 
L 167.739581 70.711171 
L 166.684369 69.744229 
L 165.521608 68.777287 
L 164.55072 67.810345 
L 163.996396 66.843403 
L 163.980695 65.876461 
L 164.434768 64.909519 
L 164.678605 63.942576 
L 164.38395 62.975634 
L 163.820363 62.008692 
L 163.540739 61.04175 
" style="fill:none;stroke:#1f77b4;stroke-linecap:square;"/>
   </g>
   <g id="patch_14">
    <path d="M 161.904375 178.04175 
L 161.904375 61.04175 
" style="fill:none;stroke:#000000;stroke-linecap:square;stroke-linejoin:miter;stroke-width:0.8;"/>
   </g>
   <g id="patch_15">
    <path d="M 197.904375 178.04175 
L 197.904375 61.04175 
" style="fill:none;stroke:#000000;stroke-linecap:square;stroke-linejoin:miter;stroke-width:0.8;"/>
   </g>
   <g id="patch_16">
    <path d="M 161.904375 178.04175 
L 197.904375 178.04175 
" style="fill:none;stroke:#000000;stroke-linecap:square;stroke-linejoin:miter;stroke-width:0.8;"/>
   </g>
   <g id="patch_17">
    <path d="M 161.904375 61.04175 
L 197.904375 61.04175 
" style="fill:none;stroke:#000000;stroke-linecap:square;stroke-linejoin:miter;stroke-width:0.8;"/>
   </g>
  </g>
 </g>
 <defs>
  <clipPath id="p9201b340d6">
   <rect height="117" width="117" x="44.004375" y="61.04175"/>
  </clipPath>
  <clipPath id="pceeddddcc2">
   <rect height="36" width="117" x="44.004375" y="24.14175"/>
  </clipPath>
  <clipPath id="p49cc23771e">
   <rect height="117" width="36" x="161.904375" y="61.04175"/>
  </clipPath>
 </defs>
</svg>
