<?xml version="1.0" encoding="utf-8" standalone="no"?>
<!DOCTYPE svg PUBLIC "-//W3C//DTD SVG 1.1//EN"
  "http://www.w3.org/Graphics/SVG/1.1/DTD/svg11.dtd">
<!-- Created with matplotlib (https://matplotlib.org/) -->
<svg height="215.96925pt" version="1.1" viewBox="0 0 211.009341 215.96925" width="211.009341pt" xmlns="http://www.w3.org/2000/svg" xmlns:xlink="http://www.w3.org/1999/xlink">
 <defs>
  <style type="text/css">
*{stroke-linecap:butt;stroke-linejoin:round;white-space:pre;}
  </style>
 </defs>
 <g id="figure_1">
  <g id="patch_1">
   <path d="M 0 215.96925 
L 211.009341 215.96925 
L 211.009341 0 
L 0 0 
z
" style="fill:none;"/>
  </g>
  <g id="axes_1">
   <g id="patch_2">
    <path d="M 44.004375 178.04175 
L 161.004375 178.04175 
L 161.004375 61.04175 
L 44.004375 61.04175 
z
" style="fill:none;"/>
   </g>
   <g id="patch_3">
    <path clip-path="url(#pea0769b81a)" d="M 102.504375 119.54175 
L 102.504375 119.54175 
L 102.504375 103.94175 
L 102.504375 103.94175 
z
" style="fill:none;stroke:#ff0000;stroke-dasharray:3.7,1.6;stroke-dashoffset:0;stroke-linejoin:miter;"/>
   </g>
   <g id="matplotlib.axis_1">
    <g id="xtick_1">
     <g id="line2d_1">
      <defs>
       <path d="M 0 0 
L 0 -3.5 
" id="m20cec4363a" style="stroke:#000000;stroke-width:0.8;"/>
      </defs>
      <g>
       <use style="stroke:#000000;stroke-width:0.8;" x="63.504375" xlink:href="#m20cec4363a" y="178.04175"/>
      </g>
     </g>
     <g id="line2d_2">
      <defs>
       <path d="M 0 0 
L 0 3.5 
" id="m1bc053ddf5" style="stroke:#000000;stroke-width:0.8;"/>
      </defs>
      <g>
       <use style="stroke:#000000;stroke-width:0.8;" x="63.504375" xlink:href="#m1bc053ddf5" y="61.04175"/>
      </g>
     </g>
     <g id="text_1">
      <!-- −2 -->
      <defs>
       <path d="M 10.59375 35.5 
L 73.1875 35.5 
L 73.1875 27.203125 
L 10.59375 27.203125 
z
" id="DejaVuSans-8722"/>
       <path d="M 19.1875 8.296875 
L 53.609375 8.296875 
L 53.609375 0 
L 7.328125 0 
L 7.328125 8.296875 
Q 12.9375 14.109375 22.625 23.890625 
Q 32.328125 33.6875 34.8125 36.53125 
Q 39.546875 41.84375 41.421875 45.53125 
Q 43.3125 49.21875 43.3125 52.78125 
Q 43.3125 58.59375 39.234375 62.25 
Q 35.15625 65.921875 28.609375 65.921875 
Q 23.96875 65.921875 18.8125 64.3125 
Q 13.671875 62.703125 7.8125 59.421875 
L 7.8125 69.390625 
Q 13.765625 71.78125 18.9375 73 
Q 24.125 74.21875 28.421875 74.21875 
Q 39.75 74.21875 46.484375 68.546875 
Q 53.21875 62.890625 53.21875 53.421875 
Q 53.21875 48.921875 51.53125 44.890625 
Q 49.859375 40.875 45.40625 35.40625 
Q 44.1875 33.984375 37.640625 27.21875 
Q 31.109375 20.453125 19.1875 8.296875 
z
" id="DejaVuSans-50"/>
      </defs>
      <g transform="translate(54.659063 190.659875)scale(0.12 -0.12)">
       <use xlink:href="#DejaVuSans-8722"/>
       <use x="83.789062" xlink:href="#DejaVuSans-50"/>
      </g>
     </g>
    </g>
    <g id="xtick_2">
     <g id="line2d_3">
      <g>
       <use style="stroke:#000000;stroke-width:0.8;" x="102.504375" xlink:href="#m20cec4363a" y="178.04175"/>
      </g>
     </g>
     <g id="line2d_4">
      <g>
       <use style="stroke:#000000;stroke-width:0.8;" x="102.504375" xlink:href="#m1bc053ddf5" y="61.04175"/>
      </g>
     </g>
     <g id="text_2">
      <!-- 0 -->
      <defs>
       <path d="M 31.78125 66.40625 
Q 24.171875 66.40625 20.328125 58.90625 
Q 16.5 51.421875 16.5 36.375 
Q 16.5 21.390625 20.328125 13.890625 
Q 24.171875 6.390625 31.78125 6.390625 
Q 39.453125 6.390625 43.28125 13.890625 
Q 47.125 21.390625 47.125 36.375 
Q 47.125 51.421875 43.28125 58.90625 
Q 39.453125 66.40625 31.78125 66.40625 
z
M 31.78125 74.21875 
Q 44.046875 74.21875 50.515625 64.515625 
Q 56.984375 54.828125 56.984375 36.375 
Q 56.984375 17.96875 50.515625 8.265625 
Q 44.046875 -1.421875 31.78125 -1.421875 
Q 19.53125 -1.421875 13.0625 8.265625 
Q 6.59375 17.96875 6.59375 36.375 
Q 6.59375 54.828125 13.0625 64.515625 
Q 19.53125 74.21875 31.78125 74.21875 
z
" id="DejaVuSans-48"/>
      </defs>
      <g transform="translate(98.686875 190.659875)scale(0.12 -0.12)">
       <use xlink:href="#DejaVuSans-48"/>
      </g>
     </g>
    </g>
    <g id="xtick_3">
     <g id="line2d_5">
      <g>
       <use style="stroke:#000000;stroke-width:0.8;" x="141.504375" xlink:href="#m20cec4363a" y="178.04175"/>
      </g>
     </g>
     <g id="line2d_6">
      <g>
       <use style="stroke:#000000;stroke-width:0.8;" x="141.504375" xlink:href="#m1bc053ddf5" y="61.04175"/>
      </g>
     </g>
     <g id="text_3">
      <!-- 2 -->
      <g transform="translate(137.686875 190.659875)scale(0.12 -0.12)">
       <use xlink:href="#DejaVuSans-50"/>
      </g>
     </g>
    </g>
    <g id="text_4">
     <!-- Y axis (um) -->
     <defs>
      <path d="M -0.203125 72.90625 
L 10.40625 72.90625 
L 30.609375 42.921875 
L 50.6875 72.90625 
L 61.28125 72.90625 
L 35.5 34.71875 
L 35.5 0 
L 25.59375 0 
L 25.59375 34.71875 
z
" id="DejaVuSans-89"/>
      <path id="DejaVuSans-32"/>
      <path d="M 34.28125 27.484375 
Q 23.390625 27.484375 19.1875 25 
Q 14.984375 22.515625 14.984375 16.5 
Q 14.984375 11.71875 18.140625 8.90625 
Q 21.296875 6.109375 26.703125 6.109375 
Q 34.1875 6.109375 38.703125 11.40625 
Q 43.21875 16.703125 43.21875 25.484375 
L 43.21875 27.484375 
z
M 52.203125 31.203125 
L 52.203125 0 
L 43.21875 0 
L 43.21875 8.296875 
Q 40.140625 3.328125 35.546875 0.953125 
Q 30.953125 -1.421875 24.3125 -1.421875 
Q 15.921875 -1.421875 10.953125 3.296875 
Q 6 8.015625 6 15.921875 
Q 6 25.140625 12.171875 29.828125 
Q 18.359375 34.515625 30.609375 34.515625 
L 43.21875 34.515625 
L 43.21875 35.40625 
Q 43.21875 41.609375 39.140625 45 
Q 35.0625 48.390625 27.6875 48.390625 
Q 23 48.390625 18.546875 47.265625 
Q 14.109375 46.140625 10.015625 43.890625 
L 10.015625 52.203125 
Q 14.9375 54.109375 19.578125 55.046875 
Q 24.21875 56 28.609375 56 
Q 40.484375 56 46.34375 49.84375 
Q 52.203125 43.703125 52.203125 31.203125 
z
" id="DejaVuSans-97"/>
      <path d="M 54.890625 54.6875 
L 35.109375 28.078125 
L 55.90625 0 
L 45.3125 0 
L 29.390625 21.484375 
L 13.484375 0 
L 2.875 0 
L 24.125 28.609375 
L 4.6875 54.6875 
L 15.28125 54.6875 
L 29.78125 35.203125 
L 44.28125 54.6875 
z
" id="DejaVuSans-120"/>
      <path d="M 9.421875 54.6875 
L 18.40625 54.6875 
L 18.40625 0 
L 9.421875 0 
z
M 9.421875 75.984375 
L 18.40625 75.984375 
L 18.40625 64.59375 
L 9.421875 64.59375 
z
" id="DejaVuSans-105"/>
      <path d="M 44.28125 53.078125 
L 44.28125 44.578125 
Q 40.484375 46.53125 36.375 47.5 
Q 32.28125 48.484375 27.875 48.484375 
Q 21.1875 48.484375 17.84375 46.4375 
Q 14.5 44.390625 14.5 40.28125 
Q 14.5 37.15625 16.890625 35.375 
Q 19.28125 33.59375 26.515625 31.984375 
L 29.59375 31.296875 
Q 39.15625 29.25 43.1875 25.515625 
Q 47.21875 21.78125 47.21875 15.09375 
Q 47.21875 7.46875 41.1875 3.015625 
Q 35.15625 -1.421875 24.609375 -1.421875 
Q 20.21875 -1.421875 15.453125 -0.5625 
Q 10.6875 0.296875 5.421875 2 
L 5.421875 11.28125 
Q 10.40625 8.6875 15.234375 7.390625 
Q 20.0625 6.109375 24.8125 6.109375 
Q 31.15625 6.109375 34.5625 8.28125 
Q 37.984375 10.453125 37.984375 14.40625 
Q 37.984375 18.0625 35.515625 20.015625 
Q 33.0625 21.96875 24.703125 23.78125 
L 21.578125 24.515625 
Q 13.234375 26.265625 9.515625 29.90625 
Q 5.8125 33.546875 5.8125 39.890625 
Q 5.8125 47.609375 11.28125 51.796875 
Q 16.75 56 26.8125 56 
Q 31.78125 56 36.171875 55.265625 
Q 40.578125 54.546875 44.28125 53.078125 
z
" id="DejaVuSans-115"/>
      <path d="M 31 75.875 
Q 24.46875 64.65625 21.28125 53.65625 
Q 18.109375 42.671875 18.109375 31.390625 
Q 18.109375 20.125 21.3125 9.0625 
Q 24.515625 -2 31 -13.1875 
L 23.1875 -13.1875 
Q 15.875 -1.703125 12.234375 9.375 
Q 8.59375 20.453125 8.59375 31.390625 
Q 8.59375 42.28125 12.203125 53.3125 
Q 15.828125 64.359375 23.1875 75.875 
z
" id="DejaVuSans-40"/>
      <path d="M 8.5 21.578125 
L 8.5 54.6875 
L 17.484375 54.6875 
L 17.484375 21.921875 
Q 17.484375 14.15625 20.5 10.265625 
Q 23.53125 6.390625 29.59375 6.390625 
Q 36.859375 6.390625 41.078125 11.03125 
Q 45.3125 15.671875 45.3125 23.6875 
L 45.3125 54.6875 
L 54.296875 54.6875 
L 54.296875 0 
L 45.3125 0 
L 45.3125 8.40625 
Q 42.046875 3.421875 37.71875 1 
Q 33.40625 -1.421875 27.6875 -1.421875 
Q 18.265625 -1.421875 13.375 4.4375 
Q 8.5 10.296875 8.5 21.578125 
z
M 31.109375 56 
z
" id="DejaVuSans-117"/>
      <path d="M 52 44.1875 
Q 55.375 50.25 60.0625 53.125 
Q 64.75 56 71.09375 56 
Q 79.640625 56 84.28125 50.015625 
Q 88.921875 44.046875 88.921875 33.015625 
L 88.921875 0 
L 79.890625 0 
L 79.890625 32.71875 
Q 79.890625 40.578125 77.09375 44.375 
Q 74.3125 48.1875 68.609375 48.1875 
Q 61.625 48.1875 57.5625 43.546875 
Q 53.515625 38.921875 53.515625 30.90625 
L 53.515625 0 
L 44.484375 0 
L 44.484375 32.71875 
Q 44.484375 40.625 41.703125 44.40625 
Q 38.921875 48.1875 33.109375 48.1875 
Q 26.21875 48.1875 22.15625 43.53125 
Q 18.109375 38.875 18.109375 30.90625 
L 18.109375 0 
L 9.078125 0 
L 9.078125 54.6875 
L 18.109375 54.6875 
L 18.109375 46.1875 
Q 21.1875 51.21875 25.484375 53.609375 
Q 29.78125 56 35.6875 56 
Q 41.65625 56 45.828125 52.96875 
Q 50 49.953125 52 44.1875 
z
" id="DejaVuSans-109"/>
      <path d="M 8.015625 75.875 
L 15.828125 75.875 
Q 23.140625 64.359375 26.78125 53.3125 
Q 30.421875 42.28125 30.421875 31.390625 
Q 30.421875 20.453125 26.78125 9.375 
Q 23.140625 -1.703125 15.828125 -13.1875 
L 8.015625 -13.1875 
Q 14.5 -2 17.703125 9.0625 
Q 20.90625 20.125 20.90625 31.390625 
Q 20.90625 42.671875 17.703125 53.65625 
Q 14.5 64.65625 8.015625 75.875 
z
" id="DejaVuSans-41"/>
     </defs>
     <g transform="translate(68.676563 206.273625)scale(0.12 -0.12)">
      <use xlink:href="#DejaVuSans-89"/>
      <use x="61.083984" xlink:href="#DejaVuSans-32"/>
      <use x="92.871094" xlink:href="#DejaVuSans-97"/>
      <use x="154.150391" xlink:href="#DejaVuSans-120"/>
      <use x="213.330078" xlink:href="#DejaVuSans-105"/>
      <use x="241.113281" xlink:href="#DejaVuSans-115"/>
      <use x="293.212891" xlink:href="#DejaVuSans-32"/>
      <use x="325" xlink:href="#DejaVuSans-40"/>
      <use x="364.013672" xlink:href="#DejaVuSans-117"/>
      <use x="427.392578" xlink:href="#DejaVuSans-109"/>
      <use x="524.804688" xlink:href="#DejaVuSans-41"/>
     </g>
    </g>
   </g>
   <g id="matplotlib.axis_2">
    <g id="ytick_1">
     <g id="line2d_7">
      <defs>
       <path d="M 0 0 
L 3.5 0 
" id="m5fd557878f" style="stroke:#000000;stroke-width:0.8;"/>
      </defs>
      <g>
       <use style="stroke:#000000;stroke-width:0.8;" x="44.004375" xlink:href="#m5fd557878f" y="158.54175"/>
      </g>
     </g>
     <g id="line2d_8">
      <defs>
       <path d="M 0 0 
L -3.5 0 
" id="mb67a589d97" style="stroke:#000000;stroke-width:0.8;"/>
      </defs>
      <g>
       <use style="stroke:#000000;stroke-width:0.8;" x="161.004375" xlink:href="#mb67a589d97" y="158.54175"/>
      </g>
     </g>
     <g id="text_5">
      <!-- −2 -->
      <g transform="translate(22.81375 163.100812)scale(0.12 -0.12)">
       <use xlink:href="#DejaVuSans-8722"/>
       <use x="83.789062" xlink:href="#DejaVuSans-50"/>
      </g>
     </g>
    </g>
    <g id="ytick_2">
     <g id="line2d_9">
      <g>
       <use style="stroke:#000000;stroke-width:0.8;" x="44.004375" xlink:href="#m5fd557878f" y="119.54175"/>
      </g>
     </g>
     <g id="line2d_10">
      <g>
       <use style="stroke:#000000;stroke-width:0.8;" x="161.004375" xlink:href="#mb67a589d97" y="119.54175"/>
      </g>
     </g>
     <g id="text_6">
      <!-- 0 -->
      <g transform="translate(32.869375 124.100812)scale(0.12 -0.12)">
       <use xlink:href="#DejaVuSans-48"/>
      </g>
     </g>
    </g>
    <g id="ytick_3">
     <g id="line2d_11">
      <g>
       <use style="stroke:#000000;stroke-width:0.8;" x="44.004375" xlink:href="#m5fd557878f" y="80.54175"/>
      </g>
     </g>
     <g id="line2d_12">
      <g>
       <use style="stroke:#000000;stroke-width:0.8;" x="161.004375" xlink:href="#mb67a589d97" y="80.54175"/>
      </g>
     </g>
     <g id="text_7">
      <!-- 2 -->
      <g transform="translate(32.869375 85.100812)scale(0.12 -0.12)">
       <use xlink:href="#DejaVuSans-50"/>
      </g>
     </g>
    </g>
    <g id="text_8">
     <!-- Z axis (um) -->
     <defs>
      <path d="M 5.609375 72.90625 
L 62.890625 72.90625 
L 62.890625 65.375 
L 16.796875 8.296875 
L 64.015625 8.296875 
L 64.015625 0 
L 4.5 0 
L 4.5 7.515625 
L 50.59375 64.59375 
L 5.609375 64.59375 
z
" id="DejaVuSans-90"/>
     </defs>
     <g transform="translate(16.318125 153.814875)rotate(-90)scale(0.12 -0.12)">
      <use xlink:href="#DejaVuSans-90"/>
      <use x="68.505859" xlink:href="#DejaVuSans-32"/>
      <use x="100.292969" xlink:href="#DejaVuSans-97"/>
      <use x="161.572266" xlink:href="#DejaVuSans-120"/>
      <use x="220.751953" xlink:href="#DejaVuSans-105"/>
      <use x="248.535156" xlink:href="#DejaVuSans-115"/>
      <use x="300.634766" xlink:href="#DejaVuSans-32"/>
      <use x="332.421875" xlink:href="#DejaVuSans-40"/>
      <use x="371.435547" xlink:href="#DejaVuSans-117"/>
      <use x="434.814453" xlink:href="#DejaVuSans-109"/>
      <use x="532.226562" xlink:href="#DejaVuSans-41"/>
     </g>
    </g>
   </g>
   <g id="LineCollection_1">
    <path clip-path="url(#pea0769b81a)" d="M 44.004375 178.04175 
" style="fill:none;stroke:#440154;stroke-width:0.8;"/>
    <path clip-path="url(#pea0769b81a)" d="M 44.004375 61.04175 
" style="fill:none;stroke:#440154;stroke-width:0.8;"/>
    <path clip-path="url(#pea0769b81a)" d="M 102.326563 61.04175 
L 102.682187 61.04175 
" style="fill:none;stroke:#440154;stroke-width:0.8;"/>
    <path clip-path="url(#pea0769b81a)" d="M 102.682187 178.04175 
L 102.326563 178.04175 
" style="fill:none;stroke:#440154;stroke-width:0.8;"/>
    <path clip-path="url(#pea0769b81a)" d="M 161.004375 178.04175 
" style="fill:none;stroke:#440154;stroke-width:0.8;"/>
    <path clip-path="url(#pea0769b81a)" d="M 161.004375 61.04175 
" style="fill:none;stroke:#440154;stroke-width:0.8;"/>
   </g>
   <g id="LineCollection_2">
    <path clip-path="url(#pea0769b81a)" d="M 44.004375 73.849397 
L 45.782491 73.971754 
L 47.916229 74.379159 
L 49.694345 74.69979 
L 50.405591 74.678637 
L 51.47246 74.398519 
L 52.539329 73.885486 
L 54.673068 72.510134 
L 56.806807 71.202301 
L 58.940545 70.18886 
L 61.074284 69.466121 
L 62.496776 69.127671 
L 64.986138 68.832477 
L 69.964861 68.515967 
L 74.943585 68.485131 
L 79.211062 68.649296 
L 83.478539 69.07114 
L 85.256655 69.471586 
L 87.746016 70.350411 
L 89.879755 71.423105 
L 94.858478 74.407484 
L 95.925348 74.676622 
L 96.992217 74.644857 
L 101.615317 73.85401 
L 103.393433 73.869248 
L 105.171548 74.084356 
L 108.727779 74.708341 
L 109.794649 74.514504 
L 110.861518 74.079785 
L 112.435848 73.113554 
L 112.435848 73.113554 
" style="fill:none;stroke:#46327e;stroke-width:0.8;"/>
    <path clip-path="url(#pea0769b81a)" d="M 148.234792 71.237509 
L 148.557566 71.423105 
L 148.91319 71.644798 
L 148.965235 71.678114 
L 149.268813 71.849703 
L 149.624436 72.063744 
L 149.980059 72.291746 
L 150.335682 72.532302 
L 150.500528 72.645056 
L 150.691305 72.768542 
L 151.046928 72.999924 
L 151.402551 73.234981 
L 151.758174 73.469173 
L 151.984749 73.611998 
L 152.113797 73.694049 
L 152.469421 73.902653 
L 152.825044 74.094679 
L 153.180667 74.264542 
L 153.53629 74.407484 
L 153.891913 74.520062 
L 154.152792 74.57894 
L 154.247536 74.60912 
L 154.603159 74.676622 
L 154.958782 74.701805 
L 155.314405 74.689193 
L 155.670028 74.644857 
L 156.007918 74.57894 
L 156.025652 74.576479 
L 156.381275 74.512983 
L 156.736898 74.440616 
L 157.092521 74.363413 
L 157.448144 74.284925 
L 157.803767 74.208059 
L 158.15939 74.135144 
L 158.515013 74.067964 
L 158.870636 74.007865 
L 159.226259 73.955837 
L 159.581883 73.912551 
L 159.937506 73.87851 
L 160.293129 73.85401 
L 160.648752 73.839243 
L 161.004375 73.834299 
" style="fill:none;stroke:#46327e;stroke-width:0.8;"/>
    <path clip-path="url(#pea0769b81a)" d="M 161.004375 143.257239 
L 160.648752 143.247787 
L 160.448378 143.231833 
L 160.293129 143.218886 
L 159.937506 143.16971 
L 159.581883 143.101199 
L 159.226259 143.013646 
L 158.870636 142.907721 
L 158.515013 142.784293 
L 158.15939 142.644799 
L 157.803767 142.49115 
L 157.448144 142.326129 
L 157.319729 142.26489 
L 157.092521 142.142292 
L 156.736898 141.948906 
L 156.381275 141.758704 
L 156.025652 141.579777 
L 155.670028 141.421674 
L 155.322696 141.297948 
L 155.314405 141.294428 
L 154.958782 141.196318 
L 154.603159 141.160192 
L 154.247536 141.197258 
L 153.945122 141.297948 
L 153.891913 141.313147 
L 153.53629 141.486907 
L 153.180667 141.731817 
L 152.825044 142.042042 
L 152.610696 142.26489 
L 152.469421 142.392654 
L 152.113797 142.757505 
L 151.758174 143.147642 
L 151.686565 143.231833 
L 151.402551 143.529554 
L 151.046928 143.907021 
L 150.769644 144.198775 
L 150.691305 144.274887 
L 150.335682 144.621207 
L 149.980059 144.94874 
L 149.732066 145.165717 
L 149.624436 145.256126 
L 149.268813 145.543692 
L 148.91319 145.807452 
L 148.557566 146.047733 
L 148.42326 146.132659 
L 148.201943 146.273992 
L 147.84632 146.483329 
L 147.490697 146.671777 
L 147.135074 146.840921 
L 147.080305 146.864236 
" style="fill:none;stroke:#46327e;stroke-width:0.8;"/>
    <path clip-path="url(#pea0769b81a)" d="M 111.665562 142.868933 
L 110.505895 141.738275 
L 109.738949 141.297948 
L 109.083402 141.154229 
L 108.33153 141.297948 
L 107.305287 141.739744 
L 105.171548 142.761185 
L 103.749056 143.145913 
L 102.326563 143.257239 
L 101.259694 143.16971 
L 99.837202 142.784293 
L 98.414709 142.142292 
L 96.636594 141.294428 
L 95.925348 141.160192 
L 95.214101 141.313147 
L 94.502855 141.731817 
L 93.435986 142.757505 
L 91.302247 144.94874 
L 89.879755 146.047733 
L 88.457263 146.840921 
L 86.679147 147.492934 
L 84.901032 147.865375 
L 82.767293 148.047575 
L 78.144193 148.137009 
L 62.852399 148.000062 
L 60.718661 147.735303 
L 58.940545 147.25789 
L 57.16243 146.480099 
L 55.739937 145.545561 
L 54.231633 144.198775 
L 51.828083 141.738275 
L 51.061137 141.297948 
L 50.405591 141.154229 
L 49.653719 141.297948 
L 48.627475 141.739744 
L 46.493737 142.761185 
L 45.071244 143.145913 
L 44.004375 143.234349 
L 44.004375 143.234349 
" style="fill:none;stroke:#46327e;stroke-width:0.8;"/>
   </g>
   <g id="LineCollection_3">
    <path clip-path="url(#pea0769b81a)" d="M 44.004375 92.387541 
L 44.359998 92.648196 
L 44.497324 92.950841 
L 44.715621 93.586045 
L 44.784125 93.917783 
L 44.923869 94.884725 
L 45.008234 95.851667 
L 45.043096 96.81861 
L 45.033686 97.785552 
L 44.98454 98.752494 
L 44.900101 99.719436 
L 44.784162 100.686378 
L 44.715621 101.146316 
L 44.591768 101.65332 
L 44.359998 102.463099 
L 44.226039 102.620262 
L 44.004375 102.850754 
" style="fill:none;stroke:#365c8d;stroke-width:0.8;"/>
    <path clip-path="url(#pea0769b81a)" d="M 161.004375 104.450354 
L 160.648752 104.090062 
L 160.482202 103.587205 
L 160.293129 102.957705 
L 160.23137 102.620262 
L 160.0751 101.65332 
L 159.942586 100.686378 
L 159.937506 100.639591 
L 159.864198 99.719436 
L 159.809356 98.752494 
L 159.779781 97.785552 
L 159.778545 96.81861 
L 159.808987 95.851667 
L 159.874994 94.884725 
L 159.937506 94.311187 
L 159.996947 93.917783 
L 160.202789 92.950841 
L 160.293129 92.628527 
L 160.594962 91.983899 
L 160.648752 91.891969 
L 161.004375 91.688887 
" style="fill:none;stroke:#365c8d;stroke-width:0.8;"/>
    <path clip-path="url(#pea0769b81a)" d="M 56.554823 141.633638 
L 56.09556 140.804535 
L 55.533856 139.364064 
L 55.178974 137.43018 
L 55.054371 134.529353 
L 54.507315 111.322742 
L 53.567243 92.950841 
L 53.65323 88.11613 
L 53.961822 84.016526 
L 54.433698 80.380593 
L 55.028691 77.337056 
L 55.384314 76.279575 
L 55.739937 75.533846 
L 56.464433 74.57894 
L 57.873676 73.530889 
L 59.296168 72.765219 
L 61.429907 71.982917 
L 63.005853 71.678114 
L 65.341761 71.40822 
L 68.897992 71.226172 
L 74.943585 71.188149 
L 79.922308 71.332498 
L 83.122916 71.650072 
L 85.256655 72.090693 
L 86.729391 72.645056 
L 88.101639 73.323411 
L 89.524132 74.306934 
L 89.879755 74.620281 
L 90.591001 75.568961 
L 91.035038 76.512824 
L 91.540402 78.446709 
L 92.162356 82.314477 
L 92.553975 86.182246 
L 92.733937 90.050014 
L 92.722133 94.884725 
L 92.474629 100.686378 
L 91.523545 118.091337 
L 91.367719 126.793816 
L 91.214192 136.463238 
L 91.028561 138.397122 
L 90.433537 140.38156 
L 90.433537 140.38156 
" style="fill:none;stroke:#365c8d;stroke-width:0.8;"/>
    <path clip-path="url(#pea0769b81a)" d="M 101.186386 99.719436 
L 101.131545 98.752494 
L 101.101969 97.785552 
L 101.100733 96.81861 
L 101.131176 95.851667 
L 101.197182 94.884725 
L 101.259694 94.311187 
L 101.319136 93.917783 
L 101.524978 92.950841 
L 101.615317 92.628527 
L 101.91715 91.983899 
L 101.97094 91.891969 
L 102.326563 91.688887 
L 102.498333 91.983899 
L 102.682187 92.387541 
L 103.03781 92.648196 
L 103.175136 92.950841 
L 103.393433 93.586045 
L 103.461937 93.917783 
L 103.601681 94.884725 
L 103.686045 95.851667 
L 103.720908 96.81861 
L 103.711497 97.785552 
L 103.662352 98.752494 
L 103.577912 99.719436 
L 103.461973 100.686378 
L 103.393433 101.146316 
L 103.26958 101.65332 
L 103.03781 102.463099 
L 102.90385 102.620262 
L 102.682187 102.850754 
L 102.522522 103.587205 
L 102.326563 104.450354 
L 101.97094 104.090062 
L 101.80439 103.587205 
L 101.615317 102.957705 
L 101.553559 102.620262 
L 101.397289 101.65332 
L 101.264774 100.686378 
L 101.259694 100.639591 
L 101.186386 99.719436 
" style="fill:none;stroke:#365c8d;stroke-width:0.8;"/>
    <path clip-path="url(#pea0769b81a)" d="M 149.977508 133.099581 
L 149.827237 137.43018 
L 149.624436 138.733496 
L 149.135201 140.331006 
L 148.557566 141.475254 
L 147.84632 142.481528 
L 146.779451 143.527202 
L 145.712582 144.241514 
L 144.290089 144.865464 
L 142.867597 145.235461 
L 141.089481 145.454615 
L 137.888873 145.6072 
L 131.132035 145.628653 
L 123.663949 145.519047 
L 121.174588 145.286136 
L 119.752095 144.968886 
L 118.329603 144.417627 
L 117.262734 143.786367 
L 116.195864 142.871944 
L 115.484618 142.016537 
L 114.773372 140.804535 
L 114.211668 139.364064 
L 113.856786 137.43018 
L 113.732182 134.529353 
L 113.185126 111.322742 
L 112.245055 92.950841 
L 112.331041 88.11613 
L 112.639633 84.016526 
L 113.11151 80.380593 
L 113.706503 77.337056 
L 114.062126 76.279575 
L 114.417749 75.533846 
L 115.142245 74.57894 
L 116.551487 73.530889 
L 117.97398 72.765219 
L 120.107718 71.982917 
L 121.683664 71.678114 
L 124.019573 71.40822 
L 127.575804 71.226172 
L 133.621396 71.188149 
L 138.60012 71.332498 
L 141.800728 71.650072 
L 143.934466 72.090693 
L 145.407202 72.645056 
L 146.779451 73.323411 
L 148.201943 74.306934 
L 148.557566 74.620281 
L 149.268813 75.568961 
L 149.71285 76.512824 
L 150.218214 78.446709 
L 150.840167 82.314477 
L 151.231786 86.182246 
L 151.411748 90.050014 
L 151.399945 94.884725 
L 151.3708 95.933548 
L 151.3708 95.933548 
" style="fill:none;stroke:#365c8d;stroke-width:0.8;"/>
   </g>
   <g id="LineCollection_4">
    <path clip-path="url(#pea0769b81a)" d="M 87.628859 75.411332 
L 87.761083 75.545882 
L 88.457263 76.787434 
L 88.965317 78.446709 
L 89.524132 81.373108 
L 89.997062 85.215304 
L 90.235378 89.184178 
L 90.267869 93.917783 
L 90.033906 99.719436 
L 89.389805 108.421915 
L 88.80342 117.124395 
L 88.599371 123.89299 
L 88.366807 137.43018 
L 88.101639 138.775746 
L 87.746016 139.704499 
L 87.03477 140.85309 
L 86.323524 141.601089 
L 85.256655 142.348257 
L 84.189785 142.796532 
L 82.767293 143.125348 
L 80.633554 143.373948 
L 77.432946 143.515227 
L 70.320484 143.530815 
L 66.053007 143.393462 
L 63.563646 143.116671 
L 62.141153 142.787805 
L 61.074284 142.340276 
L 60.363038 141.876723 
L 59.651791 141.273808 
L 58.911024 140.331006 
L 58.229299 138.779958 
L 58.109686 138.397122 
L 57.873676 136.161626 
L 57.782206 131.628527 
L 57.607282 119.058279 
L 57.233048 112.289684 
L 56.079593 94.884725 
L 56.062871 90.050014 
L 56.245107 86.182246 
L 56.681387 82.129509 
L 56.681387 82.129509 
" style="fill:none;stroke:#277f8e;stroke-width:0.8;"/>
    <path clip-path="url(#pea0769b81a)" d="M 115.22239 103.397692 
L 114.823494 96.81861 
L 114.718203 91.983899 
L 114.858403 87.149188 
L 115.205524 83.281419 
L 115.639186 80.380593 
L 116.281942 77.479767 
L 116.907111 76.060907 
L 117.262734 75.51386 
L 118.329603 74.548467 
L 119.752095 73.87934 
L 121.174588 73.45528 
L 122.952703 73.173486 
L 125.797688 72.937095 
L 130.065165 72.828935 
L 136.822004 72.892365 
L 140.378235 73.136409 
L 142.511974 73.460507 
L 143.934466 73.885959 
L 145.393395 74.57894 
L 146.438895 75.545882 
L 147.135074 76.787434 
L 147.643129 78.446709 
L 148.201943 81.373108 
L 148.674874 85.215304 
L 148.91319 89.184178 
L 148.945681 93.917783 
L 148.711717 99.719436 
L 148.067617 108.421915 
L 147.481231 117.124395 
L 147.277183 123.89299 
L 147.044619 137.43018 
L 146.779451 138.775746 
L 146.423828 139.704499 
L 145.712582 140.85309 
L 145.001335 141.601089 
L 143.934466 142.348257 
L 142.867597 142.796532 
L 141.445104 143.125348 
L 139.311366 143.373948 
L 136.110758 143.515227 
L 128.998296 143.530815 
L 124.730819 143.393462 
L 122.241457 143.116671 
L 120.818965 142.787805 
L 119.752095 142.340276 
L 119.040849 141.876723 
L 118.329603 141.273808 
L 117.61507 140.368674 
L 117.61507 140.368674 
" style="fill:none;stroke:#277f8e;stroke-width:0.8;"/>
   </g>
   <g id="LineCollection_5">
    <path clip-path="url(#pea0769b81a)" d="M 86.961916 79.60985 
L 87.390393 81.379327 
L 87.880425 84.248362 
L 88.18048 87.149188 
L 88.34176 91.016957 
L 88.284925 94.884725 
L 87.970881 99.719436 
L 87.329414 105.521089 
L 85.655537 119.058279 
L 85.436477 123.89299 
L 85.452042 130.661585 
L 85.405937 135.496295 
L 85.237967 137.43018 
L 84.901032 138.528881 
L 84.189785 139.470801 
L 83.122916 140.148258 
L 82.056047 140.522956 
L 80.277931 140.89105 
L 77.78857 141.147033 
L 74.232339 141.249062 
L 69.253615 141.184629 
L 66.40863 140.942484 
L 64.274892 140.522405 
L 63.208022 140.148808 
L 62.141153 139.474727 
L 61.78553 139.094156 
L 61.344582 138.397122 
L 61.074284 137.375546 
L 60.910361 135.496295 
L 60.858455 130.661585 
L 60.814915 121.959105 
L 60.486709 117.124395 
L 59.783976 111.322742 
L 58.543013 101.65332 
L 58.139019 96.81861 
L 57.980098 91.983899 
L 58.080667 88.11613 
L 58.442555 84.248362 
L 58.511037 83.776024 
L 58.511037 83.776024 
" style="fill:none;stroke:#1fa187;stroke-width:0.8;"/>
    <path clip-path="url(#pea0769b81a)" d="M 145.639727 79.60985 
L 146.068205 81.379327 
L 146.558237 84.248362 
L 146.858292 87.149188 
L 147.019572 91.016957 
L 146.962737 94.884725 
L 146.648693 99.719436 
L 146.007226 105.521089 
L 144.333348 119.058279 
L 144.114289 123.89299 
L 144.129854 130.661585 
L 144.083749 135.496295 
L 143.915779 137.43018 
L 143.578843 138.528881 
L 142.867597 139.470801 
L 141.800728 140.148258 
L 140.733858 140.522956 
L 138.955743 140.89105 
L 136.466381 141.147033 
L 132.91015 141.249062 
L 127.931427 141.184629 
L 125.086442 140.942484 
L 122.952703 140.522405 
L 121.885834 140.148808 
L 120.818965 139.474727 
L 120.463342 139.094156 
L 120.022393 138.397122 
L 119.752095 137.375546 
L 119.588172 135.496295 
L 119.536266 130.661585 
L 119.492726 121.959105 
L 119.16452 117.124395 
L 118.461788 111.322742 
L 117.220825 101.65332 
L 116.81683 96.81861 
L 116.65791 91.983899 
L 116.758479 88.11613 
L 117.120367 84.248362 
L 117.188849 83.776024 
L 117.188849 83.776024 
" style="fill:none;stroke:#1fa187;stroke-width:0.8;"/>
   </g>
   <g id="LineCollection_6">
    <path clip-path="url(#pea0769b81a)" d="M 86.22549 88.176883 
L 86.338998 91.016957 
L 86.271391 93.917783 
L 85.924515 97.785552 
L 85.278596 101.65332 
L 84.823815 103.587205 
L 84.189785 105.601551 
L 83.347316 107.454973 
L 82.732099 108.421915 
L 81.700424 109.692947 
L 80.633554 110.654975 
L 79.552481 111.322742 
L 78.499816 111.759576 
L 77.077323 112.06887 
L 74.943585 112.22208 
L 69.964861 112.269628 
L 68.542369 112.105858 
L 67.4755 111.813652 
L 66.40863 111.299142 
L 65.341761 110.532623 
L 64.236295 109.388857 
L 63.208022 107.974139 
L 62.456448 106.488031 
L 61.748742 104.554147 
L 61.039843 101.65332 
L 60.399389 97.785552 
L 60.114618 94.884725 
L 59.990105 91.983899 
L 60.042174 89.083072 
L 60.363038 85.722029 
L 60.829062 83.239342 
L 60.829062 83.239342 
" style="fill:none;stroke:#4ac16d;stroke-width:0.8;"/>
    <path clip-path="url(#pea0769b81a)" d="M 144.903302 88.176883 
L 145.01681 91.016957 
L 144.949202 93.917783 
L 144.602326 97.785552 
L 143.956407 101.65332 
L 143.501626 103.587205 
L 142.867597 105.601551 
L 142.025127 107.454973 
L 141.409911 108.421915 
L 140.378235 109.692947 
L 139.311366 110.654975 
L 138.230293 111.322742 
L 137.177627 111.759576 
L 135.755135 112.06887 
L 133.621396 112.22208 
L 128.642673 112.269628 
L 127.22018 112.105858 
L 126.153311 111.813652 
L 125.086442 111.299142 
L 124.019573 110.532623 
L 122.914106 109.388857 
L 121.885834 107.974139 
L 121.134259 106.488031 
L 120.426554 104.554147 
L 119.717655 101.65332 
L 119.077201 97.785552 
L 118.792429 94.884725 
L 118.667917 91.983899 
L 118.719985 89.083072 
L 119.040849 85.722029 
L 119.506873 83.239342 
L 119.506873 83.239342 
" style="fill:none;stroke:#4ac16d;stroke-width:0.8;"/>
   </g>
   <g id="LineCollection_7">
    <path clip-path="url(#pea0769b81a)" d="M 63.178773 93.917783 
L 62.914296 91.983899 
L 62.876935 90.050014 
L 63.077491 88.11613 
L 63.563646 86.236978 
L 63.992796 85.215304 
L 64.630515 84.126435 
L 65.697384 82.906254 
L 66.764253 82.108168 
L 68.186746 81.45051 
L 69.609238 81.091682 
L 71.387354 80.88207 
L 73.876715 80.839163 
L 76.010454 80.998607 
L 77.78857 81.356077 
L 79.211062 81.939997 
L 80.277931 82.634357 
L 80.995317 83.281419 
L 81.760289 84.248362 
L 82.41167 85.428481 
L 83.03024 87.149188 
L 83.367133 89.083072 
L 83.445905 91.016957 
L 83.290857 92.950841 
L 82.878061 94.884725 
L 82.41167 96.176407 
L 81.700424 97.542828 
L 80.989177 98.501174 
L 80.277931 99.201945 
L 79.211062 99.929906 
L 78.144193 100.385366 
L 76.7217 100.728668 
L 74.943585 100.910907 
L 72.0986 100.965304 
L 69.964861 100.841637 
L 68.542369 100.5749 
L 67.4755 100.192569 
L 66.40863 99.574525 
L 65.341761 98.594072 
L 64.630515 97.63618 
L 63.919269 96.268816 
L 63.422693 94.884725 
L 63.178773 93.917783 
L 63.178773 93.917783 
" style="fill:none;stroke:#a0da39;stroke-width:0.8;"/>
    <path clip-path="url(#pea0769b81a)" d="M 121.856585 93.917783 
L 121.592107 91.983899 
L 121.554746 90.050014 
L 121.755303 88.11613 
L 122.241457 86.236978 
L 122.670607 85.215304 
L 123.308326 84.126435 
L 124.375196 82.906254 
L 125.442065 82.108168 
L 126.864557 81.45051 
L 128.28705 81.091682 
L 130.065165 80.88207 
L 132.554527 80.839163 
L 134.688266 80.998607 
L 136.466381 81.356077 
L 137.888873 81.939997 
L 138.955743 82.634357 
L 139.673129 83.281419 
L 140.4381 84.248362 
L 141.089481 85.428481 
L 141.708052 87.149188 
L 142.044944 89.083072 
L 142.123717 91.016957 
L 141.968669 92.950841 
L 141.555872 94.884725 
L 141.089481 96.176407 
L 140.378235 97.542828 
L 139.666989 98.501174 
L 138.955743 99.201945 
L 137.888873 99.929906 
L 136.822004 100.385366 
L 135.399512 100.728668 
L 133.621396 100.910907 
L 130.776411 100.965304 
L 128.642673 100.841637 
L 127.22018 100.5749 
L 126.153311 100.192569 
L 125.086442 99.574525 
L 124.019573 98.594072 
L 123.308326 97.63618 
L 122.59708 96.268816 
L 122.100505 94.884725 
L 121.856585 93.917783 
L 121.856585 93.917783 
" style="fill:none;stroke:#a0da39;stroke-width:0.8;"/>
   </g>
   <g id="LineCollection_8"/>
   <g id="patch_4">
    <path d="M 44.004375 178.04175 
L 44.004375 61.04175 
" style="fill:none;stroke:#000000;stroke-linecap:square;stroke-linejoin:miter;stroke-width:0.8;"/>
   </g>
   <g id="patch_5">
    <path d="M 161.004375 178.04175 
L 161.004375 61.04175 
" style="fill:none;stroke:#000000;stroke-linecap:square;stroke-linejoin:miter;stroke-width:0.8;"/>
   </g>
   <g id="patch_6">
    <path d="M 44.004375 178.04175 
L 161.004375 178.04175 
" style="fill:none;stroke:#000000;stroke-linecap:square;stroke-linejoin:miter;stroke-width:0.8;"/>
   </g>
   <g id="patch_7">
    <path d="M 44.004375 61.04175 
L 161.004375 61.04175 
" style="fill:none;stroke:#000000;stroke-linecap:square;stroke-linejoin:miter;stroke-width:0.8;"/>
   </g>
   <g id="text_9">
    <g clip-path="url(#pea0769b81a)">
     <!-- 0.150 -->
     <defs>
      <path d="M 10.6875 12.40625 
L 21 12.40625 
L 21 0 
L 10.6875 0 
z
" id="DejaVuSans-46"/>
      <path d="M 12.40625 8.296875 
L 28.515625 8.296875 
L 28.515625 63.921875 
L 10.984375 60.40625 
L 10.984375 69.390625 
L 28.421875 72.90625 
L 38.28125 72.90625 
L 38.28125 8.296875 
L 54.390625 8.296875 
L 54.390625 0 
L 12.40625 0 
z
" id="DejaVuSans-49"/>
      <path d="M 10.796875 72.90625 
L 49.515625 72.90625 
L 49.515625 64.59375 
L 19.828125 64.59375 
L 19.828125 46.734375 
Q 21.96875 47.46875 24.109375 47.828125 
Q 26.265625 48.1875 28.421875 48.1875 
Q 40.625 48.1875 47.75 41.5 
Q 54.890625 34.8125 54.890625 23.390625 
Q 54.890625 11.625 47.5625 5.09375 
Q 40.234375 -1.421875 26.90625 -1.421875 
Q 22.3125 -1.421875 17.546875 -0.640625 
Q 12.796875 0.140625 7.71875 1.703125 
L 7.71875 11.625 
Q 12.109375 9.234375 16.796875 8.0625 
Q 21.484375 6.890625 26.703125 6.890625 
Q 35.15625 6.890625 40.078125 11.328125 
Q 45.015625 15.765625 45.015625 23.390625 
Q 45.015625 31 40.078125 35.4375 
Q 35.15625 39.890625 26.703125 39.890625 
Q 22.75 39.890625 18.8125 39.015625 
Q 14.890625 38.140625 10.796875 36.28125 
z
" id="DejaVuSans-53"/>
     </defs>
     <g style="fill:#46327e;" transform="translate(115.897867 71.920951)rotate(-2.714848)scale(0.1 -0.1)">
      <use xlink:href="#DejaVuSans-48"/>
      <use x="63.623047" xlink:href="#DejaVuSans-46"/>
      <use x="95.410156" xlink:href="#DejaVuSans-49"/>
      <use x="159.033203" xlink:href="#DejaVuSans-53"/>
      <use x="222.65625" xlink:href="#DejaVuSans-48"/>
     </g>
    </g>
   </g>
   <g id="text_10">
    <g clip-path="url(#pea0769b81a)">
     <!-- 0.150 -->
     <g style="fill:#46327e;" transform="translate(114.148149 149.677876)rotate(-355.208696)scale(0.1 -0.1)">
      <use xlink:href="#DejaVuSans-48"/>
      <use x="63.623047" xlink:href="#DejaVuSans-46"/>
      <use x="95.410156" xlink:href="#DejaVuSans-49"/>
      <use x="159.033203" xlink:href="#DejaVuSans-53"/>
      <use x="222.65625" xlink:href="#DejaVuSans-48"/>
     </g>
    </g>
   </g>
   <g id="text_11">
    <g clip-path="url(#pea0769b81a)">
     <!-- 0.300 -->
     <defs>
      <path d="M 40.578125 39.3125 
Q 47.65625 37.796875 51.625 33 
Q 55.609375 28.21875 55.609375 21.1875 
Q 55.609375 10.40625 48.1875 4.484375 
Q 40.765625 -1.421875 27.09375 -1.421875 
Q 22.515625 -1.421875 17.65625 -0.515625 
Q 12.796875 0.390625 7.625 2.203125 
L 7.625 11.71875 
Q 11.71875 9.328125 16.59375 8.109375 
Q 21.484375 6.890625 26.8125 6.890625 
Q 36.078125 6.890625 40.9375 10.546875 
Q 45.796875 14.203125 45.796875 21.1875 
Q 45.796875 27.640625 41.28125 31.265625 
Q 36.765625 34.90625 28.71875 34.90625 
L 20.21875 34.90625 
L 20.21875 43.015625 
L 29.109375 43.015625 
Q 36.375 43.015625 40.234375 45.921875 
Q 44.09375 48.828125 44.09375 54.296875 
Q 44.09375 59.90625 40.109375 62.90625 
Q 36.140625 65.921875 28.71875 65.921875 
Q 24.65625 65.921875 20.015625 65.03125 
Q 15.375 64.15625 9.8125 62.3125 
L 9.8125 71.09375 
Q 15.4375 72.65625 20.34375 73.4375 
Q 25.25 74.21875 29.59375 74.21875 
Q 40.828125 74.21875 47.359375 69.109375 
Q 53.90625 64.015625 53.90625 55.328125 
Q 53.90625 49.265625 50.4375 45.09375 
Q 46.96875 40.921875 40.578125 39.3125 
z
" id="DejaVuSans-51"/>
     </defs>
     <g style="fill:#365c8d;" transform="translate(59.645914 148.790364)rotate(-1.611496)scale(0.1 -0.1)">
      <use xlink:href="#DejaVuSans-48"/>
      <use x="63.623047" xlink:href="#DejaVuSans-46"/>
      <use x="95.410156" xlink:href="#DejaVuSans-51"/>
      <use x="159.033203" xlink:href="#DejaVuSans-48"/>
      <use x="222.65625" xlink:href="#DejaVuSans-48"/>
     </g>
    </g>
   </g>
   <g id="text_12">
    <g clip-path="url(#pea0769b81a)">
     <!-- 0.300 -->
     <g style="fill:#365c8d;" transform="translate(152.522695 128.916705)rotate(-87.717134)scale(0.1 -0.1)">
      <use xlink:href="#DejaVuSans-48"/>
      <use x="63.623047" xlink:href="#DejaVuSans-46"/>
      <use x="95.410156" xlink:href="#DejaVuSans-51"/>
      <use x="159.033203" xlink:href="#DejaVuSans-48"/>
      <use x="222.65625" xlink:href="#DejaVuSans-48"/>
     </g>
    </g>
   </g>
   <g id="text_13">
    <g clip-path="url(#pea0769b81a)">
     <!-- 0.450 -->
     <defs>
      <path d="M 37.796875 64.3125 
L 12.890625 25.390625 
L 37.796875 25.390625 
z
M 35.203125 72.90625 
L 47.609375 72.90625 
L 47.609375 25.390625 
L 58.015625 25.390625 
L 58.015625 17.1875 
L 47.609375 17.1875 
L 47.609375 0 
L 37.796875 0 
L 37.796875 17.1875 
L 4.890625 17.1875 
L 4.890625 26.703125 
z
" id="DejaVuSans-52"/>
     </defs>
     <g style="fill:#277f8e;" transform="translate(56.018543 78.124384)rotate(-10.292553)scale(0.1 -0.1)">
      <use xlink:href="#DejaVuSans-48"/>
      <use x="63.623047" xlink:href="#DejaVuSans-46"/>
      <use x="95.410156" xlink:href="#DejaVuSans-52"/>
      <use x="159.033203" xlink:href="#DejaVuSans-53"/>
      <use x="222.65625" xlink:href="#DejaVuSans-48"/>
     </g>
    </g>
   </g>
   <g id="text_14">
    <g clip-path="url(#pea0769b81a)">
     <!-- 0.450 -->
     <g style="fill:#277f8e;" transform="translate(113.088367 107.755887)rotate(-272.102041)scale(0.1 -0.1)">
      <use xlink:href="#DejaVuSans-48"/>
      <use x="63.623047" xlink:href="#DejaVuSans-46"/>
      <use x="95.410156" xlink:href="#DejaVuSans-52"/>
      <use x="159.033203" xlink:href="#DejaVuSans-53"/>
      <use x="222.65625" xlink:href="#DejaVuSans-48"/>
     </g>
    </g>
   </g>
   <g id="text_15">
    <g clip-path="url(#pea0769b81a)">
     <!-- 0.600 -->
     <defs>
      <path d="M 33.015625 40.375 
Q 26.375 40.375 22.484375 35.828125 
Q 18.609375 31.296875 18.609375 23.390625 
Q 18.609375 15.53125 22.484375 10.953125 
Q 26.375 6.390625 33.015625 6.390625 
Q 39.65625 6.390625 43.53125 10.953125 
Q 47.40625 15.53125 47.40625 23.390625 
Q 47.40625 31.296875 43.53125 35.828125 
Q 39.65625 40.375 33.015625 40.375 
z
M 52.59375 71.296875 
L 52.59375 62.3125 
Q 48.875 64.0625 45.09375 64.984375 
Q 41.3125 65.921875 37.59375 65.921875 
Q 27.828125 65.921875 22.671875 59.328125 
Q 17.53125 52.734375 16.796875 39.40625 
Q 19.671875 43.65625 24.015625 45.921875 
Q 28.375 48.1875 33.59375 48.1875 
Q 44.578125 48.1875 50.953125 41.515625 
Q 57.328125 34.859375 57.328125 23.390625 
Q 57.328125 12.15625 50.6875 5.359375 
Q 44.046875 -1.421875 33.015625 -1.421875 
Q 20.359375 -1.421875 13.671875 8.265625 
Q 6.984375 17.96875 6.984375 36.375 
Q 6.984375 53.65625 15.1875 63.9375 
Q 23.390625 74.21875 37.203125 74.21875 
Q 40.921875 74.21875 44.703125 73.484375 
Q 48.484375 72.75 52.59375 71.296875 
z
" id="DejaVuSans-54"/>
     </defs>
     <g style="fill:#1fa187;" transform="translate(57.277019 79.034837)rotate(-8.432026)scale(0.1 -0.1)">
      <use xlink:href="#DejaVuSans-48"/>
      <use x="63.623047" xlink:href="#DejaVuSans-46"/>
      <use x="95.410156" xlink:href="#DejaVuSans-54"/>
      <use x="159.033203" xlink:href="#DejaVuSans-48"/>
      <use x="222.65625" xlink:href="#DejaVuSans-48"/>
     </g>
    </g>
   </g>
   <g id="text_16">
    <g clip-path="url(#pea0769b81a)">
     <!-- 0.600 -->
     <g style="fill:#1fa187;" transform="translate(115.954831 79.034837)rotate(-8.432026)scale(0.1 -0.1)">
      <use xlink:href="#DejaVuSans-48"/>
      <use x="63.623047" xlink:href="#DejaVuSans-46"/>
      <use x="95.410156" xlink:href="#DejaVuSans-54"/>
      <use x="159.033203" xlink:href="#DejaVuSans-48"/>
      <use x="222.65625" xlink:href="#DejaVuSans-48"/>
     </g>
    </g>
   </g>
   <g id="text_17">
    <g clip-path="url(#pea0769b81a)">
     <!-- 0.750 -->
     <defs>
      <path d="M 8.203125 72.90625 
L 55.078125 72.90625 
L 55.078125 68.703125 
L 28.609375 0 
L 18.3125 0 
L 43.21875 64.59375 
L 8.203125 64.59375 
z
" id="DejaVuSans-55"/>
     </defs>
     <g style="fill:#4ac16d;" transform="translate(61.077604 75.980755)rotate(-348.676557)scale(0.1 -0.1)">
      <use xlink:href="#DejaVuSans-48"/>
      <use x="63.623047" xlink:href="#DejaVuSans-46"/>
      <use x="95.410156" xlink:href="#DejaVuSans-55"/>
      <use x="159.033203" xlink:href="#DejaVuSans-53"/>
      <use x="222.65625" xlink:href="#DejaVuSans-48"/>
     </g>
    </g>
   </g>
   <g id="text_18">
    <g clip-path="url(#pea0769b81a)">
     <!-- 0.750 -->
     <g style="fill:#4ac16d;" transform="translate(119.755416 75.980755)rotate(-348.676557)scale(0.1 -0.1)">
      <use xlink:href="#DejaVuSans-48"/>
      <use x="63.623047" xlink:href="#DejaVuSans-46"/>
      <use x="95.410156" xlink:href="#DejaVuSans-55"/>
      <use x="159.033203" xlink:href="#DejaVuSans-53"/>
      <use x="222.65625" xlink:href="#DejaVuSans-48"/>
     </g>
    </g>
   </g>
  </g>
  <g id="axes_2">
   <g id="patch_8">
    <path d="M 44.004375 60.14175 
L 161.004375 60.14175 
L 161.004375 24.14175 
L 44.004375 24.14175 
z
" style="fill:none;"/>
   </g>
   <g id="matplotlib.axis_3">
    <g id="xtick_4">
     <g id="line2d_13">
      <g>
       <use style="stroke:#000000;stroke-width:0.8;" x="63.504375" xlink:href="#m20cec4363a" y="60.14175"/>
      </g>
     </g>
    </g>
    <g id="xtick_5">
     <g id="line2d_14">
      <g>
       <use style="stroke:#000000;stroke-width:0.8;" x="102.504375" xlink:href="#m20cec4363a" y="60.14175"/>
      </g>
     </g>
    </g>
    <g id="xtick_6">
     <g id="line2d_15">
      <g>
       <use style="stroke:#000000;stroke-width:0.8;" x="141.504375" xlink:href="#m20cec4363a" y="60.14175"/>
      </g>
     </g>
    </g>
   </g>
   <g id="matplotlib.axis_4">
    <g id="ytick_4">
     <g id="line2d_16">
      <g>
       <use style="stroke:#000000;stroke-width:0.8;" x="44.004375" xlink:href="#m5fd557878f" y="53.931332"/>
      </g>
     </g>
     <g id="text_19">
      <!-- 0.25 -->
      <g transform="translate(13.785625 58.490395)scale(0.12 -0.12)">
       <use xlink:href="#DejaVuSans-48"/>
       <use x="63.623047" xlink:href="#DejaVuSans-46"/>
       <use x="95.410156" xlink:href="#DejaVuSans-50"/>
       <use x="159.033203" xlink:href="#DejaVuSans-53"/>
      </g>
     </g>
    </g>
    <g id="ytick_5">
     <g id="line2d_17">
      <g>
       <use style="stroke:#000000;stroke-width:0.8;" x="44.004375" xlink:href="#m5fd557878f" y="43.958661"/>
      </g>
     </g>
     <g id="text_20">
      <!-- 0.50 -->
      <g transform="translate(13.785625 48.517724)scale(0.12 -0.12)">
       <use xlink:href="#DejaVuSans-48"/>
       <use x="63.623047" xlink:href="#DejaVuSans-46"/>
       <use x="95.410156" xlink:href="#DejaVuSans-53"/>
       <use x="159.033203" xlink:href="#DejaVuSans-48"/>
      </g>
     </g>
    </g>
    <g id="ytick_6">
     <g id="line2d_18">
      <g>
       <use style="stroke:#000000;stroke-width:0.8;" x="44.004375" xlink:href="#m5fd557878f" y="33.98599"/>
      </g>
     </g>
     <g id="text_21">
      <!-- 0.75 -->
      <g transform="translate(13.785625 38.545053)scale(0.12 -0.12)">
       <use xlink:href="#DejaVuSans-48"/>
       <use x="63.623047" xlink:href="#DejaVuSans-46"/>
       <use x="95.410156" xlink:href="#DejaVuSans-55"/>
       <use x="159.033203" xlink:href="#DejaVuSans-53"/>
      </g>
     </g>
    </g>
   </g>
   <g id="LineCollection_9">
    <path clip-path="url(#p2e92ce9928)" d="M 44.004375 58.505386 
L 161.004375 58.505386 
" style="fill:none;stroke:#000000;stroke-dasharray:0.8,1.32;stroke-dashoffset:0;stroke-width:0.8;"/>
   </g>
   <g id="line2d_19">
    <path clip-path="url(#p2e92ce9928)" d="M 44.004375 51.775141 
L 44.715621 51.850963 
L 45.782491 52.230733 
L 47.204983 53.097221 
L 48.983098 54.259358 
L 50.049968 54.661492 
L 50.761214 54.688205 
L 51.47246 54.466337 
L 52.183706 53.961503 
L 52.894953 53.154269 
L 53.606199 52.041935 
L 54.673068 49.838016 
L 55.739937 47.100477 
L 57.873676 40.770667 
L 59.651791 35.62078 
L 61.074284 32.157066 
L 62.141153 30.170009 
L 62.852399 29.21416 
L 63.919269 28.200342 
L 65.341761 27.215838 
L 66.764253 26.55544 
L 68.186746 26.148661 
L 69.964861 25.888125 
L 72.454223 25.78009 
L 75.654831 25.85914 
L 77.78857 26.115065 
L 79.211062 26.473096 
L 80.633554 27.063008 
L 82.056047 27.956275 
L 83.122916 28.864693 
L 83.834162 29.684179 
L 84.545408 30.74938 
L 85.612278 32.968516 
L 87.03477 36.606173 
L 89.168509 42.944579 
L 90.946624 48.075066 
L 92.013494 50.651673 
L 93.080363 52.645384 
L 93.791609 53.602352 
L 94.502855 54.252111 
L 95.214101 54.605828 
L 95.925348 54.691037 
L 96.636594 54.548879 
L 97.703463 54.023623 
L 100.904071 52.008273 
L 101.97094 51.727052 
L 102.682187 51.775141 
L 103.393433 51.850963 
L 104.460302 52.230733 
L 105.882794 53.097221 
L 107.66091 54.259358 
L 108.727779 54.661492 
L 109.439025 54.688205 
L 110.150272 54.466337 
L 110.861518 53.961503 
L 111.572764 53.154269 
L 112.28401 52.041935 
L 113.35088 49.838016 
L 114.417749 47.100477 
L 116.551487 40.770667 
L 118.329603 35.62078 
L 119.752095 32.157066 
L 120.818965 30.170009 
L 121.530211 29.21416 
L 122.59708 28.200342 
L 124.019573 27.215838 
L 125.442065 26.55544 
L 126.864557 26.148661 
L 128.642673 25.888125 
L 131.132035 25.78009 
L 134.332642 25.85914 
L 136.466381 26.115065 
L 137.888873 26.473096 
L 139.311366 27.063008 
L 140.733858 27.956275 
L 141.800728 28.864693 
L 142.511974 29.684179 
L 143.22322 30.74938 
L 144.290089 32.968516 
L 145.712582 36.606173 
L 147.84632 42.944579 
L 149.624436 48.075066 
L 150.691305 50.651673 
L 151.758174 52.645384 
L 152.469421 53.602352 
L 153.180667 54.252111 
L 153.891913 54.605828 
L 154.603159 54.691037 
L 155.314405 54.548879 
L 156.381275 54.023623 
L 159.581883 52.008273 
L 160.648752 51.727052 
L 161.004375 51.70775 
L 161.004375 51.70775 
" style="fill:none;stroke:#1f77b4;stroke-linecap:square;"/>
   </g>
   <g id="patch_9">
    <path d="M 44.004375 60.14175 
L 44.004375 24.14175 
" style="fill:none;stroke:#000000;stroke-linecap:square;stroke-linejoin:miter;stroke-width:0.8;"/>
   </g>
   <g id="patch_10">
    <path d="M 161.004375 60.14175 
L 161.004375 24.14175 
" style="fill:none;stroke:#000000;stroke-linecap:square;stroke-linejoin:miter;stroke-width:0.8;"/>
   </g>
   <g id="patch_11">
    <path d="M 44.004375 60.14175 
L 161.004375 60.14175 
" style="fill:none;stroke:#000000;stroke-linecap:square;stroke-linejoin:miter;stroke-width:0.8;"/>
   </g>
   <g id="patch_12">
    <path d="M 44.004375 24.14175 
L 161.004375 24.14175 
" style="fill:none;stroke:#000000;stroke-linecap:square;stroke-linejoin:miter;stroke-width:0.8;"/>
   </g>
   <g id="text_22">
    <!-- end 0.0 um -->
    <defs>
     <path d="M 56.203125 29.59375 
L 56.203125 25.203125 
L 14.890625 25.203125 
Q 15.484375 15.921875 20.484375 11.0625 
Q 25.484375 6.203125 34.421875 6.203125 
Q 39.59375 6.203125 44.453125 7.46875 
Q 49.3125 8.734375 54.109375 11.28125 
L 54.109375 2.78125 
Q 49.265625 0.734375 44.1875 -0.34375 
Q 39.109375 -1.421875 33.890625 -1.421875 
Q 20.796875 -1.421875 13.15625 6.1875 
Q 5.515625 13.8125 5.515625 26.8125 
Q 5.515625 40.234375 12.765625 48.109375 
Q 20.015625 56 32.328125 56 
Q 43.359375 56 49.78125 48.890625 
Q 56.203125 41.796875 56.203125 29.59375 
z
M 47.21875 32.234375 
Q 47.125 39.59375 43.09375 43.984375 
Q 39.0625 48.390625 32.421875 48.390625 
Q 24.90625 48.390625 20.390625 44.140625 
Q 15.875 39.890625 15.1875 32.171875 
z
" id="DejaVuSans-101"/>
     <path d="M 54.890625 33.015625 
L 54.890625 0 
L 45.90625 0 
L 45.90625 32.71875 
Q 45.90625 40.484375 42.875 44.328125 
Q 39.84375 48.1875 33.796875 48.1875 
Q 26.515625 48.1875 22.3125 43.546875 
Q 18.109375 38.921875 18.109375 30.90625 
L 18.109375 0 
L 9.078125 0 
L 9.078125 54.6875 
L 18.109375 54.6875 
L 18.109375 46.1875 
Q 21.34375 51.125 25.703125 53.5625 
Q 30.078125 56 35.796875 56 
Q 45.21875 56 50.046875 50.171875 
Q 54.890625 44.34375 54.890625 33.015625 
z
" id="DejaVuSans-110"/>
     <path d="M 45.40625 46.390625 
L 45.40625 75.984375 
L 54.390625 75.984375 
L 54.390625 0 
L 45.40625 0 
L 45.40625 8.203125 
Q 42.578125 3.328125 38.25 0.953125 
Q 33.9375 -1.421875 27.875 -1.421875 
Q 17.96875 -1.421875 11.734375 6.484375 
Q 5.515625 14.40625 5.515625 27.296875 
Q 5.515625 40.1875 11.734375 48.09375 
Q 17.96875 56 27.875 56 
Q 33.9375 56 38.25 53.625 
Q 42.578125 51.265625 45.40625 46.390625 
z
M 14.796875 27.296875 
Q 14.796875 17.390625 18.875 11.75 
Q 22.953125 6.109375 30.078125 6.109375 
Q 37.203125 6.109375 41.296875 11.75 
Q 45.40625 17.390625 45.40625 27.296875 
Q 45.40625 37.203125 41.296875 42.84375 
Q 37.203125 48.484375 30.078125 48.484375 
Q 22.953125 48.484375 18.875 42.84375 
Q 14.796875 37.203125 14.796875 27.296875 
z
" id="DejaVuSans-100"/>
    </defs>
    <g transform="translate(61.33725 18.14175)scale(0.144 -0.144)">
     <use xlink:href="#DejaVuSans-101"/>
     <use x="61.523438" xlink:href="#DejaVuSans-110"/>
     <use x="124.902344" xlink:href="#DejaVuSans-100"/>
     <use x="188.378906" xlink:href="#DejaVuSans-32"/>
     <use x="220.166016" xlink:href="#DejaVuSans-48"/>
     <use x="283.789062" xlink:href="#DejaVuSans-46"/>
     <use x="315.576172" xlink:href="#DejaVuSans-48"/>
     <use x="379.199219" xlink:href="#DejaVuSans-32"/>
     <use x="410.986328" xlink:href="#DejaVuSans-117"/>
     <use x="474.365234" xlink:href="#DejaVuSans-109"/>
    </g>
   </g>
  </g>
  <g id="axes_3">
   <g id="patch_13">
    <path d="M 161.904375 178.04175 
L 197.904375 178.04175 
L 197.904375 61.04175 
L 161.904375 61.04175 
z
" style="fill:none;"/>
   </g>
   <g id="matplotlib.axis_5">
    <g id="xtick_7">
     <g id="line2d_20">
      <g>
       <use style="stroke:#000000;stroke-width:0.8;" x="163.540739" xlink:href="#m20cec4363a" y="178.04175"/>
      </g>
     </g>
     <g id="text_23">
      <!-- 0.00 -->
      <g transform="translate(150.181364 190.659875)scale(0.12 -0.12)">
       <use xlink:href="#DejaVuSans-48"/>
       <use x="63.623047" xlink:href="#DejaVuSans-46"/>
       <use x="95.410156" xlink:href="#DejaVuSans-48"/>
       <use x="159.033203" xlink:href="#DejaVuSans-48"/>
      </g>
     </g>
    </g>
    <g id="xtick_8">
     <g id="line2d_21">
      <g>
       <use style="stroke:#000000;stroke-width:0.8;" x="190.449966" xlink:href="#m20cec4363a" y="178.04175"/>
      </g>
     </g>
     <g id="text_24">
      <!-- 0.25 -->
      <g transform="translate(177.090591 190.659875)scale(0.12 -0.12)">
       <use xlink:href="#DejaVuSans-48"/>
       <use x="63.623047" xlink:href="#DejaVuSans-46"/>
       <use x="95.410156" xlink:href="#DejaVuSans-50"/>
       <use x="159.033203" xlink:href="#DejaVuSans-53"/>
      </g>
     </g>
    </g>
   </g>
   <g id="matplotlib.axis_6">
    <g id="ytick_7">
     <g id="line2d_22">
      <g>
       <use style="stroke:#000000;stroke-width:0.8;" x="161.904375" xlink:href="#m5fd557878f" y="158.54175"/>
      </g>
     </g>
    </g>
    <g id="ytick_8">
     <g id="line2d_23">
      <g>
       <use style="stroke:#000000;stroke-width:0.8;" x="161.904375" xlink:href="#m5fd557878f" y="119.54175"/>
      </g>
     </g>
    </g>
    <g id="ytick_9">
     <g id="line2d_24">
      <g>
       <use style="stroke:#000000;stroke-width:0.8;" x="161.904375" xlink:href="#m5fd557878f" y="80.54175"/>
      </g>
     </g>
    </g>
   </g>
   <g id="LineCollection_10">
    <path clip-path="url(#p35dbb13bf3)" d="M 178.10781 178.04175 
L 178.10781 61.04175 
" style="fill:none;stroke:#000000;stroke-dasharray:0.8,1.32;stroke-dashoffset:0;stroke-width:0.8;"/>
   </g>
   <g id="line2d_25">
    <path clip-path="url(#p35dbb13bf3)" d="M 163.540739 178.04175 
L 163.546358 177.074808 
L 163.562988 176.107866 
L 163.589954 175.140924 
L 163.626168 174.173981 
L 163.670177 173.207039 
L 163.720228 172.240097 
L 163.774353 171.273155 
L 163.830461 170.306213 
L 163.886436 169.339271 
L 163.940249 168.372329 
L 163.990054 167.405386 
L 164.034296 166.438444 
L 164.071807 165.471502 
L 164.101891 164.50456 
L 164.124401 163.537618 
L 164.139791 162.570676 
L 164.14917 161.603733 
L 164.154323 160.636791 
L 164.157708 159.669849 
L 164.162465 158.702907 
L 164.17236 157.735965 
L 164.191746 156.769023 
L 164.225489 155.802081 
L 164.278879 154.835138 
L 164.357518 153.868196 
L 164.467202 152.901254 
L 164.67269 151.934312 
L 165.040119 150.96737 
L 165.601518 150.000428 
L 166.662902 149.033486 
L 168.107393 148.066543 
L 169.933185 147.099601 
L 172.098571 146.132659 
L 174.523596 145.165717 
L 177.097692 144.198775 
L 179.693029 143.231833 
L 182.180206 142.26489 
L 184.445371 141.297948 
L 186.404183 140.331006 
L 188.011316 139.364064 
L 189.26348 138.397122 
L 189.984703 137.43018 
L 190.421259 136.463238 
L 190.698817 135.496295 
L 190.889721 134.529353 
L 191.056895 133.562411 
L 191.210383 132.595469 
L 191.352317 131.628527 
L 191.48483 130.661585 
L 191.609967 129.694643 
L 191.729859 128.7277 
L 191.846108 127.760758 
L 191.960758 126.793816 
L 192.07514 125.826874 
L 192.190856 124.859932 
L 192.309238 123.89299 
L 192.431175 122.926048 
L 192.557644 121.959105 
L 192.689446 120.992163 
L 192.827025 120.025221 
L 192.970826 119.058279 
L 193.120936 118.091337 
L 193.277445 117.124395 
L 193.439998 116.157452 
L 193.608417 115.19051 
L 193.78208 114.223568 
L 193.960275 113.256626 
L 194.142291 112.289684 
L 194.326885 111.322742 
L 194.51299 110.3558 
L 194.699273 109.388857 
L 194.884311 108.421915 
L 195.066328 107.454973 
L 195.243634 106.488031 
L 195.414275 105.521089 
L 195.576117 104.554147 
L 195.727027 103.587205 
L 195.864606 102.620262 
L 195.986454 101.65332 
L 196.090083 100.686378 
L 196.172737 99.719436 
L 196.23175 98.752494 
L 196.264456 97.785552 
L 196.268011 96.81861 
L 196.23966 95.851667 
L 196.176914 94.884725 
L 196.076929 93.917783 
L 195.937484 92.950841 
L 195.756089 91.983899 
L 195.530791 91.016957 
L 195.259721 90.050014 
L 194.941369 89.083072 
L 194.574581 88.11613 
L 194.158555 87.149188 
L 193.69276 86.182246 
L 193.177372 85.215304 
L 192.612925 84.248362 
L 192.000307 83.281419 
L 191.34103 82.314477 
L 190.637137 81.347535 
L 189.89094 80.380593 
L 189.105549 79.413651 
L 188.284163 78.446709 
L 187.35906 77.479767 
L 186.154177 76.512824 
L 184.457814 75.545882 
L 182.093552 74.57894 
L 178.902928 73.611998 
L 175.918583 72.645056 
L 173.297828 71.678114 
L 171.138255 70.711171 
L 169.466785 69.744229 
L 168.243959 68.777287 
L 167.380473 67.810345 
L 166.761634 66.843403 
L 166.105236 65.876461 
L 165.483633 64.909519 
L 164.822676 63.942576 
L 164.186511 62.975634 
L 163.715374 62.008692 
L 163.540739 61.04175 
" style="fill:none;stroke:#1f77b4;stroke-linecap:square;"/>
   </g>
   <g id="patch_14">
    <path d="M 161.904375 178.04175 
L 161.904375 61.04175 
" style="fill:none;stroke:#000000;stroke-linecap:square;stroke-linejoin:miter;stroke-width:0.8;"/>
   </g>
   <g id="patch_15">
    <path d="M 197.904375 178.04175 
L 197.904375 61.04175 
" style="fill:none;stroke:#000000;stroke-linecap:square;stroke-linejoin:miter;stroke-width:0.8;"/>
   </g>
   <g id="patch_16">
    <path d="M 161.904375 178.04175 
L 197.904375 178.04175 
" style="fill:none;stroke:#000000;stroke-linecap:square;stroke-linejoin:miter;stroke-width:0.8;"/>
   </g>
   <g id="patch_17">
    <path d="M 161.904375 61.04175 
L 197.904375 61.04175 
" style="fill:none;stroke:#000000;stroke-linecap:square;stroke-linejoin:miter;stroke-width:0.8;"/>
   </g>
  </g>
 </g>
 <defs>
  <clipPath id="pea0769b81a">
   <rect height="117" width="117" x="44.004375" y="61.04175"/>
  </clipPath>
  <clipPath id="p2e92ce9928">
   <rect height="36" width="117" x="44.004375" y="24.14175"/>
  </clipPath>
  <clipPath id="p35dbb13bf3">
   <rect height="117" width="36" x="161.904375" y="61.04175"/>
  </clipPath>
 </defs>
</svg>
