<?xml version="1.0" encoding="utf-8" standalone="no"?>
<!DOCTYPE svg PUBLIC "-//W3C//DTD SVG 1.1//EN"
  "http://www.w3.org/Graphics/SVG/1.1/DTD/svg11.dtd">
<!-- Created with matplotlib (https://matplotlib.org/) -->
<svg height="215.96925pt" version="1.1" viewBox="0 0 207.285511 215.96925" width="207.285511pt" xmlns="http://www.w3.org/2000/svg" xmlns:xlink="http://www.w3.org/1999/xlink">
 <defs>
  <style type="text/css">
*{stroke-linecap:butt;stroke-linejoin:round;white-space:pre;}
  </style>
 </defs>
 <g id="figure_1">
  <g id="patch_1">
   <path d="M 0 215.96925 
L 207.285511 215.96925 
L 207.285511 0 
L 0 0 
z
" style="fill:none;"/>
  </g>
  <g id="axes_1">
   <g id="patch_2">
    <path d="M 44.004375 178.04175 
L 161.004375 178.04175 
L 161.004375 61.04175 
L 44.004375 61.04175 
z
" style="fill:none;"/>
   </g>
   <g id="patch_3">
    <path clip-path="url(#p6688697188)" d="M 93.729375 119.54175 
L 111.279375 119.54175 
L 111.279375 103.94175 
L 93.729375 103.94175 
z
" style="fill:none;stroke:#ff0000;stroke-dasharray:3.7,1.6;stroke-dashoffset:0;stroke-linejoin:miter;"/>
   </g>
   <g id="matplotlib.axis_1">
    <g id="xtick_1">
     <g id="line2d_1">
      <defs>
       <path d="M 0 0 
L 0 -3.5 
" id="mde0e3a9142" style="stroke:#000000;stroke-width:0.8;"/>
      </defs>
      <g>
       <use style="stroke:#000000;stroke-width:0.8;" x="63.504375" xlink:href="#mde0e3a9142" y="178.04175"/>
      </g>
     </g>
     <g id="line2d_2">
      <defs>
       <path d="M 0 0 
L 0 3.5 
" id="m4a9d0ce345" style="stroke:#000000;stroke-width:0.8;"/>
      </defs>
      <g>
       <use style="stroke:#000000;stroke-width:0.8;" x="63.504375" xlink:href="#m4a9d0ce345" y="61.04175"/>
      </g>
     </g>
     <g id="text_1">
      <!-- −2 -->
      <defs>
       <path d="M 10.59375 35.5 
L 73.1875 35.5 
L 73.1875 27.203125 
L 10.59375 27.203125 
z
" id="DejaVuSans-8722"/>
       <path d="M 19.1875 8.296875 
L 53.609375 8.296875 
L 53.609375 0 
L 7.328125 0 
L 7.328125 8.296875 
Q 12.9375 14.109375 22.625 23.890625 
Q 32.328125 33.6875 34.8125 36.53125 
Q 39.546875 41.84375 41.421875 45.53125 
Q 43.3125 49.21875 43.3125 52.78125 
Q 43.3125 58.59375 39.234375 62.25 
Q 35.15625 65.921875 28.609375 65.921875 
Q 23.96875 65.921875 18.8125 64.3125 
Q 13.671875 62.703125 7.8125 59.421875 
L 7.8125 69.390625 
Q 13.765625 71.78125 18.9375 73 
Q 24.125 74.21875 28.421875 74.21875 
Q 39.75 74.21875 46.484375 68.546875 
Q 53.21875 62.890625 53.21875 53.421875 
Q 53.21875 48.921875 51.53125 44.890625 
Q 49.859375 40.875 45.40625 35.40625 
Q 44.1875 33.984375 37.640625 27.21875 
Q 31.109375 20.453125 19.1875 8.296875 
z
" id="DejaVuSans-50"/>
      </defs>
      <g transform="translate(54.659063 190.659875)scale(0.12 -0.12)">
       <use xlink:href="#DejaVuSans-8722"/>
       <use x="83.789062" xlink:href="#DejaVuSans-50"/>
      </g>
     </g>
    </g>
    <g id="xtick_2">
     <g id="line2d_3">
      <g>
       <use style="stroke:#000000;stroke-width:0.8;" x="102.504375" xlink:href="#mde0e3a9142" y="178.04175"/>
      </g>
     </g>
     <g id="line2d_4">
      <g>
       <use style="stroke:#000000;stroke-width:0.8;" x="102.504375" xlink:href="#m4a9d0ce345" y="61.04175"/>
      </g>
     </g>
     <g id="text_2">
      <!-- 0 -->
      <defs>
       <path d="M 31.78125 66.40625 
Q 24.171875 66.40625 20.328125 58.90625 
Q 16.5 51.421875 16.5 36.375 
Q 16.5 21.390625 20.328125 13.890625 
Q 24.171875 6.390625 31.78125 6.390625 
Q 39.453125 6.390625 43.28125 13.890625 
Q 47.125 21.390625 47.125 36.375 
Q 47.125 51.421875 43.28125 58.90625 
Q 39.453125 66.40625 31.78125 66.40625 
z
M 31.78125 74.21875 
Q 44.046875 74.21875 50.515625 64.515625 
Q 56.984375 54.828125 56.984375 36.375 
Q 56.984375 17.96875 50.515625 8.265625 
Q 44.046875 -1.421875 31.78125 -1.421875 
Q 19.53125 -1.421875 13.0625 8.265625 
Q 6.59375 17.96875 6.59375 36.375 
Q 6.59375 54.828125 13.0625 64.515625 
Q 19.53125 74.21875 31.78125 74.21875 
z
" id="DejaVuSans-48"/>
      </defs>
      <g transform="translate(98.686875 190.659875)scale(0.12 -0.12)">
       <use xlink:href="#DejaVuSans-48"/>
      </g>
     </g>
    </g>
    <g id="xtick_3">
     <g id="line2d_5">
      <g>
       <use style="stroke:#000000;stroke-width:0.8;" x="141.504375" xlink:href="#mde0e3a9142" y="178.04175"/>
      </g>
     </g>
     <g id="line2d_6">
      <g>
       <use style="stroke:#000000;stroke-width:0.8;" x="141.504375" xlink:href="#m4a9d0ce345" y="61.04175"/>
      </g>
     </g>
     <g id="text_3">
      <!-- 2 -->
      <g transform="translate(137.686875 190.659875)scale(0.12 -0.12)">
       <use xlink:href="#DejaVuSans-50"/>
      </g>
     </g>
    </g>
    <g id="text_4">
     <!-- Y axis (um) -->
     <defs>
      <path d="M -0.203125 72.90625 
L 10.40625 72.90625 
L 30.609375 42.921875 
L 50.6875 72.90625 
L 61.28125 72.90625 
L 35.5 34.71875 
L 35.5 0 
L 25.59375 0 
L 25.59375 34.71875 
z
" id="DejaVuSans-89"/>
      <path id="DejaVuSans-32"/>
      <path d="M 34.28125 27.484375 
Q 23.390625 27.484375 19.1875 25 
Q 14.984375 22.515625 14.984375 16.5 
Q 14.984375 11.71875 18.140625 8.90625 
Q 21.296875 6.109375 26.703125 6.109375 
Q 34.1875 6.109375 38.703125 11.40625 
Q 43.21875 16.703125 43.21875 25.484375 
L 43.21875 27.484375 
z
M 52.203125 31.203125 
L 52.203125 0 
L 43.21875 0 
L 43.21875 8.296875 
Q 40.140625 3.328125 35.546875 0.953125 
Q 30.953125 -1.421875 24.3125 -1.421875 
Q 15.921875 -1.421875 10.953125 3.296875 
Q 6 8.015625 6 15.921875 
Q 6 25.140625 12.171875 29.828125 
Q 18.359375 34.515625 30.609375 34.515625 
L 43.21875 34.515625 
L 43.21875 35.40625 
Q 43.21875 41.609375 39.140625 45 
Q 35.0625 48.390625 27.6875 48.390625 
Q 23 48.390625 18.546875 47.265625 
Q 14.109375 46.140625 10.015625 43.890625 
L 10.015625 52.203125 
Q 14.9375 54.109375 19.578125 55.046875 
Q 24.21875 56 28.609375 56 
Q 40.484375 56 46.34375 49.84375 
Q 52.203125 43.703125 52.203125 31.203125 
z
" id="DejaVuSans-97"/>
      <path d="M 54.890625 54.6875 
L 35.109375 28.078125 
L 55.90625 0 
L 45.3125 0 
L 29.390625 21.484375 
L 13.484375 0 
L 2.875 0 
L 24.125 28.609375 
L 4.6875 54.6875 
L 15.28125 54.6875 
L 29.78125 35.203125 
L 44.28125 54.6875 
z
" id="DejaVuSans-120"/>
      <path d="M 9.421875 54.6875 
L 18.40625 54.6875 
L 18.40625 0 
L 9.421875 0 
z
M 9.421875 75.984375 
L 18.40625 75.984375 
L 18.40625 64.59375 
L 9.421875 64.59375 
z
" id="DejaVuSans-105"/>
      <path d="M 44.28125 53.078125 
L 44.28125 44.578125 
Q 40.484375 46.53125 36.375 47.5 
Q 32.28125 48.484375 27.875 48.484375 
Q 21.1875 48.484375 17.84375 46.4375 
Q 14.5 44.390625 14.5 40.28125 
Q 14.5 37.15625 16.890625 35.375 
Q 19.28125 33.59375 26.515625 31.984375 
L 29.59375 31.296875 
Q 39.15625 29.25 43.1875 25.515625 
Q 47.21875 21.78125 47.21875 15.09375 
Q 47.21875 7.46875 41.1875 3.015625 
Q 35.15625 -1.421875 24.609375 -1.421875 
Q 20.21875 -1.421875 15.453125 -0.5625 
Q 10.6875 0.296875 5.421875 2 
L 5.421875 11.28125 
Q 10.40625 8.6875 15.234375 7.390625 
Q 20.0625 6.109375 24.8125 6.109375 
Q 31.15625 6.109375 34.5625 8.28125 
Q 37.984375 10.453125 37.984375 14.40625 
Q 37.984375 18.0625 35.515625 20.015625 
Q 33.0625 21.96875 24.703125 23.78125 
L 21.578125 24.515625 
Q 13.234375 26.265625 9.515625 29.90625 
Q 5.8125 33.546875 5.8125 39.890625 
Q 5.8125 47.609375 11.28125 51.796875 
Q 16.75 56 26.8125 56 
Q 31.78125 56 36.171875 55.265625 
Q 40.578125 54.546875 44.28125 53.078125 
z
" id="DejaVuSans-115"/>
      <path d="M 31 75.875 
Q 24.46875 64.65625 21.28125 53.65625 
Q 18.109375 42.671875 18.109375 31.390625 
Q 18.109375 20.125 21.3125 9.0625 
Q 24.515625 -2 31 -13.1875 
L 23.1875 -13.1875 
Q 15.875 -1.703125 12.234375 9.375 
Q 8.59375 20.453125 8.59375 31.390625 
Q 8.59375 42.28125 12.203125 53.3125 
Q 15.828125 64.359375 23.1875 75.875 
z
" id="DejaVuSans-40"/>
      <path d="M 8.5 21.578125 
L 8.5 54.6875 
L 17.484375 54.6875 
L 17.484375 21.921875 
Q 17.484375 14.15625 20.5 10.265625 
Q 23.53125 6.390625 29.59375 6.390625 
Q 36.859375 6.390625 41.078125 11.03125 
Q 45.3125 15.671875 45.3125 23.6875 
L 45.3125 54.6875 
L 54.296875 54.6875 
L 54.296875 0 
L 45.3125 0 
L 45.3125 8.40625 
Q 42.046875 3.421875 37.71875 1 
Q 33.40625 -1.421875 27.6875 -1.421875 
Q 18.265625 -1.421875 13.375 4.4375 
Q 8.5 10.296875 8.5 21.578125 
z
M 31.109375 56 
z
" id="DejaVuSans-117"/>
      <path d="M 52 44.1875 
Q 55.375 50.25 60.0625 53.125 
Q 64.75 56 71.09375 56 
Q 79.640625 56 84.28125 50.015625 
Q 88.921875 44.046875 88.921875 33.015625 
L 88.921875 0 
L 79.890625 0 
L 79.890625 32.71875 
Q 79.890625 40.578125 77.09375 44.375 
Q 74.3125 48.1875 68.609375 48.1875 
Q 61.625 48.1875 57.5625 43.546875 
Q 53.515625 38.921875 53.515625 30.90625 
L 53.515625 0 
L 44.484375 0 
L 44.484375 32.71875 
Q 44.484375 40.625 41.703125 44.40625 
Q 38.921875 48.1875 33.109375 48.1875 
Q 26.21875 48.1875 22.15625 43.53125 
Q 18.109375 38.875 18.109375 30.90625 
L 18.109375 0 
L 9.078125 0 
L 9.078125 54.6875 
L 18.109375 54.6875 
L 18.109375 46.1875 
Q 21.1875 51.21875 25.484375 53.609375 
Q 29.78125 56 35.6875 56 
Q 41.65625 56 45.828125 52.96875 
Q 50 49.953125 52 44.1875 
z
" id="DejaVuSans-109"/>
      <path d="M 8.015625 75.875 
L 15.828125 75.875 
Q 23.140625 64.359375 26.78125 53.3125 
Q 30.421875 42.28125 30.421875 31.390625 
Q 30.421875 20.453125 26.78125 9.375 
Q 23.140625 -1.703125 15.828125 -13.1875 
L 8.015625 -13.1875 
Q 14.5 -2 17.703125 9.0625 
Q 20.90625 20.125 20.90625 31.390625 
Q 20.90625 42.671875 17.703125 53.65625 
Q 14.5 64.65625 8.015625 75.875 
z
" id="DejaVuSans-41"/>
     </defs>
     <g transform="translate(68.676563 206.273625)scale(0.12 -0.12)">
      <use xlink:href="#DejaVuSans-89"/>
      <use x="61.083984" xlink:href="#DejaVuSans-32"/>
      <use x="92.871094" xlink:href="#DejaVuSans-97"/>
      <use x="154.150391" xlink:href="#DejaVuSans-120"/>
      <use x="213.330078" xlink:href="#DejaVuSans-105"/>
      <use x="241.113281" xlink:href="#DejaVuSans-115"/>
      <use x="293.212891" xlink:href="#DejaVuSans-32"/>
      <use x="325" xlink:href="#DejaVuSans-40"/>
      <use x="364.013672" xlink:href="#DejaVuSans-117"/>
      <use x="427.392578" xlink:href="#DejaVuSans-109"/>
      <use x="524.804688" xlink:href="#DejaVuSans-41"/>
     </g>
    </g>
   </g>
   <g id="matplotlib.axis_2">
    <g id="ytick_1">
     <g id="line2d_7">
      <defs>
       <path d="M 0 0 
L 3.5 0 
" id="md7bad8a77e" style="stroke:#000000;stroke-width:0.8;"/>
      </defs>
      <g>
       <use style="stroke:#000000;stroke-width:0.8;" x="44.004375" xlink:href="#md7bad8a77e" y="158.54175"/>
      </g>
     </g>
     <g id="line2d_8">
      <defs>
       <path d="M 0 0 
L -3.5 0 
" id="md957cd116b" style="stroke:#000000;stroke-width:0.8;"/>
      </defs>
      <g>
       <use style="stroke:#000000;stroke-width:0.8;" x="161.004375" xlink:href="#md957cd116b" y="158.54175"/>
      </g>
     </g>
     <g id="text_5">
      <!-- −2 -->
      <g transform="translate(22.81375 163.100812)scale(0.12 -0.12)">
       <use xlink:href="#DejaVuSans-8722"/>
       <use x="83.789062" xlink:href="#DejaVuSans-50"/>
      </g>
     </g>
    </g>
    <g id="ytick_2">
     <g id="line2d_9">
      <g>
       <use style="stroke:#000000;stroke-width:0.8;" x="44.004375" xlink:href="#md7bad8a77e" y="119.54175"/>
      </g>
     </g>
     <g id="line2d_10">
      <g>
       <use style="stroke:#000000;stroke-width:0.8;" x="161.004375" xlink:href="#md957cd116b" y="119.54175"/>
      </g>
     </g>
     <g id="text_6">
      <!-- 0 -->
      <g transform="translate(32.869375 124.100812)scale(0.12 -0.12)">
       <use xlink:href="#DejaVuSans-48"/>
      </g>
     </g>
    </g>
    <g id="ytick_3">
     <g id="line2d_11">
      <g>
       <use style="stroke:#000000;stroke-width:0.8;" x="44.004375" xlink:href="#md7bad8a77e" y="80.54175"/>
      </g>
     </g>
     <g id="line2d_12">
      <g>
       <use style="stroke:#000000;stroke-width:0.8;" x="161.004375" xlink:href="#md957cd116b" y="80.54175"/>
      </g>
     </g>
     <g id="text_7">
      <!-- 2 -->
      <g transform="translate(32.869375 85.100812)scale(0.12 -0.12)">
       <use xlink:href="#DejaVuSans-50"/>
      </g>
     </g>
    </g>
    <g id="text_8">
     <!-- Z axis (um) -->
     <defs>
      <path d="M 5.609375 72.90625 
L 62.890625 72.90625 
L 62.890625 65.375 
L 16.796875 8.296875 
L 64.015625 8.296875 
L 64.015625 0 
L 4.5 0 
L 4.5 7.515625 
L 50.59375 64.59375 
L 5.609375 64.59375 
z
" id="DejaVuSans-90"/>
     </defs>
     <g transform="translate(16.318125 153.814875)rotate(-90)scale(0.12 -0.12)">
      <use xlink:href="#DejaVuSans-90"/>
      <use x="68.505859" xlink:href="#DejaVuSans-32"/>
      <use x="100.292969" xlink:href="#DejaVuSans-97"/>
      <use x="161.572266" xlink:href="#DejaVuSans-120"/>
      <use x="220.751953" xlink:href="#DejaVuSans-105"/>
      <use x="248.535156" xlink:href="#DejaVuSans-115"/>
      <use x="300.634766" xlink:href="#DejaVuSans-32"/>
      <use x="332.421875" xlink:href="#DejaVuSans-40"/>
      <use x="371.435547" xlink:href="#DejaVuSans-117"/>
      <use x="434.814453" xlink:href="#DejaVuSans-109"/>
      <use x="532.226562" xlink:href="#DejaVuSans-41"/>
     </g>
    </g>
   </g>
   <g id="LineCollection_1">
    <path clip-path="url(#p6688697188)" d="M 44.004375 178.04175 
" style="fill:none;stroke:#440154;stroke-width:0.8;"/>
    <path clip-path="url(#p6688697188)" d="M 44.004375 61.04175 
" style="fill:none;stroke:#440154;stroke-width:0.8;"/>
    <path clip-path="url(#p6688697188)" d="M 161.004375 178.04175 
" style="fill:none;stroke:#440154;stroke-width:0.8;"/>
    <path clip-path="url(#p6688697188)" d="M 161.004375 61.04175 
" style="fill:none;stroke:#440154;stroke-width:0.8;"/>
   </g>
   <g id="LineCollection_2">
    <path clip-path="url(#p6688697188)" d="M 111.847617 139.716006 
L 110.351936 139.954202 
L 107.498277 140.219569 
L 103.21779 140.352059 
L 98.223887 140.262087 
L 94.656814 139.959997 
L 92.51657 139.593627 
L 90.376326 138.97813 
L 88.949497 138.333601 
L 87.522668 137.330855 
L 86.095838 135.874957 
L 85.150615 134.529353 
L 80.388521 127.268706 
L 79.148947 124.859932 
L 77.508469 120.992163 
L 76.450607 118.091337 
L 75.283145 114.223568 
L 74.581579 111.322742 
L 74.054932 108.421915 
L 73.737999 105.521089 
L 73.696011 102.620262 
L 73.96779 99.759738 
L 74.293842 97.785552 
L 75.017264 94.884725 
L 76.310645 91.016957 
L 77.905436 87.149188 
L 79.675107 83.539955 
L 81.101936 81.33846 
L 82.652488 79.413651 
L 83.955595 78.074789 
L 85.382424 76.916259 
L 86.809253 76.063702 
L 88.949497 75.092542 
L 95.549393 72.645056 
L 98.223887 72.291488 
L 101.077546 72.13488 
L 104.644619 72.164028 
L 107.498277 72.378928 
L 109.638521 72.734319 
L 111.778765 73.541863 
L 112.49218 73.786887 
L 116.059253 75.125233 
L 118.199497 76.099372 
L 119.626326 76.95915 
L 121.053155 78.126991 
L 122.479985 79.591085 
L 123.906814 81.389301 
L 125.333643 83.592573 
L 127.076056 87.149188 
L 128.669586 91.016957 
L 129.957658 94.884725 
L 130.677056 97.785552 
L 131.122278 100.686378 
L 131.288807 103.587205 
L 131.147931 106.488031 
L 130.707792 109.725497 
L 130.707792 109.725497 
" style="fill:none;stroke:#46327e;stroke-width:0.8;"/>
   </g>
   <g id="LineCollection_3">
    <path clip-path="url(#p6688697188)" d="M 78.344506 105.386295 
L 78.366557 102.620262 
L 78.646291 99.719436 
L 79.199192 96.81861 
L 79.735343 94.884725 
L 80.499738 92.950841 
L 81.472897 91.016957 
L 82.528765 89.432858 
L 83.955595 87.801963 
L 85.685105 86.182246 
L 87.522668 84.77032 
L 89.972937 83.281419 
L 91.957912 82.314477 
L 93.943399 81.521203 
L 96.797058 80.672478 
L 99.650716 80.1598 
L 101.79096 79.994953 
L 103.931204 80.029183 
L 106.071448 80.263965 
L 108.925107 80.859173 
L 111.065351 81.532248 
L 113.205595 82.395172 
L 115.345838 83.465631 
L 117.486082 84.796284 
L 119.626326 86.471664 
L 121.311589 88.11613 
L 122.479985 89.477698 
L 123.505305 91.016957 
L 124.480876 92.950841 
L 125.333643 95.148155 
L 125.997624 97.785552 
L 126.46037 100.686378 
L 126.651647 103.587205 
L 126.58556 106.488031 
L 126.263262 109.388857 
L 125.684216 112.289684 
L 125.123394 114.223568 
L 123.906814 117.187852 
L 122.869374 119.058279 
L 121.501838 120.992163 
L 119.626326 123.268504 
L 117.223353 125.826874 
L 115.181792 127.760758 
L 113.205595 129.430022 
L 111.065351 130.966298 
L 108.925107 132.187595 
L 106.784863 133.065883 
L 104.744354 133.562411 
L 103.931204 133.683216 
L 102.504375 133.763295 
L 101.077546 133.683216 
L 99.375945 133.383638 
L 99.375945 133.383638 
" style="fill:none;stroke:#365c8d;stroke-width:0.8;"/>
   </g>
   <g id="LineCollection_4">
    <path clip-path="url(#p6688697188)" d="M 121.66186 97.583585 
L 122.075664 98.752494 
L 122.558774 100.686378 
L 122.81228 102.620262 
L 122.873391 104.554147 
L 122.747271 106.488031 
L 122.431394 108.421915 
L 121.76657 110.720081 
L 121.053155 112.512299 
L 120.207173 114.223568 
L 118.912912 116.358195 
L 117.486082 118.330867 
L 116.059253 120.038854 
L 113.919009 122.229982 
L 111.778765 124.036065 
L 109.638521 125.474134 
L 107.498277 126.537178 
L 105.358034 127.226135 
L 103.931204 127.474968 
L 102.504375 127.557089 
L 101.077546 127.474622 
L 99.650716 127.225607 
L 98.197474 126.793816 
L 96.797058 126.224776 
L 94.656814 125.035728 
L 92.51657 123.479043 
L 90.376326 121.551847 
L 88.236082 119.229396 
L 86.601506 117.124395 
L 85.331639 115.19051 
L 83.955595 112.573361 
L 83.24218 110.805622 
L 82.787858 109.388857 
L 82.363551 107.454973 
L 82.143462 105.521089 
L 82.110204 103.587205 
L 82.266317 101.65332 
L 82.625882 99.719436 
L 83.24218 97.755168 
L 84.084159 95.851667 
L 85.382424 93.698137 
L 86.809253 91.895042 
L 88.69958 90.050014 
L 90.489799 88.680151 
L 90.489799 88.680151 
" style="fill:none;stroke:#277f8e;stroke-width:0.8;"/>
   </g>
   <g id="LineCollection_5">
    <path clip-path="url(#p6688697188)" d="M 86.791732 106.488031 
L 86.642009 104.554147 
L 86.736046 102.620262 
L 87.086697 100.686378 
L 87.718171 98.752494 
L 88.669178 96.81861 
L 89.662912 95.333802 
L 90.854291 93.917783 
L 91.852468 92.950841 
L 93.229985 91.849118 
L 94.656814 90.92669 
L 96.797058 89.885636 
L 98.937302 89.198115 
L 101.077546 88.834439 
L 103.21779 88.783742 
L 105.358034 89.044517 
L 107.498277 89.62537 
L 108.925107 90.199673 
L 110.485511 91.016957 
L 111.94251 91.983899 
L 113.205595 93.017008 
L 114.632424 94.479685 
L 115.698205 95.851667 
L 116.83015 97.785552 
L 117.614537 99.719436 
L 118.101795 101.65332 
L 118.322535 103.587205 
L 118.294538 105.521089 
L 118.028833 107.454973 
L 117.486082 109.515705 
L 116.772668 111.381789 
L 115.835259 113.256626 
L 114.620019 115.19051 
L 113.116427 117.124395 
L 111.224848 119.058279 
L 109.638521 120.33794 
L 108.211692 121.249763 
L 106.756515 121.959105 
L 105.358034 122.4427 
L 103.931204 122.736558 
L 102.504375 122.833913 
L 101.077546 122.736344 
L 99.650716 122.442352 
L 98.223887 121.947848 
L 96.36359 120.992163 
L 94.948455 120.025221 
L 93.779742 119.058279 
L 92.51657 117.822159 
L 91.089741 116.156726 
L 89.662912 114.105644 
L 88.642818 112.289684 
L 87.792813 110.3558 
L 87.175861 108.421915 
L 86.791732 106.488031 
L 86.791732 106.488031 
" style="fill:none;stroke:#1fa187;stroke-width:0.8;"/>
   </g>
   <g id="LineCollection_6">
    <path clip-path="url(#p6688697188)" d="M 91.071769 104.554147 
L 91.089741 104.14281 
L 91.11439 103.587205 
L 91.23314 102.620262 
L 91.431603 101.65332 
L 91.714247 100.686378 
L 91.803155 100.451876 
L 92.090918 99.719436 
L 92.51657 98.853161 
L 92.56836 98.752494 
L 93.164447 97.785552 
L 93.229985 97.694434 
L 93.900204 96.81861 
L 93.943399 96.769182 
L 94.656814 96.007262 
L 94.81519 95.851667 
L 95.370229 95.363403 
L 95.972845 94.884725 
L 96.083643 94.804525 
L 96.797058 94.337626 
L 97.510473 93.929405 
L 97.5337 93.917783 
L 98.223887 93.596526 
L 98.937302 93.317265 
L 99.650716 93.090128 
L 100.21485 92.950841 
L 100.364131 92.915864 
L 101.077546 92.796005 
L 101.79096 92.724432 
L 102.504375 92.700895 
L 103.21779 92.725323 
L 103.931204 92.797747 
L 104.644619 92.918405 
L 104.782298 92.950841 
L 105.358034 93.093784 
L 106.071448 93.322038 
L 106.784863 93.602409 
L 107.460079 93.917783 
L 107.498277 93.936963 
L 108.211692 94.346674 
L 108.925107 94.815224 
L 109.020846 94.884725 
L 109.638521 95.376796 
L 110.176832 95.851667 
L 110.351936 96.024159 
L 111.065351 96.78873 
L 111.091391 96.81861 
L 111.778765 97.719226 
L 111.826347 97.785552 
L 112.421587 98.752494 
L 112.49218 98.890018 
L 112.898806 99.719436 
L 113.205595 100.501854 
L 113.275421 100.686378 
L 113.558015 101.65332 
L 113.756583 102.620262 
L 113.875713 103.587205 
L 113.919009 104.553298 
L 113.919047 104.554147 
L 113.919009 104.555365 
L 113.88924 105.521089 
L 113.78834 106.488031 
L 113.617639 107.454973 
L 113.377732 108.421915 
L 113.205595 108.961876 
L 113.066852 109.388857 
L 112.683078 110.3558 
L 112.49218 110.763635 
L 112.222139 111.322742 
L 111.778765 112.118426 
L 111.679216 112.289684 
L 111.065351 113.224035 
L 111.042734 113.256626 
L 110.351936 114.1525 
L 110.29324 114.223568 
L 109.638521 114.94747 
L 109.399329 115.19051 
L 108.925107 115.63626 
L 108.310705 116.157452 
L 108.211692 116.236101 
L 107.498277 116.743072 
L 106.879007 117.124395 
L 106.784863 117.17937 
L 106.071448 117.535508 
L 105.358034 117.826108 
L 104.644619 118.051647 
L 104.469334 118.091337 
L 103.931204 118.208892 
L 103.21779 118.302367 
L 102.504375 118.333504 
L 101.79096 118.302367 
L 101.077546 118.208882 
L 100.539416 118.091337 
L 100.364131 118.051654 
L 99.650716 117.826318 
L 98.937302 117.535901 
L 98.223887 117.180115 
L 98.128365 117.124395 
L 97.510473 116.744369 
L 96.797058 116.238144 
L 96.695313 116.157452 
L 96.083643 115.639417 
L 95.605135 115.19051 
L 95.370229 114.952323 
L 94.709644 114.223568 
L 94.656814 114.159757 
L 93.958636 113.256626 
L 93.943399 113.234731 
L 93.320688 112.289684 
L 93.229985 112.134144 
L 92.776384 111.322742 
L 92.51657 110.786755 
L 92.314086 110.3558 
L 91.928855 109.388857 
L 91.803155 109.003707 
L 91.616816 108.421915 
L 91.375641 107.454973 
L 91.203886 106.488031 
L 91.10212 105.521089 
L 91.089741 105.127371 
L 91.071769 104.554147 
" style="fill:none;stroke:#4ac16d;stroke-width:0.8;"/>
   </g>
   <g id="LineCollection_7">
    <path clip-path="url(#p6688697188)" d="M 95.96764 106.488031 
L 95.855398 105.521089 
L 95.846881 104.554147 
L 95.945291 103.587205 
L 96.083643 102.947296 
L 96.160701 102.620262 
L 96.513097 101.65332 
L 96.797058 101.085105 
L 97.019586 100.686378 
L 97.510473 99.99615 
L 97.735931 99.719436 
L 98.223887 99.225611 
L 98.776827 98.752494 
L 98.937302 98.635153 
L 99.650716 98.206372 
L 100.364131 97.875157 
L 100.634602 97.785552 
L 101.077546 97.655837 
L 101.79096 97.530661 
L 102.504375 97.489426 
L 103.21779 97.53184 
L 103.931204 97.658218 
L 104.363609 97.785552 
L 104.644619 97.879165 
L 105.358034 98.2119 
L 106.071448 98.642153 
L 106.221925 98.752494 
L 106.784863 99.235577 
L 107.2618 99.719436 
L 107.498277 100.01033 
L 107.978 100.686378 
L 108.211692 101.105924 
L 108.484752 101.65332 
L 108.83696 102.620262 
L 108.925107 102.994543 
L 109.053188 103.587205 
L 109.151934 104.554147 
L 109.143978 105.521089 
L 109.032554 106.488031 
L 108.925107 106.976035 
L 108.811536 107.454973 
L 108.474089 108.421915 
L 108.211692 108.992564 
L 108.010634 109.388857 
L 107.498277 110.203541 
L 107.389949 110.3558 
L 106.784863 111.07131 
L 106.536732 111.322742 
L 106.071448 111.731888 
L 105.358034 112.248125 
L 105.284764 112.289684 
L 104.644619 112.613088 
L 103.931204 112.870874 
L 103.21779 113.025621 
L 102.504375 113.077324 
L 101.79096 113.025981 
L 101.077546 112.871586 
L 100.364131 112.614244 
L 99.720749 112.289684 
L 99.650716 112.250026 
L 98.937302 111.73477 
L 98.467892 111.322742 
L 98.223887 111.076027 
L 97.613506 110.3558 
L 97.510473 110.211314 
L 96.99189 109.388857 
L 96.797058 109.005994 
L 96.527641 108.421915 
L 96.189035 107.454973 
L 96.083643 107.012528 
L 95.96764 106.488031 
" style="fill:none;stroke:#a0da39;stroke-width:0.8;"/>
   </g>
   <g id="LineCollection_8"/>
   <g id="patch_4">
    <path d="M 44.004375 178.04175 
L 44.004375 61.04175 
" style="fill:none;stroke:#000000;stroke-linecap:square;stroke-linejoin:miter;stroke-width:0.8;"/>
   </g>
   <g id="patch_5">
    <path d="M 161.004375 178.04175 
L 161.004375 61.04175 
" style="fill:none;stroke:#000000;stroke-linecap:square;stroke-linejoin:miter;stroke-width:0.8;"/>
   </g>
   <g id="patch_6">
    <path d="M 44.004375 178.04175 
L 161.004375 178.04175 
" style="fill:none;stroke:#000000;stroke-linecap:square;stroke-linejoin:miter;stroke-width:0.8;"/>
   </g>
   <g id="patch_7">
    <path d="M 44.004375 61.04175 
L 161.004375 61.04175 
" style="fill:none;stroke:#000000;stroke-linecap:square;stroke-linejoin:miter;stroke-width:0.8;"/>
   </g>
   <g id="text_9">
    <g clip-path="url(#p6688697188)">
     <!-- 0.150 -->
     <defs>
      <path d="M 10.6875 12.40625 
L 21 12.40625 
L 21 0 
L 10.6875 0 
z
" id="DejaVuSans-46"/>
      <path d="M 12.40625 8.296875 
L 28.515625 8.296875 
L 28.515625 63.921875 
L 10.984375 60.40625 
L 10.984375 69.390625 
L 28.421875 72.90625 
L 38.28125 72.90625 
L 38.28125 8.296875 
L 54.390625 8.296875 
L 54.390625 0 
L 12.40625 0 
z
" id="DejaVuSans-49"/>
      <path d="M 10.796875 72.90625 
L 49.515625 72.90625 
L 49.515625 64.59375 
L 19.828125 64.59375 
L 19.828125 46.734375 
Q 21.96875 47.46875 24.109375 47.828125 
Q 26.265625 48.1875 28.421875 48.1875 
Q 40.625 48.1875 47.75 41.5 
Q 54.890625 34.8125 54.890625 23.390625 
Q 54.890625 11.625 47.5625 5.09375 
Q 40.234375 -1.421875 26.90625 -1.421875 
Q 22.3125 -1.421875 17.546875 -0.640625 
Q 12.796875 0.140625 7.71875 1.703125 
L 7.71875 11.625 
Q 12.109375 9.234375 16.796875 8.0625 
Q 21.484375 6.890625 26.703125 6.890625 
Q 35.15625 6.890625 40.078125 11.328125 
Q 45.015625 15.765625 45.015625 23.390625 
Q 45.015625 31 40.078125 35.4375 
Q 35.15625 39.890625 26.703125 39.890625 
Q 22.75 39.890625 18.8125 39.015625 
Q 14.890625 38.140625 10.796875 36.28125 
z
" id="DejaVuSans-53"/>
     </defs>
     <g style="fill:#46327e;" transform="translate(119.867355 141.004786)rotate(-60.060166)scale(0.1 -0.1)">
      <use xlink:href="#DejaVuSans-48"/>
      <use x="63.623047" xlink:href="#DejaVuSans-46"/>
      <use x="95.410156" xlink:href="#DejaVuSans-49"/>
      <use x="159.033203" xlink:href="#DejaVuSans-53"/>
      <use x="222.65625" xlink:href="#DejaVuSans-48"/>
     </g>
    </g>
   </g>
   <g id="text_10">
    <g clip-path="url(#p6688697188)">
     <!-- 0.300 -->
     <defs>
      <path d="M 40.578125 39.3125 
Q 47.65625 37.796875 51.625 33 
Q 55.609375 28.21875 55.609375 21.1875 
Q 55.609375 10.40625 48.1875 4.484375 
Q 40.765625 -1.421875 27.09375 -1.421875 
Q 22.515625 -1.421875 17.65625 -0.515625 
Q 12.796875 0.390625 7.625 2.203125 
L 7.625 11.71875 
Q 11.71875 9.328125 16.59375 8.109375 
Q 21.484375 6.890625 26.8125 6.890625 
Q 36.078125 6.890625 40.9375 10.546875 
Q 45.796875 14.203125 45.796875 21.1875 
Q 45.796875 27.640625 41.28125 31.265625 
Q 36.765625 34.90625 28.71875 34.90625 
L 20.21875 34.90625 
L 20.21875 43.015625 
L 29.109375 43.015625 
Q 36.375 43.015625 40.234375 45.921875 
Q 44.09375 48.828125 44.09375 54.296875 
Q 44.09375 59.90625 40.109375 62.90625 
Q 36.140625 65.921875 28.71875 65.921875 
Q 24.65625 65.921875 20.015625 65.03125 
Q 15.375 64.15625 9.8125 62.3125 
L 9.8125 71.09375 
Q 15.4375 72.65625 20.34375 73.4375 
Q 25.25 74.21875 29.59375 74.21875 
Q 40.828125 74.21875 47.359375 69.109375 
Q 53.90625 64.015625 53.90625 55.328125 
Q 53.90625 49.265625 50.4375 45.09375 
Q 46.96875 40.921875 40.578125 39.3125 
z
" id="DejaVuSans-51"/>
     </defs>
     <g style="fill:#365c8d;" transform="translate(73.883545 112.654277)rotate(-306.808675)scale(0.1 -0.1)">
      <use xlink:href="#DejaVuSans-48"/>
      <use x="63.623047" xlink:href="#DejaVuSans-46"/>
      <use x="95.410156" xlink:href="#DejaVuSans-51"/>
      <use x="159.033203" xlink:href="#DejaVuSans-48"/>
      <use x="222.65625" xlink:href="#DejaVuSans-48"/>
     </g>
    </g>
   </g>
   <g id="text_11">
    <g clip-path="url(#p6688697188)">
     <!-- 0.450 -->
     <defs>
      <path d="M 37.796875 64.3125 
L 12.890625 25.390625 
L 37.796875 25.390625 
z
M 35.203125 72.90625 
L 47.609375 72.90625 
L 47.609375 25.390625 
L 58.015625 25.390625 
L 58.015625 17.1875 
L 47.609375 17.1875 
L 47.609375 0 
L 37.796875 0 
L 37.796875 17.1875 
L 4.890625 17.1875 
L 4.890625 26.703125 
z
" id="DejaVuSans-52"/>
     </defs>
     <g style="fill:#277f8e;" transform="translate(93.68753 84.42032)rotate(-344.18115)scale(0.1 -0.1)">
      <use xlink:href="#DejaVuSans-48"/>
      <use x="63.623047" xlink:href="#DejaVuSans-46"/>
      <use x="95.410156" xlink:href="#DejaVuSans-52"/>
      <use x="159.033203" xlink:href="#DejaVuSans-53"/>
      <use x="222.65625" xlink:href="#DejaVuSans-48"/>
     </g>
    </g>
   </g>
  </g>
  <g id="axes_2">
   <g id="patch_8">
    <path d="M 44.004375 60.14175 
L 161.004375 60.14175 
L 161.004375 24.14175 
L 44.004375 24.14175 
z
" style="fill:none;"/>
   </g>
   <g id="matplotlib.axis_3">
    <g id="xtick_4">
     <g id="line2d_13">
      <g>
       <use style="stroke:#000000;stroke-width:0.8;" x="63.504375" xlink:href="#mde0e3a9142" y="60.14175"/>
      </g>
     </g>
    </g>
    <g id="xtick_5">
     <g id="line2d_14">
      <g>
       <use style="stroke:#000000;stroke-width:0.8;" x="102.504375" xlink:href="#mde0e3a9142" y="60.14175"/>
      </g>
     </g>
    </g>
    <g id="xtick_6">
     <g id="line2d_15">
      <g>
       <use style="stroke:#000000;stroke-width:0.8;" x="141.504375" xlink:href="#mde0e3a9142" y="60.14175"/>
      </g>
     </g>
    </g>
   </g>
   <g id="matplotlib.axis_4">
    <g id="ytick_4">
     <g id="line2d_16">
      <g>
       <use style="stroke:#000000;stroke-width:0.8;" x="44.004375" xlink:href="#md7bad8a77e" y="58.520042"/>
      </g>
     </g>
     <g id="text_12">
      <!-- 0 -->
      <g transform="translate(32.869375 63.079105)scale(0.12 -0.12)">
       <use xlink:href="#DejaVuSans-48"/>
      </g>
     </g>
    </g>
    <g id="ytick_5">
     <g id="line2d_17">
      <g>
       <use style="stroke:#000000;stroke-width:0.8;" x="44.004375" xlink:href="#md7bad8a77e" y="25.778114"/>
      </g>
     </g>
     <g id="text_13">
      <!-- 1 -->
      <g transform="translate(32.869375 30.337176)scale(0.12 -0.12)">
       <use xlink:href="#DejaVuSans-49"/>
      </g>
     </g>
    </g>
   </g>
   <g id="LineCollection_9">
    <path clip-path="url(#pa8a873ff34)" d="M 44.004375 54.088904 
L 161.004375 54.088904 
" style="fill:none;stroke:#000000;stroke-dasharray:0.8,1.32;stroke-dashoffset:0;stroke-width:0.8;"/>
   </g>
   <g id="line2d_18">
    <path clip-path="url(#pa8a873ff34)" d="M 44.004375 58.505062 
L 46.144619 58.337752 
L 50.425107 57.717029 
L 52.565351 57.76685 
L 57.559253 58.238266 
L 58.986082 58.058645 
L 60.412912 57.671355 
L 66.120229 55.657009 
L 68.260473 55.319665 
L 70.400716 55.017874 
L 71.827546 54.621702 
L 73.254375 53.932201 
L 74.681204 52.885673 
L 76.108034 51.481745 
L 77.534863 49.775001 
L 82.528765 43.350139 
L 88.236082 37.164356 
L 93.943399 30.896379 
L 96.083643 28.845455 
L 97.510473 27.696661 
L 98.937302 26.78211 
L 100.364131 26.145568 
L 101.79096 25.819044 
L 103.21779 25.819711 
L 104.644619 26.147652 
L 106.071448 26.785862 
L 107.498277 27.702329 
L 108.925107 28.853541 
L 111.065351 30.9088 
L 114.632424 34.794494 
L 121.053155 41.866735 
L 123.906814 45.053949 
L 126.760473 48.869203 
L 128.900716 51.513714 
L 130.327546 52.91575 
L 131.754375 53.960668 
L 133.181204 54.648845 
L 134.608034 55.043774 
L 137.461692 55.431877 
L 139.601936 55.849056 
L 141.74218 56.571385 
L 145.309253 57.893587 
L 146.736082 58.17969 
L 148.162912 58.252146 
L 150.303155 58.052879 
L 153.156814 57.720137 
L 154.583643 57.722342 
L 156.723887 57.978574 
L 160.29096 58.485616 
L 161.004375 58.505386 
L 161.004375 58.505386 
" style="fill:none;stroke:#1f77b4;stroke-linecap:square;"/>
   </g>
   <g id="patch_9">
    <path d="M 44.004375 60.14175 
L 44.004375 24.14175 
" style="fill:none;stroke:#000000;stroke-linecap:square;stroke-linejoin:miter;stroke-width:0.8;"/>
   </g>
   <g id="patch_10">
    <path d="M 161.004375 60.14175 
L 161.004375 24.14175 
" style="fill:none;stroke:#000000;stroke-linecap:square;stroke-linejoin:miter;stroke-width:0.8;"/>
   </g>
   <g id="patch_11">
    <path d="M 44.004375 60.14175 
L 161.004375 60.14175 
" style="fill:none;stroke:#000000;stroke-linecap:square;stroke-linejoin:miter;stroke-width:0.8;"/>
   </g>
   <g id="patch_12">
    <path d="M 44.004375 24.14175 
L 161.004375 24.14175 
" style="fill:none;stroke:#000000;stroke-linecap:square;stroke-linejoin:miter;stroke-width:0.8;"/>
   </g>
   <g id="text_14">
    <!-- end 0.9 um -->
    <defs>
     <path d="M 56.203125 29.59375 
L 56.203125 25.203125 
L 14.890625 25.203125 
Q 15.484375 15.921875 20.484375 11.0625 
Q 25.484375 6.203125 34.421875 6.203125 
Q 39.59375 6.203125 44.453125 7.46875 
Q 49.3125 8.734375 54.109375 11.28125 
L 54.109375 2.78125 
Q 49.265625 0.734375 44.1875 -0.34375 
Q 39.109375 -1.421875 33.890625 -1.421875 
Q 20.796875 -1.421875 13.15625 6.1875 
Q 5.515625 13.8125 5.515625 26.8125 
Q 5.515625 40.234375 12.765625 48.109375 
Q 20.015625 56 32.328125 56 
Q 43.359375 56 49.78125 48.890625 
Q 56.203125 41.796875 56.203125 29.59375 
z
M 47.21875 32.234375 
Q 47.125 39.59375 43.09375 43.984375 
Q 39.0625 48.390625 32.421875 48.390625 
Q 24.90625 48.390625 20.390625 44.140625 
Q 15.875 39.890625 15.1875 32.171875 
z
" id="DejaVuSans-101"/>
     <path d="M 54.890625 33.015625 
L 54.890625 0 
L 45.90625 0 
L 45.90625 32.71875 
Q 45.90625 40.484375 42.875 44.328125 
Q 39.84375 48.1875 33.796875 48.1875 
Q 26.515625 48.1875 22.3125 43.546875 
Q 18.109375 38.921875 18.109375 30.90625 
L 18.109375 0 
L 9.078125 0 
L 9.078125 54.6875 
L 18.109375 54.6875 
L 18.109375 46.1875 
Q 21.34375 51.125 25.703125 53.5625 
Q 30.078125 56 35.796875 56 
Q 45.21875 56 50.046875 50.171875 
Q 54.890625 44.34375 54.890625 33.015625 
z
" id="DejaVuSans-110"/>
     <path d="M 45.40625 46.390625 
L 45.40625 75.984375 
L 54.390625 75.984375 
L 54.390625 0 
L 45.40625 0 
L 45.40625 8.203125 
Q 42.578125 3.328125 38.25 0.953125 
Q 33.9375 -1.421875 27.875 -1.421875 
Q 17.96875 -1.421875 11.734375 6.484375 
Q 5.515625 14.40625 5.515625 27.296875 
Q 5.515625 40.1875 11.734375 48.09375 
Q 17.96875 56 27.875 56 
Q 33.9375 56 38.25 53.625 
Q 42.578125 51.265625 45.40625 46.390625 
z
M 14.796875 27.296875 
Q 14.796875 17.390625 18.875 11.75 
Q 22.953125 6.109375 30.078125 6.109375 
Q 37.203125 6.109375 41.296875 11.75 
Q 45.40625 17.390625 45.40625 27.296875 
Q 45.40625 37.203125 41.296875 42.84375 
Q 37.203125 48.484375 30.078125 48.484375 
Q 22.953125 48.484375 18.875 42.84375 
Q 14.796875 37.203125 14.796875 27.296875 
z
" id="DejaVuSans-100"/>
     <path d="M 10.984375 1.515625 
L 10.984375 10.5 
Q 14.703125 8.734375 18.5 7.8125 
Q 22.3125 6.890625 25.984375 6.890625 
Q 35.75 6.890625 40.890625 13.453125 
Q 46.046875 20.015625 46.78125 33.40625 
Q 43.953125 29.203125 39.59375 26.953125 
Q 35.25 24.703125 29.984375 24.703125 
Q 19.046875 24.703125 12.671875 31.3125 
Q 6.296875 37.9375 6.296875 49.421875 
Q 6.296875 60.640625 12.9375 67.421875 
Q 19.578125 74.21875 30.609375 74.21875 
Q 43.265625 74.21875 49.921875 64.515625 
Q 56.59375 54.828125 56.59375 36.375 
Q 56.59375 19.140625 48.40625 8.859375 
Q 40.234375 -1.421875 26.421875 -1.421875 
Q 22.703125 -1.421875 18.890625 -0.6875 
Q 15.09375 0.046875 10.984375 1.515625 
z
M 30.609375 32.421875 
Q 37.25 32.421875 41.125 36.953125 
Q 45.015625 41.5 45.015625 49.421875 
Q 45.015625 57.28125 41.125 61.84375 
Q 37.25 66.40625 30.609375 66.40625 
Q 23.96875 66.40625 20.09375 61.84375 
Q 16.21875 57.28125 16.21875 49.421875 
Q 16.21875 41.5 20.09375 36.953125 
Q 23.96875 32.421875 30.609375 32.421875 
z
" id="DejaVuSans-57"/>
    </defs>
    <g transform="translate(61.33725 18.14175)scale(0.144 -0.144)">
     <use xlink:href="#DejaVuSans-101"/>
     <use x="61.523438" xlink:href="#DejaVuSans-110"/>
     <use x="124.902344" xlink:href="#DejaVuSans-100"/>
     <use x="188.378906" xlink:href="#DejaVuSans-32"/>
     <use x="220.166016" xlink:href="#DejaVuSans-48"/>
     <use x="283.789062" xlink:href="#DejaVuSans-46"/>
     <use x="315.576172" xlink:href="#DejaVuSans-57"/>
     <use x="379.199219" xlink:href="#DejaVuSans-32"/>
     <use x="410.986328" xlink:href="#DejaVuSans-117"/>
     <use x="474.365234" xlink:href="#DejaVuSans-109"/>
    </g>
   </g>
  </g>
  <g id="axes_3">
   <g id="patch_13">
    <path d="M 161.904375 178.04175 
L 197.904375 178.04175 
L 197.904375 61.04175 
L 161.904375 61.04175 
z
" style="fill:none;"/>
   </g>
   <g id="matplotlib.axis_5">
    <g id="xtick_7">
     <g id="line2d_19">
      <g>
       <use style="stroke:#000000;stroke-width:0.8;" x="163.540737" xlink:href="#mde0e3a9142" y="178.04175"/>
      </g>
     </g>
     <g id="text_15">
      <!-- 0 -->
      <g transform="translate(159.723237 190.659875)scale(0.12 -0.12)">
       <use xlink:href="#DejaVuSans-48"/>
      </g>
     </g>
    </g>
    <g id="xtick_8">
     <g id="line2d_20">
      <g>
       <use style="stroke:#000000;stroke-width:0.8;" x="196.268011" xlink:href="#mde0e3a9142" y="178.04175"/>
      </g>
     </g>
     <g id="text_16">
      <!-- 1 -->
      <g transform="translate(192.450511 190.659875)scale(0.12 -0.12)">
       <use xlink:href="#DejaVuSans-49"/>
      </g>
     </g>
    </g>
   </g>
   <g id="matplotlib.axis_6">
    <g id="ytick_6">
     <g id="line2d_21">
      <g>
       <use style="stroke:#000000;stroke-width:0.8;" x="161.904375" xlink:href="#md7bad8a77e" y="158.54175"/>
      </g>
     </g>
    </g>
    <g id="ytick_7">
     <g id="line2d_22">
      <g>
       <use style="stroke:#000000;stroke-width:0.8;" x="161.904375" xlink:href="#md7bad8a77e" y="119.54175"/>
      </g>
     </g>
    </g>
    <g id="ytick_8">
     <g id="line2d_23">
      <g>
       <use style="stroke:#000000;stroke-width:0.8;" x="161.904375" xlink:href="#md7bad8a77e" y="80.54175"/>
      </g>
     </g>
    </g>
   </g>
   <g id="LineCollection_10">
    <path clip-path="url(#p8c6dd02bef)" d="M 167.969892 178.04175 
L 167.969892 61.04175 
" style="fill:none;stroke:#000000;stroke-dasharray:0.8,1.32;stroke-dashoffset:0;stroke-width:0.8;"/>
   </g>
   <g id="line2d_24">
    <path clip-path="url(#p8c6dd02bef)" d="M 163.540739 178.04175 
L 163.560338 177.074808 
L 163.617452 176.107866 
L 163.707171 175.140924 
L 163.821784 174.173981 
L 163.951438 173.207039 
L 164.084992 172.240097 
L 164.210972 171.273155 
L 164.318562 170.306213 
L 164.398535 169.339271 
L 164.444055 168.372329 
L 164.451287 167.405386 
L 164.419699 166.438444 
L 164.35217 165.471502 
L 164.254713 164.50456 
L 164.135998 163.537618 
L 164.006613 162.570676 
L 163.878168 161.603733 
L 163.76231 160.636791 
L 163.669735 159.669849 
L 163.609274 158.702907 
L 163.587145 157.735965 
L 163.606416 156.769023 
L 163.666749 155.802081 
L 163.764424 154.835138 
L 163.892663 153.868196 
L 164.042207 152.901254 
L 164.257179 151.934312 
L 164.50933 150.96737 
L 164.711264 150.000428 
L 164.808553 149.033486 
L 164.710581 148.066543 
L 164.523495 147.099601 
L 164.415875 146.132659 
L 164.545684 145.165717 
L 164.993123 144.198775 
L 165.730502 143.231833 
L 166.642601 142.26489 
L 167.587756 141.297948 
L 168.471359 140.331006 
L 169.29916 139.364064 
L 170.187413 138.397122 
L 170.992092 137.43018 
L 171.721697 136.463238 
L 172.354022 135.496295 
L 172.90079 134.529353 
L 173.479055 133.562411 
L 174.111063 132.595469 
L 174.797565 131.628527 
L 175.53856 130.661585 
L 176.332716 129.694643 
L 177.177865 128.7277 
L 178.070759 127.760758 
L 179.007231 126.793816 
L 179.982198 125.826874 
L 180.989745 124.859932 
L 182.023289 123.89299 
L 183.075747 122.926048 
L 184.139454 121.959105 
L 185.20641 120.992163 
L 186.268284 120.025221 
L 187.316743 119.058279 
L 188.343287 118.091337 
L 189.339585 117.124395 
L 190.297388 116.157452 
L 191.20853 115.19051 
L 192.065428 114.223568 
L 192.860583 113.256626 
L 193.586997 112.289684 
L 194.238253 111.322742 
L 194.808185 110.3558 
L 195.291378 109.388857 
L 195.682914 108.421915 
L 195.978462 107.454973 
L 196.174522 106.488031 
L 196.268011 105.521089 
L 196.256929 104.554147 
L 196.13986 103.587205 
L 195.916303 102.620262 
L 195.586592 101.65332 
L 195.151977 100.686378 
L 194.614791 99.719436 
L 193.978367 98.752494 
L 193.246787 97.785552 
L 192.425552 96.81861 
L 191.520909 95.851667 
L 190.540193 94.884725 
L 189.491734 93.917783 
L 188.384866 92.950841 
L 187.22942 91.983899 
L 186.036312 91.016957 
L 184.81679 90.050014 
L 183.582603 89.083072 
L 182.345501 88.11613 
L 181.117647 87.149188 
L 179.910623 86.182246 
L 178.73593 85.215304 
L 177.604064 84.248362 
L 176.524943 83.281419 
L 175.507314 82.314477 
L 174.55851 81.347535 
L 173.684614 80.380593 
L 172.889875 79.413651 
L 172.177043 78.446709 
L 171.498799 77.479767 
L 170.783426 76.512824 
L 170.039122 75.545882 
L 169.387058 74.57894 
L 168.949244 73.611998 
L 168.681242 72.645056 
L 168.256109 71.678114 
L 167.51054 70.711171 
L 166.489261 69.744229 
L 165.402949 68.777287 
L 164.518537 67.810345 
L 164.031259 66.843403 
L 164.048407 65.876461 
L 164.475926 64.909519 
L 164.679968 63.942576 
L 164.369181 62.975634 
L 163.813178 62.008692 
L 163.540741 61.04175 
" style="fill:none;stroke:#1f77b4;stroke-linecap:square;"/>
   </g>
   <g id="patch_14">
    <path d="M 161.904375 178.04175 
L 161.904375 61.04175 
" style="fill:none;stroke:#000000;stroke-linecap:square;stroke-linejoin:miter;stroke-width:0.8;"/>
   </g>
   <g id="patch_15">
    <path d="M 197.904375 178.04175 
L 197.904375 61.04175 
" style="fill:none;stroke:#000000;stroke-linecap:square;stroke-linejoin:miter;stroke-width:0.8;"/>
   </g>
   <g id="patch_16">
    <path d="M 161.904375 178.04175 
L 197.904375 178.04175 
" style="fill:none;stroke:#000000;stroke-linecap:square;stroke-linejoin:miter;stroke-width:0.8;"/>
   </g>
   <g id="patch_17">
    <path d="M 161.904375 61.04175 
L 197.904375 61.04175 
" style="fill:none;stroke:#000000;stroke-linecap:square;stroke-linejoin:miter;stroke-width:0.8;"/>
   </g>
  </g>
 </g>
 <defs>
  <clipPath id="p6688697188">
   <rect height="117" width="117" x="44.004375" y="61.04175"/>
  </clipPath>
  <clipPath id="pa8a873ff34">
   <rect height="36" width="117" x="44.004375" y="24.14175"/>
  </clipPath>
  <clipPath id="p8c6dd02bef">
   <rect height="117" width="36" x="161.904375" y="61.04175"/>
  </clipPath>
 </defs>
</svg>
