<?xml version="1.0" encoding="utf-8" standalone="no"?>
<!DOCTYPE svg PUBLIC "-//W3C//DTD SVG 1.1//EN"
  "http://www.w3.org/Graphics/SVG/1.1/DTD/svg11.dtd">
<!-- Created with matplotlib (https://matplotlib.org/) -->
<svg height="215.96925pt" version="1.1" viewBox="0 0 207.285511 215.96925" width="207.285511pt" xmlns="http://www.w3.org/2000/svg" xmlns:xlink="http://www.w3.org/1999/xlink">
 <defs>
  <style type="text/css">
*{stroke-linecap:butt;stroke-linejoin:round;white-space:pre;}
  </style>
 </defs>
 <g id="figure_1">
  <g id="patch_1">
   <path d="M 0 215.96925 
L 207.285511 215.96925 
L 207.285511 0 
L 0 0 
z
" style="fill:none;"/>
  </g>
  <g id="axes_1">
   <g id="patch_2">
    <path d="M 44.004375 178.04175 
L 161.004375 178.04175 
L 161.004375 61.04175 
L 44.004375 61.04175 
z
" style="fill:none;"/>
   </g>
   <g id="patch_3">
    <path clip-path="url(#p2bcbeac10b)" d="M 99.579375 119.54175 
L 105.429375 119.54175 
L 105.429375 103.94175 
L 99.579375 103.94175 
z
" style="fill:none;stroke:#ff0000;stroke-dasharray:3.7,1.6;stroke-dashoffset:0;stroke-linejoin:miter;"/>
   </g>
   <g id="matplotlib.axis_1">
    <g id="xtick_1">
     <g id="line2d_1">
      <defs>
       <path d="M 0 0 
L 0 -3.5 
" id="m330c00db9c" style="stroke:#000000;stroke-width:0.8;"/>
      </defs>
      <g>
       <use style="stroke:#000000;stroke-width:0.8;" x="63.504375" xlink:href="#m330c00db9c" y="178.04175"/>
      </g>
     </g>
     <g id="line2d_2">
      <defs>
       <path d="M 0 0 
L 0 3.5 
" id="mf5d19ae4f5" style="stroke:#000000;stroke-width:0.8;"/>
      </defs>
      <g>
       <use style="stroke:#000000;stroke-width:0.8;" x="63.504375" xlink:href="#mf5d19ae4f5" y="61.04175"/>
      </g>
     </g>
     <g id="text_1">
      <!-- −2 -->
      <defs>
       <path d="M 10.59375 35.5 
L 73.1875 35.5 
L 73.1875 27.203125 
L 10.59375 27.203125 
z
" id="DejaVuSans-8722"/>
       <path d="M 19.1875 8.296875 
L 53.609375 8.296875 
L 53.609375 0 
L 7.328125 0 
L 7.328125 8.296875 
Q 12.9375 14.109375 22.625 23.890625 
Q 32.328125 33.6875 34.8125 36.53125 
Q 39.546875 41.84375 41.421875 45.53125 
Q 43.3125 49.21875 43.3125 52.78125 
Q 43.3125 58.59375 39.234375 62.25 
Q 35.15625 65.921875 28.609375 65.921875 
Q 23.96875 65.921875 18.8125 64.3125 
Q 13.671875 62.703125 7.8125 59.421875 
L 7.8125 69.390625 
Q 13.765625 71.78125 18.9375 73 
Q 24.125 74.21875 28.421875 74.21875 
Q 39.75 74.21875 46.484375 68.546875 
Q 53.21875 62.890625 53.21875 53.421875 
Q 53.21875 48.921875 51.53125 44.890625 
Q 49.859375 40.875 45.40625 35.40625 
Q 44.1875 33.984375 37.640625 27.21875 
Q 31.109375 20.453125 19.1875 8.296875 
z
" id="DejaVuSans-50"/>
      </defs>
      <g transform="translate(54.659063 190.659875)scale(0.12 -0.12)">
       <use xlink:href="#DejaVuSans-8722"/>
       <use x="83.789062" xlink:href="#DejaVuSans-50"/>
      </g>
     </g>
    </g>
    <g id="xtick_2">
     <g id="line2d_3">
      <g>
       <use style="stroke:#000000;stroke-width:0.8;" x="102.504375" xlink:href="#m330c00db9c" y="178.04175"/>
      </g>
     </g>
     <g id="line2d_4">
      <g>
       <use style="stroke:#000000;stroke-width:0.8;" x="102.504375" xlink:href="#mf5d19ae4f5" y="61.04175"/>
      </g>
     </g>
     <g id="text_2">
      <!-- 0 -->
      <defs>
       <path d="M 31.78125 66.40625 
Q 24.171875 66.40625 20.328125 58.90625 
Q 16.5 51.421875 16.5 36.375 
Q 16.5 21.390625 20.328125 13.890625 
Q 24.171875 6.390625 31.78125 6.390625 
Q 39.453125 6.390625 43.28125 13.890625 
Q 47.125 21.390625 47.125 36.375 
Q 47.125 51.421875 43.28125 58.90625 
Q 39.453125 66.40625 31.78125 66.40625 
z
M 31.78125 74.21875 
Q 44.046875 74.21875 50.515625 64.515625 
Q 56.984375 54.828125 56.984375 36.375 
Q 56.984375 17.96875 50.515625 8.265625 
Q 44.046875 -1.421875 31.78125 -1.421875 
Q 19.53125 -1.421875 13.0625 8.265625 
Q 6.59375 17.96875 6.59375 36.375 
Q 6.59375 54.828125 13.0625 64.515625 
Q 19.53125 74.21875 31.78125 74.21875 
z
" id="DejaVuSans-48"/>
      </defs>
      <g transform="translate(98.686875 190.659875)scale(0.12 -0.12)">
       <use xlink:href="#DejaVuSans-48"/>
      </g>
     </g>
    </g>
    <g id="xtick_3">
     <g id="line2d_5">
      <g>
       <use style="stroke:#000000;stroke-width:0.8;" x="141.504375" xlink:href="#m330c00db9c" y="178.04175"/>
      </g>
     </g>
     <g id="line2d_6">
      <g>
       <use style="stroke:#000000;stroke-width:0.8;" x="141.504375" xlink:href="#mf5d19ae4f5" y="61.04175"/>
      </g>
     </g>
     <g id="text_3">
      <!-- 2 -->
      <g transform="translate(137.686875 190.659875)scale(0.12 -0.12)">
       <use xlink:href="#DejaVuSans-50"/>
      </g>
     </g>
    </g>
    <g id="text_4">
     <!-- Y axis (um) -->
     <defs>
      <path d="M -0.203125 72.90625 
L 10.40625 72.90625 
L 30.609375 42.921875 
L 50.6875 72.90625 
L 61.28125 72.90625 
L 35.5 34.71875 
L 35.5 0 
L 25.59375 0 
L 25.59375 34.71875 
z
" id="DejaVuSans-89"/>
      <path id="DejaVuSans-32"/>
      <path d="M 34.28125 27.484375 
Q 23.390625 27.484375 19.1875 25 
Q 14.984375 22.515625 14.984375 16.5 
Q 14.984375 11.71875 18.140625 8.90625 
Q 21.296875 6.109375 26.703125 6.109375 
Q 34.1875 6.109375 38.703125 11.40625 
Q 43.21875 16.703125 43.21875 25.484375 
L 43.21875 27.484375 
z
M 52.203125 31.203125 
L 52.203125 0 
L 43.21875 0 
L 43.21875 8.296875 
Q 40.140625 3.328125 35.546875 0.953125 
Q 30.953125 -1.421875 24.3125 -1.421875 
Q 15.921875 -1.421875 10.953125 3.296875 
Q 6 8.015625 6 15.921875 
Q 6 25.140625 12.171875 29.828125 
Q 18.359375 34.515625 30.609375 34.515625 
L 43.21875 34.515625 
L 43.21875 35.40625 
Q 43.21875 41.609375 39.140625 45 
Q 35.0625 48.390625 27.6875 48.390625 
Q 23 48.390625 18.546875 47.265625 
Q 14.109375 46.140625 10.015625 43.890625 
L 10.015625 52.203125 
Q 14.9375 54.109375 19.578125 55.046875 
Q 24.21875 56 28.609375 56 
Q 40.484375 56 46.34375 49.84375 
Q 52.203125 43.703125 52.203125 31.203125 
z
" id="DejaVuSans-97"/>
      <path d="M 54.890625 54.6875 
L 35.109375 28.078125 
L 55.90625 0 
L 45.3125 0 
L 29.390625 21.484375 
L 13.484375 0 
L 2.875 0 
L 24.125 28.609375 
L 4.6875 54.6875 
L 15.28125 54.6875 
L 29.78125 35.203125 
L 44.28125 54.6875 
z
" id="DejaVuSans-120"/>
      <path d="M 9.421875 54.6875 
L 18.40625 54.6875 
L 18.40625 0 
L 9.421875 0 
z
M 9.421875 75.984375 
L 18.40625 75.984375 
L 18.40625 64.59375 
L 9.421875 64.59375 
z
" id="DejaVuSans-105"/>
      <path d="M 44.28125 53.078125 
L 44.28125 44.578125 
Q 40.484375 46.53125 36.375 47.5 
Q 32.28125 48.484375 27.875 48.484375 
Q 21.1875 48.484375 17.84375 46.4375 
Q 14.5 44.390625 14.5 40.28125 
Q 14.5 37.15625 16.890625 35.375 
Q 19.28125 33.59375 26.515625 31.984375 
L 29.59375 31.296875 
Q 39.15625 29.25 43.1875 25.515625 
Q 47.21875 21.78125 47.21875 15.09375 
Q 47.21875 7.46875 41.1875 3.015625 
Q 35.15625 -1.421875 24.609375 -1.421875 
Q 20.21875 -1.421875 15.453125 -0.5625 
Q 10.6875 0.296875 5.421875 2 
L 5.421875 11.28125 
Q 10.40625 8.6875 15.234375 7.390625 
Q 20.0625 6.109375 24.8125 6.109375 
Q 31.15625 6.109375 34.5625 8.28125 
Q 37.984375 10.453125 37.984375 14.40625 
Q 37.984375 18.0625 35.515625 20.015625 
Q 33.0625 21.96875 24.703125 23.78125 
L 21.578125 24.515625 
Q 13.234375 26.265625 9.515625 29.90625 
Q 5.8125 33.546875 5.8125 39.890625 
Q 5.8125 47.609375 11.28125 51.796875 
Q 16.75 56 26.8125 56 
Q 31.78125 56 36.171875 55.265625 
Q 40.578125 54.546875 44.28125 53.078125 
z
" id="DejaVuSans-115"/>
      <path d="M 31 75.875 
Q 24.46875 64.65625 21.28125 53.65625 
Q 18.109375 42.671875 18.109375 31.390625 
Q 18.109375 20.125 21.3125 9.0625 
Q 24.515625 -2 31 -13.1875 
L 23.1875 -13.1875 
Q 15.875 -1.703125 12.234375 9.375 
Q 8.59375 20.453125 8.59375 31.390625 
Q 8.59375 42.28125 12.203125 53.3125 
Q 15.828125 64.359375 23.1875 75.875 
z
" id="DejaVuSans-40"/>
      <path d="M 8.5 21.578125 
L 8.5 54.6875 
L 17.484375 54.6875 
L 17.484375 21.921875 
Q 17.484375 14.15625 20.5 10.265625 
Q 23.53125 6.390625 29.59375 6.390625 
Q 36.859375 6.390625 41.078125 11.03125 
Q 45.3125 15.671875 45.3125 23.6875 
L 45.3125 54.6875 
L 54.296875 54.6875 
L 54.296875 0 
L 45.3125 0 
L 45.3125 8.40625 
Q 42.046875 3.421875 37.71875 1 
Q 33.40625 -1.421875 27.6875 -1.421875 
Q 18.265625 -1.421875 13.375 4.4375 
Q 8.5 10.296875 8.5 21.578125 
z
M 31.109375 56 
z
" id="DejaVuSans-117"/>
      <path d="M 52 44.1875 
Q 55.375 50.25 60.0625 53.125 
Q 64.75 56 71.09375 56 
Q 79.640625 56 84.28125 50.015625 
Q 88.921875 44.046875 88.921875 33.015625 
L 88.921875 0 
L 79.890625 0 
L 79.890625 32.71875 
Q 79.890625 40.578125 77.09375 44.375 
Q 74.3125 48.1875 68.609375 48.1875 
Q 61.625 48.1875 57.5625 43.546875 
Q 53.515625 38.921875 53.515625 30.90625 
L 53.515625 0 
L 44.484375 0 
L 44.484375 32.71875 
Q 44.484375 40.625 41.703125 44.40625 
Q 38.921875 48.1875 33.109375 48.1875 
Q 26.21875 48.1875 22.15625 43.53125 
Q 18.109375 38.875 18.109375 30.90625 
L 18.109375 0 
L 9.078125 0 
L 9.078125 54.6875 
L 18.109375 54.6875 
L 18.109375 46.1875 
Q 21.1875 51.21875 25.484375 53.609375 
Q 29.78125 56 35.6875 56 
Q 41.65625 56 45.828125 52.96875 
Q 50 49.953125 52 44.1875 
z
" id="DejaVuSans-109"/>
      <path d="M 8.015625 75.875 
L 15.828125 75.875 
Q 23.140625 64.359375 26.78125 53.3125 
Q 30.421875 42.28125 30.421875 31.390625 
Q 30.421875 20.453125 26.78125 9.375 
Q 23.140625 -1.703125 15.828125 -13.1875 
L 8.015625 -13.1875 
Q 14.5 -2 17.703125 9.0625 
Q 20.90625 20.125 20.90625 31.390625 
Q 20.90625 42.671875 17.703125 53.65625 
Q 14.5 64.65625 8.015625 75.875 
z
" id="DejaVuSans-41"/>
     </defs>
     <g transform="translate(68.676563 206.273625)scale(0.12 -0.12)">
      <use xlink:href="#DejaVuSans-89"/>
      <use x="61.083984" xlink:href="#DejaVuSans-32"/>
      <use x="92.871094" xlink:href="#DejaVuSans-97"/>
      <use x="154.150391" xlink:href="#DejaVuSans-120"/>
      <use x="213.330078" xlink:href="#DejaVuSans-105"/>
      <use x="241.113281" xlink:href="#DejaVuSans-115"/>
      <use x="293.212891" xlink:href="#DejaVuSans-32"/>
      <use x="325" xlink:href="#DejaVuSans-40"/>
      <use x="364.013672" xlink:href="#DejaVuSans-117"/>
      <use x="427.392578" xlink:href="#DejaVuSans-109"/>
      <use x="524.804688" xlink:href="#DejaVuSans-41"/>
     </g>
    </g>
   </g>
   <g id="matplotlib.axis_2">
    <g id="ytick_1">
     <g id="line2d_7">
      <defs>
       <path d="M 0 0 
L 3.5 0 
" id="maba402da4e" style="stroke:#000000;stroke-width:0.8;"/>
      </defs>
      <g>
       <use style="stroke:#000000;stroke-width:0.8;" x="44.004375" xlink:href="#maba402da4e" y="158.54175"/>
      </g>
     </g>
     <g id="line2d_8">
      <defs>
       <path d="M 0 0 
L -3.5 0 
" id="m98553b594d" style="stroke:#000000;stroke-width:0.8;"/>
      </defs>
      <g>
       <use style="stroke:#000000;stroke-width:0.8;" x="161.004375" xlink:href="#m98553b594d" y="158.54175"/>
      </g>
     </g>
     <g id="text_5">
      <!-- −2 -->
      <g transform="translate(22.81375 163.100812)scale(0.12 -0.12)">
       <use xlink:href="#DejaVuSans-8722"/>
       <use x="83.789062" xlink:href="#DejaVuSans-50"/>
      </g>
     </g>
    </g>
    <g id="ytick_2">
     <g id="line2d_9">
      <g>
       <use style="stroke:#000000;stroke-width:0.8;" x="44.004375" xlink:href="#maba402da4e" y="119.54175"/>
      </g>
     </g>
     <g id="line2d_10">
      <g>
       <use style="stroke:#000000;stroke-width:0.8;" x="161.004375" xlink:href="#m98553b594d" y="119.54175"/>
      </g>
     </g>
     <g id="text_6">
      <!-- 0 -->
      <g transform="translate(32.869375 124.100812)scale(0.12 -0.12)">
       <use xlink:href="#DejaVuSans-48"/>
      </g>
     </g>
    </g>
    <g id="ytick_3">
     <g id="line2d_11">
      <g>
       <use style="stroke:#000000;stroke-width:0.8;" x="44.004375" xlink:href="#maba402da4e" y="80.54175"/>
      </g>
     </g>
     <g id="line2d_12">
      <g>
       <use style="stroke:#000000;stroke-width:0.8;" x="161.004375" xlink:href="#m98553b594d" y="80.54175"/>
      </g>
     </g>
     <g id="text_7">
      <!-- 2 -->
      <g transform="translate(32.869375 85.100812)scale(0.12 -0.12)">
       <use xlink:href="#DejaVuSans-50"/>
      </g>
     </g>
    </g>
    <g id="text_8">
     <!-- Z axis (um) -->
     <defs>
      <path d="M 5.609375 72.90625 
L 62.890625 72.90625 
L 62.890625 65.375 
L 16.796875 8.296875 
L 64.015625 8.296875 
L 64.015625 0 
L 4.5 0 
L 4.5 7.515625 
L 50.59375 64.59375 
L 5.609375 64.59375 
z
" id="DejaVuSans-90"/>
     </defs>
     <g transform="translate(16.318125 153.814875)rotate(-90)scale(0.12 -0.12)">
      <use xlink:href="#DejaVuSans-90"/>
      <use x="68.505859" xlink:href="#DejaVuSans-32"/>
      <use x="100.292969" xlink:href="#DejaVuSans-97"/>
      <use x="161.572266" xlink:href="#DejaVuSans-120"/>
      <use x="220.751953" xlink:href="#DejaVuSans-105"/>
      <use x="248.535156" xlink:href="#DejaVuSans-115"/>
      <use x="300.634766" xlink:href="#DejaVuSans-32"/>
      <use x="332.421875" xlink:href="#DejaVuSans-40"/>
      <use x="371.435547" xlink:href="#DejaVuSans-117"/>
      <use x="434.814453" xlink:href="#DejaVuSans-109"/>
      <use x="532.226562" xlink:href="#DejaVuSans-41"/>
     </g>
    </g>
   </g>
   <g id="LineCollection_1">
    <path clip-path="url(#p2bcbeac10b)" d="M 44.004375 178.04175 
" style="fill:none;stroke:#440154;stroke-width:0.8;"/>
    <path clip-path="url(#p2bcbeac10b)" d="M 44.004375 61.04175 
" style="fill:none;stroke:#440154;stroke-width:0.8;"/>
    <path clip-path="url(#p2bcbeac10b)" d="M 161.004375 178.04175 
" style="fill:none;stroke:#440154;stroke-width:0.8;"/>
    <path clip-path="url(#p2bcbeac10b)" d="M 161.004375 61.04175 
" style="fill:none;stroke:#440154;stroke-width:0.8;"/>
   </g>
   <g id="LineCollection_2">
    <path clip-path="url(#p2bcbeac10b)" d="M 91.081924 140.205987 
L 88.236082 139.673013 
L 85.382424 138.908635 
L 83.922096 138.397122 
L 82.144426 137.43018 
L 81.093523 136.463238 
L 80.388521 135.417587 
L 79.509014 133.562411 
L 77.534863 128.288094 
L 76.082352 123.89299 
L 74.934529 120.025221 
L 73.507763 114.223568 
L 72.81934 110.3558 
L 72.49987 107.454973 
L 72.359237 104.554147 
L 72.436721 101.65332 
L 72.72222 98.752494 
L 73.254375 95.70853 
L 73.96779 92.725314 
L 74.753725 90.050014 
L 76.108034 86.21651 
L 77.301343 83.281419 
L 79.116932 79.413651 
L 79.675107 78.350054 
L 80.388521 77.335959 
L 81.139981 76.512824 
L 82.577103 75.545882 
L 85.051702 74.57894 
L 87.522668 73.96182 
L 91.803155 73.18635 
L 95.370229 72.77685 
L 99.650716 72.516364 
L 103.931204 72.478671 
L 108.211692 72.669844 
L 111.778765 72.996898 
L 115.345838 73.553569 
L 119.946476 74.57894 
L 121.76657 75.259136 
L 122.479985 75.576584 
L 123.906814 76.554063 
L 124.740629 77.479767 
L 125.387383 78.446709 
L 127.28073 82.314477 
L 128.900716 86.209937 
L 129.945377 89.083072 
L 131.106938 92.950841 
L 131.786543 95.851667 
L 132.284979 98.752494 
L 132.568876 101.65332 
L 132.645384 104.554147 
L 132.46779 107.830642 
L 132.185795 110.3558 
L 131.499621 114.223568 
L 130.595028 118.091337 
L 128.900716 124.004935 
L 127.338309 128.7277 
L 125.554149 133.481676 
L 125.554149 133.481676 
" style="fill:none;stroke:#46327e;stroke-width:0.8;"/>
   </g>
   <g id="LineCollection_3">
    <path clip-path="url(#p2bcbeac10b)" d="M 79.032398 92.902339 
L 79.675107 90.890688 
L 80.922179 88.11613 
L 81.815351 86.544169 
L 82.755511 85.215304 
L 84.669009 83.010643 
L 86.809253 80.988527 
L 88.949497 79.340717 
L 90.376326 78.417372 
L 92.51657 77.36991 
L 94.656814 76.697205 
L 96.083643 76.388201 
L 98.937302 76.023122 
L 101.79096 75.872744 
L 104.644619 75.922696 
L 107.498277 76.177795 
L 109.638521 76.518701 
L 111.778765 77.123808 
L 113.205595 77.674991 
L 115.345838 78.860399 
L 117.486082 80.40672 
L 119.646515 82.314477 
L 121.457928 84.248362 
L 122.479985 85.504735 
L 123.557376 87.149188 
L 124.620229 89.223896 
L 125.380232 91.016957 
L 126.262336 93.917783 
L 126.918071 96.81861 
L 127.362409 99.719436 
L 127.605414 102.620262 
L 127.653748 105.521089 
L 127.473887 108.850071 
L 127.202968 111.322742 
L 126.529197 115.19051 
L 125.576899 119.058279 
L 124.945069 120.992163 
L 123.774216 123.89299 
L 122.479985 126.382791 
L 120.933339 128.7277 
L 118.912912 131.37593 
L 116.772668 133.737651 
L 114.813876 135.496295 
L 113.105836 136.463238 
L 111.065351 137.158723 
L 109.638521 137.509571 
L 106.784863 137.912373 
L 103.931204 138.101626 
L 101.077546 138.100895 
L 98.223887 137.909856 
L 95.370229 137.504143 
L 93.943399 137.149356 
L 91.803155 136.395275 
L 90.232984 135.496295 
L 88.949497 134.394457 
L 86.809253 132.166243 
L 84.669009 129.500778 
L 84.052504 128.64304 
L 84.052504 128.64304 
" style="fill:none;stroke:#365c8d;stroke-width:0.8;"/>
   </g>
   <g id="LineCollection_4">
    <path clip-path="url(#p2bcbeac10b)" d="M 119.887547 90.885536 
L 120.599666 91.983899 
L 121.76657 94.144283 
L 122.505883 95.851667 
L 123.193399 98.055683 
L 123.720484 100.686378 
L 124.008412 103.587205 
L 124.027783 106.488031 
L 123.796224 109.388857 
L 123.303063 112.289684 
L 122.808037 114.223568 
L 122.159601 116.157452 
L 120.890671 119.058279 
L 119.276108 121.959105 
L 117.974801 123.89299 
L 116.451381 125.826874 
L 114.632424 127.767789 
L 112.49218 129.618388 
L 110.999331 130.661585 
L 108.925107 131.809054 
L 106.784863 132.636079 
L 104.644619 133.127413 
L 102.504375 133.286676 
L 100.364131 133.122099 
L 98.937302 132.828742 
L 96.797058 132.109596 
L 94.656814 131.037069 
L 92.51657 129.587272 
L 90.41056 127.760758 
L 88.949497 126.234066 
L 87.522668 124.499825 
L 85.766019 121.959105 
L 84.644981 120.025221 
L 83.24218 117.079149 
L 82.517849 115.19051 
L 81.71902 112.289684 
L 81.222398 109.388857 
L 80.987933 106.488031 
L 81.005691 103.587205 
L 81.292819 100.686378 
L 81.889531 97.785552 
L 82.528765 95.792844 
L 83.352881 93.917783 
L 84.669009 91.574208 
L 86.095838 89.565069 
L 87.763642 87.68243 
L 87.763642 87.68243 
" style="fill:none;stroke:#277f8e;stroke-width:0.8;"/>
   </g>
   <g id="LineCollection_5">
    <path clip-path="url(#p2bcbeac10b)" d="M 105.637214 127.042512 
L 104.644619 127.26822 
L 103.21779 127.437358 
L 101.79096 127.435027 
L 100.364131 127.261124 
L 98.585567 126.793816 
L 97.510473 126.385443 
L 96.083643 125.670647 
L 94.656814 124.756763 
L 93.229985 123.624368 
L 91.540764 121.959105 
L 89.97012 120.025221 
L 88.699331 118.091337 
L 87.522668 115.850849 
L 86.809253 114.163163 
L 86.095838 111.983738 
L 85.696897 110.3558 
L 85.377603 108.421915 
L 85.220656 106.488031 
L 85.228112 104.554147 
L 85.406043 102.620262 
L 85.765051 100.686378 
L 86.320234 98.752494 
L 87.095555 96.81861 
L 88.236082 94.710246 
L 89.662912 92.718697 
L 91.244249 91.016957 
L 92.51657 89.917125 
L 93.943399 88.905915 
L 95.370229 88.090146 
L 97.510473 87.183364 
L 99.650716 86.614287 
L 101.79096 86.36008 
L 103.931204 86.410327 
L 106.071448 86.76708 
L 108.211692 87.444676 
L 109.691972 88.11613 
L 111.339309 89.083072 
L 112.662858 90.050014 
L 113.919009 91.15975 
L 115.540247 92.950841 
L 116.888618 94.884725 
L 117.599081 96.169589 
L 117.599081 96.169589 
" style="fill:none;stroke:#1fa187;stroke-width:0.8;"/>
   </g>
   <g id="LineCollection_6">
    <path clip-path="url(#p2bcbeac10b)" d="M 90.237812 110.3558 
L 89.853537 108.421915 
L 89.682081 106.488031 
L 89.72684 104.554147 
L 89.996827 102.620262 
L 90.510097 100.686378 
L 91.307482 98.752494 
L 92.51657 96.730525 
L 93.943399 95.032104 
L 95.186619 93.917783 
L 96.594517 92.950841 
L 97.510473 92.458925 
L 98.937302 91.875339 
L 100.364131 91.501797 
L 101.79096 91.316307 
L 103.21779 91.315763 
L 104.644619 91.500145 
L 106.380517 91.983899 
L 107.498277 92.454676 
L 108.925107 93.26475 
L 110.351936 94.353017 
L 111.82364 95.851667 
L 113.205595 97.810513 
L 114.151042 99.719436 
L 114.802274 101.65332 
L 115.191988 103.587205 
L 115.349999 105.521089 
L 115.288283 107.454973 
L 115.01279 109.388857 
L 114.521775 111.322742 
L 113.795683 113.256626 
L 112.799372 115.19051 
L 111.778765 116.715958 
L 110.624516 118.091337 
L 109.628731 119.058279 
L 108.211692 120.142336 
L 106.695261 120.992163 
L 105.358034 121.508699 
L 103.931204 121.837463 
L 102.504375 121.944512 
L 101.077546 121.831544 
L 99.650716 121.496809 
L 98.223887 120.933918 
L 96.663906 120.025221 
L 95.370229 119.016799 
L 93.943399 117.561932 
L 92.861076 116.157452 
L 91.703755 114.223568 
L 90.847376 112.289684 
L 90.237812 110.3558 
L 90.237812 110.3558 
" style="fill:none;stroke:#4ac16d;stroke-width:0.8;"/>
   </g>
   <g id="LineCollection_7">
    <path clip-path="url(#p2bcbeac10b)" d="M 95.351453 109.388857 
L 95.107739 108.421915 
L 94.949065 107.454973 
L 94.87579 106.488031 
L 94.888697 105.521089 
L 94.989464 104.554147 
L 95.180214 103.587205 
L 95.370229 102.937273 
L 95.471138 102.620262 
L 95.880777 101.65332 
L 96.083643 101.271404 
L 96.428262 100.686378 
L 96.797058 100.16621 
L 97.154966 99.719436 
L 97.510473 99.338819 
L 98.143309 98.752494 
L 98.223887 98.68686 
L 98.937302 98.193748 
L 99.650716 97.793333 
L 99.668513 97.785552 
L 100.364131 97.51152 
L 101.077546 97.31141 
L 101.79096 97.191401 
L 102.504375 97.150994 
L 103.21779 97.189863 
L 103.931204 97.308326 
L 104.644619 97.5068 
L 105.356576 97.785552 
L 105.358034 97.786185 
L 106.071448 98.184616 
L 106.784863 98.67551 
L 106.87973 98.752494 
L 107.498277 99.323345 
L 107.869555 99.719436 
L 108.211692 100.144836 
L 108.597066 100.686378 
L 108.925107 101.240888 
L 109.145077 101.65332 
L 109.556501 102.620262 
L 109.638521 102.876322 
L 109.847601 103.587205 
L 110.03975 104.554147 
L 110.14185 105.521089 
L 110.155938 106.488031 
L 110.083654 107.454973 
L 109.9258 108.421915 
L 109.682728 109.388857 
L 109.638521 109.519677 
L 109.331846 110.3558 
L 108.925107 111.235382 
L 108.880579 111.322742 
L 108.287868 112.289684 
L 108.211692 112.396366 
L 107.520177 113.256626 
L 107.498277 113.280577 
L 106.784863 113.961013 
L 106.459439 114.223568 
L 106.071448 114.504778 
L 105.358034 114.927529 
L 104.785171 115.19051 
L 104.644619 115.249548 
L 103.931204 115.463446 
L 103.21779 115.59077 
L 102.504375 115.631807 
L 101.79096 115.586713 
L 101.077546 115.455378 
L 100.364131 115.237439 
L 100.25383 115.19051 
L 99.650716 114.910111 
L 98.937302 114.483182 
L 98.581678 114.223568 
L 98.223887 113.932868 
L 97.518959 113.256626 
L 97.510473 113.247381 
L 96.797058 112.356307 
L 96.749619 112.289684 
L 96.158024 111.322742 
L 96.083643 111.17657 
L 95.704476 110.3558 
L 95.370229 109.444372 
L 95.351453 109.388857 
" style="fill:none;stroke:#a0da39;stroke-width:0.8;"/>
   </g>
   <g id="LineCollection_8"/>
   <g id="patch_4">
    <path d="M 44.004375 178.04175 
L 44.004375 61.04175 
" style="fill:none;stroke:#000000;stroke-linecap:square;stroke-linejoin:miter;stroke-width:0.8;"/>
   </g>
   <g id="patch_5">
    <path d="M 161.004375 178.04175 
L 161.004375 61.04175 
" style="fill:none;stroke:#000000;stroke-linecap:square;stroke-linejoin:miter;stroke-width:0.8;"/>
   </g>
   <g id="patch_6">
    <path d="M 44.004375 178.04175 
L 161.004375 178.04175 
" style="fill:none;stroke:#000000;stroke-linecap:square;stroke-linejoin:miter;stroke-width:0.8;"/>
   </g>
   <g id="patch_7">
    <path d="M 44.004375 61.04175 
L 161.004375 61.04175 
" style="fill:none;stroke:#000000;stroke-linecap:square;stroke-linejoin:miter;stroke-width:0.8;"/>
   </g>
   <g id="text_9">
    <g clip-path="url(#p2bcbeac10b)">
     <!-- 0.150 -->
     <defs>
      <path d="M 10.6875 12.40625 
L 21 12.40625 
L 21 0 
L 10.6875 0 
z
" id="DejaVuSans-46"/>
      <path d="M 12.40625 8.296875 
L 28.515625 8.296875 
L 28.515625 63.921875 
L 10.984375 60.40625 
L 10.984375 69.390625 
L 28.421875 72.90625 
L 38.28125 72.90625 
L 38.28125 8.296875 
L 54.390625 8.296875 
L 54.390625 0 
L 12.40625 0 
z
" id="DejaVuSans-49"/>
      <path d="M 10.796875 72.90625 
L 49.515625 72.90625 
L 49.515625 64.59375 
L 19.828125 64.59375 
L 19.828125 46.734375 
Q 21.96875 47.46875 24.109375 47.828125 
Q 26.265625 48.1875 28.421875 48.1875 
Q 40.625 48.1875 47.75 41.5 
Q 54.890625 34.8125 54.890625 23.390625 
Q 54.890625 11.625 47.5625 5.09375 
Q 40.234375 -1.421875 26.90625 -1.421875 
Q 22.3125 -1.421875 17.546875 -0.640625 
Q 12.796875 0.140625 7.71875 1.703125 
L 7.71875 11.625 
Q 12.109375 9.234375 16.796875 8.0625 
Q 21.484375 6.890625 26.703125 6.890625 
Q 35.15625 6.890625 40.078125 11.328125 
Q 45.015625 15.765625 45.015625 23.390625 
Q 45.015625 31 40.078125 35.4375 
Q 35.15625 39.890625 26.703125 39.890625 
Q 22.75 39.890625 18.8125 39.015625 
Q 14.890625 38.140625 10.796875 36.28125 
z
" id="DejaVuSans-53"/>
     </defs>
     <g style="fill:#46327e;" transform="translate(95.838829 145.404439)rotate(-7.890985)scale(0.1 -0.1)">
      <use xlink:href="#DejaVuSans-48"/>
      <use x="63.623047" xlink:href="#DejaVuSans-46"/>
      <use x="95.410156" xlink:href="#DejaVuSans-49"/>
      <use x="159.033203" xlink:href="#DejaVuSans-53"/>
      <use x="222.65625" xlink:href="#DejaVuSans-48"/>
     </g>
    </g>
   </g>
   <g id="text_10">
    <g clip-path="url(#p2bcbeac10b)">
     <!-- 0.300 -->
     <defs>
      <path d="M 40.578125 39.3125 
Q 47.65625 37.796875 51.625 33 
Q 55.609375 28.21875 55.609375 21.1875 
Q 55.609375 10.40625 48.1875 4.484375 
Q 40.765625 -1.421875 27.09375 -1.421875 
Q 22.515625 -1.421875 17.65625 -0.515625 
Q 12.796875 0.390625 7.625 2.203125 
L 7.625 11.71875 
Q 11.71875 9.328125 16.59375 8.109375 
Q 21.484375 6.890625 26.8125 6.890625 
Q 36.078125 6.890625 40.9375 10.546875 
Q 45.796875 14.203125 45.796875 21.1875 
Q 45.796875 27.640625 41.28125 31.265625 
Q 36.765625 34.90625 28.71875 34.90625 
L 20.21875 34.90625 
L 20.21875 43.015625 
L 29.109375 43.015625 
Q 36.375 43.015625 40.234375 45.921875 
Q 44.09375 48.828125 44.09375 54.296875 
Q 44.09375 59.90625 40.109375 62.90625 
Q 36.140625 65.921875 28.71875 65.921875 
Q 24.65625 65.921875 20.015625 65.03125 
Q 15.375 64.15625 9.8125 62.3125 
L 9.8125 71.09375 
Q 15.4375 72.65625 20.34375 73.4375 
Q 25.25 74.21875 29.59375 74.21875 
Q 40.828125 74.21875 47.359375 69.109375 
Q 53.90625 64.015625 53.90625 55.328125 
Q 53.90625 49.265625 50.4375 45.09375 
Q 46.96875 40.921875 40.578125 39.3125 
z
" id="DejaVuSans-51"/>
     </defs>
     <g style="fill:#365c8d;" transform="translate(73.159971 97.506754)rotate(-277.691254)scale(0.1 -0.1)">
      <use xlink:href="#DejaVuSans-48"/>
      <use x="63.623047" xlink:href="#DejaVuSans-46"/>
      <use x="95.410156" xlink:href="#DejaVuSans-51"/>
      <use x="159.033203" xlink:href="#DejaVuSans-48"/>
      <use x="222.65625" xlink:href="#DejaVuSans-48"/>
     </g>
    </g>
   </g>
   <g id="text_11">
    <g clip-path="url(#p2bcbeac10b)">
     <!-- 0.450 -->
     <defs>
      <path d="M 37.796875 64.3125 
L 12.890625 25.390625 
L 37.796875 25.390625 
z
M 35.203125 72.90625 
L 47.609375 72.90625 
L 47.609375 25.390625 
L 58.015625 25.390625 
L 58.015625 17.1875 
L 47.609375 17.1875 
L 47.609375 0 
L 37.796875 0 
L 37.796875 17.1875 
L 4.890625 17.1875 
L 4.890625 26.703125 
z
" id="DejaVuSans-52"/>
     </defs>
     <g style="fill:#277f8e;" transform="translate(90.059685 82.646562)rotate(-354.2012)scale(0.1 -0.1)">
      <use xlink:href="#DejaVuSans-48"/>
      <use x="63.623047" xlink:href="#DejaVuSans-46"/>
      <use x="95.410156" xlink:href="#DejaVuSans-52"/>
      <use x="159.033203" xlink:href="#DejaVuSans-53"/>
      <use x="222.65625" xlink:href="#DejaVuSans-48"/>
     </g>
    </g>
   </g>
   <g id="text_12">
    <g clip-path="url(#p2bcbeac10b)">
     <!-- 0.600 -->
     <defs>
      <path d="M 33.015625 40.375 
Q 26.375 40.375 22.484375 35.828125 
Q 18.609375 31.296875 18.609375 23.390625 
Q 18.609375 15.53125 22.484375 10.953125 
Q 26.375 6.390625 33.015625 6.390625 
Q 39.65625 6.390625 43.53125 10.953125 
Q 47.40625 15.53125 47.40625 23.390625 
Q 47.40625 31.296875 43.53125 35.828125 
Q 39.65625 40.375 33.015625 40.375 
z
M 52.59375 71.296875 
L 52.59375 62.3125 
Q 48.875 64.0625 45.09375 64.984375 
Q 41.3125 65.921875 37.59375 65.921875 
Q 27.828125 65.921875 22.671875 59.328125 
Q 17.53125 52.734375 16.796875 39.40625 
Q 19.671875 43.65625 24.015625 45.921875 
Q 28.375 48.1875 33.59375 48.1875 
Q 44.578125 48.1875 50.953125 41.515625 
Q 57.328125 34.859375 57.328125 23.390625 
Q 57.328125 12.15625 50.6875 5.359375 
Q 44.046875 -1.421875 33.015625 -1.421875 
Q 20.359375 -1.421875 13.671875 8.265625 
Q 6.984375 17.96875 6.984375 36.375 
Q 6.984375 53.65625 15.1875 63.9375 
Q 23.390625 74.21875 37.203125 74.21875 
Q 40.921875 74.21875 44.703125 73.484375 
Q 48.484375 72.75 52.59375 71.296875 
z
" id="DejaVuSans-54"/>
     </defs>
     <g style="fill:#1fa187;" transform="translate(115.681062 128.581343)rotate(-69.125854)scale(0.1 -0.1)">
      <use xlink:href="#DejaVuSans-48"/>
      <use x="63.623047" xlink:href="#DejaVuSans-46"/>
      <use x="95.410156" xlink:href="#DejaVuSans-54"/>
      <use x="159.033203" xlink:href="#DejaVuSans-48"/>
      <use x="222.65625" xlink:href="#DejaVuSans-48"/>
     </g>
    </g>
   </g>
  </g>
  <g id="axes_2">
   <g id="patch_8">
    <path d="M 44.004375 60.14175 
L 161.004375 60.14175 
L 161.004375 24.14175 
L 44.004375 24.14175 
z
" style="fill:none;"/>
   </g>
   <g id="matplotlib.axis_3">
    <g id="xtick_4">
     <g id="line2d_13">
      <g>
       <use style="stroke:#000000;stroke-width:0.8;" x="63.504375" xlink:href="#m330c00db9c" y="60.14175"/>
      </g>
     </g>
    </g>
    <g id="xtick_5">
     <g id="line2d_14">
      <g>
       <use style="stroke:#000000;stroke-width:0.8;" x="102.504375" xlink:href="#m330c00db9c" y="60.14175"/>
      </g>
     </g>
    </g>
    <g id="xtick_6">
     <g id="line2d_15">
      <g>
       <use style="stroke:#000000;stroke-width:0.8;" x="141.504375" xlink:href="#m330c00db9c" y="60.14175"/>
      </g>
     </g>
    </g>
   </g>
   <g id="matplotlib.axis_4">
    <g id="ytick_4">
     <g id="line2d_16">
      <g>
       <use style="stroke:#000000;stroke-width:0.8;" x="44.004375" xlink:href="#maba402da4e" y="58.519696"/>
      </g>
     </g>
     <g id="text_13">
      <!-- 0 -->
      <g transform="translate(32.869375 63.078759)scale(0.12 -0.12)">
       <use xlink:href="#DejaVuSans-48"/>
      </g>
     </g>
    </g>
    <g id="ytick_5">
     <g id="line2d_17">
      <g>
       <use style="stroke:#000000;stroke-width:0.8;" x="44.004375" xlink:href="#maba402da4e" y="25.778114"/>
      </g>
     </g>
     <g id="text_14">
      <!-- 1 -->
      <g transform="translate(32.869375 30.337176)scale(0.12 -0.12)">
       <use xlink:href="#DejaVuSans-49"/>
      </g>
     </g>
    </g>
   </g>
   <g id="LineCollection_9">
    <path clip-path="url(#p1511495345)" d="M 44.004375 54.088605 
L 161.004375 54.088605 
" style="fill:none;stroke:#000000;stroke-dasharray:0.8,1.32;stroke-dashoffset:0;stroke-width:0.8;"/>
   </g>
   <g id="line2d_18">
    <path clip-path="url(#p1511495345)" d="M 44.004375 58.505386 
L 46.858034 58.40254 
L 51.138521 58.22165 
L 54.705595 58.369835 
L 57.559253 58.409257 
L 59.699497 58.185389 
L 61.839741 57.717009 
L 65.406814 56.638126 
L 68.973887 55.407189 
L 71.114131 54.417895 
L 72.54096 53.535026 
L 73.96779 52.416717 
L 75.394619 51.039789 
L 76.821448 49.408534 
L 78.961692 46.551809 
L 80.388521 44.582785 
L 82.528765 41.889935 
L 91.089741 32.505948 
L 93.943399 29.820209 
L 96.083643 28.145586 
L 97.510473 27.24203 
L 98.937302 26.538555 
L 100.364131 26.056087 
L 101.79096 25.809826 
L 103.21779 25.807783 
L 104.644619 26.050039 
L 106.071448 26.528748 
L 107.498277 27.228871 
L 108.925107 28.129484 
L 111.065351 29.801165 
L 113.205595 31.775502 
L 116.059253 34.725729 
L 121.76657 41.082006 
L 123.906814 43.624958 
L 129.614131 51.039806 
L 131.04096 52.418311 
L 132.46779 53.537878 
L 133.894619 54.421639 
L 136.034863 55.41139 
L 138.888521 56.410214 
L 143.169009 57.716114 
L 145.309253 58.183633 
L 147.449497 58.408092 
L 149.589741 58.403915 
L 155.297058 58.244962 
L 161.004375 58.504883 
L 161.004375 58.504883 
" style="fill:none;stroke:#1f77b4;stroke-linecap:square;"/>
   </g>
   <g id="patch_9">
    <path d="M 44.004375 60.14175 
L 44.004375 24.14175 
" style="fill:none;stroke:#000000;stroke-linecap:square;stroke-linejoin:miter;stroke-width:0.8;"/>
   </g>
   <g id="patch_10">
    <path d="M 161.004375 60.14175 
L 161.004375 24.14175 
" style="fill:none;stroke:#000000;stroke-linecap:square;stroke-linejoin:miter;stroke-width:0.8;"/>
   </g>
   <g id="patch_11">
    <path d="M 44.004375 60.14175 
L 161.004375 60.14175 
" style="fill:none;stroke:#000000;stroke-linecap:square;stroke-linejoin:miter;stroke-width:0.8;"/>
   </g>
   <g id="patch_12">
    <path d="M 44.004375 24.14175 
L 161.004375 24.14175 
" style="fill:none;stroke:#000000;stroke-linecap:square;stroke-linejoin:miter;stroke-width:0.8;"/>
   </g>
   <g id="text_15">
    <!-- end 0.3 um -->
    <defs>
     <path d="M 56.203125 29.59375 
L 56.203125 25.203125 
L 14.890625 25.203125 
Q 15.484375 15.921875 20.484375 11.0625 
Q 25.484375 6.203125 34.421875 6.203125 
Q 39.59375 6.203125 44.453125 7.46875 
Q 49.3125 8.734375 54.109375 11.28125 
L 54.109375 2.78125 
Q 49.265625 0.734375 44.1875 -0.34375 
Q 39.109375 -1.421875 33.890625 -1.421875 
Q 20.796875 -1.421875 13.15625 6.1875 
Q 5.515625 13.8125 5.515625 26.8125 
Q 5.515625 40.234375 12.765625 48.109375 
Q 20.015625 56 32.328125 56 
Q 43.359375 56 49.78125 48.890625 
Q 56.203125 41.796875 56.203125 29.59375 
z
M 47.21875 32.234375 
Q 47.125 39.59375 43.09375 43.984375 
Q 39.0625 48.390625 32.421875 48.390625 
Q 24.90625 48.390625 20.390625 44.140625 
Q 15.875 39.890625 15.1875 32.171875 
z
" id="DejaVuSans-101"/>
     <path d="M 54.890625 33.015625 
L 54.890625 0 
L 45.90625 0 
L 45.90625 32.71875 
Q 45.90625 40.484375 42.875 44.328125 
Q 39.84375 48.1875 33.796875 48.1875 
Q 26.515625 48.1875 22.3125 43.546875 
Q 18.109375 38.921875 18.109375 30.90625 
L 18.109375 0 
L 9.078125 0 
L 9.078125 54.6875 
L 18.109375 54.6875 
L 18.109375 46.1875 
Q 21.34375 51.125 25.703125 53.5625 
Q 30.078125 56 35.796875 56 
Q 45.21875 56 50.046875 50.171875 
Q 54.890625 44.34375 54.890625 33.015625 
z
" id="DejaVuSans-110"/>
     <path d="M 45.40625 46.390625 
L 45.40625 75.984375 
L 54.390625 75.984375 
L 54.390625 0 
L 45.40625 0 
L 45.40625 8.203125 
Q 42.578125 3.328125 38.25 0.953125 
Q 33.9375 -1.421875 27.875 -1.421875 
Q 17.96875 -1.421875 11.734375 6.484375 
Q 5.515625 14.40625 5.515625 27.296875 
Q 5.515625 40.1875 11.734375 48.09375 
Q 17.96875 56 27.875 56 
Q 33.9375 56 38.25 53.625 
Q 42.578125 51.265625 45.40625 46.390625 
z
M 14.796875 27.296875 
Q 14.796875 17.390625 18.875 11.75 
Q 22.953125 6.109375 30.078125 6.109375 
Q 37.203125 6.109375 41.296875 11.75 
Q 45.40625 17.390625 45.40625 27.296875 
Q 45.40625 37.203125 41.296875 42.84375 
Q 37.203125 48.484375 30.078125 48.484375 
Q 22.953125 48.484375 18.875 42.84375 
Q 14.796875 37.203125 14.796875 27.296875 
z
" id="DejaVuSans-100"/>
    </defs>
    <g transform="translate(61.33725 18.14175)scale(0.144 -0.144)">
     <use xlink:href="#DejaVuSans-101"/>
     <use x="61.523438" xlink:href="#DejaVuSans-110"/>
     <use x="124.902344" xlink:href="#DejaVuSans-100"/>
     <use x="188.378906" xlink:href="#DejaVuSans-32"/>
     <use x="220.166016" xlink:href="#DejaVuSans-48"/>
     <use x="283.789062" xlink:href="#DejaVuSans-46"/>
     <use x="315.576172" xlink:href="#DejaVuSans-51"/>
     <use x="379.199219" xlink:href="#DejaVuSans-32"/>
     <use x="410.986328" xlink:href="#DejaVuSans-117"/>
     <use x="474.365234" xlink:href="#DejaVuSans-109"/>
    </g>
   </g>
  </g>
  <g id="axes_3">
   <g id="patch_13">
    <path d="M 161.904375 178.04175 
L 197.904375 178.04175 
L 197.904375 61.04175 
L 161.904375 61.04175 
z
" style="fill:none;"/>
   </g>
   <g id="matplotlib.axis_5">
    <g id="xtick_7">
     <g id="line2d_19">
      <g>
       <use style="stroke:#000000;stroke-width:0.8;" x="163.540738" xlink:href="#m330c00db9c" y="178.04175"/>
      </g>
     </g>
     <g id="text_16">
      <!-- 0 -->
      <g transform="translate(159.723238 190.659875)scale(0.12 -0.12)">
       <use xlink:href="#DejaVuSans-48"/>
      </g>
     </g>
    </g>
    <g id="xtick_8">
     <g id="line2d_20">
      <g>
       <use style="stroke:#000000;stroke-width:0.8;" x="196.268011" xlink:href="#m330c00db9c" y="178.04175"/>
      </g>
     </g>
     <g id="text_17">
      <!-- 1 -->
      <g transform="translate(192.450511 190.659875)scale(0.12 -0.12)">
       <use xlink:href="#DejaVuSans-49"/>
      </g>
     </g>
    </g>
   </g>
   <g id="matplotlib.axis_6">
    <g id="ytick_6">
     <g id="line2d_21">
      <g>
       <use style="stroke:#000000;stroke-width:0.8;" x="161.904375" xlink:href="#maba402da4e" y="158.54175"/>
      </g>
     </g>
    </g>
    <g id="ytick_7">
     <g id="line2d_22">
      <g>
       <use style="stroke:#000000;stroke-width:0.8;" x="161.904375" xlink:href="#maba402da4e" y="119.54175"/>
      </g>
     </g>
    </g>
    <g id="ytick_8">
     <g id="line2d_23">
      <g>
       <use style="stroke:#000000;stroke-width:0.8;" x="161.904375" xlink:href="#maba402da4e" y="80.54175"/>
      </g>
     </g>
    </g>
   </g>
   <g id="LineCollection_10">
    <path clip-path="url(#p6864914198)" d="M 167.969893 178.04175 
L 167.969893 61.04175 
" style="fill:none;stroke:#000000;stroke-dasharray:0.8,1.32;stroke-dashoffset:0;stroke-width:0.8;"/>
   </g>
   <g id="line2d_24">
    <path clip-path="url(#p6864914198)" d="M 163.540739 178.04175 
L 163.546548 177.074808 
L 163.563479 176.107866 
L 163.590082 175.140924 
L 163.624079 174.173981 
L 163.662562 173.207039 
L 163.70224 172.240097 
L 163.739727 171.273155 
L 163.771829 170.306213 
L 163.795822 169.339271 
L 163.809679 168.372329 
L 163.812251 167.405386 
L 163.803357 166.438444 
L 163.783797 165.471502 
L 163.75528 164.50456 
L 163.720268 163.537618 
L 163.681762 162.570676 
L 163.643029 161.603733 
L 163.607316 160.636791 
L 163.577564 159.669849 
L 163.556141 158.702907 
L 163.544639 157.735965 
L 163.543728 156.769023 
L 163.553101 155.802081 
L 163.571508 154.835138 
L 163.596874 153.868196 
L 163.626502 152.901254 
L 163.667657 151.934312 
L 163.711163 150.96737 
L 163.73685 150.000428 
L 163.730129 149.033486 
L 163.697425 148.066543 
L 163.698814 147.099601 
L 163.817597 146.132659 
L 164.135096 145.165717 
L 164.706547 144.198775 
L 165.548248 143.231833 
L 166.640946 142.26489 
L 167.947102 141.297948 
L 169.433817 140.331006 
L 171.090789 139.364064 
L 172.935411 138.397122 
L 174.43733 137.43018 
L 175.632394 136.463238 
L 176.564721 135.496295 
L 177.310616 134.529353 
L 178.050628 133.562411 
L 178.812943 132.595469 
L 179.596499 131.628527 
L 180.399827 130.661585 
L 181.221046 129.694643 
L 182.05795 128.7277 
L 182.9076 127.760758 
L 183.766971 126.793816 
L 184.63247 125.826874 
L 185.500256 124.859932 
L 186.366082 123.89299 
L 187.225453 122.926048 
L 188.073632 121.959105 
L 188.90588 120.992163 
L 189.717132 120.025221 
L 190.502323 119.058279 
L 191.25655 118.091337 
L 191.974667 117.124395 
L 192.651936 116.157452 
L 193.283536 115.19051 
L 193.864974 114.223568 
L 194.392083 113.256626 
L 194.860616 112.289684 
L 195.267222 111.322742 
L 195.608308 110.3558 
L 195.881257 109.388857 
L 196.083458 108.421915 
L 196.212866 107.454973 
L 196.268011 106.488031 
L 196.247914 105.521089 
L 196.15192 104.554147 
L 195.980111 103.587205 
L 195.732977 102.620262 
L 195.411744 101.65332 
L 195.017965 100.686378 
L 194.553925 99.719436 
L 194.022241 98.752494 
L 193.426179 97.785552 
L 192.76958 96.81861 
L 192.056691 95.851667 
L 191.29217 94.884725 
L 190.481081 93.917783 
L 189.628899 92.950841 
L 188.741342 91.983899 
L 187.824374 91.016957 
L 186.884205 90.050014 
L 185.927042 89.083072 
L 184.959095 88.11613 
L 183.986573 87.149188 
L 183.015522 86.182246 
L 182.05166 85.215304 
L 181.100461 84.248362 
L 180.167072 83.281419 
L 179.256068 82.314477 
L 178.371615 81.347535 
L 177.517227 80.380593 
L 176.695763 79.413651 
L 175.909511 78.446709 
L 175.099975 77.479767 
L 174.147795 76.512824 
L 172.967436 75.545882 
L 171.562549 74.57894 
L 169.971842 73.611998 
L 168.658896 72.645056 
L 167.528299 71.678114 
L 166.518899 70.711171 
L 165.618172 69.744229 
L 164.853896 68.777287 
L 164.268474 67.810345 
L 163.888371 66.843403 
L 163.670803 65.876461 
L 163.68088 64.909519 
L 163.72238 63.942576 
L 163.683033 62.975634 
L 163.589421 62.008692 
L 163.540739 61.04175 
" style="fill:none;stroke:#1f77b4;stroke-linecap:square;"/>
   </g>
   <g id="patch_14">
    <path d="M 161.904375 178.04175 
L 161.904375 61.04175 
" style="fill:none;stroke:#000000;stroke-linecap:square;stroke-linejoin:miter;stroke-width:0.8;"/>
   </g>
   <g id="patch_15">
    <path d="M 197.904375 178.04175 
L 197.904375 61.04175 
" style="fill:none;stroke:#000000;stroke-linecap:square;stroke-linejoin:miter;stroke-width:0.8;"/>
   </g>
   <g id="patch_16">
    <path d="M 161.904375 178.04175 
L 197.904375 178.04175 
" style="fill:none;stroke:#000000;stroke-linecap:square;stroke-linejoin:miter;stroke-width:0.8;"/>
   </g>
   <g id="patch_17">
    <path d="M 161.904375 61.04175 
L 197.904375 61.04175 
" style="fill:none;stroke:#000000;stroke-linecap:square;stroke-linejoin:miter;stroke-width:0.8;"/>
   </g>
  </g>
 </g>
 <defs>
  <clipPath id="p2bcbeac10b">
   <rect height="117" width="117" x="44.004375" y="61.04175"/>
  </clipPath>
  <clipPath id="p1511495345">
   <rect height="36" width="117" x="44.004375" y="24.14175"/>
  </clipPath>
  <clipPath id="p6864914198">
   <rect height="117" width="36" x="161.904375" y="61.04175"/>
  </clipPath>
 </defs>
</svg>
