<?xml version="1.0" encoding="utf-8" standalone="no"?>
<!DOCTYPE svg PUBLIC "-//W3C//DTD SVG 1.1//EN"
  "http://www.w3.org/Graphics/SVG/1.1/DTD/svg11.dtd">
<!-- Created with matplotlib (https://matplotlib.org/) -->
<svg height="215.96925pt" version="1.1" viewBox="0 0 207.285511 215.96925" width="207.285511pt" xmlns="http://www.w3.org/2000/svg" xmlns:xlink="http://www.w3.org/1999/xlink">
 <defs>
  <style type="text/css">
*{stroke-linecap:butt;stroke-linejoin:round;white-space:pre;}
  </style>
 </defs>
 <g id="figure_1">
  <g id="patch_1">
   <path d="M 0 215.96925 
L 207.285511 215.96925 
L 207.285511 0 
L 0 0 
z
" style="fill:none;"/>
  </g>
  <g id="axes_1">
   <g id="patch_2">
    <path d="M 44.004375 178.04175 
L 161.004375 178.04175 
L 161.004375 61.04175 
L 44.004375 61.04175 
z
" style="fill:none;"/>
   </g>
   <g id="patch_3">
    <path clip-path="url(#pcf9909e02b)" d="M 96.654375 119.54175 
L 108.354375 119.54175 
L 108.354375 103.94175 
L 96.654375 103.94175 
z
" style="fill:none;stroke:#ff0000;stroke-dasharray:3.7,1.6;stroke-dashoffset:0;stroke-linejoin:miter;"/>
   </g>
   <g id="matplotlib.axis_1">
    <g id="xtick_1">
     <g id="line2d_1">
      <defs>
       <path d="M 0 0 
L 0 -3.5 
" id="mef692b6804" style="stroke:#000000;stroke-width:0.8;"/>
      </defs>
      <g>
       <use style="stroke:#000000;stroke-width:0.8;" x="63.504375" xlink:href="#mef692b6804" y="178.04175"/>
      </g>
     </g>
     <g id="line2d_2">
      <defs>
       <path d="M 0 0 
L 0 3.5 
" id="m86d3f6c8f3" style="stroke:#000000;stroke-width:0.8;"/>
      </defs>
      <g>
       <use style="stroke:#000000;stroke-width:0.8;" x="63.504375" xlink:href="#m86d3f6c8f3" y="61.04175"/>
      </g>
     </g>
     <g id="text_1">
      <!-- −2 -->
      <defs>
       <path d="M 10.59375 35.5 
L 73.1875 35.5 
L 73.1875 27.203125 
L 10.59375 27.203125 
z
" id="DejaVuSans-8722"/>
       <path d="M 19.1875 8.296875 
L 53.609375 8.296875 
L 53.609375 0 
L 7.328125 0 
L 7.328125 8.296875 
Q 12.9375 14.109375 22.625 23.890625 
Q 32.328125 33.6875 34.8125 36.53125 
Q 39.546875 41.84375 41.421875 45.53125 
Q 43.3125 49.21875 43.3125 52.78125 
Q 43.3125 58.59375 39.234375 62.25 
Q 35.15625 65.921875 28.609375 65.921875 
Q 23.96875 65.921875 18.8125 64.3125 
Q 13.671875 62.703125 7.8125 59.421875 
L 7.8125 69.390625 
Q 13.765625 71.78125 18.9375 73 
Q 24.125 74.21875 28.421875 74.21875 
Q 39.75 74.21875 46.484375 68.546875 
Q 53.21875 62.890625 53.21875 53.421875 
Q 53.21875 48.921875 51.53125 44.890625 
Q 49.859375 40.875 45.40625 35.40625 
Q 44.1875 33.984375 37.640625 27.21875 
Q 31.109375 20.453125 19.1875 8.296875 
z
" id="DejaVuSans-50"/>
      </defs>
      <g transform="translate(54.659063 190.659875)scale(0.12 -0.12)">
       <use xlink:href="#DejaVuSans-8722"/>
       <use x="83.789062" xlink:href="#DejaVuSans-50"/>
      </g>
     </g>
    </g>
    <g id="xtick_2">
     <g id="line2d_3">
      <g>
       <use style="stroke:#000000;stroke-width:0.8;" x="102.504375" xlink:href="#mef692b6804" y="178.04175"/>
      </g>
     </g>
     <g id="line2d_4">
      <g>
       <use style="stroke:#000000;stroke-width:0.8;" x="102.504375" xlink:href="#m86d3f6c8f3" y="61.04175"/>
      </g>
     </g>
     <g id="text_2">
      <!-- 0 -->
      <defs>
       <path d="M 31.78125 66.40625 
Q 24.171875 66.40625 20.328125 58.90625 
Q 16.5 51.421875 16.5 36.375 
Q 16.5 21.390625 20.328125 13.890625 
Q 24.171875 6.390625 31.78125 6.390625 
Q 39.453125 6.390625 43.28125 13.890625 
Q 47.125 21.390625 47.125 36.375 
Q 47.125 51.421875 43.28125 58.90625 
Q 39.453125 66.40625 31.78125 66.40625 
z
M 31.78125 74.21875 
Q 44.046875 74.21875 50.515625 64.515625 
Q 56.984375 54.828125 56.984375 36.375 
Q 56.984375 17.96875 50.515625 8.265625 
Q 44.046875 -1.421875 31.78125 -1.421875 
Q 19.53125 -1.421875 13.0625 8.265625 
Q 6.59375 17.96875 6.59375 36.375 
Q 6.59375 54.828125 13.0625 64.515625 
Q 19.53125 74.21875 31.78125 74.21875 
z
" id="DejaVuSans-48"/>
      </defs>
      <g transform="translate(98.686875 190.659875)scale(0.12 -0.12)">
       <use xlink:href="#DejaVuSans-48"/>
      </g>
     </g>
    </g>
    <g id="xtick_3">
     <g id="line2d_5">
      <g>
       <use style="stroke:#000000;stroke-width:0.8;" x="141.504375" xlink:href="#mef692b6804" y="178.04175"/>
      </g>
     </g>
     <g id="line2d_6">
      <g>
       <use style="stroke:#000000;stroke-width:0.8;" x="141.504375" xlink:href="#m86d3f6c8f3" y="61.04175"/>
      </g>
     </g>
     <g id="text_3">
      <!-- 2 -->
      <g transform="translate(137.686875 190.659875)scale(0.12 -0.12)">
       <use xlink:href="#DejaVuSans-50"/>
      </g>
     </g>
    </g>
    <g id="text_4">
     <!-- Y axis (um) -->
     <defs>
      <path d="M -0.203125 72.90625 
L 10.40625 72.90625 
L 30.609375 42.921875 
L 50.6875 72.90625 
L 61.28125 72.90625 
L 35.5 34.71875 
L 35.5 0 
L 25.59375 0 
L 25.59375 34.71875 
z
" id="DejaVuSans-89"/>
      <path id="DejaVuSans-32"/>
      <path d="M 34.28125 27.484375 
Q 23.390625 27.484375 19.1875 25 
Q 14.984375 22.515625 14.984375 16.5 
Q 14.984375 11.71875 18.140625 8.90625 
Q 21.296875 6.109375 26.703125 6.109375 
Q 34.1875 6.109375 38.703125 11.40625 
Q 43.21875 16.703125 43.21875 25.484375 
L 43.21875 27.484375 
z
M 52.203125 31.203125 
L 52.203125 0 
L 43.21875 0 
L 43.21875 8.296875 
Q 40.140625 3.328125 35.546875 0.953125 
Q 30.953125 -1.421875 24.3125 -1.421875 
Q 15.921875 -1.421875 10.953125 3.296875 
Q 6 8.015625 6 15.921875 
Q 6 25.140625 12.171875 29.828125 
Q 18.359375 34.515625 30.609375 34.515625 
L 43.21875 34.515625 
L 43.21875 35.40625 
Q 43.21875 41.609375 39.140625 45 
Q 35.0625 48.390625 27.6875 48.390625 
Q 23 48.390625 18.546875 47.265625 
Q 14.109375 46.140625 10.015625 43.890625 
L 10.015625 52.203125 
Q 14.9375 54.109375 19.578125 55.046875 
Q 24.21875 56 28.609375 56 
Q 40.484375 56 46.34375 49.84375 
Q 52.203125 43.703125 52.203125 31.203125 
z
" id="DejaVuSans-97"/>
      <path d="M 54.890625 54.6875 
L 35.109375 28.078125 
L 55.90625 0 
L 45.3125 0 
L 29.390625 21.484375 
L 13.484375 0 
L 2.875 0 
L 24.125 28.609375 
L 4.6875 54.6875 
L 15.28125 54.6875 
L 29.78125 35.203125 
L 44.28125 54.6875 
z
" id="DejaVuSans-120"/>
      <path d="M 9.421875 54.6875 
L 18.40625 54.6875 
L 18.40625 0 
L 9.421875 0 
z
M 9.421875 75.984375 
L 18.40625 75.984375 
L 18.40625 64.59375 
L 9.421875 64.59375 
z
" id="DejaVuSans-105"/>
      <path d="M 44.28125 53.078125 
L 44.28125 44.578125 
Q 40.484375 46.53125 36.375 47.5 
Q 32.28125 48.484375 27.875 48.484375 
Q 21.1875 48.484375 17.84375 46.4375 
Q 14.5 44.390625 14.5 40.28125 
Q 14.5 37.15625 16.890625 35.375 
Q 19.28125 33.59375 26.515625 31.984375 
L 29.59375 31.296875 
Q 39.15625 29.25 43.1875 25.515625 
Q 47.21875 21.78125 47.21875 15.09375 
Q 47.21875 7.46875 41.1875 3.015625 
Q 35.15625 -1.421875 24.609375 -1.421875 
Q 20.21875 -1.421875 15.453125 -0.5625 
Q 10.6875 0.296875 5.421875 2 
L 5.421875 11.28125 
Q 10.40625 8.6875 15.234375 7.390625 
Q 20.0625 6.109375 24.8125 6.109375 
Q 31.15625 6.109375 34.5625 8.28125 
Q 37.984375 10.453125 37.984375 14.40625 
Q 37.984375 18.0625 35.515625 20.015625 
Q 33.0625 21.96875 24.703125 23.78125 
L 21.578125 24.515625 
Q 13.234375 26.265625 9.515625 29.90625 
Q 5.8125 33.546875 5.8125 39.890625 
Q 5.8125 47.609375 11.28125 51.796875 
Q 16.75 56 26.8125 56 
Q 31.78125 56 36.171875 55.265625 
Q 40.578125 54.546875 44.28125 53.078125 
z
" id="DejaVuSans-115"/>
      <path d="M 31 75.875 
Q 24.46875 64.65625 21.28125 53.65625 
Q 18.109375 42.671875 18.109375 31.390625 
Q 18.109375 20.125 21.3125 9.0625 
Q 24.515625 -2 31 -13.1875 
L 23.1875 -13.1875 
Q 15.875 -1.703125 12.234375 9.375 
Q 8.59375 20.453125 8.59375 31.390625 
Q 8.59375 42.28125 12.203125 53.3125 
Q 15.828125 64.359375 23.1875 75.875 
z
" id="DejaVuSans-40"/>
      <path d="M 8.5 21.578125 
L 8.5 54.6875 
L 17.484375 54.6875 
L 17.484375 21.921875 
Q 17.484375 14.15625 20.5 10.265625 
Q 23.53125 6.390625 29.59375 6.390625 
Q 36.859375 6.390625 41.078125 11.03125 
Q 45.3125 15.671875 45.3125 23.6875 
L 45.3125 54.6875 
L 54.296875 54.6875 
L 54.296875 0 
L 45.3125 0 
L 45.3125 8.40625 
Q 42.046875 3.421875 37.71875 1 
Q 33.40625 -1.421875 27.6875 -1.421875 
Q 18.265625 -1.421875 13.375 4.4375 
Q 8.5 10.296875 8.5 21.578125 
z
M 31.109375 56 
z
" id="DejaVuSans-117"/>
      <path d="M 52 44.1875 
Q 55.375 50.25 60.0625 53.125 
Q 64.75 56 71.09375 56 
Q 79.640625 56 84.28125 50.015625 
Q 88.921875 44.046875 88.921875 33.015625 
L 88.921875 0 
L 79.890625 0 
L 79.890625 32.71875 
Q 79.890625 40.578125 77.09375 44.375 
Q 74.3125 48.1875 68.609375 48.1875 
Q 61.625 48.1875 57.5625 43.546875 
Q 53.515625 38.921875 53.515625 30.90625 
L 53.515625 0 
L 44.484375 0 
L 44.484375 32.71875 
Q 44.484375 40.625 41.703125 44.40625 
Q 38.921875 48.1875 33.109375 48.1875 
Q 26.21875 48.1875 22.15625 43.53125 
Q 18.109375 38.875 18.109375 30.90625 
L 18.109375 0 
L 9.078125 0 
L 9.078125 54.6875 
L 18.109375 54.6875 
L 18.109375 46.1875 
Q 21.1875 51.21875 25.484375 53.609375 
Q 29.78125 56 35.6875 56 
Q 41.65625 56 45.828125 52.96875 
Q 50 49.953125 52 44.1875 
z
" id="DejaVuSans-109"/>
      <path d="M 8.015625 75.875 
L 15.828125 75.875 
Q 23.140625 64.359375 26.78125 53.3125 
Q 30.421875 42.28125 30.421875 31.390625 
Q 30.421875 20.453125 26.78125 9.375 
Q 23.140625 -1.703125 15.828125 -13.1875 
L 8.015625 -13.1875 
Q 14.5 -2 17.703125 9.0625 
Q 20.90625 20.125 20.90625 31.390625 
Q 20.90625 42.671875 17.703125 53.65625 
Q 14.5 64.65625 8.015625 75.875 
z
" id="DejaVuSans-41"/>
     </defs>
     <g transform="translate(68.676563 206.273625)scale(0.12 -0.12)">
      <use xlink:href="#DejaVuSans-89"/>
      <use x="61.083984" xlink:href="#DejaVuSans-32"/>
      <use x="92.871094" xlink:href="#DejaVuSans-97"/>
      <use x="154.150391" xlink:href="#DejaVuSans-120"/>
      <use x="213.330078" xlink:href="#DejaVuSans-105"/>
      <use x="241.113281" xlink:href="#DejaVuSans-115"/>
      <use x="293.212891" xlink:href="#DejaVuSans-32"/>
      <use x="325" xlink:href="#DejaVuSans-40"/>
      <use x="364.013672" xlink:href="#DejaVuSans-117"/>
      <use x="427.392578" xlink:href="#DejaVuSans-109"/>
      <use x="524.804688" xlink:href="#DejaVuSans-41"/>
     </g>
    </g>
   </g>
   <g id="matplotlib.axis_2">
    <g id="ytick_1">
     <g id="line2d_7">
      <defs>
       <path d="M 0 0 
L 3.5 0 
" id="m928e0197d2" style="stroke:#000000;stroke-width:0.8;"/>
      </defs>
      <g>
       <use style="stroke:#000000;stroke-width:0.8;" x="44.004375" xlink:href="#m928e0197d2" y="158.54175"/>
      </g>
     </g>
     <g id="line2d_8">
      <defs>
       <path d="M 0 0 
L -3.5 0 
" id="m1952c4d0cb" style="stroke:#000000;stroke-width:0.8;"/>
      </defs>
      <g>
       <use style="stroke:#000000;stroke-width:0.8;" x="161.004375" xlink:href="#m1952c4d0cb" y="158.54175"/>
      </g>
     </g>
     <g id="text_5">
      <!-- −2 -->
      <g transform="translate(22.81375 163.100812)scale(0.12 -0.12)">
       <use xlink:href="#DejaVuSans-8722"/>
       <use x="83.789062" xlink:href="#DejaVuSans-50"/>
      </g>
     </g>
    </g>
    <g id="ytick_2">
     <g id="line2d_9">
      <g>
       <use style="stroke:#000000;stroke-width:0.8;" x="44.004375" xlink:href="#m928e0197d2" y="119.54175"/>
      </g>
     </g>
     <g id="line2d_10">
      <g>
       <use style="stroke:#000000;stroke-width:0.8;" x="161.004375" xlink:href="#m1952c4d0cb" y="119.54175"/>
      </g>
     </g>
     <g id="text_6">
      <!-- 0 -->
      <g transform="translate(32.869375 124.100812)scale(0.12 -0.12)">
       <use xlink:href="#DejaVuSans-48"/>
      </g>
     </g>
    </g>
    <g id="ytick_3">
     <g id="line2d_11">
      <g>
       <use style="stroke:#000000;stroke-width:0.8;" x="44.004375" xlink:href="#m928e0197d2" y="80.54175"/>
      </g>
     </g>
     <g id="line2d_12">
      <g>
       <use style="stroke:#000000;stroke-width:0.8;" x="161.004375" xlink:href="#m1952c4d0cb" y="80.54175"/>
      </g>
     </g>
     <g id="text_7">
      <!-- 2 -->
      <g transform="translate(32.869375 85.100812)scale(0.12 -0.12)">
       <use xlink:href="#DejaVuSans-50"/>
      </g>
     </g>
    </g>
    <g id="text_8">
     <!-- Z axis (um) -->
     <defs>
      <path d="M 5.609375 72.90625 
L 62.890625 72.90625 
L 62.890625 65.375 
L 16.796875 8.296875 
L 64.015625 8.296875 
L 64.015625 0 
L 4.5 0 
L 4.5 7.515625 
L 50.59375 64.59375 
L 5.609375 64.59375 
z
" id="DejaVuSans-90"/>
     </defs>
     <g transform="translate(16.318125 153.814875)rotate(-90)scale(0.12 -0.12)">
      <use xlink:href="#DejaVuSans-90"/>
      <use x="68.505859" xlink:href="#DejaVuSans-32"/>
      <use x="100.292969" xlink:href="#DejaVuSans-97"/>
      <use x="161.572266" xlink:href="#DejaVuSans-120"/>
      <use x="220.751953" xlink:href="#DejaVuSans-105"/>
      <use x="248.535156" xlink:href="#DejaVuSans-115"/>
      <use x="300.634766" xlink:href="#DejaVuSans-32"/>
      <use x="332.421875" xlink:href="#DejaVuSans-40"/>
      <use x="371.435547" xlink:href="#DejaVuSans-117"/>
      <use x="434.814453" xlink:href="#DejaVuSans-109"/>
      <use x="532.226562" xlink:href="#DejaVuSans-41"/>
     </g>
    </g>
   </g>
   <g id="LineCollection_1">
    <path clip-path="url(#pcf9909e02b)" d="M 44.004375 178.04175 
" style="fill:none;stroke:#440154;stroke-width:0.8;"/>
    <path clip-path="url(#pcf9909e02b)" d="M 44.004375 61.04175 
" style="fill:none;stroke:#440154;stroke-width:0.8;"/>
    <path clip-path="url(#pcf9909e02b)" d="M 161.004375 178.04175 
" style="fill:none;stroke:#440154;stroke-width:0.8;"/>
    <path clip-path="url(#pcf9909e02b)" d="M 161.004375 61.04175 
" style="fill:none;stroke:#440154;stroke-width:0.8;"/>
   </g>
   <g id="LineCollection_2">
    <path clip-path="url(#pcf9909e02b)" d="M 113.024388 139.374723 
L 111.065351 139.742105 
L 108.211692 140.055035 
L 104.644619 140.220775 
L 100.364131 140.218749 
L 96.797058 140.049952 
L 93.943399 139.735206 
L 91.803155 139.328402 
L 89.662912 138.720944 
L 88.236082 138.099234 
L 86.809253 137.186042 
L 85.96547 136.463238 
L 85.118331 135.496295 
L 82.528765 131.591432 
L 80.848891 128.7277 
L 79.391061 125.826874 
L 77.456192 120.992163 
L 76.170471 117.124395 
L 75.128231 113.256626 
L 74.541406 110.3558 
L 74.143184 107.454973 
L 73.987639 104.554147 
L 74.075409 101.65332 
L 74.424841 98.752494 
L 75.017859 95.851667 
L 76.130827 91.983899 
L 77.148301 89.083072 
L 78.961692 84.809795 
L 79.709169 83.281419 
L 81.538677 80.380593 
L 82.528765 79.089257 
L 84.066948 77.479767 
L 85.382424 76.472738 
L 87.082815 75.545882 
L 88.949497 74.757801 
L 93.229985 73.380285 
L 95.370229 72.840121 
L 97.510473 72.528287 
L 100.364131 72.345174 
L 103.931204 72.324832 
L 107.498277 72.528193 
L 109.638521 72.838642 
L 111.778765 73.376442 
L 117.486082 75.32804 
L 119.626326 76.460031 
L 120.339741 76.972549 
L 121.053155 77.564255 
L 122.750017 79.413651 
L 123.906814 80.96863 
L 125.333643 83.315341 
L 126.760473 86.370223 
L 127.872834 89.083072 
L 129.207075 92.950841 
L 130.222763 96.81861 
L 130.866362 100.686378 
L 131.039125 103.587205 
L 130.964946 106.488031 
L 130.735922 108.758409 
L 130.735922 108.758409 
" style="fill:none;stroke:#46327e;stroke-width:0.8;"/>
   </g>
   <g id="LineCollection_3">
    <path clip-path="url(#pcf9909e02b)" d="M 78.596635 106.942308 
L 78.489954 104.554147 
L 78.585938 101.65332 
L 78.961692 98.601768 
L 79.537932 95.851667 
L 80.158476 93.917783 
L 81.101936 91.681557 
L 82.018302 90.050014 
L 83.24218 88.389065 
L 84.669009 86.812947 
L 86.809253 84.891392 
L 89.081071 83.281419 
L 91.089741 82.119989 
L 93.229985 81.11581 
L 95.370229 80.328836 
L 97.510473 79.732654 
L 99.650716 79.355983 
L 101.79096 79.174038 
L 103.931204 79.210157 
L 106.071448 79.461108 
L 108.211692 79.904293 
L 110.351936 80.564142 
L 112.49218 81.426535 
L 114.632424 82.499674 
L 116.772668 83.823967 
L 118.912912 85.46963 
L 120.680534 87.149188 
L 121.76657 88.367478 
L 123.007958 90.050014 
L 123.906814 91.648453 
L 124.866764 93.917783 
L 125.485767 95.851667 
L 126.090075 98.752494 
L 126.43908 101.65332 
L 126.535445 104.554147 
L 126.38871 107.454973 
L 125.997977 110.3558 
L 125.333643 113.388548 
L 124.372823 116.157452 
L 123.193399 118.723637 
L 122.432138 120.025221 
L 120.339741 122.959217 
L 117.964414 125.826874 
L 116.059253 127.870502 
L 113.919009 129.906847 
L 111.778765 131.629538 
L 109.638521 133.021015 
L 107.498277 134.037467 
L 105.957643 134.529353 
L 104.644619 134.809697 
L 103.21779 134.960094 
L 101.79096 134.959905 
L 100.051406 134.750502 
L 100.051406 134.750502 
" style="fill:none;stroke:#365c8d;stroke-width:0.8;"/>
   </g>
   <g id="LineCollection_4">
    <path clip-path="url(#pcf9909e02b)" d="M 121.218817 96.551124 
L 121.76657 97.973063 
L 122.270842 99.719436 
L 122.613367 101.65332 
L 122.756247 103.587205 
L 122.720853 105.521089 
L 122.479985 107.630676 
L 122.103543 109.388857 
L 121.508142 111.322742 
L 120.726685 113.256626 
L 119.626326 115.421661 
L 118.199497 117.723556 
L 116.772668 119.674344 
L 115.345838 121.376647 
L 113.205595 123.553692 
L 111.065351 125.322184 
L 108.925107 126.689222 
L 107.498277 127.384158 
L 106.071448 127.899349 
L 104.644619 128.245553 
L 103.21779 128.416464 
L 101.79096 128.41694 
L 100.364131 128.247044 
L 98.516236 127.760758 
L 97.510473 127.388098 
L 96.083643 126.694466 
L 94.656814 125.825993 
L 93.229985 124.782943 
L 91.089741 122.881693 
L 88.949497 120.558542 
L 87.060631 118.091337 
L 85.811181 116.157452 
L 84.669009 114.048227 
L 83.881785 112.289684 
L 83.196521 110.3558 
L 82.69558 108.421915 
L 82.389656 106.488031 
L 82.267395 104.554147 
L 82.320775 102.620262 
L 82.557222 100.686378 
L 83.012921 98.752494 
L 83.691053 96.81861 
L 84.669009 94.796969 
L 85.83966 92.950841 
L 86.809253 91.711191 
L 88.384104 90.050014 
L 89.97667 88.697917 
L 89.97667 88.697917 
" style="fill:none;stroke:#277f8e;stroke-width:0.8;"/>
   </g>
   <g id="LineCollection_5">
    <path clip-path="url(#pcf9909e02b)" d="M 86.748541 105.521089 
L 86.721833 103.587205 
L 86.927897 101.65332 
L 87.384115 99.719436 
L 88.118002 97.785552 
L 89.17399 95.851667 
L 90.627185 93.917783 
L 91.803155 92.704653 
L 93.229985 91.50941 
L 94.656814 90.548195 
L 96.083643 89.780478 
L 98.223887 88.945138 
L 100.364131 88.455584 
L 102.504375 88.294001 
L 104.644619 88.455738 
L 106.784863 88.945254 
L 108.211692 89.462125 
L 109.638521 90.140228 
L 111.09336 91.016957 
L 112.49218 92.068087 
L 113.919009 93.408652 
L 115.172526 94.884725 
L 116.059253 96.207597 
L 116.901415 97.785552 
L 117.636214 99.719436 
L 118.092595 101.65332 
L 118.298281 103.587205 
L 118.270384 105.521089 
L 118.019988 107.454973 
L 117.486082 109.593444 
L 116.772668 111.547487 
L 115.969634 113.256626 
L 114.632424 115.499442 
L 113.205595 117.420152 
L 111.71766 119.058279 
L 110.351936 120.2953 
L 108.925107 121.348767 
L 107.498277 122.175697 
L 105.6358 122.926048 
L 104.644619 123.191438 
L 103.21779 123.392911 
L 101.79096 123.393654 
L 100.364131 123.193896 
L 98.937302 122.791052 
L 97.095905 121.959105 
L 96.083643 121.356359 
L 94.327897 120.025221 
L 93.229985 119.007661 
L 91.554584 117.124395 
L 90.165258 115.19051 
L 88.949497 113.0787 
L 88.141301 111.322742 
L 87.462109 109.388857 
L 86.996979 107.454973 
L 86.748541 105.521089 
L 86.748541 105.521089 
" style="fill:none;stroke:#1fa187;stroke-width:0.8;"/>
   </g>
   <g id="LineCollection_6">
    <path clip-path="url(#pcf9909e02b)" d="M 91.073203 105.521089 
L 91.043778 104.554147 
L 91.083054 103.587205 
L 91.089741 103.528046 
L 91.19445 102.620262 
L 91.381042 101.65332 
L 91.64664 100.686378 
L 91.803155 100.248874 
L 91.999519 99.719436 
L 92.446597 98.752494 
L 92.51657 98.625718 
L 93.003927 97.785552 
L 93.229985 97.452497 
L 93.687324 96.81861 
L 93.943399 96.507927 
L 94.525819 95.851667 
L 94.656814 95.719884 
L 95.370229 95.057975 
L 95.575596 94.884725 
L 96.083643 94.494523 
L 96.797058 94.005785 
L 96.941745 93.917783 
L 97.510473 93.597182 
L 98.223887 93.249925 
L 98.937302 92.958062 
L 98.958752 92.950841 
L 99.650716 92.730738 
L 100.364131 92.55494 
L 101.077546 92.429801 
L 101.79096 92.354931 
L 102.504375 92.330105 
L 103.21779 92.355169 
L 103.931204 92.430257 
L 104.644619 92.555592 
L 105.358034 92.731565 
L 106.046861 92.950841 
L 106.071448 92.959126 
L 106.784863 93.251073 
L 107.498277 93.598382 
L 108.064978 93.917783 
L 108.211692 94.007012 
L 108.925107 94.495642 
L 109.431869 94.884725 
L 109.638521 95.059007 
L 110.351936 95.720498 
L 110.482414 95.851667 
L 111.065351 96.508153 
L 111.321486 96.81861 
L 111.778765 97.451949 
L 112.005394 97.785552 
L 112.49218 98.624129 
L 112.563083 98.752494 
L 113.010435 99.719436 
L 113.205595 100.245448 
L 113.363413 100.686378 
L 113.629026 101.65332 
L 113.81541 102.620262 
L 113.919009 103.52132 
L 113.926432 103.587205 
L 113.965212 104.554147 
L 113.935153 105.521089 
L 113.919009 105.681949 
L 113.837365 106.488031 
L 113.672969 107.454973 
L 113.44297 108.421915 
L 113.205595 109.199645 
L 113.146527 109.388857 
L 112.779522 110.3558 
L 112.49218 110.997427 
L 112.341371 111.322742 
L 111.825891 112.289684 
L 111.778765 112.368397 
L 111.220769 113.256626 
L 111.065351 113.479582 
L 110.514609 114.223568 
L 110.351936 114.424458 
L 109.684262 115.19051 
L 109.638521 115.239093 
L 108.925107 115.936508 
L 108.67473 116.157452 
L 108.211692 116.540566 
L 107.498277 117.062915 
L 107.40223 117.124395 
L 106.784863 117.4996 
L 106.071448 117.865841 
L 105.534255 118.091337 
L 105.358034 118.16245 
L 104.644619 118.38743 
L 103.931204 118.547921 
L 103.21779 118.644223 
L 102.504375 118.676709 
L 101.79096 118.64535 
L 101.077546 118.550145 
L 100.364131 118.390794 
L 99.650716 118.166869 
L 99.462834 118.091337 
L 98.937302 117.871571 
L 98.223887 117.506351 
L 97.594046 117.124395 
L 97.510473 117.071016 
L 96.797058 116.549583 
L 96.322631 116.157452 
L 96.083643 115.946778 
L 95.370229 115.249946 
L 95.314261 115.19051 
L 94.656814 114.436307 
L 94.484629 114.223568 
L 93.943399 113.492071 
L 93.779428 113.256626 
L 93.229985 112.381063 
L 93.175351 112.289684 
L 92.660932 111.322742 
L 92.51657 111.010724 
L 92.223958 110.3558 
L 91.857984 109.388857 
L 91.803155 109.212622 
L 91.562711 108.421915 
L 91.333674 107.454973 
L 91.17022 106.488031 
L 91.089741 105.687204 
L 91.073203 105.521089 
" style="fill:none;stroke:#4ac16d;stroke-width:0.8;"/>
   </g>
   <g id="LineCollection_7">
    <path clip-path="url(#pcf9909e02b)" d="M 95.91992 106.488031 
L 95.805215 105.521089 
L 95.790212 104.554147 
L 95.877877 103.587205 
L 96.072247 102.620262 
L 96.083643 102.583786 
L 96.401522 101.65332 
L 96.797058 100.815806 
L 96.865288 100.686378 
L 97.510473 99.729182 
L 97.517991 99.719436 
L 98.223887 98.966737 
L 98.461092 98.752494 
L 98.937302 98.385824 
L 99.650716 97.937418 
L 99.961471 97.785552 
L 100.364131 97.612553 
L 101.077546 97.393624 
L 101.79096 97.262853 
L 102.504375 97.219517 
L 103.21779 97.263499 
L 103.931204 97.395089 
L 104.644619 97.614641 
L 105.041553 97.785552 
L 105.358034 97.940578 
L 106.071448 98.389797 
L 106.541915 98.752494 
L 106.784863 98.972188 
L 107.484875 99.719436 
L 107.498277 99.736834 
L 108.137654 100.686378 
L 108.211692 100.826999 
L 108.601568 101.65332 
L 108.925107 102.601947 
L 108.930821 102.620262 
L 109.124687 103.587205 
L 109.211942 104.554147 
L 109.196479 105.521089 
L 109.081229 106.488031 
L 108.925107 107.196973 
L 108.863706 107.454973 
L 108.529151 108.421915 
L 108.211692 109.122379 
L 108.078107 109.388857 
L 107.498277 110.326598 
L 107.477802 110.3558 
L 106.784863 111.19081 
L 106.656893 111.322742 
L 106.071448 111.848409 
L 105.473253 112.289684 
L 105.358034 112.365523 
L 104.644619 112.733519 
L 103.931204 112.99652 
L 103.21779 113.154574 
L 102.504375 113.207863 
L 101.79096 113.156375 
L 101.077546 113.000021 
L 100.364131 112.73874 
L 99.650716 112.372269 
L 99.524819 112.289684 
L 98.937302 111.857649 
L 98.340291 111.322742 
L 98.223887 111.203003 
L 97.520093 110.3558 
L 97.510473 110.342091 
L 96.920653 109.388857 
L 96.797058 109.14235 
L 96.470704 108.421915 
L 96.136435 107.454973 
L 96.083643 107.232833 
L 95.91992 106.488031 
" style="fill:none;stroke:#a0da39;stroke-width:0.8;"/>
   </g>
   <g id="LineCollection_8"/>
   <g id="patch_4">
    <path d="M 44.004375 178.04175 
L 44.004375 61.04175 
" style="fill:none;stroke:#000000;stroke-linecap:square;stroke-linejoin:miter;stroke-width:0.8;"/>
   </g>
   <g id="patch_5">
    <path d="M 161.004375 178.04175 
L 161.004375 61.04175 
" style="fill:none;stroke:#000000;stroke-linecap:square;stroke-linejoin:miter;stroke-width:0.8;"/>
   </g>
   <g id="patch_6">
    <path d="M 44.004375 178.04175 
L 161.004375 178.04175 
" style="fill:none;stroke:#000000;stroke-linecap:square;stroke-linejoin:miter;stroke-width:0.8;"/>
   </g>
   <g id="patch_7">
    <path d="M 44.004375 61.04175 
L 161.004375 61.04175 
" style="fill:none;stroke:#000000;stroke-linecap:square;stroke-linejoin:miter;stroke-width:0.8;"/>
   </g>
   <g id="text_9">
    <g clip-path="url(#pcf9909e02b)">
     <!-- 0.150 -->
     <defs>
      <path d="M 10.6875 12.40625 
L 21 12.40625 
L 21 0 
L 10.6875 0 
z
" id="DejaVuSans-46"/>
      <path d="M 12.40625 8.296875 
L 28.515625 8.296875 
L 28.515625 63.921875 
L 10.984375 60.40625 
L 10.984375 69.390625 
L 28.421875 72.90625 
L 38.28125 72.90625 
L 38.28125 8.296875 
L 54.390625 8.296875 
L 54.390625 0 
L 12.40625 0 
z
" id="DejaVuSans-49"/>
      <path d="M 10.796875 72.90625 
L 49.515625 72.90625 
L 49.515625 64.59375 
L 19.828125 64.59375 
L 19.828125 46.734375 
Q 21.96875 47.46875 24.109375 47.828125 
Q 26.265625 48.1875 28.421875 48.1875 
Q 40.625 48.1875 47.75 41.5 
Q 54.890625 34.8125 54.890625 23.390625 
Q 54.890625 11.625 47.5625 5.09375 
Q 40.234375 -1.421875 26.90625 -1.421875 
Q 22.3125 -1.421875 17.546875 -0.640625 
Q 12.796875 0.140625 7.71875 1.703125 
L 7.71875 11.625 
Q 12.109375 9.234375 16.796875 8.0625 
Q 21.484375 6.890625 26.703125 6.890625 
Q 35.15625 6.890625 40.078125 11.328125 
Q 45.015625 15.765625 45.015625 23.390625 
Q 45.015625 31 40.078125 35.4375 
Q 35.15625 39.890625 26.703125 39.890625 
Q 22.75 39.890625 18.8125 39.015625 
Q 14.890625 38.140625 10.796875 36.28125 
z
" id="DejaVuSans-53"/>
     </defs>
     <g style="fill:#46327e;" transform="translate(121.108399 140.445289)rotate(-62.240057)scale(0.1 -0.1)">
      <use xlink:href="#DejaVuSans-48"/>
      <use x="63.623047" xlink:href="#DejaVuSans-46"/>
      <use x="95.410156" xlink:href="#DejaVuSans-49"/>
      <use x="159.033203" xlink:href="#DejaVuSans-53"/>
      <use x="222.65625" xlink:href="#DejaVuSans-48"/>
     </g>
    </g>
   </g>
   <g id="text_10">
    <g clip-path="url(#pcf9909e02b)">
     <!-- 0.300 -->
     <defs>
      <path d="M 40.578125 39.3125 
Q 47.65625 37.796875 51.625 33 
Q 55.609375 28.21875 55.609375 21.1875 
Q 55.609375 10.40625 48.1875 4.484375 
Q 40.765625 -1.421875 27.09375 -1.421875 
Q 22.515625 -1.421875 17.65625 -0.515625 
Q 12.796875 0.390625 7.625 2.203125 
L 7.625 11.71875 
Q 11.71875 9.328125 16.59375 8.109375 
Q 21.484375 6.890625 26.8125 6.890625 
Q 36.078125 6.890625 40.9375 10.546875 
Q 45.796875 14.203125 45.796875 21.1875 
Q 45.796875 27.640625 41.28125 31.265625 
Q 36.765625 34.90625 28.71875 34.90625 
L 20.21875 34.90625 
L 20.21875 43.015625 
L 29.109375 43.015625 
Q 36.375 43.015625 40.234375 45.921875 
Q 44.09375 48.828125 44.09375 54.296875 
Q 44.09375 59.90625 40.109375 62.90625 
Q 36.140625 65.921875 28.71875 65.921875 
Q 24.65625 65.921875 20.015625 65.03125 
Q 15.375 64.15625 9.8125 62.3125 
L 9.8125 71.09375 
Q 15.4375 72.65625 20.34375 73.4375 
Q 25.25 74.21875 29.59375 74.21875 
Q 40.828125 74.21875 47.359375 69.109375 
Q 53.90625 64.015625 53.90625 55.328125 
Q 53.90625 49.265625 50.4375 45.09375 
Q 46.96875 40.921875 40.578125 39.3125 
z
" id="DejaVuSans-51"/>
     </defs>
     <g style="fill:#365c8d;" transform="translate(74.553837 114.162244)rotate(-307.213289)scale(0.1 -0.1)">
      <use xlink:href="#DejaVuSans-48"/>
      <use x="63.623047" xlink:href="#DejaVuSans-46"/>
      <use x="95.410156" xlink:href="#DejaVuSans-51"/>
      <use x="159.033203" xlink:href="#DejaVuSans-48"/>
      <use x="222.65625" xlink:href="#DejaVuSans-48"/>
     </g>
    </g>
   </g>
   <g id="text_11">
    <g clip-path="url(#pcf9909e02b)">
     <!-- 0.450 -->
     <defs>
      <path d="M 37.796875 64.3125 
L 12.890625 25.390625 
L 37.796875 25.390625 
z
M 35.203125 72.90625 
L 47.609375 72.90625 
L 47.609375 25.390625 
L 58.015625 25.390625 
L 58.015625 17.1875 
L 47.609375 17.1875 
L 47.609375 0 
L 37.796875 0 
L 37.796875 17.1875 
L 4.890625 17.1875 
L 4.890625 26.703125 
z
" id="DejaVuSans-52"/>
     </defs>
     <g style="fill:#277f8e;" transform="translate(92.943432 84.085729)rotate(-345.886721)scale(0.1 -0.1)">
      <use xlink:href="#DejaVuSans-48"/>
      <use x="63.623047" xlink:href="#DejaVuSans-46"/>
      <use x="95.410156" xlink:href="#DejaVuSans-52"/>
      <use x="159.033203" xlink:href="#DejaVuSans-53"/>
      <use x="222.65625" xlink:href="#DejaVuSans-48"/>
     </g>
    </g>
   </g>
  </g>
  <g id="axes_2">
   <g id="patch_8">
    <path d="M 44.004375 60.14175 
L 161.004375 60.14175 
L 161.004375 24.14175 
L 44.004375 24.14175 
z
" style="fill:none;"/>
   </g>
   <g id="matplotlib.axis_3">
    <g id="xtick_4">
     <g id="line2d_13">
      <g>
       <use style="stroke:#000000;stroke-width:0.8;" x="63.504375" xlink:href="#mef692b6804" y="60.14175"/>
      </g>
     </g>
    </g>
    <g id="xtick_5">
     <g id="line2d_14">
      <g>
       <use style="stroke:#000000;stroke-width:0.8;" x="102.504375" xlink:href="#mef692b6804" y="60.14175"/>
      </g>
     </g>
    </g>
    <g id="xtick_6">
     <g id="line2d_15">
      <g>
       <use style="stroke:#000000;stroke-width:0.8;" x="141.504375" xlink:href="#mef692b6804" y="60.14175"/>
      </g>
     </g>
    </g>
   </g>
   <g id="matplotlib.axis_4">
    <g id="ytick_4">
     <g id="line2d_16">
      <g>
       <use style="stroke:#000000;stroke-width:0.8;" x="44.004375" xlink:href="#m928e0197d2" y="58.523243"/>
      </g>
     </g>
     <g id="text_12">
      <!-- 0 -->
      <g transform="translate(32.869375 63.082305)scale(0.12 -0.12)">
       <use xlink:href="#DejaVuSans-48"/>
      </g>
     </g>
    </g>
    <g id="ytick_5">
     <g id="line2d_17">
      <g>
       <use style="stroke:#000000;stroke-width:0.8;" x="44.004375" xlink:href="#m928e0197d2" y="25.778114"/>
      </g>
     </g>
     <g id="text_13">
      <!-- 1 -->
      <g transform="translate(32.869375 30.337176)scale(0.12 -0.12)">
       <use xlink:href="#DejaVuSans-49"/>
      </g>
     </g>
    </g>
   </g>
   <g id="LineCollection_9">
    <path clip-path="url(#p35c5b36e9b)" d="M 44.004375 54.091671 
L 161.004375 54.091671 
" style="fill:none;stroke:#000000;stroke-dasharray:0.8,1.32;stroke-dashoffset:0;stroke-width:0.8;"/>
   </g>
   <g id="line2d_18">
    <path clip-path="url(#p35c5b36e9b)" d="M 44.004375 58.505386 
L 46.144619 58.342374 
L 50.425107 57.738291 
L 52.565351 57.791568 
L 57.559253 58.303488 
L 58.986082 58.15469 
L 60.412912 57.804388 
L 63.26657 56.760883 
L 65.406814 56.057473 
L 67.547058 55.62906 
L 70.400716 55.203401 
L 71.827546 54.794655 
L 73.254375 54.102069 
L 74.681204 53.062116 
L 76.108034 51.670071 
L 77.534863 49.972982 
L 82.528765 43.486038 
L 88.236082 37.148279 
L 93.943399 30.823847 
L 96.083643 28.789609 
L 97.510473 27.657431 
L 98.937302 26.759653 
L 100.364131 26.13666 
L 101.79096 25.817934 
L 103.21779 25.818984 
L 104.644619 26.139729 
L 106.071448 26.764257 
L 107.498277 27.663085 
L 108.925107 28.795586 
L 111.065351 30.828613 
L 113.919009 33.912399 
L 124.620229 46.088667 
L 126.047058 48.024282 
L 128.187302 50.834834 
L 129.614131 52.390353 
L 131.04096 53.611283 
L 132.46779 54.47395 
L 133.894619 55.012706 
L 135.321448 55.317693 
L 139.601936 56.039825 
L 141.74218 56.747572 
L 144.595838 57.798908 
L 146.022668 58.152075 
L 147.449497 58.30224 
L 148.876326 58.255293 
L 154.583643 57.732804 
L 156.723887 57.985117 
L 160.29096 58.485508 
L 161.004375 58.505012 
L 161.004375 58.505012 
" style="fill:none;stroke:#1f77b4;stroke-linecap:square;"/>
   </g>
   <g id="patch_9">
    <path d="M 44.004375 60.14175 
L 44.004375 24.14175 
" style="fill:none;stroke:#000000;stroke-linecap:square;stroke-linejoin:miter;stroke-width:0.8;"/>
   </g>
   <g id="patch_10">
    <path d="M 161.004375 60.14175 
L 161.004375 24.14175 
" style="fill:none;stroke:#000000;stroke-linecap:square;stroke-linejoin:miter;stroke-width:0.8;"/>
   </g>
   <g id="patch_11">
    <path d="M 44.004375 60.14175 
L 161.004375 60.14175 
" style="fill:none;stroke:#000000;stroke-linecap:square;stroke-linejoin:miter;stroke-width:0.8;"/>
   </g>
   <g id="patch_12">
    <path d="M 44.004375 24.14175 
L 161.004375 24.14175 
" style="fill:none;stroke:#000000;stroke-linecap:square;stroke-linejoin:miter;stroke-width:0.8;"/>
   </g>
   <g id="text_14">
    <!-- end 0.6 um -->
    <defs>
     <path d="M 56.203125 29.59375 
L 56.203125 25.203125 
L 14.890625 25.203125 
Q 15.484375 15.921875 20.484375 11.0625 
Q 25.484375 6.203125 34.421875 6.203125 
Q 39.59375 6.203125 44.453125 7.46875 
Q 49.3125 8.734375 54.109375 11.28125 
L 54.109375 2.78125 
Q 49.265625 0.734375 44.1875 -0.34375 
Q 39.109375 -1.421875 33.890625 -1.421875 
Q 20.796875 -1.421875 13.15625 6.1875 
Q 5.515625 13.8125 5.515625 26.8125 
Q 5.515625 40.234375 12.765625 48.109375 
Q 20.015625 56 32.328125 56 
Q 43.359375 56 49.78125 48.890625 
Q 56.203125 41.796875 56.203125 29.59375 
z
M 47.21875 32.234375 
Q 47.125 39.59375 43.09375 43.984375 
Q 39.0625 48.390625 32.421875 48.390625 
Q 24.90625 48.390625 20.390625 44.140625 
Q 15.875 39.890625 15.1875 32.171875 
z
" id="DejaVuSans-101"/>
     <path d="M 54.890625 33.015625 
L 54.890625 0 
L 45.90625 0 
L 45.90625 32.71875 
Q 45.90625 40.484375 42.875 44.328125 
Q 39.84375 48.1875 33.796875 48.1875 
Q 26.515625 48.1875 22.3125 43.546875 
Q 18.109375 38.921875 18.109375 30.90625 
L 18.109375 0 
L 9.078125 0 
L 9.078125 54.6875 
L 18.109375 54.6875 
L 18.109375 46.1875 
Q 21.34375 51.125 25.703125 53.5625 
Q 30.078125 56 35.796875 56 
Q 45.21875 56 50.046875 50.171875 
Q 54.890625 44.34375 54.890625 33.015625 
z
" id="DejaVuSans-110"/>
     <path d="M 45.40625 46.390625 
L 45.40625 75.984375 
L 54.390625 75.984375 
L 54.390625 0 
L 45.40625 0 
L 45.40625 8.203125 
Q 42.578125 3.328125 38.25 0.953125 
Q 33.9375 -1.421875 27.875 -1.421875 
Q 17.96875 -1.421875 11.734375 6.484375 
Q 5.515625 14.40625 5.515625 27.296875 
Q 5.515625 40.1875 11.734375 48.09375 
Q 17.96875 56 27.875 56 
Q 33.9375 56 38.25 53.625 
Q 42.578125 51.265625 45.40625 46.390625 
z
M 14.796875 27.296875 
Q 14.796875 17.390625 18.875 11.75 
Q 22.953125 6.109375 30.078125 6.109375 
Q 37.203125 6.109375 41.296875 11.75 
Q 45.40625 17.390625 45.40625 27.296875 
Q 45.40625 37.203125 41.296875 42.84375 
Q 37.203125 48.484375 30.078125 48.484375 
Q 22.953125 48.484375 18.875 42.84375 
Q 14.796875 37.203125 14.796875 27.296875 
z
" id="DejaVuSans-100"/>
     <path d="M 33.015625 40.375 
Q 26.375 40.375 22.484375 35.828125 
Q 18.609375 31.296875 18.609375 23.390625 
Q 18.609375 15.53125 22.484375 10.953125 
Q 26.375 6.390625 33.015625 6.390625 
Q 39.65625 6.390625 43.53125 10.953125 
Q 47.40625 15.53125 47.40625 23.390625 
Q 47.40625 31.296875 43.53125 35.828125 
Q 39.65625 40.375 33.015625 40.375 
z
M 52.59375 71.296875 
L 52.59375 62.3125 
Q 48.875 64.0625 45.09375 64.984375 
Q 41.3125 65.921875 37.59375 65.921875 
Q 27.828125 65.921875 22.671875 59.328125 
Q 17.53125 52.734375 16.796875 39.40625 
Q 19.671875 43.65625 24.015625 45.921875 
Q 28.375 48.1875 33.59375 48.1875 
Q 44.578125 48.1875 50.953125 41.515625 
Q 57.328125 34.859375 57.328125 23.390625 
Q 57.328125 12.15625 50.6875 5.359375 
Q 44.046875 -1.421875 33.015625 -1.421875 
Q 20.359375 -1.421875 13.671875 8.265625 
Q 6.984375 17.96875 6.984375 36.375 
Q 6.984375 53.65625 15.1875 63.9375 
Q 23.390625 74.21875 37.203125 74.21875 
Q 40.921875 74.21875 44.703125 73.484375 
Q 48.484375 72.75 52.59375 71.296875 
z
" id="DejaVuSans-54"/>
    </defs>
    <g transform="translate(61.33725 18.14175)scale(0.144 -0.144)">
     <use xlink:href="#DejaVuSans-101"/>
     <use x="61.523438" xlink:href="#DejaVuSans-110"/>
     <use x="124.902344" xlink:href="#DejaVuSans-100"/>
     <use x="188.378906" xlink:href="#DejaVuSans-32"/>
     <use x="220.166016" xlink:href="#DejaVuSans-48"/>
     <use x="283.789062" xlink:href="#DejaVuSans-46"/>
     <use x="315.576172" xlink:href="#DejaVuSans-54"/>
     <use x="379.199219" xlink:href="#DejaVuSans-32"/>
     <use x="410.986328" xlink:href="#DejaVuSans-117"/>
     <use x="474.365234" xlink:href="#DejaVuSans-109"/>
    </g>
   </g>
  </g>
  <g id="axes_3">
   <g id="patch_13">
    <path d="M 161.904375 178.04175 
L 197.904375 178.04175 
L 197.904375 61.04175 
L 161.904375 61.04175 
z
" style="fill:none;"/>
   </g>
   <g id="matplotlib.axis_5">
    <g id="xtick_7">
     <g id="line2d_19">
      <g>
       <use style="stroke:#000000;stroke-width:0.8;" x="163.540739" xlink:href="#mef692b6804" y="178.04175"/>
      </g>
     </g>
     <g id="text_15">
      <!-- 0 -->
      <g transform="translate(159.723239 190.659875)scale(0.12 -0.12)">
       <use xlink:href="#DejaVuSans-48"/>
      </g>
     </g>
    </g>
    <g id="xtick_8">
     <g id="line2d_20">
      <g>
       <use style="stroke:#000000;stroke-width:0.8;" x="196.268011" xlink:href="#mef692b6804" y="178.04175"/>
      </g>
     </g>
     <g id="text_16">
      <!-- 1 -->
      <g transform="translate(192.450511 190.659875)scale(0.12 -0.12)">
       <use xlink:href="#DejaVuSans-49"/>
      </g>
     </g>
    </g>
   </g>
   <g id="matplotlib.axis_6">
    <g id="ytick_6">
     <g id="line2d_21">
      <g>
       <use style="stroke:#000000;stroke-width:0.8;" x="161.904375" xlink:href="#m928e0197d2" y="158.54175"/>
      </g>
     </g>
    </g>
    <g id="ytick_7">
     <g id="line2d_22">
      <g>
       <use style="stroke:#000000;stroke-width:0.8;" x="161.904375" xlink:href="#m928e0197d2" y="119.54175"/>
      </g>
     </g>
    </g>
    <g id="ytick_8">
     <g id="line2d_23">
      <g>
       <use style="stroke:#000000;stroke-width:0.8;" x="161.904375" xlink:href="#m928e0197d2" y="80.54175"/>
      </g>
     </g>
    </g>
   </g>
   <g id="LineCollection_10">
    <path clip-path="url(#pd801409254)" d="M 167.969893 178.04175 
L 167.969893 61.04175 
" style="fill:none;stroke:#000000;stroke-dasharray:0.8,1.32;stroke-dashoffset:0;stroke-width:0.8;"/>
   </g>
   <g id="line2d_24">
    <path clip-path="url(#pd801409254)" d="M 163.540739 178.04175 
L 163.553635 177.074808 
L 163.591207 176.107866 
L 163.650192 175.140924 
L 163.725473 174.173981 
L 163.810513 173.207039 
L 163.897927 172.240097 
L 163.98012 171.273155 
L 164.049951 170.306213 
L 164.101346 169.339271 
L 164.129838 168.372329 
L 164.132956 167.405386 
L 164.110447 166.438444 
L 164.064307 165.471502 
L 163.99862 164.50456 
L 163.919212 163.537618 
L 163.833163 162.570676 
L 163.748196 161.603733 
L 163.672022 160.636791 
L 163.611677 159.669849 
L 163.572914 158.702907 
L 163.559714 157.735965 
L 163.573935 156.769023 
L 163.615154 155.802081 
L 163.680703 154.835138 
L 163.7659 153.868196 
L 163.864459 152.901254 
L 164.004871 151.934312 
L 164.167422 150.96737 
L 164.294779 150.000428 
L 164.352375 149.033486 
L 164.29097 148.066543 
L 164.192913 147.099601 
L 164.182676 146.132659 
L 164.375916 145.165717 
L 164.833166 144.198775 
L 165.539517 143.231833 
L 166.419337 142.26489 
L 167.379077 141.297948 
L 168.358555 140.331006 
L 169.367837 139.364064 
L 170.493933 138.397122 
L 171.479433 137.43018 
L 172.330134 136.463238 
L 173.039408 135.496295 
L 173.636148 134.529353 
L 174.253796 133.562411 
L 174.915925 132.595469 
L 175.622938 131.628527 
L 176.374514 130.661585 
L 177.16944 129.694643 
L 178.005779 128.7277 
L 178.880707 127.760758 
L 179.79067 126.793816 
L 180.731471 125.826874 
L 181.698267 124.859932 
L 182.685406 123.89299 
L 183.686914 122.926048 
L 184.696415 121.959105 
L 185.707045 120.992163 
L 186.711702 120.025221 
L 187.70312 119.058279 
L 188.673871 118.091337 
L 189.616529 117.124395 
L 190.523747 116.157452 
L 191.38818 115.19051 
L 192.202642 114.223568 
L 192.960272 113.256626 
L 193.654531 112.289684 
L 194.279122 111.322742 
L 194.82807 110.3558 
L 195.295969 109.388857 
L 195.677891 108.421915 
L 195.969561 107.454973 
L 196.167021 106.488031 
L 196.267366 105.521089 
L 196.268011 104.554147 
L 196.167344 103.587205 
L 195.964556 102.620262 
L 195.659728 101.65332 
L 195.253748 100.686378 
L 194.748554 99.719436 
L 194.14689 98.752494 
L 193.452873 97.785552 
L 192.671186 96.81861 
L 191.807803 95.851667 
L 190.869585 94.884725 
L 189.864282 93.917783 
L 188.800533 92.950841 
L 187.687782 91.983899 
L 186.5362 91.016957 
L 185.356283 90.050014 
L 184.15901 89.083072 
L 182.955763 88.11613 
L 181.757521 87.149188 
L 180.575586 86.182246 
L 179.420452 85.215304 
L 178.302212 84.248362 
L 177.230228 83.281419 
L 176.212735 82.314477 
L 175.256919 81.347535 
L 174.36851 80.380593 
L 173.551948 79.413651 
L 172.810141 78.446709 
L 172.092794 77.479767 
L 171.318284 76.512824 
L 170.478829 75.545882 
L 169.68069 74.57894 
L 169.044773 73.611998 
L 168.623624 72.645056 
L 168.124024 71.678114 
L 167.387166 70.711171 
L 166.430348 69.744229 
L 165.415947 68.777287 
L 164.562502 67.810345 
L 164.038277 66.843403 
L 163.907524 65.876461 
L 164.178351 64.909519 
L 164.341299 63.942576 
L 164.135743 62.975634 
L 163.73865 62.008692 
L 163.540739 61.04175 
" style="fill:none;stroke:#1f77b4;stroke-linecap:square;"/>
   </g>
   <g id="patch_14">
    <path d="M 161.904375 178.04175 
L 161.904375 61.04175 
" style="fill:none;stroke:#000000;stroke-linecap:square;stroke-linejoin:miter;stroke-width:0.8;"/>
   </g>
   <g id="patch_15">
    <path d="M 197.904375 178.04175 
L 197.904375 61.04175 
" style="fill:none;stroke:#000000;stroke-linecap:square;stroke-linejoin:miter;stroke-width:0.8;"/>
   </g>
   <g id="patch_16">
    <path d="M 161.904375 178.04175 
L 197.904375 178.04175 
" style="fill:none;stroke:#000000;stroke-linecap:square;stroke-linejoin:miter;stroke-width:0.8;"/>
   </g>
   <g id="patch_17">
    <path d="M 161.904375 61.04175 
L 197.904375 61.04175 
" style="fill:none;stroke:#000000;stroke-linecap:square;stroke-linejoin:miter;stroke-width:0.8;"/>
   </g>
  </g>
 </g>
 <defs>
  <clipPath id="pcf9909e02b">
   <rect height="117" width="117" x="44.004375" y="61.04175"/>
  </clipPath>
  <clipPath id="p35c5b36e9b">
   <rect height="36" width="117" x="44.004375" y="24.14175"/>
  </clipPath>
  <clipPath id="pd801409254">
   <rect height="117" width="36" x="161.904375" y="61.04175"/>
  </clipPath>
 </defs>
</svg>
