<?xml version="1.0" encoding="utf-8" standalone="no"?>
<!DOCTYPE svg PUBLIC "-//W3C//DTD SVG 1.1//EN"
  "http://www.w3.org/Graphics/SVG/1.1/DTD/svg11.dtd">
<!-- Created with matplotlib (https://matplotlib.org/) -->
<svg height="261.3325pt" version="1.1" viewBox="0 0 409.4525 261.3325" width="409.4525pt" xmlns="http://www.w3.org/2000/svg" xmlns:xlink="http://www.w3.org/1999/xlink">
 <defs>
  <style type="text/css">
*{stroke-linecap:butt;stroke-linejoin:round;}
  </style>
 </defs>
 <g id="figure_1">
  <g id="patch_1">
   <path d="M 0 261.3325 
L 409.4525 261.3325 
L 409.4525 0 
L 0 0 
z
" style="fill:none;"/>
  </g>
  <g id="axes_1">
   <g id="patch_2">
    <path d="M 67.4525 212.1625 
L 402.2525 212.1625 
L 402.2525 45.8425 
L 67.4525 45.8425 
z
" style="fill:none;"/>
   </g>
   <g id="axes_2">
    <g id="patch_3">
     <path d="M 67.4525 45.8425 
L 402.2525 45.8425 
L 402.2525 45.8425 
L 67.4525 45.8425 
z
" style="fill:#ffffff;"/>
    </g>
    <g id="matplotlib.axis_1">
     <g id="xtick_1">
      <g id="line2d_1">
       <path clip-path="url(#p65ede787ca)" d="M 353.423226 45.8425 
L 353.423226 45.8425 
" style="fill:none;stroke:#b0b0b0;stroke-dasharray:0.8,1.32;stroke-dashoffset:0;stroke-width:0.8;"/>
      </g>
      <g id="line2d_2">
       <defs>
        <path d="M 0 0 
L 0 -3.5 
" id="m1bff495de9" style="stroke:#000000;stroke-width:0.8;"/>
       </defs>
       <g>
        <use style="stroke:#000000;stroke-width:0.8;" x="353.423226" xlink:href="#m1bff495de9" y="45.8425"/>
       </g>
      </g>
      <g id="text_1">
       <!-- 1560 -->
       <defs>
        <path d="M 12.40625 8.296875 
L 28.515625 8.296875 
L 28.515625 63.921875 
L 10.984375 60.40625 
L 10.984375 69.390625 
L 28.421875 72.90625 
L 38.28125 72.90625 
L 38.28125 8.296875 
L 54.390625 8.296875 
L 54.390625 0 
L 12.40625 0 
z
" id="DejaVuSans-49"/>
        <path d="M 10.796875 72.90625 
L 49.515625 72.90625 
L 49.515625 64.59375 
L 19.828125 64.59375 
L 19.828125 46.734375 
Q 21.96875 47.46875 24.109375 47.828125 
Q 26.265625 48.1875 28.421875 48.1875 
Q 40.625 48.1875 47.75 41.5 
Q 54.890625 34.8125 54.890625 23.390625 
Q 54.890625 11.625 47.5625 5.09375 
Q 40.234375 -1.421875 26.90625 -1.421875 
Q 22.3125 -1.421875 17.546875 -0.640625 
Q 12.796875 0.140625 7.71875 1.703125 
L 7.71875 11.625 
Q 12.109375 9.234375 16.796875 8.0625 
Q 21.484375 6.890625 26.703125 6.890625 
Q 35.15625 6.890625 40.078125 11.328125 
Q 45.015625 15.765625 45.015625 23.390625 
Q 45.015625 31 40.078125 35.4375 
Q 35.15625 39.890625 26.703125 39.890625 
Q 22.75 39.890625 18.8125 39.015625 
Q 14.890625 38.140625 10.796875 36.28125 
z
" id="DejaVuSans-53"/>
        <path d="M 33.015625 40.375 
Q 26.375 40.375 22.484375 35.828125 
Q 18.609375 31.296875 18.609375 23.390625 
Q 18.609375 15.53125 22.484375 10.953125 
Q 26.375 6.390625 33.015625 6.390625 
Q 39.65625 6.390625 43.53125 10.953125 
Q 47.40625 15.53125 47.40625 23.390625 
Q 47.40625 31.296875 43.53125 35.828125 
Q 39.65625 40.375 33.015625 40.375 
z
M 52.59375 71.296875 
L 52.59375 62.3125 
Q 48.875 64.0625 45.09375 64.984375 
Q 41.3125 65.921875 37.59375 65.921875 
Q 27.828125 65.921875 22.671875 59.328125 
Q 17.53125 52.734375 16.796875 39.40625 
Q 19.671875 43.65625 24.015625 45.921875 
Q 28.375 48.1875 33.59375 48.1875 
Q 44.578125 48.1875 50.953125 41.515625 
Q 57.328125 34.859375 57.328125 23.390625 
Q 57.328125 12.15625 50.6875 5.359375 
Q 44.046875 -1.421875 33.015625 -1.421875 
Q 20.359375 -1.421875 13.671875 8.265625 
Q 6.984375 17.96875 6.984375 36.375 
Q 6.984375 53.65625 15.1875 63.9375 
Q 23.390625 74.21875 37.203125 74.21875 
Q 40.921875 74.21875 44.703125 73.484375 
Q 48.484375 72.75 52.59375 71.296875 
z
" id="DejaVuSans-54"/>
        <path d="M 31.78125 66.40625 
Q 24.171875 66.40625 20.328125 58.90625 
Q 16.5 51.421875 16.5 36.375 
Q 16.5 21.390625 20.328125 13.890625 
Q 24.171875 6.390625 31.78125 6.390625 
Q 39.453125 6.390625 43.28125 13.890625 
Q 47.125 21.390625 47.125 36.375 
Q 47.125 51.421875 43.28125 58.90625 
Q 39.453125 66.40625 31.78125 66.40625 
z
M 31.78125 74.21875 
Q 44.046875 74.21875 50.515625 64.515625 
Q 56.984375 54.828125 56.984375 36.375 
Q 56.984375 17.96875 50.515625 8.265625 
Q 44.046875 -1.421875 31.78125 -1.421875 
Q 19.53125 -1.421875 13.0625 8.265625 
Q 6.59375 17.96875 6.59375 36.375 
Q 6.59375 54.828125 13.0625 64.515625 
Q 19.53125 74.21875 31.78125 74.21875 
z
" id="DejaVuSans-48"/>
       </defs>
       <g transform="translate(333.063226 35.515)scale(0.16 -0.16)">
        <use xlink:href="#DejaVuSans-49"/>
        <use x="63.623047" xlink:href="#DejaVuSans-53"/>
        <use x="127.246094" xlink:href="#DejaVuSans-54"/>
        <use x="190.869141" xlink:href="#DejaVuSans-48"/>
       </g>
      </g>
     </g>
     <g id="xtick_2">
      <g id="line2d_3">
       <path clip-path="url(#p65ede787ca)" d="M 282.143037 45.8425 
L 282.143037 45.8425 
" style="fill:none;stroke:#b0b0b0;stroke-dasharray:0.8,1.32;stroke-dashoffset:0;stroke-width:0.8;"/>
      </g>
      <g id="line2d_4">
       <g>
        <use style="stroke:#000000;stroke-width:0.8;" x="282.143037" xlink:href="#m1bff495de9" y="45.8425"/>
       </g>
      </g>
      <g id="text_2">
       <!-- 1580 -->
       <defs>
        <path d="M 31.78125 34.625 
Q 24.75 34.625 20.71875 30.859375 
Q 16.703125 27.09375 16.703125 20.515625 
Q 16.703125 13.921875 20.71875 10.15625 
Q 24.75 6.390625 31.78125 6.390625 
Q 38.8125 6.390625 42.859375 10.171875 
Q 46.921875 13.96875 46.921875 20.515625 
Q 46.921875 27.09375 42.890625 30.859375 
Q 38.875 34.625 31.78125 34.625 
z
M 21.921875 38.8125 
Q 15.578125 40.375 12.03125 44.71875 
Q 8.5 49.078125 8.5 55.328125 
Q 8.5 64.0625 14.71875 69.140625 
Q 20.953125 74.21875 31.78125 74.21875 
Q 42.671875 74.21875 48.875 69.140625 
Q 55.078125 64.0625 55.078125 55.328125 
Q 55.078125 49.078125 51.53125 44.71875 
Q 48 40.375 41.703125 38.8125 
Q 48.828125 37.15625 52.796875 32.3125 
Q 56.78125 27.484375 56.78125 20.515625 
Q 56.78125 9.90625 50.3125 4.234375 
Q 43.84375 -1.421875 31.78125 -1.421875 
Q 19.734375 -1.421875 13.25 4.234375 
Q 6.78125 9.90625 6.78125 20.515625 
Q 6.78125 27.484375 10.78125 32.3125 
Q 14.796875 37.15625 21.921875 38.8125 
z
M 18.3125 54.390625 
Q 18.3125 48.734375 21.84375 45.5625 
Q 25.390625 42.390625 31.78125 42.390625 
Q 38.140625 42.390625 41.71875 45.5625 
Q 45.3125 48.734375 45.3125 54.390625 
Q 45.3125 60.0625 41.71875 63.234375 
Q 38.140625 66.40625 31.78125 66.40625 
Q 25.390625 66.40625 21.84375 63.234375 
Q 18.3125 60.0625 18.3125 54.390625 
z
" id="DejaVuSans-56"/>
       </defs>
       <g transform="translate(261.783037 35.515)scale(0.16 -0.16)">
        <use xlink:href="#DejaVuSans-49"/>
        <use x="63.623047" xlink:href="#DejaVuSans-53"/>
        <use x="127.246094" xlink:href="#DejaVuSans-56"/>
        <use x="190.869141" xlink:href="#DejaVuSans-48"/>
       </g>
      </g>
     </g>
     <g id="xtick_3">
      <g id="line2d_5">
       <path clip-path="url(#p65ede787ca)" d="M 212.621405 45.8425 
L 212.621405 45.8425 
" style="fill:none;stroke:#b0b0b0;stroke-dasharray:0.8,1.32;stroke-dashoffset:0;stroke-width:0.8;"/>
      </g>
      <g id="line2d_6">
       <g>
        <use style="stroke:#000000;stroke-width:0.8;" x="212.621405" xlink:href="#m1bff495de9" y="45.8425"/>
       </g>
      </g>
      <g id="text_3">
       <!-- 1600 -->
       <g transform="translate(192.261405 35.515)scale(0.16 -0.16)">
        <use xlink:href="#DejaVuSans-49"/>
        <use x="63.623047" xlink:href="#DejaVuSans-54"/>
        <use x="127.246094" xlink:href="#DejaVuSans-48"/>
        <use x="190.869141" xlink:href="#DejaVuSans-48"/>
       </g>
      </g>
     </g>
     <g id="xtick_4">
      <g id="line2d_7">
       <path clip-path="url(#p65ede787ca)" d="M 144.829021 45.8425 
L 144.829021 45.8425 
" style="fill:none;stroke:#b0b0b0;stroke-dasharray:0.8,1.32;stroke-dashoffset:0;stroke-width:0.8;"/>
      </g>
      <g id="line2d_8">
       <g>
        <use style="stroke:#000000;stroke-width:0.8;" x="144.829021" xlink:href="#m1bff495de9" y="45.8425"/>
       </g>
      </g>
      <g id="text_4">
       <!-- 1620 -->
       <defs>
        <path d="M 19.1875 8.296875 
L 53.609375 8.296875 
L 53.609375 0 
L 7.328125 0 
L 7.328125 8.296875 
Q 12.9375 14.109375 22.625 23.890625 
Q 32.328125 33.6875 34.8125 36.53125 
Q 39.546875 41.84375 41.421875 45.53125 
Q 43.3125 49.21875 43.3125 52.78125 
Q 43.3125 58.59375 39.234375 62.25 
Q 35.15625 65.921875 28.609375 65.921875 
Q 23.96875 65.921875 18.8125 64.3125 
Q 13.671875 62.703125 7.8125 59.421875 
L 7.8125 69.390625 
Q 13.765625 71.78125 18.9375 73 
Q 24.125 74.21875 28.421875 74.21875 
Q 39.75 74.21875 46.484375 68.546875 
Q 53.21875 62.890625 53.21875 53.421875 
Q 53.21875 48.921875 51.53125 44.890625 
Q 49.859375 40.875 45.40625 35.40625 
Q 44.1875 33.984375 37.640625 27.21875 
Q 31.109375 20.453125 19.1875 8.296875 
z
" id="DejaVuSans-50"/>
       </defs>
       <g transform="translate(124.469021 35.515)scale(0.16 -0.16)">
        <use xlink:href="#DejaVuSans-49"/>
        <use x="63.623047" xlink:href="#DejaVuSans-54"/>
        <use x="127.246094" xlink:href="#DejaVuSans-50"/>
        <use x="190.869141" xlink:href="#DejaVuSans-48"/>
       </g>
      </g>
     </g>
     <g id="xtick_5">
      <g id="line2d_9">
       <path clip-path="url(#p65ede787ca)" d="M 78.677957 45.8425 
L 78.677957 45.8425 
" style="fill:none;stroke:#b0b0b0;stroke-dasharray:0.8,1.32;stroke-dashoffset:0;stroke-width:0.8;"/>
      </g>
      <g id="line2d_10">
       <g>
        <use style="stroke:#000000;stroke-width:0.8;" x="78.677957" xlink:href="#m1bff495de9" y="45.8425"/>
       </g>
      </g>
      <g id="text_5">
       <!-- 1640 -->
       <defs>
        <path d="M 37.796875 64.3125 
L 12.890625 25.390625 
L 37.796875 25.390625 
z
M 35.203125 72.90625 
L 47.609375 72.90625 
L 47.609375 25.390625 
L 58.015625 25.390625 
L 58.015625 17.1875 
L 47.609375 17.1875 
L 47.609375 0 
L 37.796875 0 
L 37.796875 17.1875 
L 4.890625 17.1875 
L 4.890625 26.703125 
z
" id="DejaVuSans-52"/>
       </defs>
       <g transform="translate(58.317957 35.515)scale(0.16 -0.16)">
        <use xlink:href="#DejaVuSans-49"/>
        <use x="63.623047" xlink:href="#DejaVuSans-54"/>
        <use x="127.246094" xlink:href="#DejaVuSans-52"/>
        <use x="190.869141" xlink:href="#DejaVuSans-48"/>
       </g>
      </g>
     </g>
     <g id="text_6">
      <!-- wavelength (nm) -->
      <defs>
       <path d="M 4.203125 54.6875 
L 13.1875 54.6875 
L 24.421875 12.015625 
L 35.59375 54.6875 
L 46.1875 54.6875 
L 57.421875 12.015625 
L 68.609375 54.6875 
L 77.59375 54.6875 
L 63.28125 0 
L 52.6875 0 
L 40.921875 44.828125 
L 29.109375 0 
L 18.5 0 
z
" id="DejaVuSans-119"/>
       <path d="M 34.28125 27.484375 
Q 23.390625 27.484375 19.1875 25 
Q 14.984375 22.515625 14.984375 16.5 
Q 14.984375 11.71875 18.140625 8.90625 
Q 21.296875 6.109375 26.703125 6.109375 
Q 34.1875 6.109375 38.703125 11.40625 
Q 43.21875 16.703125 43.21875 25.484375 
L 43.21875 27.484375 
z
M 52.203125 31.203125 
L 52.203125 0 
L 43.21875 0 
L 43.21875 8.296875 
Q 40.140625 3.328125 35.546875 0.953125 
Q 30.953125 -1.421875 24.3125 -1.421875 
Q 15.921875 -1.421875 10.953125 3.296875 
Q 6 8.015625 6 15.921875 
Q 6 25.140625 12.171875 29.828125 
Q 18.359375 34.515625 30.609375 34.515625 
L 43.21875 34.515625 
L 43.21875 35.40625 
Q 43.21875 41.609375 39.140625 45 
Q 35.0625 48.390625 27.6875 48.390625 
Q 23 48.390625 18.546875 47.265625 
Q 14.109375 46.140625 10.015625 43.890625 
L 10.015625 52.203125 
Q 14.9375 54.109375 19.578125 55.046875 
Q 24.21875 56 28.609375 56 
Q 40.484375 56 46.34375 49.84375 
Q 52.203125 43.703125 52.203125 31.203125 
z
" id="DejaVuSans-97"/>
       <path d="M 2.984375 54.6875 
L 12.5 54.6875 
L 29.59375 8.796875 
L 46.6875 54.6875 
L 56.203125 54.6875 
L 35.6875 0 
L 23.484375 0 
z
" id="DejaVuSans-118"/>
       <path d="M 56.203125 29.59375 
L 56.203125 25.203125 
L 14.890625 25.203125 
Q 15.484375 15.921875 20.484375 11.0625 
Q 25.484375 6.203125 34.421875 6.203125 
Q 39.59375 6.203125 44.453125 7.46875 
Q 49.3125 8.734375 54.109375 11.28125 
L 54.109375 2.78125 
Q 49.265625 0.734375 44.1875 -0.34375 
Q 39.109375 -1.421875 33.890625 -1.421875 
Q 20.796875 -1.421875 13.15625 6.1875 
Q 5.515625 13.8125 5.515625 26.8125 
Q 5.515625 40.234375 12.765625 48.109375 
Q 20.015625 56 32.328125 56 
Q 43.359375 56 49.78125 48.890625 
Q 56.203125 41.796875 56.203125 29.59375 
z
M 47.21875 32.234375 
Q 47.125 39.59375 43.09375 43.984375 
Q 39.0625 48.390625 32.421875 48.390625 
Q 24.90625 48.390625 20.390625 44.140625 
Q 15.875 39.890625 15.1875 32.171875 
z
" id="DejaVuSans-101"/>
       <path d="M 9.421875 75.984375 
L 18.40625 75.984375 
L 18.40625 0 
L 9.421875 0 
z
" id="DejaVuSans-108"/>
       <path d="M 54.890625 33.015625 
L 54.890625 0 
L 45.90625 0 
L 45.90625 32.71875 
Q 45.90625 40.484375 42.875 44.328125 
Q 39.84375 48.1875 33.796875 48.1875 
Q 26.515625 48.1875 22.3125 43.546875 
Q 18.109375 38.921875 18.109375 30.90625 
L 18.109375 0 
L 9.078125 0 
L 9.078125 54.6875 
L 18.109375 54.6875 
L 18.109375 46.1875 
Q 21.34375 51.125 25.703125 53.5625 
Q 30.078125 56 35.796875 56 
Q 45.21875 56 50.046875 50.171875 
Q 54.890625 44.34375 54.890625 33.015625 
z
" id="DejaVuSans-110"/>
       <path d="M 45.40625 27.984375 
Q 45.40625 37.75 41.375 43.109375 
Q 37.359375 48.484375 30.078125 48.484375 
Q 22.859375 48.484375 18.828125 43.109375 
Q 14.796875 37.75 14.796875 27.984375 
Q 14.796875 18.265625 18.828125 12.890625 
Q 22.859375 7.515625 30.078125 7.515625 
Q 37.359375 7.515625 41.375 12.890625 
Q 45.40625 18.265625 45.40625 27.984375 
z
M 54.390625 6.78125 
Q 54.390625 -7.171875 48.1875 -13.984375 
Q 42 -20.796875 29.203125 -20.796875 
Q 24.46875 -20.796875 20.265625 -20.09375 
Q 16.0625 -19.390625 12.109375 -17.921875 
L 12.109375 -9.1875 
Q 16.0625 -11.328125 19.921875 -12.34375 
Q 23.78125 -13.375 27.78125 -13.375 
Q 36.625 -13.375 41.015625 -8.765625 
Q 45.40625 -4.15625 45.40625 5.171875 
L 45.40625 9.625 
Q 42.625 4.78125 38.28125 2.390625 
Q 33.9375 0 27.875 0 
Q 17.828125 0 11.671875 7.65625 
Q 5.515625 15.328125 5.515625 27.984375 
Q 5.515625 40.671875 11.671875 48.328125 
Q 17.828125 56 27.875 56 
Q 33.9375 56 38.28125 53.609375 
Q 42.625 51.21875 45.40625 46.390625 
L 45.40625 54.6875 
L 54.390625 54.6875 
z
" id="DejaVuSans-103"/>
       <path d="M 18.3125 70.21875 
L 18.3125 54.6875 
L 36.8125 54.6875 
L 36.8125 47.703125 
L 18.3125 47.703125 
L 18.3125 18.015625 
Q 18.3125 11.328125 20.140625 9.421875 
Q 21.96875 7.515625 27.59375 7.515625 
L 36.8125 7.515625 
L 36.8125 0 
L 27.59375 0 
Q 17.1875 0 13.234375 3.875 
Q 9.28125 7.765625 9.28125 18.015625 
L 9.28125 47.703125 
L 2.6875 47.703125 
L 2.6875 54.6875 
L 9.28125 54.6875 
L 9.28125 70.21875 
z
" id="DejaVuSans-116"/>
       <path d="M 54.890625 33.015625 
L 54.890625 0 
L 45.90625 0 
L 45.90625 32.71875 
Q 45.90625 40.484375 42.875 44.328125 
Q 39.84375 48.1875 33.796875 48.1875 
Q 26.515625 48.1875 22.3125 43.546875 
Q 18.109375 38.921875 18.109375 30.90625 
L 18.109375 0 
L 9.078125 0 
L 9.078125 75.984375 
L 18.109375 75.984375 
L 18.109375 46.1875 
Q 21.34375 51.125 25.703125 53.5625 
Q 30.078125 56 35.796875 56 
Q 45.21875 56 50.046875 50.171875 
Q 54.890625 44.34375 54.890625 33.015625 
z
" id="DejaVuSans-104"/>
       <path id="DejaVuSans-32"/>
       <path d="M 31 75.875 
Q 24.46875 64.65625 21.28125 53.65625 
Q 18.109375 42.671875 18.109375 31.390625 
Q 18.109375 20.125 21.3125 9.0625 
Q 24.515625 -2 31 -13.1875 
L 23.1875 -13.1875 
Q 15.875 -1.703125 12.234375 9.375 
Q 8.59375 20.453125 8.59375 31.390625 
Q 8.59375 42.28125 12.203125 53.3125 
Q 15.828125 64.359375 23.1875 75.875 
z
" id="DejaVuSans-40"/>
       <path d="M 52 44.1875 
Q 55.375 50.25 60.0625 53.125 
Q 64.75 56 71.09375 56 
Q 79.640625 56 84.28125 50.015625 
Q 88.921875 44.046875 88.921875 33.015625 
L 88.921875 0 
L 79.890625 0 
L 79.890625 32.71875 
Q 79.890625 40.578125 77.09375 44.375 
Q 74.3125 48.1875 68.609375 48.1875 
Q 61.625 48.1875 57.5625 43.546875 
Q 53.515625 38.921875 53.515625 30.90625 
L 53.515625 0 
L 44.484375 0 
L 44.484375 32.71875 
Q 44.484375 40.625 41.703125 44.40625 
Q 38.921875 48.1875 33.109375 48.1875 
Q 26.21875 48.1875 22.15625 43.53125 
Q 18.109375 38.875 18.109375 30.90625 
L 18.109375 0 
L 9.078125 0 
L 9.078125 54.6875 
L 18.109375 54.6875 
L 18.109375 46.1875 
Q 21.1875 51.21875 25.484375 53.609375 
Q 29.78125 56 35.6875 56 
Q 41.65625 56 45.828125 52.96875 
Q 50 49.953125 52 44.1875 
z
" id="DejaVuSans-109"/>
       <path d="M 8.015625 75.875 
L 15.828125 75.875 
Q 23.140625 64.359375 26.78125 53.3125 
Q 30.421875 42.28125 30.421875 31.390625 
Q 30.421875 20.453125 26.78125 9.375 
Q 23.140625 -1.703125 15.828125 -13.1875 
L 8.015625 -13.1875 
Q 14.5 -2 17.703125 9.0625 
Q 20.90625 20.125 20.90625 31.390625 
Q 20.90625 42.671875 17.703125 53.65625 
Q 14.5 64.65625 8.015625 75.875 
z
" id="DejaVuSans-41"/>
      </defs>
      <g transform="translate(166.6025 19.3575)scale(0.16 -0.16)">
       <use xlink:href="#DejaVuSans-119"/>
       <use x="81.787109" xlink:href="#DejaVuSans-97"/>
       <use x="143.066406" xlink:href="#DejaVuSans-118"/>
       <use x="202.246094" xlink:href="#DejaVuSans-101"/>
       <use x="263.769531" xlink:href="#DejaVuSans-108"/>
       <use x="291.552734" xlink:href="#DejaVuSans-101"/>
       <use x="353.076172" xlink:href="#DejaVuSans-110"/>
       <use x="416.455078" xlink:href="#DejaVuSans-103"/>
       <use x="479.931641" xlink:href="#DejaVuSans-116"/>
       <use x="519.140625" xlink:href="#DejaVuSans-104"/>
       <use x="582.519531" xlink:href="#DejaVuSans-32"/>
       <use x="614.306641" xlink:href="#DejaVuSans-40"/>
       <use x="653.320312" xlink:href="#DejaVuSans-110"/>
       <use x="716.699219" xlink:href="#DejaVuSans-109"/>
       <use x="814.111328" xlink:href="#DejaVuSans-41"/>
      </g>
     </g>
    </g>
    <g id="matplotlib.axis_2"/>
    <g id="patch_4">
     <path d="M 402.2525 45.8425 
L 67.4525 45.8425 
" style="fill:none;stroke:#000000;stroke-linecap:square;stroke-linejoin:miter;stroke-width:0.8;"/>
    </g>
   </g>
   <g id="matplotlib.axis_3">
    <g id="xtick_6">
     <g id="line2d_11">
      <path clip-path="url(#pe7dfe85761)" d="M 113.826487 212.1625 
L 113.826487 45.8425 
" style="fill:none;stroke:#b0b0b0;stroke-dasharray:0.8,1.32;stroke-dashoffset:0;stroke-width:0.8;"/>
     </g>
     <g id="line2d_12">
      <defs>
       <path d="M 0 0 
L 0 3.5 
" id="mc27ad3cbb1" style="stroke:#000000;stroke-width:0.8;"/>
      </defs>
      <g>
       <use style="stroke:#000000;stroke-width:0.8;" x="113.826487" xlink:href="#mc27ad3cbb1" y="212.1625"/>
      </g>
     </g>
     <g id="text_7">
      <!-- 184 -->
      <g transform="translate(98.556487 231.32)scale(0.16 -0.16)">
       <use xlink:href="#DejaVuSans-49"/>
       <use x="63.623047" xlink:href="#DejaVuSans-56"/>
       <use x="127.246094" xlink:href="#DejaVuSans-52"/>
      </g>
     </g>
    </g>
    <g id="xtick_7">
     <g id="line2d_13">
      <path clip-path="url(#pe7dfe85761)" d="M 172.447267 212.1625 
L 172.447267 45.8425 
" style="fill:none;stroke:#b0b0b0;stroke-dasharray:0.8,1.32;stroke-dashoffset:0;stroke-width:0.8;"/>
     </g>
     <g id="line2d_14">
      <g>
       <use style="stroke:#000000;stroke-width:0.8;" x="172.447267" xlink:href="#mc27ad3cbb1" y="212.1625"/>
      </g>
     </g>
     <g id="text_8">
      <!-- 186 -->
      <g transform="translate(157.177267 231.32)scale(0.16 -0.16)">
       <use xlink:href="#DejaVuSans-49"/>
       <use x="63.623047" xlink:href="#DejaVuSans-56"/>
       <use x="127.246094" xlink:href="#DejaVuSans-54"/>
      </g>
     </g>
    </g>
    <g id="xtick_8">
     <g id="line2d_15">
      <path clip-path="url(#pe7dfe85761)" d="M 231.068048 212.1625 
L 231.068048 45.8425 
" style="fill:none;stroke:#b0b0b0;stroke-dasharray:0.8,1.32;stroke-dashoffset:0;stroke-width:0.8;"/>
     </g>
     <g id="line2d_16">
      <g>
       <use style="stroke:#000000;stroke-width:0.8;" x="231.068048" xlink:href="#mc27ad3cbb1" y="212.1625"/>
      </g>
     </g>
     <g id="text_9">
      <!-- 188 -->
      <g transform="translate(215.798048 231.32)scale(0.16 -0.16)">
       <use xlink:href="#DejaVuSans-49"/>
       <use x="63.623047" xlink:href="#DejaVuSans-56"/>
       <use x="127.246094" xlink:href="#DejaVuSans-56"/>
      </g>
     </g>
    </g>
    <g id="xtick_9">
     <g id="line2d_17">
      <path clip-path="url(#pe7dfe85761)" d="M 289.688829 212.1625 
L 289.688829 45.8425 
" style="fill:none;stroke:#b0b0b0;stroke-dasharray:0.8,1.32;stroke-dashoffset:0;stroke-width:0.8;"/>
     </g>
     <g id="line2d_18">
      <g>
       <use style="stroke:#000000;stroke-width:0.8;" x="289.688829" xlink:href="#mc27ad3cbb1" y="212.1625"/>
      </g>
     </g>
     <g id="text_10">
      <!-- 190 -->
      <defs>
       <path d="M 10.984375 1.515625 
L 10.984375 10.5 
Q 14.703125 8.734375 18.5 7.8125 
Q 22.3125 6.890625 25.984375 6.890625 
Q 35.75 6.890625 40.890625 13.453125 
Q 46.046875 20.015625 46.78125 33.40625 
Q 43.953125 29.203125 39.59375 26.953125 
Q 35.25 24.703125 29.984375 24.703125 
Q 19.046875 24.703125 12.671875 31.3125 
Q 6.296875 37.9375 6.296875 49.421875 
Q 6.296875 60.640625 12.9375 67.421875 
Q 19.578125 74.21875 30.609375 74.21875 
Q 43.265625 74.21875 49.921875 64.515625 
Q 56.59375 54.828125 56.59375 36.375 
Q 56.59375 19.140625 48.40625 8.859375 
Q 40.234375 -1.421875 26.421875 -1.421875 
Q 22.703125 -1.421875 18.890625 -0.6875 
Q 15.09375 0.046875 10.984375 1.515625 
z
M 30.609375 32.421875 
Q 37.25 32.421875 41.125 36.953125 
Q 45.015625 41.5 45.015625 49.421875 
Q 45.015625 57.28125 41.125 61.84375 
Q 37.25 66.40625 30.609375 66.40625 
Q 23.96875 66.40625 20.09375 61.84375 
Q 16.21875 57.28125 16.21875 49.421875 
Q 16.21875 41.5 20.09375 36.953125 
Q 23.96875 32.421875 30.609375 32.421875 
z
" id="DejaVuSans-57"/>
      </defs>
      <g transform="translate(274.418829 231.32)scale(0.16 -0.16)">
       <use xlink:href="#DejaVuSans-49"/>
       <use x="63.623047" xlink:href="#DejaVuSans-57"/>
       <use x="127.246094" xlink:href="#DejaVuSans-48"/>
      </g>
     </g>
    </g>
    <g id="xtick_10">
     <g id="line2d_19">
      <path clip-path="url(#pe7dfe85761)" d="M 348.309609 212.1625 
L 348.309609 45.8425 
" style="fill:none;stroke:#b0b0b0;stroke-dasharray:0.8,1.32;stroke-dashoffset:0;stroke-width:0.8;"/>
     </g>
     <g id="line2d_20">
      <g>
       <use style="stroke:#000000;stroke-width:0.8;" x="348.309609" xlink:href="#mc27ad3cbb1" y="212.1625"/>
      </g>
     </g>
     <g id="text_11">
      <!-- 192 -->
      <g transform="translate(333.039609 231.32)scale(0.16 -0.16)">
       <use xlink:href="#DejaVuSans-49"/>
       <use x="63.623047" xlink:href="#DejaVuSans-57"/>
       <use x="127.246094" xlink:href="#DejaVuSans-50"/>
      </g>
     </g>
    </g>
    <g id="text_12">
     <!-- frequency (THz) -->
     <defs>
      <path d="M 37.109375 75.984375 
L 37.109375 68.5 
L 28.515625 68.5 
Q 23.6875 68.5 21.796875 66.546875 
Q 19.921875 64.59375 19.921875 59.515625 
L 19.921875 54.6875 
L 34.71875 54.6875 
L 34.71875 47.703125 
L 19.921875 47.703125 
L 19.921875 0 
L 10.890625 0 
L 10.890625 47.703125 
L 2.296875 47.703125 
L 2.296875 54.6875 
L 10.890625 54.6875 
L 10.890625 58.5 
Q 10.890625 67.625 15.140625 71.796875 
Q 19.390625 75.984375 28.609375 75.984375 
z
" id="DejaVuSans-102"/>
      <path d="M 41.109375 46.296875 
Q 39.59375 47.171875 37.8125 47.578125 
Q 36.03125 48 33.890625 48 
Q 26.265625 48 22.1875 43.046875 
Q 18.109375 38.09375 18.109375 28.8125 
L 18.109375 0 
L 9.078125 0 
L 9.078125 54.6875 
L 18.109375 54.6875 
L 18.109375 46.1875 
Q 20.953125 51.171875 25.484375 53.578125 
Q 30.03125 56 36.53125 56 
Q 37.453125 56 38.578125 55.875 
Q 39.703125 55.765625 41.0625 55.515625 
z
" id="DejaVuSans-114"/>
      <path d="M 14.796875 27.296875 
Q 14.796875 17.390625 18.875 11.75 
Q 22.953125 6.109375 30.078125 6.109375 
Q 37.203125 6.109375 41.296875 11.75 
Q 45.40625 17.390625 45.40625 27.296875 
Q 45.40625 37.203125 41.296875 42.84375 
Q 37.203125 48.484375 30.078125 48.484375 
Q 22.953125 48.484375 18.875 42.84375 
Q 14.796875 37.203125 14.796875 27.296875 
z
M 45.40625 8.203125 
Q 42.578125 3.328125 38.25 0.953125 
Q 33.9375 -1.421875 27.875 -1.421875 
Q 17.96875 -1.421875 11.734375 6.484375 
Q 5.515625 14.40625 5.515625 27.296875 
Q 5.515625 40.1875 11.734375 48.09375 
Q 17.96875 56 27.875 56 
Q 33.9375 56 38.25 53.625 
Q 42.578125 51.265625 45.40625 46.390625 
L 45.40625 54.6875 
L 54.390625 54.6875 
L 54.390625 -20.796875 
L 45.40625 -20.796875 
z
" id="DejaVuSans-113"/>
      <path d="M 8.5 21.578125 
L 8.5 54.6875 
L 17.484375 54.6875 
L 17.484375 21.921875 
Q 17.484375 14.15625 20.5 10.265625 
Q 23.53125 6.390625 29.59375 6.390625 
Q 36.859375 6.390625 41.078125 11.03125 
Q 45.3125 15.671875 45.3125 23.6875 
L 45.3125 54.6875 
L 54.296875 54.6875 
L 54.296875 0 
L 45.3125 0 
L 45.3125 8.40625 
Q 42.046875 3.421875 37.71875 1 
Q 33.40625 -1.421875 27.6875 -1.421875 
Q 18.265625 -1.421875 13.375 4.4375 
Q 8.5 10.296875 8.5 21.578125 
z
M 31.109375 56 
z
" id="DejaVuSans-117"/>
      <path d="M 48.78125 52.59375 
L 48.78125 44.1875 
Q 44.96875 46.296875 41.140625 47.34375 
Q 37.3125 48.390625 33.40625 48.390625 
Q 24.65625 48.390625 19.8125 42.84375 
Q 14.984375 37.3125 14.984375 27.296875 
Q 14.984375 17.28125 19.8125 11.734375 
Q 24.65625 6.203125 33.40625 6.203125 
Q 37.3125 6.203125 41.140625 7.25 
Q 44.96875 8.296875 48.78125 10.40625 
L 48.78125 2.09375 
Q 45.015625 0.34375 40.984375 -0.53125 
Q 36.96875 -1.421875 32.421875 -1.421875 
Q 20.0625 -1.421875 12.78125 6.34375 
Q 5.515625 14.109375 5.515625 27.296875 
Q 5.515625 40.671875 12.859375 48.328125 
Q 20.21875 56 33.015625 56 
Q 37.15625 56 41.109375 55.140625 
Q 45.0625 54.296875 48.78125 52.59375 
z
" id="DejaVuSans-99"/>
      <path d="M 32.171875 -5.078125 
Q 28.375 -14.84375 24.75 -17.8125 
Q 21.140625 -20.796875 15.09375 -20.796875 
L 7.90625 -20.796875 
L 7.90625 -13.28125 
L 13.1875 -13.28125 
Q 16.890625 -13.28125 18.9375 -11.515625 
Q 21 -9.765625 23.484375 -3.21875 
L 25.09375 0.875 
L 2.984375 54.6875 
L 12.5 54.6875 
L 29.59375 11.921875 
L 46.6875 54.6875 
L 56.203125 54.6875 
z
" id="DejaVuSans-121"/>
      <path d="M -0.296875 72.90625 
L 61.375 72.90625 
L 61.375 64.59375 
L 35.5 64.59375 
L 35.5 0 
L 25.59375 0 
L 25.59375 64.59375 
L -0.296875 64.59375 
z
" id="DejaVuSans-84"/>
      <path d="M 9.8125 72.90625 
L 19.671875 72.90625 
L 19.671875 43.015625 
L 55.515625 43.015625 
L 55.515625 72.90625 
L 65.375 72.90625 
L 65.375 0 
L 55.515625 0 
L 55.515625 34.71875 
L 19.671875 34.71875 
L 19.671875 0 
L 9.8125 0 
z
" id="DejaVuSans-72"/>
      <path d="M 5.515625 54.6875 
L 48.1875 54.6875 
L 48.1875 46.484375 
L 14.40625 7.171875 
L 48.1875 7.171875 
L 48.1875 0 
L 4.296875 0 
L 4.296875 8.203125 
L 38.09375 47.515625 
L 5.515625 47.515625 
z
" id="DejaVuSans-122"/>
     </defs>
     <g transform="translate(170.66625 250.805)scale(0.16 -0.16)">
      <use xlink:href="#DejaVuSans-102"/>
      <use x="35.205078" xlink:href="#DejaVuSans-114"/>
      <use x="76.287109" xlink:href="#DejaVuSans-101"/>
      <use x="137.810547" xlink:href="#DejaVuSans-113"/>
      <use x="201.287109" xlink:href="#DejaVuSans-117"/>
      <use x="264.666016" xlink:href="#DejaVuSans-101"/>
      <use x="326.189453" xlink:href="#DejaVuSans-110"/>
      <use x="389.568359" xlink:href="#DejaVuSans-99"/>
      <use x="444.548828" xlink:href="#DejaVuSans-121"/>
      <use x="503.728516" xlink:href="#DejaVuSans-32"/>
      <use x="535.515625" xlink:href="#DejaVuSans-40"/>
      <use x="574.529297" xlink:href="#DejaVuSans-84"/>
      <use x="635.613281" xlink:href="#DejaVuSans-72"/>
      <use x="710.808594" xlink:href="#DejaVuSans-122"/>
      <use x="763.298828" xlink:href="#DejaVuSans-41"/>
     </g>
    </g>
   </g>
   <g id="matplotlib.axis_4">
    <g id="ytick_1">
     <g id="line2d_21">
      <path clip-path="url(#pe7dfe85761)" d="M 67.4525 212.1625 
L 402.2525 212.1625 
" style="fill:none;stroke:#b0b0b0;stroke-dasharray:0.8,1.32;stroke-dashoffset:0;stroke-width:0.8;"/>
     </g>
     <g id="line2d_22">
      <defs>
       <path d="M 0 0 
L -3.5 0 
" id="m641a9187da" style="stroke:#000000;stroke-width:0.8;"/>
      </defs>
      <g>
       <use style="stroke:#000000;stroke-width:0.8;" x="67.4525" xlink:href="#m641a9187da" y="212.1625"/>
      </g>
     </g>
     <g id="text_13">
      <!-- −30 -->
      <defs>
       <path d="M 10.59375 35.5 
L 73.1875 35.5 
L 73.1875 27.203125 
L 10.59375 27.203125 
z
" id="DejaVuSans-8722"/>
       <path d="M 40.578125 39.3125 
Q 47.65625 37.796875 51.625 33 
Q 55.609375 28.21875 55.609375 21.1875 
Q 55.609375 10.40625 48.1875 4.484375 
Q 40.765625 -1.421875 27.09375 -1.421875 
Q 22.515625 -1.421875 17.65625 -0.515625 
Q 12.796875 0.390625 7.625 2.203125 
L 7.625 11.71875 
Q 11.71875 9.328125 16.59375 8.109375 
Q 21.484375 6.890625 26.8125 6.890625 
Q 36.078125 6.890625 40.9375 10.546875 
Q 45.796875 14.203125 45.796875 21.1875 
Q 45.796875 27.640625 41.28125 31.265625 
Q 36.765625 34.90625 28.71875 34.90625 
L 20.21875 34.90625 
L 20.21875 43.015625 
L 29.109375 43.015625 
Q 36.375 43.015625 40.234375 45.921875 
Q 44.09375 48.828125 44.09375 54.296875 
Q 44.09375 59.90625 40.109375 62.90625 
Q 36.140625 65.921875 28.71875 65.921875 
Q 24.65625 65.921875 20.015625 65.03125 
Q 15.375 64.15625 9.8125 62.3125 
L 9.8125 71.09375 
Q 15.4375 72.65625 20.34375 73.4375 
Q 25.25 74.21875 29.59375 74.21875 
Q 40.828125 74.21875 47.359375 69.109375 
Q 53.90625 64.015625 53.90625 55.328125 
Q 53.90625 49.265625 50.4375 45.09375 
Q 46.96875 40.921875 40.578125 39.3125 
z
" id="DejaVuSans-51"/>
      </defs>
      <g transform="translate(26.685 218.24125)scale(0.16 -0.16)">
       <use xlink:href="#DejaVuSans-8722"/>
       <use x="83.789062" xlink:href="#DejaVuSans-51"/>
       <use x="147.412109" xlink:href="#DejaVuSans-48"/>
      </g>
     </g>
    </g>
    <g id="ytick_2">
     <g id="line2d_23">
      <path clip-path="url(#pe7dfe85761)" d="M 67.4525 161.636217 
L 402.2525 161.636217 
" style="fill:none;stroke:#b0b0b0;stroke-dasharray:0.8,1.32;stroke-dashoffset:0;stroke-width:0.8;"/>
     </g>
     <g id="line2d_24">
      <g>
       <use style="stroke:#000000;stroke-width:0.8;" x="67.4525" xlink:href="#m641a9187da" y="161.636217"/>
      </g>
     </g>
     <g id="text_14">
      <!-- −20 -->
      <g transform="translate(26.685 167.714967)scale(0.16 -0.16)">
       <use xlink:href="#DejaVuSans-8722"/>
       <use x="83.789062" xlink:href="#DejaVuSans-50"/>
       <use x="147.412109" xlink:href="#DejaVuSans-48"/>
      </g>
     </g>
    </g>
    <g id="ytick_3">
     <g id="line2d_25">
      <path clip-path="url(#pe7dfe85761)" d="M 67.4525 111.109934 
L 402.2525 111.109934 
" style="fill:none;stroke:#b0b0b0;stroke-dasharray:0.8,1.32;stroke-dashoffset:0;stroke-width:0.8;"/>
     </g>
     <g id="line2d_26">
      <g>
       <use style="stroke:#000000;stroke-width:0.8;" x="67.4525" xlink:href="#m641a9187da" y="111.109934"/>
      </g>
     </g>
     <g id="text_15">
      <!-- −10 -->
      <g transform="translate(26.685 117.188684)scale(0.16 -0.16)">
       <use xlink:href="#DejaVuSans-8722"/>
       <use x="83.789062" xlink:href="#DejaVuSans-49"/>
       <use x="147.412109" xlink:href="#DejaVuSans-48"/>
      </g>
     </g>
    </g>
    <g id="ytick_4">
     <g id="line2d_27">
      <path clip-path="url(#pe7dfe85761)" d="M 67.4525 60.583651 
L 402.2525 60.583651 
" style="fill:none;stroke:#b0b0b0;stroke-dasharray:0.8,1.32;stroke-dashoffset:0;stroke-width:0.8;"/>
     </g>
     <g id="line2d_28">
      <g>
       <use style="stroke:#000000;stroke-width:0.8;" x="67.4525" xlink:href="#m641a9187da" y="60.583651"/>
      </g>
     </g>
     <g id="text_16">
      <!-- 0 -->
      <g transform="translate(50.2725 66.662401)scale(0.16 -0.16)">
       <use xlink:href="#DejaVuSans-48"/>
      </g>
     </g>
    </g>
    <g id="text_17">
     <!-- $D_\mathrm{int}/{2\pi}$ (GHz) -->
     <defs>
      <path d="M 16.890625 72.90625 
L 38.09375 72.90625 
Q 54.984375 72.90625 63.59375 65.75 
Q 72.21875 58.59375 72.21875 44.484375 
Q 72.21875 35.15625 68.9375 26.53125 
Q 65.671875 17.921875 59.90625 12.015625 
Q 54.109375 5.953125 45.171875 2.96875 
Q 36.234375 0 24.03125 0 
L 2.6875 0 
z
M 25.203125 64.796875 
L 14.203125 8.109375 
L 27.09375 8.109375 
Q 43.65625 8.109375 52.734375 17.625 
Q 61.8125 27.15625 61.8125 44.484375 
Q 61.8125 54.984375 55.953125 59.890625 
Q 50.09375 64.796875 37.59375 64.796875 
z
" id="DejaVuSans-Oblique-68"/>
      <path d="M 9.421875 54.6875 
L 18.40625 54.6875 
L 18.40625 0 
L 9.421875 0 
z
M 9.421875 75.984375 
L 18.40625 75.984375 
L 18.40625 64.59375 
L 9.421875 64.59375 
z
" id="DejaVuSans-105"/>
      <path d="M 25.390625 72.90625 
L 33.6875 72.90625 
L 8.296875 -9.28125 
L 0 -9.28125 
z
" id="DejaVuSans-47"/>
      <path d="M 9.125 54.6875 
L 61.53125 54.6875 
L 59.765625 45.703125 
L 52.875 45.703125 
L 46.34375 12.109375 
Q 45.65625 8.59375 46.578125 7.03125 
Q 47.46875 5.515625 50.140625 5.515625 
Q 50.875 5.515625 51.953125 5.671875 
Q 53.078125 5.765625 53.421875 5.8125 
L 52.15625 -0.6875 
Q 50.34375 -1.3125 48.484375 -1.609375 
Q 46.578125 -1.90625 44.78125 -1.90625 
Q 38.921875 -1.90625 37.3125 1.265625 
Q 35.6875 4.5 37.359375 13.09375 
L 43.703125 45.703125 
L 23.53125 45.703125 
L 14.65625 0 
L 5.46875 0 
L 14.359375 45.703125 
L 7.375 45.703125 
z
" id="DejaVuSans-Oblique-960"/>
      <path d="M 59.515625 10.40625 
L 59.515625 29.984375 
L 43.40625 29.984375 
L 43.40625 38.09375 
L 69.28125 38.09375 
L 69.28125 6.78125 
Q 63.578125 2.734375 56.6875 0.65625 
Q 49.8125 -1.421875 42 -1.421875 
Q 24.90625 -1.421875 15.25 8.5625 
Q 5.609375 18.5625 5.609375 36.375 
Q 5.609375 54.25 15.25 64.234375 
Q 24.90625 74.21875 42 74.21875 
Q 49.125 74.21875 55.546875 72.453125 
Q 61.96875 70.703125 67.390625 67.28125 
L 67.390625 56.78125 
Q 61.921875 61.421875 55.765625 63.765625 
Q 49.609375 66.109375 42.828125 66.109375 
Q 29.4375 66.109375 22.71875 58.640625 
Q 16.015625 51.171875 16.015625 36.375 
Q 16.015625 21.625 22.71875 14.15625 
Q 29.4375 6.6875 42.828125 6.6875 
Q 48.046875 6.6875 52.140625 7.59375 
Q 56.25 8.5 59.515625 10.40625 
z
" id="DejaVuSans-71"/>
     </defs>
     <g transform="translate(19.3575 180.5225)rotate(-90)scale(0.16 -0.16)">
      <use transform="translate(0 0.125)" xlink:href="#DejaVuSans-Oblique-68"/>
      <use transform="translate(77.001953 -16.28125)scale(0.7)" xlink:href="#DejaVuSans-105"/>
      <use transform="translate(96.450195 -16.28125)scale(0.7)" xlink:href="#DejaVuSans-110"/>
      <use transform="translate(140.81543 -16.28125)scale(0.7)" xlink:href="#DejaVuSans-116"/>
      <use transform="translate(170.996094 0.125)" xlink:href="#DejaVuSans-47"/>
      <use transform="translate(204.6875 0.125)" xlink:href="#DejaVuSans-50"/>
      <use transform="translate(268.310547 0.125)" xlink:href="#DejaVuSans-Oblique-960"/>
      <use transform="translate(328.515625 0.125)" xlink:href="#DejaVuSans-32"/>
      <use transform="translate(360.302734 0.125)" xlink:href="#DejaVuSans-40"/>
      <use transform="translate(399.316406 0.125)" xlink:href="#DejaVuSans-71"/>
      <use transform="translate(476.806641 0.125)" xlink:href="#DejaVuSans-72"/>
      <use transform="translate(552.001953 0.125)" xlink:href="#DejaVuSans-122"/>
      <use transform="translate(604.492188 0.125)" xlink:href="#DejaVuSans-41"/>
     </g>
    </g>
   </g>
   <g id="line2d_29">
    <defs>
     <path d="M 0 1.5 
C 0.397805 1.5 0.77937 1.341951 1.06066 1.06066 
C 1.341951 0.77937 1.5 0.397805 1.5 0 
C 1.5 -0.397805 1.341951 -0.77937 1.06066 -1.06066 
C 0.77937 -1.341951 0.397805 -1.5 0 -1.5 
C -0.397805 -1.5 -0.77937 -1.341951 -1.06066 -1.06066 
C -1.341951 -0.77937 -1.5 -0.397805 -1.5 0 
C -1.5 0.397805 -1.341951 0.77937 -1.06066 1.06066 
C -0.77937 1.341951 -0.397805 1.5 0 1.5 
z
" id="m70814eee9c" style="stroke:#4169e1;stroke-opacity:0.5;"/>
    </defs>
    <g clip-path="url(#pe7dfe85761)">
     <use style="fill:#4169e1;fill-opacity:0.5;stroke:#4169e1;stroke-opacity:0.5;" x="83.154982" xlink:href="#m70814eee9c" y="65.609929"/>
     <use style="fill:#4169e1;fill-opacity:0.5;stroke:#4169e1;stroke-opacity:0.5;" x="86.39681" xlink:href="#m70814eee9c" y="64.012081"/>
     <use style="fill:#4169e1;fill-opacity:0.5;stroke:#4169e1;stroke-opacity:0.5;" x="89.635999" xlink:href="#m70814eee9c" y="62.869154"/>
     <use style="fill:#4169e1;fill-opacity:0.5;stroke:#4169e1;stroke-opacity:0.5;" x="92.865963" xlink:href="#m70814eee9c" y="63.316395"/>
     <use style="fill:#4169e1;fill-opacity:0.5;stroke:#4169e1;stroke-opacity:0.5;" x="96.106393" xlink:href="#m70814eee9c" y="61.959558"/>
     <use style="fill:#4169e1;fill-opacity:0.5;stroke:#4169e1;stroke-opacity:0.5;" x="99.34415" xlink:href="#m70814eee9c" y="61.063541"/>
     <use style="fill:#4169e1;fill-opacity:0.5;stroke:#4169e1;stroke-opacity:0.5;" x="102.572623" xlink:href="#m70814eee9c" y="61.767699"/>
     <use style="fill:#4169e1;fill-opacity:0.5;stroke:#4169e1;stroke-opacity:0.5;" x="105.804975" xlink:href="#m70814eee9c" y="61.803344"/>
     <use style="fill:#4169e1;fill-opacity:0.5;stroke:#4169e1;stroke-opacity:0.5;" x="109.034604" xlink:href="#m70814eee9c" y="62.308473"/>
     <use style="fill:#4169e1;fill-opacity:0.5;stroke:#4169e1;stroke-opacity:0.5;" x="112.268109" xlink:href="#m70814eee9c" y="62.145414"/>
     <use style="fill:#4169e1;fill-opacity:0.5;stroke:#4169e1;stroke-opacity:0.5;" x="115.498872" xlink:href="#m70814eee9c" y="62.4549"/>
     <use style="fill:#4169e1;fill-opacity:0.5;stroke:#4169e1;stroke-opacity:0.5;" x="118.73351" xlink:href="#m70814eee9c" y="62.09653"/>
     <use style="fill:#4169e1;fill-opacity:0.5;stroke:#4169e1;stroke-opacity:0.5;" x="121.972029" xlink:href="#m70814eee9c" y="61.069103"/>
     <use style="fill:#4169e1;fill-opacity:0.5;stroke:#4169e1;stroke-opacity:0.5;" x="125.214436" xlink:href="#m70814eee9c" y="59.371414"/>
     <use style="fill:#4169e1;fill-opacity:0.5;stroke:#4169e1;stroke-opacity:0.5;" x="128.440769" xlink:href="#m70814eee9c" y="60.444527"/>
     <use style="fill:#4169e1;fill-opacity:0.5;stroke:#4169e1;stroke-opacity:0.5;" x="131.664293" xlink:href="#m70814eee9c" y="62.002002"/>
     <use style="fill:#4169e1;fill-opacity:0.5;stroke:#4169e1;stroke-opacity:0.5;" x="134.891662" xlink:href="#m70814eee9c" y="62.896602"/>
     <use style="fill:#4169e1;fill-opacity:0.5;stroke:#4169e1;stroke-opacity:0.5;" x="138.122884" xlink:href="#m70814eee9c" y="63.12714"/>
     <use style="fill:#4169e1;fill-opacity:0.5;stroke:#4169e1;stroke-opacity:0.5;" x="141.364652" xlink:href="#m70814eee9c" y="61.539517"/>
     <use style="fill:#4169e1;fill-opacity:0.5;stroke:#4169e1;stroke-opacity:0.5;" x="144.590215" xlink:href="#m70814eee9c" y="62.745553"/>
     <use style="fill:#4169e1;fill-opacity:0.5;stroke:#4169e1;stroke-opacity:0.5;" x="147.833026" xlink:href="#m70814eee9c" y="60.978137"/>
     <use style="fill:#4169e1;fill-opacity:0.5;stroke:#4169e1;stroke-opacity:0.5;" x="151.066294" xlink:href="#m70814eee9c" y="60.855973"/>
     <use style="fill:#4169e1;fill-opacity:0.5;stroke:#4169e1;stroke-opacity:0.5;" x="154.303416" xlink:href="#m70814eee9c" y="60.069305"/>
     <use style="fill:#4169e1;fill-opacity:0.5;stroke:#4169e1;stroke-opacity:0.5;" x="157.5444" xlink:href="#m70814eee9c" y="58.616942"/>
     <use style="fill:#4169e1;fill-opacity:0.5;stroke:#4169e1;stroke-opacity:0.5;" x="160.782516" xlink:href="#m70814eee9c" y="57.65888"/>
     <use style="fill:#4169e1;fill-opacity:0.5;stroke:#4169e1;stroke-opacity:0.5;" x="164.011004" xlink:href="#m70814eee9c" y="58.360643"/>
     <use style="fill:#4169e1;fill-opacity:0.5;stroke:#4169e1;stroke-opacity:0.5;" x="167.243326" xlink:href="#m70814eee9c" y="58.401442"/>
     <use style="fill:#4169e1;fill-opacity:0.5;stroke:#4169e1;stroke-opacity:0.5;" x="170.472729" xlink:href="#m70814eee9c" y="58.945427"/>
     <use style="fill:#4169e1;fill-opacity:0.5;stroke:#4169e1;stroke-opacity:0.5;" x="173.699196" xlink:href="#m70814eee9c" y="59.995567"/>
     <use style="fill:#4169e1;fill-opacity:0.5;stroke:#4169e1;stroke-opacity:0.5;" x="176.922709" xlink:href="#m70814eee9c" y="61.554833"/>
     <use style="fill:#4169e1;fill-opacity:0.5;stroke:#4169e1;stroke-opacity:0.5;" x="180.150036" xlink:href="#m70814eee9c" y="62.456733"/>
     <use style="fill:#4169e1;fill-opacity:0.5;stroke:#4169e1;stroke-opacity:0.5;" x="183.40156" xlink:href="#m70814eee9c" y="59.187527"/>
     <use style="fill:#4169e1;fill-opacity:0.5;stroke:#4169e1;stroke-opacity:0.5;" x="186.643358" xlink:href="#m70814eee9c" y="57.594778"/>
     <use style="fill:#4169e1;fill-opacity:0.5;stroke:#4169e1;stroke-opacity:0.5;" x="189.868581" xlink:href="#m70814eee9c" y="58.859285"/>
     <use style="fill:#4169e1;fill-opacity:0.5;stroke:#4169e1;stroke-opacity:0.5;" x="193.097613" xlink:href="#m70814eee9c" y="59.467287"/>
     <use style="fill:#4169e1;fill-opacity:0.5;stroke:#4169e1;stroke-opacity:0.5;" x="196.337284" xlink:href="#m70814eee9c" y="58.241209"/>
     <use style="fill:#4169e1;fill-opacity:0.5;stroke:#4169e1;stroke-opacity:0.5;" x="199.567129" xlink:href="#m70814eee9c" y="58.709122"/>
     <use style="fill:#4169e1;fill-opacity:0.5;stroke:#4169e1;stroke-opacity:0.5;" x="202.807626" xlink:href="#m70814eee9c" y="57.340619"/>
     <use style="fill:#4169e1;fill-opacity:0.5;stroke:#4169e1;stroke-opacity:0.5;" x="206.045111" xlink:href="#m70814eee9c" y="56.491531"/>
     <use style="fill:#4169e1;fill-opacity:0.5;stroke:#4169e1;stroke-opacity:0.5;" x="209.272708" xlink:href="#m70814eee9c" y="57.34685"/>
     <use style="fill:#4169e1;fill-opacity:0.5;stroke:#4169e1;stroke-opacity:0.5;" x="212.49724" xlink:href="#m70814eee9c" y="58.730395"/>
     <use style="fill:#4169e1;fill-opacity:0.5;stroke:#4169e1;stroke-opacity:0.5;" x="215.718691" xlink:href="#m70814eee9c" y="60.645181"/>
     <use style="fill:#4169e1;fill-opacity:0.5;stroke:#4169e1;stroke-opacity:0.5;" x="218.943924" xlink:href="#m70814eee9c" y="61.908084"/>
     <use style="fill:#4169e1;fill-opacity:0.5;stroke:#4169e1;stroke-opacity:0.5;" x="222.172945" xlink:href="#m70814eee9c" y="62.517954"/>
     <use style="fill:#4169e1;fill-opacity:0.5;stroke:#4169e1;stroke-opacity:0.5;" x="225.405761" xlink:href="#m70814eee9c" y="62.47364"/>
     <use style="fill:#4169e1;fill-opacity:0.5;stroke:#4169e1;stroke-opacity:0.5;" x="228.649283" xlink:href="#m70814eee9c" y="60.583651"/>
     <use style="fill:#4169e1;fill-opacity:0.5;stroke:#4169e1;stroke-opacity:0.5;" x="231.882804" xlink:href="#m70814eee9c" y="60.417843"/>
     <use style="fill:#4169e1;fill-opacity:0.5;stroke:#4169e1;stroke-opacity:0.5;" x="235.133966" xlink:href="#m70814eee9c" y="57.210902"/>
     <use style="fill:#4169e1;fill-opacity:0.5;stroke:#4169e1;stroke-opacity:0.5;" x="238.354319" xlink:href="#m70814eee9c" y="59.315054"/>
     <use style="fill:#4169e1;fill-opacity:0.5;stroke:#4169e1;stroke-opacity:0.5;" x="241.585372" xlink:href="#m70814eee9c" y="59.574508"/>
     <use style="fill:#4169e1;fill-opacity:0.5;stroke:#4169e1;stroke-opacity:0.5;" x="244.820212" xlink:href="#m70814eee9c" y="59.181259"/>
     <use style="fill:#4169e1;fill-opacity:0.5;stroke:#4169e1;stroke-opacity:0.5;" x="248.072753" xlink:href="#m70814eee9c" y="55.736668"/>
     <use style="fill:#4169e1;fill-opacity:0.5;stroke:#4169e1;stroke-opacity:0.5;" x="251.294316" xlink:href="#m70814eee9c" y="57.632209"/>
     <use style="fill:#4169e1;fill-opacity:0.5;stroke:#4169e1;stroke-opacity:0.5;" x="254.533576" xlink:href="#m70814eee9c" y="56.476919"/>
     <use style="fill:#4169e1;fill-opacity:0.5;stroke:#4169e1;stroke-opacity:0.5;" x="257.755699" xlink:href="#m70814eee9c" y="58.276013"/>
     <use style="fill:#4169e1;fill-opacity:0.5;stroke:#4169e1;stroke-opacity:0.5;" x="260.974589" xlink:href="#m70814eee9c" y="60.632261"/>
     <use style="fill:#4169e1;fill-opacity:0.5;stroke:#4169e1;stroke-opacity:0.5;" x="264.155256" xlink:href="#m70814eee9c" y="69.57745"/>
     <use style="fill:#4169e1;fill-opacity:0.5;stroke:#4169e1;stroke-opacity:0.5;" x="267.418941" xlink:href="#m70814eee9c" y="64.211828"/>
     <use style="fill:#4169e1;fill-opacity:0.5;stroke:#4169e1;stroke-opacity:0.5;" x="270.686471" xlink:href="#m70814eee9c" y="58.183351"/>
     <use style="fill:#4169e1;fill-opacity:0.5;stroke:#4169e1;stroke-opacity:0.5;" x="273.957853" xlink:href="#m70814eee9c" y="51.490847"/>
     <use style="fill:#4169e1;fill-opacity:0.5;stroke:#4169e1;stroke-opacity:0.5;" x="277.15345" xlink:href="#m70814eee9c" y="57.862493"/>
     <use style="fill:#4169e1;fill-opacity:0.5;stroke:#4169e1;stroke-opacity:0.5;" x="280.366797" xlink:href="#m70814eee9c" y="61.174194"/>
     <use style="fill:#4169e1;fill-opacity:0.5;stroke:#4169e1;stroke-opacity:0.5;" x="283.57682" xlink:href="#m70814eee9c" y="65.059039"/>
     <use style="fill:#4169e1;fill-opacity:0.5;stroke:#4169e1;stroke-opacity:0.5;" x="286.839914" xlink:href="#m70814eee9c" y="59.795237"/>
     <use style="fill:#4169e1;fill-opacity:0.5;stroke:#4169e1;stroke-opacity:0.5;" x="290.106839" xlink:href="#m70814eee9c" y="53.871134"/>
     <use style="fill:#4169e1;fill-opacity:0.5;stroke:#4169e1;stroke-opacity:0.5;" x="293.321054" xlink:href="#m70814eee9c" y="57.033314"/>
     <use style="fill:#4169e1;fill-opacity:0.5;stroke:#4169e1;stroke-opacity:0.5;" x="296.546057" xlink:href="#m70814eee9c" y="58.33572"/>
     <use style="fill:#4169e1;fill-opacity:0.5;stroke:#4169e1;stroke-opacity:0.5;" x="299.774796" xlink:href="#m70814eee9c" y="58.994284"/>
     <use style="fill:#4169e1;fill-opacity:0.5;stroke:#4169e1;stroke-opacity:0.5;" x="303.021461" xlink:href="#m70814eee9c" y="56.56249"/>
     <use style="fill:#4169e1;fill-opacity:0.5;stroke:#4169e1;stroke-opacity:0.5;" x="306.236402" xlink:href="#m70814eee9c" y="59.599519"/>
     <use style="fill:#4169e1;fill-opacity:0.5;stroke:#4169e1;stroke-opacity:0.5;" x="309.476376" xlink:href="#m70814eee9c" y="58.321253"/>
     <use style="fill:#4169e1;fill-opacity:0.5;stroke:#4169e1;stroke-opacity:0.5;" x="312.705876" xlink:href="#m70814eee9c" y="58.848557"/>
     <use style="fill:#4169e1;fill-opacity:0.5;stroke:#4169e1;stroke-opacity:0.5;" x="315.924859" xlink:href="#m70814eee9c" y="61.188818"/>
     <use style="fill:#4169e1;fill-opacity:0.5;stroke:#4169e1;stroke-opacity:0.5;" x="319.140416" xlink:href="#m70814eee9c" y="64.119638"/>
     <use style="fill:#4169e1;fill-opacity:0.5;stroke:#4169e1;stroke-opacity:0.5;" x="322.381097" xlink:href="#m70814eee9c" y="62.719394"/>
     <use style="fill:#4169e1;fill-opacity:0.5;stroke:#4169e1;stroke-opacity:0.5;" x="325.611232" xlink:href="#m70814eee9c" y="63.137273"/>
     <use style="fill:#4169e1;fill-opacity:0.5;stroke:#4169e1;stroke-opacity:0.5;" x="328.845094" xlink:href="#m70814eee9c" y="62.912611"/>
     <use style="fill:#4169e1;fill-opacity:0.5;stroke:#4169e1;stroke-opacity:0.5;" x="332.075523" xlink:href="#m70814eee9c" y="63.27976"/>
     <use style="fill:#4169e1;fill-opacity:0.5;stroke:#4169e1;stroke-opacity:0.5;" x="335.309676" xlink:href="#m70814eee9c" y="63.004993"/>
     <use style="fill:#4169e1;fill-opacity:0.5;stroke:#4169e1;stroke-opacity:0.5;" x="338.533192" xlink:href="#m70814eee9c" y="64.563821"/>
     <use style="fill:#4169e1;fill-opacity:0.5;stroke:#4169e1;stroke-opacity:0.5;" x="341.774795" xlink:href="#m70814eee9c" y="63.004747"/>
     <use style="fill:#4169e1;fill-opacity:0.5;stroke:#4169e1;stroke-opacity:0.5;" x="344.991341" xlink:href="#m70814eee9c" y="65.765072"/>
     <use style="fill:#4169e1;fill-opacity:0.5;stroke:#4169e1;stroke-opacity:0.5;" x="348.225986" xlink:href="#m70814eee9c" y="65.405291"/>
     <use style="fill:#4169e1;fill-opacity:0.5;stroke:#4169e1;stroke-opacity:0.5;" x="351.478788" xlink:href="#m70814eee9c" y="61.915729"/>
     <use style="fill:#4169e1;fill-opacity:0.5;stroke:#4169e1;stroke-opacity:0.5;" x="354.706453" xlink:href="#m70814eee9c" y="62.759386"/>
     <use style="fill:#4169e1;fill-opacity:0.5;stroke:#4169e1;stroke-opacity:0.5;" x="357.945053" xlink:href="#m70814eee9c" y="61.717924"/>
     <use style="fill:#4169e1;fill-opacity:0.5;stroke:#4169e1;stroke-opacity:0.5;" x="361.172896" xlink:href="#m70814eee9c" y="62.530879"/>
     <use style="fill:#4169e1;fill-opacity:0.5;stroke:#4169e1;stroke-opacity:0.5;" x="364.426187" xlink:href="#m70814eee9c" y="58.957025"/>
     <use style="fill:#4169e1;fill-opacity:0.5;stroke:#4169e1;stroke-opacity:0.5;" x="367.661458" xlink:href="#m70814eee9c" y="58.489428"/>
     <use style="fill:#4169e1;fill-opacity:0.5;stroke:#4169e1;stroke-opacity:0.5;" x="370.885908" xlink:href="#m70814eee9c" y="59.887279"/>
     <use style="fill:#4169e1;fill-opacity:0.5;stroke:#4169e1;stroke-opacity:0.5;" x="374.121317" xlink:href="#m70814eee9c" y="59.395942"/>
     <use style="fill:#4169e1;fill-opacity:0.5;stroke:#4169e1;stroke-opacity:0.5;" x="377.338584" xlink:href="#m70814eee9c" y="62.031939"/>
     <use style="fill:#4169e1;fill-opacity:0.5;stroke:#4169e1;stroke-opacity:0.5;" x="380.566807" xlink:href="#m70814eee9c" y="62.779437"/>
     <use style="fill:#4169e1;fill-opacity:0.5;stroke:#4169e1;stroke-opacity:0.5;" x="383.798716" xlink:href="#m70814eee9c" y="62.891394"/>
     <use style="fill:#4169e1;fill-opacity:0.5;stroke:#4169e1;stroke-opacity:0.5;" x="387.034318" xlink:href="#m70814eee9c" y="62.366722"/>
    </g>
   </g>
   <g id="line2d_30">
    <path clip-path="url(#pe7dfe85761)" d="M 83.154982 64.176214 
L 86.39681 63.895653 
L 89.635999 63.624665 
L 92.865963 63.363119 
L 96.106393 63.110889 
L 99.34415 62.867846 
L 102.572623 62.633862 
L 105.804975 62.408808 
L 109.034604 62.192557 
L 112.268109 61.98498 
L 115.498872 61.785949 
L 118.73351 61.595337 
L 121.972029 61.413013 
L 125.214436 61.238852 
L 128.440769 61.072723 
L 131.664293 60.9145 
L 134.891662 60.764054 
L 138.122884 60.621256 
L 141.364652 60.485979 
L 144.590215 60.358095 
L 147.833026 60.237474 
L 151.066294 60.12399 
L 154.303416 60.017513 
L 157.5444 59.917916 
L 160.782516 59.82507 
L 164.011004 59.738848 
L 167.243326 59.659121 
L 170.472729 59.58576 
L 173.699196 59.518638 
L 176.922709 59.457627 
L 180.150036 59.402598 
L 183.40156 59.353423 
L 186.643358 59.309974 
L 189.868581 59.272122 
L 193.097613 59.239741 
L 196.337284 59.2127 
L 199.567129 59.190873 
L 202.807626 59.17413 
L 206.045111 59.162345 
L 209.272708 59.155387 
L 212.49724 59.153131 
L 215.718691 59.155446 
L 218.943924 59.162206 
L 222.172945 59.173281 
L 225.405761 59.188544 
L 228.649283 59.207866 
L 231.882804 59.23112 
L 235.133966 59.258176 
L 238.354319 59.288908 
L 241.585372 59.323186 
L 244.820212 59.360882 
L 248.072753 59.401869 
L 251.294316 59.446018 
L 254.533576 59.493201 
L 257.755699 59.54329 
L 260.974589 59.596156 
L 264.155256 59.651672 
L 267.418941 59.709708 
L 270.686471 59.770138 
L 273.957853 59.832832 
L 277.15345 59.897663 
L 280.366797 59.964503 
L 283.57682 60.033222 
L 286.839914 60.103694 
L 290.106839 60.175789 
L 293.321054 60.24938 
L 296.546057 60.324338 
L 299.774796 60.400536 
L 303.021461 60.477845 
L 306.236402 60.556136 
L 309.476376 60.635283 
L 312.705876 60.715156 
L 315.924859 60.795627 
L 319.140416 60.876568 
L 322.381097 60.957851 
L 325.611232 61.039348 
L 328.845094 61.12093 
L 332.075523 61.20247 
L 335.309676 61.283839 
L 338.533192 61.364909 
L 341.774795 61.445551 
L 344.991341 61.525638 
L 348.225986 61.605042 
L 351.478788 61.683634 
L 354.706453 61.761286 
L 357.945053 61.837869 
L 361.172896 61.913257 
L 364.426187 61.987319 
L 367.661458 62.059929 
L 370.885908 62.130958 
L 374.121317 62.200278 
L 377.338584 62.267761 
L 380.566807 62.333278 
L 383.798716 62.396702 
L 387.034318 62.457903 
" style="fill:none;stroke:#4169e1;stroke-dasharray:3.7,1.6;stroke-dashoffset:0;"/>
   </g>
   <g id="line2d_31">
    <defs>
     <path d="M 0 1.5 
C 0.397805 1.5 0.77937 1.341951 1.06066 1.06066 
C 1.341951 0.77937 1.5 0.397805 1.5 0 
C 1.5 -0.397805 1.341951 -0.77937 1.06066 -1.06066 
C 0.77937 -1.341951 0.397805 -1.5 0 -1.5 
C -0.397805 -1.5 -0.77937 -1.341951 -1.06066 -1.06066 
C -1.341951 -0.77937 -1.5 -0.397805 -1.5 0 
C -1.5 0.397805 -1.341951 0.77937 -1.06066 1.06066 
C -0.77937 1.341951 -0.397805 1.5 0 1.5 
z
" id="m9c11bf3f6d" style="stroke:#228b22;stroke-opacity:0.5;"/>
    </defs>
    <g clip-path="url(#pe7dfe85761)">
     <use style="fill:#228b22;fill-opacity:0.5;stroke:#228b22;stroke-opacity:0.5;" x="82.670682" xlink:href="#m9c11bf3f6d" y="164.019525"/>
     <use style="fill:#228b22;fill-opacity:0.5;stroke:#228b22;stroke-opacity:0.5;" x="85.46643" xlink:href="#m9c11bf3f6d" y="160.204626"/>
     <use style="fill:#228b22;fill-opacity:0.5;stroke:#228b22;stroke-opacity:0.5;" x="88.265096" xlink:href="#m9c11bf3f6d" y="155.886893"/>
     <use style="fill:#228b22;fill-opacity:0.5;stroke:#228b22;stroke-opacity:0.5;" x="91.066683" xlink:href="#m9c11bf3f6d" y="151.065538"/>
     <use style="fill:#228b22;fill-opacity:0.5;stroke:#228b22;stroke-opacity:0.5;" x="93.871196" xlink:href="#m9c11bf3f6d" y="145.739772"/>
     <use style="fill:#228b22;fill-opacity:0.5;stroke:#228b22;stroke-opacity:0.5;" x="96.658905" xlink:href="#m9c11bf3f6d" y="143.310735"/>
     <use style="fill:#228b22;fill-opacity:0.5;stroke:#228b22;stroke-opacity:0.5;" x="99.456093" xlink:href="#m9c11bf3f6d" y="139.247643"/>
     <use style="fill:#228b22;fill-opacity:0.5;stroke:#228b22;stroke-opacity:0.5;" x="102.236418" xlink:href="#m9c11bf3f6d" y="138.091502"/>
     <use style="fill:#228b22;fill-opacity:0.5;stroke:#228b22;stroke-opacity:0.5;" x="105.032816" xlink:href="#m9c11bf3f6d" y="134.164602"/>
     <use style="fill:#228b22;fill-opacity:0.5;stroke:#228b22;stroke-opacity:0.5;" x="107.825516" xlink:href="#m9c11bf3f6d" y="130.875154"/>
     <use style="fill:#228b22;fill-opacity:0.5;stroke:#228b22;stroke-opacity:0.5;" x="110.607891" xlink:href="#m9c11bf3f6d" y="129.365787"/>
     <use style="fill:#228b22;fill-opacity:0.5;stroke:#228b22;stroke-opacity:0.5;" x="113.406379" xlink:href="#m9c11bf3f6d" y="125.078621"/>
     <use style="fill:#228b22;fill-opacity:0.5;stroke:#228b22;stroke-opacity:0.5;" x="116.194522" xlink:href="#m9c11bf3f6d" y="122.574711"/>
     <use style="fill:#228b22;fill-opacity:0.5;stroke:#228b22;stroke-opacity:0.5;" x="118.98555" xlink:href="#m9c11bf3f6d" y="119.573551"/>
     <use style="fill:#228b22;fill-opacity:0.5;stroke:#228b22;stroke-opacity:0.5;" x="121.772827" xlink:href="#m9c11bf3f6d" y="117.218962"/>
     <use style="fill:#228b22;fill-opacity:0.5;stroke:#228b22;stroke-opacity:0.5;" x="124.569631" xlink:href="#m9c11bf3f6d" y="113.222169"/>
     <use style="fill:#228b22;fill-opacity:0.5;stroke:#228b22;stroke-opacity:0.5;" x="127.349372" xlink:href="#m9c11bf3f6d" y="112.166691"/>
     <use style="fill:#228b22;fill-opacity:0.5;stroke:#228b22;stroke-opacity:0.5;" x="130.145295" xlink:href="#m9c11bf3f6d" y="108.321696"/>
     <use style="fill:#228b22;fill-opacity:0.5;stroke:#228b22;stroke-opacity:0.5;" x="132.944111" xlink:href="#m9c11bf3f6d" y="103.977961"/>
     <use style="fill:#228b22;fill-opacity:0.5;stroke:#228b22;stroke-opacity:0.5;" x="135.725803" xlink:href="#m9c11bf3f6d" y="102.586266"/>
     <use style="fill:#228b22;fill-opacity:0.5;stroke:#228b22;stroke-opacity:0.5;" x="138.517036" xlink:href="#m9c11bf3f6d" y="99.549709"/>
     <use style="fill:#228b22;fill-opacity:0.5;stroke:#228b22;stroke-opacity:0.5;" x="141.297772" xlink:href="#m9c11bf3f6d" y="98.322625"/>
     <use style="fill:#228b22;fill-opacity:0.5;stroke:#228b22;stroke-opacity:0.5;" x="144.08806" xlink:href="#m9c11bf3f6d" y="95.449155"/>
     <use style="fill:#228b22;fill-opacity:0.5;stroke:#228b22;stroke-opacity:0.5;" x="146.874519" xlink:href="#m9c11bf3f6d" y="93.235492"/>
     <use style="fill:#228b22;fill-opacity:0.5;stroke:#228b22;stroke-opacity:0.5;" x="149.623593" xlink:href="#m9c11bf3f6d" y="97.466602"/>
     <use style="fill:#228b22;fill-opacity:0.5;stroke:#228b22;stroke-opacity:0.5;" x="152.42246" xlink:href="#m9c11bf3f6d" y="93.11402"/>
     <use style="fill:#228b22;fill-opacity:0.5;stroke:#228b22;stroke-opacity:0.5;" x="155.204048" xlink:href="#m9c11bf3f6d" y="91.740129"/>
     <use style="fill:#228b22;fill-opacity:0.5;stroke:#228b22;stroke-opacity:0.5;" x="157.981758" xlink:href="#m9c11bf3f6d" y="91.034872"/>
     <use style="fill:#228b22;fill-opacity:0.5;stroke:#228b22;stroke-opacity:0.5;" x="160.782516" xlink:href="#m9c11bf3f6d" y="86.356334"/>
     <use style="fill:#228b22;fill-opacity:0.5;stroke:#228b22;stroke-opacity:0.5;" x="163.565933" xlink:href="#m9c11bf3f6d" y="84.667286"/>
     <use style="fill:#228b22;fill-opacity:0.5;stroke:#228b22;stroke-opacity:0.5;" x="166.365698" xlink:href="#m9c11bf3f6d" y="80.159856"/>
     <use style="fill:#228b22;fill-opacity:0.5;stroke:#228b22;stroke-opacity:0.5;" x="169.148076" xlink:href="#m9c11bf3f6d" y="78.649936"/>
     <use style="fill:#228b22;fill-opacity:0.5;stroke:#228b22;stroke-opacity:0.5;" x="171.953589" xlink:href="#m9c11bf3f6d" y="73.151773"/>
     <use style="fill:#228b22;fill-opacity:0.5;stroke:#228b22;stroke-opacity:0.5;" x="174.741681" xlink:href="#m9c11bf3f6d" y="70.656768"/>
     <use style="fill:#228b22;fill-opacity:0.5;stroke:#228b22;stroke-opacity:0.5;" x="177.525848" xlink:href="#m9c11bf3f6d" y="68.838221"/>
     <use style="fill:#228b22;fill-opacity:0.5;stroke:#228b22;stroke-opacity:0.5;" x="180.299291" xlink:href="#m9c11bf3f6d" y="68.86849"/>
     <use style="fill:#228b22;fill-opacity:0.5;stroke:#228b22;stroke-opacity:0.5;" x="183.082345" xlink:href="#m9c11bf3f6d" y="67.241801"/>
     <use style="fill:#228b22;fill-opacity:0.5;stroke:#228b22;stroke-opacity:0.5;" x="185.875037" xlink:href="#m9c11bf3f6d" y="63.953828"/>
     <use style="fill:#228b22;fill-opacity:0.5;stroke:#228b22;stroke-opacity:0.5;" x="188.643365" xlink:href="#m9c11bf3f6d" y="64.865811"/>
     <use style="fill:#228b22;fill-opacity:0.5;stroke:#228b22;stroke-opacity:0.5;" x="191.421311" xlink:href="#m9c11bf3f6d" y="64.119792"/>
     <use style="fill:#228b22;fill-opacity:0.5;stroke:#228b22;stroke-opacity:0.5;" x="194.188443" xlink:href="#m9c11bf3f6d" y="65.237936"/>
     <use style="fill:#228b22;fill-opacity:0.5;stroke:#228b22;stroke-opacity:0.5;" x="196.965201" xlink:href="#m9c11bf3f6d" y="64.696604"/>
     <use style="fill:#228b22;fill-opacity:0.5;stroke:#228b22;stroke-opacity:0.5;" x="199.758444" xlink:href="#m9c11bf3f6d" y="61.313596"/>
     <use style="fill:#228b22;fill-opacity:0.5;stroke:#228b22;stroke-opacity:0.5;" x="202.520339" xlink:href="#m9c11bf3f6d" y="63.334533"/>
     <use style="fill:#228b22;fill-opacity:0.5;stroke:#228b22;stroke-opacity:0.5;" x="205.312406" xlink:href="#m9c11bf3f6d" y="60.154164"/>
     <use style="fill:#228b22;fill-opacity:0.5;stroke:#228b22;stroke-opacity:0.5;" x="208.086758" xlink:href="#m9c11bf3f6d" y="60.027671"/>
     <use style="fill:#228b22;fill-opacity:0.5;stroke:#228b22;stroke-opacity:0.5;" x="210.863918" xlink:href="#m9c11bf3f6d" y="59.41709"/>
     <use style="fill:#228b22;fill-opacity:0.5;stroke:#228b22;stroke-opacity:0.5;" x="213.650759" xlink:href="#m9c11bf3f6d" y="57.137823"/>
     <use style="fill:#228b22;fill-opacity:0.5;stroke:#228b22;stroke-opacity:0.5;" x="216.419806" xlink:href="#m9c11bf3f6d" y="57.925784"/>
     <use style="fill:#228b22;fill-opacity:0.5;stroke:#228b22;stroke-opacity:0.5;" x="219.184765" xlink:href="#m9c11bf3f6d" y="59.418493"/>
     <use style="fill:#228b22;fill-opacity:0.5;stroke:#228b22;stroke-opacity:0.5;" x="221.938731" xlink:href="#m9c11bf3f6d" y="62.806246"/>
     <use style="fill:#228b22;fill-opacity:0.5;stroke:#228b22;stroke-opacity:0.5;" x="224.729933" xlink:href="#m9c11bf3f6d" y="59.775016"/>
     <use style="fill:#228b22;fill-opacity:0.5;stroke:#228b22;stroke-opacity:0.5;" x="227.489458" xlink:href="#m9c11bf3f6d" y="62.204505"/>
     <use style="fill:#228b22;fill-opacity:0.5;stroke:#228b22;stroke-opacity:0.5;" x="230.272478" xlink:href="#m9c11bf3f6d" y="60.583651"/>
     <use style="fill:#228b22;fill-opacity:0.5;stroke:#228b22;stroke-opacity:0.5;" x="233.044481" xlink:href="#m9c11bf3f6d" y="60.862127"/>
     <use style="fill:#228b22;fill-opacity:0.5;stroke:#228b22;stroke-opacity:0.5;" x="235.812351" xlink:href="#m9c11bf3f6d" y="61.852964"/>
     <use style="fill:#228b22;fill-opacity:0.5;stroke:#228b22;stroke-opacity:0.5;" x="238.603793" xlink:href="#m9c11bf3f6d" y="58.780475"/>
     <use style="fill:#228b22;fill-opacity:0.5;stroke:#228b22;stroke-opacity:0.5;" x="241.377251" xlink:href="#m9c11bf3f6d" y="58.808181"/>
     <use style="fill:#228b22;fill-opacity:0.5;stroke:#228b22;stroke-opacity:0.5;" x="244.146553" xlink:href="#m9c11bf3f6d" y="59.552079"/>
     <use style="fill:#228b22;fill-opacity:0.5;stroke:#228b22;stroke-opacity:0.5;" x="246.897783" xlink:href="#m9c11bf3f6d" y="63.411536"/>
     <use style="fill:#228b22;fill-opacity:0.5;stroke:#228b22;stroke-opacity:0.5;" x="249.679586" xlink:href="#m9c11bf3f6d" y="62.000531"/>
     <use style="fill:#228b22;fill-opacity:0.5;stroke:#228b22;stroke-opacity:0.5;" x="252.464192" xlink:href="#m9c11bf3f6d" y="60.106498"/>
     <use style="fill:#228b22;fill-opacity:0.5;stroke:#228b22;stroke-opacity:0.5;" x="255.237659" xlink:href="#m9c11bf3f6d" y="60.132431"/>
     <use style="fill:#228b22;fill-opacity:0.5;stroke:#228b22;stroke-opacity:0.5;" x="257.992973" xlink:href="#m9c11bf3f6d" y="63.287893"/>
     <use style="fill:#228b22;fill-opacity:0.5;stroke:#228b22;stroke-opacity:0.5;" x="260.771989" xlink:href="#m9c11bf3f6d" y="62.357421"/>
     <use style="fill:#228b22;fill-opacity:0.5;stroke:#228b22;stroke-opacity:0.5;" x="263.539809" xlink:href="#m9c11bf3f6d" y="63.356797"/>
     <use style="fill:#228b22;fill-opacity:0.5;stroke:#228b22;stroke-opacity:0.5;" x="266.317397" xlink:href="#m9c11bf3f6d" y="62.672514"/>
     <use style="fill:#228b22;fill-opacity:0.5;stroke:#228b22;stroke-opacity:0.5;" x="269.076749" xlink:href="#m9c11bf3f6d" y="65.131757"/>
     <use style="fill:#228b22;fill-opacity:0.5;stroke:#228b22;stroke-opacity:0.5;" x="271.845862" xlink:href="#m9c11bf3f6d" y="65.908324"/>
     <use style="fill:#228b22;fill-opacity:0.5;stroke:#228b22;stroke-opacity:0.5;" x="274.603699" xlink:href="#m9c11bf3f6d" y="68.628751"/>
     <use style="fill:#228b22;fill-opacity:0.5;stroke:#228b22;stroke-opacity:0.5;" x="277.385362" xlink:href="#m9c11bf3f6d" y="67.242096"/>
     <use style="fill:#228b22;fill-opacity:0.5;stroke:#228b22;stroke-opacity:0.5;" x="280.148707" xlink:href="#m9c11bf3f6d" y="69.012994"/>
     <use style="fill:#228b22;fill-opacity:0.5;stroke:#228b22;stroke-opacity:0.5;" x="282.90776" xlink:href="#m9c11bf3f6d" y="71.523779"/>
     <use style="fill:#228b22;fill-opacity:0.5;stroke:#228b22;stroke-opacity:0.5;" x="285.669553" xlink:href="#m9c11bf3f6d" y="73.56225"/>
     <use style="fill:#228b22;fill-opacity:0.5;stroke:#228b22;stroke-opacity:0.5;" x="288.441146" xlink:href="#m9c11bf3f6d" y="73.911382"/>
     <use style="fill:#228b22;fill-opacity:0.5;stroke:#228b22;stroke-opacity:0.5;" x="291.201375" xlink:href="#m9c11bf3f6d" y="76.219434"/>
     <use style="fill:#228b22;fill-opacity:0.5;stroke:#228b22;stroke-opacity:0.5;" x="293.957272" xlink:href="#m9c11bf3f6d" y="79.274208"/>
     <use style="fill:#228b22;fill-opacity:0.5;stroke:#228b22;stroke-opacity:0.5;" x="296.730051" xlink:href="#m9c11bf3f6d" y="79.418796"/>
     <use style="fill:#228b22;fill-opacity:0.5;stroke:#228b22;stroke-opacity:0.5;" x="299.491423" xlink:href="#m9c11bf3f6d" y="81.529858"/>
     <use style="fill:#228b22;fill-opacity:0.5;stroke:#228b22;stroke-opacity:0.5;" x="302.255532" xlink:href="#m9c11bf3f6d" y="83.169219"/>
     <use style="fill:#228b22;fill-opacity:0.5;stroke:#228b22;stroke-opacity:0.5;" x="305.015282" xlink:href="#m9c11bf3f6d" y="85.559754"/>
     <use style="fill:#228b22;fill-opacity:0.5;stroke:#228b22;stroke-opacity:0.5;" x="307.777763" xlink:href="#m9c11bf3f6d" y="87.479609"/>
     <use style="fill:#228b22;fill-opacity:0.5;stroke:#228b22;stroke-opacity:0.5;" x="310.542979" xlink:href="#m9c11bf3f6d" y="88.928085"/>
     <use style="fill:#228b22;fill-opacity:0.5;stroke:#228b22;stroke-opacity:0.5;" x="313.296695" xlink:href="#m9c11bf3f6d" y="92.358901"/>
     <use style="fill:#228b22;fill-opacity:0.5;stroke:#228b22;stroke-opacity:0.5;" x="316.067377" xlink:href="#m9c11bf3f6d" y="92.864949"/>
     <use style="fill:#228b22;fill-opacity:0.5;stroke:#228b22;stroke-opacity:0.5;" x="318.855073" xlink:href="#m9c11bf3f6d" y="90.438227"/>
     <use style="fill:#228b22;fill-opacity:0.5;stroke:#228b22;stroke-opacity:0.5;" x="321.609846" xlink:href="#m9c11bf3f6d" y="93.686757"/>
     <use style="fill:#228b22;fill-opacity:0.5;stroke:#228b22;stroke-opacity:0.5;" x="324.381627" xlink:href="#m9c11bf3f6d" y="94.003548"/>
     <use style="fill:#228b22;fill-opacity:0.5;stroke:#228b22;stroke-opacity:0.5;" x="327.134689" xlink:href="#m9c11bf3f6d" y="97.547064"/>
     <use style="fill:#228b22;fill-opacity:0.5;stroke:#228b22;stroke-opacity:0.5;" x="329.897619" xlink:href="#m9c11bf3f6d" y="99.389527"/>
     <use style="fill:#228b22;fill-opacity:0.5;stroke:#228b22;stroke-opacity:0.5;" x="332.648937" xlink:href="#m9c11bf3f6d" y="103.233755"/>
     <use style="fill:#228b22;fill-opacity:0.5;stroke:#228b22;stroke-opacity:0.5;" x="335.395779" xlink:href="#m9c11bf3f6d" y="107.849408"/>
     <use style="fill:#228b22;fill-opacity:0.5;stroke:#228b22;stroke-opacity:0.5;" x="338.16686" xlink:href="#m9c11bf3f6d" y="108.286877"/>
     <use style="fill:#228b22;fill-opacity:0.5;stroke:#228b22;stroke-opacity:0.5;" x="340.919108" xlink:href="#m9c11bf3f6d" y="111.970688"/>
     <use style="fill:#228b22;fill-opacity:0.5;stroke:#228b22;stroke-opacity:0.5;" x="343.681251" xlink:href="#m9c11bf3f6d" y="113.948792"/>
     <use style="fill:#228b22;fill-opacity:0.5;stroke:#228b22;stroke-opacity:0.5;" x="346.431703" xlink:href="#m9c11bf3f6d" y="117.942234"/>
     <use style="fill:#228b22;fill-opacity:0.5;stroke:#228b22;stroke-opacity:0.5;" x="349.184848" xlink:href="#m9c11bf3f6d" y="121.47161"/>
     <use style="fill:#228b22;fill-opacity:0.5;stroke:#228b22;stroke-opacity:0.5;" x="351.926252" xlink:href="#m9c11bf3f6d" y="127.02468"/>
     <use style="fill:#228b22;fill-opacity:0.5;stroke:#228b22;stroke-opacity:0.5;" x="354.720903" xlink:href="#m9c11bf3f6d" y="123.399083"/>
     <use style="fill:#228b22;fill-opacity:0.5;stroke:#228b22;stroke-opacity:0.5;" x="357.482168" xlink:href="#m9c11bf3f6d" y="125.528498"/>
     <use style="fill:#228b22;fill-opacity:0.5;stroke:#228b22;stroke-opacity:0.5;" x="360.238902" xlink:href="#m9c11bf3f6d" y="128.439002"/>
     <use style="fill:#228b22;fill-opacity:0.5;stroke:#228b22;stroke-opacity:0.5;" x="362.983842" xlink:href="#m9c11bf3f6d" y="133.382685"/>
     <use style="fill:#228b22;fill-opacity:0.5;stroke:#228b22;stroke-opacity:0.5;" x="365.738708" xlink:href="#m9c11bf3f6d" y="136.615188"/>
     <use style="fill:#228b22;fill-opacity:0.5;stroke:#228b22;stroke-opacity:0.5;" x="368.510787" xlink:href="#m9c11bf3f6d" y="136.880616"/>
     <use style="fill:#228b22;fill-opacity:0.5;stroke:#228b22;stroke-opacity:0.5;" x="371.263787" xlink:href="#m9c11bf3f6d" y="140.434843"/>
     <use style="fill:#228b22;fill-opacity:0.5;stroke:#228b22;stroke-opacity:0.5;" x="374.004923" xlink:href="#m9c11bf3f6d" y="146.034182"/>
     <use style="fill:#228b22;fill-opacity:0.5;stroke:#228b22;stroke-opacity:0.5;" x="376.74872" xlink:href="#m9c11bf3f6d" y="151.174844"/>
     <use style="fill:#228b22;fill-opacity:0.5;stroke:#228b22;stroke-opacity:0.5;" x="379.517048" xlink:href="#m9c11bf3f6d" y="152.086852"/>
     <use style="fill:#228b22;fill-opacity:0.5;stroke:#228b22;stroke-opacity:0.5;" x="382.266199" xlink:href="#m9c11bf3f6d" y="156.304491"/>
     <use style="fill:#228b22;fill-opacity:0.5;stroke:#228b22;stroke-opacity:0.5;" x="385.039932" xlink:href="#m9c11bf3f6d" y="156.284769"/>
    </g>
   </g>
   <g id="line2d_32">
    <path clip-path="url(#pe7dfe85761)" d="M 82.670682 164.45779 
L 85.46643 160.450798 
L 88.265096 156.526109 
L 91.066683 152.683472 
L 93.871196 148.922635 
L 96.658905 145.243345 
L 99.456093 141.64535 
L 102.236418 138.128398 
L 105.032816 134.692235 
L 107.825516 131.336611 
L 110.607891 128.061272 
L 113.406379 124.865965 
L 116.194522 121.75044 
L 118.98555 118.714443 
L 121.772827 115.757721 
L 124.569631 112.880024 
L 127.349372 110.081097 
L 130.145295 107.36069 
L 132.944111 104.718549 
L 135.725803 102.154422 
L 138.517036 99.668057 
L 141.297772 97.259202 
L 144.08806 94.927604 
L 146.874519 92.67301 
L 149.623593 90.495169 
L 152.42246 88.393827 
L 155.204048 86.368734 
L 157.981758 84.419636 
L 160.782516 82.546281 
L 163.565933 80.748416 
L 166.365698 79.025789 
L 169.148076 77.378149 
L 171.953589 75.805242 
L 174.741681 74.306816 
L 177.525848 72.882619 
L 180.299291 71.532398 
L 183.082345 70.255902 
L 185.875037 69.052877 
L 188.643365 67.923072 
L 191.421311 66.866233 
L 194.188443 65.88211 
L 196.965201 64.970448 
L 199.758444 64.130997 
L 202.520339 63.363503 
L 205.312406 62.667714 
L 208.086758 62.043378 
L 210.863918 61.490243 
L 213.650759 61.008056 
L 216.419806 60.596564 
L 219.184765 60.255516 
L 221.938731 59.98466 
L 224.729933 59.783741 
L 227.489458 59.65251 
L 230.272478 59.590712 
L 233.044481 59.598096 
L 235.812351 59.674409 
L 238.603793 59.819399 
L 241.377251 60.032814 
L 244.146553 60.3144 
L 246.897783 60.663907 
L 249.679586 61.081081 
L 252.464192 61.565671 
L 255.237659 62.117423 
L 257.992973 62.736085 
L 260.771989 63.421406 
L 263.539809 64.173132 
L 266.317397 64.991012 
L 269.076749 65.874792 
L 271.845862 66.824221 
L 274.603699 67.839047 
L 277.385362 68.919016 
L 280.148707 70.063877 
L 282.90776 71.273377 
L 285.669553 72.547264 
L 288.441146 73.885286 
L 291.201375 75.287189 
L 293.957272 76.752723 
L 296.730051 78.281633 
L 299.491423 79.873669 
L 302.255532 81.528578 
L 305.015282 83.246106 
L 307.777763 85.026003 
L 310.542979 86.868015 
L 313.296695 88.771891 
L 316.067377 90.737378 
L 318.855073 92.764223 
L 321.609846 94.852174 
L 324.381627 97.000979 
L 327.134689 99.210385 
L 329.897619 101.480141 
L 332.648937 103.809993 
L 335.395779 106.19969 
L 338.16686 108.648979 
L 340.919108 111.157607 
L 343.681251 113.725323 
L 346.431703 116.351874 
L 349.184848 119.037007 
L 351.926252 121.78047 
L 354.720903 124.582012 
L 357.482168 127.441379 
L 360.238902 130.358319 
L 362.983842 133.33258 
L 365.738708 136.363909 
L 368.510787 139.452055 
L 371.263787 142.596764 
L 374.004923 145.797784 
L 376.74872 149.054864 
L 379.517048 152.36775 
L 382.266199 155.73619 
L 385.039932 159.159933 
" style="fill:none;stroke:#228b22;stroke-dasharray:3.7,1.6;stroke-dashoffset:0;"/>
   </g>
   <g id="line2d_33">
    <defs>
     <path d="M 0 1.5 
C 0.397805 1.5 0.77937 1.341951 1.06066 1.06066 
C 1.341951 0.77937 1.5 0.397805 1.5 0 
C 1.5 -0.397805 1.341951 -0.77937 1.06066 -1.06066 
C 0.77937 -1.341951 0.397805 -1.5 0 -1.5 
C -0.397805 -1.5 -0.77937 -1.341951 -1.06066 -1.06066 
C -1.341951 -0.77937 -1.5 -0.397805 -1.5 0 
C -1.5 0.397805 -1.341951 0.77937 -1.06066 1.06066 
C -0.77937 1.341951 -0.397805 1.5 0 1.5 
z
" id="m1ef5af498f" style="stroke:#ff8c00;stroke-opacity:0.5;"/>
    </defs>
    <g clip-path="url(#pe7dfe85761)">
     <use style="fill:#ff8c00;fill-opacity:0.5;stroke:#ff8c00;stroke-opacity:0.5;" x="83.181163" xlink:href="#m1ef5af498f" y="61.508688"/>
     <use style="fill:#ff8c00;fill-opacity:0.5;stroke:#ff8c00;stroke-opacity:0.5;" x="86.501662" xlink:href="#m1ef5af498f" y="61.114813"/>
     <use style="fill:#ff8c00;fill-opacity:0.5;stroke:#ff8c00;stroke-opacity:0.5;" x="89.819714" xlink:href="#m1ef5af498f" y="61.142717"/>
     <use style="fill:#ff8c00;fill-opacity:0.5;stroke:#ff8c00;stroke-opacity:0.5;" x="93.141872" xlink:href="#m1ef5af498f" y="60.462794"/>
     <use style="fill:#ff8c00;fill-opacity:0.5;stroke:#ff8c00;stroke-opacity:0.5;" x="96.454988" xlink:href="#m1ef5af498f" y="61.341507"/>
     <use style="fill:#ff8c00;fill-opacity:0.5;stroke:#ff8c00;stroke-opacity:0.5;" x="99.772194" xlink:href="#m1ef5af498f" y="61.515371"/>
     <use style="fill:#ff8c00;fill-opacity:0.5;stroke:#ff8c00;stroke-opacity:0.5;" x="103.086901" xlink:href="#m1ef5af498f" y="62.119767"/>
     <use style="fill:#ff8c00;fill-opacity:0.5;stroke:#ff8c00;stroke-opacity:0.5;" x="106.399095" xlink:href="#m1ef5af498f" y="63.157593"/>
     <use style="fill:#ff8c00;fill-opacity:0.5;stroke:#ff8c00;stroke-opacity:0.5;" x="109.715367" xlink:href="#m1ef5af498f" y="63.492264"/>
     <use style="fill:#ff8c00;fill-opacity:0.5;stroke:#ff8c00;stroke-opacity:0.5;" x="113.029108" xlink:href="#m1ef5af498f" y="64.263372"/>
     <use style="fill:#ff8c00;fill-opacity:0.5;stroke:#ff8c00;stroke-opacity:0.5;" x="116.346926" xlink:href="#m1ef5af498f" y="64.331535"/>
     <use style="fill:#ff8c00;fill-opacity:0.5;stroke:#ff8c00;stroke-opacity:0.5;" x="119.66883" xlink:href="#m1ef5af498f" y="63.695454"/>
     <use style="fill:#ff8c00;fill-opacity:0.5;stroke:#ff8c00;stroke-opacity:0.5;" x="122.988184" xlink:href="#m1ef5af498f" y="63.498936"/>
     <use style="fill:#ff8c00;fill-opacity:0.5;stroke:#ff8c00;stroke-opacity:0.5;" x="126.311622" xlink:href="#m1ef5af498f" y="62.598389"/>
     <use style="fill:#ff8c00;fill-opacity:0.5;stroke:#ff8c00;stroke-opacity:0.5;" x="129.632493" xlink:href="#m1ef5af498f" y="62.140441"/>
     <use style="fill:#ff8c00;fill-opacity:0.5;stroke:#ff8c00;stroke-opacity:0.5;" x="132.957446" xlink:href="#m1ef5af498f" y="60.978687"/>
     <use style="fill:#ff8c00;fill-opacity:0.5;stroke:#ff8c00;stroke-opacity:0.5;" x="136.273138" xlink:href="#m1ef5af498f" y="61.413327"/>
     <use style="fill:#ff8c00;fill-opacity:0.5;stroke:#ff8c00;stroke-opacity:0.5;" x="139.586212" xlink:href="#m1ef5af498f" y="62.299374"/>
     <use style="fill:#ff8c00;fill-opacity:0.5;stroke:#ff8c00;stroke-opacity:0.5;" x="142.903342" xlink:href="#m1ef5af498f" y="62.486205"/>
     <use style="fill:#ff8c00;fill-opacity:0.5;stroke:#ff8c00;stroke-opacity:0.5;" x="146.217836" xlink:href="#m1ef5af498f" y="63.127515"/>
     <use style="fill:#ff8c00;fill-opacity:0.5;stroke:#ff8c00;stroke-opacity:0.5;" x="149.536384" xlink:href="#m1ef5af498f" y="63.069867"/>
     <use style="fill:#ff8c00;fill-opacity:0.5;stroke:#ff8c00;stroke-opacity:0.5;" x="152.845562" xlink:href="#m1ef5af498f" y="64.627583"/>
     <use style="fill:#ff8c00;fill-opacity:0.5;stroke:#ff8c00;stroke-opacity:0.5;" x="156.165501" xlink:href="#m1ef5af498f" y="64.33022"/>
     <use style="fill:#ff8c00;fill-opacity:0.5;stroke:#ff8c00;stroke-opacity:0.5;" x="159.482767" xlink:href="#m1ef5af498f" y="64.493517"/>
     <use style="fill:#ff8c00;fill-opacity:0.5;stroke:#ff8c00;stroke-opacity:0.5;" x="162.804085" xlink:href="#m1ef5af498f" y="63.958394"/>
     <use style="fill:#ff8c00;fill-opacity:0.5;stroke:#ff8c00;stroke-opacity:0.5;" x="166.122713" xlink:href="#m1ef5af498f" y="63.887041"/>
     <use style="fill:#ff8c00;fill-opacity:0.5;stroke:#ff8c00;stroke-opacity:0.5;" x="169.445391" xlink:href="#m1ef5af498f" y="63.117548"/>
     <use style="fill:#ff8c00;fill-opacity:0.5;stroke:#ff8c00;stroke-opacity:0.5;" x="172.76536" xlink:href="#m1ef5af498f" y="62.814945"/>
     <use style="fill:#ff8c00;fill-opacity:0.5;stroke:#ff8c00;stroke-opacity:0.5;" x="176.082604" xlink:href="#m1ef5af498f" y="62.982219"/>
     <use style="fill:#ff8c00;fill-opacity:0.5;stroke:#ff8c00;stroke-opacity:0.5;" x="179.403886" xlink:href="#m1ef5af498f" y="62.453211"/>
     <use style="fill:#ff8c00;fill-opacity:0.5;stroke:#ff8c00;stroke-opacity:0.5;" x="182.729216" xlink:href="#m1ef5af498f" y="61.226649"/>
     <use style="fill:#ff8c00;fill-opacity:0.5;stroke:#ff8c00;stroke-opacity:0.5;" x="186.045001" xlink:href="#m1ef5af498f" y="61.645254"/>
     <use style="fill:#ff8c00;fill-opacity:0.5;stroke:#ff8c00;stroke-opacity:0.5;" x="189.364815" xlink:href="#m1ef5af498f" y="61.36946"/>
     <use style="fill:#ff8c00;fill-opacity:0.5;stroke:#ff8c00;stroke-opacity:0.5;" x="192.681849" xlink:href="#m1ef5af498f" y="61.572844"/>
     <use style="fill:#ff8c00;fill-opacity:0.5;stroke:#ff8c00;stroke-opacity:0.5;" x="195.996086" xlink:href="#m1ef5af498f" y="62.258419"/>
     <use style="fill:#ff8c00;fill-opacity:0.5;stroke:#ff8c00;stroke-opacity:0.5;" x="199.31434" xlink:href="#m1ef5af498f" y="62.251505"/>
     <use style="fill:#ff8c00;fill-opacity:0.5;stroke:#ff8c00;stroke-opacity:0.5;" x="202.629778" xlink:href="#m1ef5af498f" y="62.729963"/>
     <use style="fill:#ff8c00;fill-opacity:0.5;stroke:#ff8c00;stroke-opacity:0.5;" x="205.949232" xlink:href="#m1ef5af498f" y="62.516271"/>
     <use style="fill:#ff8c00;fill-opacity:0.5;stroke:#ff8c00;stroke-opacity:0.5;" x="209.265851" xlink:href="#m1ef5af498f" y="62.791146"/>
     <use style="fill:#ff8c00;fill-opacity:0.5;stroke:#ff8c00;stroke-opacity:0.5;" x="212.579618" xlink:href="#m1ef5af498f" y="63.557619"/>
     <use style="fill:#ff8c00;fill-opacity:0.5;stroke:#ff8c00;stroke-opacity:0.5;" x="215.89739" xlink:href="#m1ef5af498f" y="63.633894"/>
     <use style="fill:#ff8c00;fill-opacity:0.5;stroke:#ff8c00;stroke-opacity:0.5;" x="219.219172" xlink:href="#m1ef5af498f" y="63.018718"/>
     <use style="fill:#ff8c00;fill-opacity:0.5;stroke:#ff8c00;stroke-opacity:0.5;" x="222.538083" xlink:href="#m1ef5af498f" y="62.898537"/>
     <use style="fill:#ff8c00;fill-opacity:0.5;stroke:#ff8c00;stroke-opacity:0.5;" x="225.867902" xlink:href="#m1ef5af498f" y="60.89813"/>
     <use style="fill:#ff8c00;fill-opacity:0.5;stroke:#ff8c00;stroke-opacity:0.5;" x="229.18794" xlink:href="#m1ef5af498f" y="60.583651"/>
     <use style="fill:#ff8c00;fill-opacity:0.5;stroke:#ff8c00;stroke-opacity:0.5;" x="232.50507" xlink:href="#m1ef5af498f" y="60.770457"/>
     <use style="fill:#ff8c00;fill-opacity:0.5;stroke:#ff8c00;stroke-opacity:0.5;" x="235.812351" xlink:href="#m1ef5af498f" y="62.655044"/>
     <use style="fill:#ff8c00;fill-opacity:0.5;stroke:#ff8c00;stroke-opacity:0.5;" x="239.130536" xlink:href="#m1ef5af498f" y="62.66016"/>
     <use style="fill:#ff8c00;fill-opacity:0.5;stroke:#ff8c00;stroke-opacity:0.5;" x="242.438835" xlink:href="#m1ef5af498f" y="64.369188"/>
     <use style="fill:#ff8c00;fill-opacity:0.5;stroke:#ff8c00;stroke-opacity:0.5;" x="245.758052" xlink:href="#m1ef5af498f" y="64.196275"/>
     <use style="fill:#ff8c00;fill-opacity:0.5;stroke:#ff8c00;stroke-opacity:0.5;" x="249.074306" xlink:href="#m1ef5af498f" y="64.534237"/>
     <use style="fill:#ff8c00;fill-opacity:0.5;stroke:#ff8c00;stroke-opacity:0.5;" x="252.394542" xlink:href="#m1ef5af498f" y="64.185533"/>
     <use style="fill:#ff8c00;fill-opacity:0.5;stroke:#ff8c00;stroke-opacity:0.5;" x="255.711796" xlink:href="#m1ef5af498f" y="64.35099"/>
     <use style="fill:#ff8c00;fill-opacity:0.5;stroke:#ff8c00;stroke-opacity:0.5;" x="259.033032" xlink:href="#m1ef5af498f" y="63.83019"/>
     <use style="fill:#ff8c00;fill-opacity:0.5;stroke:#ff8c00;stroke-opacity:0.5;" x="262.351265" xlink:href="#m1ef5af498f" y="63.82685"/>
     <use style="fill:#ff8c00;fill-opacity:0.5;stroke:#ff8c00;stroke-opacity:0.5;" x="265.680475" xlink:href="#m1ef5af498f" y="61.931273"/>
     <use style="fill:#ff8c00;fill-opacity:0.5;stroke:#ff8c00;stroke-opacity:0.5;" x="268.999674" xlink:href="#m1ef5af498f" y="61.761418"/>
     <use style="fill:#ff8c00;fill-opacity:0.5;stroke:#ff8c00;stroke-opacity:0.5;" x="272.315834" xlink:href="#m1ef5af498f" y="62.115437"/>
     <use style="fill:#ff8c00;fill-opacity:0.5;stroke:#ff8c00;stroke-opacity:0.5;" x="275.635961" xlink:href="#m1ef5af498f" y="61.785706"/>
     <use style="fill:#ff8c00;fill-opacity:0.5;stroke:#ff8c00;stroke-opacity:0.5;" x="278.953029" xlink:href="#m1ef5af498f" y="61.983179"/>
     <use style="fill:#ff8c00;fill-opacity:0.5;stroke:#ff8c00;stroke-opacity:0.5;" x="282.267021" xlink:href="#m1ef5af498f" y="62.710973"/>
     <use style="fill:#ff8c00;fill-opacity:0.5;stroke:#ff8c00;stroke-opacity:0.5;" x="285.584967" xlink:href="#m1ef5af498f" y="62.757134"/>
     <use style="fill:#ff8c00;fill-opacity:0.5;stroke:#ff8c00;stroke-opacity:0.5;" x="288.899818" xlink:href="#m1ef5af498f" y="63.336967"/>
     <use style="fill:#ff8c00;fill-opacity:0.5;stroke:#ff8c00;stroke-opacity:0.5;" x="292.218619" xlink:href="#m1ef5af498f" y="63.235627"/>
     <use style="fill:#ff8c00;fill-opacity:0.5;stroke:#ff8c00;stroke-opacity:0.5;" x="295.534306" xlink:href="#m1ef5af498f" y="63.671321"/>
     <use style="fill:#ff8c00;fill-opacity:0.5;stroke:#ff8c00;stroke-opacity:0.5;" x="298.853941" xlink:href="#m1ef5af498f" y="63.42631"/>
     <use style="fill:#ff8c00;fill-opacity:0.5;stroke:#ff8c00;stroke-opacity:0.5;" x="302.170441" xlink:href="#m1ef5af498f" y="63.721708"/>
     <use style="fill:#ff8c00;fill-opacity:0.5;stroke:#ff8c00;stroke-opacity:0.5;" x="305.490888" xlink:href="#m1ef5af498f" y="63.336878"/>
     <use style="fill:#ff8c00;fill-opacity:0.5;stroke:#ff8c00;stroke-opacity:0.5;" x="308.815287" xlink:href="#m1ef5af498f" y="62.270604"/>
     <use style="fill:#ff8c00;fill-opacity:0.5;stroke:#ff8c00;stroke-opacity:0.5;" x="312.129414" xlink:href="#m1ef5af498f" y="62.975066"/>
     <use style="fill:#ff8c00;fill-opacity:0.5;stroke:#ff8c00;stroke-opacity:0.5;" x="315.447475" xlink:href="#m1ef5af498f" y="63.001484"/>
     <use style="fill:#ff8c00;fill-opacity:0.5;stroke:#ff8c00;stroke-opacity:0.5;" x="318.762343" xlink:href="#m1ef5af498f" y="63.578259"/>
     <use style="fill:#ff8c00;fill-opacity:0.5;stroke:#ff8c00;stroke-opacity:0.5;" x="322.088283" xlink:href="#m1ef5af498f" y="62.246426"/>
     <use style="fill:#ff8c00;fill-opacity:0.5;stroke:#ff8c00;stroke-opacity:0.5;" x="325.403877" xlink:href="#m1ef5af498f" y="62.697978"/>
     <use style="fill:#ff8c00;fill-opacity:0.5;stroke:#ff8c00;stroke-opacity:0.5;" x="328.730557" xlink:href="#m1ef5af498f" y="61.238507"/>
     <use style="fill:#ff8c00;fill-opacity:0.5;stroke:#ff8c00;stroke-opacity:0.5;" x="332.046855" xlink:href="#m1ef5af498f" y="61.568774"/>
     <use style="fill:#ff8c00;fill-opacity:0.5;stroke:#ff8c00;stroke-opacity:0.5;" x="335.352727" xlink:href="#m1ef5af498f" y="63.696338"/>
     <use style="fill:#ff8c00;fill-opacity:0.5;stroke:#ff8c00;stroke-opacity:0.5;" x="338.66968" xlink:href="#m1ef5af498f" y="63.913663"/>
     <use style="fill:#ff8c00;fill-opacity:0.5;stroke:#ff8c00;stroke-opacity:0.5;" x="341.990555" xlink:href="#m1ef5af498f" y="63.454999"/>
     <use style="fill:#ff8c00;fill-opacity:0.5;stroke:#ff8c00;stroke-opacity:0.5;" x="345.308157" xlink:href="#m1ef5af498f" y="63.560445"/>
     <use style="fill:#ff8c00;fill-opacity:0.5;stroke:#ff8c00;stroke-opacity:0.5;" x="348.629678" xlink:href="#m1ef5af498f" y="62.990437"/>
     <use style="fill:#ff8c00;fill-opacity:0.5;stroke:#ff8c00;stroke-opacity:0.5;" x="351.947906" xlink:href="#m1ef5af498f" y="62.988008"/>
     <use style="fill:#ff8c00;fill-opacity:0.5;stroke:#ff8c00;stroke-opacity:0.5;" x="355.262822" xlink:href="#m1ef5af498f" y="63.556362"/>
     <use style="fill:#ff8c00;fill-opacity:0.5;stroke:#ff8c00;stroke-opacity:0.5;" x="358.596114" xlink:href="#m1ef5af498f" y="60.957219"/>
     <use style="fill:#ff8c00;fill-opacity:0.5;stroke:#ff8c00;stroke-opacity:0.5;" x="361.918865" xlink:href="#m1ef5af498f" y="60.175107"/>
     <use style="fill:#ff8c00;fill-opacity:0.5;stroke:#ff8c00;stroke-opacity:0.5;" x="365.238283" xlink:href="#m1ef5af498f" y="59.967549"/>
     <use style="fill:#ff8c00;fill-opacity:0.5;stroke:#ff8c00;stroke-opacity:0.5;" x="368.554349" xlink:href="#m1ef5af498f" y="60.337766"/>
     <use style="fill:#ff8c00;fill-opacity:0.5;stroke:#ff8c00;stroke-opacity:0.5;" x="371.867045" xlink:href="#m1ef5af498f" y="61.288984"/>
     <use style="fill:#ff8c00;fill-opacity:0.5;stroke:#ff8c00;stroke-opacity:0.5;" x="375.183629" xlink:href="#m1ef5af498f" y="61.569914"/>
     <use style="fill:#ff8c00;fill-opacity:0.5;stroke:#ff8c00;stroke-opacity:0.5;" x="378.496823" xlink:href="#m1ef5af498f" y="62.435365"/>
     <use style="fill:#ff8c00;fill-opacity:0.5;stroke:#ff8c00;stroke-opacity:0.5;" x="381.813901" xlink:href="#m1ef5af498f" y="62.631113"/>
     <use style="fill:#ff8c00;fill-opacity:0.5;stroke:#ff8c00;stroke-opacity:0.5;" x="385.120265" xlink:href="#m1ef5af498f" y="64.673847"/>
    </g>
   </g>
   <g id="line2d_34">
    <path clip-path="url(#pe7dfe85761)" d="M 83.181163 61.893827 
L 86.501662 61.952641 
L 89.819714 62.009576 
L 93.141872 62.064651 
L 96.454988 62.11789 
L 99.772194 62.169313 
L 103.086901 62.218941 
L 106.399095 62.266797 
L 109.715367 62.312901 
L 113.029108 62.357276 
L 116.346926 62.399942 
L 119.66883 62.440922 
L 122.988184 62.480235 
L 126.311622 62.517905 
L 129.632493 62.553953 
L 132.957446 62.588399 
L 136.273138 62.621265 
L 139.586212 62.652574 
L 142.903342 62.682346 
L 146.217836 62.710603 
L 149.536384 62.737366 
L 152.845562 62.762656 
L 156.165501 62.786496 
L 159.482767 62.808907 
L 162.804085 62.829909 
L 166.122713 62.849525 
L 169.445391 62.867777 
L 172.76536 62.884685 
L 176.082604 62.90027 
L 179.403886 62.914556 
L 182.729216 62.927562 
L 186.045001 62.93931 
L 189.364815 62.949823 
L 192.681849 62.959121 
L 195.996086 62.967225 
L 199.31434 62.974158 
L 202.629778 62.97994 
L 205.949232 62.984594 
L 209.265851 62.98814 
L 212.579618 62.990601 
L 215.89739 62.991997 
L 219.219172 62.99235 
L 222.538083 62.991681 
L 225.867902 62.990012 
L 229.18794 62.987365 
L 232.50507 62.983761 
L 235.812351 62.979221 
L 239.130536 62.973767 
L 242.438835 62.96742 
L 245.758052 62.960202 
L 249.074306 62.952135 
L 252.394542 62.943238 
L 255.711796 62.933536 
L 259.033032 62.923047 
L 262.351265 62.911795 
L 265.680475 62.8998 
L 268.999674 62.887085 
L 272.315834 62.873669 
L 275.635961 62.859576 
L 278.953029 62.844826 
L 282.267021 62.829441 
L 285.584967 62.813442 
L 288.899818 62.796852 
L 292.218619 62.77969 
L 295.534306 62.761979 
L 298.853941 62.74374 
L 302.170441 62.724995 
L 305.490888 62.705766 
L 308.815287 62.686072 
L 312.129414 62.665937 
L 315.447475 62.645381 
L 318.762343 62.624427 
L 322.088283 62.603094 
L 325.403877 62.581406 
L 328.730557 62.559383 
L 332.046855 62.537047 
L 335.352727 62.514419 
L 338.66968 62.491521 
L 341.990555 62.468374 
L 345.308157 62.445 
L 348.629678 62.42142 
L 351.947906 62.397656 
L 355.262822 62.373729 
L 358.596114 62.34966 
L 361.918865 62.325472 
L 365.238283 62.301185 
L 368.554349 62.276821 
L 371.867045 62.252401 
L 375.183629 62.227947 
L 378.496823 62.203481 
L 381.813901 62.179023 
L 385.120265 62.154596 
" style="fill:none;stroke:#ff8c00;stroke-dasharray:3.7,1.6;stroke-dashoffset:0;"/>
   </g>
   <g id="patch_5">
    <path d="M 67.4525 212.1625 
L 67.4525 45.8425 
" style="fill:none;stroke:#000000;stroke-linecap:square;stroke-linejoin:miter;stroke-width:0.8;"/>
   </g>
   <g id="patch_6">
    <path d="M 402.2525 212.1625 
L 402.2525 45.8425 
" style="fill:none;stroke:#000000;stroke-linecap:square;stroke-linejoin:miter;stroke-width:0.8;"/>
   </g>
   <g id="patch_7">
    <path d="M 67.4525 212.1625 
L 402.2525 212.1625 
" style="fill:none;stroke:#000000;stroke-linecap:square;stroke-linejoin:miter;stroke-width:0.8;"/>
   </g>
   <g id="patch_8">
    <path d="M 67.4525 45.8425 
L 402.2525 45.8425 
" style="fill:none;stroke:#000000;stroke-linecap:square;stroke-linejoin:miter;stroke-width:0.8;"/>
   </g>
   <g id="legend_1">
    <g id="patch_9">
     <path d="M 109.264525 206.6105 
L 360.440475 206.6105 
Q 362.661275 206.6105 362.661275 204.3897 
L 362.661275 166.020869 
Q 362.661275 163.800069 360.440475 163.800069 
L 109.264525 163.800069 
Q 107.043725 163.800069 107.043725 166.020869 
L 107.043725 204.3897 
Q 107.043725 206.6105 109.264525 206.6105 
z
" style="fill:#ffffff;stroke:#000000;stroke-linejoin:miter;"/>
    </g>
    <g id="line2d_35"/>
    <g id="line2d_36">
     <g>
      <use style="fill:#4169e1;fill-opacity:0.5;stroke:#4169e1;stroke-opacity:0.5;" x="122.589325" xlink:href="#m70814eee9c" y="172.792574"/>
     </g>
    </g>
    <g id="text_18">
     <!-- LP-CVD -->
     <defs>
      <path d="M 9.8125 72.90625 
L 19.671875 72.90625 
L 19.671875 8.296875 
L 55.171875 8.296875 
L 55.171875 0 
L 9.8125 0 
z
" id="DejaVuSans-76"/>
      <path d="M 19.671875 64.796875 
L 19.671875 37.40625 
L 32.078125 37.40625 
Q 38.96875 37.40625 42.71875 40.96875 
Q 46.484375 44.53125 46.484375 51.125 
Q 46.484375 57.671875 42.71875 61.234375 
Q 38.96875 64.796875 32.078125 64.796875 
z
M 9.8125 72.90625 
L 32.078125 72.90625 
Q 44.34375 72.90625 50.609375 67.359375 
Q 56.890625 61.8125 56.890625 51.125 
Q 56.890625 40.328125 50.609375 34.8125 
Q 44.34375 29.296875 32.078125 29.296875 
L 19.671875 29.296875 
L 19.671875 0 
L 9.8125 0 
z
" id="DejaVuSans-80"/>
      <path d="M 4.890625 31.390625 
L 31.203125 31.390625 
L 31.203125 23.390625 
L 4.890625 23.390625 
z
" id="DejaVuSans-45"/>
      <path d="M 64.40625 67.28125 
L 64.40625 56.890625 
Q 59.421875 61.53125 53.78125 63.8125 
Q 48.140625 66.109375 41.796875 66.109375 
Q 29.296875 66.109375 22.65625 58.46875 
Q 16.015625 50.828125 16.015625 36.375 
Q 16.015625 21.96875 22.65625 14.328125 
Q 29.296875 6.6875 41.796875 6.6875 
Q 48.140625 6.6875 53.78125 8.984375 
Q 59.421875 11.28125 64.40625 15.921875 
L 64.40625 5.609375 
Q 59.234375 2.09375 53.4375 0.328125 
Q 47.65625 -1.421875 41.21875 -1.421875 
Q 24.65625 -1.421875 15.125 8.703125 
Q 5.609375 18.84375 5.609375 36.375 
Q 5.609375 53.953125 15.125 64.078125 
Q 24.65625 74.21875 41.21875 74.21875 
Q 47.75 74.21875 53.53125 72.484375 
Q 59.328125 70.75 64.40625 67.28125 
z
" id="DejaVuSans-67"/>
      <path d="M 28.609375 0 
L 0.78125 72.90625 
L 11.078125 72.90625 
L 34.1875 11.53125 
L 57.328125 72.90625 
L 67.578125 72.90625 
L 39.796875 0 
z
" id="DejaVuSans-86"/>
      <path d="M 19.671875 64.796875 
L 19.671875 8.109375 
L 31.59375 8.109375 
Q 46.6875 8.109375 53.6875 14.9375 
Q 60.6875 21.78125 60.6875 36.53125 
Q 60.6875 51.171875 53.6875 57.984375 
Q 46.6875 64.796875 31.59375 64.796875 
z
M 9.8125 72.90625 
L 30.078125 72.90625 
Q 51.265625 72.90625 61.171875 64.09375 
Q 71.09375 55.28125 71.09375 36.53125 
Q 71.09375 17.671875 61.125 8.828125 
Q 51.171875 0 30.078125 0 
L 9.8125 0 
z
" id="DejaVuSans-68"/>
     </defs>
     <g transform="translate(142.576525 176.678974)scale(0.11104 -0.11104)">
      <use xlink:href="#DejaVuSans-76"/>
      <use x="55.712891" xlink:href="#DejaVuSans-80"/>
      <use x="115.984375" xlink:href="#DejaVuSans-45"/>
      <use x="152.068359" xlink:href="#DejaVuSans-67"/>
      <use x="221.892578" xlink:href="#DejaVuSans-86"/>
      <use x="290.300781" xlink:href="#DejaVuSans-68"/>
     </g>
    </g>
    <g id="line2d_37">
     <path d="M 111.485325 190.910832 
L 133.693325 190.910832 
" style="fill:none;stroke:#4169e1;stroke-dasharray:3.7,1.6;stroke-dashoffset:0;"/>
    </g>
    <g id="line2d_38"/>
    <g id="text_19">
     <!-- $D_2/2\pi$= -->
     <defs>
      <path d="M 10.59375 45.40625 
L 73.1875 45.40625 
L 73.1875 37.203125 
L 10.59375 37.203125 
z
M 10.59375 25.484375 
L 73.1875 25.484375 
L 73.1875 17.1875 
L 10.59375 17.1875 
z
" id="DejaVuSans-61"/>
     </defs>
     <g transform="translate(142.576525 187.425564)scale(0.11104 -0.11104)">
      <use transform="translate(0 0.78125)" xlink:href="#DejaVuSans-Oblique-68"/>
      <use transform="translate(77.001953 -15.625)scale(0.7)" xlink:href="#DejaVuSans-50"/>
      <use transform="translate(124.272461 0.78125)" xlink:href="#DejaVuSans-47"/>
      <use transform="translate(157.916992 0.78125)" xlink:href="#DejaVuSans-50"/>
      <use transform="translate(221.540039 0.78125)" xlink:href="#DejaVuSans-Oblique-960"/>
      <use transform="translate(281.745117 0.78125)" xlink:href="#DejaVuSans-61"/>
     </g>
     <!-- -0.36MHz -->
     <defs>
      <path d="M 10.6875 12.40625 
L 21 12.40625 
L 21 0 
L 10.6875 0 
z
" id="DejaVuSans-46"/>
      <path d="M 9.8125 72.90625 
L 24.515625 72.90625 
L 43.109375 23.296875 
L 61.8125 72.90625 
L 76.515625 72.90625 
L 76.515625 0 
L 66.890625 0 
L 66.890625 64.015625 
L 48.09375 14.015625 
L 38.1875 14.015625 
L 19.390625 64.015625 
L 19.390625 0 
L 9.8125 0 
z
" id="DejaVuSans-77"/>
     </defs>
     <g transform="translate(142.576525 199.859615)scale(0.11104 -0.11104)">
      <use xlink:href="#DejaVuSans-45"/>
      <use x="36.083984" xlink:href="#DejaVuSans-48"/>
      <use x="99.707031" xlink:href="#DejaVuSans-46"/>
      <use x="131.494141" xlink:href="#DejaVuSans-51"/>
      <use x="195.117188" xlink:href="#DejaVuSans-54"/>
      <use x="258.740234" xlink:href="#DejaVuSans-77"/>
      <use x="345.019531" xlink:href="#DejaVuSans-72"/>
      <use x="420.214844" xlink:href="#DejaVuSans-122"/>
     </g>
    </g>
    <g id="line2d_39"/>
    <g id="line2d_40">
     <g>
      <use style="fill:#228b22;fill-opacity:0.5;stroke:#228b22;stroke-opacity:0.5;" x="206.16948" xlink:href="#m9c11bf3f6d" y="172.792574"/>
     </g>
    </g>
    <g id="text_20">
     <!-- PE-CVD -->
     <defs>
      <path d="M 9.8125 72.90625 
L 55.90625 72.90625 
L 55.90625 64.59375 
L 19.671875 64.59375 
L 19.671875 43.015625 
L 54.390625 43.015625 
L 54.390625 34.71875 
L 19.671875 34.71875 
L 19.671875 8.296875 
L 56.78125 8.296875 
L 56.78125 0 
L 9.8125 0 
z
" id="DejaVuSans-69"/>
     </defs>
     <g transform="translate(226.15668 176.678974)scale(0.11104 -0.11104)">
      <use xlink:href="#DejaVuSans-80"/>
      <use x="60.302734" xlink:href="#DejaVuSans-69"/>
      <use x="123.486328" xlink:href="#DejaVuSans-45"/>
      <use x="159.570312" xlink:href="#DejaVuSans-67"/>
      <use x="229.394531" xlink:href="#DejaVuSans-86"/>
      <use x="297.802734" xlink:href="#DejaVuSans-68"/>
     </g>
    </g>
    <g id="line2d_41">
     <path d="M 195.06548 190.910832 
L 217.27348 190.910832 
" style="fill:none;stroke:#228b22;stroke-dasharray:3.7,1.6;stroke-dashoffset:0;"/>
    </g>
    <g id="line2d_42"/>
    <g id="text_21">
     <!-- $D_2/2\pi$= -->
     <g transform="translate(226.15668 187.425564)scale(0.11104 -0.11104)">
      <use transform="translate(0 0.78125)" xlink:href="#DejaVuSans-Oblique-68"/>
      <use transform="translate(77.001953 -15.625)scale(0.7)" xlink:href="#DejaVuSans-50"/>
      <use transform="translate(124.272461 0.78125)" xlink:href="#DejaVuSans-47"/>
      <use transform="translate(157.916992 0.78125)" xlink:href="#DejaVuSans-50"/>
      <use transform="translate(221.540039 0.78125)" xlink:href="#DejaVuSans-Oblique-960"/>
      <use transform="translate(281.745117 0.78125)" xlink:href="#DejaVuSans-61"/>
     </g>
     <!-- -6.80MHz -->
     <g transform="translate(226.15668 199.859615)scale(0.11104 -0.11104)">
      <use xlink:href="#DejaVuSans-45"/>
      <use x="36.083984" xlink:href="#DejaVuSans-54"/>
      <use x="99.707031" xlink:href="#DejaVuSans-46"/>
      <use x="131.494141" xlink:href="#DejaVuSans-56"/>
      <use x="195.117188" xlink:href="#DejaVuSans-48"/>
      <use x="258.740234" xlink:href="#DejaVuSans-77"/>
      <use x="345.019531" xlink:href="#DejaVuSans-72"/>
      <use x="420.214844" xlink:href="#DejaVuSans-122"/>
     </g>
    </g>
    <g id="line2d_43"/>
    <g id="line2d_44">
     <g>
      <use style="fill:#ff8c00;fill-opacity:0.5;stroke:#ff8c00;stroke-opacity:0.5;" x="289.749635" xlink:href="#m1ef5af498f" y="172.792574"/>
     </g>
    </g>
    <g id="text_22">
     <!-- LS-CVD -->
     <defs>
      <path d="M 53.515625 70.515625 
L 53.515625 60.890625 
Q 47.90625 63.578125 42.921875 64.890625 
Q 37.9375 66.21875 33.296875 66.21875 
Q 25.25 66.21875 20.875 63.09375 
Q 16.5 59.96875 16.5 54.203125 
Q 16.5 49.359375 19.40625 46.890625 
Q 22.3125 44.4375 30.421875 42.921875 
L 36.375 41.703125 
Q 47.40625 39.59375 52.65625 34.296875 
Q 57.90625 29 57.90625 20.125 
Q 57.90625 9.515625 50.796875 4.046875 
Q 43.703125 -1.421875 29.984375 -1.421875 
Q 24.8125 -1.421875 18.96875 -0.25 
Q 13.140625 0.921875 6.890625 3.21875 
L 6.890625 13.375 
Q 12.890625 10.015625 18.65625 8.296875 
Q 24.421875 6.59375 29.984375 6.59375 
Q 38.421875 6.59375 43.015625 9.90625 
Q 47.609375 13.234375 47.609375 19.390625 
Q 47.609375 24.75 44.3125 27.78125 
Q 41.015625 30.8125 33.5 32.328125 
L 27.484375 33.5 
Q 16.453125 35.6875 11.515625 40.375 
Q 6.59375 45.0625 6.59375 53.421875 
Q 6.59375 63.09375 13.40625 68.65625 
Q 20.21875 74.21875 32.171875 74.21875 
Q 37.3125 74.21875 42.625 73.28125 
Q 47.953125 72.359375 53.515625 70.515625 
z
" id="DejaVuSans-83"/>
     </defs>
     <g transform="translate(309.736835 176.678974)scale(0.11104 -0.11104)">
      <use xlink:href="#DejaVuSans-76"/>
      <use x="55.712891" xlink:href="#DejaVuSans-83"/>
      <use x="119.189453" xlink:href="#DejaVuSans-45"/>
      <use x="155.273438" xlink:href="#DejaVuSans-67"/>
      <use x="225.097656" xlink:href="#DejaVuSans-86"/>
      <use x="293.505859" xlink:href="#DejaVuSans-68"/>
     </g>
    </g>
    <g id="line2d_45">
     <path d="M 278.645635 190.910832 
L 300.853635 190.910832 
" style="fill:none;stroke:#ff8c00;stroke-dasharray:3.7,1.6;stroke-dashoffset:0;"/>
    </g>
    <g id="line2d_46"/>
    <g id="text_23">
     <!-- $D_2/2\pi$= -->
     <g transform="translate(309.736835 187.425564)scale(0.11104 -0.11104)">
      <use transform="translate(0 0.78125)" xlink:href="#DejaVuSans-Oblique-68"/>
      <use transform="translate(77.001953 -15.625)scale(0.7)" xlink:href="#DejaVuSans-50"/>
      <use transform="translate(124.272461 0.78125)" xlink:href="#DejaVuSans-47"/>
      <use transform="translate(157.916992 0.78125)" xlink:href="#DejaVuSans-50"/>
      <use transform="translate(221.540039 0.78125)" xlink:href="#DejaVuSans-Oblique-960"/>
      <use transform="translate(281.745117 0.78125)" xlink:href="#DejaVuSans-61"/>
     </g>
     <!-- 0.09MHz -->
     <g transform="translate(309.736835 199.859615)scale(0.11104 -0.11104)">
      <use xlink:href="#DejaVuSans-48"/>
      <use x="63.623047" xlink:href="#DejaVuSans-46"/>
      <use x="95.410156" xlink:href="#DejaVuSans-48"/>
      <use x="159.033203" xlink:href="#DejaVuSans-57"/>
      <use x="222.65625" xlink:href="#DejaVuSans-77"/>
      <use x="308.935547" xlink:href="#DejaVuSans-72"/>
      <use x="384.130859" xlink:href="#DejaVuSans-122"/>
     </g>
    </g>
   </g>
  </g>
 </g>
 <defs>
  <clipPath id="p65ede787ca">
   <rect height="0" width="334.8" x="67.4525" y="45.8425"/>
  </clipPath>
  <clipPath id="pe7dfe85761">
   <rect height="166.32" width="334.8" x="67.4525" y="45.8425"/>
  </clipPath>
 </defs>
</svg>
