<?xml version="1.0" encoding="UTF-8" standalone="no"?>
<!-- Created with matplotlib (https://matplotlib.org/) -->

<svg
   xmlns:dc="http://purl.org/dc/elements/1.1/"
   xmlns:cc="http://creativecommons.org/ns#"
   xmlns:rdf="http://www.w3.org/1999/02/22-rdf-syntax-ns#"
   xmlns:svg="http://www.w3.org/2000/svg"
   xmlns="http://www.w3.org/2000/svg"
   xmlns:xlink="http://www.w3.org/1999/xlink"
   xmlns:sodipodi="http://sodipodi.sourceforge.net/DTD/sodipodi-0.dtd"
   xmlns:inkscape="http://www.inkscape.org/namespaces/inkscape"
   height="282.65125pt"
   version="1.1"
   viewBox="0 0 421.49 282.65125"
   width="421.49pt"
   id="svg577"
   sodipodi:docname="ellipso.svg"
   inkscape:version="0.92.4 (5da689c313, 2019-01-14)">
  <metadata
     id="metadata581">
    <rdf:RDF>
      <cc:Work
         rdf:about="">
        <dc:format>image/svg+xml</dc:format>
        <dc:type
           rdf:resource="http://purl.org/dc/dcmitype/StillImage" />
        <dc:title></dc:title>
      </cc:Work>
    </rdf:RDF>
  </metadata>
  <sodipodi:namedview
     pagecolor="#ffffff"
     bordercolor="#666666"
     borderopacity="1"
     objecttolerance="10"
     gridtolerance="10"
     guidetolerance="10"
     inkscape:pageopacity="0"
     inkscape:pageshadow="2"
     inkscape:window-width="1920"
     inkscape:window-height="1057"
     id="namedview579"
     showgrid="false"
     inkscape:zoom="2.2918694"
     inkscape:cx="280.99333"
     inkscape:cy="188.43416"
     inkscape:window-x="-8"
     inkscape:window-y="-8"
     inkscape:window-maximized="1"
     inkscape:current-layer="matplotlib.axis_4" />
  <defs
     id="defs4">
    <style
       type="text/css"
       id="style2">
*{stroke-linecap:butt;stroke-linejoin:round;}
  </style>
  </defs>
  <g
     id="figure_1">
    <g
       id="patch_1">
      <path
         d="M 0 282.65125  L 421.49 282.65125  L 421.49 0  L 0 0  z "
         style="fill:none;"
         id="path6" />
    </g>
    <g
       id="axes_1">
      <g
         id="patch_2">
        <path
           d="M 79.49 124.76125  L 414.29 124.76125  L 414.29 16.04125  L 79.49 16.04125  z "
           style="fill:none;"
           id="path9" />
      </g>
      <g
         id="matplotlib.axis_1">
        <g
           id="xtick_1">
          <g
             id="line2d_1">
            <path
               clip-path="url(#pc77b9c6652)"
               d="M 139.022113 124.76125  L 139.022113 16.04125  "
               style="fill:none;stroke:#b0b0b0;stroke-dasharray:0.8,1.32;stroke-dashoffset:0;stroke-width:0.8;"
               id="path12" />
          </g>
          <g
             id="line2d_2">
            <defs
               id="defs16">
              <path
                 d="M 0 0  L 0 3.5  "
                 id="m4ce872b70f"
                 style="stroke:#000000;stroke-width:0.8;" />
            </defs>
            <g
               id="g20">
              <use
                 style="stroke:#000000;stroke-width:0.8;"
                 x="139.022113"
                 xlink:href="#m4ce872b70f"
                 y="124.76125"
                 id="use18" />
            </g>
          </g>
        </g>
        <g
           id="xtick_2">
          <g
             id="line2d_3">
            <path
               clip-path="url(#pc77b9c6652)"
               d="M 212.682238 124.76125  L 212.682238 16.04125  "
               style="fill:none;stroke:#b0b0b0;stroke-dasharray:0.8,1.32;stroke-dashoffset:0;stroke-width:0.8;"
               id="path24" />
          </g>
          <g
             id="line2d_4">
            <g
               id="g29">
              <use
                 style="stroke:#000000;stroke-width:0.8;"
                 x="212.682238"
                 xlink:href="#m4ce872b70f"
                 y="124.76125"
                 id="use27" />
            </g>
          </g>
        </g>
        <g
           id="xtick_3">
          <g
             id="line2d_5">
            <path
               clip-path="url(#pc77b9c6652)"
               d="M 286.342363 124.76125  L 286.342363 16.04125  "
               style="fill:none;stroke:#b0b0b0;stroke-dasharray:0.8,1.32;stroke-dashoffset:0;stroke-width:0.8;"
               id="path33" />
          </g>
          <g
             id="line2d_6">
            <g
               id="g38">
              <use
                 style="stroke:#000000;stroke-width:0.8;"
                 x="286.342363"
                 xlink:href="#m4ce872b70f"
                 y="124.76125"
                 id="use36" />
            </g>
          </g>
        </g>
        <g
           id="xtick_4">
          <g
             id="line2d_7">
            <path
               clip-path="url(#pc77b9c6652)"
               d="M 360.002488 124.76125  L 360.002488 16.04125  "
               style="fill:none;stroke:#b0b0b0;stroke-dasharray:0.8,1.32;stroke-dashoffset:0;stroke-width:0.8;"
               id="path42" />
          </g>
          <g
             id="line2d_8">
            <g
               id="g47">
              <use
                 style="stroke:#000000;stroke-width:0.8;"
                 x="360.002488"
                 xlink:href="#m4ce872b70f"
                 y="124.76125"
                 id="use45" />
            </g>
          </g>
        </g>
      </g>
      <g
         id="matplotlib.axis_2">
        <g
           id="ytick_1">
          <g
             id="line2d_9">
            <path
               clip-path="url(#pc77b9c6652)"
               d="M 79.49 119.154448  L 414.29 119.154448  "
               style="fill:none;stroke:#b0b0b0;stroke-dasharray:0.8,1.32;stroke-dashoffset:0;stroke-width:0.8;"
               id="path52" />
          </g>
          <g
             id="line2d_10">
            <defs
               id="defs56">
              <path
                 d="M 0 0  L -3.5 0  "
                 id="m0393cb941d"
                 style="stroke:#000000;stroke-width:0.8;" />
            </defs>
            <g
               id="g60">
              <use
                 style="stroke:#000000;stroke-width:0.8;"
                 x="79.49"
                 xlink:href="#m0393cb941d"
                 y="119.154448"
                 id="use58" />
            </g>
          </g>
          <g
             id="text_1">
            <!-- 1.950 -->
            <defs
               id="defs68">
              <path
                 d="M 12.40625 8.296875  L 28.515625 8.296875  L 28.515625 63.921875  L 10.984375 60.40625  L 10.984375 69.390625  L 28.421875 72.90625  L 38.28125 72.90625  L 38.28125 8.296875  L 54.390625 8.296875  L 54.390625 0  L 12.40625 0  z "
                 id="DejaVuSans-49" />
              <path
                 d="M 10.6875 12.40625  L 21 12.40625  L 21 0  L 10.6875 0  z "
                 id="DejaVuSans-46" />
              <path
                 d="M 10.984375 1.515625  L 10.984375 10.5  Q 14.703125 8.734375 18.5 7.8125  Q 22.3125 6.890625 25.984375 6.890625  Q 35.75 6.890625 40.890625 13.453125  Q 46.046875 20.015625 46.78125 33.40625  Q 43.953125 29.203125 39.59375 26.953125  Q 35.25 24.703125 29.984375 24.703125  Q 19.046875 24.703125 12.671875 31.3125  Q 6.296875 37.9375 6.296875 49.421875  Q 6.296875 60.640625 12.9375 67.421875  Q 19.578125 74.21875 30.609375 74.21875  Q 43.265625 74.21875 49.921875 64.515625  Q 56.59375 54.828125 56.59375 36.375  Q 56.59375 19.140625 48.40625 8.859375  Q 40.234375 -1.421875 26.421875 -1.421875  Q 22.703125 -1.421875 18.890625 -0.6875  Q 15.09375 0.046875 10.984375 1.515625  z M 30.609375 32.421875  Q 37.25 32.421875 41.125 36.953125  Q 45.015625 41.5 45.015625 49.421875  Q 45.015625 57.28125 41.125 61.84375  Q 37.25 66.40625 30.609375 66.40625  Q 23.96875 66.40625 20.09375 61.84375  Q 16.21875 57.28125 16.21875 49.421875  Q 16.21875 41.5 20.09375 36.953125  Q 23.96875 32.421875 30.609375 32.421875  z "
                 id="DejaVuSans-57" />
              <path
                 d="M 10.796875 72.90625  L 49.515625 72.90625  L 49.515625 64.59375  L 19.828125 64.59375  L 19.828125 46.734375  Q 21.96875 47.46875 24.109375 47.828125  Q 26.265625 48.1875 28.421875 48.1875  Q 40.625 48.1875 47.75 41.5  Q 54.890625 34.8125 54.890625 23.390625  Q 54.890625 11.625 47.5625 5.09375  Q 40.234375 -1.421875 26.90625 -1.421875  Q 22.3125 -1.421875 17.546875 -0.640625  Q 12.796875 0.140625 7.71875 1.703125  L 7.71875 11.625  Q 12.109375 9.234375 16.796875 8.0625  Q 21.484375 6.890625 26.703125 6.890625  Q 35.15625 6.890625 40.078125 11.328125  Q 45.015625 15.765625 45.015625 23.390625  Q 45.015625 31 40.078125 35.4375  Q 35.15625 39.890625 26.703125 39.890625  Q 22.75 39.890625 18.8125 39.015625  Q 14.890625 38.140625 10.796875 36.28125  z "
                 id="DejaVuSans-53" />
              <path
                 d="M 31.78125 66.40625  Q 24.171875 66.40625 20.328125 58.90625  Q 16.5 51.421875 16.5 36.375  Q 16.5 21.390625 20.328125 13.890625  Q 24.171875 6.390625 31.78125 6.390625  Q 39.453125 6.390625 43.28125 13.890625  Q 47.125 21.390625 47.125 36.375  Q 47.125 51.421875 43.28125 58.90625  Q 39.453125 66.40625 31.78125 66.40625  z M 31.78125 74.21875  Q 44.046875 74.21875 50.515625 64.515625  Q 56.984375 54.828125 56.984375 36.375  Q 56.984375 17.96875 50.515625 8.265625  Q 44.046875 -1.421875 31.78125 -1.421875  Q 19.53125 -1.421875 13.0625 8.265625  Q 6.59375 17.96875 6.59375 36.375  Q 6.59375 54.828125 13.0625 64.515625  Q 19.53125 74.21875 31.78125 74.21875  z "
                 id="DejaVuSans-48" />
            </defs>
            <g
               transform="translate(26.685 125.233198)scale(0.16 -0.16)"
               id="g80">
              <use
                 xlink:href="#DejaVuSans-49"
                 id="use70" />
              <use
                 x="63.623047"
                 xlink:href="#DejaVuSans-46"
                 id="use72" />
              <use
                 x="95.410156"
                 xlink:href="#DejaVuSans-57"
                 id="use74" />
              <use
                 x="159.033203"
                 xlink:href="#DejaVuSans-53"
                 id="use76" />
              <use
                 x="222.65625"
                 xlink:href="#DejaVuSans-48"
                 id="use78" />
            </g>
          </g>
        </g>
        <g
           id="ytick_2">
          <g
             id="line2d_11">
            <path
               clip-path="url(#pc77b9c6652)"
               d="M 79.49 74.740516  L 414.29 74.740516  "
               style="fill:none;stroke:#b0b0b0;stroke-dasharray:0.8,1.32;stroke-dashoffset:0;stroke-width:0.8;"
               id="path84" />
          </g>
          <g
             id="line2d_12">
            <g
               id="g89">
              <use
                 style="stroke:#000000;stroke-width:0.8;"
                 x="79.49"
                 xlink:href="#m0393cb941d"
                 y="74.740516"
                 id="use87" />
            </g>
          </g>
          <g
             id="text_2">
            <!-- 1.975 -->
            <defs
               id="defs93">
              <path
                 d="M 8.203125 72.90625  L 55.078125 72.90625  L 55.078125 68.703125  L 28.609375 0  L 18.3125 0  L 43.21875 64.59375  L 8.203125 64.59375  z "
                 id="DejaVuSans-55" />
            </defs>
            <g
               transform="translate(26.685 80.819266)scale(0.16 -0.16)"
               id="g105">
              <use
                 xlink:href="#DejaVuSans-49"
                 id="use95" />
              <use
                 x="63.623047"
                 xlink:href="#DejaVuSans-46"
                 id="use97" />
              <use
                 x="95.410156"
                 xlink:href="#DejaVuSans-57"
                 id="use99" />
              <use
                 x="159.033203"
                 xlink:href="#DejaVuSans-55"
                 id="use101" />
              <use
                 x="222.65625"
                 xlink:href="#DejaVuSans-53"
                 id="use103" />
            </g>
          </g>
        </g>
        <g
           id="ytick_3">
          <g
             id="line2d_13">
            <path
               clip-path="url(#pc77b9c6652)"
               d="M 79.49 30.326583  L 414.29 30.326583  "
               style="fill:none;stroke:#b0b0b0;stroke-dasharray:0.8,1.32;stroke-dashoffset:0;stroke-width:0.8;"
               id="path109" />
          </g>
          <g
             id="line2d_14">
            <g
               id="g114">
              <use
                 style="stroke:#000000;stroke-width:0.8;"
                 x="79.49"
                 xlink:href="#m0393cb941d"
                 y="30.326583"
                 id="use112" />
            </g>
          </g>
          <g
             id="text_3">
            <!-- 2.000 -->
            <defs
               id="defs118">
              <path
                 d="M 19.1875 8.296875  L 53.609375 8.296875  L 53.609375 0  L 7.328125 0  L 7.328125 8.296875  Q 12.9375 14.109375 22.625 23.890625  Q 32.328125 33.6875 34.8125 36.53125  Q 39.546875 41.84375 41.421875 45.53125  Q 43.3125 49.21875 43.3125 52.78125  Q 43.3125 58.59375 39.234375 62.25  Q 35.15625 65.921875 28.609375 65.921875  Q 23.96875 65.921875 18.8125 64.3125  Q 13.671875 62.703125 7.8125 59.421875  L 7.8125 69.390625  Q 13.765625 71.78125 18.9375 73  Q 24.125 74.21875 28.421875 74.21875  Q 39.75 74.21875 46.484375 68.546875  Q 53.21875 62.890625 53.21875 53.421875  Q 53.21875 48.921875 51.53125 44.890625  Q 49.859375 40.875 45.40625 35.40625  Q 44.1875 33.984375 37.640625 27.21875  Q 31.109375 20.453125 19.1875 8.296875  z "
                 id="DejaVuSans-50" />
            </defs>
            <g
               transform="translate(26.685 36.405333)scale(0.16 -0.16)"
               id="g130">
              <use
                 xlink:href="#DejaVuSans-50"
                 id="use120" />
              <use
                 x="63.623047"
                 xlink:href="#DejaVuSans-46"
                 id="use122" />
              <use
                 x="95.410156"
                 xlink:href="#DejaVuSans-48"
                 id="use124" />
              <use
                 x="159.033203"
                 xlink:href="#DejaVuSans-48"
                 id="use126" />
              <use
                 x="222.65625"
                 xlink:href="#DejaVuSans-48"
                 id="use128" />
            </g>
          </g>
        </g>
        <g
           id="text_4">
          <!-- refractive index -->
          <defs
             id="defs146">
            <path
               d="M 41.109375 46.296875  Q 39.59375 47.171875 37.8125 47.578125  Q 36.03125 48 33.890625 48  Q 26.265625 48 22.1875 43.046875  Q 18.109375 38.09375 18.109375 28.8125  L 18.109375 0  L 9.078125 0  L 9.078125 54.6875  L 18.109375 54.6875  L 18.109375 46.1875  Q 20.953125 51.171875 25.484375 53.578125  Q 30.03125 56 36.53125 56  Q 37.453125 56 38.578125 55.875  Q 39.703125 55.765625 41.0625 55.515625  z "
               id="DejaVuSans-114" />
            <path
               d="M 56.203125 29.59375  L 56.203125 25.203125  L 14.890625 25.203125  Q 15.484375 15.921875 20.484375 11.0625  Q 25.484375 6.203125 34.421875 6.203125  Q 39.59375 6.203125 44.453125 7.46875  Q 49.3125 8.734375 54.109375 11.28125  L 54.109375 2.78125  Q 49.265625 0.734375 44.1875 -0.34375  Q 39.109375 -1.421875 33.890625 -1.421875  Q 20.796875 -1.421875 13.15625 6.1875  Q 5.515625 13.8125 5.515625 26.8125  Q 5.515625 40.234375 12.765625 48.109375  Q 20.015625 56 32.328125 56  Q 43.359375 56 49.78125 48.890625  Q 56.203125 41.796875 56.203125 29.59375  z M 47.21875 32.234375  Q 47.125 39.59375 43.09375 43.984375  Q 39.0625 48.390625 32.421875 48.390625  Q 24.90625 48.390625 20.390625 44.140625  Q 15.875 39.890625 15.1875 32.171875  z "
               id="DejaVuSans-101" />
            <path
               d="M 37.109375 75.984375  L 37.109375 68.5  L 28.515625 68.5  Q 23.6875 68.5 21.796875 66.546875  Q 19.921875 64.59375 19.921875 59.515625  L 19.921875 54.6875  L 34.71875 54.6875  L 34.71875 47.703125  L 19.921875 47.703125  L 19.921875 0  L 10.890625 0  L 10.890625 47.703125  L 2.296875 47.703125  L 2.296875 54.6875  L 10.890625 54.6875  L 10.890625 58.5  Q 10.890625 67.625 15.140625 71.796875  Q 19.390625 75.984375 28.609375 75.984375  z "
               id="DejaVuSans-102" />
            <path
               d="M 34.28125 27.484375  Q 23.390625 27.484375 19.1875 25  Q 14.984375 22.515625 14.984375 16.5  Q 14.984375 11.71875 18.140625 8.90625  Q 21.296875 6.109375 26.703125 6.109375  Q 34.1875 6.109375 38.703125 11.40625  Q 43.21875 16.703125 43.21875 25.484375  L 43.21875 27.484375  z M 52.203125 31.203125  L 52.203125 0  L 43.21875 0  L 43.21875 8.296875  Q 40.140625 3.328125 35.546875 0.953125  Q 30.953125 -1.421875 24.3125 -1.421875  Q 15.921875 -1.421875 10.953125 3.296875  Q 6 8.015625 6 15.921875  Q 6 25.140625 12.171875 29.828125  Q 18.359375 34.515625 30.609375 34.515625  L 43.21875 34.515625  L 43.21875 35.40625  Q 43.21875 41.609375 39.140625 45  Q 35.0625 48.390625 27.6875 48.390625  Q 23 48.390625 18.546875 47.265625  Q 14.109375 46.140625 10.015625 43.890625  L 10.015625 52.203125  Q 14.9375 54.109375 19.578125 55.046875  Q 24.21875 56 28.609375 56  Q 40.484375 56 46.34375 49.84375  Q 52.203125 43.703125 52.203125 31.203125  z "
               id="DejaVuSans-97" />
            <path
               d="M 48.78125 52.59375  L 48.78125 44.1875  Q 44.96875 46.296875 41.140625 47.34375  Q 37.3125 48.390625 33.40625 48.390625  Q 24.65625 48.390625 19.8125 42.84375  Q 14.984375 37.3125 14.984375 27.296875  Q 14.984375 17.28125 19.8125 11.734375  Q 24.65625 6.203125 33.40625 6.203125  Q 37.3125 6.203125 41.140625 7.25  Q 44.96875 8.296875 48.78125 10.40625  L 48.78125 2.09375  Q 45.015625 0.34375 40.984375 -0.53125  Q 36.96875 -1.421875 32.421875 -1.421875  Q 20.0625 -1.421875 12.78125 6.34375  Q 5.515625 14.109375 5.515625 27.296875  Q 5.515625 40.671875 12.859375 48.328125  Q 20.21875 56 33.015625 56  Q 37.15625 56 41.109375 55.140625  Q 45.0625 54.296875 48.78125 52.59375  z "
               id="DejaVuSans-99" />
            <path
               d="M 18.3125 70.21875  L 18.3125 54.6875  L 36.8125 54.6875  L 36.8125 47.703125  L 18.3125 47.703125  L 18.3125 18.015625  Q 18.3125 11.328125 20.140625 9.421875  Q 21.96875 7.515625 27.59375 7.515625  L 36.8125 7.515625  L 36.8125 0  L 27.59375 0  Q 17.1875 0 13.234375 3.875  Q 9.28125 7.765625 9.28125 18.015625  L 9.28125 47.703125  L 2.6875 47.703125  L 2.6875 54.6875  L 9.28125 54.6875  L 9.28125 70.21875  z "
               id="DejaVuSans-116" />
            <path
               d="M 9.421875 54.6875  L 18.40625 54.6875  L 18.40625 0  L 9.421875 0  z M 9.421875 75.984375  L 18.40625 75.984375  L 18.40625 64.59375  L 9.421875 64.59375  z "
               id="DejaVuSans-105" />
            <path
               d="M 2.984375 54.6875  L 12.5 54.6875  L 29.59375 8.796875  L 46.6875 54.6875  L 56.203125 54.6875  L 35.6875 0  L 23.484375 0  z "
               id="DejaVuSans-118" />
            <path
               id="DejaVuSans-32" />
            <path
               d="M 54.890625 33.015625  L 54.890625 0  L 45.90625 0  L 45.90625 32.71875  Q 45.90625 40.484375 42.875 44.328125  Q 39.84375 48.1875 33.796875 48.1875  Q 26.515625 48.1875 22.3125 43.546875  Q 18.109375 38.921875 18.109375 30.90625  L 18.109375 0  L 9.078125 0  L 9.078125 54.6875  L 18.109375 54.6875  L 18.109375 46.1875  Q 21.34375 51.125 25.703125 53.5625  Q 30.078125 56 35.796875 56  Q 45.21875 56 50.046875 50.171875  Q 54.890625 44.34375 54.890625 33.015625  z "
               id="DejaVuSans-110" />
            <path
               d="M 45.40625 46.390625  L 45.40625 75.984375  L 54.390625 75.984375  L 54.390625 0  L 45.40625 0  L 45.40625 8.203125  Q 42.578125 3.328125 38.25 0.953125  Q 33.9375 -1.421875 27.875 -1.421875  Q 17.96875 -1.421875 11.734375 6.484375  Q 5.515625 14.40625 5.515625 27.296875  Q 5.515625 40.1875 11.734375 48.09375  Q 17.96875 56 27.875 56  Q 33.9375 56 38.25 53.625  Q 42.578125 51.265625 45.40625 46.390625  z M 14.796875 27.296875  Q 14.796875 17.390625 18.875 11.75  Q 22.953125 6.109375 30.078125 6.109375  Q 37.203125 6.109375 41.296875 11.75  Q 45.40625 17.390625 45.40625 27.296875  Q 45.40625 37.203125 41.296875 42.84375  Q 37.203125 48.484375 30.078125 48.484375  Q 22.953125 48.484375 18.875 42.84375  Q 14.796875 37.203125 14.796875 27.296875  z "
               id="DejaVuSans-100" />
            <path
               d="M 54.890625 54.6875  L 35.109375 28.078125  L 55.90625 0  L 45.3125 0  L 29.390625 21.484375  L 13.484375 0  L 2.875 0  L 24.125 28.609375  L 4.6875 54.6875  L 15.28125 54.6875  L 29.78125 35.203125  L 44.28125 54.6875  z "
               id="DejaVuSans-120" />
          </defs>
          <g
             transform="translate(19.3575 133.6025)rotate(-90)scale(0.16 -0.16)"
             id="g180">
            <use
               xlink:href="#DejaVuSans-114"
               id="use148" />
            <use
               x="41.082031"
               xlink:href="#DejaVuSans-101"
               id="use150" />
            <use
               x="102.605469"
               xlink:href="#DejaVuSans-102"
               id="use152" />
            <use
               x="137.810547"
               xlink:href="#DejaVuSans-114"
               id="use154" />
            <use
               x="178.923828"
               xlink:href="#DejaVuSans-97"
               id="use156" />
            <use
               x="240.203125"
               xlink:href="#DejaVuSans-99"
               id="use158" />
            <use
               x="295.183594"
               xlink:href="#DejaVuSans-116"
               id="use160" />
            <use
               x="334.392578"
               xlink:href="#DejaVuSans-105"
               id="use162" />
            <use
               x="362.175781"
               xlink:href="#DejaVuSans-118"
               id="use164" />
            <use
               x="421.355469"
               xlink:href="#DejaVuSans-101"
               id="use166" />
            <use
               x="482.878906"
               xlink:href="#DejaVuSans-32"
               id="use168" />
            <use
               x="514.666016"
               xlink:href="#DejaVuSans-105"
               id="use170" />
            <use
               x="542.449219"
               xlink:href="#DejaVuSans-110"
               id="use172" />
            <use
               x="605.828125"
               xlink:href="#DejaVuSans-100"
               id="use174" />
            <use
               x="669.304688"
               xlink:href="#DejaVuSans-101"
               id="use176" />
            <use
               x="730.8125"
               xlink:href="#DejaVuSans-120"
               id="use178" />
          </g>
        </g>
      </g>
      <g
         id="line2d_15">
        <path
           clip-path="url(#pc77b9c6652)"
           d="M 94.708182 72.008316  L 123.36197 74.289657  L 153.930922 76.498535  L 186.636018 78.636516  L 221.698237 80.703  L 259.338561 82.69588  L 299.85163 84.615416  L 343.605744 86.462928  L 390.969204 88.237244  L 399.071818 88.519867  L 399.071818 88.519867  "
           style="fill:none;stroke:#0000ff;stroke-linecap:square;stroke-width:0.8;"
           id="path184" />
      </g>
      <g
         id="line2d_16">
        <path
           clip-path="url(#pc77b9c6652)"
           d="M 94.708182 21.528487  L 122.772689 23.846109  L 152.6787 26.0908  L 184.647194 28.264982  L 218.825492 30.364371  L 255.508235 32.392409  L 294.990062 34.349602  L 337.491954 36.231288  L 383.455872 38.041047  L 399.071818 38.608794  L 399.071818 38.608794  "
           style="fill:none;stroke:#008000;stroke-linecap:square;stroke-width:0.8;"
           id="path187" />
      </g>
      <g
         id="line2d_17">
        <path
           clip-path="url(#pc77b9c6652)"
           d="M 94.708182 101.993643  L 128.002558 104.560223  L 163.875039 107.100147  L 202.620265 109.618075  L 244.606536 112.121148  L 290.275814 114.618014  L 340.070058 117.114658  L 394.652211 119.625254  L 399.071818 119.819432  L 399.071818 119.819432  "
           style="fill:none;stroke:#ff0000;stroke-linecap:square;stroke-width:0.8;"
           id="path190" />
      </g>
      <g
         id="line2d_18">
        <path
           clip-path="url(#pc77b9c6652)"
           d="M 94.708182 20.983068  L 152.973341 25.237034  L 227.664707 30.455197  L 348.246332 38.624083  L 399.071818 42.048369  L 399.071818 42.048369  "
           style="fill:none;stroke:#00bfbf;stroke-linecap:square;stroke-width:0.8;"
           id="path193" />
      </g>
      <g
         id="patch_3">
        <path
           d="M 79.49 124.76125  L 79.49 16.04125  "
           style="fill:none;stroke:#000000;stroke-linecap:square;stroke-linejoin:miter;stroke-width:0.8;"
           id="path196" />
      </g>
      <g
         id="patch_4">
        <path
           d="M 414.29 124.76125  L 414.29 16.04125  "
           style="fill:none;stroke:#000000;stroke-linecap:square;stroke-linejoin:miter;stroke-width:0.8;"
           id="path199" />
      </g>
      <g
         id="patch_5">
        <path
           d="M 79.49 124.76125  L 414.29 124.76125  "
           style="fill:none;stroke:#000000;stroke-linecap:square;stroke-linejoin:miter;stroke-width:0.8;"
           id="path202" />
      </g>
      <g
         id="patch_6">
        <path
           d="M 79.49 16.04125  L 414.29 16.04125  "
           style="fill:none;stroke:#000000;stroke-linecap:square;stroke-linejoin:miter;stroke-width:0.8;"
           id="path205" />
      </g>
    </g>
    <g
       id="axes_2">
      <g
         id="patch_7">
        <path
           d="M 79.49 233.48125  L 414.29 233.48125  L 414.29 124.76125  L 79.49 124.76125  z "
           style="fill:none;"
           id="path209" />
      </g>
      <g
         id="matplotlib.axis_3">
        <g
           id="xtick_5">
          <g
             id="line2d_19">
            <path
               clip-path="url(#pf2c08ec49a)"
               d="M 139.022113 233.48125  L 139.022113 124.76125  "
               style="fill:none;stroke:#b0b0b0;stroke-dasharray:0.8,1.32;stroke-dashoffset:0;stroke-width:0.8;"
               id="path212" />
          </g>
          <g
             id="line2d_20">
            <g
               id="g217">
              <use
                 style="stroke:#000000;stroke-width:0.8;"
                 x="139.022113"
                 xlink:href="#m4ce872b70f"
                 y="233.48125"
                 id="use215" />
            </g>
          </g>
          <g
             id="text_5">
            <!-- 1300 -->
            <defs
               id="defs221">
              <path
                 d="M 40.578125 39.3125  Q 47.65625 37.796875 51.625 33  Q 55.609375 28.21875 55.609375 21.1875  Q 55.609375 10.40625 48.1875 4.484375  Q 40.765625 -1.421875 27.09375 -1.421875  Q 22.515625 -1.421875 17.65625 -0.515625  Q 12.796875 0.390625 7.625 2.203125  L 7.625 11.71875  Q 11.71875 9.328125 16.59375 8.109375  Q 21.484375 6.890625 26.8125 6.890625  Q 36.078125 6.890625 40.9375 10.546875  Q 45.796875 14.203125 45.796875 21.1875  Q 45.796875 27.640625 41.28125 31.265625  Q 36.765625 34.90625 28.71875 34.90625  L 20.21875 34.90625  L 20.21875 43.015625  L 29.109375 43.015625  Q 36.375 43.015625 40.234375 45.921875  Q 44.09375 48.828125 44.09375 54.296875  Q 44.09375 59.90625 40.109375 62.90625  Q 36.140625 65.921875 28.71875 65.921875  Q 24.65625 65.921875 20.015625 65.03125  Q 15.375 64.15625 9.8125 62.3125  L 9.8125 71.09375  Q 15.4375 72.65625 20.34375 73.4375  Q 25.25 74.21875 29.59375 74.21875  Q 40.828125 74.21875 47.359375 69.109375  Q 53.90625 64.015625 53.90625 55.328125  Q 53.90625 49.265625 50.4375 45.09375  Q 46.96875 40.921875 40.578125 39.3125  z "
                 id="DejaVuSans-51" />
            </defs>
            <g
               transform="translate(118.662113 252.63875)scale(0.16 -0.16)"
               id="g231">
              <use
                 xlink:href="#DejaVuSans-49"
                 id="use223" />
              <use
                 x="63.623047"
                 xlink:href="#DejaVuSans-51"
                 id="use225" />
              <use
                 x="127.246094"
                 xlink:href="#DejaVuSans-48"
                 id="use227" />
              <use
                 x="190.869141"
                 xlink:href="#DejaVuSans-48"
                 id="use229" />
            </g>
          </g>
        </g>
        <g
           id="xtick_6">
          <g
             id="line2d_21">
            <path
               clip-path="url(#pf2c08ec49a)"
               d="M 212.682238 233.48125  L 212.682238 124.76125  "
               style="fill:none;stroke:#b0b0b0;stroke-dasharray:0.8,1.32;stroke-dashoffset:0;stroke-width:0.8;"
               id="path235" />
          </g>
          <g
             id="line2d_22">
            <g
               id="g240">
              <use
                 style="stroke:#000000;stroke-width:0.8;"
                 x="212.682238"
                 xlink:href="#m4ce872b70f"
                 y="233.48125"
                 id="use238" />
            </g>
          </g>
          <g
             id="text_6">
            <!-- 1400 -->
            <defs
               id="defs244">
              <path
                 d="M 37.796875 64.3125  L 12.890625 25.390625  L 37.796875 25.390625  z M 35.203125 72.90625  L 47.609375 72.90625  L 47.609375 25.390625  L 58.015625 25.390625  L 58.015625 17.1875  L 47.609375 17.1875  L 47.609375 0  L 37.796875 0  L 37.796875 17.1875  L 4.890625 17.1875  L 4.890625 26.703125  z "
                 id="DejaVuSans-52" />
            </defs>
            <g
               transform="translate(192.322238 252.63875)scale(0.16 -0.16)"
               id="g254">
              <use
                 xlink:href="#DejaVuSans-49"
                 id="use246" />
              <use
                 x="63.623047"
                 xlink:href="#DejaVuSans-52"
                 id="use248" />
              <use
                 x="127.246094"
                 xlink:href="#DejaVuSans-48"
                 id="use250" />
              <use
                 x="190.869141"
                 xlink:href="#DejaVuSans-48"
                 id="use252" />
            </g>
          </g>
        </g>
        <g
           id="xtick_7">
          <g
             id="line2d_23">
            <path
               clip-path="url(#pf2c08ec49a)"
               d="M 286.342363 233.48125  L 286.342363 124.76125  "
               style="fill:none;stroke:#b0b0b0;stroke-dasharray:0.8,1.32;stroke-dashoffset:0;stroke-width:0.8;"
               id="path258" />
          </g>
          <g
             id="line2d_24">
            <g
               id="g263">
              <use
                 style="stroke:#000000;stroke-width:0.8;"
                 x="286.342363"
                 xlink:href="#m4ce872b70f"
                 y="233.48125"
                 id="use261" />
            </g>
          </g>
          <g
             id="text_7">
            <!-- 1500 -->
            <g
               transform="translate(265.982363 252.63875)scale(0.16 -0.16)"
               id="g274">
              <use
                 xlink:href="#DejaVuSans-49"
                 id="use266" />
              <use
                 x="63.623047"
                 xlink:href="#DejaVuSans-53"
                 id="use268" />
              <use
                 x="127.246094"
                 xlink:href="#DejaVuSans-48"
                 id="use270" />
              <use
                 x="190.869141"
                 xlink:href="#DejaVuSans-48"
                 id="use272" />
            </g>
          </g>
        </g>
        <g
           id="xtick_8">
          <g
             id="line2d_25">
            <path
               clip-path="url(#pf2c08ec49a)"
               d="M 360.002488 233.48125  L 360.002488 124.76125  "
               style="fill:none;stroke:#b0b0b0;stroke-dasharray:0.8,1.32;stroke-dashoffset:0;stroke-width:0.8;"
               id="path278" />
          </g>
          <g
             id="line2d_26">
            <g
               id="g283">
              <use
                 style="stroke:#000000;stroke-width:0.8;"
                 x="360.002488"
                 xlink:href="#m4ce872b70f"
                 y="233.48125"
                 id="use281" />
            </g>
          </g>
          <g
             id="text_8">
            <!-- 1600 -->
            <defs
               id="defs287">
              <path
                 d="M 33.015625 40.375  Q 26.375 40.375 22.484375 35.828125  Q 18.609375 31.296875 18.609375 23.390625  Q 18.609375 15.53125 22.484375 10.953125  Q 26.375 6.390625 33.015625 6.390625  Q 39.65625 6.390625 43.53125 10.953125  Q 47.40625 15.53125 47.40625 23.390625  Q 47.40625 31.296875 43.53125 35.828125  Q 39.65625 40.375 33.015625 40.375  z M 52.59375 71.296875  L 52.59375 62.3125  Q 48.875 64.0625 45.09375 64.984375  Q 41.3125 65.921875 37.59375 65.921875  Q 27.828125 65.921875 22.671875 59.328125  Q 17.53125 52.734375 16.796875 39.40625  Q 19.671875 43.65625 24.015625 45.921875  Q 28.375 48.1875 33.59375 48.1875  Q 44.578125 48.1875 50.953125 41.515625  Q 57.328125 34.859375 57.328125 23.390625  Q 57.328125 12.15625 50.6875 5.359375  Q 44.046875 -1.421875 33.015625 -1.421875  Q 20.359375 -1.421875 13.671875 8.265625  Q 6.984375 17.96875 6.984375 36.375  Q 6.984375 53.65625 15.1875 63.9375  Q 23.390625 74.21875 37.203125 74.21875  Q 40.921875 74.21875 44.703125 73.484375  Q 48.484375 72.75 52.59375 71.296875  z "
                 id="DejaVuSans-54" />
            </defs>
            <g
               transform="translate(339.642488 252.63875)scale(0.16 -0.16)"
               id="g297">
              <use
                 xlink:href="#DejaVuSans-49"
                 id="use289" />
              <use
                 x="63.623047"
                 xlink:href="#DejaVuSans-54"
                 id="use291" />
              <use
                 x="127.246094"
                 xlink:href="#DejaVuSans-48"
                 id="use293" />
              <use
                 x="190.869141"
                 xlink:href="#DejaVuSans-48"
                 id="use295" />
            </g>
          </g>
        </g>
        <g
           id="text_9">
          <!-- wavelength (nm) -->
          <defs
             id="defs308">
            <path
               d="M 4.203125 54.6875  L 13.1875 54.6875  L 24.421875 12.015625  L 35.59375 54.6875  L 46.1875 54.6875  L 57.421875 12.015625  L 68.609375 54.6875  L 77.59375 54.6875  L 63.28125 0  L 52.6875 0  L 40.921875 44.828125  L 29.109375 0  L 18.5 0  z "
               id="DejaVuSans-119" />
            <path
               d="M 9.421875 75.984375  L 18.40625 75.984375  L 18.40625 0  L 9.421875 0  z "
               id="DejaVuSans-108" />
            <path
               d="M 45.40625 27.984375  Q 45.40625 37.75 41.375 43.109375  Q 37.359375 48.484375 30.078125 48.484375  Q 22.859375 48.484375 18.828125 43.109375  Q 14.796875 37.75 14.796875 27.984375  Q 14.796875 18.265625 18.828125 12.890625  Q 22.859375 7.515625 30.078125 7.515625  Q 37.359375 7.515625 41.375 12.890625  Q 45.40625 18.265625 45.40625 27.984375  z M 54.390625 6.78125  Q 54.390625 -7.171875 48.1875 -13.984375  Q 42 -20.796875 29.203125 -20.796875  Q 24.46875 -20.796875 20.265625 -20.09375  Q 16.0625 -19.390625 12.109375 -17.921875  L 12.109375 -9.1875  Q 16.0625 -11.328125 19.921875 -12.34375  Q 23.78125 -13.375 27.78125 -13.375  Q 36.625 -13.375 41.015625 -8.765625  Q 45.40625 -4.15625 45.40625 5.171875  L 45.40625 9.625  Q 42.625 4.78125 38.28125 2.390625  Q 33.9375 0 27.875 0  Q 17.828125 0 11.671875 7.65625  Q 5.515625 15.328125 5.515625 27.984375  Q 5.515625 40.671875 11.671875 48.328125  Q 17.828125 56 27.875 56  Q 33.9375 56 38.28125 53.609375  Q 42.625 51.21875 45.40625 46.390625  L 45.40625 54.6875  L 54.390625 54.6875  z "
               id="DejaVuSans-103" />
            <path
               d="M 54.890625 33.015625  L 54.890625 0  L 45.90625 0  L 45.90625 32.71875  Q 45.90625 40.484375 42.875 44.328125  Q 39.84375 48.1875 33.796875 48.1875  Q 26.515625 48.1875 22.3125 43.546875  Q 18.109375 38.921875 18.109375 30.90625  L 18.109375 0  L 9.078125 0  L 9.078125 75.984375  L 18.109375 75.984375  L 18.109375 46.1875  Q 21.34375 51.125 25.703125 53.5625  Q 30.078125 56 35.796875 56  Q 45.21875 56 50.046875 50.171875  Q 54.890625 44.34375 54.890625 33.015625  z "
               id="DejaVuSans-104" />
            <path
               d="M 31 75.875  Q 24.46875 64.65625 21.28125 53.65625  Q 18.109375 42.671875 18.109375 31.390625  Q 18.109375 20.125 21.3125 9.0625  Q 24.515625 -2 31 -13.1875  L 23.1875 -13.1875  Q 15.875 -1.703125 12.234375 9.375  Q 8.59375 20.453125 8.59375 31.390625  Q 8.59375 42.28125 12.203125 53.3125  Q 15.828125 64.359375 23.1875 75.875  z "
               id="DejaVuSans-40" />
            <path
               d="M 52 44.1875  Q 55.375 50.25 60.0625 53.125  Q 64.75 56 71.09375 56  Q 79.640625 56 84.28125 50.015625  Q 88.921875 44.046875 88.921875 33.015625  L 88.921875 0  L 79.890625 0  L 79.890625 32.71875  Q 79.890625 40.578125 77.09375 44.375  Q 74.3125 48.1875 68.609375 48.1875  Q 61.625 48.1875 57.5625 43.546875  Q 53.515625 38.921875 53.515625 30.90625  L 53.515625 0  L 44.484375 0  L 44.484375 32.71875  Q 44.484375 40.625 41.703125 44.40625  Q 38.921875 48.1875 33.109375 48.1875  Q 26.21875 48.1875 22.15625 43.53125  Q 18.109375 38.875 18.109375 30.90625  L 18.109375 0  L 9.078125 0  L 9.078125 54.6875  L 18.109375 54.6875  L 18.109375 46.1875  Q 21.1875 51.21875 25.484375 53.609375  Q 29.78125 56 35.6875 56  Q 41.65625 56 45.828125 52.96875  Q 50 49.953125 52 44.1875  z "
               id="DejaVuSans-109" />
            <path
               d="M 8.015625 75.875  L 15.828125 75.875  Q 23.140625 64.359375 26.78125 53.3125  Q 30.421875 42.28125 30.421875 31.390625  Q 30.421875 20.453125 26.78125 9.375  Q 23.140625 -1.703125 15.828125 -13.1875  L 8.015625 -13.1875  Q 14.5 -2 17.703125 9.0625  Q 20.90625 20.125 20.90625 31.390625  Q 20.90625 42.671875 17.703125 53.65625  Q 14.5 64.65625 8.015625 75.875  z "
               id="DejaVuSans-41" />
          </defs>
          <g
             transform="translate(178.64 272.12375)scale(0.16 -0.16)"
             id="g340">
            <use
               xlink:href="#DejaVuSans-119"
               id="use310" />
            <use
               x="81.787109"
               xlink:href="#DejaVuSans-97"
               id="use312" />
            <use
               x="143.066406"
               xlink:href="#DejaVuSans-118"
               id="use314" />
            <use
               x="202.246094"
               xlink:href="#DejaVuSans-101"
               id="use316" />
            <use
               x="263.769531"
               xlink:href="#DejaVuSans-108"
               id="use318" />
            <use
               x="291.552734"
               xlink:href="#DejaVuSans-101"
               id="use320" />
            <use
               x="353.076172"
               xlink:href="#DejaVuSans-110"
               id="use322" />
            <use
               x="416.455078"
               xlink:href="#DejaVuSans-103"
               id="use324" />
            <use
               x="479.931641"
               xlink:href="#DejaVuSans-116"
               id="use326" />
            <use
               x="519.140625"
               xlink:href="#DejaVuSans-104"
               id="use328" />
            <use
               x="582.519531"
               xlink:href="#DejaVuSans-32"
               id="use330" />
            <use
               x="614.306641"
               xlink:href="#DejaVuSans-40"
               id="use332" />
            <use
               x="653.320312"
               xlink:href="#DejaVuSans-110"
               id="use334" />
            <use
               x="716.699219"
               xlink:href="#DejaVuSans-109"
               id="use336" />
            <use
               x="814.111328"
               xlink:href="#DejaVuSans-41"
               id="use338" />
          </g>
        </g>
      </g>
      <g
         id="matplotlib.axis_4">
        <g
           id="ytick_4">
          <g
             id="line2d_27">
            <path
               clip-path="url(#pf2c08ec49a)"
               d="M 79.49 216.253295  L 414.29 216.253295  "
               style="fill:none;stroke:#b0b0b0;stroke-dasharray:0.8,1.32;stroke-dashoffset:0;stroke-width:0.8;"
               id="path344" />
          </g>
          <g
             id="line2d_28">
            <g
               id="g349">
              <use
                 style="stroke:#000000;stroke-width:0.8;"
                 x="79.49"
                 xlink:href="#m0393cb941d"
                 y="216.253295"
                 id="use347" />
            </g>
          </g>
          <g
             id="text_10">
            <!-- −500 -->
            <defs
               id="defs353">
              <path
                 d="M 10.59375 35.5  L 73.1875 35.5  L 73.1875 27.203125  L 10.59375 27.203125  z "
                 id="DejaVuSans-8722" />
            </defs>
            <g
               transform="translate(28.5425 222.332045)scale(0.16 -0.16)"
               id="g363">
              <use
                 xlink:href="#DejaVuSans-8722"
                 id="use355" />
              <use
                 x="83.789062"
                 xlink:href="#DejaVuSans-53"
                 id="use357" />
              <use
                 x="147.412109"
                 xlink:href="#DejaVuSans-48"
                 id="use359" />
              <use
                 x="211.035156"
                 xlink:href="#DejaVuSans-48"
                 id="use361" />
            </g>
          </g>
        </g>
        <g
           id="ytick_5">
          <g
             id="line2d_29">
            <path
               clip-path="url(#pf2c08ec49a)"
               d="M 79.49 173.183408  L 414.29 173.183408  "
               style="fill:none;stroke:#b0b0b0;stroke-dasharray:0.8,1.32;stroke-dashoffset:0;stroke-width:0.8;"
               id="path367" />
          </g>
          <g
             id="line2d_30">
            <g
               id="g372">
              <use
                 style="stroke:#000000;stroke-width:0.8;"
                 x="79.49"
                 xlink:href="#m0393cb941d"
                 y="173.183408"
                 id="use370" />
            </g>
          </g>
          <g
             id="text_11">
            <!-- −250 -->
            <g
               transform="translate(28.5425 179.262158)scale(0.16 -0.16)"
               id="g383">
              <use
                 xlink:href="#DejaVuSans-8722"
                 id="use375" />
              <use
                 x="83.789062"
                 xlink:href="#DejaVuSans-50"
                 id="use377" />
              <use
                 x="147.412109"
                 xlink:href="#DejaVuSans-53"
                 id="use379" />
              <use
                 x="211.035156"
                 xlink:href="#DejaVuSans-48"
                 id="use381" />
            </g>
          </g>
        </g>
        <g
           id="ytick_6">
          <g
             id="line2d_31">
            <path
               clip-path="url(#pf2c08ec49a)"
               d="M 79.49 130.113522  L 414.29 130.113522  "
               style="fill:none;stroke:#b0b0b0;stroke-dasharray:0.8,1.32;stroke-dashoffset:0;stroke-width:0.8;"
               id="path387" />
          </g>
          <g
             id="line2d_32">
            <g
               id="g392">
              <use
                 style="stroke:#000000;stroke-width:0.8;"
                 x="79.49"
                 xlink:href="#m0393cb941d"
                 y="130.113522"
                 id="use390" />
            </g>
          </g>
          <g
             id="text_12">
            <!-- 0 -->
            <g
               transform="translate(62.31 136.192272)scale(0.16 -0.16)"
               id="g397">
              <use
                 xlink:href="#DejaVuSans-48"
                 id="use395" />
            </g>
          </g>
        </g>
        <g
           id="text_13"
           transform="translate(0,18.000001)"
           style="stroke-linecap:butt;stroke-linejoin:round">
          <!-- $D_M$ (ps/km·nm) -->
          <defs
             id="defs408">
            <path
               d="M 16.890625,72.90625 H 38.09375 q 16.890625,0 25.5,-7.15625 8.625,-7.15625 8.625,-21.265625 0,-9.328125 -3.28125,-17.953125 Q 65.671875,17.921875 59.90625,12.015625 54.109375,5.953125 45.171875,2.96875 36.234375,0 24.03125,0 H 2.6875 Z m 8.3125,-8.109375 -11,-56.6875 H 27.09375 q 16.5625,0 25.640625,9.515625 9.078125,9.53125 9.078125,26.859375 0,10.5 -5.859375,15.40625 -5.859375,4.90625 -18.359375,4.90625 z"
               id="DejaVuSans-Oblique-68"
               inkscape:connector-curvature="0"
               style="stroke-linecap:butt;stroke-linejoin:round" />
            <path
               d="M 16.890625,72.90625 H 31.6875 l 8.5,-49.125 28.21875,49.125 h 15.1875 L 69.390625,0 H 59.8125 L 72.21875,63.921875 43.609375,14.015625 h -9.625 L 24.703125,64.109375 12.3125,0 h -9.625 z"
               id="DejaVuSans-Oblique-77"
               inkscape:connector-curvature="0"
               style="stroke-linecap:butt;stroke-linejoin:round" />
            <path
               d="m 18.109375,8.203125 v -29 H 9.078125 V 54.6875 h 9.03125 v -8.296875 q 2.84375,4.875 7.15625,7.234375 Q 29.59375,56 35.59375,56 q 9.96875,0 16.1875,-7.90625 6.234375,-7.90625 6.234375,-20.796875 0,-12.890625 -6.234375,-20.8125 -6.21875,-7.90625 -16.1875,-7.90625 -6,0 -10.328125,2.375 -4.3125,2.375 -7.15625,7.25 z M 48.6875,27.296875 q 0,9.90625 -4.078125,15.546875 -4.078125,5.640625 -11.203125,5.640625 -7.140625,0 -11.21875,-5.640625 -4.078125,-5.640625 -4.078125,-15.546875 0,-9.90625 4.078125,-15.546875 4.078125,-5.640625 11.21875,-5.640625 7.125,0 11.203125,5.640625 4.078125,5.640625 4.078125,15.546875 z"
               id="DejaVuSans-112"
               inkscape:connector-curvature="0"
               style="stroke-linecap:butt;stroke-linejoin:round" />
            <path
               d="m 44.28125,53.078125 v -8.5 Q 40.484375,46.53125 36.375,47.5 q -4.09375,0.984375 -8.5,0.984375 -6.6875,0 -10.03125,-2.046875 Q 14.5,44.390625 14.5,40.28125 q 0,-3.125 2.390625,-4.90625 2.390625,-1.78125 9.625,-3.390625 l 3.078125,-0.6875 Q 39.15625,29.25 43.1875,25.515625 47.21875,21.78125 47.21875,15.09375 q 0,-7.625 -6.03125,-12.078125 -6.03125,-4.4375 -16.578125,-4.4375 -4.390625,0 -9.15625,0.859375 Q 10.6875,0.296875 5.421875,2 v 9.28125 q 4.984375,-2.59375 9.8125,-3.890625 4.828125,-1.28125 9.578125,-1.28125 6.34375,0 9.75,2.171875 3.421875,2.171875 3.421875,6.125 0,3.65625 -2.46875,5.609375 -2.453125,1.953125 -10.8125,3.765625 l -3.125,0.734375 q -8.34375,1.75 -12.0625,5.390625 -3.703125,3.640625 -3.703125,9.984375 0,7.71875 5.46875,11.90625 Q 16.75,56 26.8125,56 q 4.96875,0 9.359375,-0.734375 4.40625,-0.71875 8.109375,-2.1875 z"
               id="DejaVuSans-115"
               inkscape:connector-curvature="0"
               style="stroke-linecap:butt;stroke-linejoin:round" />
            <path
               d="M 25.390625,72.90625 H 33.6875 L 8.296875,-9.28125 H 0 Z"
               id="DejaVuSans-47"
               inkscape:connector-curvature="0"
               style="stroke-linecap:butt;stroke-linejoin:round" />
            <path
               d="m 9.078125,75.984375 h 9.03125 v -44.875 l 26.8125,23.578125 h 11.46875 l -29,-25.578125 L 57.625,0 H 45.90625 L 18.109375,26.703125 V 0 h -9.03125 z"
               id="DejaVuSans-107"
               inkscape:connector-curvature="0"
               style="stroke-linecap:butt;stroke-linejoin:round" />
            <path
               d="M 10.6875,40.921875 H 21 V 28.515625 H 10.6875 Z"
               id="DejaVuSans-183"
               inkscape:connector-curvature="0"
               style="stroke-linecap:butt;stroke-linejoin:round" />
          </defs>
          <g
             transform="matrix(0,-0.16,-0.16,0,21.1825,238.96125)"
             id="g436"
             style="stroke-linecap:butt;stroke-linejoin:round">
            <use
               transform="translate(0,0.015625)"
               xlink:href="#DejaVuSans-Oblique-68"
               id="use410"
               style="stroke-linecap:butt;stroke-linejoin:round"
               x="0"
               y="0"
               width="100%"
               height="100%" />
            <use
               transform="matrix(0.7,0,0,0.7,77.001953,-16.390625)"
               xlink:href="#DejaVuSans-Oblique-77"
               id="use412"
               style="stroke-linecap:butt;stroke-linejoin:round"
               x="0"
               y="0"
               width="100%"
               height="100%" />
            <use
               transform="translate(140.13184,0.015625)"
               xlink:href="#DejaVuSans-32"
               id="use414"
               style="stroke-linecap:butt;stroke-linejoin:round"
               x="0"
               y="0"
               width="100%"
               height="100%" />
            <use
               transform="translate(171.91894,0.015625)"
               xlink:href="#DejaVuSans-40"
               id="use416"
               style="stroke-linecap:butt;stroke-linejoin:round"
               x="0"
               y="0"
               width="100%"
               height="100%" />
            <use
               transform="translate(210.93262,0.015625)"
               xlink:href="#DejaVuSans-112"
               id="use418"
               style="stroke-linecap:butt;stroke-linejoin:round"
               x="0"
               y="0"
               width="100%"
               height="100%" />
            <use
               transform="translate(274.40918,0.015625)"
               xlink:href="#DejaVuSans-115"
               id="use420"
               style="stroke-linecap:butt;stroke-linejoin:round"
               x="0"
               y="0"
               width="100%"
               height="100%" />
            <use
               transform="translate(326.50879,0.015625)"
               xlink:href="#DejaVuSans-47"
               id="use422"
               style="stroke-linecap:butt;stroke-linejoin:round"
               x="0"
               y="0"
               width="100%"
               height="100%" />
            <use
               transform="translate(360.20019,0.015625)"
               xlink:href="#DejaVuSans-107"
               id="use424"
               style="stroke-linecap:butt;stroke-linejoin:round"
               x="0"
               y="0"
               width="100%"
               height="100%" />
            <use
               transform="translate(418.11035,0.015625)"
               xlink:href="#DejaVuSans-109"
               id="use426"
               style="stroke-linecap:butt;stroke-linejoin:round"
               x="0"
               y="0"
               width="100%"
               height="100%" />
            <use
               transform="translate(515.52246,0.015625)"
               xlink:href="#DejaVuSans-183"
               id="use428"
               style="stroke-linecap:butt;stroke-linejoin:round"
               x="0"
               y="0"
               width="100%"
               height="100%" />
            <use
               transform="translate(547.30957,0.015625)"
               xlink:href="#DejaVuSans-110"
               id="use430"
               style="stroke-linecap:butt;stroke-linejoin:round"
               x="0"
               y="0"
               width="100%"
               height="100%" />
            <use
               transform="translate(610.68848,0.015625)"
               xlink:href="#DejaVuSans-109"
               id="use432"
               style="stroke-linecap:butt;stroke-linejoin:round"
               x="0"
               y="0"
               width="100%"
               height="100%" />
            <use
               transform="translate(708.10059,0.015625)"
               xlink:href="#DejaVuSans-41"
               id="use434"
               style="stroke-linecap:butt;stroke-linejoin:round"
               x="0"
               y="0"
               width="100%"
               height="100%" />
          </g>
        </g>
      </g>
      <g
         id="line2d_33">
        <path
           clip-path="url(#pf2c08ec49a)"
           d="M 94.708182 191.642424  L 95.739424 191.426811  L 97.359946 191.084879  L 97.949227 190.971691  L 98.685829 190.817219  L 106.862102 189.146051  L 107.304063 189.045935  L 108.482625 188.806194  L 109.734847 188.563859  L 124.614193 185.703672  L 125.350794 185.577033  L 130.065042 184.710307  L 131.906545 184.381621  L 132.864127 184.19237  L 133.674388 184.066872  L 136.768113 183.514004  L 137.504714 183.382935  L 138.314976 183.249062  L 140.89308 182.800534  L 141.703342 182.665376  L 144.134126 182.25141  L 146.56491 181.841369  L 147.375171 181.697389  L 150.321576 181.216951  L 151.131838 181.071552  L 154.299223 180.550408  L 155.919746 180.296806  L 159.381772 179.736474  L 160.118373 179.617878  L 164.24334 178.975281  L 164.61164 178.911841  L 165.127261 178.828375  L 171.609352 177.845788  L 172.272293 177.740433  L 186.046737 175.722521  L 202.178304 173.50551  L 202.767585 173.431484  L 207.923794 172.75398  L 208.365755 172.708297  L 213.080003 172.096066  L 213.669284 172.027064  L 214.626865 171.901287  L 216.173728 171.712907  L 216.689349 171.647555  L 218.236211 171.458171  L 219.120133 171.328043  L 219.856734 171.249369  L 223.02412 170.862414  L 224.718302 170.661219  L 225.160263 170.591611  L 225.602224 170.543635  L 226.265165 170.475187  L 226.780786 170.408185  L 229.579871 170.065792  L 230.242812 169.989319  L 232.526276 169.71198  L 232.820916 169.701225  L 233.631178 169.593208  L 235.693661 169.356477  L 238.050785 169.085467  L 240.113269 168.85344  L 240.99719 168.731606  L 243.133334 168.493128  L 243.869935 168.416691  L 245.785098 168.205486  L 246.59536 168.123776  L 247.405621 168.019737  L 249.910065 167.760827  L 250.352026 167.70974  L 252.414509 167.463181  L 252.93013 167.429192  L 254.845293 167.213253  L 255.581895 167.134511  L 258.086339 166.870197  L 258.82294 166.783364  L 259.559541 166.711319  L 261.401045 166.511918  L 262.211306 166.434382  L 263.905489 166.251299  L 264.71575 166.173263  L 266.483593 165.984002  L 270.019279 165.633226  L 270.60856 165.569437  L 271.418822 165.490076  L 272.081763 165.420906  L 275.838429 165.049609  L 276.50137 164.97213  L 280.773657 164.55967  L 282.09954 164.433429  L 286.445487 164.009998  L 287.624049 163.908182  L 292.632938 163.437536  L 293.222219 163.370468  L 294.1798 163.298877  L 294.548101 163.248158  L 294.990062 163.207302  L 301.914113 162.590101  L 302.503394 162.521733  L 303.534636 162.450468  L 304.123917 162.389657  L 305.081499 162.31597  L 305.449799 162.279795  L 306.775682 162.14619  L 307.291302 162.106259  L 308.175224 162.029882  L 309.280126 161.93614  L 322.686269 160.788181  L 323.201889 160.738748  L 359.442671 157.915233  L 359.884632 157.893001  L 360.326592 157.846238  L 360.842213 157.817506  L 361.652475 157.762938  L 362.757377 157.682412  L 368.797507 157.247455  L 369.313128 157.209853  L 370.56535 157.131302  L 376.163519 156.728676  L 376.67914 156.707035  L 377.489402 156.642187  L 378.667964 156.568778  L 379.478225 156.503669  L 380.583127 156.428299  L 381.319728 156.386264  L 382.42463 156.318917  L 382.866591 156.278611  L 384.118813 156.197546  L 388.31744 155.920651  L 389.422342 155.852204  L 389.864303 155.819754  L 390.674564 155.76158  L 394.578551 155.499737  L 395.167832 155.470017  L 396.420054 155.386734  L 399.071818 155.222528  L 399.071818 155.222528  "
           style="fill:none;stroke:#0000ff;stroke-dasharray:2.96,1.28;stroke-dashoffset:0;stroke-width:0.8;"
           id="path440" />
      </g>
      <g
         id="line2d_34">
        <path
           clip-path="url(#pf2c08ec49a)"
           d="M 94.708182 194.281275  L 95.518443 194.097521  L 96.034064 193.981517  L 98.022887 193.536095  L 98.317528 193.480244  L 98.759489 193.383664  L 99.64341 193.190135  L 101.558573 192.760642  L 101.853214 192.716926  L 102.147854 192.622131  L 102.368835 192.598846  L 104.136678 192.220101  L 105.020599 192.023612  L 106.714782 191.662736  L 107.672364 191.456878  L 108.040664 191.391382  L 108.924586 191.205623  L 109.292887 191.101298  L 109.513867 191.077238  L 110.913409 190.769863  L 111.13439 190.732748  L 112.533932 190.449804  L 113.712494 190.216104  L 113.933474 190.152813  L 114.154455 190.115338  L 115.038376 189.939315  L 115.333017 189.8676  L 116.364259 189.674454  L 117.46916 189.446492  L 118.574062 189.230813  L 119.752624 189.019085  L 120.120925 188.912121  L 121.446807 188.669501  L 121.888768 188.566702  L 123.06733 188.339819  L 123.509291 188.236593  L 123.730271 188.211051  L 124.172232 188.107654  L 124.540532 188.038822  L 125.645434 187.805728  L 125.866415 187.806142  L 126.234715 187.697708  L 127.707918 187.433429  L 128.149879 187.342122  L 129.623081 187.063251  L 130.580663 186.870849  L 130.948963 186.82708  L 131.243604 186.75254  L 132.643146 186.506446  L 132.937787 186.431611  L 134.558309 186.131269  L 135.442231 185.971686  L 136.841773 185.709385  L 137.210074 185.638099  L 137.652035 185.557762  L 139.419878 185.248712  L 139.861838 185.154609  L 140.377459 185.091196  L 140.6721 184.988448  L 140.96674 184.978709  L 141.335041 184.866743  L 141.924322 184.79387  L 143.397524 184.5178  L 143.692165 184.481122  L 145.607328 184.135031  L 146.49125 183.970572  L 148.995694 183.547174  L 149.363995 183.460203  L 149.805955 183.404042  L 150.247916 183.294103  L 150.837197 183.232411  L 151.352818 183.099368  L 151.647458 183.061683  L 154.520203 182.584653  L 155.330465 182.439394  L 157.834909 182.005644  L 158.57151 181.882296  L 161.886216 181.351368  L 162.254516 181.275469  L 165.937523 180.689906  L 166.379483 180.589764  L 170.35713 179.957623  L 170.651771 179.917638  L 175.660659 179.136455  L 176.3236 179.031269  L 182.511051 178.073044  L 183.026672 178.000584  L 183.542293 177.928025  L 184.057913 177.84147  L 184.352554 177.8138  L 223.687061 172.354394  L 224.129021 172.307282  L 225.749544 172.112355  L 226.633466 171.988573  L 227.296407 171.913677  L 230.390132 171.521273  L 230.758433 171.470373  L 232.673596 171.254489  L 233.631178 171.116986  L 234.294119 171.040685  L 236.945883 170.719567  L 237.608824 170.657251  L 238.124445 170.581859  L 239.892288 170.36353  L 242.249412 170.085639  L 242.986013 170.00306  L 245.490458 169.706402  L 246.227059 169.623139  L 246.96366 169.539723  L 249.173464 169.281159  L 249.910065 169.204529  L 250.646666 169.105531  L 251.383268 169.0286  L 253.593071 168.774663  L 255.950195 168.517168  L 258.012679 168.277573  L 258.82294 168.201782  L 260.959084 167.955653  L 262.800587 167.750461  L 263.610848 167.681182  L 265.599672 167.449731  L 266.336273 167.377372  L 268.104116 167.182085  L 268.767057 167.114288  L 269.429998 167.046381  L 271.197841 166.857206  L 274.144246 166.547688  L 274.807187 166.471303  L 278.269213 166.12282  L 278.932154 166.045723  L 282.615161 165.677972  L 284.162023 165.513984  L 285.045945 165.442949  L 286.666467 165.257419  L 287.182088 165.227844  L 287.550389 165.178224  L 288.06601 165.148562  L 288.507971 165.093515  L 292.485617 164.703389  L 293.148558 164.623887  L 293.590519 164.591369  L 294.1798 164.532534  L 294.990062 164.465005  L 295.579343 164.390543  L 296.021303 164.357801  L 297.273525 164.241639  L 301.987773 163.795727  L 302.356074 163.767963  L 303.755616 163.623342  L 310.164047 163.048214  L 310.532348 163.012019  L 311.78457 162.891858  L 320.771105 162.102472  L 321.213066 162.043802  L 343.826724 160.148244  L 344.710646 160.074358  L 345.152607 160.045423  L 345.668228 160.002216  L 361.947115 158.743252  L 362.978357 158.670017  L 363.862278 158.601255  L 371.891232 158.002807  L 372.406853 157.965372  L 373.732735 157.888979  L 374.690317 157.795531  L 375.205938 157.766134  L 380.951427 157.358969  L 382.056329 157.275915  L 382.866591 157.219322  L 384.045153 157.137583  L 388.685741 156.815238  L 389.201361 156.793167  L 390.011623 156.727322  L 390.527244 156.696787  L 395.020511 156.383531  L 395.609792 156.354221  L 396.714694 156.27705  L 397.524956 156.218656  L 398.703518 156.142741  L 399.071818 156.125305  L 399.071818 156.125305  "
           style="fill:none;stroke:#008000;stroke-dasharray:2.96,1.28;stroke-dashoffset:0;stroke-width:0.8;"
           id="path443" />
      </g>
      <g
         id="line2d_35">
        <path
           clip-path="url(#pf2c08ec49a)"
           d="M 94.708182 175.986504  L 95.518443 175.875192  L 95.960404 175.789592  L 99.054129 175.314638  L 99.56975 175.231885  L 100.085371 175.155377  L 104.136678 174.542039  L 105.904521 174.262034  L 106.272821 174.215539  L 111.797331 173.415296  L 112.533932 173.30119  L 113.712494 173.142681  L 115.259357 172.91643  L 125.498114 171.488694  L 125.940075 171.41644  L 126.382036 171.37029  L 127.486937 171.215316  L 128.73916 171.039981  L 129.402101 170.963525  L 129.991382 170.883755  L 146.93321 168.695078  L 147.596152 168.614455  L 153.047001 167.94299  L 153.783602 167.877344  L 154.888504 167.717901  L 155.551445 167.642263  L 159.823732 167.1357  L 160.560334 167.055021  L 162.254516 166.860685  L 163.138438 166.750953  L 163.875039 166.669524  L 164.685301 166.570225  L 165.421902 166.488446  L 167.337065 166.272324  L 170.43079 165.912941  L 171.167392 165.836735  L 173.966476 165.511368  L 174.482097 165.481591  L 175.071378 165.399303  L 177.133862 165.168976  L 179.490986 164.920012  L 181.627129 164.696499  L 182.437391 164.606602  L 184.499874 164.392707  L 184.941835 164.338277  L 187.151639 164.10005  L 189.214122 163.876461  L 189.729743 163.830857  L 190.540004 163.767053  L 191.423926 163.649567  L 192.234187 163.578416  L 193.044449 163.479069  L 193.412749 163.456156  L 195.254252 163.27096  L 196.064514 163.192002  L 197.979677 162.993821  L 198.789938 162.914288  L 201.736343 162.620445  L 203.356866 162.459645  L 204.167128 162.393165  L 204.609088 162.336218  L 208.071114 162.011312  L 208.807715 161.934536  L 209.691637 161.85504  L 210.428238 161.777958  L 211.31216 161.698116  L 213.006343 161.52849  L 213.890264 161.455252  L 214.332225 161.411412  L 215.216146 161.330748  L 215.658107 161.279597  L 216.173728 161.237777  L 217.720591 161.090431  L 222.434839 160.661507  L 223.760721 160.548744  L 228.695949 160.105066  L 229.28523 160.056595  L 234.8834 159.566914  L 235.546341 159.497801  L 236.503922 159.422144  L 237.756145 159.310542  L 238.713726 159.249098  L 239.155687 159.180657  L 239.523988 159.168784  L 248.657843 158.413892  L 249.247124 158.362928  L 250.573006 158.242433  L 250.941307 158.215069  L 310.753328 153.862982  L 311.195289 153.85662  L 312.226531 153.792103  L 312.594831 153.752788  L 317.014439 153.467458  L 317.38274 153.459291  L 318.266661 153.38293  L 318.634962 153.374709  L 323.054569 153.085411  L 323.42287 153.069083  L 324.822412 152.986298  L 328.947379 152.726912  L 329.61032 152.700197  L 330.494242 152.637965  L 331.157183 152.619095  L 331.672804 152.573397  L 335.35581 152.349473  L 335.871431 152.319413  L 336.608032 152.269547  L 337.123653 152.247405  L 337.933914 152.198815  L 341.616921 151.979742  L 342.869143 151.914818  L 343.311104 151.88286  L 346.331169 151.705366  L 346.699469 151.68797  L 348.099012 151.60879  L 351.119077 151.429392  L 351.561038 151.42123  L 354.728423 151.235011  L 355.317704 151.213083  L 356.054305 151.16121  L 356.569926 151.137879  L 357.011887 151.105057  L 358.411429 151.048494  L 358.70607 151.029262  L 361.505154 150.866394  L 362.020775 150.826379  L 363.788618 150.759083  L 364.304239 150.702516  L 364.96718 150.681252  L 366.440383 150.608321  L 367.029664 150.577437  L 367.545285 150.545244  L 368.208226 150.507323  L 368.797507 150.476313  L 371.228291 150.344871  L 371.596592 150.33464  L 372.259533 150.288144  L 372.922474 150.274608  L 373.659075 150.220983  L 374.174696 150.221415  L 374.395676 150.183809  L 376.089859 150.104699  L 376.45816 150.086021  L 378.078683 150.013605  L 378.594303 149.964112  L 379.257245 149.950205  L 379.699205 149.907707  L 380.288486 149.89252  L 380.730447 149.858262  L 383.013911 149.74599  L 384.634434 149.664085  L 386.696917 149.555624  L 387.065218 149.544857  L 389.201361 149.428648  L 389.643322 149.427344  L 391.926786 149.312868  L 393.547309 149.246184  L 393.98927 149.202748  L 395.830773 149.130762  L 396.272733 149.095595  L 398.040576 149.013627  L 398.703518 148.981753  L 399.071818 148.962151  L 399.071818 148.962151  "
           style="fill:none;stroke:#ff0000;stroke-dasharray:2.96,1.28;stroke-dashoffset:0;stroke-width:0.8;"
           id="path446" />
      </g>
      <g
         id="line2d_36">
        <path
           clip-path="url(#pf2c08ec49a)"
           d="M 94.708182 146.465541  L 96.402365 146.305677  L 97.212626 146.218488  L 98.833149 146.068998  L 99.79073 145.983838  L 100.085371 145.950737  L 100.380011 145.917612  L 102.147854 145.731104  L 102.442495 145.723339  L 102.958116 145.655454  L 103.400077 145.637354  L 105.020599 145.48545  L 105.978181 145.398888  L 107.746024 145.222723  L 108.040664 145.201846  L 108.482625 145.157654  L 109.292887 145.080794  L 109.734847 145.049329  L 111.50269 144.871547  L 112.312952 144.807002  L 112.533932 144.77178  L 112.828573 144.776419  L 113.417854 144.695286  L 113.786154 144.662287  L 114.891056 144.601912  L 115.185697 144.567664  L 115.774978 144.486148  L 115.922298 144.501365  L 116.216938 144.454083  L 117.17452 144.378  L 117.46916 144.343576  L 118.353082 144.266126  L 118.868703 144.208958  L 119.310664 144.189609  L 119.752624 144.144229  L 120.120925 144.11071  L 121.225827 144.022995  L 122.551709 143.899155  L 122.92001 143.865408  L 123.951251 143.775978  L 124.319552 143.742116  L 125.350794 143.652374  L 126.676676 143.540398  L 127.781578 143.46429  L 128.297199 143.392833  L 128.665499 143.358617  L 129.549421 143.292142  L 129.696741 143.281049  L 130.065042 143.246724  L 131.169944 143.169889  L 131.390924 143.146597  L 132.495826 143.056316  L 133.674388 142.953588  L 134.042689 142.945352  L 134.263669 142.882306  L 134.63197 142.860823  L 135.736871 142.783024  L 136.694453 142.70307  L 137.136414 142.642673  L 137.431054 142.646536  L 138.609616 142.542604  L 138.977917 142.507576  L 140.230139 142.4042  L 141.187721 142.336672  L 141.482361 142.300511  L 142.660923 142.208905  L 142.955564 142.185962  L 143.323864 142.163926  L 144.649747 142.047052  L 145.828309 141.9681  L 146.196609 141.932518  L 147.301511 141.838972  L 147.669812 141.789882  L 148.111772 141.76843  L 149.216674 141.687869  L 150.395236 141.607967  L 150.689877 141.557734  L 151.721119 141.489231  L 152.973341 141.396202  L 154.151903 141.302048  L 155.256805 141.233784  L 155.477785 141.222809  L 156.803667 141.075728  L 157.098308 141.092561  L 158.71883 140.921188  L 158.939811 140.937179  L 159.381772 140.887862  L 160.707654 140.807473  L 160.928634 140.769164  L 161.370595 140.746811  L 162.475497 140.663632  L 163.801379 140.582594  L 164.24334 140.532824  L 165.421902 140.436227  L 166.821444 140.341664  L 168.000006 140.230849  L 168.515627 140.222457  L 168.883928 140.171492  L 169.252228 140.175243  L 169.473209 140.150109  L 169.915169 140.086106  L 170.35713 140.090565  L 170.799091 140.04018  L 172.124973 139.943649  L 173.082555 139.870696  L 173.524516 139.861296  L 173.966476 139.81062  L 175.218698 139.726449  L 175.660659 139.675611  L 175.807979 139.663248  L 177.281182 139.566991  L 178.238764 139.493197  L 178.459744 139.509094  L 178.680724 139.455896  L 178.975365 139.458656  L 180.006607 139.385286  L 181.332489 139.3006  L 181.77445 139.249209  L 183.394972 139.152925  L 183.763273 139.114576  L 184.205234 139.090752  L 185.162815 139.015865  L 185.531116 139.005216  L 185.899417 138.966718  L 187.225299 138.880834  L 187.593599 138.842214  L 188.919482 138.783907  L 189.214122 138.744544  L 190.245364 138.655514  L 190.466344 138.643401  L 191.497586 138.568133  L 192.013207 138.572449  L 192.234187 138.532275  L 192.676148 138.507928  L 193.78105 138.418894  L 194.812292 138.343093  L 195.106932 138.359533  L 195.401573 138.305723  L 195.769873 138.308699  L 195.990854 138.310484  L 196.432814 138.25779  L 197.464056 138.167502  L 197.979677 138.157502  L 199.305559 138.069253  L 200.263141 137.992022  L 200.705102 137.981315  L 201.662683 137.918013  L 202.030984 137.8784  L 202.325624 137.838198  L 202.620265 137.840428  L 203.430526 137.775743  L 203.798827 137.778504  L 204.019807 137.737648  L 204.461768 137.726765  L 204.830069 137.686959  L 206.155951 137.611566  L 206.524252 137.585849  L 206.966212 137.574858  L 207.997454 137.482777  L 209.765297 137.395711  L 210.649219 137.330655  L 211.975101 137.239983  L 212.785362 137.159829  L 213.080003 137.190436  L 213.300983 137.149052  L 214.700525 137.072679  L 215.068826 137.046511  L 215.879087 136.994604  L 217.20497 136.9173  L 217.57327 136.876642  L 219.267453 136.787022  L 220.151375 136.720732  L 221.698237 136.644074  L 221.845558 136.616163  L 223.31876 136.538738  L 223.687061 136.497678  L 224.055361 136.499934  L 224.350002 136.443927  L 224.644642 136.445715  L 226.338825 136.347395  L 229.800851 136.135593  L 231.568694 136.043877  L 232.526276 135.96917  L 233.189217 135.936425  L 236.209282 135.755811  L 236.872223 135.715478  L 239.744968 135.53273  L 239.965948 135.548531  L 240.334249 135.521073  L 243.648955 135.309834  L 244.311896 135.276253  L 247.03732 135.12705  L 247.700261 135.085839  L 248.436863 135.044914  L 250.278366 134.942333  L 251.088627 134.886699  L 253.00379 134.79872  L 253.519411 134.756403  L 255.213594 134.667015  L 255.950195 134.618021  L 256.392156 134.604976  L 258.97026 134.466421  L 260.811764 134.369152  L 261.327384 134.326289  L 263.610848 134.207722  L 264.273789 134.180217  L 266.925554 134.017182  L 267.662155 133.989724  L 268.104116 133.961183  L 270.24026 133.832946  L 270.46124 133.841247  L 271.271501 133.783607  L 271.492482 133.799458  L 272.008103 133.748304  L 272.450063 133.727098  L 274.733527 133.636178  L 275.101828 133.599474  L 277.311632 133.477429  L 277.974573 133.464268  L 278.269213 133.434768  L 280.331697 133.326797  L 280.994638 133.29064  L 283.204442 133.174877  L 283.572742 133.145353  L 285.414245 133.066273  L 286.150847 133.045279  L 286.519147 132.992655  L 287.329409 132.971778  L 289.023591 132.876386  L 289.760193 132.832145  L 291.454376 132.767078  L 293.222219 132.671156  L 293.8115 132.633972  L 294.25346 132.619552  L 296.094963 132.523292  L 296.536924 132.508794  L 298.673068 132.39726  L 299.483329 132.375675  L 300.14627 132.338258  L 302.135094 132.233496  L 304.123917 132.128349  L 304.418558 132.121097  L 305.081499 132.083352  L 305.376139 132.091657  L 306.11274 132.046195  L 308.175224 131.940437  L 310.385028 131.842325  L 311.047969 131.804204  L 311.78457 131.773977  L 313.552413 131.698128  L 314.141694 131.667559  L 314.730975 131.629103  L 315.025616 131.613788  L 315.762217 131.591183  L 317.75104 131.483542  L 318.045681 131.476022  L 320.329145 131.391952  L 320.697445 131.345001  L 321.434046 131.329999  L 321.728687 131.306609  L 321.949667 131.314743  L 322.244308 131.283434  L 324.748752 131.175092  L 326.516595 131.09739  L 328.210778 131.011437  L 328.579079 131.003777  L 330.273261 130.933448  L 332.188425 130.83913  L 332.851366 130.807635  L 333.661627 130.792155  L 334.177248 130.736547  L 334.766529 130.720882  L 336.902673 130.62593  L 337.418294 130.602129  L 337.712934 130.602254  L 338.007575 130.562308  L 338.302215 130.570438  L 339.775418 130.490757  L 340.070058 130.490853  L 340.732999 130.450905  L 343.090123 130.34695  L 343.679404 130.330962  L 345.299927 130.258684  L 345.962868 130.242628  L 346.404829 130.210388  L 348.835613 130.113522  L 349.424894 130.097335  L 350.971757 130.032483  L 351.561038 130.016226  L 352.002998 129.983745  L 353.770841 129.877947  L 354.065482 129.894138  L 354.728423 129.853365  L 357.380187 129.754997  L 357.748488 129.738583  L 359.295351 129.672798  L 361.726135 129.573748  L 362.389076 129.524347  L 362.610056 129.540605  L 363.272997 129.499338  L 364.009599 129.474373  L 366.661363 129.382601  L 367.176984 129.316554  L 367.545285 129.332744  L 369.165807 129.249378  L 369.460448 129.265627  L 369.828749 129.224192  L 370.123389 129.232208  L 370.71267 129.207049  L 371.449271 129.189996  L 372.996134 129.114487  L 373.732735 129.089085  L 374.395676 129.047184  L 375.058617 129.03005  L 375.574238 129.004759  L 376.31084 128.979237  L 379.036264 128.877069  L 379.330905 128.860164  L 379.993846 128.834556  L 380.362146 128.800933  L 380.804107 128.792138  L 382.056329 128.757482  L 384.560774 128.646277  L 385.076394 128.628968  L 387.580839 128.533946  L 388.022799 128.491564  L 388.3911 128.499432  L 391.042865 128.395307  L 391.632146 128.360928  L 392.074106 128.360288  L 394.873191 128.246929  L 395.462472 128.212374  L 395.757113 128.228741  L 397.156655 128.159178  L 397.598616 128.15004  L 398.261557 128.115244  L 399.071818 128.071727  L 399.071818 128.071727  "
           style="fill:none;stroke:#00bfbf;stroke-dasharray:2.96,1.28;stroke-dashoffset:0;stroke-width:0.8;"
           id="path449" />
      </g>
      <g
         id="patch_8">
        <path
           d="M 79.49 233.48125  L 79.49 124.76125  "
           style="fill:none;stroke:#000000;stroke-linecap:square;stroke-linejoin:miter;stroke-width:0.8;"
           id="path452" />
      </g>
      <g
         id="patch_9">
        <path
           d="M 414.29 233.48125  L 414.29 124.76125  "
           style="fill:none;stroke:#000000;stroke-linecap:square;stroke-linejoin:miter;stroke-width:0.8;"
           id="path455" />
      </g>
      <g
         id="patch_10">
        <path
           d="M 79.49 233.48125  L 414.29 233.48125  "
           style="fill:none;stroke:#000000;stroke-linecap:square;stroke-linejoin:miter;stroke-width:0.8;"
           id="path458" />
      </g>
      <g
         id="patch_11">
        <path
           d="M 79.49 124.76125  L 414.29 124.76125  "
           style="fill:none;stroke:#000000;stroke-linecap:square;stroke-linejoin:miter;stroke-width:0.8;"
           id="path461" />
      </g>
      <g
         id="legend_1">
        <g
           id="patch_12">
          <path
             d="M 218.92206 227.92925  L 406.5172 227.92925  Q 408.738 227.92925 408.738 225.70845  L 408.738 194.22167  Q 408.738 192.00087 406.5172 192.00087  L 218.92206 192.00087  Q 216.70126 192.00087 216.70126 194.22167  L 216.70126 225.70845  Q 216.70126 227.92925 218.92206 227.92925  z "
             style="fill:#ffffff;opacity:0.8;stroke:#cccccc;stroke-linejoin:miter;"
             id="path464" />
        </g>
        <g
           id="line2d_37">
          <path
             d="M 221.14286 200.993375  L 243.35086 200.993375  "
             style="fill:none;stroke:#0000ff;stroke-dasharray:2.96,1.28;stroke-dashoffset:0;stroke-width:0.8;"
             id="path467" />
        </g>
        <g
           id="line2d_38" />
        <g
           id="text_14">
          <!-- LS-CVD -->
          <defs
             id="defs477">
            <path
               d="M 9.8125 72.90625  L 19.671875 72.90625  L 19.671875 8.296875  L 55.171875 8.296875  L 55.171875 0  L 9.8125 0  z "
               id="DejaVuSans-76" />
            <path
               d="M 53.515625 70.515625  L 53.515625 60.890625  Q 47.90625 63.578125 42.921875 64.890625  Q 37.9375 66.21875 33.296875 66.21875  Q 25.25 66.21875 20.875 63.09375  Q 16.5 59.96875 16.5 54.203125  Q 16.5 49.359375 19.40625 46.890625  Q 22.3125 44.4375 30.421875 42.921875  L 36.375 41.703125  Q 47.40625 39.59375 52.65625 34.296875  Q 57.90625 29 57.90625 20.125  Q 57.90625 9.515625 50.796875 4.046875  Q 43.703125 -1.421875 29.984375 -1.421875  Q 24.8125 -1.421875 18.96875 -0.25  Q 13.140625 0.921875 6.890625 3.21875  L 6.890625 13.375  Q 12.890625 10.015625 18.65625 8.296875  Q 24.421875 6.59375 29.984375 6.59375  Q 38.421875 6.59375 43.015625 9.90625  Q 47.609375 13.234375 47.609375 19.390625  Q 47.609375 24.75 44.3125 27.78125  Q 41.015625 30.8125 33.5 32.328125  L 27.484375 33.5  Q 16.453125 35.6875 11.515625 40.375  Q 6.59375 45.0625 6.59375 53.421875  Q 6.59375 63.09375 13.40625 68.65625  Q 20.21875 74.21875 32.171875 74.21875  Q 37.3125 74.21875 42.625 73.28125  Q 47.953125 72.359375 53.515625 70.515625  z "
               id="DejaVuSans-83" />
            <path
               d="M 4.890625 31.390625  L 31.203125 31.390625  L 31.203125 23.390625  L 4.890625 23.390625  z "
               id="DejaVuSans-45" />
            <path
               d="M 64.40625 67.28125  L 64.40625 56.890625  Q 59.421875 61.53125 53.78125 63.8125  Q 48.140625 66.109375 41.796875 66.109375  Q 29.296875 66.109375 22.65625 58.46875  Q 16.015625 50.828125 16.015625 36.375  Q 16.015625 21.96875 22.65625 14.328125  Q 29.296875 6.6875 41.796875 6.6875  Q 48.140625 6.6875 53.78125 8.984375  Q 59.421875 11.28125 64.40625 15.921875  L 64.40625 5.609375  Q 59.234375 2.09375 53.4375 0.328125  Q 47.65625 -1.421875 41.21875 -1.421875  Q 24.65625 -1.421875 15.125 8.703125  Q 5.609375 18.84375 5.609375 36.375  Q 5.609375 53.953125 15.125 64.078125  Q 24.65625 74.21875 41.21875 74.21875  Q 47.75 74.21875 53.53125 72.484375  Q 59.328125 70.75 64.40625 67.28125  z "
               id="DejaVuSans-67" />
            <path
               d="M 28.609375 0  L 0.78125 72.90625  L 11.078125 72.90625  L 34.1875 11.53125  L 57.328125 72.90625  L 67.578125 72.90625  L 39.796875 0  z "
               id="DejaVuSans-86" />
            <path
               d="M 19.671875 64.796875  L 19.671875 8.109375  L 31.59375 8.109375  Q 46.6875 8.109375 53.6875 14.9375  Q 60.6875 21.78125 60.6875 36.53125  Q 60.6875 51.171875 53.6875 57.984375  Q 46.6875 64.796875 31.59375 64.796875  z M 9.8125 72.90625  L 30.078125 72.90625  Q 51.265625 72.90625 61.171875 64.09375  Q 71.09375 55.28125 71.09375 36.53125  Q 71.09375 17.671875 61.125 8.828125  Q 51.171875 0 30.078125 0  L 9.8125 0  z "
               id="DejaVuSans-68" />
          </defs>
          <g
             transform="translate(252.23406 204.879775)scale(0.11104 -0.11104)"
             id="g491">
            <use
               xlink:href="#DejaVuSans-76"
               id="use479" />
            <use
               x="55.712891"
               xlink:href="#DejaVuSans-83"
               id="use481" />
            <use
               x="119.189453"
               xlink:href="#DejaVuSans-45"
               id="use483" />
            <use
               x="155.273438"
               xlink:href="#DejaVuSans-67"
               id="use485" />
            <use
               x="225.097656"
               xlink:href="#DejaVuSans-86"
               id="use487" />
            <use
               x="293.505859"
               xlink:href="#DejaVuSans-68"
               id="use489" />
          </g>
        </g>
        <g
           id="line2d_39">
          <path
             d="M 221.14286 217.291965  L 243.35086 217.291965  "
             style="fill:none;stroke:#008000;stroke-dasharray:2.96,1.28;stroke-dashoffset:0;stroke-width:0.8;"
             id="path494" />
        </g>
        <g
           id="line2d_40" />
        <g
           id="text_15">
          <!-- PE-CVD -->
          <defs
             id="defs500">
            <path
               d="M 19.671875 64.796875  L 19.671875 37.40625  L 32.078125 37.40625  Q 38.96875 37.40625 42.71875 40.96875  Q 46.484375 44.53125 46.484375 51.125  Q 46.484375 57.671875 42.71875 61.234375  Q 38.96875 64.796875 32.078125 64.796875  z M 9.8125 72.90625  L 32.078125 72.90625  Q 44.34375 72.90625 50.609375 67.359375  Q 56.890625 61.8125 56.890625 51.125  Q 56.890625 40.328125 50.609375 34.8125  Q 44.34375 29.296875 32.078125 29.296875  L 19.671875 29.296875  L 19.671875 0  L 9.8125 0  z "
               id="DejaVuSans-80" />
            <path
               d="M 9.8125 72.90625  L 55.90625 72.90625  L 55.90625 64.59375  L 19.671875 64.59375  L 19.671875 43.015625  L 54.390625 43.015625  L 54.390625 34.71875  L 19.671875 34.71875  L 19.671875 8.296875  L 56.78125 8.296875  L 56.78125 0  L 9.8125 0  z "
               id="DejaVuSans-69" />
          </defs>
          <g
             transform="translate(252.23406 221.178365)scale(0.11104 -0.11104)"
             id="g514">
            <use
               xlink:href="#DejaVuSans-80"
               id="use502" />
            <use
               x="60.302734"
               xlink:href="#DejaVuSans-69"
               id="use504" />
            <use
               x="123.486328"
               xlink:href="#DejaVuSans-45"
               id="use506" />
            <use
               x="159.570312"
               xlink:href="#DejaVuSans-67"
               id="use508" />
            <use
               x="229.394531"
               xlink:href="#DejaVuSans-86"
               id="use510" />
            <use
               x="297.802734"
               xlink:href="#DejaVuSans-68"
               id="use512" />
          </g>
        </g>
        <g
           id="line2d_41">
          <path
             d="M 316.059505 200.993375  L 338.267505 200.993375  "
             style="fill:none;stroke:#ff0000;stroke-dasharray:2.96,1.28;stroke-dashoffset:0;stroke-width:0.8;"
             id="path517" />
        </g>
        <g
           id="line2d_42" />
        <g
           id="text_16">
          <!-- sputtering -->
          <defs
             id="defs522">
            <path
               d="M 8.5 21.578125  L 8.5 54.6875  L 17.484375 54.6875  L 17.484375 21.921875  Q 17.484375 14.15625 20.5 10.265625  Q 23.53125 6.390625 29.59375 6.390625  Q 36.859375 6.390625 41.078125 11.03125  Q 45.3125 15.671875 45.3125 23.6875  L 45.3125 54.6875  L 54.296875 54.6875  L 54.296875 0  L 45.3125 0  L 45.3125 8.40625  Q 42.046875 3.421875 37.71875 1  Q 33.40625 -1.421875 27.6875 -1.421875  Q 18.265625 -1.421875 13.375 4.4375  Q 8.5 10.296875 8.5 21.578125  z M 31.109375 56  z "
               id="DejaVuSans-117" />
          </defs>
          <g
             transform="translate(347.150705 204.879775)scale(0.11104 -0.11104)"
             id="g544">
            <use
               xlink:href="#DejaVuSans-115"
               id="use524" />
            <use
               x="52.099609"
               xlink:href="#DejaVuSans-112"
               id="use526" />
            <use
               x="115.576172"
               xlink:href="#DejaVuSans-117"
               id="use528" />
            <use
               x="178.955078"
               xlink:href="#DejaVuSans-116"
               id="use530" />
            <use
               x="218.164062"
               xlink:href="#DejaVuSans-116"
               id="use532" />
            <use
               x="257.373047"
               xlink:href="#DejaVuSans-101"
               id="use534" />
            <use
               x="318.896484"
               xlink:href="#DejaVuSans-114"
               id="use536" />
            <use
               x="360.009766"
               xlink:href="#DejaVuSans-105"
               id="use538" />
            <use
               x="387.792969"
               xlink:href="#DejaVuSans-110"
               id="use540" />
            <use
               x="451.171875"
               xlink:href="#DejaVuSans-103"
               id="use542" />
          </g>
        </g>
        <g
           id="line2d_43">
          <path
             d="M 316.059505 217.291965  L 338.267505 217.291965  "
             style="fill:none;stroke:#00bfbf;stroke-dasharray:2.96,1.28;stroke-dashoffset:0;stroke-width:0.8;"
             id="path547" />
        </g>
        <g
           id="line2d_44" />
        <g
           id="text_17">
          <!-- LP-CVD -->
          <g
             transform="translate(347.150705 221.178365)scale(0.11104 -0.11104)"
             id="g563">
            <use
               xlink:href="#DejaVuSans-76"
               id="use551" />
            <use
               x="55.712891"
               xlink:href="#DejaVuSans-80"
               id="use553" />
            <use
               x="115.984375"
               xlink:href="#DejaVuSans-45"
               id="use555" />
            <use
               x="152.068359"
               xlink:href="#DejaVuSans-67"
               id="use557" />
            <use
               x="221.892578"
               xlink:href="#DejaVuSans-86"
               id="use559" />
            <use
               x="290.300781"
               xlink:href="#DejaVuSans-68"
               id="use561" />
          </g>
        </g>
      </g>
    </g>
  </g>
  <defs
     id="defs575">
    <clipPath
       id="pc77b9c6652">
      <rect
         height="108.72"
         width="334.8"
         x="79.49"
         y="16.04125"
         id="rect569" />
    </clipPath>
    <clipPath
       id="pf2c08ec49a">
      <rect
         height="108.72"
         width="334.8"
         x="79.49"
         y="124.76125"
         id="rect572" />
    </clipPath>
  </defs>
</svg>
