<?xml version="1.0" encoding="utf-8" standalone="no"?>
<!DOCTYPE svg PUBLIC "-//W3C//DTD SVG 1.1//EN"
  "http://www.w3.org/Graphics/SVG/1.1/DTD/svg11.dtd">
<!-- Created with matplotlib (https://matplotlib.org/) -->
<svg height="333.57pt" version="1.1" viewBox="0 0 475.4675 333.57" width="475.4675pt" xmlns="http://www.w3.org/2000/svg" xmlns:xlink="http://www.w3.org/1999/xlink">
 <defs>
  <style type="text/css">
*{stroke-linecap:butt;stroke-linejoin:round;white-space:pre;}
  </style>
 </defs>
 <g id="figure_1">
  <g id="patch_1">
   <path d="M 0 333.57 
L 475.4675 333.57 
L 475.4675 0 
L 0 0 
z
" style="fill:none;"/>
  </g>
  <g id="axes_1">
   <g id="patch_2">
    <path d="M 77.6675 145.8 
L 468.2675 145.8 
L 468.2675 7.2 
L 77.6675 7.2 
z
" style="fill:none;"/>
   </g>
   <g id="matplotlib.axis_1">
    <g id="xtick_1">
     <g id="line2d_1">
      <path clip-path="url(#ped3b80f20e)" d="M 147.121632 145.8 
L 147.121632 7.2 
" style="fill:none;stroke:#b0b0b0;stroke-dasharray:0.8,1.32;stroke-dashoffset:0;stroke-width:0.8;"/>
     </g>
     <g id="line2d_2">
      <defs>
       <path d="M 0 0 
L 0 3.5 
" id="m06284cabeb" style="stroke:#000000;stroke-width:0.8;"/>
      </defs>
      <g>
       <use style="stroke:#000000;stroke-width:0.8;" x="147.121632" xlink:href="#m06284cabeb" y="145.8"/>
      </g>
     </g>
    </g>
    <g id="xtick_2">
     <g id="line2d_3">
      <path clip-path="url(#ped3b80f20e)" d="M 233.058444 145.8 
L 233.058444 7.2 
" style="fill:none;stroke:#b0b0b0;stroke-dasharray:0.8,1.32;stroke-dashoffset:0;stroke-width:0.8;"/>
     </g>
     <g id="line2d_4">
      <g>
       <use style="stroke:#000000;stroke-width:0.8;" x="233.058444" xlink:href="#m06284cabeb" y="145.8"/>
      </g>
     </g>
    </g>
    <g id="xtick_3">
     <g id="line2d_5">
      <path clip-path="url(#ped3b80f20e)" d="M 318.995257 145.8 
L 318.995257 7.2 
" style="fill:none;stroke:#b0b0b0;stroke-dasharray:0.8,1.32;stroke-dashoffset:0;stroke-width:0.8;"/>
     </g>
     <g id="line2d_6">
      <g>
       <use style="stroke:#000000;stroke-width:0.8;" x="318.995257" xlink:href="#m06284cabeb" y="145.8"/>
      </g>
     </g>
    </g>
    <g id="xtick_4">
     <g id="line2d_7">
      <path clip-path="url(#ped3b80f20e)" d="M 404.932069 145.8 
L 404.932069 7.2 
" style="fill:none;stroke:#b0b0b0;stroke-dasharray:0.8,1.32;stroke-dashoffset:0;stroke-width:0.8;"/>
     </g>
     <g id="line2d_8">
      <g>
       <use style="stroke:#000000;stroke-width:0.8;" x="404.932069" xlink:href="#m06284cabeb" y="145.8"/>
      </g>
     </g>
    </g>
   </g>
   <g id="matplotlib.axis_2">
    <g id="ytick_1">
     <g id="line2d_9">
      <path clip-path="url(#ped3b80f20e)" d="M 77.6675 116.004092 
L 468.2675 116.004092 
" style="fill:none;stroke:#b0b0b0;stroke-dasharray:0.8,1.32;stroke-dashoffset:0;stroke-width:0.8;"/>
     </g>
     <g id="line2d_10">
      <defs>
       <path d="M 0 0 
L -3.5 0 
" id="m72a3734e6a" style="stroke:#000000;stroke-width:0.8;"/>
      </defs>
      <g>
       <use style="stroke:#000000;stroke-width:0.8;" x="77.6675" xlink:href="#m72a3734e6a" y="116.004092"/>
      </g>
     </g>
     <g id="text_1">
      <!-- 1.96 -->
      <defs>
       <path d="M 12.40625 8.296875 
L 28.515625 8.296875 
L 28.515625 63.921875 
L 10.984375 60.40625 
L 10.984375 69.390625 
L 28.421875 72.90625 
L 38.28125 72.90625 
L 38.28125 8.296875 
L 54.390625 8.296875 
L 54.390625 0 
L 12.40625 0 
z
" id="DejaVuSans-49"/>
       <path d="M 10.6875 12.40625 
L 21 12.40625 
L 21 0 
L 10.6875 0 
z
" id="DejaVuSans-46"/>
       <path d="M 10.984375 1.515625 
L 10.984375 10.5 
Q 14.703125 8.734375 18.5 7.8125 
Q 22.3125 6.890625 25.984375 6.890625 
Q 35.75 6.890625 40.890625 13.453125 
Q 46.046875 20.015625 46.78125 33.40625 
Q 43.953125 29.203125 39.59375 26.953125 
Q 35.25 24.703125 29.984375 24.703125 
Q 19.046875 24.703125 12.671875 31.3125 
Q 6.296875 37.9375 6.296875 49.421875 
Q 6.296875 60.640625 12.9375 67.421875 
Q 19.578125 74.21875 30.609375 74.21875 
Q 43.265625 74.21875 49.921875 64.515625 
Q 56.59375 54.828125 56.59375 36.375 
Q 56.59375 19.140625 48.40625 8.859375 
Q 40.234375 -1.421875 26.421875 -1.421875 
Q 22.703125 -1.421875 18.890625 -0.6875 
Q 15.09375 0.046875 10.984375 1.515625 
z
M 30.609375 32.421875 
Q 37.25 32.421875 41.125 36.953125 
Q 45.015625 41.5 45.015625 49.421875 
Q 45.015625 57.28125 41.125 61.84375 
Q 37.25 66.40625 30.609375 66.40625 
Q 23.96875 66.40625 20.09375 61.84375 
Q 16.21875 57.28125 16.21875 49.421875 
Q 16.21875 41.5 20.09375 36.953125 
Q 23.96875 32.421875 30.609375 32.421875 
z
" id="DejaVuSans-57"/>
       <path d="M 33.015625 40.375 
Q 26.375 40.375 22.484375 35.828125 
Q 18.609375 31.296875 18.609375 23.390625 
Q 18.609375 15.53125 22.484375 10.953125 
Q 26.375 6.390625 33.015625 6.390625 
Q 39.65625 6.390625 43.53125 10.953125 
Q 47.40625 15.53125 47.40625 23.390625 
Q 47.40625 31.296875 43.53125 35.828125 
Q 39.65625 40.375 33.015625 40.375 
z
M 52.59375 71.296875 
L 52.59375 62.3125 
Q 48.875 64.0625 45.09375 64.984375 
Q 41.3125 65.921875 37.59375 65.921875 
Q 27.828125 65.921875 22.671875 59.328125 
Q 17.53125 52.734375 16.796875 39.40625 
Q 19.671875 43.65625 24.015625 45.921875 
Q 28.375 48.1875 33.59375 48.1875 
Q 44.578125 48.1875 50.953125 41.515625 
Q 57.328125 34.859375 57.328125 23.390625 
Q 57.328125 12.15625 50.6875 5.359375 
Q 44.046875 -1.421875 33.015625 -1.421875 
Q 20.359375 -1.421875 13.671875 8.265625 
Q 6.984375 17.96875 6.984375 36.375 
Q 6.984375 53.65625 15.1875 63.9375 
Q 23.390625 74.21875 37.203125 74.21875 
Q 40.921875 74.21875 44.703125 73.484375 
Q 48.484375 72.75 52.59375 71.296875 
z
" id="DejaVuSans-54"/>
      </defs>
      <g transform="translate(35.0425 122.082842)scale(0.16 -0.16)">
       <use xlink:href="#DejaVuSans-49"/>
       <use x="63.623047" xlink:href="#DejaVuSans-46"/>
       <use x="95.410156" xlink:href="#DejaVuSans-57"/>
       <use x="159.033203" xlink:href="#DejaVuSans-54"/>
      </g>
     </g>
    </g>
    <g id="ytick_2">
     <g id="line2d_11">
      <path clip-path="url(#ped3b80f20e)" d="M 77.6675 70.707763 
L 468.2675 70.707763 
" style="fill:none;stroke:#b0b0b0;stroke-dasharray:0.8,1.32;stroke-dashoffset:0;stroke-width:0.8;"/>
     </g>
     <g id="line2d_12">
      <g>
       <use style="stroke:#000000;stroke-width:0.8;" x="77.6675" xlink:href="#m72a3734e6a" y="70.707763"/>
      </g>
     </g>
     <g id="text_2">
      <!-- 1.98 -->
      <defs>
       <path d="M 31.78125 34.625 
Q 24.75 34.625 20.71875 30.859375 
Q 16.703125 27.09375 16.703125 20.515625 
Q 16.703125 13.921875 20.71875 10.15625 
Q 24.75 6.390625 31.78125 6.390625 
Q 38.8125 6.390625 42.859375 10.171875 
Q 46.921875 13.96875 46.921875 20.515625 
Q 46.921875 27.09375 42.890625 30.859375 
Q 38.875 34.625 31.78125 34.625 
z
M 21.921875 38.8125 
Q 15.578125 40.375 12.03125 44.71875 
Q 8.5 49.078125 8.5 55.328125 
Q 8.5 64.0625 14.71875 69.140625 
Q 20.953125 74.21875 31.78125 74.21875 
Q 42.671875 74.21875 48.875 69.140625 
Q 55.078125 64.0625 55.078125 55.328125 
Q 55.078125 49.078125 51.53125 44.71875 
Q 48 40.375 41.703125 38.8125 
Q 48.828125 37.15625 52.796875 32.3125 
Q 56.78125 27.484375 56.78125 20.515625 
Q 56.78125 9.90625 50.3125 4.234375 
Q 43.84375 -1.421875 31.78125 -1.421875 
Q 19.734375 -1.421875 13.25 4.234375 
Q 6.78125 9.90625 6.78125 20.515625 
Q 6.78125 27.484375 10.78125 32.3125 
Q 14.796875 37.15625 21.921875 38.8125 
z
M 18.3125 54.390625 
Q 18.3125 48.734375 21.84375 45.5625 
Q 25.390625 42.390625 31.78125 42.390625 
Q 38.140625 42.390625 41.71875 45.5625 
Q 45.3125 48.734375 45.3125 54.390625 
Q 45.3125 60.0625 41.71875 63.234375 
Q 38.140625 66.40625 31.78125 66.40625 
Q 25.390625 66.40625 21.84375 63.234375 
Q 18.3125 60.0625 18.3125 54.390625 
z
" id="DejaVuSans-56"/>
      </defs>
      <g transform="translate(35.0425 76.786513)scale(0.16 -0.16)">
       <use xlink:href="#DejaVuSans-49"/>
       <use x="63.623047" xlink:href="#DejaVuSans-46"/>
       <use x="95.410156" xlink:href="#DejaVuSans-57"/>
       <use x="159.033203" xlink:href="#DejaVuSans-56"/>
      </g>
     </g>
    </g>
    <g id="ytick_3">
     <g id="line2d_13">
      <path clip-path="url(#ped3b80f20e)" d="M 77.6675 25.411435 
L 468.2675 25.411435 
" style="fill:none;stroke:#b0b0b0;stroke-dasharray:0.8,1.32;stroke-dashoffset:0;stroke-width:0.8;"/>
     </g>
     <g id="line2d_14">
      <g>
       <use style="stroke:#000000;stroke-width:0.8;" x="77.6675" xlink:href="#m72a3734e6a" y="25.411435"/>
      </g>
     </g>
     <g id="text_3">
      <!-- 2.00 -->
      <defs>
       <path d="M 19.1875 8.296875 
L 53.609375 8.296875 
L 53.609375 0 
L 7.328125 0 
L 7.328125 8.296875 
Q 12.9375 14.109375 22.625 23.890625 
Q 32.328125 33.6875 34.8125 36.53125 
Q 39.546875 41.84375 41.421875 45.53125 
Q 43.3125 49.21875 43.3125 52.78125 
Q 43.3125 58.59375 39.234375 62.25 
Q 35.15625 65.921875 28.609375 65.921875 
Q 23.96875 65.921875 18.8125 64.3125 
Q 13.671875 62.703125 7.8125 59.421875 
L 7.8125 69.390625 
Q 13.765625 71.78125 18.9375 73 
Q 24.125 74.21875 28.421875 74.21875 
Q 39.75 74.21875 46.484375 68.546875 
Q 53.21875 62.890625 53.21875 53.421875 
Q 53.21875 48.921875 51.53125 44.890625 
Q 49.859375 40.875 45.40625 35.40625 
Q 44.1875 33.984375 37.640625 27.21875 
Q 31.109375 20.453125 19.1875 8.296875 
z
" id="DejaVuSans-50"/>
       <path d="M 31.78125 66.40625 
Q 24.171875 66.40625 20.328125 58.90625 
Q 16.5 51.421875 16.5 36.375 
Q 16.5 21.390625 20.328125 13.890625 
Q 24.171875 6.390625 31.78125 6.390625 
Q 39.453125 6.390625 43.28125 13.890625 
Q 47.125 21.390625 47.125 36.375 
Q 47.125 51.421875 43.28125 58.90625 
Q 39.453125 66.40625 31.78125 66.40625 
z
M 31.78125 74.21875 
Q 44.046875 74.21875 50.515625 64.515625 
Q 56.984375 54.828125 56.984375 36.375 
Q 56.984375 17.96875 50.515625 8.265625 
Q 44.046875 -1.421875 31.78125 -1.421875 
Q 19.53125 -1.421875 13.0625 8.265625 
Q 6.59375 17.96875 6.59375 36.375 
Q 6.59375 54.828125 13.0625 64.515625 
Q 19.53125 74.21875 31.78125 74.21875 
z
" id="DejaVuSans-48"/>
      </defs>
      <g transform="translate(35.0425 31.490185)scale(0.16 -0.16)">
       <use xlink:href="#DejaVuSans-50"/>
       <use x="63.623047" xlink:href="#DejaVuSans-46"/>
       <use x="95.410156" xlink:href="#DejaVuSans-48"/>
       <use x="159.033203" xlink:href="#DejaVuSans-48"/>
      </g>
     </g>
    </g>
    <g id="text_4">
     <!-- refractive index -->
     <defs>
      <path d="M 41.109375 46.296875 
Q 39.59375 47.171875 37.8125 47.578125 
Q 36.03125 48 33.890625 48 
Q 26.265625 48 22.1875 43.046875 
Q 18.109375 38.09375 18.109375 28.8125 
L 18.109375 0 
L 9.078125 0 
L 9.078125 54.6875 
L 18.109375 54.6875 
L 18.109375 46.1875 
Q 20.953125 51.171875 25.484375 53.578125 
Q 30.03125 56 36.53125 56 
Q 37.453125 56 38.578125 55.875 
Q 39.703125 55.765625 41.0625 55.515625 
z
" id="DejaVuSans-114"/>
      <path d="M 56.203125 29.59375 
L 56.203125 25.203125 
L 14.890625 25.203125 
Q 15.484375 15.921875 20.484375 11.0625 
Q 25.484375 6.203125 34.421875 6.203125 
Q 39.59375 6.203125 44.453125 7.46875 
Q 49.3125 8.734375 54.109375 11.28125 
L 54.109375 2.78125 
Q 49.265625 0.734375 44.1875 -0.34375 
Q 39.109375 -1.421875 33.890625 -1.421875 
Q 20.796875 -1.421875 13.15625 6.1875 
Q 5.515625 13.8125 5.515625 26.8125 
Q 5.515625 40.234375 12.765625 48.109375 
Q 20.015625 56 32.328125 56 
Q 43.359375 56 49.78125 48.890625 
Q 56.203125 41.796875 56.203125 29.59375 
z
M 47.21875 32.234375 
Q 47.125 39.59375 43.09375 43.984375 
Q 39.0625 48.390625 32.421875 48.390625 
Q 24.90625 48.390625 20.390625 44.140625 
Q 15.875 39.890625 15.1875 32.171875 
z
" id="DejaVuSans-101"/>
      <path d="M 37.109375 75.984375 
L 37.109375 68.5 
L 28.515625 68.5 
Q 23.6875 68.5 21.796875 66.546875 
Q 19.921875 64.59375 19.921875 59.515625 
L 19.921875 54.6875 
L 34.71875 54.6875 
L 34.71875 47.703125 
L 19.921875 47.703125 
L 19.921875 0 
L 10.890625 0 
L 10.890625 47.703125 
L 2.296875 47.703125 
L 2.296875 54.6875 
L 10.890625 54.6875 
L 10.890625 58.5 
Q 10.890625 67.625 15.140625 71.796875 
Q 19.390625 75.984375 28.609375 75.984375 
z
" id="DejaVuSans-102"/>
      <path d="M 34.28125 27.484375 
Q 23.390625 27.484375 19.1875 25 
Q 14.984375 22.515625 14.984375 16.5 
Q 14.984375 11.71875 18.140625 8.90625 
Q 21.296875 6.109375 26.703125 6.109375 
Q 34.1875 6.109375 38.703125 11.40625 
Q 43.21875 16.703125 43.21875 25.484375 
L 43.21875 27.484375 
z
M 52.203125 31.203125 
L 52.203125 0 
L 43.21875 0 
L 43.21875 8.296875 
Q 40.140625 3.328125 35.546875 0.953125 
Q 30.953125 -1.421875 24.3125 -1.421875 
Q 15.921875 -1.421875 10.953125 3.296875 
Q 6 8.015625 6 15.921875 
Q 6 25.140625 12.171875 29.828125 
Q 18.359375 34.515625 30.609375 34.515625 
L 43.21875 34.515625 
L 43.21875 35.40625 
Q 43.21875 41.609375 39.140625 45 
Q 35.0625 48.390625 27.6875 48.390625 
Q 23 48.390625 18.546875 47.265625 
Q 14.109375 46.140625 10.015625 43.890625 
L 10.015625 52.203125 
Q 14.9375 54.109375 19.578125 55.046875 
Q 24.21875 56 28.609375 56 
Q 40.484375 56 46.34375 49.84375 
Q 52.203125 43.703125 52.203125 31.203125 
z
" id="DejaVuSans-97"/>
      <path d="M 48.78125 52.59375 
L 48.78125 44.1875 
Q 44.96875 46.296875 41.140625 47.34375 
Q 37.3125 48.390625 33.40625 48.390625 
Q 24.65625 48.390625 19.8125 42.84375 
Q 14.984375 37.3125 14.984375 27.296875 
Q 14.984375 17.28125 19.8125 11.734375 
Q 24.65625 6.203125 33.40625 6.203125 
Q 37.3125 6.203125 41.140625 7.25 
Q 44.96875 8.296875 48.78125 10.40625 
L 48.78125 2.09375 
Q 45.015625 0.34375 40.984375 -0.53125 
Q 36.96875 -1.421875 32.421875 -1.421875 
Q 20.0625 -1.421875 12.78125 6.34375 
Q 5.515625 14.109375 5.515625 27.296875 
Q 5.515625 40.671875 12.859375 48.328125 
Q 20.21875 56 33.015625 56 
Q 37.15625 56 41.109375 55.140625 
Q 45.0625 54.296875 48.78125 52.59375 
z
" id="DejaVuSans-99"/>
      <path d="M 18.3125 70.21875 
L 18.3125 54.6875 
L 36.8125 54.6875 
L 36.8125 47.703125 
L 18.3125 47.703125 
L 18.3125 18.015625 
Q 18.3125 11.328125 20.140625 9.421875 
Q 21.96875 7.515625 27.59375 7.515625 
L 36.8125 7.515625 
L 36.8125 0 
L 27.59375 0 
Q 17.1875 0 13.234375 3.875 
Q 9.28125 7.765625 9.28125 18.015625 
L 9.28125 47.703125 
L 2.6875 47.703125 
L 2.6875 54.6875 
L 9.28125 54.6875 
L 9.28125 70.21875 
z
" id="DejaVuSans-116"/>
      <path d="M 9.421875 54.6875 
L 18.40625 54.6875 
L 18.40625 0 
L 9.421875 0 
z
M 9.421875 75.984375 
L 18.40625 75.984375 
L 18.40625 64.59375 
L 9.421875 64.59375 
z
" id="DejaVuSans-105"/>
      <path d="M 2.984375 54.6875 
L 12.5 54.6875 
L 29.59375 8.796875 
L 46.6875 54.6875 
L 56.203125 54.6875 
L 35.6875 0 
L 23.484375 0 
z
" id="DejaVuSans-118"/>
      <path id="DejaVuSans-32"/>
      <path d="M 54.890625 33.015625 
L 54.890625 0 
L 45.90625 0 
L 45.90625 32.71875 
Q 45.90625 40.484375 42.875 44.328125 
Q 39.84375 48.1875 33.796875 48.1875 
Q 26.515625 48.1875 22.3125 43.546875 
Q 18.109375 38.921875 18.109375 30.90625 
L 18.109375 0 
L 9.078125 0 
L 9.078125 54.6875 
L 18.109375 54.6875 
L 18.109375 46.1875 
Q 21.34375 51.125 25.703125 53.5625 
Q 30.078125 56 35.796875 56 
Q 45.21875 56 50.046875 50.171875 
Q 54.890625 44.34375 54.890625 33.015625 
z
" id="DejaVuSans-110"/>
      <path d="M 45.40625 46.390625 
L 45.40625 75.984375 
L 54.390625 75.984375 
L 54.390625 0 
L 45.40625 0 
L 45.40625 8.203125 
Q 42.578125 3.328125 38.25 0.953125 
Q 33.9375 -1.421875 27.875 -1.421875 
Q 17.96875 -1.421875 11.734375 6.484375 
Q 5.515625 14.40625 5.515625 27.296875 
Q 5.515625 40.1875 11.734375 48.09375 
Q 17.96875 56 27.875 56 
Q 33.9375 56 38.25 53.625 
Q 42.578125 51.265625 45.40625 46.390625 
z
M 14.796875 27.296875 
Q 14.796875 17.390625 18.875 11.75 
Q 22.953125 6.109375 30.078125 6.109375 
Q 37.203125 6.109375 41.296875 11.75 
Q 45.40625 17.390625 45.40625 27.296875 
Q 45.40625 37.203125 41.296875 42.84375 
Q 37.203125 48.484375 30.078125 48.484375 
Q 22.953125 48.484375 18.875 42.84375 
Q 14.796875 37.203125 14.796875 27.296875 
z
" id="DejaVuSans-100"/>
      <path d="M 54.890625 54.6875 
L 35.109375 28.078125 
L 55.90625 0 
L 45.3125 0 
L 29.390625 21.484375 
L 13.484375 0 
L 2.875 0 
L 24.125 28.609375 
L 4.6875 54.6875 
L 15.28125 54.6875 
L 29.78125 35.203125 
L 44.28125 54.6875 
z
" id="DejaVuSans-120"/>
     </defs>
     <g transform="translate(27.715 139.70125)rotate(-90)scale(0.16 -0.16)">
      <use xlink:href="#DejaVuSans-114"/>
      <use x="41.082031" xlink:href="#DejaVuSans-101"/>
      <use x="102.605469" xlink:href="#DejaVuSans-102"/>
      <use x="137.810547" xlink:href="#DejaVuSans-114"/>
      <use x="178.923828" xlink:href="#DejaVuSans-97"/>
      <use x="240.203125" xlink:href="#DejaVuSans-99"/>
      <use x="295.183594" xlink:href="#DejaVuSans-116"/>
      <use x="334.392578" xlink:href="#DejaVuSans-105"/>
      <use x="362.175781" xlink:href="#DejaVuSans-118"/>
      <use x="421.355469" xlink:href="#DejaVuSans-101"/>
      <use x="482.878906" xlink:href="#DejaVuSans-32"/>
      <use x="514.666016" xlink:href="#DejaVuSans-105"/>
      <use x="542.449219" xlink:href="#DejaVuSans-110"/>
      <use x="605.828125" xlink:href="#DejaVuSans-100"/>
      <use x="669.304688" xlink:href="#DejaVuSans-101"/>
      <use x="730.8125" xlink:href="#DejaVuSans-120"/>
     </g>
    </g>
   </g>
   <g id="line2d_15">
    <path clip-path="url(#ped3b80f20e)" d="M 95.422045 78.548743 
L 124.984309 81.134605 
L 156.265309 83.645998 
L 189.436918 86.084463 
L 224.671011 88.449872 
L 262.225398 90.745877 
L 302.271953 92.968893 
L 345.068486 95.119155 
L 390.872807 97.19529 
L 440.028663 99.198187 
L 450.512955 99.598236 
L 450.512955 99.598236 
" style="fill:none;stroke:#0000ff;stroke-linecap:square;stroke-width:0.8;"/>
   </g>
   <g id="line2d_16">
    <path clip-path="url(#ped3b80f20e)" d="M 95.422045 14.195318 
L 124.382751 16.822658 
L 155.062193 19.38024 
L 187.546308 21.862745 
L 222.00697 24.271068 
L 258.616052 26.604652 
L 297.631365 28.866655 
L 339.310719 31.057783 
L 383.825988 33.173042 
L 431.606856 35.21822 
L 450.512955 35.969883 
L 450.512955 35.969883 
" style="fill:none;stroke:#008000;stroke-linecap:square;stroke-width:0.8;"/>
   </g>
   <g id="line2d_17">
    <path clip-path="url(#ped3b80f20e)" d="M 95.422045 116.775071 
L 129.79677 119.684439 
L 166.491789 122.564496 
L 205.764913 125.421292 
L 247.873951 128.258961 
L 293.162651 131.085513 
L 341.97476 133.906701 
L 394.8259 136.735663 
L 450.512955 139.5 
L 450.512955 139.5 
" style="fill:none;stroke:#ff0000;stroke-linecap:square;stroke-width:0.8;"/>
   </g>
   <g id="line2d_18">
    <path clip-path="url(#ped3b80f20e)" d="M 95.422045 13.5 
L 155.14813 18.278271 
L 228.967852 23.951103 
L 332.951395 31.699335 
L 450.512955 40.354771 
L 450.512955 40.354771 
" style="fill:none;stroke:#00bfbf;stroke-linecap:square;stroke-width:0.8;"/>
   </g>
   <g id="patch_3">
    <path d="M 77.6675 145.8 
L 77.6675 7.2 
" style="fill:none;stroke:#000000;stroke-linecap:square;stroke-linejoin:miter;stroke-width:0.8;"/>
   </g>
   <g id="patch_4">
    <path d="M 468.2675 145.8 
L 468.2675 7.2 
" style="fill:none;stroke:#000000;stroke-linecap:square;stroke-linejoin:miter;stroke-width:0.8;"/>
   </g>
   <g id="patch_5">
    <path d="M 77.6675 145.8 
L 468.2675 145.8 
" style="fill:none;stroke:#000000;stroke-linecap:square;stroke-linejoin:miter;stroke-width:0.8;"/>
   </g>
   <g id="patch_6">
    <path d="M 77.6675 7.2 
L 468.2675 7.2 
" style="fill:none;stroke:#000000;stroke-linecap:square;stroke-linejoin:miter;stroke-width:0.8;"/>
   </g>
  </g>
  <g id="axes_2">
   <g id="patch_7">
    <path d="M 77.6675 284.4 
L 468.2675 284.4 
L 468.2675 145.8 
L 77.6675 145.8 
z
" style="fill:none;"/>
   </g>
   <g id="matplotlib.axis_3">
    <g id="xtick_5">
     <g id="line2d_19">
      <path clip-path="url(#p8189833fb3)" d="M 147.121632 284.4 
L 147.121632 145.8 
" style="fill:none;stroke:#b0b0b0;stroke-dasharray:0.8,1.32;stroke-dashoffset:0;stroke-width:0.8;"/>
     </g>
     <g id="line2d_20">
      <g>
       <use style="stroke:#000000;stroke-width:0.8;" x="147.121632" xlink:href="#m06284cabeb" y="284.4"/>
      </g>
     </g>
     <g id="text_5">
      <!-- 1300 -->
      <defs>
       <path d="M 40.578125 39.3125 
Q 47.65625 37.796875 51.625 33 
Q 55.609375 28.21875 55.609375 21.1875 
Q 55.609375 10.40625 48.1875 4.484375 
Q 40.765625 -1.421875 27.09375 -1.421875 
Q 22.515625 -1.421875 17.65625 -0.515625 
Q 12.796875 0.390625 7.625 2.203125 
L 7.625 11.71875 
Q 11.71875 9.328125 16.59375 8.109375 
Q 21.484375 6.890625 26.8125 6.890625 
Q 36.078125 6.890625 40.9375 10.546875 
Q 45.796875 14.203125 45.796875 21.1875 
Q 45.796875 27.640625 41.28125 31.265625 
Q 36.765625 34.90625 28.71875 34.90625 
L 20.21875 34.90625 
L 20.21875 43.015625 
L 29.109375 43.015625 
Q 36.375 43.015625 40.234375 45.921875 
Q 44.09375 48.828125 44.09375 54.296875 
Q 44.09375 59.90625 40.109375 62.90625 
Q 36.140625 65.921875 28.71875 65.921875 
Q 24.65625 65.921875 20.015625 65.03125 
Q 15.375 64.15625 9.8125 62.3125 
L 9.8125 71.09375 
Q 15.4375 72.65625 20.34375 73.4375 
Q 25.25 74.21875 29.59375 74.21875 
Q 40.828125 74.21875 47.359375 69.109375 
Q 53.90625 64.015625 53.90625 55.328125 
Q 53.90625 49.265625 50.4375 45.09375 
Q 46.96875 40.921875 40.578125 39.3125 
z
" id="DejaVuSans-51"/>
      </defs>
      <g transform="translate(126.761632 303.5575)scale(0.16 -0.16)">
       <use xlink:href="#DejaVuSans-49"/>
       <use x="63.623047" xlink:href="#DejaVuSans-51"/>
       <use x="127.246094" xlink:href="#DejaVuSans-48"/>
       <use x="190.869141" xlink:href="#DejaVuSans-48"/>
      </g>
     </g>
    </g>
    <g id="xtick_6">
     <g id="line2d_21">
      <path clip-path="url(#p8189833fb3)" d="M 233.058444 284.4 
L 233.058444 145.8 
" style="fill:none;stroke:#b0b0b0;stroke-dasharray:0.8,1.32;stroke-dashoffset:0;stroke-width:0.8;"/>
     </g>
     <g id="line2d_22">
      <g>
       <use style="stroke:#000000;stroke-width:0.8;" x="233.058444" xlink:href="#m06284cabeb" y="284.4"/>
      </g>
     </g>
     <g id="text_6">
      <!-- 1400 -->
      <defs>
       <path d="M 37.796875 64.3125 
L 12.890625 25.390625 
L 37.796875 25.390625 
z
M 35.203125 72.90625 
L 47.609375 72.90625 
L 47.609375 25.390625 
L 58.015625 25.390625 
L 58.015625 17.1875 
L 47.609375 17.1875 
L 47.609375 0 
L 37.796875 0 
L 37.796875 17.1875 
L 4.890625 17.1875 
L 4.890625 26.703125 
z
" id="DejaVuSans-52"/>
      </defs>
      <g transform="translate(212.698444 303.5575)scale(0.16 -0.16)">
       <use xlink:href="#DejaVuSans-49"/>
       <use x="63.623047" xlink:href="#DejaVuSans-52"/>
       <use x="127.246094" xlink:href="#DejaVuSans-48"/>
       <use x="190.869141" xlink:href="#DejaVuSans-48"/>
      </g>
     </g>
    </g>
    <g id="xtick_7">
     <g id="line2d_23">
      <path clip-path="url(#p8189833fb3)" d="M 318.995257 284.4 
L 318.995257 145.8 
" style="fill:none;stroke:#b0b0b0;stroke-dasharray:0.8,1.32;stroke-dashoffset:0;stroke-width:0.8;"/>
     </g>
     <g id="line2d_24">
      <g>
       <use style="stroke:#000000;stroke-width:0.8;" x="318.995257" xlink:href="#m06284cabeb" y="284.4"/>
      </g>
     </g>
     <g id="text_7">
      <!-- 1500 -->
      <defs>
       <path d="M 10.796875 72.90625 
L 49.515625 72.90625 
L 49.515625 64.59375 
L 19.828125 64.59375 
L 19.828125 46.734375 
Q 21.96875 47.46875 24.109375 47.828125 
Q 26.265625 48.1875 28.421875 48.1875 
Q 40.625 48.1875 47.75 41.5 
Q 54.890625 34.8125 54.890625 23.390625 
Q 54.890625 11.625 47.5625 5.09375 
Q 40.234375 -1.421875 26.90625 -1.421875 
Q 22.3125 -1.421875 17.546875 -0.640625 
Q 12.796875 0.140625 7.71875 1.703125 
L 7.71875 11.625 
Q 12.109375 9.234375 16.796875 8.0625 
Q 21.484375 6.890625 26.703125 6.890625 
Q 35.15625 6.890625 40.078125 11.328125 
Q 45.015625 15.765625 45.015625 23.390625 
Q 45.015625 31 40.078125 35.4375 
Q 35.15625 39.890625 26.703125 39.890625 
Q 22.75 39.890625 18.8125 39.015625 
Q 14.890625 38.140625 10.796875 36.28125 
z
" id="DejaVuSans-53"/>
      </defs>
      <g transform="translate(298.635257 303.5575)scale(0.16 -0.16)">
       <use xlink:href="#DejaVuSans-49"/>
       <use x="63.623047" xlink:href="#DejaVuSans-53"/>
       <use x="127.246094" xlink:href="#DejaVuSans-48"/>
       <use x="190.869141" xlink:href="#DejaVuSans-48"/>
      </g>
     </g>
    </g>
    <g id="xtick_8">
     <g id="line2d_25">
      <path clip-path="url(#p8189833fb3)" d="M 404.932069 284.4 
L 404.932069 145.8 
" style="fill:none;stroke:#b0b0b0;stroke-dasharray:0.8,1.32;stroke-dashoffset:0;stroke-width:0.8;"/>
     </g>
     <g id="line2d_26">
      <g>
       <use style="stroke:#000000;stroke-width:0.8;" x="404.932069" xlink:href="#m06284cabeb" y="284.4"/>
      </g>
     </g>
     <g id="text_8">
      <!-- 1600 -->
      <g transform="translate(384.572069 303.5575)scale(0.16 -0.16)">
       <use xlink:href="#DejaVuSans-49"/>
       <use x="63.623047" xlink:href="#DejaVuSans-54"/>
       <use x="127.246094" xlink:href="#DejaVuSans-48"/>
       <use x="190.869141" xlink:href="#DejaVuSans-48"/>
      </g>
     </g>
    </g>
    <g id="text_9">
     <!-- wavelength (nm) -->
     <defs>
      <path d="M 4.203125 54.6875 
L 13.1875 54.6875 
L 24.421875 12.015625 
L 35.59375 54.6875 
L 46.1875 54.6875 
L 57.421875 12.015625 
L 68.609375 54.6875 
L 77.59375 54.6875 
L 63.28125 0 
L 52.6875 0 
L 40.921875 44.828125 
L 29.109375 0 
L 18.5 0 
z
" id="DejaVuSans-119"/>
      <path d="M 9.421875 75.984375 
L 18.40625 75.984375 
L 18.40625 0 
L 9.421875 0 
z
" id="DejaVuSans-108"/>
      <path d="M 45.40625 27.984375 
Q 45.40625 37.75 41.375 43.109375 
Q 37.359375 48.484375 30.078125 48.484375 
Q 22.859375 48.484375 18.828125 43.109375 
Q 14.796875 37.75 14.796875 27.984375 
Q 14.796875 18.265625 18.828125 12.890625 
Q 22.859375 7.515625 30.078125 7.515625 
Q 37.359375 7.515625 41.375 12.890625 
Q 45.40625 18.265625 45.40625 27.984375 
z
M 54.390625 6.78125 
Q 54.390625 -7.171875 48.1875 -13.984375 
Q 42 -20.796875 29.203125 -20.796875 
Q 24.46875 -20.796875 20.265625 -20.09375 
Q 16.0625 -19.390625 12.109375 -17.921875 
L 12.109375 -9.1875 
Q 16.0625 -11.328125 19.921875 -12.34375 
Q 23.78125 -13.375 27.78125 -13.375 
Q 36.625 -13.375 41.015625 -8.765625 
Q 45.40625 -4.15625 45.40625 5.171875 
L 45.40625 9.625 
Q 42.625 4.78125 38.28125 2.390625 
Q 33.9375 0 27.875 0 
Q 17.828125 0 11.671875 7.65625 
Q 5.515625 15.328125 5.515625 27.984375 
Q 5.515625 40.671875 11.671875 48.328125 
Q 17.828125 56 27.875 56 
Q 33.9375 56 38.28125 53.609375 
Q 42.625 51.21875 45.40625 46.390625 
L 45.40625 54.6875 
L 54.390625 54.6875 
z
" id="DejaVuSans-103"/>
      <path d="M 54.890625 33.015625 
L 54.890625 0 
L 45.90625 0 
L 45.90625 32.71875 
Q 45.90625 40.484375 42.875 44.328125 
Q 39.84375 48.1875 33.796875 48.1875 
Q 26.515625 48.1875 22.3125 43.546875 
Q 18.109375 38.921875 18.109375 30.90625 
L 18.109375 0 
L 9.078125 0 
L 9.078125 75.984375 
L 18.109375 75.984375 
L 18.109375 46.1875 
Q 21.34375 51.125 25.703125 53.5625 
Q 30.078125 56 35.796875 56 
Q 45.21875 56 50.046875 50.171875 
Q 54.890625 44.34375 54.890625 33.015625 
z
" id="DejaVuSans-104"/>
      <path d="M 31 75.875 
Q 24.46875 64.65625 21.28125 53.65625 
Q 18.109375 42.671875 18.109375 31.390625 
Q 18.109375 20.125 21.3125 9.0625 
Q 24.515625 -2 31 -13.1875 
L 23.1875 -13.1875 
Q 15.875 -1.703125 12.234375 9.375 
Q 8.59375 20.453125 8.59375 31.390625 
Q 8.59375 42.28125 12.203125 53.3125 
Q 15.828125 64.359375 23.1875 75.875 
z
" id="DejaVuSans-40"/>
      <path d="M 52 44.1875 
Q 55.375 50.25 60.0625 53.125 
Q 64.75 56 71.09375 56 
Q 79.640625 56 84.28125 50.015625 
Q 88.921875 44.046875 88.921875 33.015625 
L 88.921875 0 
L 79.890625 0 
L 79.890625 32.71875 
Q 79.890625 40.578125 77.09375 44.375 
Q 74.3125 48.1875 68.609375 48.1875 
Q 61.625 48.1875 57.5625 43.546875 
Q 53.515625 38.921875 53.515625 30.90625 
L 53.515625 0 
L 44.484375 0 
L 44.484375 32.71875 
Q 44.484375 40.625 41.703125 44.40625 
Q 38.921875 48.1875 33.109375 48.1875 
Q 26.21875 48.1875 22.15625 43.53125 
Q 18.109375 38.875 18.109375 30.90625 
L 18.109375 0 
L 9.078125 0 
L 9.078125 54.6875 
L 18.109375 54.6875 
L 18.109375 46.1875 
Q 21.1875 51.21875 25.484375 53.609375 
Q 29.78125 56 35.6875 56 
Q 41.65625 56 45.828125 52.96875 
Q 50 49.953125 52 44.1875 
z
" id="DejaVuSans-109"/>
      <path d="M 8.015625 75.875 
L 15.828125 75.875 
Q 23.140625 64.359375 26.78125 53.3125 
Q 30.421875 42.28125 30.421875 31.390625 
Q 30.421875 20.453125 26.78125 9.375 
Q 23.140625 -1.703125 15.828125 -13.1875 
L 8.015625 -13.1875 
Q 14.5 -2 17.703125 9.0625 
Q 20.90625 20.125 20.90625 31.390625 
Q 20.90625 42.671875 17.703125 53.65625 
Q 14.5 64.65625 8.015625 75.875 
z
" id="DejaVuSans-41"/>
     </defs>
     <g transform="translate(204.7175 323.0425)scale(0.16 -0.16)">
      <use xlink:href="#DejaVuSans-119"/>
      <use x="81.787109" xlink:href="#DejaVuSans-97"/>
      <use x="143.066406" xlink:href="#DejaVuSans-118"/>
      <use x="202.246094" xlink:href="#DejaVuSans-101"/>
      <use x="263.769531" xlink:href="#DejaVuSans-108"/>
      <use x="291.552734" xlink:href="#DejaVuSans-101"/>
      <use x="353.076172" xlink:href="#DejaVuSans-110"/>
      <use x="416.455078" xlink:href="#DejaVuSans-103"/>
      <use x="479.931641" xlink:href="#DejaVuSans-116"/>
      <use x="519.140625" xlink:href="#DejaVuSans-104"/>
      <use x="582.519531" xlink:href="#DejaVuSans-32"/>
      <use x="614.306641" xlink:href="#DejaVuSans-40"/>
      <use x="653.320312" xlink:href="#DejaVuSans-110"/>
      <use x="716.699219" xlink:href="#DejaVuSans-109"/>
      <use x="814.111328" xlink:href="#DejaVuSans-41"/>
     </g>
    </g>
   </g>
   <g id="matplotlib.axis_4">
    <g id="ytick_4">
     <g id="line2d_27">
      <path clip-path="url(#p8189833fb3)" d="M 77.6675 284.4 
L 468.2675 284.4 
" style="fill:none;stroke:#b0b0b0;stroke-dasharray:0.8,1.32;stroke-dashoffset:0;stroke-width:0.8;"/>
     </g>
     <g id="line2d_28">
      <g>
       <use style="stroke:#000000;stroke-width:0.8;" x="77.6675" xlink:href="#m72a3734e6a" y="284.4"/>
      </g>
     </g>
     <g id="text_10">
      <!-- −600 -->
      <defs>
       <path d="M 10.59375 35.5 
L 73.1875 35.5 
L 73.1875 27.203125 
L 10.59375 27.203125 
z
" id="DejaVuSans-8722"/>
      </defs>
      <g transform="translate(26.72 290.47875)scale(0.16 -0.16)">
       <use xlink:href="#DejaVuSans-8722"/>
       <use x="83.789062" xlink:href="#DejaVuSans-54"/>
       <use x="147.412109" xlink:href="#DejaVuSans-48"/>
       <use x="211.035156" xlink:href="#DejaVuSans-48"/>
      </g>
     </g>
    </g>
    <g id="ytick_5">
     <g id="line2d_29">
      <path clip-path="url(#p8189833fb3)" d="M 77.6675 240.47442 
L 468.2675 240.47442 
" style="fill:none;stroke:#b0b0b0;stroke-dasharray:0.8,1.32;stroke-dashoffset:0;stroke-width:0.8;"/>
     </g>
     <g id="line2d_30">
      <g>
       <use style="stroke:#000000;stroke-width:0.8;" x="77.6675" xlink:href="#m72a3734e6a" y="240.47442"/>
      </g>
     </g>
     <g id="text_11">
      <!-- −400 -->
      <g transform="translate(26.72 246.55317)scale(0.16 -0.16)">
       <use xlink:href="#DejaVuSans-8722"/>
       <use x="83.789062" xlink:href="#DejaVuSans-52"/>
       <use x="147.412109" xlink:href="#DejaVuSans-48"/>
       <use x="211.035156" xlink:href="#DejaVuSans-48"/>
      </g>
     </g>
    </g>
    <g id="ytick_6">
     <g id="line2d_31">
      <path clip-path="url(#p8189833fb3)" d="M 77.6675 196.54884 
L 468.2675 196.54884 
" style="fill:none;stroke:#b0b0b0;stroke-dasharray:0.8,1.32;stroke-dashoffset:0;stroke-width:0.8;"/>
     </g>
     <g id="line2d_32">
      <g>
       <use style="stroke:#000000;stroke-width:0.8;" x="77.6675" xlink:href="#m72a3734e6a" y="196.54884"/>
      </g>
     </g>
     <g id="text_12">
      <!-- −200 -->
      <g transform="translate(26.72 202.62759)scale(0.16 -0.16)">
       <use xlink:href="#DejaVuSans-8722"/>
       <use x="83.789062" xlink:href="#DejaVuSans-50"/>
       <use x="147.412109" xlink:href="#DejaVuSans-48"/>
       <use x="211.035156" xlink:href="#DejaVuSans-48"/>
      </g>
     </g>
    </g>
    <g id="ytick_7">
     <g id="line2d_33">
      <path clip-path="url(#p8189833fb3)" d="M 77.6675 152.62326 
L 468.2675 152.62326 
" style="fill:none;stroke:#b0b0b0;stroke-dasharray:0.8,1.32;stroke-dashoffset:0;stroke-width:0.8;"/>
     </g>
     <g id="line2d_34">
      <g>
       <use style="stroke:#000000;stroke-width:0.8;" x="77.6675" xlink:href="#m72a3734e6a" y="152.62326"/>
      </g>
     </g>
     <g id="text_13">
      <!-- 0 -->
      <g transform="translate(60.4875 158.70201)scale(0.16 -0.16)">
       <use xlink:href="#DejaVuSans-48"/>
      </g>
     </g>
    </g>
    <g id="text_14">
     <!-- $D_M$ (ps/km·nm) -->
     <defs>
      <path d="M 16.890625 72.90625 
L 38.09375 72.90625 
Q 54.984375 72.90625 63.59375 65.75 
Q 72.21875 58.59375 72.21875 44.484375 
Q 72.21875 35.15625 68.9375 26.53125 
Q 65.671875 17.921875 59.90625 12.015625 
Q 54.109375 5.953125 45.171875 2.96875 
Q 36.234375 0 24.03125 0 
L 2.6875 0 
z
M 25.203125 64.796875 
L 14.203125 8.109375 
L 27.09375 8.109375 
Q 43.65625 8.109375 52.734375 17.625 
Q 61.8125 27.15625 61.8125 44.484375 
Q 61.8125 54.984375 55.953125 59.890625 
Q 50.09375 64.796875 37.59375 64.796875 
z
" id="DejaVuSans-Oblique-68"/>
      <path d="M 16.890625 72.90625 
L 31.6875 72.90625 
L 40.1875 23.78125 
L 68.40625 72.90625 
L 83.59375 72.90625 
L 69.390625 0 
L 59.8125 0 
L 72.21875 63.921875 
L 43.609375 14.015625 
L 33.984375 14.015625 
L 24.703125 64.109375 
L 12.3125 0 
L 2.6875 0 
z
" id="DejaVuSans-Oblique-77"/>
      <path d="M 18.109375 8.203125 
L 18.109375 -20.796875 
L 9.078125 -20.796875 
L 9.078125 54.6875 
L 18.109375 54.6875 
L 18.109375 46.390625 
Q 20.953125 51.265625 25.265625 53.625 
Q 29.59375 56 35.59375 56 
Q 45.5625 56 51.78125 48.09375 
Q 58.015625 40.1875 58.015625 27.296875 
Q 58.015625 14.40625 51.78125 6.484375 
Q 45.5625 -1.421875 35.59375 -1.421875 
Q 29.59375 -1.421875 25.265625 0.953125 
Q 20.953125 3.328125 18.109375 8.203125 
z
M 48.6875 27.296875 
Q 48.6875 37.203125 44.609375 42.84375 
Q 40.53125 48.484375 33.40625 48.484375 
Q 26.265625 48.484375 22.1875 42.84375 
Q 18.109375 37.203125 18.109375 27.296875 
Q 18.109375 17.390625 22.1875 11.75 
Q 26.265625 6.109375 33.40625 6.109375 
Q 40.53125 6.109375 44.609375 11.75 
Q 48.6875 17.390625 48.6875 27.296875 
z
" id="DejaVuSans-112"/>
      <path d="M 44.28125 53.078125 
L 44.28125 44.578125 
Q 40.484375 46.53125 36.375 47.5 
Q 32.28125 48.484375 27.875 48.484375 
Q 21.1875 48.484375 17.84375 46.4375 
Q 14.5 44.390625 14.5 40.28125 
Q 14.5 37.15625 16.890625 35.375 
Q 19.28125 33.59375 26.515625 31.984375 
L 29.59375 31.296875 
Q 39.15625 29.25 43.1875 25.515625 
Q 47.21875 21.78125 47.21875 15.09375 
Q 47.21875 7.46875 41.1875 3.015625 
Q 35.15625 -1.421875 24.609375 -1.421875 
Q 20.21875 -1.421875 15.453125 -0.5625 
Q 10.6875 0.296875 5.421875 2 
L 5.421875 11.28125 
Q 10.40625 8.6875 15.234375 7.390625 
Q 20.0625 6.109375 24.8125 6.109375 
Q 31.15625 6.109375 34.5625 8.28125 
Q 37.984375 10.453125 37.984375 14.40625 
Q 37.984375 18.0625 35.515625 20.015625 
Q 33.0625 21.96875 24.703125 23.78125 
L 21.578125 24.515625 
Q 13.234375 26.265625 9.515625 29.90625 
Q 5.8125 33.546875 5.8125 39.890625 
Q 5.8125 47.609375 11.28125 51.796875 
Q 16.75 56 26.8125 56 
Q 31.78125 56 36.171875 55.265625 
Q 40.578125 54.546875 44.28125 53.078125 
z
" id="DejaVuSans-115"/>
      <path d="M 25.390625 72.90625 
L 33.6875 72.90625 
L 8.296875 -9.28125 
L 0 -9.28125 
z
" id="DejaVuSans-47"/>
      <path d="M 9.078125 75.984375 
L 18.109375 75.984375 
L 18.109375 31.109375 
L 44.921875 54.6875 
L 56.390625 54.6875 
L 27.390625 29.109375 
L 57.625 0 
L 45.90625 0 
L 18.109375 26.703125 
L 18.109375 0 
L 9.078125 0 
z
" id="DejaVuSans-107"/>
      <path d="M 10.6875 40.921875 
L 21 40.921875 
L 21 28.515625 
L 10.6875 28.515625 
z
" id="DejaVuSans-183"/>
     </defs>
     <g transform="translate(19.36 274.94)rotate(-90)scale(0.16 -0.16)">
      <use transform="translate(0 0.015625)" xlink:href="#DejaVuSans-Oblique-68"/>
      <use transform="translate(77.001953 -16.390625)scale(0.7)" xlink:href="#DejaVuSans-Oblique-77"/>
      <use transform="translate(140.131836 0.015625)" xlink:href="#DejaVuSans-32"/>
      <use transform="translate(171.918945 0.015625)" xlink:href="#DejaVuSans-40"/>
      <use transform="translate(210.932617 0.015625)" xlink:href="#DejaVuSans-112"/>
      <use transform="translate(274.40918 0.015625)" xlink:href="#DejaVuSans-115"/>
      <use transform="translate(326.508789 0.015625)" xlink:href="#DejaVuSans-47"/>
      <use transform="translate(360.200195 0.015625)" xlink:href="#DejaVuSans-107"/>
      <use transform="translate(418.110352 0.015625)" xlink:href="#DejaVuSans-109"/>
      <use transform="translate(515.522461 0.015625)" xlink:href="#DejaVuSans-183"/>
      <use transform="translate(547.30957 0.015625)" xlink:href="#DejaVuSans-110"/>
      <use transform="translate(610.688477 0.015625)" xlink:href="#DejaVuSans-109"/>
      <use transform="translate(708.100586 0.015625)" xlink:href="#DejaVuSans-41"/>
     </g>
    </g>
   </g>
   <g id="line2d_35">
    <path clip-path="url(#p8189833fb3)" d="M 95.422045 231.062423 
L 96.36735 230.849407 
L 101.78137 229.623438 
L 102.211054 229.508168 
L 103.242295 229.289554 
L 104.789158 228.928025 
L 105.304779 228.826212 
L 106.679768 228.507864 
L 107.71101 228.286767 
L 108.398504 228.122725 
L 109.000062 228.001435 
L 131.773317 223.201827 
L 132.460812 223.078908 
L 132.976433 222.969879 
L 137.187336 222.123412 
L 138.820136 221.806101 
L 139.679504 221.63285 
L 140.366998 221.499041 
L 142.429482 221.113148 
L 143.202913 220.941606 
L 143.632597 220.875219 
L 146.468512 220.321982 
L 148.616932 219.927099 
L 149.304427 219.790478 
L 150.077858 219.650301 
L 150.937226 219.472556 
L 151.452847 219.392913 
L 153.773141 218.952428 
L 156.265309 218.494025 
L 158.241855 218.13121 
L 159.015287 217.996588 
L 159.702781 217.873866 
L 161.679328 217.508157 
L 164.687116 216.97607 
L 166.319916 216.681479 
L 167.093347 216.552877 
L 167.694905 216.440248 
L 168.382399 216.315033 
L 169.843325 216.060163 
L 170.702693 215.917966 
L 172.249556 215.64918 
L 175.944839 215.002712 
L 177.233891 214.786212 
L 178.179196 214.63747 
L 183.851025 213.685677 
L 185.226014 213.443534 
L 185.569762 213.400381 
L 194.50719 211.965817 
L 194.765001 211.908397 
L 195.796242 211.749027 
L 223.63977 207.54838 
L 224.928822 207.363398 
L 229.741283 206.675408 
L 231.030336 206.497033 
L 231.889704 206.371768 
L 232.491261 206.298511 
L 233.006882 206.203107 
L 234.553745 205.998373 
L 237.733407 205.572276 
L 239.194333 205.3708 
L 242.373995 204.931154 
L 242.975552 204.856076 
L 245.811467 204.471856 
L 246.413025 204.405402 
L 247.272393 204.276075 
L 248.905193 204.077701 
L 249.334877 204.003511 
L 249.936434 203.936485 
L 250.709866 203.830369 
L 253.202033 203.490329 
L 253.631717 203.44334 
L 255.350453 203.227092 
L 257.584811 202.947553 
L 259.389484 202.723647 
L 259.819168 202.657348 
L 261.623841 202.43234 
L 263.686324 202.160773 
L 264.116008 202.121958 
L 266.264429 201.843048 
L 266.951923 201.76739 
L 267.725354 201.657538 
L 268.412849 201.581623 
L 270.217522 201.361847 
L 270.81908 201.300928 
L 271.248764 201.233196 
L 273.139374 201.006017 
L 273.740931 200.935253 
L 275.545604 200.703552 
L 276.920593 200.558353 
L 278.811203 200.318984 
L 280.272129 200.157037 
L 282.506486 199.891076 
L 283.967412 199.718328 
L 284.56897 199.655424 
L 285.256464 199.567139 
L 286.71739 199.383877 
L 287.147074 199.34275 
L 288.522063 199.184198 
L 289.295494 199.107923 
L 289.897052 199.025189 
L 290.584547 198.964602 
L 291.014231 198.904011 
L 291.787662 198.827299 
L 292.217346 198.766573 
L 293.592335 198.606344 
L 294.365766 198.529178 
L 295.912629 198.345703 
L 296.600123 198.284217 
L 297.201681 198.20995 
L 299.951659 197.905003 
L 300.553217 197.830245 
L 303.904752 197.467193 
L 305.279741 197.303154 
L 306.13911 197.226969 
L 307.600035 197.055529 
L 311.209382 196.676585 
L 311.725002 196.616672 
L 315.592159 196.204273 
L 316.709338 196.096 
L 321.092115 195.637954 
L 322.29523 195.501903 
L 323.154598 195.422707 
L 328.138934 194.929095 
L 328.568618 194.864436 
L 328.998302 194.819397 
L 335.185752 194.209991 
L 336.302931 194.087326 
L 336.646678 194.068555 
L 337.506046 193.996808 
L 338.623225 193.853799 
L 338.966972 193.844806 
L 339.912277 193.76547 
L 341.115392 193.634486 
L 348.849705 192.897751 
L 349.193453 192.868292 
L 349.623137 192.811455 
L 349.966884 192.801934 
L 350.568442 192.720252 
L 351.513747 192.638883 
L 352.544988 192.529909 
L 353.060609 192.495376 
L 415.536672 187.202135 
L 416.481977 187.120742 
L 416.911661 187.078925 
L 421.552249 186.730593 
L 422.497554 186.648324 
L 426.622521 186.336682 
L 427.138142 186.306812 
L 428.25532 186.249046 
L 428.770941 186.176714 
L 429.372499 186.159356 
L 429.802183 186.116657 
L 430.833424 186.035261 
L 434.356834 185.779019 
L 434.872455 185.748641 
L 435.559949 185.679709 
L 436.07557 185.649248 
L 437.364622 185.57296 
L 441.403652 185.2721 
L 442.606768 185.192968 
L 443.294262 185.144611 
L 446.903608 184.873616 
L 447.419229 184.842422 
L 450.512955 184.633086 
L 450.512955 184.633086 
" style="fill:none;stroke:#0000ff;stroke-dasharray:2.96,1.28;stroke-dashoffset:0;stroke-width:0.8;"/>
   </g>
   <g id="line2d_36">
    <path clip-path="url(#p8189833fb3)" d="M 95.422045 234.426522 
L 96.195477 234.243706 
L 96.711098 234.089325 
L 97.742339 233.893189 
L 98.086087 233.773776 
L 99.804823 233.369717 
L 100.492317 233.194643 
L 101.953243 232.850052 
L 102.211054 232.77192 
L 103.156359 232.566297 
L 103.586043 232.468237 
L 105.562589 231.979984 
L 106.250084 231.818822 
L 106.593831 231.762596 
L 108.398504 231.323654 
L 109.343809 231.114763 
L 110.804735 230.762702 
L 111.148482 230.705688 
L 112.781282 230.315279 
L 113.89846 230.083558 
L 114.328144 229.950053 
L 114.500018 229.945886 
L 114.929702 229.828648 
L 115.703133 229.669939 
L 116.04688 229.562755 
L 117.249996 229.318678 
L 117.67968 229.184268 
L 118.109364 229.115642 
L 118.882795 228.955639 
L 119.226543 228.831278 
L 119.484353 228.799818 
L 120.601532 228.547605 
L 121.031216 228.478381 
L 121.374963 228.386585 
L 121.71871 228.311249 
L 122.749952 228.084866 
L 123.093699 228.00928 
L 124.124941 227.815286 
L 124.382751 227.733562 
L 124.726499 227.657682 
L 125.929614 227.39161 
L 127.304603 227.136443 
L 127.562413 227.037598 
L 128.765529 226.803011 
L 129.023339 226.720553 
L 129.28115 226.687992 
L 129.710834 226.583709 
L 130.828012 226.342092 
L 132.031128 226.088874 
L 133.148306 225.84593 
L 133.57799 225.774174 
L 134.007674 225.652183 
L 134.437358 225.580251 
L 135.554537 225.352681 
L 135.898284 225.274807 
L 137.101399 225.018523 
L 137.788894 224.862161 
L 138.046704 224.828631 
L 139.50763 224.554175 
L 139.937314 224.447559 
L 140.796682 224.26766 
L 142.085735 224.013969 
L 142.343545 223.912601 
L 142.429482 223.985495 
L 142.601355 223.895425 
L 143.03104 223.821814 
L 143.890408 223.623753 
L 144.320092 223.566764 
L 144.749776 223.459064 
L 146.382575 223.140152 
L 147.07007 223.014407 
L 148.273185 222.785385 
L 148.530996 222.716864 
L 149.562237 222.493256 
L 149.905985 222.429908 
L 150.507542 222.331652 
L 152.054405 222.020063 
L 152.484089 221.910645 
L 152.741899 221.909556 
L 152.913773 221.85214 
L 153.687204 221.695616 
L 155.491877 221.346343 
L 156.179372 221.217771 
L 156.609056 221.158635 
L 156.866866 221.054861 
L 157.382487 220.983733 
L 159.444971 220.59566 
L 160.218402 220.419697 
L 160.734023 220.347882 
L 161.507454 220.171442 
L 161.765265 220.169693 
L 162.194949 220.058169 
L 162.71057 219.985956 
L 164.429306 219.641491 
L 164.944927 219.551638 
L 165.374611 219.491005 
L 166.148042 219.330084 
L 168.382399 218.909596 
L 169.155831 218.747613 
L 169.585515 218.669007 
L 172.93705 218.084352 
L 173.624545 217.950536 
L 174.140166 217.893354 
L 174.56985 217.779199 
L 178.093259 217.179976 
L 178.351069 217.107519 
L 178.522943 217.099777 
L 178.952627 216.9847 
L 183.077594 216.272802 
L 183.765089 216.118552 
L 184.022899 216.115263 
L 188.233803 215.382214 
L 188.663487 215.335308 
L 192.788454 214.607662 
L 193.218138 214.524872 
L 193.475948 214.503351 
L 193.733759 214.446568 
L 194.335317 214.372729 
L 194.679064 214.302769 
L 195.280622 214.193449 
L 195.710306 214.110231 
L 207.139902 212.288663 
L 207.397712 212.212577 
L 207.913333 212.131643 
L 229.139726 208.900108 
L 229.655347 208.8153 
L 235.241239 207.981807 
L 235.584987 207.961081 
L 235.842797 207.918131 
L 236.444355 207.836092 
L 236.874039 207.746095 
L 237.131849 207.75787 
L 237.38966 207.678221 
L 240.913069 207.197047 
L 242.116184 207.021814 
L 242.975552 206.895057 
L 246.756772 206.364026 
L 247.35833 206.298416 
L 248.217698 206.170268 
L 249.764561 205.961177 
L 250.452055 205.861862 
L 251.053613 205.777152 
L 252.600475 205.566762 
L 255.694201 205.143872 
L 256.381695 205.071183 
L 257.241063 204.940666 
L 258.787926 204.746085 
L 259.561357 204.629928 
L 261.194157 204.419311 
L 263.772261 204.070005 
L 264.459756 203.995851 
L 266.865986 203.674536 
L 267.381607 203.611492 
L 268.155039 203.502733 
L 270.131585 203.264684 
L 270.81908 203.161221 
L 271.506574 203.085814 
L 273.826868 202.775139 
L 274.514363 202.6992 
L 275.11592 202.610269 
L 275.545604 202.570931 
L 277.694025 202.298077 
L 278.381519 202.221468 
L 280.615876 201.931451 
L 282.67836 201.680782 
L 284.311159 201.478791 
L 284.912717 201.397697 
L 286.373643 201.235673 
L 288.264253 201.003942 
L 288.86581 200.912686 
L 289.295494 200.881492 
L 290.928294 200.686273 
L 291.615788 200.607395 
L 293.334525 200.395352 
L 294.022019 200.316065 
L 295.568882 200.134857 
L 298.146986 199.847546 
L 298.490733 199.793111 
L 299.092291 199.719385 
L 301.928206 199.400859 
L 303.303195 199.229672 
L 303.732879 199.197176 
L 304.334437 199.11303 
L 305.107868 199.035039 
L 306.568794 198.865892 
L 309.576582 198.529153 
L 310.17814 198.4538 
L 311.553129 198.289538 
L 312.32656 198.21029 
L 315.592159 197.86886 
L 316.021843 197.80608 
L 316.881211 197.729086 
L 318.2562 197.562676 
L 319.029631 197.482291 
L 322.553041 197.095971 
L 323.670219 196.977679 
L 324.529587 196.899319 
L 325.732703 196.754053 
L 326.162387 196.719615 
L 326.678008 196.658609 
L 330.974848 196.21347 
L 331.490469 196.151907 
L 332.263901 196.069307 
L 337.248236 195.562495 
L 337.591983 195.524281 
L 338.279477 195.447774 
L 339.396656 195.335622 
L 344.380991 194.841345 
L 344.724738 194.812565 
L 346.013791 194.664599 
L 346.787222 194.609541 
L 347.130969 194.570635 
L 353.748104 193.929382 
L 354.177788 193.862577 
L 365.1777 192.820085 
L 366.037068 192.734675 
L 366.466752 192.707097 
L 367.497994 192.596241 
L 368.357362 192.520584 
L 369.388604 192.419482 
L 370.247972 192.35368 
L 371.36515 192.224289 
L 371.794834 192.186174 
L 409.692969 188.91585 
L 410.122653 188.885352 
L 417.685092 188.274971 
L 418.54446 188.202424 
L 419.146018 188.165244 
L 420.091323 188.084173 
L 425.677216 187.624289 
L 425.935026 187.620184 
L 426.622521 187.552819 
L 427.138142 187.533977 
L 427.911573 187.468623 
L 428.856878 187.396857 
L 429.458435 187.358828 
L 430.40374 187.276253 
L 431.177172 187.199904 
L 431.692793 187.180787 
L 432.552161 187.095773 
L 433.067782 187.06595 
L 434.18496 186.98705 
L 438.395864 186.663527 
L 438.911485 186.633317 
L 440.028663 186.564194 
L 440.458347 186.510457 
L 441.489589 186.428356 
L 445.012999 186.180593 
L 446.216114 186.10189 
L 450.427018 185.76046 
L 450.512955 185.783977 
L 450.512955 185.783977 
" style="fill:none;stroke:#008000;stroke-dasharray:2.96,1.28;stroke-dashoffset:0;stroke-width:0.8;"/>
   </g>
   <g id="line2d_37">
    <path clip-path="url(#p8189833fb3)" d="M 95.422045 211.103718 
L 96.195477 210.992778 
L 96.711098 210.89177 
L 97.484529 210.748107 
L 98.25796 210.620352 
L 100.062633 210.305096 
L 100.492317 210.2472 
L 100.922001 210.164911 
L 101.867306 210.020912 
L 103.757916 209.691231 
L 104.703221 209.554303 
L 106.507894 209.242332 
L 106.937578 209.167075 
L 111.406293 208.451834 
L 112.00785 208.359994 
L 117.421869 207.494348 
L 124.984309 206.32547 
L 125.585867 206.23883 
L 126.874919 206.036133 
L 162.452759 200.985768 
L 162.882443 200.94407 
L 163.22619 200.898666 
L 164.171495 200.749999 
L 164.85899 200.676053 
L 165.718358 200.566245 
L 167.179284 200.378203 
L 168.038652 200.241945 
L 168.468336 200.208201 
L 172.077682 199.727766 
L 172.421429 199.69004 
L 173.280798 199.56962 
L 174.999534 199.380095 
L 175.343281 199.333424 
L 178.952627 198.854227 
L 179.554185 198.791387 
L 180.327616 198.683083 
L 181.015111 198.61474 
L 183.851025 198.264992 
L 185.483825 198.067097 
L 186.42913 197.929144 
L 187.288498 197.857655 
L 189.866602 197.519295 
L 190.124413 197.494136 
L 192.186896 197.257102 
L 192.788454 197.174549 
L 194.679064 196.973596 
L 195.022811 196.916113 
L 195.710306 196.836329 
L 197.858726 196.590619 
L 200.007146 196.334847 
L 200.694641 196.254157 
L 202.928998 195.999933 
L 203.616492 195.918717 
L 204.303987 195.85516 
L 204.733671 195.790923 
L 206.710218 195.551701 
L 208.343017 195.379283 
L 210.749248 195.117906 
L 211.264869 195.047017 
L 211.436742 195.035298 
L 212.0383 194.976339 
L 212.811731 194.896575 
L 213.585163 194.789785 
L 214.444531 194.712777 
L 214.874215 194.665242 
L 215.475772 194.587845 
L 215.905457 194.540198 
L 216.507014 194.462633 
L 217.796066 194.337201 
L 218.22575 194.298307 
L 219.85855 194.103304 
L 220.288234 194.064206 
L 221.921033 193.886396 
L 225.014759 193.568208 
L 225.616316 193.498287 
L 226.389748 193.416019 
L 229.56941 193.088441 
L 230.256904 193.002571 
L 231.116272 192.922343 
L 232.749072 192.740337 
L 233.264693 192.702868 
L 234.639682 192.547993 
L 235.155303 192.510329 
L 235.75686 192.438938 
L 236.616228 192.366813 
L 238.163091 192.198206 
L 241.944311 191.817335 
L 243.3193 191.678056 
L 247.702077 191.24746 
L 248.217698 191.199244 
L 249.077066 191.124916 
L 249.420813 191.080372 
L 254.491085 190.591241 
L 254.920769 190.548914 
L 255.350453 190.506547 
L 261.194157 189.960046 
L 261.709778 189.891744 
L 262.225398 189.870023 
L 262.826956 189.794857 
L 270.905017 189.070616 
L 271.248764 189.033718 
L 280.701813 188.19351 
L 281.04556 188.155921 
L 337.420109 183.639007 
L 337.93573 183.601721 
L 338.709162 183.550672 
L 343.779433 183.173096 
L 344.123181 183.151237 
L 345.326296 183.07959 
L 345.670043 183.037738 
L 346.873159 182.965837 
L 347.302843 182.925864 
L 348.505958 182.853702 
L 348.763769 182.819671 
L 349.193453 182.809531 
L 349.5372 182.76744 
L 353.919977 182.466573 
L 355.20903 182.38525 
L 356.068398 182.304141 
L 357.271513 182.220518 
L 361.13867 181.964054 
L 362.341785 181.889688 
L 363.029279 181.844227 
L 363.5449 181.825237 
L 363.888648 181.782264 
L 367.583931 181.538941 
L 368.529235 181.468158 
L 369.21673 181.401849 
L 369.646414 181.411082 
L 370.505782 181.338197 
L 371.021403 181.308625 
L 371.708898 181.272534 
L 375.40418 181.015254 
L 375.747928 180.991939 
L 377.03698 180.937514 
L 377.29479 180.902126 
L 377.810411 180.882332 
L 378.154158 180.838498 
L 379.357274 180.781939 
L 379.615084 180.756661 
L 382.536936 180.551292 
L 382.880683 180.537902 
L 384.255672 180.473983 
L 384.685356 180.411016 
L 385.286914 180.392568 
L 388.208766 180.205612 
L 388.724386 180.17493 
L 391.560301 179.995311 
L 392.849353 179.918031 
L 393.450911 179.878459 
L 393.966532 179.857782 
L 394.654026 179.819843 
L 397.661815 179.620888 
L 398.177436 179.589627 
L 399.466488 179.521708 
L 400.153982 179.472962 
L 402.38834 179.340088 
L 402.818024 179.317268 
L 403.419581 179.287367 
L 405.911749 179.137801 
L 407.200801 179.058361 
L 407.630485 179.024883 
L 409.692969 178.907704 
L 410.20859 178.875723 
L 411.669515 178.809353 
L 412.013263 178.763545 
L 413.302315 178.683183 
L 415.364798 178.575179 
L 415.880419 178.542862 
L 418.028839 178.414881 
L 418.372587 178.421268 
L 419.060081 178.339382 
L 419.489765 178.347337 
L 420.692881 178.274837 
L 421.294438 178.233259 
L 422.58349 178.162085 
L 423.185048 178.130921 
L 423.700669 178.108702 
L 424.044416 178.093876 
L 426.622521 177.929477 
L 427.224078 177.908637 
L 428.599067 177.838209 
L 428.942815 177.812628 
L 430.231867 177.751018 
L 430.661551 177.716306 
L 432.03654 177.656009 
L 432.466224 177.621203 
L 433.067782 177.58943 
L 434.270897 177.536406 
L 434.614644 177.489326 
L 435.302139 177.480215 
L 436.505254 177.394995 
L 438.481801 177.280497 
L 439.083358 177.269689 
L 441.231779 177.14698 
L 442.606768 177.074607 
L 443.208325 177.042217 
L 444.411441 176.988036 
L 444.669251 176.960342 
L 445.184872 176.947781 
L 445.872367 176.895272 
L 447.419229 176.835928 
L 447.67704 176.797393 
L 448.192661 176.795447 
L 448.536408 176.758342 
L 449.052029 176.734879 
L 449.653586 176.691353 
L 450.512955 176.652142 
L 450.512955 176.652142 
" style="fill:none;stroke:#ff0000;stroke-dasharray:2.96,1.28;stroke-dashoffset:0;stroke-width:0.8;"/>
   </g>
   <g id="line2d_38">
    <path clip-path="url(#p8189833fb3)" d="M 95.422045 173.469377 
L 96.968908 173.305743 
L 97.312655 173.263916 
L 98.086087 173.197997 
L 98.343897 173.154426 
L 99.632949 173.017212 
L 99.89076 173.005925 
L 100.14857 172.946011 
L 100.492317 172.920115 
L 101.695433 172.813088 
L 101.953243 172.801711 
L 102.468864 172.730209 
L 102.726675 172.686306 
L 103.757916 172.608026 
L 105.476653 172.411995 
L 106.336021 172.330006 
L 106.507894 172.31685 
L 106.765705 172.272647 
L 107.71101 172.191971 
L 108.140694 172.150791 
L 108.914125 172.066764 
L 109.429746 171.994321 
L 110.632861 171.88499 
L 110.976609 171.858376 
L 111.406293 171.816891 
L 112.867218 171.646032 
L 113.210966 171.635666 
L 113.554713 171.62529 
L 115.101576 171.43879 
L 115.445323 171.411874 
L 115.875007 171.353533 
L 116.992185 171.274034 
L 118.710922 171.072699 
L 119.656227 171.006208 
L 119.8281 170.976099 
L 120.859342 170.861305 
L 121.117152 170.882139 
L 122.664015 170.692908 
L 122.835889 170.6792 
L 124.039004 170.566532 
L 124.984309 170.482541 
L 126.101488 170.367966 
L 126.445235 170.340322 
L 127.820224 170.196285 
L 128.851466 170.112945 
L 130.054581 169.998819 
L 131.085823 169.915058 
L 131.515507 169.855081 
L 132.460812 169.78639 
L 132.718622 169.740304 
L 133.57799 169.67008 
L 133.921737 169.641954 
L 134.781106 169.571548 
L 135.124853 169.493141 
L 135.554537 169.482958 
L 136.242031 169.409677 
L 136.671715 169.365919 
L 137.61702 169.279577 
L 138.648262 169.194348 
L 139.593567 169.107655 
L 140.023251 169.063607 
L 140.882619 168.992219 
L 141.14043 168.996017 
L 141.484177 168.900088 
L 142.601355 168.832202 
L 142.773229 168.817854 
L 143.54666 168.727928 
L 144.491965 168.640332 
L 144.749776 168.627155 
L 145.093523 168.598316 
L 146.038828 168.527351 
L 146.296638 168.48031 
L 147.241943 168.40914 
L 147.585691 168.380147 
L 148.702869 168.311189 
L 149.21849 168.233672 
L 150.421605 168.114711 
L 150.765353 168.102491 
L 152.054405 167.967362 
L 152.484089 167.973238 
L 152.913773 167.877081 
L 153.171583 167.880583 
L 154.202825 167.792442 
L 154.632509 167.730114 
L 154.89032 167.750612 
L 155.234067 167.670032 
L 155.577814 167.691674 
L 156.007498 167.629217 
L 156.437182 167.617884 
L 157.812171 167.465391 
L 158.241855 167.488131 
L 158.499666 167.423168 
L 159.444971 167.350043 
L 160.390276 167.276776 
L 160.648086 167.245872 
L 160.905897 167.197827 
L 161.163707 167.184019 
L 161.421517 167.187338 
L 161.593391 167.172413 
L 162.366822 167.096614 
L 162.796506 167.033486 
L 163.054317 167.036765 
L 164.085559 166.946836 
L 165.202737 166.823413 
L 165.632421 166.828788 
L 165.976168 166.798681 
L 167.00741 166.708236 
L 168.038652 166.617604 
L 168.89802 166.524687 
L 170.101135 166.401246 
L 170.358946 166.421631 
L 170.616756 166.390203 
L 171.04644 166.395389 
L 171.476124 166.314143 
L 172.421429 166.256277 
L 172.67924 166.20744 
L 173.108924 166.195236 
L 174.226102 166.087203 
L 175.515155 165.998284 
L 176.632333 165.889776 
L 177.749512 165.815794 
L 178.093259 165.784971 
L 178.952627 165.690425 
L 179.811995 165.630547 
L 180.843237 165.555071 
L 181.186984 165.506633 
L 181.530732 165.510479 
L 181.960416 165.445507 
L 182.3901 165.450289 
L 182.561973 165.417294 
L 183.679152 165.342338 
L 184.022899 165.293698 
L 184.28071 165.279048 
L 184.53852 165.281875 
L 185.827572 165.138474 
L 187.202561 165.048213 
L 188.061929 164.969752 
L 188.233803 164.936504 
L 188.663487 164.923525 
L 188.921297 164.908711 
L 189.952539 164.866943 
L 190.124413 164.798482 
L 190.46816 164.766941 
L 191.757212 164.674868 
L 192.444707 164.611584 
L 192.702517 164.63185 
L 193.046264 164.600174 
L 194.077506 164.52265 
L 194.335317 164.472387 
L 194.50719 164.491771 
L 194.850937 164.442353 
L 196.225926 164.350336 
L 197.343105 164.220144 
L 197.600915 164.240387 
L 198.889968 164.147003 
L 199.233715 164.114978 
L 200.264957 164.018778 
L 200.608704 164.004398 
L 201.554009 163.924878 
L 201.725882 163.908792 
L 202.928998 163.831565 
L 203.186808 163.798495 
L 203.616492 163.802588 
L 203.874303 163.751712 
L 205.335229 163.676565 
L 205.593039 163.607777 
L 206.022723 163.593983 
L 206.882091 163.512886 
L 207.053965 163.496651 
L 208.428954 163.420122 
L 208.772701 163.387569 
L 209.88988 163.290561 
L 210.491437 163.242367 
L 210.663311 163.243913 
L 211.522679 163.180072 
L 212.811731 163.102027 
L 213.069542 163.104311 
L 214.18672 162.988675 
L 215.475772 162.892241 
L 216.249204 162.827082 
L 216.678888 162.812807 
L 217.624193 162.730997 
L 218.913245 162.669949 
L 219.171055 162.63611 
L 220.11636 162.553954 
L 220.546044 162.539509 
L 221.405413 162.456454 
L 221.835097 162.441951 
L 222.608528 162.376079 
L 223.038212 162.361526 
L 223.381959 162.328187 
L 224.756948 162.230808 
L 225.100695 162.197375 
L 226.475684 162.117793 
L 226.905369 162.048699 
L 227.335053 162.03395 
L 228.881915 161.955329 
L 229.225662 161.921682 
L 230.085031 161.837475 
L 230.342841 161.839455 
L 230.772525 161.824569 
L 231.545956 161.757711 
L 231.889704 161.760324 
L 232.319388 161.690759 
L 232.749072 161.675786 
L 233.436566 161.589836 
L 233.60844 161.591117 
L 235.155303 161.493137 
L 236.014671 161.426406 
L 236.186544 161.464193 
L 236.444355 161.411272 
L 236.874039 161.396125 
L 237.733407 161.310923 
L 238.163091 161.314013 
L 239.194333 161.211559 
L 240.999006 161.114341 
L 241.342753 161.080062 
L 242.202121 160.994274 
L 242.717742 161.0162 
L 243.061489 160.945097 
L 243.3193 160.96524 
L 244.264605 160.861406 
L 244.694289 160.864321 
L 245.639594 160.760277 
L 245.811467 160.77984 
L 246.670835 160.693479 
L 246.928646 160.695189 
L 248.733319 160.59642 
L 249.163003 160.553074 
L 249.592687 160.528165 
L 249.850497 160.483652 
L 250.108308 160.476075 
L 250.795802 160.452768 
L 251.13955 160.417987 
L 252.686412 160.316763 
L 255.43639 160.139208 
L 255.694201 160.140789 
L 256.467632 160.089812 
L 260.162915 159.82355 
L 260.592599 159.826065 
L 260.936346 159.790795 
L 263.858198 159.602268 
L 265.405061 159.508118 
L 266.092555 159.455791 
L 266.608176 159.430551 
L 267.03786 159.404816 
L 268.240975 159.336404 
L 268.584723 159.300753 
L 269.272217 159.257541 
L 270.647206 159.17096 
L 270.990953 159.144584 
L 271.506574 159.137893 
L 271.850321 159.073874 
L 272.280006 159.057293 
L 273.912805 158.962142 
L 274.428426 158.927078 
L 274.686236 158.90011 
L 275.373731 158.884717 
L 277.951835 158.70869 
L 278.295582 158.710366 
L 281.04556 158.515373 
L 281.733055 158.490177 
L 282.334613 158.455066 
L 283.623665 158.385129 
L 283.967412 158.320244 
L 284.225222 158.340409 
L 284.483033 158.313088 
L 286.029895 158.224997 
L 286.71739 158.180484 
L 288.779873 158.065696 
L 290.240799 157.976587 
L 290.75642 157.959685 
L 291.272041 157.923666 
L 292.045472 157.860023 
L 293.678272 157.761545 
L 295.654818 157.65458 
L 295.998566 157.636774 
L 296.342313 157.59978 
L 297.029807 157.583294 
L 297.803239 157.519124 
L 298.146986 157.501247 
L 300.20947 157.36491 
L 300.46728 157.375493 
L 301.068838 157.339245 
L 302.701637 157.248934 
L 303.389132 157.203223 
L 305.451615 157.114064 
L 305.795362 157.057313 
L 306.482857 157.030706 
L 306.912541 156.993515 
L 308.975024 156.894046 
L 309.662519 156.847894 
L 310.17814 156.810822 
L 311.982813 156.719654 
L 312.498434 156.70188 
L 312.756244 156.673561 
L 314.560917 156.562539 
L 314.904664 156.544135 
L 316.709338 156.432727 
L 316.881211 156.452724 
L 318.685884 156.350758 
L 319.115568 156.312956 
L 319.631189 156.294902 
L 321.521799 156.202491 
L 321.951483 156.164552 
L 322.467104 156.136606 
L 322.982725 156.089055 
L 324.701461 155.995628 
L 325.303019 155.987387 
L 325.646766 155.958848 
L 326.334261 155.940986 
L 326.678008 155.892774 
L 327.279565 155.874645 
L 327.96706 155.827228 
L 328.654554 155.799425 
L 329.170175 155.771174 
L 329.685796 155.733059 
L 330.11548 155.714398 
L 330.545164 155.705572 
L 331.060785 155.677239 
L 331.74828 155.629569 
L 333.467016 155.54471 
L 333.810763 155.525736 
L 334.412321 155.487568 
L 336.216994 155.372843 
L 336.474804 155.363493 
L 337.162299 155.335242 
L 339.310719 155.230645 
L 339.740403 155.191832 
L 339.998214 155.182418 
L 342.318508 155.097519 
L 342.662255 155.048471 
L 344.810675 154.942928 
L 345.412233 154.904148 
L 346.099727 154.90534 
L 346.357538 154.845983 
L 348.677832 154.740066 
L 350.310631 154.662709 
L 352.201241 154.585536 
L 352.544988 154.545989 
L 353.232483 154.486872 
L 353.662167 154.4975 
L 354.005914 154.457886 
L 354.693409 154.438777 
L 356.412145 154.350741 
L 358.474628 154.252836 
L 358.818376 154.223073 
L 359.50587 154.1937 
L 360.021491 154.133884 
L 360.365238 154.174568 
L 360.708986 154.134665 
L 362.513659 154.035817 
L 363.115216 154.016266 
L 363.716774 153.9765 
L 365.349573 153.887156 
L 365.865194 153.877529 
L 367.755804 153.798269 
L 368.185488 153.747983 
L 368.872983 153.728285 
L 369.47454 153.67807 
L 369.818288 153.688485 
L 370.162035 153.648168 
L 370.591719 153.648497 
L 372.310455 153.548172 
L 372.654202 153.538243 
L 373.943255 153.457711 
L 374.201065 153.488406 
L 374.630749 153.447957 
L 376.349485 153.398039 
L 376.607296 153.347205 
L 378.068222 153.256123 
L 378.497906 153.266536 
L 379.099463 153.225961 
L 379.701021 153.195571 
L 381.677568 153.104296 
L 382.193189 153.073763 
L 382.70881 153.032964 
L 385.11504 152.931085 
L 386.146282 152.879976 
L 386.404092 152.869754 
L 387.00565 152.849313 
L 388.208766 152.787808 
L 388.552513 152.78785 
L 388.89626 152.746734 
L 389.583755 152.726207 
L 391.904048 152.62326 
L 392.505606 152.581993 
L 392.93529 152.57166 
L 394.310279 152.499295 
L 394.739963 152.499256 
L 396.372763 152.405993 
L 396.97432 152.385196 
L 397.661815 152.322941 
L 398.005562 152.343583 
L 398.60712 152.312371 
L 399.208678 152.281131 
L 400.411793 152.208194 
L 400.75554 152.21847 
L 401.271161 152.166401 
L 401.528971 152.176701 
L 401.872719 152.166201 
L 402.130529 152.155726 
L 402.732087 152.124338 
L 404.107076 152.06141 
L 406.513307 151.966621 
L 406.857054 151.924755 
L 407.458612 151.89316 
L 410.294526 151.787142 
L 410.810147 151.765919 
L 412.958567 151.670341 
L 413.646062 151.607006 
L 414.075746 151.62765 
L 415.622609 151.52162 
L 415.966356 151.542335 
L 416.39604 151.489512 
L 416.739787 151.499731 
L 417.341345 151.457224 
L 418.028839 151.446136 
L 418.54446 151.414157 
L 420.692881 151.338575 
L 420.950691 151.317273 
L 421.466312 151.274644 
L 421.724122 151.263857 
L 422.411617 151.242099 
L 425.075658 151.144386 
L 425.677216 151.090908 
L 428.25532 150.992791 
L 428.685004 150.949927 
L 429.114688 150.970601 
L 429.544372 150.927704 
L 431.950603 150.839866 
L 432.29435 150.786338 
L 432.638098 150.81775 
L 433.239655 150.76385 
L 433.583402 150.752766 
L 434.099023 150.730816 
L 436.763065 150.631358 
L 437.278685 150.588005 
L 437.536496 150.566317 
L 438.481801 150.554271 
L 441.059905 150.465008 
L 441.489589 150.410913 
L 444.411441 150.309945 
L 444.927062 150.276961 
L 445.528619 150.265245 
L 446.04424 150.221497 
L 446.731735 150.209604 
L 447.247356 150.187263 
L 448.622345 150.098967 
L 448.966092 150.119843 
L 449.997334 150.064264 
L 450.341081 150.074399 
L 450.512955 150.020311 
L 450.512955 150.020311 
" style="fill:none;stroke:#00bfbf;stroke-dasharray:2.96,1.28;stroke-dashoffset:0;stroke-width:0.8;"/>
   </g>
   <g id="patch_8">
    <path d="M 77.6675 284.4 
L 77.6675 145.8 
" style="fill:none;stroke:#000000;stroke-linecap:square;stroke-linejoin:miter;stroke-width:0.8;"/>
   </g>
   <g id="patch_9">
    <path d="M 468.2675 284.4 
L 468.2675 145.8 
" style="fill:none;stroke:#000000;stroke-linecap:square;stroke-linejoin:miter;stroke-width:0.8;"/>
   </g>
   <g id="patch_10">
    <path d="M 77.6675 284.4 
L 468.2675 284.4 
" style="fill:none;stroke:#000000;stroke-linecap:square;stroke-linejoin:miter;stroke-width:0.8;"/>
   </g>
   <g id="patch_11">
    <path d="M 77.6675 145.8 
L 468.2675 145.8 
" style="fill:none;stroke:#000000;stroke-linecap:square;stroke-linejoin:miter;stroke-width:0.8;"/>
   </g>
   <g id="legend_1">
    <g id="patch_12">
     <path d="M 85.4403 278.848 
L 446.061785 278.848 
Q 448.282585 278.848 448.282585 276.6272 
L 448.282585 261.43901 
Q 448.282585 259.21821 446.061785 259.21821 
L 85.4403 259.21821 
Q 83.2195 259.21821 83.2195 261.43901 
L 83.2195 276.6272 
Q 83.2195 278.848 85.4403 278.848 
z
" style="fill:#ffffff;opacity:0.8;stroke:#cccccc;stroke-linejoin:miter;"/>
    </g>
    <g id="line2d_39">
     <path d="M 87.6611 268.210715 
L 109.8691 268.210715 
" style="fill:none;stroke:#0000ff;stroke-dasharray:2.96,1.28;stroke-dashoffset:0;stroke-width:0.8;"/>
    </g>
    <g id="line2d_40"/>
    <g id="text_15">
     <!-- LS-CVD -->
     <defs>
      <path d="M 9.8125 72.90625 
L 19.671875 72.90625 
L 19.671875 8.296875 
L 55.171875 8.296875 
L 55.171875 0 
L 9.8125 0 
z
" id="DejaVuSans-76"/>
      <path d="M 53.515625 70.515625 
L 53.515625 60.890625 
Q 47.90625 63.578125 42.921875 64.890625 
Q 37.9375 66.21875 33.296875 66.21875 
Q 25.25 66.21875 20.875 63.09375 
Q 16.5 59.96875 16.5 54.203125 
Q 16.5 49.359375 19.40625 46.890625 
Q 22.3125 44.4375 30.421875 42.921875 
L 36.375 41.703125 
Q 47.40625 39.59375 52.65625 34.296875 
Q 57.90625 29 57.90625 20.125 
Q 57.90625 9.515625 50.796875 4.046875 
Q 43.703125 -1.421875 29.984375 -1.421875 
Q 24.8125 -1.421875 18.96875 -0.25 
Q 13.140625 0.921875 6.890625 3.21875 
L 6.890625 13.375 
Q 12.890625 10.015625 18.65625 8.296875 
Q 24.421875 6.59375 29.984375 6.59375 
Q 38.421875 6.59375 43.015625 9.90625 
Q 47.609375 13.234375 47.609375 19.390625 
Q 47.609375 24.75 44.3125 27.78125 
Q 41.015625 30.8125 33.5 32.328125 
L 27.484375 33.5 
Q 16.453125 35.6875 11.515625 40.375 
Q 6.59375 45.0625 6.59375 53.421875 
Q 6.59375 63.09375 13.40625 68.65625 
Q 20.21875 74.21875 32.171875 74.21875 
Q 37.3125 74.21875 42.625 73.28125 
Q 47.953125 72.359375 53.515625 70.515625 
z
" id="DejaVuSans-83"/>
      <path d="M 4.890625 31.390625 
L 31.203125 31.390625 
L 31.203125 23.390625 
L 4.890625 23.390625 
z
" id="DejaVuSans-45"/>
      <path d="M 64.40625 67.28125 
L 64.40625 56.890625 
Q 59.421875 61.53125 53.78125 63.8125 
Q 48.140625 66.109375 41.796875 66.109375 
Q 29.296875 66.109375 22.65625 58.46875 
Q 16.015625 50.828125 16.015625 36.375 
Q 16.015625 21.96875 22.65625 14.328125 
Q 29.296875 6.6875 41.796875 6.6875 
Q 48.140625 6.6875 53.78125 8.984375 
Q 59.421875 11.28125 64.40625 15.921875 
L 64.40625 5.609375 
Q 59.234375 2.09375 53.4375 0.328125 
Q 47.65625 -1.421875 41.21875 -1.421875 
Q 24.65625 -1.421875 15.125 8.703125 
Q 5.609375 18.84375 5.609375 36.375 
Q 5.609375 53.953125 15.125 64.078125 
Q 24.65625 74.21875 41.21875 74.21875 
Q 47.75 74.21875 53.53125 72.484375 
Q 59.328125 70.75 64.40625 67.28125 
z
" id="DejaVuSans-67"/>
      <path d="M 28.609375 0 
L 0.78125 72.90625 
L 11.078125 72.90625 
L 34.1875 11.53125 
L 57.328125 72.90625 
L 67.578125 72.90625 
L 39.796875 0 
z
" id="DejaVuSans-86"/>
      <path d="M 19.671875 64.796875 
L 19.671875 8.109375 
L 31.59375 8.109375 
Q 46.6875 8.109375 53.6875 14.9375 
Q 60.6875 21.78125 60.6875 36.53125 
Q 60.6875 51.171875 53.6875 57.984375 
Q 46.6875 64.796875 31.59375 64.796875 
z
M 9.8125 72.90625 
L 30.078125 72.90625 
Q 51.265625 72.90625 61.171875 64.09375 
Q 71.09375 55.28125 71.09375 36.53125 
Q 71.09375 17.671875 61.125 8.828125 
Q 51.171875 0 30.078125 0 
L 9.8125 0 
z
" id="DejaVuSans-68"/>
     </defs>
     <g transform="translate(118.7523 272.097115)scale(0.11104 -0.11104)">
      <use xlink:href="#DejaVuSans-76"/>
      <use x="55.712891" xlink:href="#DejaVuSans-83"/>
      <use x="119.189453" xlink:href="#DejaVuSans-45"/>
      <use x="155.273438" xlink:href="#DejaVuSans-67"/>
      <use x="225.097656" xlink:href="#DejaVuSans-86"/>
      <use x="293.505859" xlink:href="#DejaVuSans-68"/>
     </g>
    </g>
    <g id="line2d_41">
     <path d="M 182.102355 268.210715 
L 204.310355 268.210715 
" style="fill:none;stroke:#008000;stroke-dasharray:2.96,1.28;stroke-dashoffset:0;stroke-width:0.8;"/>
    </g>
    <g id="line2d_42"/>
    <g id="text_16">
     <!-- PE-CVD -->
     <defs>
      <path d="M 19.671875 64.796875 
L 19.671875 37.40625 
L 32.078125 37.40625 
Q 38.96875 37.40625 42.71875 40.96875 
Q 46.484375 44.53125 46.484375 51.125 
Q 46.484375 57.671875 42.71875 61.234375 
Q 38.96875 64.796875 32.078125 64.796875 
z
M 9.8125 72.90625 
L 32.078125 72.90625 
Q 44.34375 72.90625 50.609375 67.359375 
Q 56.890625 61.8125 56.890625 51.125 
Q 56.890625 40.328125 50.609375 34.8125 
Q 44.34375 29.296875 32.078125 29.296875 
L 19.671875 29.296875 
L 19.671875 0 
L 9.8125 0 
z
" id="DejaVuSans-80"/>
      <path d="M 9.8125 72.90625 
L 55.90625 72.90625 
L 55.90625 64.59375 
L 19.671875 64.59375 
L 19.671875 43.015625 
L 54.390625 43.015625 
L 54.390625 34.71875 
L 19.671875 34.71875 
L 19.671875 8.296875 
L 56.78125 8.296875 
L 56.78125 0 
L 9.8125 0 
z
" id="DejaVuSans-69"/>
     </defs>
     <g transform="translate(213.193555 272.097115)scale(0.11104 -0.11104)">
      <use xlink:href="#DejaVuSans-80"/>
      <use x="60.302734" xlink:href="#DejaVuSans-69"/>
      <use x="123.486328" xlink:href="#DejaVuSans-45"/>
      <use x="159.570312" xlink:href="#DejaVuSans-67"/>
      <use x="229.394531" xlink:href="#DejaVuSans-86"/>
      <use x="297.802734" xlink:href="#DejaVuSans-68"/>
     </g>
    </g>
    <g id="line2d_43">
     <path d="M 277.019 268.210715 
L 299.227 268.210715 
" style="fill:none;stroke:#ff0000;stroke-dasharray:2.96,1.28;stroke-dashoffset:0;stroke-width:0.8;"/>
    </g>
    <g id="line2d_44"/>
    <g id="text_17">
     <!-- SP-CVD -->
     <g transform="translate(308.1102 272.097115)scale(0.11104 -0.11104)">
      <use xlink:href="#DejaVuSans-83"/>
      <use x="63.476562" xlink:href="#DejaVuSans-80"/>
      <use x="123.748047" xlink:href="#DejaVuSans-45"/>
      <use x="159.832031" xlink:href="#DejaVuSans-67"/>
      <use x="229.65625" xlink:href="#DejaVuSans-86"/>
      <use x="298.064453" xlink:href="#DejaVuSans-68"/>
     </g>
    </g>
    <g id="line2d_45">
     <path d="M 371.96514 268.210715 
L 394.17314 268.210715 
" style="fill:none;stroke:#00bfbf;stroke-dasharray:2.96,1.28;stroke-dashoffset:0;stroke-width:0.8;"/>
    </g>
    <g id="line2d_46"/>
    <g id="text_18">
     <!-- LP-CVD -->
     <g transform="translate(403.05634 272.097115)scale(0.11104 -0.11104)">
      <use xlink:href="#DejaVuSans-76"/>
      <use x="55.712891" xlink:href="#DejaVuSans-80"/>
      <use x="115.984375" xlink:href="#DejaVuSans-45"/>
      <use x="152.068359" xlink:href="#DejaVuSans-67"/>
      <use x="221.892578" xlink:href="#DejaVuSans-86"/>
      <use x="290.300781" xlink:href="#DejaVuSans-68"/>
     </g>
    </g>
   </g>
  </g>
 </g>
 <defs>
  <clipPath id="ped3b80f20e">
   <rect height="138.6" width="390.6" x="77.6675" y="7.2"/>
  </clipPath>
  <clipPath id="p8189833fb3">
   <rect height="138.6" width="390.6" x="77.6675" y="145.8"/>
  </clipPath>
 </defs>
</svg>
