<?xml version="1.0" encoding="utf-8" standalone="no"?>
<!DOCTYPE svg PUBLIC "-//W3C//DTD SVG 1.1//EN"
  "http://www.w3.org/Graphics/SVG/1.1/DTD/svg11.dtd">
<!-- Created with matplotlib (https://matplotlib.org/) -->
<svg height="222.69pt" version="1.1" viewBox="0 0 368.685 222.69" width="368.685pt" xmlns="http://www.w3.org/2000/svg" xmlns:xlink="http://www.w3.org/1999/xlink">
 <defs>
  <style type="text/css">
*{stroke-linecap:butt;stroke-linejoin:round;white-space:pre;}
  </style>
 </defs>
 <g id="figure_1">
  <g id="patch_1">
   <path d="M 0 222.69 
L 368.685 222.69 
L 368.685 0 
L 0 0 
z
" style="fill:none;"/>
  </g>
  <g id="axes_1">
   <g id="patch_2">
    <path d="M 26.685 173.52 
L 361.485 173.52 
L 361.485 7.2 
L 26.685 7.2 
z
" style="fill:none;"/>
   </g>
   <g id="matplotlib.axis_1">
    <g id="xtick_1">
     <g id="line2d_1">
      <path clip-path="url(#p8ef8627f85)" d="M 335.731154 173.52 
L 335.731154 7.2 
" style="fill:none;stroke:#b0b0b0;stroke-dasharray:0.8,1.32;stroke-dashoffset:0;stroke-width:0.8;"/>
     </g>
     <g id="line2d_2">
      <defs>
       <path d="M 0 0 
L 0 3.5 
" id="mb7c2eae736" style="stroke:#000000;stroke-width:0.8;"/>
      </defs>
      <g>
       <use style="stroke:#000000;stroke-width:0.8;" x="335.731154" xlink:href="#mb7c2eae736" y="173.52"/>
      </g>
     </g>
     <g id="text_1">
      <!-- 1000 -->
      <defs>
       <path d="M 12.40625 8.296875 
L 28.515625 8.296875 
L 28.515625 63.921875 
L 10.984375 60.40625 
L 10.984375 69.390625 
L 28.421875 72.90625 
L 38.28125 72.90625 
L 38.28125 8.296875 
L 54.390625 8.296875 
L 54.390625 0 
L 12.40625 0 
z
" id="DejaVuSans-49"/>
       <path d="M 31.78125 66.40625 
Q 24.171875 66.40625 20.328125 58.90625 
Q 16.5 51.421875 16.5 36.375 
Q 16.5 21.390625 20.328125 13.890625 
Q 24.171875 6.390625 31.78125 6.390625 
Q 39.453125 6.390625 43.28125 13.890625 
Q 47.125 21.390625 47.125 36.375 
Q 47.125 51.421875 43.28125 58.90625 
Q 39.453125 66.40625 31.78125 66.40625 
z
M 31.78125 74.21875 
Q 44.046875 74.21875 50.515625 64.515625 
Q 56.984375 54.828125 56.984375 36.375 
Q 56.984375 17.96875 50.515625 8.265625 
Q 44.046875 -1.421875 31.78125 -1.421875 
Q 19.53125 -1.421875 13.0625 8.265625 
Q 6.59375 17.96875 6.59375 36.375 
Q 6.59375 54.828125 13.0625 64.515625 
Q 19.53125 74.21875 31.78125 74.21875 
z
" id="DejaVuSans-48"/>
      </defs>
      <g transform="translate(315.371154 192.6775)scale(0.16 -0.16)">
       <use xlink:href="#DejaVuSans-49"/>
       <use x="63.623047" xlink:href="#DejaVuSans-48"/>
       <use x="127.246094" xlink:href="#DejaVuSans-48"/>
       <use x="190.869141" xlink:href="#DejaVuSans-48"/>
      </g>
     </g>
    </g>
    <g id="xtick_2">
     <g id="line2d_3">
      <path clip-path="url(#p8ef8627f85)" d="M 249.885 173.52 
L 249.885 7.2 
" style="fill:none;stroke:#b0b0b0;stroke-dasharray:0.8,1.32;stroke-dashoffset:0;stroke-width:0.8;"/>
     </g>
     <g id="line2d_4">
      <g>
       <use style="stroke:#000000;stroke-width:0.8;" x="249.885" xlink:href="#mb7c2eae736" y="173.52"/>
      </g>
     </g>
     <g id="text_2">
      <!-- 2000 -->
      <defs>
       <path d="M 19.1875 8.296875 
L 53.609375 8.296875 
L 53.609375 0 
L 7.328125 0 
L 7.328125 8.296875 
Q 12.9375 14.109375 22.625 23.890625 
Q 32.328125 33.6875 34.8125 36.53125 
Q 39.546875 41.84375 41.421875 45.53125 
Q 43.3125 49.21875 43.3125 52.78125 
Q 43.3125 58.59375 39.234375 62.25 
Q 35.15625 65.921875 28.609375 65.921875 
Q 23.96875 65.921875 18.8125 64.3125 
Q 13.671875 62.703125 7.8125 59.421875 
L 7.8125 69.390625 
Q 13.765625 71.78125 18.9375 73 
Q 24.125 74.21875 28.421875 74.21875 
Q 39.75 74.21875 46.484375 68.546875 
Q 53.21875 62.890625 53.21875 53.421875 
Q 53.21875 48.921875 51.53125 44.890625 
Q 49.859375 40.875 45.40625 35.40625 
Q 44.1875 33.984375 37.640625 27.21875 
Q 31.109375 20.453125 19.1875 8.296875 
z
" id="DejaVuSans-50"/>
      </defs>
      <g transform="translate(229.525 192.6775)scale(0.16 -0.16)">
       <use xlink:href="#DejaVuSans-50"/>
       <use x="63.623047" xlink:href="#DejaVuSans-48"/>
       <use x="127.246094" xlink:href="#DejaVuSans-48"/>
       <use x="190.869141" xlink:href="#DejaVuSans-48"/>
      </g>
     </g>
    </g>
    <g id="xtick_3">
     <g id="line2d_5">
      <path clip-path="url(#p8ef8627f85)" d="M 164.038846 173.52 
L 164.038846 7.2 
" style="fill:none;stroke:#b0b0b0;stroke-dasharray:0.8,1.32;stroke-dashoffset:0;stroke-width:0.8;"/>
     </g>
     <g id="line2d_6">
      <g>
       <use style="stroke:#000000;stroke-width:0.8;" x="164.038846" xlink:href="#mb7c2eae736" y="173.52"/>
      </g>
     </g>
     <g id="text_3">
      <!-- 3000 -->
      <defs>
       <path d="M 40.578125 39.3125 
Q 47.65625 37.796875 51.625 33 
Q 55.609375 28.21875 55.609375 21.1875 
Q 55.609375 10.40625 48.1875 4.484375 
Q 40.765625 -1.421875 27.09375 -1.421875 
Q 22.515625 -1.421875 17.65625 -0.515625 
Q 12.796875 0.390625 7.625 2.203125 
L 7.625 11.71875 
Q 11.71875 9.328125 16.59375 8.109375 
Q 21.484375 6.890625 26.8125 6.890625 
Q 36.078125 6.890625 40.9375 10.546875 
Q 45.796875 14.203125 45.796875 21.1875 
Q 45.796875 27.640625 41.28125 31.265625 
Q 36.765625 34.90625 28.71875 34.90625 
L 20.21875 34.90625 
L 20.21875 43.015625 
L 29.109375 43.015625 
Q 36.375 43.015625 40.234375 45.921875 
Q 44.09375 48.828125 44.09375 54.296875 
Q 44.09375 59.90625 40.109375 62.90625 
Q 36.140625 65.921875 28.71875 65.921875 
Q 24.65625 65.921875 20.015625 65.03125 
Q 15.375 64.15625 9.8125 62.3125 
L 9.8125 71.09375 
Q 15.4375 72.65625 20.34375 73.4375 
Q 25.25 74.21875 29.59375 74.21875 
Q 40.828125 74.21875 47.359375 69.109375 
Q 53.90625 64.015625 53.90625 55.328125 
Q 53.90625 49.265625 50.4375 45.09375 
Q 46.96875 40.921875 40.578125 39.3125 
z
" id="DejaVuSans-51"/>
      </defs>
      <g transform="translate(143.678846 192.6775)scale(0.16 -0.16)">
       <use xlink:href="#DejaVuSans-51"/>
       <use x="63.623047" xlink:href="#DejaVuSans-48"/>
       <use x="127.246094" xlink:href="#DejaVuSans-48"/>
       <use x="190.869141" xlink:href="#DejaVuSans-48"/>
      </g>
     </g>
    </g>
    <g id="xtick_4">
     <g id="line2d_7">
      <path clip-path="url(#p8ef8627f85)" d="M 78.192692 173.52 
L 78.192692 7.2 
" style="fill:none;stroke:#b0b0b0;stroke-dasharray:0.8,1.32;stroke-dashoffset:0;stroke-width:0.8;"/>
     </g>
     <g id="line2d_8">
      <g>
       <use style="stroke:#000000;stroke-width:0.8;" x="78.192692" xlink:href="#mb7c2eae736" y="173.52"/>
      </g>
     </g>
     <g id="text_4">
      <!-- 4000 -->
      <defs>
       <path d="M 37.796875 64.3125 
L 12.890625 25.390625 
L 37.796875 25.390625 
z
M 35.203125 72.90625 
L 47.609375 72.90625 
L 47.609375 25.390625 
L 58.015625 25.390625 
L 58.015625 17.1875 
L 47.609375 17.1875 
L 47.609375 0 
L 37.796875 0 
L 37.796875 17.1875 
L 4.890625 17.1875 
L 4.890625 26.703125 
z
" id="DejaVuSans-52"/>
      </defs>
      <g transform="translate(57.832692 192.6775)scale(0.16 -0.16)">
       <use xlink:href="#DejaVuSans-52"/>
       <use x="63.623047" xlink:href="#DejaVuSans-48"/>
       <use x="127.246094" xlink:href="#DejaVuSans-48"/>
       <use x="190.869141" xlink:href="#DejaVuSans-48"/>
      </g>
     </g>
    </g>
    <g id="text_5">
     <!-- wave number (cm$^-1$) -->
     <defs>
      <path d="M 4.203125 54.6875 
L 13.1875 54.6875 
L 24.421875 12.015625 
L 35.59375 54.6875 
L 46.1875 54.6875 
L 57.421875 12.015625 
L 68.609375 54.6875 
L 77.59375 54.6875 
L 63.28125 0 
L 52.6875 0 
L 40.921875 44.828125 
L 29.109375 0 
L 18.5 0 
z
" id="DejaVuSans-119"/>
      <path d="M 34.28125 27.484375 
Q 23.390625 27.484375 19.1875 25 
Q 14.984375 22.515625 14.984375 16.5 
Q 14.984375 11.71875 18.140625 8.90625 
Q 21.296875 6.109375 26.703125 6.109375 
Q 34.1875 6.109375 38.703125 11.40625 
Q 43.21875 16.703125 43.21875 25.484375 
L 43.21875 27.484375 
z
M 52.203125 31.203125 
L 52.203125 0 
L 43.21875 0 
L 43.21875 8.296875 
Q 40.140625 3.328125 35.546875 0.953125 
Q 30.953125 -1.421875 24.3125 -1.421875 
Q 15.921875 -1.421875 10.953125 3.296875 
Q 6 8.015625 6 15.921875 
Q 6 25.140625 12.171875 29.828125 
Q 18.359375 34.515625 30.609375 34.515625 
L 43.21875 34.515625 
L 43.21875 35.40625 
Q 43.21875 41.609375 39.140625 45 
Q 35.0625 48.390625 27.6875 48.390625 
Q 23 48.390625 18.546875 47.265625 
Q 14.109375 46.140625 10.015625 43.890625 
L 10.015625 52.203125 
Q 14.9375 54.109375 19.578125 55.046875 
Q 24.21875 56 28.609375 56 
Q 40.484375 56 46.34375 49.84375 
Q 52.203125 43.703125 52.203125 31.203125 
z
" id="DejaVuSans-97"/>
      <path d="M 2.984375 54.6875 
L 12.5 54.6875 
L 29.59375 8.796875 
L 46.6875 54.6875 
L 56.203125 54.6875 
L 35.6875 0 
L 23.484375 0 
z
" id="DejaVuSans-118"/>
      <path d="M 56.203125 29.59375 
L 56.203125 25.203125 
L 14.890625 25.203125 
Q 15.484375 15.921875 20.484375 11.0625 
Q 25.484375 6.203125 34.421875 6.203125 
Q 39.59375 6.203125 44.453125 7.46875 
Q 49.3125 8.734375 54.109375 11.28125 
L 54.109375 2.78125 
Q 49.265625 0.734375 44.1875 -0.34375 
Q 39.109375 -1.421875 33.890625 -1.421875 
Q 20.796875 -1.421875 13.15625 6.1875 
Q 5.515625 13.8125 5.515625 26.8125 
Q 5.515625 40.234375 12.765625 48.109375 
Q 20.015625 56 32.328125 56 
Q 43.359375 56 49.78125 48.890625 
Q 56.203125 41.796875 56.203125 29.59375 
z
M 47.21875 32.234375 
Q 47.125 39.59375 43.09375 43.984375 
Q 39.0625 48.390625 32.421875 48.390625 
Q 24.90625 48.390625 20.390625 44.140625 
Q 15.875 39.890625 15.1875 32.171875 
z
" id="DejaVuSans-101"/>
      <path id="DejaVuSans-32"/>
      <path d="M 54.890625 33.015625 
L 54.890625 0 
L 45.90625 0 
L 45.90625 32.71875 
Q 45.90625 40.484375 42.875 44.328125 
Q 39.84375 48.1875 33.796875 48.1875 
Q 26.515625 48.1875 22.3125 43.546875 
Q 18.109375 38.921875 18.109375 30.90625 
L 18.109375 0 
L 9.078125 0 
L 9.078125 54.6875 
L 18.109375 54.6875 
L 18.109375 46.1875 
Q 21.34375 51.125 25.703125 53.5625 
Q 30.078125 56 35.796875 56 
Q 45.21875 56 50.046875 50.171875 
Q 54.890625 44.34375 54.890625 33.015625 
z
" id="DejaVuSans-110"/>
      <path d="M 8.5 21.578125 
L 8.5 54.6875 
L 17.484375 54.6875 
L 17.484375 21.921875 
Q 17.484375 14.15625 20.5 10.265625 
Q 23.53125 6.390625 29.59375 6.390625 
Q 36.859375 6.390625 41.078125 11.03125 
Q 45.3125 15.671875 45.3125 23.6875 
L 45.3125 54.6875 
L 54.296875 54.6875 
L 54.296875 0 
L 45.3125 0 
L 45.3125 8.40625 
Q 42.046875 3.421875 37.71875 1 
Q 33.40625 -1.421875 27.6875 -1.421875 
Q 18.265625 -1.421875 13.375 4.4375 
Q 8.5 10.296875 8.5 21.578125 
z
M 31.109375 56 
z
" id="DejaVuSans-117"/>
      <path d="M 52 44.1875 
Q 55.375 50.25 60.0625 53.125 
Q 64.75 56 71.09375 56 
Q 79.640625 56 84.28125 50.015625 
Q 88.921875 44.046875 88.921875 33.015625 
L 88.921875 0 
L 79.890625 0 
L 79.890625 32.71875 
Q 79.890625 40.578125 77.09375 44.375 
Q 74.3125 48.1875 68.609375 48.1875 
Q 61.625 48.1875 57.5625 43.546875 
Q 53.515625 38.921875 53.515625 30.90625 
L 53.515625 0 
L 44.484375 0 
L 44.484375 32.71875 
Q 44.484375 40.625 41.703125 44.40625 
Q 38.921875 48.1875 33.109375 48.1875 
Q 26.21875 48.1875 22.15625 43.53125 
Q 18.109375 38.875 18.109375 30.90625 
L 18.109375 0 
L 9.078125 0 
L 9.078125 54.6875 
L 18.109375 54.6875 
L 18.109375 46.1875 
Q 21.1875 51.21875 25.484375 53.609375 
Q 29.78125 56 35.6875 56 
Q 41.65625 56 45.828125 52.96875 
Q 50 49.953125 52 44.1875 
z
" id="DejaVuSans-109"/>
      <path d="M 48.6875 27.296875 
Q 48.6875 37.203125 44.609375 42.84375 
Q 40.53125 48.484375 33.40625 48.484375 
Q 26.265625 48.484375 22.1875 42.84375 
Q 18.109375 37.203125 18.109375 27.296875 
Q 18.109375 17.390625 22.1875 11.75 
Q 26.265625 6.109375 33.40625 6.109375 
Q 40.53125 6.109375 44.609375 11.75 
Q 48.6875 17.390625 48.6875 27.296875 
z
M 18.109375 46.390625 
Q 20.953125 51.265625 25.265625 53.625 
Q 29.59375 56 35.59375 56 
Q 45.5625 56 51.78125 48.09375 
Q 58.015625 40.1875 58.015625 27.296875 
Q 58.015625 14.40625 51.78125 6.484375 
Q 45.5625 -1.421875 35.59375 -1.421875 
Q 29.59375 -1.421875 25.265625 0.953125 
Q 20.953125 3.328125 18.109375 8.203125 
L 18.109375 0 
L 9.078125 0 
L 9.078125 75.984375 
L 18.109375 75.984375 
z
" id="DejaVuSans-98"/>
      <path d="M 41.109375 46.296875 
Q 39.59375 47.171875 37.8125 47.578125 
Q 36.03125 48 33.890625 48 
Q 26.265625 48 22.1875 43.046875 
Q 18.109375 38.09375 18.109375 28.8125 
L 18.109375 0 
L 9.078125 0 
L 9.078125 54.6875 
L 18.109375 54.6875 
L 18.109375 46.1875 
Q 20.953125 51.171875 25.484375 53.578125 
Q 30.03125 56 36.53125 56 
Q 37.453125 56 38.578125 55.875 
Q 39.703125 55.765625 41.0625 55.515625 
z
" id="DejaVuSans-114"/>
      <path d="M 31 75.875 
Q 24.46875 64.65625 21.28125 53.65625 
Q 18.109375 42.671875 18.109375 31.390625 
Q 18.109375 20.125 21.3125 9.0625 
Q 24.515625 -2 31 -13.1875 
L 23.1875 -13.1875 
Q 15.875 -1.703125 12.234375 9.375 
Q 8.59375 20.453125 8.59375 31.390625 
Q 8.59375 42.28125 12.203125 53.3125 
Q 15.828125 64.359375 23.1875 75.875 
z
" id="DejaVuSans-40"/>
      <path d="M 48.78125 52.59375 
L 48.78125 44.1875 
Q 44.96875 46.296875 41.140625 47.34375 
Q 37.3125 48.390625 33.40625 48.390625 
Q 24.65625 48.390625 19.8125 42.84375 
Q 14.984375 37.3125 14.984375 27.296875 
Q 14.984375 17.28125 19.8125 11.734375 
Q 24.65625 6.203125 33.40625 6.203125 
Q 37.3125 6.203125 41.140625 7.25 
Q 44.96875 8.296875 48.78125 10.40625 
L 48.78125 2.09375 
Q 45.015625 0.34375 40.984375 -0.53125 
Q 36.96875 -1.421875 32.421875 -1.421875 
Q 20.0625 -1.421875 12.78125 6.34375 
Q 5.515625 14.109375 5.515625 27.296875 
Q 5.515625 40.671875 12.859375 48.328125 
Q 20.21875 56 33.015625 56 
Q 37.15625 56 41.109375 55.140625 
Q 45.0625 54.296875 48.78125 52.59375 
z
" id="DejaVuSans-99"/>
      <path d="M 10.59375 35.5 
L 73.1875 35.5 
L 73.1875 27.203125 
L 10.59375 27.203125 
z
" id="DejaVuSans-8722"/>
      <path d="M 8.015625 75.875 
L 15.828125 75.875 
Q 23.140625 64.359375 26.78125 53.3125 
Q 30.421875 42.28125 30.421875 31.390625 
Q 30.421875 20.453125 26.78125 9.375 
Q 23.140625 -1.703125 15.828125 -13.1875 
L 8.015625 -13.1875 
Q 14.5 -2 17.703125 9.0625 
Q 20.90625 20.125 20.90625 31.390625 
Q 20.90625 42.671875 17.703125 53.65625 
Q 14.5 64.65625 8.015625 75.875 
z
" id="DejaVuSans-41"/>
     </defs>
     <g transform="translate(105.925 212.1625)scale(0.16 -0.16)">
      <use transform="translate(0 0.015625)" xlink:href="#DejaVuSans-119"/>
      <use transform="translate(81.787109 0.015625)" xlink:href="#DejaVuSans-97"/>
      <use transform="translate(143.066406 0.015625)" xlink:href="#DejaVuSans-118"/>
      <use transform="translate(202.246094 0.015625)" xlink:href="#DejaVuSans-101"/>
      <use transform="translate(263.769531 0.015625)" xlink:href="#DejaVuSans-32"/>
      <use transform="translate(295.556641 0.015625)" xlink:href="#DejaVuSans-110"/>
      <use transform="translate(358.935547 0.015625)" xlink:href="#DejaVuSans-117"/>
      <use transform="translate(422.314453 0.015625)" xlink:href="#DejaVuSans-109"/>
      <use transform="translate(519.726562 0.015625)" xlink:href="#DejaVuSans-98"/>
      <use transform="translate(583.203125 0.015625)" xlink:href="#DejaVuSans-101"/>
      <use transform="translate(644.726562 0.015625)" xlink:href="#DejaVuSans-114"/>
      <use transform="translate(685.839844 0.015625)" xlink:href="#DejaVuSans-32"/>
      <use transform="translate(717.626953 0.015625)" xlink:href="#DejaVuSans-40"/>
      <use transform="translate(756.640625 0.015625)" xlink:href="#DejaVuSans-99"/>
      <use transform="translate(811.621094 0.015625)" xlink:href="#DejaVuSans-109"/>
      <use transform="translate(923.62793 38.296875)scale(0.7)" xlink:href="#DejaVuSans-8722"/>
      <use transform="translate(998.652344 0.015625)" xlink:href="#DejaVuSans-49"/>
      <use transform="translate(1062.275391 0.015625)" xlink:href="#DejaVuSans-41"/>
     </g>
    </g>
   </g>
   <g id="matplotlib.axis_2">
    <g id="text_6">
     <!-- Transmittance (a.u.) -->
     <defs>
      <path d="M -0.296875 72.90625 
L 61.375 72.90625 
L 61.375 64.59375 
L 35.5 64.59375 
L 35.5 0 
L 25.59375 0 
L 25.59375 64.59375 
L -0.296875 64.59375 
z
" id="DejaVuSans-84"/>
      <path d="M 44.28125 53.078125 
L 44.28125 44.578125 
Q 40.484375 46.53125 36.375 47.5 
Q 32.28125 48.484375 27.875 48.484375 
Q 21.1875 48.484375 17.84375 46.4375 
Q 14.5 44.390625 14.5 40.28125 
Q 14.5 37.15625 16.890625 35.375 
Q 19.28125 33.59375 26.515625 31.984375 
L 29.59375 31.296875 
Q 39.15625 29.25 43.1875 25.515625 
Q 47.21875 21.78125 47.21875 15.09375 
Q 47.21875 7.46875 41.1875 3.015625 
Q 35.15625 -1.421875 24.609375 -1.421875 
Q 20.21875 -1.421875 15.453125 -0.5625 
Q 10.6875 0.296875 5.421875 2 
L 5.421875 11.28125 
Q 10.40625 8.6875 15.234375 7.390625 
Q 20.0625 6.109375 24.8125 6.109375 
Q 31.15625 6.109375 34.5625 8.28125 
Q 37.984375 10.453125 37.984375 14.40625 
Q 37.984375 18.0625 35.515625 20.015625 
Q 33.0625 21.96875 24.703125 23.78125 
L 21.578125 24.515625 
Q 13.234375 26.265625 9.515625 29.90625 
Q 5.8125 33.546875 5.8125 39.890625 
Q 5.8125 47.609375 11.28125 51.796875 
Q 16.75 56 26.8125 56 
Q 31.78125 56 36.171875 55.265625 
Q 40.578125 54.546875 44.28125 53.078125 
z
" id="DejaVuSans-115"/>
      <path d="M 9.421875 54.6875 
L 18.40625 54.6875 
L 18.40625 0 
L 9.421875 0 
z
M 9.421875 75.984375 
L 18.40625 75.984375 
L 18.40625 64.59375 
L 9.421875 64.59375 
z
" id="DejaVuSans-105"/>
      <path d="M 18.3125 70.21875 
L 18.3125 54.6875 
L 36.8125 54.6875 
L 36.8125 47.703125 
L 18.3125 47.703125 
L 18.3125 18.015625 
Q 18.3125 11.328125 20.140625 9.421875 
Q 21.96875 7.515625 27.59375 7.515625 
L 36.8125 7.515625 
L 36.8125 0 
L 27.59375 0 
Q 17.1875 0 13.234375 3.875 
Q 9.28125 7.765625 9.28125 18.015625 
L 9.28125 47.703125 
L 2.6875 47.703125 
L 2.6875 54.6875 
L 9.28125 54.6875 
L 9.28125 70.21875 
z
" id="DejaVuSans-116"/>
      <path d="M 10.6875 12.40625 
L 21 12.40625 
L 21 0 
L 10.6875 0 
z
" id="DejaVuSans-46"/>
     </defs>
     <g transform="translate(19.3575 172.08125)rotate(-90)scale(0.16 -0.16)">
      <use xlink:href="#DejaVuSans-84"/>
      <use x="60.865234" xlink:href="#DejaVuSans-114"/>
      <use x="101.978516" xlink:href="#DejaVuSans-97"/>
      <use x="163.257812" xlink:href="#DejaVuSans-110"/>
      <use x="226.636719" xlink:href="#DejaVuSans-115"/>
      <use x="278.736328" xlink:href="#DejaVuSans-109"/>
      <use x="376.148438" xlink:href="#DejaVuSans-105"/>
      <use x="403.931641" xlink:href="#DejaVuSans-116"/>
      <use x="443.140625" xlink:href="#DejaVuSans-116"/>
      <use x="482.349609" xlink:href="#DejaVuSans-97"/>
      <use x="543.628906" xlink:href="#DejaVuSans-110"/>
      <use x="607.007812" xlink:href="#DejaVuSans-99"/>
      <use x="661.988281" xlink:href="#DejaVuSans-101"/>
      <use x="723.511719" xlink:href="#DejaVuSans-32"/>
      <use x="755.298828" xlink:href="#DejaVuSans-40"/>
      <use x="794.3125" xlink:href="#DejaVuSans-97"/>
      <use x="855.591797" xlink:href="#DejaVuSans-46"/>
      <use x="887.378906" xlink:href="#DejaVuSans-117"/>
      <use x="950.757812" xlink:href="#DejaVuSans-46"/>
      <use x="982.544922" xlink:href="#DejaVuSans-41"/>
     </g>
    </g>
   </g>
   <g id="line2d_9">
    <path clip-path="url(#p8ef8627f85)" d="M 361.471247 92.926864 
L 361.140084 94.738706 
L 360.64334 98.760349 
L 359.981014 106.14187 
L 357.166129 150.029228 
L 356.503804 157.287399 
L 355.675897 163.199311 
L 355.344734 164.636365 
L 355.013571 165.450679 
L 354.682408 165.868007 
L 354.516826 165.96 
L 354.020082 165.679641 
L 353.523338 164.888671 
L 353.026594 163.323431 
L 352.529849 161.922611 
L 351.370779 157.903979 
L 350.874035 156.074734 
L 349.218221 149.700348 
L 343.919615 124.860951 
L 340.276823 105.276462 
L 336.46845 83.367829 
L 333.984729 71.563943 
L 332.99124 66.817398 
L 330.838681 56.552045 
L 327.19589 40.487508 
L 325.705657 34.89279 
L 325.043331 33.192751 
L 324.381005 32.153422 
L 322.725191 29.953339 
L 321.731702 27.912461 
L 320.738214 25.993303 
L 319.579144 24.121824 
L 318.088911 22.161996 
L 315.108445 18.902508 
L 313.783793 17.927942 
L 312.127979 17.128714 
L 309.313095 16.606416 
L 308.485188 16.51322 
L 305.670303 16.361631 
L 303.848907 16.331862 
L 303.352163 16.336471 
L 302.027512 16.307648 
L 301.530767 16.267348 
L 300.371697 16.311121 
L 296.728906 16.310986 
L 296.397743 16.283726 
L 295.735417 16.245767 
L 295.404254 16.262169 
L 295.073091 16.2013 
L 294.079603 16.174482 
L 293.74844 16.069187 
L 293.251696 16.144503 
L 292.920533 16.112461 
L 292.58937 16.168418 
L 291.927044 16.127875 
L 291.595881 16.138231 
L 291.264718 16.075493 
L 290.933555 16.088893 
L 290.436811 16.072696 
L 290.105648 16.098734 
L 289.443323 16.079679 
L 288.449834 16.176686 
L 287.95309 16.153949 
L 287.787508 16.343978 
L 287.621927 16.344847 
L 287.290764 16.106496 
L 284.144717 16.17013 
L 282.157739 16.019353 
L 281.495414 16.138417 
L 280.998669 16.007459 
L 280.667506 16.113192 
L 280.005181 15.995331 
L 279.508436 16.210709 
L 278.846111 16.057826 
L 278.514948 16.088546 
L 278.183785 15.974208 
L 277.521459 16.067468 
L 277.024715 15.923436 
L 276.693552 15.920995 
L 275.700063 15.918354 
L 275.534482 15.997093 
L 275.203319 15.726296 
L 274.540993 15.81111 
L 274.20983 15.732581 
L 273.381923 15.838977 
L 272.719598 15.816384 
L 272.388435 15.712682 
L 271.394946 15.612048 
L 271.063783 15.722814 
L 270.73262 15.632675 
L 270.070295 15.635136 
L 268.745643 15.501902 
L 268.248899 15.578001 
L 267.089829 15.445101 
L 266.593084 15.519765 
L 265.434014 15.475322 
L 264.771689 15.422668 
L 264.440526 15.332964 
L 264.109363 15.427565 
L 260.632153 15.351992 
L 257.98285 15.227026 
L 257.320524 15.191945 
L 249.86936 15.00198 
L 247.220057 14.967967 
L 239.603311 14.950907 
L 238.113078 14.972494 
L 225.032144 15.223198 
L 224.204237 15.580572 
L 223.541911 16.083629 
L 223.045167 16.735748 
L 222.879586 16.86762 
L 222.548423 17.623505 
L 221.886097 19.240614 
L 221.389353 20.454157 
L 221.223771 20.534059 
L 220.561446 21.436706 
L 220.395864 21.088237 
L 219.89912 18.07346 
L 219.733538 19.289801 
L 219.071213 27.948333 
L 218.905631 28.238736 
L 218.74005 27.533877 
L 218.243305 22.277278 
L 217.746561 18.002979 
L 217.249817 16.032378 
L 216.753073 15.249711 
L 216.42191 15.123397 
L 214.10377 15.096 
L 178.834924 15.238365 
L 176.185621 15.55519 
L 175.357714 15.431634 
L 171.714922 15.618953 
L 170.059108 15.994347 
L 169.065619 15.729651 
L 168.237712 15.637734 
L 166.913061 15.551303 
L 164.263758 15.339645 
L 160.620966 15.316347 
L 158.79957 15.324948 
L 142.738171 15.54336 
L 139.426542 15.567443 
L 136.446076 15.627732 
L 126.842353 15.575261 
L 126.345609 15.532841 
L 117.900956 15.404627 
L 117.23863 15.421494 
L 115.748397 15.334493 
L 115.417234 15.411872 
L 115.251653 15.466233 
L 114.754908 15.307538 
L 113.76142 15.411917 
L 113.430257 15.497998 
L 113.099094 15.362927 
L 112.767931 15.380266 
L 112.436768 15.329323 
L 111.608861 15.328783 
L 111.277698 15.262277 
L 110.946535 15.370657 
L 110.780954 15.444499 
L 110.449791 15.347507 
L 110.28421 15.420465 
L 109.953047 15.716602 
L 109.621884 15.288793 
L 108.793977 15.178837 
L 108.628395 15.194152 
L 108.297233 15.560664 
L 107.96607 15.269519 
L 107.800488 15.168395 
L 107.469325 15.181601 
L 106.972581 15.112082 
L 106.641418 15.185163 
L 106.475837 15.381363 
L 106.144674 15.354372 
L 105.979092 15.514346 
L 105.64793 15.137525 
L 105.151185 15.188423 
L 104.820022 15.416364 
L 104.323278 15.236777 
L 103.495371 15.289969 
L 102.667464 15.235257 
L 102.501882 15.157771 
L 100.846068 15.73042 
L 100.514905 15.240301 
L 100.349324 15.318817 
L 100.183742 15.739389 
L 100.018161 15.777621 
L 99.852579 15.429078 
L 99.521416 15.560074 
L 99.024672 15.086806 
L 97.700021 15.125505 
L 97.203276 15.101862 
L 96.872114 15.131174 
L 96.375369 15.135968 
L 95.713043 15.104468 
L 95.050718 15.282934 
L 94.885136 15.149438 
L 94.719555 15.218996 
L 94.222811 15.064456 
L 93.891648 15.284398 
L 93.726066 15.179748 
L 93.394903 15.277758 
L 93.06374 15.088446 
L 92.070252 15.313689 
L 91.573508 15.117979 
L 91.076763 15.152142 
L 90.7456 16.002501 
L 90.414438 15.172512 
L 90.083275 15.092368 
L 89.255367 15.324056 
L 88.924205 15.130558 
L 88.593042 15.081614 
L 88.261879 15.221342 
L 86.937227 15.161826 
L 86.606065 15.359226 
L 85.446994 15.065732 
L 85.115832 15.108447 
L 84.122343 15.030418 
L 83.79118 15.045908 
L 83.460017 14.990891 
L 81.141877 15.000535 
L 79.1549 14.960858 
L 76.008853 14.923451 
L 74.849783 14.917958 
L 65.577222 14.785168 
L 64.583734 14.788258 
L 62.431175 14.777141 
L 61.437686 14.801128 
L 60.775361 14.777625 
L 59.781872 14.798787 
L 59.119546 14.820709 
L 52.496289 14.901452 
L 51.668382 14.908024 
L 50.509312 14.957312 
L 47.197683 15.031505 
L 46.535357 15.066184 
L 46.038613 15.053147 
L 45.376287 15.125471 
L 44.713961 15.122009 
L 44.051636 15.146643 
L 42.064658 15.208939 
L 41.236751 15.248995 
L 38.918611 15.413149 
L 38.090704 15.487795 
L 37.59396 15.492047 
L 36.269308 15.540111 
L 35.606983 15.591722 
L 35.27582 15.645889 
L 34.447912 15.643324 
L 33.123261 15.739172 
L 31.301865 15.844885 
L 30.970702 15.880295 
L 30.473958 15.886002 
L 29.646051 15.943911 
L 29.314888 15.961172 
L 28.818144 16.004592 
L 28.321399 16.03245 
L 27.659074 16.129615 
L 27.327911 16.048624 
L 26.665585 16.083782 
L 26.665585 16.083782 
" style="fill:none;stroke:#0000ff;stroke-linecap:square;stroke-width:0.8;"/>
   </g>
   <g id="line2d_10">
    <path clip-path="url(#p8ef8627f85)" d="M 361.471247 47.255168 
L 361.140084 48.07924 
L 360.808921 49.339406 
L 359.649851 56.820627 
L 358.821944 63.115764 
L 357.497292 73.85043 
L 356.007059 82.135008 
L 355.675897 83.329463 
L 354.847989 87.996745 
L 354.351245 89.947147 
L 353.854501 91.195346 
L 353.192175 91.757699 
L 352.861012 91.756899 
L 352.529849 91.563358 
L 352.364268 91.44642 
L 351.205198 89.322329 
L 350.211709 86.791513 
L 349.218221 83.488435 
L 347.231243 75.625964 
L 346.403336 73.040093 
L 345.74101 71.45644 
L 344.250778 68.202156 
L 343.919615 67.488646 
L 341.270312 63.168797 
L 338.455427 59.19823 
L 337.461939 57.883834 
L 336.634031 57.21529 
L 336.302869 57.169843 
L 336.137287 57.209076 
L 335.640543 57.806894 
L 335.143799 58.883455 
L 334.315891 60.840009 
L 333.984729 61.145221 
L 333.819147 61.148187 
L 333.653566 60.974441 
L 333.156821 59.706405 
L 332.660077 57.786137 
L 330.010774 45.953871 
L 329.348448 44.104676 
L 328.851704 43.074431 
L 328.189378 42.215919 
L 327.858215 42.011429 
L 327.527053 42.086703 
L 327.19589 42.424406 
L 326.864727 43.161623 
L 326.533564 44.50986 
L 326.03682 47.953923 
L 325.540075 51.447551 
L 325.374494 51.51475 
L 325.208912 50.560278 
L 324.87775 45.885883 
L 324.215424 35.459809 
L 323.71868 31.291742 
L 323.221935 29.013215 
L 322.55961 27.275957 
L 322.062865 26.352731 
L 320.572632 24.323909 
L 318.420074 21.850093 
L 315.770771 18.81539 
L 314.777282 17.860827 
L 313.452631 16.909663 
L 311.300072 16.061262 
L 310.141002 15.868941 
L 306.994955 15.699848 
L 306.49821 15.760074 
L 306.167047 15.657202 
L 305.670303 15.652352 
L 304.842396 15.691255 
L 304.511233 15.796549 
L 304.18007 15.648034 
L 303.683326 15.745985 
L 303.352163 15.680693 
L 302.689837 15.666448 
L 302.524256 15.75717 
L 302.027512 15.657422 
L 301.696349 15.780041 
L 301.365186 15.682898 
L 301.199604 15.598935 
L 300.868442 15.650428 
L 300.537279 15.581752 
L 300.040534 15.6527 
L 299.709371 15.918965 
L 299.378209 15.666394 
L 298.550301 15.595598 
L 298.219139 15.918081 
L 297.887976 15.546063 
L 297.556813 15.534237 
L 297.22565 15.652112 
L 296.894487 15.584482 
L 296.728906 15.728382 
L 296.563324 16.231091 
L 296.397743 16.193902 
L 296.06658 15.568386 
L 295.735417 15.690294 
L 295.569836 15.559226 
L 295.404254 15.59912 
L 295.238673 15.910867 
L 295.073091 15.979867 
L 294.741928 15.578244 
L 294.410766 15.480593 
L 294.079603 15.511943 
L 293.74844 15.829445 
L 293.251696 15.567372 
L 293.086114 15.764999 
L 292.58937 15.520905 
L 292.423788 15.824865 
L 292.258207 16.581022 
L 291.761463 15.641517 
L 291.595881 15.627274 
L 290.933555 16.196861 
L 290.602393 15.792066 
L 290.105648 15.610611 
L 289.940067 15.8085 
L 289.774485 15.672151 
L 289.608904 15.75965 
L 289.443323 16.455007 
L 289.277741 16.568352 
L 288.946578 15.813293 
L 288.780997 15.58574 
L 288.284252 15.611796 
L 287.95309 16.089627 
L 287.787508 17.027986 
L 287.290764 15.535358 
L 286.959601 15.643015 
L 286.79402 15.755451 
L 286.628438 15.556508 
L 286.462857 15.568569 
L 286.297275 15.866705 
L 285.800531 15.454268 
L 283.647972 15.408052 
L 282.985647 15.477959 
L 282.820065 15.725312 
L 282.488902 15.428982 
L 282.157739 15.567654 
L 281.660995 15.420896 
L 281.495414 15.408934 
L 281.164251 15.960263 
L 280.667506 15.363092 
L 280.501925 15.411707 
L 280.170762 15.889536 
L 280.005181 15.640423 
L 279.839599 15.798563 
L 279.674018 16.616465 
L 279.342855 15.469325 
L 279.177274 15.373352 
L 278.680529 15.432789 
L 278.514948 15.400094 
L 278.183785 15.680551 
L 278.018203 15.546978 
L 277.687041 15.589453 
L 277.521459 15.405832 
L 277.355878 15.433587 
L 277.190296 15.635618 
L 277.024715 16.10606 
L 276.527971 15.377197 
L 276.362389 15.325467 
L 276.196808 15.395019 
L 276.031226 15.764585 
L 275.534482 15.947761 
L 275.368901 15.494498 
L 275.037738 15.418426 
L 274.706575 15.259961 
L 274.540993 15.328573 
L 274.20983 15.767853 
L 274.044249 15.685346 
L 273.713086 15.227045 
L 273.216342 15.25116 
L 272.885179 15.52371 
L 272.719598 15.793665 
L 272.388435 15.318717 
L 272.222853 15.411568 
L 271.726109 15.315175 
L 271.229365 15.447092 
L 270.898202 15.203775 
L 270.401457 15.265339 
L 269.739132 15.29574 
L 269.407969 15.492694 
L 269.076806 15.184054 
L 268.41448 15.155341 
L 267.917736 15.224286 
L 267.752155 15.388576 
L 267.25541 15.17186 
L 266.924247 15.231486 
L 266.593084 15.119926 
L 265.434014 15.089715 
L 264.606107 15.231887 
L 264.440526 15.262847 
L 264.109363 15.099211 
L 263.447037 15.177211 
L 263.281456 15.320881 
L 262.453549 15.10007 
L 261.294479 15.221091 
L 261.128897 15.28356 
L 260.632153 15.097387 
L 258.479594 15.091755 
L 251.359592 15.290068 
L 248.544708 15.61747 
L 247.220057 15.865569 
L 245.564242 16.303256 
L 240.762381 18.100214 
L 238.44424 18.473247 
L 236.291682 18.345449 
L 234.139123 17.597657 
L 231.48982 16.510255 
L 229.834006 15.997274 
L 228.509354 15.746795 
L 225.197726 15.50807 
L 224.204237 15.775985 
L 223.541911 16.253331 
L 222.714004 17.370757 
L 221.886097 19.804228 
L 221.389353 21.235906 
L 221.223771 21.340179 
L 220.561446 22.486443 
L 220.395864 21.969864 
L 219.89912 18.42237 
L 219.733538 19.846982 
L 219.071213 29.811568 
L 218.905631 30.230293 
L 218.74005 29.422795 
L 217.58098 17.335515 
L 217.249817 16.135519 
L 216.918654 15.515044 
L 216.587491 15.302847 
L 216.090747 15.255626 
L 213.772607 15.246186 
L 205.659116 15.246411 
L 203.506558 15.247951 
L 197.711207 15.256404 
L 195.393067 15.276651 
L 189.763299 15.25932 
L 188.438647 15.254127 
L 186.120507 15.214932 
L 184.464693 15.218184 
L 170.721434 15.35098 
L 169.893526 15.333954 
L 167.409805 15.247632 
L 166.416316 15.221185 
L 165.422828 15.194472 
L 163.270269 15.169617 
L 153.666546 15.171662 
L 152.176313 15.149057 
L 149.195847 15.177265 
L 146.0498 15.222991 
L 144.559567 15.209221 
L 129.491656 15.290166 
L 127.339098 15.248996 
L 124.689795 15.294438 
L 123.365143 15.300884 
L 122.537236 15.295804 
L 121.378166 15.302113 
L 120.550259 15.317914 
L 117.900956 15.304778 
L 117.404211 15.349141 
L 117.073049 15.440388 
L 116.741886 15.318597 
L 115.582816 15.528726 
L 115.417234 15.753965 
L 115.251653 15.724262 
L 114.92049 15.283057 
L 114.423746 15.290551 
L 113.927001 15.425426 
L 113.595838 15.829014 
L 113.099094 15.537382 
L 112.933513 15.602981 
L 112.60235 15.480011 
L 111.940024 15.677307 
L 111.774443 15.817305 
L 111.44328 15.683882 
L 111.112117 15.676551 
L 110.946535 15.867171 
L 110.780954 15.850255 
L 110.615373 15.583135 
L 110.449791 15.54474 
L 110.28421 15.788076 
L 110.118628 16.305819 
L 109.953047 16.308323 
L 109.621884 15.504395 
L 109.12514 15.326521 
L 108.793977 15.400747 
L 108.628395 15.603052 
L 108.297233 16.496202 
L 107.800488 15.516866 
L 107.634907 15.578454 
L 107.303744 15.211785 
L 106.972581 15.225625 
L 106.807 15.374458 
L 106.475837 16.077003 
L 106.310255 15.916978 
L 105.979092 16.339736 
L 105.64793 15.470605 
L 105.482348 15.320952 
L 105.316767 15.331138 
L 105.151185 15.502092 
L 104.820022 16.147568 
L 104.323278 15.405056 
L 103.660952 15.604536 
L 103.495371 15.461376 
L 103.329789 15.545206 
L 102.998627 16.096016 
L 102.833045 15.905575 
L 102.667464 15.479 
L 102.501882 15.361753 
L 101.839557 15.797315 
L 101.342812 15.802818 
L 101.011649 16.490564 
L 100.846068 16.474376 
L 100.514905 15.693728 
L 100.349324 15.800957 
L 100.183742 16.424334 
L 100.018161 16.504042 
L 99.852579 16.096425 
L 99.686998 16.416206 
L 99.521416 16.408989 
L 99.190254 15.511517 
L 98.196765 15.417144 
L 97.865602 15.449768 
L 97.534439 15.16635 
L 96.706532 15.22625 
L 95.878625 15.193035 
L 95.547462 15.499835 
L 95.381881 15.58888 
L 95.216299 15.887109 
L 94.885136 15.464819 
L 94.719555 15.541306 
L 94.388392 15.153304 
L 94.222811 15.230561 
L 93.891648 15.749885 
L 93.726066 15.630629 
L 93.560485 15.842258 
L 93.06374 15.275391 
L 92.732578 15.307616 
L 92.070252 15.98392 
L 91.407926 15.221092 
L 91.242345 15.177077 
L 91.076763 15.441278 
L 90.7456 16.695246 
L 90.414438 15.366304 
L 90.248856 15.211348 
L 89.752112 15.569045 
L 89.58653 15.449874 
L 89.255367 15.665559 
L 89.089786 15.401677 
L 88.593042 15.264227 
L 88.42746 15.493047 
L 88.096297 15.415726 
L 87.930716 15.442211 
L 87.765135 15.209392 
L 87.433972 15.354559 
L 87.102809 15.110403 
L 86.606065 15.651676 
L 86.440483 15.614114 
L 85.943739 14.989874 
L 85.612576 14.986975 
L 85.115832 15.194316 
L 84.453506 15.064839 
L 66.736292 14.792877 
L 64.086989 14.801719 
L 62.100012 14.775599 
L 61.437686 14.795312 
L 60.609779 14.80845 
L 59.450709 14.809846 
L 56.801406 14.830848 
L 55.642336 14.863927 
L 54.98001 14.849741 
L 49.846986 14.95003 
L 49.515823 15.065182 
L 48.853497 14.972625 
L 47.860009 15.054231 
L 47.363264 15.095047 
L 45.873032 15.137505 
L 40.574426 15.339506 
L 40.077681 15.391692 
L 39.746518 15.364311 
L 39.249774 15.401974 
L 34.282331 15.689747 
L 33.951168 15.743674 
L 33.620005 15.812159 
L 32.129772 15.87129 
L 30.970702 15.93132 
L 30.639539 15.924353 
L 30.308377 15.998655 
L 29.149307 16.073892 
L 28.818144 16.087057 
L 28.321399 16.085203 
L 27.162329 16.145627 
L 26.665585 16.290877 
L 26.665585 16.290877 
" style="fill:none;stroke:#008000;stroke-linecap:square;stroke-width:0.8;"/>
   </g>
   <g id="line2d_11">
    <path clip-path="url(#p8ef8627f85)" d="M 361.471247 86.82783 
L 360.808921 93.045404 
L 360.146595 100.90397 
L 359.318688 112.561877 
L 357.497292 139.589171 
L 356.503804 150.699634 
L 355.841478 155.87218 
L 355.013571 160.03934 
L 354.682408 160.651094 
L 354.351245 161.180455 
L 354.185664 161.356086 
L 353.688919 160.848002 
L 353.357756 160.151019 
L 353.026594 159.154628 
L 352.529849 157.46894 
L 350.377291 146.310167 
L 348.224732 133.198043 
L 346.403336 123.08775 
L 337.130776 75.553918 
L 333.653566 61.130968 
L 331.997751 52.513778 
L 330.010774 42.925156 
L 329.182867 39.825132 
L 328.520541 38.187356 
L 328.023797 37.571474 
L 327.692634 37.470866 
L 327.361471 37.663943 
L 326.367983 38.465455 
L 326.03682 38.184382 
L 324.712168 36.223017 
L 323.71868 35.359045 
L 320.903795 33.101 
L 320.241469 32.296468 
L 319.413562 30.848793 
L 318.254492 28.186477 
L 316.101934 22.884093 
L 314.777282 20.399099 
L 313.949375 19.273724 
L 312.955886 18.32374 
L 311.796816 17.471752 
L 309.97542 16.778036 
L 307.326117 16.35498 
L 304.676815 16.318106 
L 304.18007 16.277204 
L 299.874953 16.284949 
L 299.709371 16.395672 
L 299.378209 16.188056 
L 298.053557 16.239797 
L 297.722394 16.155033 
L 296.728906 16.260157 
L 296.563324 16.548294 
L 296.397743 16.563061 
L 296.06658 16.199581 
L 295.569836 16.200436 
L 295.404254 16.178013 
L 295.073091 16.346865 
L 294.576347 16.095949 
L 293.914021 16.121764 
L 293.582858 16.225878 
L 293.251696 16.096119 
L 292.920533 16.207021 
L 292.58937 16.115924 
L 292.423788 16.22792 
L 292.258207 16.738346 
L 292.092625 16.622636 
L 291.927044 16.294893 
L 291.595881 16.223961 
L 290.767974 16.519761 
L 290.105648 16.501776 
L 289.774485 16.635419 
L 289.608904 16.620721 
L 289.277741 17.113956 
L 288.946578 16.613022 
L 288.615415 16.376749 
L 288.118671 16.398587 
L 287.95309 16.53737 
L 287.787508 17.163185 
L 287.621927 16.86984 
L 287.456345 16.295396 
L 287.125182 16.130492 
L 286.462857 16.120219 
L 286.297275 16.279886 
L 284.144717 16.041306 
L 280.833088 16.035567 
L 280.336344 16.08411 
L 280.170762 16.203886 
L 280.005181 16.128969 
L 279.839599 16.182187 
L 279.674018 16.782115 
L 279.177274 16.008435 
L 278.349366 16.052455 
L 278.183785 16.116169 
L 277.852622 16.050041 
L 277.687041 16.132025 
L 277.355878 15.940559 
L 277.190296 16.002547 
L 277.024715 16.286735 
L 276.859133 16.202845 
L 276.527971 15.890358 
L 276.196808 15.876335 
L 275.865645 16.113748 
L 275.534482 16.313607 
L 275.368901 15.951833 
L 275.037738 15.891583 
L 274.540993 15.82242 
L 274.044249 16.072206 
L 273.713086 15.785938 
L 272.885179 15.904859 
L 272.719598 16.134843 
L 272.222853 15.84735 
L 271.229365 15.872365 
L 270.73262 15.662197 
L 269.904713 15.598178 
L 269.242387 15.647283 
L 268.745643 15.528395 
L 268.083317 15.52418 
L 265.930759 15.511443 
L 265.102852 15.479409 
L 264.440526 15.515116 
L 251.359592 15.514044 
L 249.207034 15.794502 
L 247.385638 16.371111 
L 245.895405 17.209631 
L 244.901916 18.053619 
L 243.908428 19.149129 
L 243.080521 20.285433 
L 241.590288 22.66835 
L 238.775403 27.563243 
L 237.781915 28.816529 
L 237.119589 29.330496 
L 236.457263 29.495836 
L 235.960519 29.338501 
L 235.298193 28.842681 
L 234.635867 28.022573 
L 233.642379 26.33278 
L 230.993076 21.701768 
L 229.668424 19.937652 
L 228.178192 18.477249 
L 226.85354 17.541021 
L 225.032144 16.672388 
L 223.873074 16.542662 
L 223.37633 16.741658 
L 222.548423 17.504623 
L 222.051678 18.43809 
L 221.720516 19.016362 
L 221.389353 19.689606 
L 221.05819 19.853965 
L 220.561446 20.318797 
L 220.395864 20.027477 
L 219.89912 17.329716 
L 219.733538 18.25346 
L 219.071213 26.026525 
L 218.905631 26.196769 
L 218.74005 25.592004 
L 218.408887 22.597135 
L 217.912143 18.195625 
L 217.415398 16.254575 
L 217.084235 15.724081 
L 216.587491 15.441121 
L 215.428421 15.398181 
L 213.607025 15.362735 
L 210.792141 15.353133 
L 205.659116 15.390333 
L 204.500046 15.374424 
L 200.36051 15.391913 
L 178.007017 15.488288 
L 177.17911 15.651692 
L 176.516784 15.831067 
L 175.854458 15.696776 
L 174.860969 15.618158 
L 173.370737 15.657854 
L 171.880504 15.830694 
L 171.052596 16.201274 
L 170.555852 16.36563 
L 170.059108 16.283816 
L 168.568875 15.881091 
L 166.913061 15.767971 
L 164.263758 15.542948 
L 149.692591 15.856437 
L 148.202358 15.92744 
L 146.0498 16.064244 
L 144.89073 16.150572 
L 142.407008 16.342907 
L 141.41352 16.503829 
L 140.420031 16.676854 
L 138.101891 17.168571 
L 136.611658 17.570993 
L 134.293518 17.954235 
L 133.134448 17.932935 
L 132.140959 17.733621 
L 131.478633 17.508658 
L 130.650726 17.178922 
L 128.001423 16.063093 
L 125.186539 15.870987 
L 123.696306 15.910729 
L 117.404211 15.541667 
L 117.073049 15.58845 
L 116.576304 15.509668 
L 115.748397 15.50408 
L 115.582816 15.540114 
L 115.251653 15.787123 
L 114.92049 15.44463 
L 114.258164 15.447385 
L 113.76142 15.560186 
L 113.595838 15.774054 
L 113.430257 15.742437 
L 113.264676 15.528268 
L 112.60235 15.463278 
L 111.608861 15.623413 
L 111.277698 15.586568 
L 111.112117 15.552575 
L 110.780954 15.709794 
L 110.449791 15.440913 
L 110.28421 15.542284 
L 109.953047 16.100555 
L 109.621884 15.442388 
L 109.12514 15.30266 
L 108.628395 15.436201 
L 108.297233 16.128901 
L 108.131651 16.009001 
L 107.800488 15.396185 
L 107.634907 15.501227 
L 107.138162 15.274632 
L 106.807 15.32846 
L 106.310255 15.757074 
L 106.144674 15.7356 
L 105.979092 16.057121 
L 105.64793 15.40614 
L 105.316767 15.320396 
L 105.151185 15.343851 
L 104.820022 15.814371 
L 104.323278 15.30318 
L 103.826534 15.398394 
L 103.660952 15.477748 
L 103.329789 15.374444 
L 102.833045 15.747571 
L 102.501882 15.29785 
L 102.170719 15.415855 
L 101.839557 15.568531 
L 101.508394 15.58955 
L 101.342812 15.539332 
L 101.011649 16.102108 
L 100.846068 16.152759 
L 100.514905 15.544421 
L 100.349324 15.577528 
L 100.018161 16.311883 
L 99.852579 15.841053 
L 99.521416 16.112298 
L 99.024672 15.355304 
L 98.693509 15.424475 
L 98.362346 15.331825 
L 97.865602 15.442396 
L 97.368858 15.255458 
L 96.872114 15.291399 
L 96.209788 15.234866 
L 95.878625 15.230178 
L 95.216299 15.748672 
L 95.050718 15.666326 
L 94.885136 15.409949 
L 94.719555 15.545759 
L 94.388392 15.25783 
L 94.222811 15.258494 
L 93.891648 15.686948 
L 93.726066 15.513621 
L 93.394903 15.674877 
L 93.229322 15.336366 
L 92.732578 15.332799 
L 92.070252 15.803532 
L 91.242345 15.239387 
L 91.076763 15.403377 
L 90.7456 16.573545 
L 90.248856 15.307098 
L 89.917693 15.412739 
L 89.752112 15.562327 
L 89.420949 15.515813 
L 89.255367 15.728201 
L 89.089786 15.458379 
L 88.593042 15.230247 
L 88.42746 15.44858 
L 87.930716 15.559892 
L 87.599553 15.29468 
L 87.433972 15.431466 
L 87.102809 15.231783 
L 86.937227 15.346135 
L 86.771646 15.603392 
L 86.440483 15.600612 
L 85.778157 15.149286 
L 84.453506 15.203254 
L 84.122343 15.185757 
L 83.79118 15.225372 
L 83.460017 15.124793 
L 77.99583 15.021429 
L 73.35955 14.986024 
L 54.98001 14.782691 
L 54.483266 14.807345 
L 54.152103 14.786583 
L 52.827452 14.780303 
L 51.999545 14.847001 
L 49.18466 14.905477 
L 48.687916 14.862989 
L 48.356753 14.90008 
L 47.363264 14.908833 
L 46.535357 14.981405 
L 46.038613 14.970644 
L 45.376287 14.97142 
L 39.9121 15.334632 
L 37.428378 15.449921 
L 36.103727 15.488849 
L 34.613494 15.665358 
L 34.11675 15.62331 
L 33.123261 15.756775 
L 30.142795 15.920787 
L 29.811632 15.986933 
L 29.480469 15.963416 
L 26.665585 16.233972 
L 26.665585 16.233972 
" style="fill:none;stroke:#ff0000;stroke-linecap:square;stroke-width:0.8;"/>
   </g>
   <g id="patch_3">
    <path d="M 26.685 173.52 
L 26.685 7.2 
" style="fill:none;stroke:#000000;stroke-linecap:square;stroke-linejoin:miter;stroke-width:0.8;"/>
   </g>
   <g id="patch_4">
    <path d="M 361.485 173.52 
L 361.485 7.2 
" style="fill:none;stroke:#000000;stroke-linecap:square;stroke-linejoin:miter;stroke-width:0.8;"/>
   </g>
   <g id="patch_5">
    <path d="M 26.685 173.52 
L 361.485 173.52 
" style="fill:none;stroke:#000000;stroke-linecap:square;stroke-linejoin:miter;stroke-width:0.8;"/>
   </g>
   <g id="patch_6">
    <path d="M 26.685 7.2 
L 361.485 7.2 
" style="fill:none;stroke:#000000;stroke-linecap:square;stroke-linejoin:miter;stroke-width:0.8;"/>
   </g>
   <g id="legend_1">
    <g id="patch_7">
     <path d="M 37.885 165.52 
L 149.0525 165.52 
Q 152.2525 165.52 152.2525 162.32 
L 152.2525 93.465 
Q 152.2525 90.265 149.0525 90.265 
L 37.885 90.265 
Q 34.685 90.265 34.685 93.465 
L 34.685 162.32 
Q 34.685 165.52 37.885 165.52 
z
" style="fill:#ffffff;opacity:0.8;stroke:#cccccc;stroke-linejoin:miter;"/>
    </g>
    <g id="line2d_12">
     <path d="M 41.085 103.2225 
L 73.085 103.2225 
" style="fill:none;stroke:#0000ff;stroke-linecap:square;stroke-width:0.8;"/>
    </g>
    <g id="line2d_13"/>
    <g id="text_7">
     <!-- LP-CVD -->
     <defs>
      <path d="M 9.8125 72.90625 
L 19.671875 72.90625 
L 19.671875 8.296875 
L 55.171875 8.296875 
L 55.171875 0 
L 9.8125 0 
z
" id="DejaVuSans-76"/>
      <path d="M 19.671875 64.796875 
L 19.671875 37.40625 
L 32.078125 37.40625 
Q 38.96875 37.40625 42.71875 40.96875 
Q 46.484375 44.53125 46.484375 51.125 
Q 46.484375 57.671875 42.71875 61.234375 
Q 38.96875 64.796875 32.078125 64.796875 
z
M 9.8125 72.90625 
L 32.078125 72.90625 
Q 44.34375 72.90625 50.609375 67.359375 
Q 56.890625 61.8125 56.890625 51.125 
Q 56.890625 40.328125 50.609375 34.8125 
Q 44.34375 29.296875 32.078125 29.296875 
L 19.671875 29.296875 
L 19.671875 0 
L 9.8125 0 
z
" id="DejaVuSans-80"/>
      <path d="M 4.890625 31.390625 
L 31.203125 31.390625 
L 31.203125 23.390625 
L 4.890625 23.390625 
z
" id="DejaVuSans-45"/>
      <path d="M 64.40625 67.28125 
L 64.40625 56.890625 
Q 59.421875 61.53125 53.78125 63.8125 
Q 48.140625 66.109375 41.796875 66.109375 
Q 29.296875 66.109375 22.65625 58.46875 
Q 16.015625 50.828125 16.015625 36.375 
Q 16.015625 21.96875 22.65625 14.328125 
Q 29.296875 6.6875 41.796875 6.6875 
Q 48.140625 6.6875 53.78125 8.984375 
Q 59.421875 11.28125 64.40625 15.921875 
L 64.40625 5.609375 
Q 59.234375 2.09375 53.4375 0.328125 
Q 47.65625 -1.421875 41.21875 -1.421875 
Q 24.65625 -1.421875 15.125 8.703125 
Q 5.609375 18.84375 5.609375 36.375 
Q 5.609375 53.953125 15.125 64.078125 
Q 24.65625 74.21875 41.21875 74.21875 
Q 47.75 74.21875 53.53125 72.484375 
Q 59.328125 70.75 64.40625 67.28125 
z
" id="DejaVuSans-67"/>
      <path d="M 28.609375 0 
L 0.78125 72.90625 
L 11.078125 72.90625 
L 34.1875 11.53125 
L 57.328125 72.90625 
L 67.578125 72.90625 
L 39.796875 0 
z
" id="DejaVuSans-86"/>
      <path d="M 19.671875 64.796875 
L 19.671875 8.109375 
L 31.59375 8.109375 
Q 46.6875 8.109375 53.6875 14.9375 
Q 60.6875 21.78125 60.6875 36.53125 
Q 60.6875 51.171875 53.6875 57.984375 
Q 46.6875 64.796875 31.59375 64.796875 
z
M 9.8125 72.90625 
L 30.078125 72.90625 
Q 51.265625 72.90625 61.171875 64.09375 
Q 71.09375 55.28125 71.09375 36.53125 
Q 71.09375 17.671875 61.125 8.828125 
Q 51.171875 0 30.078125 0 
L 9.8125 0 
z
" id="DejaVuSans-68"/>
     </defs>
     <g transform="translate(85.885 108.8225)scale(0.16 -0.16)">
      <use xlink:href="#DejaVuSans-76"/>
      <use x="55.712891" xlink:href="#DejaVuSans-80"/>
      <use x="115.984375" xlink:href="#DejaVuSans-45"/>
      <use x="152.068359" xlink:href="#DejaVuSans-67"/>
      <use x="221.892578" xlink:href="#DejaVuSans-86"/>
      <use x="290.300781" xlink:href="#DejaVuSans-68"/>
     </g>
    </g>
    <g id="line2d_14">
     <path d="M 41.085 126.7075 
L 73.085 126.7075 
" style="fill:none;stroke:#008000;stroke-linecap:square;stroke-width:0.8;"/>
    </g>
    <g id="line2d_15"/>
    <g id="text_8">
     <!-- PE-CVD -->
     <defs>
      <path d="M 9.8125 72.90625 
L 55.90625 72.90625 
L 55.90625 64.59375 
L 19.671875 64.59375 
L 19.671875 43.015625 
L 54.390625 43.015625 
L 54.390625 34.71875 
L 19.671875 34.71875 
L 19.671875 8.296875 
L 56.78125 8.296875 
L 56.78125 0 
L 9.8125 0 
z
" id="DejaVuSans-69"/>
     </defs>
     <g transform="translate(85.885 132.3075)scale(0.16 -0.16)">
      <use xlink:href="#DejaVuSans-80"/>
      <use x="60.302734" xlink:href="#DejaVuSans-69"/>
      <use x="123.486328" xlink:href="#DejaVuSans-45"/>
      <use x="159.570312" xlink:href="#DejaVuSans-67"/>
      <use x="229.394531" xlink:href="#DejaVuSans-86"/>
      <use x="297.802734" xlink:href="#DejaVuSans-68"/>
     </g>
    </g>
    <g id="line2d_16">
     <path d="M 41.085 150.1925 
L 73.085 150.1925 
" style="fill:none;stroke:#ff0000;stroke-linecap:square;stroke-width:0.8;"/>
    </g>
    <g id="line2d_17"/>
    <g id="text_9">
     <!-- LS-CVD -->
     <defs>
      <path d="M 53.515625 70.515625 
L 53.515625 60.890625 
Q 47.90625 63.578125 42.921875 64.890625 
Q 37.9375 66.21875 33.296875 66.21875 
Q 25.25 66.21875 20.875 63.09375 
Q 16.5 59.96875 16.5 54.203125 
Q 16.5 49.359375 19.40625 46.890625 
Q 22.3125 44.4375 30.421875 42.921875 
L 36.375 41.703125 
Q 47.40625 39.59375 52.65625 34.296875 
Q 57.90625 29 57.90625 20.125 
Q 57.90625 9.515625 50.796875 4.046875 
Q 43.703125 -1.421875 29.984375 -1.421875 
Q 24.8125 -1.421875 18.96875 -0.25 
Q 13.140625 0.921875 6.890625 3.21875 
L 6.890625 13.375 
Q 12.890625 10.015625 18.65625 8.296875 
Q 24.421875 6.59375 29.984375 6.59375 
Q 38.421875 6.59375 43.015625 9.90625 
Q 47.609375 13.234375 47.609375 19.390625 
Q 47.609375 24.75 44.3125 27.78125 
Q 41.015625 30.8125 33.5 32.328125 
L 27.484375 33.5 
Q 16.453125 35.6875 11.515625 40.375 
Q 6.59375 45.0625 6.59375 53.421875 
Q 6.59375 63.09375 13.40625 68.65625 
Q 20.21875 74.21875 32.171875 74.21875 
Q 37.3125 74.21875 42.625 73.28125 
Q 47.953125 72.359375 53.515625 70.515625 
z
" id="DejaVuSans-83"/>
     </defs>
     <g transform="translate(85.885 155.7925)scale(0.16 -0.16)">
      <use xlink:href="#DejaVuSans-76"/>
      <use x="55.712891" xlink:href="#DejaVuSans-83"/>
      <use x="119.189453" xlink:href="#DejaVuSans-45"/>
      <use x="155.273438" xlink:href="#DejaVuSans-67"/>
      <use x="225.097656" xlink:href="#DejaVuSans-86"/>
      <use x="293.505859" xlink:href="#DejaVuSans-68"/>
     </g>
    </g>
   </g>
  </g>
 </g>
 <defs>
  <clipPath id="p8ef8627f85">
   <rect height="166.32" width="334.8" x="26.685" y="7.2"/>
  </clipPath>
 </defs>
</svg>
