<?xml version="1.0" encoding="utf-8" standalone="no"?>
<!DOCTYPE svg PUBLIC "-//W3C//DTD SVG 1.1//EN"
  "http://www.w3.org/Graphics/SVG/1.1/DTD/svg11.dtd">
<!-- Created with matplotlib (https://matplotlib.org/) -->
<svg height="225.234375pt" version="1.1" viewBox="0 0 506.36875 225.234375" width="506.36875pt" xmlns="http://www.w3.org/2000/svg" xmlns:xlink="http://www.w3.org/1999/xlink">
 <defs>
  <style type="text/css">
*{stroke-linecap:butt;stroke-linejoin:round;white-space:pre;}
  </style>
 </defs>
 <g id="figure_1">
  <g id="patch_1">
   <path d="M 0 225.234375 
L 506.36875 225.234375 
L 506.36875 0 
L 0 0 
z
" style="fill:none;"/>
  </g>
  <g id="axes_1">
   <g id="patch_2">
    <path d="M 35.44875 185.806875 
L 370.24875 185.806875 
L 370.24875 13.006875 
L 35.44875 13.006875 
z
" style="fill:none;"/>
   </g>
   <g id="line2d_1">
    <path clip-path="url(#p3a7d4ae702)" d="M 35.44875 14.910993 
L 44.170994 15.029165 
L 51.551355 15.356681 
L 56.91889 15.804438 
L 60.944542 16.33436 
L 64.299251 16.981571 
L 66.983019 17.707993 
L 68.995844 18.432821 
L 71.00867 19.379328 
L 73.021495 20.643737 
L 74.363379 21.73578 
L 75.705263 23.103705 
L 77.047147 24.845453 
L 78.389031 27.105102 
L 79.730914 30.100274 
L 81.072798 34.169041 
L 81.74374 36.76363 
L 82.414682 39.851676 
L 83.085624 43.555534 
L 83.756566 48.032856 
L 84.427508 53.486391 
L 85.098449 60.174455 
L 85.769391 68.418721 
L 86.440333 78.600464 
L 87.111275 91.124985 
L 87.782217 106.313262 
L 89.124101 143.84901 
L 89.795043 163.239322 
L 90.465984 178.592083 
L 91.136926 185.653331 
L 91.807868 182.048719 
L 92.47881 169.024203 
L 95.162578 95.882106 
L 95.83352 82.495785 
L 96.504461 71.577223 
L 97.175403 62.731884 
L 97.846345 55.564034 
L 98.517287 49.730717 
L 99.188229 44.953051 
L 99.859171 41.0109 
L 101.201055 34.985433 
L 102.542938 30.692332 
L 103.884822 27.545908 
L 105.226706 25.181318 
L 106.56859 23.364829 
L 107.910473 21.9424 
L 109.252357 20.809766 
L 111.265183 19.501919 
L 113.278009 18.525636 
L 115.290834 17.779737 
L 117.974602 17.033815 
L 121.329311 16.370656 
L 125.354962 15.828635 
L 130.722497 15.371055 
L 137.431916 15.055916 
L 145.483219 14.914655 
L 154.205463 14.989506 
L 161.585824 15.264487 
L 167.624301 15.712764 
L 172.320894 16.2989 
L 175.675604 16.93063 
L 178.359371 17.638194 
L 180.372197 18.34271 
L 182.385023 19.260607 
L 184.397848 20.483434 
L 185.739732 21.536758 
L 187.081616 22.852865 
L 188.423499 24.523814 
L 189.765383 26.684467 
L 191.107267 29.537601 
L 192.449151 33.396731 
L 193.120093 35.849129 
L 193.791035 38.760586 
L 194.461976 42.243587 
L 195.132918 46.443004 
L 195.80386 51.545385 
L 196.474802 57.789416 
L 197.145744 65.475225 
L 197.816686 74.965999 
L 198.487628 86.666339 
L 199.15857 100.944384 
L 200.500453 137.177296 
L 201.842337 174.198093 
L 202.513279 184.434769 
L 203.184221 184.434769 
L 203.855163 174.198093 
L 205.197047 137.177296 
L 206.53893 100.944384 
L 207.209872 86.666339 
L 207.880814 74.965999 
L 208.551756 65.475225 
L 209.222698 57.789416 
L 209.89364 51.545385 
L 210.564582 46.443004 
L 211.235524 42.243587 
L 212.577407 35.849129 
L 213.919291 31.315765 
L 215.261175 28.008147 
L 216.603059 25.532235 
L 217.944942 23.63679 
L 219.286826 22.157 
L 220.62871 20.981789 
L 221.970594 20.034406 
L 223.983419 18.926124 
L 225.996245 18.087616 
L 228.680013 17.256706 
L 232.034722 16.524679 
L 236.060373 15.930923 
L 240.756966 15.480947 
L 246.795443 15.136967 
L 254.175804 14.941162 
L 262.898049 14.938193 
L 270.949351 15.155788 
L 276.987828 15.515532 
L 281.684421 15.985562 
L 285.710073 16.607363 
L 289.064782 17.377159 
L 291.74855 18.255202 
L 293.761375 19.145597 
L 295.774201 20.328603 
L 297.116085 21.344975 
L 298.457968 22.611788 
L 299.799852 24.215629 
L 301.141736 26.282826 
L 302.48362 29.002471 
L 303.825504 32.665537 
L 304.496445 34.985433 
L 305.167387 37.732737 
L 305.838329 41.0109 
L 306.509271 44.953051 
L 307.180213 49.730717 
L 307.851155 55.564034 
L 308.522097 62.731884 
L 309.193039 71.577223 
L 309.86398 82.495785 
L 310.534922 95.882106 
L 311.876806 130.585992 
L 313.21869 169.024203 
L 313.889632 182.048719 
L 314.560574 185.653331 
L 315.231516 178.592083 
L 315.902457 163.239322 
L 317.915283 106.313262 
L 318.586225 91.124985 
L 319.257167 78.600464 
L 319.928109 68.418721 
L 320.599051 60.174455 
L 321.269992 53.486391 
L 321.940934 48.032856 
L 322.611876 43.555534 
L 323.95376 36.76363 
L 325.295644 31.972723 
L 326.637528 28.49318 
L 327.979411 25.899088 
L 329.321295 23.92018 
L 330.663179 22.379986 
L 332.005063 21.160092 
L 333.346946 20.179003 
L 335.359772 19.03415 
L 337.372598 18.170201 
L 340.056365 17.31614 
L 342.740133 16.694132 
L 346.094842 16.133349 
L 350.791435 15.608823 
L 356.15897 15.240694 
L 363.539331 14.979773 
L 370.24875 14.910993 
L 370.24875 14.910993 
" style="fill:none;stroke:#0000ff;stroke-linecap:square;"/>
   </g>
   <g id="line2d_2">
    <path clip-path="url(#p3a7d4ae702)" d="M 35.44875 17.002116 
L 41.487227 17.116611 
L 46.854762 17.431094 
L 51.551355 17.919264 
L 55.577007 18.55968 
L 58.931716 19.317943 
L 61.615483 20.132653 
L 64.299251 21.207037 
L 66.312077 22.246172 
L 68.324902 23.557912 
L 69.666786 24.629857 
L 71.00867 25.903856 
L 72.350554 27.430821 
L 73.692437 29.278109 
L 75.034321 31.535884 
L 76.376205 34.326246 
L 77.718089 37.816295 
L 79.059972 42.236572 
L 80.401856 47.906006 
L 81.74374 55.262195 
L 83.085624 64.887037 
L 84.427508 77.491175 
L 85.769391 93.752749 
L 87.111275 113.776181 
L 89.124101 146.274482 
L 89.795043 155.033735 
L 90.465984 161.124576 
L 91.136926 163.711201 
L 91.807868 162.406591 
L 92.47881 157.40838 
L 93.149752 149.428311 
L 94.491636 128.506 
L 96.504461 96.843421 
L 97.846345 79.932981 
L 99.188229 66.760539 
L 100.530113 56.690878 
L 101.871996 49.001062 
L 103.21388 43.084551 
L 104.555764 38.481043 
L 105.897648 34.854007 
L 107.239532 31.960087 
L 108.581415 29.623055 
L 109.923299 27.714346 
L 111.265183 26.139196 
L 112.607067 24.826952 
L 114.619892 23.23849 
L 116.632718 21.994431 
L 118.645544 21.005961 
L 121.329311 19.981106 
L 124.013079 19.202059 
L 127.367788 18.475792 
L 131.393439 17.862217 
L 136.090033 17.396015 
L 141.457568 17.100015 
L 147.496045 17.002732 
L 153.534522 17.134583 
L 158.902057 17.467969 
L 163.59865 17.978845 
L 167.624301 18.647223 
L 170.979011 19.439031 
L 173.662778 20.291332 
L 176.346546 21.41819 
L 178.359371 22.511263 
L 180.372197 23.895387 
L 181.714081 25.029841 
L 183.055964 26.381801 
L 184.397848 28.007083 
L 185.739732 29.979825 
L 187.081616 32.399653 
L 188.423499 35.401983 
L 189.765383 39.172707 
L 191.107267 43.968723 
L 192.449151 50.145035 
L 193.791035 58.18536 
L 195.132918 68.720305 
L 196.474802 82.480013 
L 197.816686 100.039931 
L 199.829512 132.209914 
L 201.171395 152.36107 
L 201.842337 159.449367 
L 202.513279 163.273783 
L 203.184221 163.273783 
L 203.855163 159.449367 
L 204.526105 152.36107 
L 205.867988 132.209914 
L 207.880814 100.039931 
L 209.222698 82.480013 
L 210.564582 68.720305 
L 211.906465 58.18536 
L 213.248349 50.145035 
L 214.590233 43.968723 
L 215.932117 39.172707 
L 217.274001 35.401983 
L 218.615884 32.399653 
L 219.957768 29.979825 
L 221.299652 28.007083 
L 222.641536 26.381801 
L 223.983419 25.029841 
L 225.996245 23.396022 
L 228.009071 22.118686 
L 230.021896 21.105277 
L 232.705664 20.056012 
L 235.389431 19.259366 
L 238.744141 18.517289 
L 242.769792 17.89043 
L 247.466385 17.413333 
L 252.83392 17.108143 
L 258.872397 17.00227 
L 264.910874 17.125424 
L 270.278409 17.449304 
L 274.975003 17.948732 
L 279.000654 18.602984 
L 282.355363 19.37782 
L 285.039131 20.211077 
L 287.722898 21.311315 
L 289.735724 22.376994 
L 291.74855 23.724313 
L 293.090433 24.826952 
L 294.432317 26.139196 
L 295.774201 27.714346 
L 297.116085 29.623055 
L 298.457968 31.960087 
L 299.799852 34.854007 
L 301.141736 38.481043 
L 302.48362 43.084551 
L 303.825504 49.001062 
L 305.167387 56.690878 
L 306.509271 66.760539 
L 307.851155 79.932981 
L 309.193039 96.843421 
L 310.534922 117.402594 
L 312.547748 149.428311 
L 313.21869 157.40838 
L 313.889632 162.406591 
L 314.560574 163.711201 
L 315.231516 161.124576 
L 315.902457 155.033735 
L 316.573399 146.274482 
L 320.599051 85.13437 
L 321.940934 70.769855 
L 323.282818 59.74886 
L 324.624702 51.34044 
L 325.966586 44.890945 
L 327.308469 39.892632 
L 328.650353 35.971147 
L 329.992237 32.855289 
L 331.334121 30.348934 
L 332.676005 28.309415 
L 334.017888 26.631957 
L 335.359772 25.238743 
L 337.372598 23.557912 
L 339.385423 22.246172 
L 341.398249 21.207037 
L 344.082017 20.132653 
L 346.765784 19.317943 
L 350.120493 18.55968 
L 354.146145 17.919264 
L 358.842738 17.431094 
L 364.210273 17.116611 
L 370.24875 17.002116 
L 370.24875 17.002116 
" style="fill:none;stroke:#008000;stroke-linecap:square;"/>
   </g>
   <g id="line2d_3">
    <path clip-path="url(#p3a7d4ae702)" d="M 35.44875 24.718647 
L 39.474401 24.848282 
L 42.829111 25.16138 
L 46.18382 25.679659 
L 49.53853 26.43423 
L 52.222297 27.239327 
L 54.906065 28.259887 
L 57.589832 29.541669 
L 59.602658 30.710348 
L 61.615483 32.092484 
L 63.628309 33.728303 
L 65.641135 35.66703 
L 67.65396 37.968325 
L 69.666786 40.703281 
L 71.679612 43.954123 
L 73.692437 47.810935 
L 75.705263 52.362401 
L 77.718089 57.675625 
L 79.730914 63.758193 
L 82.414682 72.840369 
L 85.769391 84.383472 
L 87.111275 88.353859 
L 88.453159 91.52106 
L 89.124101 92.71391 
L 89.795043 93.605817 
L 90.465984 94.174055 
L 91.136926 94.403728 
L 91.807868 94.288721 
L 92.47881 93.832101 
L 93.149752 93.04592 
L 93.820694 91.95043 
L 95.162578 88.94558 
L 96.504461 85.088163 
L 98.517287 78.354825 
L 102.542938 64.478226 
L 104.555764 58.314233 
L 106.56859 52.914308 
L 108.581415 48.280834 
L 110.594241 44.35105 
L 112.607067 41.03741 
L 114.619892 38.249381 
L 116.632718 35.903625 
L 118.645544 33.927763 
L 120.658369 32.260897 
L 122.671195 30.852712 
L 124.684021 29.662056 
L 127.367788 28.355997 
L 130.051556 27.315598 
L 132.735323 26.493992 
L 136.090033 25.722183 
L 139.444742 25.18928 
L 142.799451 24.863197 
L 146.825103 24.719044 
L 150.850754 24.834194 
L 154.205463 25.134388 
L 157.560173 25.638178 
L 160.914882 26.375723 
L 163.59865 27.164546 
L 166.282417 28.165583 
L 168.966185 29.423508 
L 170.979011 30.570611 
L 172.991836 31.927194 
L 175.004662 33.532573 
L 177.017487 35.434899 
L 179.030313 37.692611 
L 181.043139 40.375512 
L 183.055964 43.564678 
L 185.06879 47.349631 
L 187.081616 51.819955 
L 189.094441 57.046636 
L 191.107267 63.04646 
L 193.791035 72.055612 
L 197.145744 83.66485 
L 198.487628 87.739786 
L 199.829512 91.061451 
L 200.500453 92.348409 
L 201.171395 93.343505 
L 201.842337 94.021699 
L 202.513279 94.365354 
L 203.184221 94.365354 
L 203.855163 94.021699 
L 204.526105 93.343505 
L 205.197047 92.348409 
L 205.867988 91.061451 
L 207.209872 87.739786 
L 208.551756 83.66485 
L 211.235524 74.416369 
L 213.919291 65.206277 
L 215.932117 58.962402 
L 217.944942 53.475741 
L 219.957768 48.759444 
L 221.970594 44.755584 
L 223.983419 41.37802 
L 225.996245 38.535885 
L 228.009071 36.144775 
L 230.021896 34.131026 
L 232.034722 32.432494 
L 234.047548 30.997754 
L 236.060373 29.784709 
L 238.744141 28.453943 
L 241.427908 27.393381 
L 244.111676 26.555024 
L 247.466385 25.765764 
L 250.821095 25.218094 
L 254.175804 24.878944 
L 258.201455 24.720237 
L 262.227107 24.82093 
L 265.581816 25.108296 
L 268.936526 25.597731 
L 272.291235 26.318452 
L 274.975003 27.091232 
L 277.65877 28.073055 
L 280.342538 29.307532 
L 282.355363 30.433454 
L 284.368189 31.764966 
L 286.381015 33.340497 
L 288.39384 35.207144 
L 290.406666 37.422135 
L 292.419491 40.053985 
L 294.432317 43.182587 
L 296.445143 46.896805 
L 298.457968 51.286898 
L 300.470794 56.427303 
L 302.48362 62.343278 
L 304.496445 68.954566 
L 309.193039 85.088163 
L 310.534922 88.94558 
L 311.876806 91.95043 
L 312.547748 93.04592 
L 313.21869 93.832101 
L 313.889632 94.288721 
L 314.560574 94.403728 
L 315.231516 94.174055 
L 315.902457 93.605817 
L 316.573399 92.71391 
L 317.244341 91.52106 
L 318.586225 88.353859 
L 319.928109 84.383472 
L 321.940934 77.571022 
L 325.966586 63.758193 
L 327.979411 57.675625 
L 329.992237 52.362401 
L 332.005063 47.810935 
L 334.017888 43.954123 
L 336.030714 40.703281 
L 338.04354 37.968325 
L 340.056365 35.66703 
L 342.069191 33.728303 
L 344.082017 32.092484 
L 346.094842 30.710348 
L 348.77861 29.193704 
L 351.462377 27.982272 
L 354.146145 27.019363 
L 356.829912 26.262403 
L 360.184622 25.558305 
L 363.539331 25.083097 
L 366.894041 24.808486 
L 370.24875 24.718647 
L 370.24875 24.718647 
" style="fill:none;stroke:#ff0000;stroke-linecap:square;"/>
   </g>
   <g id="line2d_4">
    <path clip-path="url(#p3a7d4ae702)" d="M 35.44875 36.810957 
L 38.132518 36.922174 
L 40.816285 37.259533 
L 43.500053 37.83437 
L 46.18382 38.666331 
L 48.867588 39.784553 
L 50.880413 40.834885 
L 52.893239 42.090632 
L 54.906065 43.578795 
L 56.91889 45.332311 
L 58.931716 47.391075 
L 60.944542 49.803076 
L 62.957367 52.62554 
L 64.970193 55.925899 
L 66.983019 59.782171 
L 68.995844 64.282044 
L 71.00867 69.519402 
L 73.021495 75.586206 
L 75.034321 82.556611 
L 77.047147 90.459096 
L 79.059972 99.232398 
L 82.414682 115.115249 
L 85.098449 127.504837 
L 86.440333 132.903021 
L 87.782217 137.360504 
L 88.453159 139.142094 
L 89.124101 140.581021 
L 89.795043 141.64993 
L 90.465984 142.327845 
L 91.136926 142.601168 
L 91.807868 142.464351 
L 92.47881 141.920177 
L 93.149752 140.979615 
L 93.820694 139.661279 
L 94.491636 137.990526 
L 95.83352 133.719685 
L 97.175403 128.456523 
L 99.188229 119.381292 
L 104.555764 94.259173 
L 106.56859 85.954706 
L 108.581415 78.569448 
L 110.594241 72.108293 
L 112.607067 66.513067 
L 114.619892 61.697157 
L 116.632718 57.566154 
L 118.645544 54.028973 
L 120.658369 51.003066 
L 122.671195 48.41629 
L 124.684021 46.20698 
L 126.696846 44.323177 
L 128.709672 42.721534 
L 130.722497 41.366156 
L 132.735323 40.22752 
L 135.419091 39.005522 
L 138.102858 38.081892 
L 140.786626 37.423969 
L 143.470393 37.009102 
L 146.154161 36.823284 
L 148.837928 36.860311 
L 151.521696 37.121416 
L 154.205463 37.615341 
L 156.889231 38.358855 
L 159.572998 39.377768 
L 161.585824 40.344124 
L 163.59865 41.50556 
L 165.611475 42.886736 
L 167.624301 44.51783 
L 169.637127 46.435513 
L 171.649952 48.684029 
L 173.662778 51.316365 
L 175.675604 54.395322 
L 177.688429 57.994227 
L 179.701255 62.19671 
L 181.714081 67.094568 
L 183.726906 72.782029 
L 185.739732 79.343785 
L 187.752558 86.833008 
L 189.765383 95.234917 
L 192.449151 107.594963 
L 196.474802 126.535744 
L 197.816686 132.060193 
L 199.15857 136.695987 
L 199.829512 138.584793 
L 200.500453 140.141261 
L 201.171395 141.336179 
L 201.842337 142.146317 
L 202.513279 142.555528 
L 203.184221 142.555528 
L 203.855163 142.146317 
L 204.526105 141.336179 
L 205.197047 140.141261 
L 205.867988 138.584793 
L 207.209872 134.508735 
L 208.551756 129.389361 
L 210.564582 120.433753 
L 216.603059 92.338091 
L 218.615884 84.232547 
L 220.62871 77.05513 
L 222.641536 70.792862 
L 224.654361 65.378821 
L 226.667187 60.723277 
L 228.680013 56.731857 
L 230.692838 53.315072 
L 232.705664 50.392609 
L 234.718489 47.894686 
L 236.731315 45.761879 
L 238.744141 43.944245 
L 240.756966 42.400189 
L 242.769792 41.095322 
L 244.782618 40.001405 
L 247.466385 38.831882 
L 250.150153 37.954513 
L 252.83392 37.338425 
L 255.517688 36.962487 
L 258.201455 36.814038 
L 260.885223 36.888126 
L 263.56899 37.18722 
L 266.252758 37.721349 
L 268.936526 38.508707 
L 271.620293 39.576744 
L 273.633119 40.584573 
L 275.645944 41.792528 
L 277.65877 43.226421 
L 279.671596 44.917784 
L 281.684421 46.904872 
L 283.697247 49.233772 
L 285.710073 51.959566 
L 287.722898 55.147355 
L 289.735724 58.872821 
L 291.74855 63.221691 
L 293.761375 68.286966 
L 295.774201 74.162075 
L 297.787027 80.927045 
L 299.799852 88.623688 
L 301.812678 97.215418 
L 304.496445 109.736589 
L 307.851155 125.550668 
L 309.193039 131.192662 
L 310.534922 135.998282 
L 311.876806 139.661279 
L 312.547748 140.979615 
L 313.21869 141.920177 
L 313.889632 142.464351 
L 314.560574 142.601168 
L 315.231516 142.327845 
L 315.902457 141.64993 
L 316.573399 140.581021 
L 317.244341 139.142094 
L 318.586225 135.268737 
L 319.928109 130.301895 
L 321.940934 121.478226 
L 327.979411 93.293481 
L 329.992237 85.087867 
L 332.005063 77.806582 
L 334.017888 71.445274 
L 336.030714 65.941195 
L 338.04354 61.206056 
L 340.056365 57.145404 
L 342.069191 53.668924 
L 344.082017 50.695177 
L 346.094842 48.153202 
L 348.107668 45.982457 
L 350.120493 44.132 
L 352.133319 42.559367 
L 354.146145 41.229422 
L 356.15897 40.11329 
L 358.842738 38.917681 
L 361.526506 38.017291 
L 364.210273 37.380361 
L 366.894041 36.985005 
L 369.577808 36.81789 
L 370.24875 36.810957 
L 370.24875 36.810957 
" style="fill:none;stroke:#00bfbf;stroke-linecap:square;"/>
   </g>
   <g id="patch_3">
    <path d="M 35.44875 185.806875 
L 35.44875 13.006875 
" style="fill:none;stroke:#000000;stroke-linecap:square;stroke-linejoin:miter;"/>
   </g>
   <g id="patch_4">
    <path d="M 370.24875 185.806875 
L 370.24875 13.006875 
" style="fill:none;stroke:#000000;stroke-linecap:square;stroke-linejoin:miter;"/>
   </g>
   <g id="patch_5">
    <path d="M 35.44875 185.806875 
L 370.24875 185.806875 
" style="fill:none;stroke:#000000;stroke-linecap:square;stroke-linejoin:miter;"/>
   </g>
   <g id="patch_6">
    <path d="M 35.44875 13.006875 
L 370.24875 13.006875 
" style="fill:none;stroke:#000000;stroke-linecap:square;stroke-linejoin:miter;"/>
   </g>
   <g id="matplotlib.axis_1">
    <g id="xtick_1">
     <g id="line2d_5">
      <defs>
       <path d="M 0 0 
L 0 -4 
" id="m96f39feab6" style="stroke:#000000;stroke-width:0.5;"/>
      </defs>
      <g>
       <use style="stroke:#000000;stroke-width:0.5;" x="35.44875" xlink:href="#m96f39feab6" y="185.806875"/>
      </g>
     </g>
     <g id="line2d_6">
      <defs>
       <path d="M 0 0 
L 0 4 
" id="ma0ebcb2c09" style="stroke:#000000;stroke-width:0.5;"/>
      </defs>
      <g>
       <use style="stroke:#000000;stroke-width:0.5;" x="35.44875" xlink:href="#ma0ebcb2c09" y="13.006875"/>
      </g>
     </g>
     <g id="text_1">
      <!-- -3$\pi$ -->
      <defs>
       <path d="M 4.890625 31.390625 
L 31.203125 31.390625 
L 31.203125 23.390625 
L 4.890625 23.390625 
z
" id="DejaVuSans-45"/>
       <path d="M 40.578125 39.3125 
Q 47.65625 37.796875 51.625 33 
Q 55.609375 28.21875 55.609375 21.1875 
Q 55.609375 10.40625 48.1875 4.484375 
Q 40.765625 -1.421875 27.09375 -1.421875 
Q 22.515625 -1.421875 17.65625 -0.515625 
Q 12.796875 0.390625 7.625 2.203125 
L 7.625 11.71875 
Q 11.71875 9.328125 16.59375 8.109375 
Q 21.484375 6.890625 26.8125 6.890625 
Q 36.078125 6.890625 40.9375 10.546875 
Q 45.796875 14.203125 45.796875 21.1875 
Q 45.796875 27.640625 41.28125 31.265625 
Q 36.765625 34.90625 28.71875 34.90625 
L 20.21875 34.90625 
L 20.21875 43.015625 
L 29.109375 43.015625 
Q 36.375 43.015625 40.234375 45.921875 
Q 44.09375 48.828125 44.09375 54.296875 
Q 44.09375 59.90625 40.109375 62.90625 
Q 36.140625 65.921875 28.71875 65.921875 
Q 24.65625 65.921875 20.015625 65.03125 
Q 15.375 64.15625 9.8125 62.3125 
L 9.8125 71.09375 
Q 15.4375 72.65625 20.34375 73.4375 
Q 25.25 74.21875 29.59375 74.21875 
Q 40.828125 74.21875 47.359375 69.109375 
Q 53.90625 64.015625 53.90625 55.328125 
Q 53.90625 49.265625 50.4375 45.09375 
Q 46.96875 40.921875 40.578125 39.3125 
z
" id="DejaVuSans-51"/>
       <path d="M 10.109375 1.703125 
Q 10.109375 2.25 10.5 3.328125 
Q 13.28125 9.125 15.6875 14.71875 
Q 18.109375 20.3125 20.03125 25.609375 
Q 21.96875 30.90625 23.578125 36.921875 
L 17.1875 36.921875 
Q 13.53125 36.921875 10.34375 34.625 
Q 7.171875 32.328125 5.078125 28.8125 
Q 4.890625 28.421875 4.5 28.421875 
L 3.328125 28.421875 
Q 2.390625 28.421875 2.390625 29.390625 
Q 2.390625 29.59375 2.59375 29.984375 
Q 5.859375 35.546875 9.59375 39.328125 
Q 13.328125 43.109375 18.015625 43.109375 
L 54.296875 43.109375 
Q 55.328125 43.109375 56.046875 42.421875 
Q 56.78125 41.75 56.78125 40.578125 
Q 56.78125 39.109375 55.734375 38.015625 
Q 54.6875 36.921875 53.21875 36.921875 
L 40.484375 36.921875 
Q 38.875 29.046875 38.71875 21.578125 
Q 38.71875 11.96875 42.09375 4.203125 
Q 42.390625 3.609375 42.390625 2.984375 
Q 42.390625 1.90625 41.75 0.96875 
Q 41.109375 0.046875 40.109375 -0.53125 
Q 39.109375 -1.125 37.984375 -1.125 
Q 35.359375 -1.125 34.375 3.171875 
Q 33.40625 7.46875 33.40625 11.53125 
Q 33.40625 17.234375 34.375 22.53125 
Q 35.359375 27.828125 37.5 36.921875 
L 26.609375 36.921875 
Q 18.703125 4.890625 17.09375 1.609375 
Q 15.671875 -1.125 13.1875 -1.125 
Q 11.96875 -1.125 11.03125 -0.3125 
Q 10.109375 0.484375 10.109375 1.703125 
z
" id="Cmmi10-188"/>
      </defs>
      <g transform="translate(26.02875 198.925)scale(0.12 -0.12)">
       <use transform="translate(0 0.78125)" xlink:href="#DejaVuSans-45"/>
       <use transform="translate(36.083984 0.78125)" xlink:href="#DejaVuSans-51"/>
       <use transform="translate(99.707031 0.78125)" xlink:href="#Cmmi10-188"/>
      </g>
     </g>
    </g>
    <g id="xtick_2">
     <g id="line2d_7">
      <g>
       <use style="stroke:#000000;stroke-width:0.5;" x="91.24875" xlink:href="#m96f39feab6" y="185.806875"/>
      </g>
     </g>
     <g id="line2d_8">
      <g>
       <use style="stroke:#000000;stroke-width:0.5;" x="91.24875" xlink:href="#ma0ebcb2c09" y="13.006875"/>
      </g>
     </g>
     <g id="text_2">
      <!-- -2$\pi$ -->
      <defs>
       <path d="M 19.1875 8.296875 
L 53.609375 8.296875 
L 53.609375 0 
L 7.328125 0 
L 7.328125 8.296875 
Q 12.9375 14.109375 22.625 23.890625 
Q 32.328125 33.6875 34.8125 36.53125 
Q 39.546875 41.84375 41.421875 45.53125 
Q 43.3125 49.21875 43.3125 52.78125 
Q 43.3125 58.59375 39.234375 62.25 
Q 35.15625 65.921875 28.609375 65.921875 
Q 23.96875 65.921875 18.8125 64.3125 
Q 13.671875 62.703125 7.8125 59.421875 
L 7.8125 69.390625 
Q 13.765625 71.78125 18.9375 73 
Q 24.125 74.21875 28.421875 74.21875 
Q 39.75 74.21875 46.484375 68.546875 
Q 53.21875 62.890625 53.21875 53.421875 
Q 53.21875 48.921875 51.53125 44.890625 
Q 49.859375 40.875 45.40625 35.40625 
Q 44.1875 33.984375 37.640625 27.21875 
Q 31.109375 20.453125 19.1875 8.296875 
z
" id="DejaVuSans-50"/>
      </defs>
      <g transform="translate(81.82875 198.925)scale(0.12 -0.12)">
       <use transform="translate(0 0.78125)" xlink:href="#DejaVuSans-45"/>
       <use transform="translate(36.083984 0.78125)" xlink:href="#DejaVuSans-50"/>
       <use transform="translate(99.707031 0.78125)" xlink:href="#Cmmi10-188"/>
      </g>
     </g>
    </g>
    <g id="xtick_3">
     <g id="line2d_9">
      <g>
       <use style="stroke:#000000;stroke-width:0.5;" x="147.04875" xlink:href="#m96f39feab6" y="185.806875"/>
      </g>
     </g>
     <g id="line2d_10">
      <g>
       <use style="stroke:#000000;stroke-width:0.5;" x="147.04875" xlink:href="#ma0ebcb2c09" y="13.006875"/>
      </g>
     </g>
     <g id="text_3">
      <!-- -1$\pi$ -->
      <defs>
       <path d="M 12.40625 8.296875 
L 28.515625 8.296875 
L 28.515625 63.921875 
L 10.984375 60.40625 
L 10.984375 69.390625 
L 28.421875 72.90625 
L 38.28125 72.90625 
L 38.28125 8.296875 
L 54.390625 8.296875 
L 54.390625 0 
L 12.40625 0 
z
" id="DejaVuSans-49"/>
      </defs>
      <g transform="translate(137.62875 198.925)scale(0.12 -0.12)">
       <use transform="translate(0 0.09375)" xlink:href="#DejaVuSans-45"/>
       <use transform="translate(36.083984 0.09375)" xlink:href="#DejaVuSans-49"/>
       <use transform="translate(99.707031 0.09375)" xlink:href="#Cmmi10-188"/>
      </g>
     </g>
    </g>
    <g id="xtick_4">
     <g id="line2d_11">
      <g>
       <use style="stroke:#000000;stroke-width:0.5;" x="202.84875" xlink:href="#m96f39feab6" y="185.806875"/>
      </g>
     </g>
     <g id="line2d_12">
      <g>
       <use style="stroke:#000000;stroke-width:0.5;" x="202.84875" xlink:href="#ma0ebcb2c09" y="13.006875"/>
      </g>
     </g>
     <g id="text_4">
      <!-- 0$\pi$ -->
      <defs>
       <path d="M 31.78125 66.40625 
Q 24.171875 66.40625 20.328125 58.90625 
Q 16.5 51.421875 16.5 36.375 
Q 16.5 21.390625 20.328125 13.890625 
Q 24.171875 6.390625 31.78125 6.390625 
Q 39.453125 6.390625 43.28125 13.890625 
Q 47.125 21.390625 47.125 36.375 
Q 47.125 51.421875 43.28125 58.90625 
Q 39.453125 66.40625 31.78125 66.40625 
z
M 31.78125 74.21875 
Q 44.046875 74.21875 50.515625 64.515625 
Q 56.984375 54.828125 56.984375 36.375 
Q 56.984375 17.96875 50.515625 8.265625 
Q 44.046875 -1.421875 31.78125 -1.421875 
Q 19.53125 -1.421875 13.0625 8.265625 
Q 6.59375 17.96875 6.59375 36.375 
Q 6.59375 54.828125 13.0625 64.515625 
Q 19.53125 74.21875 31.78125 74.21875 
z
" id="DejaVuSans-48"/>
      </defs>
      <g transform="translate(195.58875 198.925)scale(0.12 -0.12)">
       <use transform="translate(0 0.78125)" xlink:href="#DejaVuSans-48"/>
       <use transform="translate(63.623047 0.78125)" xlink:href="#Cmmi10-188"/>
      </g>
     </g>
    </g>
    <g id="xtick_5">
     <g id="line2d_13">
      <g>
       <use style="stroke:#000000;stroke-width:0.5;" x="258.64875" xlink:href="#m96f39feab6" y="185.806875"/>
      </g>
     </g>
     <g id="line2d_14">
      <g>
       <use style="stroke:#000000;stroke-width:0.5;" x="258.64875" xlink:href="#ma0ebcb2c09" y="13.006875"/>
      </g>
     </g>
     <g id="text_5">
      <!-- 1$\pi$ -->
      <g transform="translate(251.38875 198.925)scale(0.12 -0.12)">
       <use transform="translate(0 0.09375)" xlink:href="#DejaVuSans-49"/>
       <use transform="translate(63.623047 0.09375)" xlink:href="#Cmmi10-188"/>
      </g>
     </g>
    </g>
    <g id="xtick_6">
     <g id="line2d_15">
      <g>
       <use style="stroke:#000000;stroke-width:0.5;" x="314.44875" xlink:href="#m96f39feab6" y="185.806875"/>
      </g>
     </g>
     <g id="line2d_16">
      <g>
       <use style="stroke:#000000;stroke-width:0.5;" x="314.44875" xlink:href="#ma0ebcb2c09" y="13.006875"/>
      </g>
     </g>
     <g id="text_6">
      <!-- 2$\pi$ -->
      <g transform="translate(307.18875 198.925)scale(0.12 -0.12)">
       <use transform="translate(0 0.78125)" xlink:href="#DejaVuSans-50"/>
       <use transform="translate(63.623047 0.78125)" xlink:href="#Cmmi10-188"/>
      </g>
     </g>
    </g>
    <g id="xtick_7">
     <g id="line2d_17">
      <g>
       <use style="stroke:#000000;stroke-width:0.5;" x="370.24875" xlink:href="#m96f39feab6" y="185.806875"/>
      </g>
     </g>
     <g id="line2d_18">
      <g>
       <use style="stroke:#000000;stroke-width:0.5;" x="370.24875" xlink:href="#ma0ebcb2c09" y="13.006875"/>
      </g>
     </g>
     <g id="text_7">
      <!-- 3$\pi$ -->
      <g transform="translate(362.98875 198.925)scale(0.12 -0.12)">
       <use transform="translate(0 0.78125)" xlink:href="#DejaVuSans-51"/>
       <use transform="translate(63.623047 0.78125)" xlink:href="#Cmmi10-188"/>
      </g>
     </g>
    </g>
    <g id="text_8">
     <!-- $\phi$ -->
     <defs>
      <path d="M 19.390625 -19.484375 
L 23.875 -1.421875 
Q 18.796875 -1.421875 14.40625 0.953125 
Q 10.015625 3.328125 7.34375 7.5625 
Q 4.6875 11.8125 4.6875 16.796875 
Q 4.6875 22.21875 7.375 27.140625 
Q 10.0625 32.078125 14.71875 36.109375 
Q 19.390625 40.140625 24.75 42.3125 
Q 30.125 44.484375 35.40625 44.484375 
L 41.40625 68.796875 
Q 41.609375 69.390625 42.1875 69.390625 
L 43.40625 69.390625 
Q 43.796875 69.390625 44.03125 69.046875 
Q 44.28125 68.703125 44.28125 68.40625 
L 38.28125 44.484375 
Q 42.046875 44.484375 45.5625 43.109375 
Q 49.078125 41.75 51.78125 39.28125 
Q 54.5 36.8125 56 33.46875 
Q 57.515625 30.125 57.515625 26.3125 
Q 57.515625 20.90625 54.828125 15.96875 
Q 52.15625 11.03125 47.609375 7.078125 
Q 43.0625 3.125 37.46875 0.84375 
Q 31.890625 -1.421875 26.8125 -1.421875 
L 22.21875 -19.921875 
Q 22.015625 -20.515625 21.390625 -20.515625 
L 20.21875 -20.515625 
Q 19.828125 -20.515625 19.609375 -20.140625 
Q 19.390625 -19.78125 19.390625 -19.484375 
z
M 24.515625 1.21875 
L 34.71875 41.890625 
Q 32.171875 41.890625 29.390625 40.859375 
Q 26.609375 39.84375 24.140625 38.28125 
Q 21.6875 36.71875 19.671875 34.71875 
Q 17.234375 32.28125 15.375 28.953125 
Q 13.53125 25.640625 12.578125 21.953125 
Q 11.625 18.265625 11.625 14.703125 
Q 11.625 10.9375 13.234375 7.859375 
Q 14.84375 4.78125 17.765625 3 
Q 20.703125 1.21875 24.515625 1.21875 
z
M 27.484375 1.21875 
Q 31.25 1.21875 35.5 3.359375 
Q 39.75 5.515625 42.484375 8.40625 
Q 46.234375 12.109375 48.40625 17.5 
Q 50.59375 22.90625 50.59375 28.421875 
Q 50.59375 32.125 48.96875 35.21875 
Q 47.359375 38.328125 44.421875 40.109375 
Q 41.5 41.890625 37.703125 41.890625 
z
" id="Cmmi10-193"/>
     </defs>
     <g transform="translate(199.24875 215.514375)scale(0.12 -0.12)">
      <use transform="translate(0 0.609375)" xlink:href="#Cmmi10-193"/>
     </g>
    </g>
   </g>
   <g id="matplotlib.axis_2">
    <g id="ytick_1">
     <g id="line2d_19">
      <defs>
       <path d="M 0 0 
L 4 0 
" id="m7de5052674" style="stroke:#000000;stroke-width:0.5;"/>
      </defs>
      <g>
       <use style="stroke:#000000;stroke-width:0.5;" x="35.44875" xlink:href="#m7de5052674" y="185.806875"/>
      </g>
     </g>
     <g id="line2d_20">
      <defs>
       <path d="M 0 0 
L -4 0 
" id="mc32c2300ae" style="stroke:#000000;stroke-width:0.5;"/>
      </defs>
      <g>
       <use style="stroke:#000000;stroke-width:0.5;" x="370.24875" xlink:href="#mc32c2300ae" y="185.806875"/>
      </g>
     </g>
     <g id="text_9">
      <!-- 0 -->
      <g transform="translate(23.81375 189.118125)scale(0.12 -0.12)">
       <use xlink:href="#DejaVuSans-48"/>
      </g>
     </g>
    </g>
    <g id="ytick_2">
     <g id="line2d_21">
      <g>
       <use style="stroke:#000000;stroke-width:0.5;" x="35.44875" xlink:href="#m7de5052674" y="13.006875"/>
      </g>
     </g>
     <g id="line2d_22">
      <g>
       <use style="stroke:#000000;stroke-width:0.5;" x="370.24875" xlink:href="#mc32c2300ae" y="13.006875"/>
      </g>
     </g>
     <g id="text_10">
      <!-- 1 -->
      <g transform="translate(23.81375 16.318125)scale(0.12 -0.12)">
       <use xlink:href="#DejaVuSans-49"/>
      </g>
     </g>
    </g>
    <g id="text_11">
     <!-- $T$ -->
     <defs>
      <path d="M 4.59375 1.3125 
Q 4.640625 1.5625 4.8125 2.1875 
Q 4.984375 2.828125 5.25 3.171875 
Q 5.515625 3.515625 6 3.515625 
Q 14.59375 3.515625 17.390625 4 
Q 20.0625 4.6875 20.609375 6.890625 
L 34.28125 61.8125 
Q 34.71875 63.03125 34.71875 64.015625 
Q 34.71875 64.796875 31.203125 64.796875 
L 25.390625 64.796875 
Q 18.703125 64.796875 15.0625 62.734375 
Q 11.421875 60.6875 9.71875 57.3125 
Q 8.015625 53.953125 5.328125 46.296875 
Q 4.984375 45.40625 4.296875 45.40625 
L 3.421875 45.40625 
Q 2.390625 45.40625 2.390625 46.6875 
L 9.515625 67.390625 
Q 9.71875 68.3125 10.5 68.3125 
L 69.578125 68.3125 
Q 70.609375 68.3125 70.609375 67 
L 67.28125 46.296875 
Q 67.28125 46 66.9375 45.703125 
Q 66.609375 45.40625 66.3125 45.40625 
L 65.375 45.40625 
Q 64.40625 45.40625 64.40625 46.6875 
Q 65.484375 53.765625 65.484375 56.6875 
Q 65.484375 60.203125 64.015625 62 
Q 62.546875 63.8125 60.203125 64.296875 
Q 57.859375 64.796875 54.109375 64.796875 
L 48.1875 64.796875 
Q 45.515625 64.796875 44.578125 64.296875 
Q 43.65625 63.8125 43.015625 61.375 
L 29.296875 6.5 
Q 29.25 6.296875 29.21875 6.09375 
Q 29.203125 5.90625 29.109375 5.609375 
Q 29.109375 4.34375 30.609375 4 
Q 33.203125 3.515625 41.703125 3.515625 
Q 42.671875 3.515625 42.671875 2.203125 
Q 42.328125 0.78125 42.125 0.390625 
Q 41.9375 0 41.015625 0 
L 5.609375 0 
Q 4.59375 0 4.59375 1.3125 
z
" id="Cmmi10-84"/>
     </defs>
     <g transform="translate(16.318125 102.946875)rotate(-90)scale(0.12 -0.12)">
      <use transform="translate(0 0.6875)" xlink:href="#Cmmi10-84"/>
     </g>
    </g>
   </g>
   <g id="legend_1">
    <g id="patch_7">
     <path d="M 403.76875 79.719375 
L 497.16875 79.719375 
Q 499.16875 79.719375 499.16875 77.719375 
L 499.16875 20.006875 
Q 499.16875 18.006875 497.16875 18.006875 
L 403.76875 18.006875 
Q 401.76875 18.006875 401.76875 20.006875 
L 401.76875 77.719375 
Q 401.76875 79.719375 403.76875 79.719375 
z
" style="fill:#ffffff;stroke:#000000;stroke-linejoin:miter;"/>
    </g>
    <g id="line2d_23">
     <path d="M 408.76875 26.105312 
L 422.76875 26.105312 
" style="fill:none;stroke:#0000ff;stroke-linecap:square;"/>
    </g>
    <g id="line2d_24"/>
    <g id="text_12">
     <!-- $a$=0.9 $\tau$=0.9 -->
     <defs>
      <path d="M 17.390625 -1.125 
Q 11.078125 -1.125 7.4375 3.640625 
Q 3.8125 8.40625 3.8125 14.890625 
Q 3.8125 21.296875 7.125 28.171875 
Q 10.453125 35.0625 16.09375 39.625 
Q 21.734375 44.1875 28.21875 44.1875 
Q 31.203125 44.1875 33.546875 42.578125 
Q 35.890625 40.96875 37.203125 38.1875 
Q 38.328125 42.1875 41.609375 42.1875 
Q 42.875 42.1875 43.71875 41.421875 
Q 44.578125 40.671875 44.578125 39.40625 
Q 44.578125 39.109375 44.546875 38.953125 
Q 44.53125 38.8125 44.484375 38.625 
L 37.5 10.6875 
Q 36.8125 7.71875 36.8125 5.8125 
Q 36.8125 1.515625 39.703125 1.515625 
Q 42.828125 1.515625 44.453125 5.484375 
Q 46.09375 9.46875 47.21875 14.703125 
Q 47.40625 15.28125 48 15.28125 
L 49.21875 15.28125 
Q 49.609375 15.28125 49.84375 14.9375 
Q 50.09375 14.59375 50.09375 14.3125 
Q 48.34375 7.328125 46.265625 3.09375 
Q 44.1875 -1.125 39.5 -1.125 
Q 36.140625 -1.125 33.546875 0.84375 
Q 30.953125 2.828125 30.328125 6.109375 
Q 23.875 -1.125 17.390625 -1.125 
z
M 17.484375 1.515625 
Q 21.09375 1.515625 24.484375 4.21875 
Q 27.875 6.9375 30.328125 10.59375 
Q 30.421875 10.6875 30.421875 10.890625 
L 35.796875 32.625 
L 35.890625 32.90625 
Q 35.296875 36.46875 33.3125 39.03125 
Q 31.34375 41.609375 27.984375 41.609375 
Q 24.609375 41.609375 21.703125 38.84375 
Q 18.796875 36.078125 16.796875 32.328125 
Q 14.84375 28.328125 13.0625 21.34375 
Q 11.28125 14.359375 11.28125 10.5 
Q 11.28125 7.03125 12.765625 4.265625 
Q 14.265625 1.515625 17.484375 1.515625 
z
" id="Cmmi10-97"/>
      <path d="M 10.59375 45.40625 
L 73.1875 45.40625 
L 73.1875 37.203125 
L 10.59375 37.203125 
z
M 10.59375 25.484375 
L 73.1875 25.484375 
L 73.1875 17.1875 
L 10.59375 17.1875 
z
" id="DejaVuSans-61"/>
      <path d="M 10.6875 12.40625 
L 21 12.40625 
L 21 0 
L 10.6875 0 
z
" id="DejaVuSans-46"/>
      <path d="M 10.984375 1.515625 
L 10.984375 10.5 
Q 14.703125 8.734375 18.5 7.8125 
Q 22.3125 6.890625 25.984375 6.890625 
Q 35.75 6.890625 40.890625 13.453125 
Q 46.046875 20.015625 46.78125 33.40625 
Q 43.953125 29.203125 39.59375 26.953125 
Q 35.25 24.703125 29.984375 24.703125 
Q 19.046875 24.703125 12.671875 31.3125 
Q 6.296875 37.9375 6.296875 49.421875 
Q 6.296875 60.640625 12.9375 67.421875 
Q 19.578125 74.21875 30.609375 74.21875 
Q 43.265625 74.21875 49.921875 64.515625 
Q 56.59375 54.828125 56.59375 36.375 
Q 56.59375 19.140625 48.40625 8.859375 
Q 40.234375 -1.421875 26.421875 -1.421875 
Q 22.703125 -1.421875 18.890625 -0.6875 
Q 15.09375 0.046875 10.984375 1.515625 
z
M 30.609375 32.421875 
Q 37.25 32.421875 41.125 36.953125 
Q 45.015625 41.5 45.015625 49.421875 
Q 45.015625 57.28125 41.125 61.84375 
Q 37.25 66.40625 30.609375 66.40625 
Q 23.96875 66.40625 20.09375 61.84375 
Q 16.21875 57.28125 16.21875 49.421875 
Q 16.21875 41.5 20.09375 36.953125 
Q 23.96875 32.421875 30.609375 32.421875 
z
" id="DejaVuSans-57"/>
      <path id="DejaVuSans-32"/>
      <path d="M 15.578125 1.515625 
Q 15.578125 2.203125 15.71875 2.59375 
L 26.21875 36.921875 
L 17.1875 36.921875 
Q 13.53125 36.921875 10.34375 34.625 
Q 7.171875 32.328125 5.078125 28.8125 
Q 4.890625 28.421875 4.5 28.421875 
L 3.328125 28.421875 
Q 2.390625 28.421875 2.390625 29.390625 
Q 2.390625 29.59375 2.59375 29.984375 
Q 5.859375 35.546875 9.59375 39.328125 
Q 13.328125 43.109375 18.015625 43.109375 
L 48.6875 43.109375 
Q 49.75 43.109375 50.484375 42.375 
Q 51.21875 41.65625 51.21875 40.578125 
Q 51.21875 39.109375 50.171875 38.015625 
Q 49.125 36.921875 47.609375 36.921875 
L 29.5 36.921875 
L 22.796875 2.390625 
Q 22.40625 0.78125 21.328125 -0.265625 
Q 20.265625 -1.3125 18.609375 -1.3125 
Q 17.328125 -1.3125 16.453125 -0.5 
Q 15.578125 0.296875 15.578125 1.515625 
z
" id="Cmmi10-191"/>
     </defs>
     <g transform="translate(433.76875 29.605312)scale(0.1 -0.1)">
      <use transform="translate(0 0.78125)" xlink:href="#Cmmi10-97"/>
      <use transform="translate(52.783203 0.78125)" xlink:href="#DejaVuSans-61"/>
      <use transform="translate(136.572266 0.78125)" xlink:href="#DejaVuSans-48"/>
      <use transform="translate(200.195312 0.78125)" xlink:href="#DejaVuSans-46"/>
      <use transform="translate(231.982422 0.78125)" xlink:href="#DejaVuSans-57"/>
      <use transform="translate(295.605469 0.78125)" xlink:href="#DejaVuSans-32"/>
      <use transform="translate(327.392578 0.78125)" xlink:href="#Cmmi10-191"/>
      <use transform="translate(371.09375 0.78125)" xlink:href="#DejaVuSans-61"/>
      <use transform="translate(454.882812 0.78125)" xlink:href="#DejaVuSans-48"/>
      <use transform="translate(518.505859 0.78125)" xlink:href="#DejaVuSans-46"/>
      <use transform="translate(550.292969 0.78125)" xlink:href="#DejaVuSans-57"/>
     </g>
    </g>
    <g id="line2d_25">
     <path d="M 408.76875 40.783437 
L 422.76875 40.783437 
" style="fill:none;stroke:#008000;stroke-linecap:square;"/>
    </g>
    <g id="line2d_26"/>
    <g id="text_13">
     <!-- $a$=0.9 $\tau$=0.8 -->
     <defs>
      <path d="M 31.78125 34.625 
Q 24.75 34.625 20.71875 30.859375 
Q 16.703125 27.09375 16.703125 20.515625 
Q 16.703125 13.921875 20.71875 10.15625 
Q 24.75 6.390625 31.78125 6.390625 
Q 38.8125 6.390625 42.859375 10.171875 
Q 46.921875 13.96875 46.921875 20.515625 
Q 46.921875 27.09375 42.890625 30.859375 
Q 38.875 34.625 31.78125 34.625 
z
M 21.921875 38.8125 
Q 15.578125 40.375 12.03125 44.71875 
Q 8.5 49.078125 8.5 55.328125 
Q 8.5 64.0625 14.71875 69.140625 
Q 20.953125 74.21875 31.78125 74.21875 
Q 42.671875 74.21875 48.875 69.140625 
Q 55.078125 64.0625 55.078125 55.328125 
Q 55.078125 49.078125 51.53125 44.71875 
Q 48 40.375 41.703125 38.8125 
Q 48.828125 37.15625 52.796875 32.3125 
Q 56.78125 27.484375 56.78125 20.515625 
Q 56.78125 9.90625 50.3125 4.234375 
Q 43.84375 -1.421875 31.78125 -1.421875 
Q 19.734375 -1.421875 13.25 4.234375 
Q 6.78125 9.90625 6.78125 20.515625 
Q 6.78125 27.484375 10.78125 32.3125 
Q 14.796875 37.15625 21.921875 38.8125 
z
M 18.3125 54.390625 
Q 18.3125 48.734375 21.84375 45.5625 
Q 25.390625 42.390625 31.78125 42.390625 
Q 38.140625 42.390625 41.71875 45.5625 
Q 45.3125 48.734375 45.3125 54.390625 
Q 45.3125 60.0625 41.71875 63.234375 
Q 38.140625 66.40625 31.78125 66.40625 
Q 25.390625 66.40625 21.84375 63.234375 
Q 18.3125 60.0625 18.3125 54.390625 
z
" id="DejaVuSans-56"/>
     </defs>
     <g transform="translate(433.76875 44.283437)scale(0.1 -0.1)">
      <use transform="translate(0 0.78125)" xlink:href="#Cmmi10-97"/>
      <use transform="translate(52.783203 0.78125)" xlink:href="#DejaVuSans-61"/>
      <use transform="translate(136.572266 0.78125)" xlink:href="#DejaVuSans-48"/>
      <use transform="translate(200.195312 0.78125)" xlink:href="#DejaVuSans-46"/>
      <use transform="translate(231.982422 0.78125)" xlink:href="#DejaVuSans-57"/>
      <use transform="translate(295.605469 0.78125)" xlink:href="#DejaVuSans-32"/>
      <use transform="translate(327.392578 0.78125)" xlink:href="#Cmmi10-191"/>
      <use transform="translate(371.09375 0.78125)" xlink:href="#DejaVuSans-61"/>
      <use transform="translate(454.882812 0.78125)" xlink:href="#DejaVuSans-48"/>
      <use transform="translate(518.505859 0.78125)" xlink:href="#DejaVuSans-46"/>
      <use transform="translate(550.261719 0.78125)" xlink:href="#DejaVuSans-56"/>
     </g>
    </g>
    <g id="line2d_27">
     <path d="M 408.76875 55.461562 
L 422.76875 55.461562 
" style="fill:none;stroke:#ff0000;stroke-linecap:square;"/>
    </g>
    <g id="line2d_28"/>
    <g id="text_14">
     <!-- $a$=0.5 $\tau$=0.9 -->
     <defs>
      <path d="M 10.796875 72.90625 
L 49.515625 72.90625 
L 49.515625 64.59375 
L 19.828125 64.59375 
L 19.828125 46.734375 
Q 21.96875 47.46875 24.109375 47.828125 
Q 26.265625 48.1875 28.421875 48.1875 
Q 40.625 48.1875 47.75 41.5 
Q 54.890625 34.8125 54.890625 23.390625 
Q 54.890625 11.625 47.5625 5.09375 
Q 40.234375 -1.421875 26.90625 -1.421875 
Q 22.3125 -1.421875 17.546875 -0.640625 
Q 12.796875 0.140625 7.71875 1.703125 
L 7.71875 11.625 
Q 12.109375 9.234375 16.796875 8.0625 
Q 21.484375 6.890625 26.703125 6.890625 
Q 35.15625 6.890625 40.078125 11.328125 
Q 45.015625 15.765625 45.015625 23.390625 
Q 45.015625 31 40.078125 35.4375 
Q 35.15625 39.890625 26.703125 39.890625 
Q 22.75 39.890625 18.8125 39.015625 
Q 14.890625 38.140625 10.796875 36.28125 
z
" id="DejaVuSans-53"/>
     </defs>
     <g transform="translate(433.76875 58.961562)scale(0.1 -0.1)">
      <use transform="translate(0 0.78125)" xlink:href="#Cmmi10-97"/>
      <use transform="translate(52.783203 0.78125)" xlink:href="#DejaVuSans-61"/>
      <use transform="translate(136.572266 0.78125)" xlink:href="#DejaVuSans-48"/>
      <use transform="translate(200.195312 0.78125)" xlink:href="#DejaVuSans-46"/>
      <use transform="translate(231.982422 0.78125)" xlink:href="#DejaVuSans-53"/>
      <use transform="translate(295.605469 0.78125)" xlink:href="#DejaVuSans-32"/>
      <use transform="translate(327.392578 0.78125)" xlink:href="#Cmmi10-191"/>
      <use transform="translate(371.09375 0.78125)" xlink:href="#DejaVuSans-61"/>
      <use transform="translate(454.882812 0.78125)" xlink:href="#DejaVuSans-48"/>
      <use transform="translate(518.505859 0.78125)" xlink:href="#DejaVuSans-46"/>
      <use transform="translate(550.292969 0.78125)" xlink:href="#DejaVuSans-57"/>
     </g>
    </g>
    <g id="line2d_29">
     <path d="M 408.76875 70.139687 
L 422.76875 70.139687 
" style="fill:none;stroke:#00bfbf;stroke-linecap:square;"/>
    </g>
    <g id="line2d_30"/>
    <g id="text_15">
     <!-- $a$=0.5 $\tau$=0.8 -->
     <g transform="translate(433.76875 73.639687)scale(0.1 -0.1)">
      <use transform="translate(0 0.78125)" xlink:href="#Cmmi10-97"/>
      <use transform="translate(52.783203 0.78125)" xlink:href="#DejaVuSans-61"/>
      <use transform="translate(136.572266 0.78125)" xlink:href="#DejaVuSans-48"/>
      <use transform="translate(200.195312 0.78125)" xlink:href="#DejaVuSans-46"/>
      <use transform="translate(231.982422 0.78125)" xlink:href="#DejaVuSans-53"/>
      <use transform="translate(295.605469 0.78125)" xlink:href="#DejaVuSans-32"/>
      <use transform="translate(327.392578 0.78125)" xlink:href="#Cmmi10-191"/>
      <use transform="translate(371.09375 0.78125)" xlink:href="#DejaVuSans-61"/>
      <use transform="translate(454.882812 0.78125)" xlink:href="#DejaVuSans-48"/>
      <use transform="translate(518.505859 0.78125)" xlink:href="#DejaVuSans-46"/>
      <use transform="translate(550.261719 0.78125)" xlink:href="#DejaVuSans-56"/>
     </g>
    </g>
   </g>
  </g>
 </g>
 <defs>
  <clipPath id="p3a7d4ae702">
   <rect height="172.8" width="334.8" x="35.44875" y="13.006875"/>
  </clipPath>
 </defs>
</svg>
