<?xml version="1.0" encoding="utf-8" standalone="no"?>
<!DOCTYPE svg PUBLIC "-//W3C//DTD SVG 1.1//EN"
  "http://www.w3.org/Graphics/SVG/1.1/DTD/svg11.dtd">
<!-- Created with matplotlib (https://matplotlib.org/) -->
<svg height="222.725pt" version="1.1" viewBox="0 0 405 222.725" width="405pt" xmlns="http://www.w3.org/2000/svg" xmlns:xlink="http://www.w3.org/1999/xlink">
 <defs>
  <style type="text/css">
*{stroke-linecap:butt;stroke-linejoin:round;}
  </style>
 </defs>
 <g id="figure_1">
  <g id="patch_1">
   <path d="M 0 222.725 
L 405 222.725 
L 405 0 
L 0 0 
z
" style="fill:none;"/>
  </g>
  <g id="axes_1">
   <g id="patch_2">
    <path d="M 63 173.52 
L 397.8 173.52 
L 397.8 7.2 
L 63 7.2 
z
" style="fill:none;"/>
   </g>
   <g id="matplotlib.axis_1">
    <g id="xtick_1">
     <g id="line2d_1">
      <path clip-path="url(#p803164dcc6)" d="M 98.067984 173.52 
L 98.067984 7.2 
" style="fill:none;stroke:#b0b0b0;stroke-dasharray:0.8,1.32;stroke-dashoffset:0;stroke-width:0.8;"/>
     </g>
     <g id="line2d_2">
      <defs>
       <path d="M 0 0 
L 0 3.5 
" id="mc462a7fe27" style="stroke:#000000;stroke-width:0.8;"/>
      </defs>
      <g>
       <use style="stroke:#000000;stroke-width:0.8;" x="98.067984" xlink:href="#mc462a7fe27" y="173.52"/>
      </g>
     </g>
     <g id="text_1">
      <!-- −40 -->
      <defs>
       <path d="M 10.59375 35.5 
L 73.1875 35.5 
L 73.1875 27.203125 
L 10.59375 27.203125 
z
" id="DejaVuSans-8722"/>
       <path d="M 37.796875 64.3125 
L 12.890625 25.390625 
L 37.796875 25.390625 
z
M 35.203125 72.90625 
L 47.609375 72.90625 
L 47.609375 25.390625 
L 58.015625 25.390625 
L 58.015625 17.1875 
L 47.609375 17.1875 
L 47.609375 0 
L 37.796875 0 
L 37.796875 17.1875 
L 4.890625 17.1875 
L 4.890625 26.703125 
z
" id="DejaVuSans-52"/>
       <path d="M 31.78125 66.40625 
Q 24.171875 66.40625 20.328125 58.90625 
Q 16.5 51.421875 16.5 36.375 
Q 16.5 21.390625 20.328125 13.890625 
Q 24.171875 6.390625 31.78125 6.390625 
Q 39.453125 6.390625 43.28125 13.890625 
Q 47.125 21.390625 47.125 36.375 
Q 47.125 51.421875 43.28125 58.90625 
Q 39.453125 66.40625 31.78125 66.40625 
z
M 31.78125 74.21875 
Q 44.046875 74.21875 50.515625 64.515625 
Q 56.984375 54.828125 56.984375 36.375 
Q 56.984375 17.96875 50.515625 8.265625 
Q 44.046875 -1.421875 31.78125 -1.421875 
Q 19.53125 -1.421875 13.0625 8.265625 
Q 6.59375 17.96875 6.59375 36.375 
Q 6.59375 54.828125 13.0625 64.515625 
Q 19.53125 74.21875 31.78125 74.21875 
z
" id="DejaVuSans-48"/>
      </defs>
      <g transform="translate(81.184234 192.6775)scale(0.16 -0.16)">
       <use xlink:href="#DejaVuSans-8722"/>
       <use x="83.789062" xlink:href="#DejaVuSans-52"/>
       <use x="147.412109" xlink:href="#DejaVuSans-48"/>
      </g>
     </g>
    </g>
    <g id="xtick_2">
     <g id="line2d_3">
      <path clip-path="url(#p803164dcc6)" d="M 164.233992 173.52 
L 164.233992 7.2 
" style="fill:none;stroke:#b0b0b0;stroke-dasharray:0.8,1.32;stroke-dashoffset:0;stroke-width:0.8;"/>
     </g>
     <g id="line2d_4">
      <g>
       <use style="stroke:#000000;stroke-width:0.8;" x="164.233992" xlink:href="#mc462a7fe27" y="173.52"/>
      </g>
     </g>
     <g id="text_2">
      <!-- −20 -->
      <defs>
       <path d="M 19.1875 8.296875 
L 53.609375 8.296875 
L 53.609375 0 
L 7.328125 0 
L 7.328125 8.296875 
Q 12.9375 14.109375 22.625 23.890625 
Q 32.328125 33.6875 34.8125 36.53125 
Q 39.546875 41.84375 41.421875 45.53125 
Q 43.3125 49.21875 43.3125 52.78125 
Q 43.3125 58.59375 39.234375 62.25 
Q 35.15625 65.921875 28.609375 65.921875 
Q 23.96875 65.921875 18.8125 64.3125 
Q 13.671875 62.703125 7.8125 59.421875 
L 7.8125 69.390625 
Q 13.765625 71.78125 18.9375 73 
Q 24.125 74.21875 28.421875 74.21875 
Q 39.75 74.21875 46.484375 68.546875 
Q 53.21875 62.890625 53.21875 53.421875 
Q 53.21875 48.921875 51.53125 44.890625 
Q 49.859375 40.875 45.40625 35.40625 
Q 44.1875 33.984375 37.640625 27.21875 
Q 31.109375 20.453125 19.1875 8.296875 
z
" id="DejaVuSans-50"/>
      </defs>
      <g transform="translate(147.350242 192.6775)scale(0.16 -0.16)">
       <use xlink:href="#DejaVuSans-8722"/>
       <use x="83.789062" xlink:href="#DejaVuSans-50"/>
       <use x="147.412109" xlink:href="#DejaVuSans-48"/>
      </g>
     </g>
    </g>
    <g id="xtick_3">
     <g id="line2d_5">
      <path clip-path="url(#p803164dcc6)" d="M 230.4 173.52 
L 230.4 7.2 
" style="fill:none;stroke:#b0b0b0;stroke-dasharray:0.8,1.32;stroke-dashoffset:0;stroke-width:0.8;"/>
     </g>
     <g id="line2d_6">
      <g>
       <use style="stroke:#000000;stroke-width:0.8;" x="230.4" xlink:href="#mc462a7fe27" y="173.52"/>
      </g>
     </g>
     <g id="text_3">
      <!-- 0 -->
      <g transform="translate(225.31 192.6775)scale(0.16 -0.16)">
       <use xlink:href="#DejaVuSans-48"/>
      </g>
     </g>
    </g>
    <g id="xtick_4">
     <g id="line2d_7">
      <path clip-path="url(#p803164dcc6)" d="M 296.566008 173.52 
L 296.566008 7.2 
" style="fill:none;stroke:#b0b0b0;stroke-dasharray:0.8,1.32;stroke-dashoffset:0;stroke-width:0.8;"/>
     </g>
     <g id="line2d_8">
      <g>
       <use style="stroke:#000000;stroke-width:0.8;" x="296.566008" xlink:href="#mc462a7fe27" y="173.52"/>
      </g>
     </g>
     <g id="text_4">
      <!-- 20 -->
      <g transform="translate(286.386008 192.6775)scale(0.16 -0.16)">
       <use xlink:href="#DejaVuSans-50"/>
       <use x="63.623047" xlink:href="#DejaVuSans-48"/>
      </g>
     </g>
    </g>
    <g id="xtick_5">
     <g id="line2d_9">
      <path clip-path="url(#p803164dcc6)" d="M 362.732016 173.52 
L 362.732016 7.2 
" style="fill:none;stroke:#b0b0b0;stroke-dasharray:0.8,1.32;stroke-dashoffset:0;stroke-width:0.8;"/>
     </g>
     <g id="line2d_10">
      <g>
       <use style="stroke:#000000;stroke-width:0.8;" x="362.732016" xlink:href="#mc462a7fe27" y="173.52"/>
      </g>
     </g>
     <g id="text_5">
      <!-- 40 -->
      <g transform="translate(352.552016 192.6775)scale(0.16 -0.16)">
       <use xlink:href="#DejaVuSans-52"/>
       <use x="63.623047" xlink:href="#DejaVuSans-48"/>
      </g>
     </g>
    </g>
    <g id="text_6">
     <!-- Relative mode index $\mu$ -->
     <defs>
      <path d="M 44.390625 34.1875 
Q 47.5625 33.109375 50.5625 29.59375 
Q 53.5625 26.078125 56.59375 19.921875 
L 66.609375 0 
L 56 0 
L 46.6875 18.703125 
Q 43.0625 26.03125 39.671875 28.421875 
Q 36.28125 30.8125 30.421875 30.8125 
L 19.671875 30.8125 
L 19.671875 0 
L 9.8125 0 
L 9.8125 72.90625 
L 32.078125 72.90625 
Q 44.578125 72.90625 50.734375 67.671875 
Q 56.890625 62.453125 56.890625 51.90625 
Q 56.890625 45.015625 53.6875 40.46875 
Q 50.484375 35.9375 44.390625 34.1875 
z
M 19.671875 64.796875 
L 19.671875 38.921875 
L 32.078125 38.921875 
Q 39.203125 38.921875 42.84375 42.21875 
Q 46.484375 45.515625 46.484375 51.90625 
Q 46.484375 58.296875 42.84375 61.546875 
Q 39.203125 64.796875 32.078125 64.796875 
z
" id="DejaVuSans-82"/>
      <path d="M 56.203125 29.59375 
L 56.203125 25.203125 
L 14.890625 25.203125 
Q 15.484375 15.921875 20.484375 11.0625 
Q 25.484375 6.203125 34.421875 6.203125 
Q 39.59375 6.203125 44.453125 7.46875 
Q 49.3125 8.734375 54.109375 11.28125 
L 54.109375 2.78125 
Q 49.265625 0.734375 44.1875 -0.34375 
Q 39.109375 -1.421875 33.890625 -1.421875 
Q 20.796875 -1.421875 13.15625 6.1875 
Q 5.515625 13.8125 5.515625 26.8125 
Q 5.515625 40.234375 12.765625 48.109375 
Q 20.015625 56 32.328125 56 
Q 43.359375 56 49.78125 48.890625 
Q 56.203125 41.796875 56.203125 29.59375 
z
M 47.21875 32.234375 
Q 47.125 39.59375 43.09375 43.984375 
Q 39.0625 48.390625 32.421875 48.390625 
Q 24.90625 48.390625 20.390625 44.140625 
Q 15.875 39.890625 15.1875 32.171875 
z
" id="DejaVuSans-101"/>
      <path d="M 9.421875 75.984375 
L 18.40625 75.984375 
L 18.40625 0 
L 9.421875 0 
z
" id="DejaVuSans-108"/>
      <path d="M 34.28125 27.484375 
Q 23.390625 27.484375 19.1875 25 
Q 14.984375 22.515625 14.984375 16.5 
Q 14.984375 11.71875 18.140625 8.90625 
Q 21.296875 6.109375 26.703125 6.109375 
Q 34.1875 6.109375 38.703125 11.40625 
Q 43.21875 16.703125 43.21875 25.484375 
L 43.21875 27.484375 
z
M 52.203125 31.203125 
L 52.203125 0 
L 43.21875 0 
L 43.21875 8.296875 
Q 40.140625 3.328125 35.546875 0.953125 
Q 30.953125 -1.421875 24.3125 -1.421875 
Q 15.921875 -1.421875 10.953125 3.296875 
Q 6 8.015625 6 15.921875 
Q 6 25.140625 12.171875 29.828125 
Q 18.359375 34.515625 30.609375 34.515625 
L 43.21875 34.515625 
L 43.21875 35.40625 
Q 43.21875 41.609375 39.140625 45 
Q 35.0625 48.390625 27.6875 48.390625 
Q 23 48.390625 18.546875 47.265625 
Q 14.109375 46.140625 10.015625 43.890625 
L 10.015625 52.203125 
Q 14.9375 54.109375 19.578125 55.046875 
Q 24.21875 56 28.609375 56 
Q 40.484375 56 46.34375 49.84375 
Q 52.203125 43.703125 52.203125 31.203125 
z
" id="DejaVuSans-97"/>
      <path d="M 18.3125 70.21875 
L 18.3125 54.6875 
L 36.8125 54.6875 
L 36.8125 47.703125 
L 18.3125 47.703125 
L 18.3125 18.015625 
Q 18.3125 11.328125 20.140625 9.421875 
Q 21.96875 7.515625 27.59375 7.515625 
L 36.8125 7.515625 
L 36.8125 0 
L 27.59375 0 
Q 17.1875 0 13.234375 3.875 
Q 9.28125 7.765625 9.28125 18.015625 
L 9.28125 47.703125 
L 2.6875 47.703125 
L 2.6875 54.6875 
L 9.28125 54.6875 
L 9.28125 70.21875 
z
" id="DejaVuSans-116"/>
      <path d="M 9.421875 54.6875 
L 18.40625 54.6875 
L 18.40625 0 
L 9.421875 0 
z
M 9.421875 75.984375 
L 18.40625 75.984375 
L 18.40625 64.59375 
L 9.421875 64.59375 
z
" id="DejaVuSans-105"/>
      <path d="M 2.984375 54.6875 
L 12.5 54.6875 
L 29.59375 8.796875 
L 46.6875 54.6875 
L 56.203125 54.6875 
L 35.6875 0 
L 23.484375 0 
z
" id="DejaVuSans-118"/>
      <path id="DejaVuSans-32"/>
      <path d="M 52 44.1875 
Q 55.375 50.25 60.0625 53.125 
Q 64.75 56 71.09375 56 
Q 79.640625 56 84.28125 50.015625 
Q 88.921875 44.046875 88.921875 33.015625 
L 88.921875 0 
L 79.890625 0 
L 79.890625 32.71875 
Q 79.890625 40.578125 77.09375 44.375 
Q 74.3125 48.1875 68.609375 48.1875 
Q 61.625 48.1875 57.5625 43.546875 
Q 53.515625 38.921875 53.515625 30.90625 
L 53.515625 0 
L 44.484375 0 
L 44.484375 32.71875 
Q 44.484375 40.625 41.703125 44.40625 
Q 38.921875 48.1875 33.109375 48.1875 
Q 26.21875 48.1875 22.15625 43.53125 
Q 18.109375 38.875 18.109375 30.90625 
L 18.109375 0 
L 9.078125 0 
L 9.078125 54.6875 
L 18.109375 54.6875 
L 18.109375 46.1875 
Q 21.1875 51.21875 25.484375 53.609375 
Q 29.78125 56 35.6875 56 
Q 41.65625 56 45.828125 52.96875 
Q 50 49.953125 52 44.1875 
z
" id="DejaVuSans-109"/>
      <path d="M 30.609375 48.390625 
Q 23.390625 48.390625 19.1875 42.75 
Q 14.984375 37.109375 14.984375 27.296875 
Q 14.984375 17.484375 19.15625 11.84375 
Q 23.34375 6.203125 30.609375 6.203125 
Q 37.796875 6.203125 41.984375 11.859375 
Q 46.1875 17.53125 46.1875 27.296875 
Q 46.1875 37.015625 41.984375 42.703125 
Q 37.796875 48.390625 30.609375 48.390625 
z
M 30.609375 56 
Q 42.328125 56 49.015625 48.375 
Q 55.71875 40.765625 55.71875 27.296875 
Q 55.71875 13.875 49.015625 6.21875 
Q 42.328125 -1.421875 30.609375 -1.421875 
Q 18.84375 -1.421875 12.171875 6.21875 
Q 5.515625 13.875 5.515625 27.296875 
Q 5.515625 40.765625 12.171875 48.375 
Q 18.84375 56 30.609375 56 
z
" id="DejaVuSans-111"/>
      <path d="M 45.40625 46.390625 
L 45.40625 75.984375 
L 54.390625 75.984375 
L 54.390625 0 
L 45.40625 0 
L 45.40625 8.203125 
Q 42.578125 3.328125 38.25 0.953125 
Q 33.9375 -1.421875 27.875 -1.421875 
Q 17.96875 -1.421875 11.734375 6.484375 
Q 5.515625 14.40625 5.515625 27.296875 
Q 5.515625 40.1875 11.734375 48.09375 
Q 17.96875 56 27.875 56 
Q 33.9375 56 38.25 53.625 
Q 42.578125 51.265625 45.40625 46.390625 
z
M 14.796875 27.296875 
Q 14.796875 17.390625 18.875 11.75 
Q 22.953125 6.109375 30.078125 6.109375 
Q 37.203125 6.109375 41.296875 11.75 
Q 45.40625 17.390625 45.40625 27.296875 
Q 45.40625 37.203125 41.296875 42.84375 
Q 37.203125 48.484375 30.078125 48.484375 
Q 22.953125 48.484375 18.875 42.84375 
Q 14.796875 37.203125 14.796875 27.296875 
z
" id="DejaVuSans-100"/>
      <path d="M 54.890625 33.015625 
L 54.890625 0 
L 45.90625 0 
L 45.90625 32.71875 
Q 45.90625 40.484375 42.875 44.328125 
Q 39.84375 48.1875 33.796875 48.1875 
Q 26.515625 48.1875 22.3125 43.546875 
Q 18.109375 38.921875 18.109375 30.90625 
L 18.109375 0 
L 9.078125 0 
L 9.078125 54.6875 
L 18.109375 54.6875 
L 18.109375 46.1875 
Q 21.34375 51.125 25.703125 53.5625 
Q 30.078125 56 35.796875 56 
Q 45.21875 56 50.046875 50.171875 
Q 54.890625 44.34375 54.890625 33.015625 
z
" id="DejaVuSans-110"/>
      <path d="M 54.890625 54.6875 
L 35.109375 28.078125 
L 55.90625 0 
L 45.3125 0 
L 29.390625 21.484375 
L 13.484375 0 
L 2.875 0 
L 24.125 28.609375 
L 4.6875 54.6875 
L 15.28125 54.6875 
L 29.78125 35.203125 
L 44.28125 54.6875 
z
" id="DejaVuSans-120"/>
      <path d="M -1.3125 -20.796875 
L 13.375 54.6875 
L 22.40625 54.6875 
L 15.765625 20.65625 
Q 15.578125 19.625 15.421875 18.359375 
Q 15.28125 17.09375 15.28125 15.828125 
Q 15.28125 11.28125 18.140625 8.828125 
Q 21 6.390625 26.3125 6.390625 
Q 33.546875 6.390625 37.984375 10.484375 
Q 42.4375 14.59375 44 22.796875 
L 50.203125 54.6875 
L 59.1875 54.6875 
L 51.03125 12.640625 
Q 50.828125 11.71875 50.75 11.03125 
Q 50.6875 10.359375 50.6875 9.8125 
Q 50.6875 8.296875 51.296875 7.59375 
Q 51.90625 6.890625 53.21875 6.890625 
Q 53.71875 6.890625 54.5625 7.125 
Q 55.421875 7.375 56.984375 8.015625 
L 55.609375 0.78125 
Q 53.46875 -0.296875 51.515625 -0.859375 
Q 49.5625 -1.421875 47.703125 -1.421875 
Q 44.484375 -1.421875 42.65625 0.625 
Q 40.828125 2.6875 40.828125 6.296875 
Q 38.09375 2.390625 34.296875 0.484375 
Q 30.515625 -1.421875 25.390625 -1.421875 
Q 20.84375 -1.421875 17.453125 0.671875 
Q 14.0625 2.78125 12.984375 6.203125 
L 7.71875 -20.796875 
z
" id="DejaVuSans-Oblique-956"/>
     </defs>
     <g transform="translate(140.32 212.165)scale(0.16 -0.16)">
      <use transform="translate(0 0.015625)" xlink:href="#DejaVuSans-82"/>
      <use transform="translate(69.482422 0.015625)" xlink:href="#DejaVuSans-101"/>
      <use transform="translate(131.005859 0.015625)" xlink:href="#DejaVuSans-108"/>
      <use transform="translate(158.789062 0.015625)" xlink:href="#DejaVuSans-97"/>
      <use transform="translate(220.068359 0.015625)" xlink:href="#DejaVuSans-116"/>
      <use transform="translate(259.277344 0.015625)" xlink:href="#DejaVuSans-105"/>
      <use transform="translate(287.060547 0.015625)" xlink:href="#DejaVuSans-118"/>
      <use transform="translate(346.240234 0.015625)" xlink:href="#DejaVuSans-101"/>
      <use transform="translate(407.763672 0.015625)" xlink:href="#DejaVuSans-32"/>
      <use transform="translate(439.550781 0.015625)" xlink:href="#DejaVuSans-109"/>
      <use transform="translate(536.962891 0.015625)" xlink:href="#DejaVuSans-111"/>
      <use transform="translate(598.144531 0.015625)" xlink:href="#DejaVuSans-100"/>
      <use transform="translate(661.621094 0.015625)" xlink:href="#DejaVuSans-101"/>
      <use transform="translate(723.144531 0.015625)" xlink:href="#DejaVuSans-32"/>
      <use transform="translate(754.931641 0.015625)" xlink:href="#DejaVuSans-105"/>
      <use transform="translate(782.714844 0.015625)" xlink:href="#DejaVuSans-110"/>
      <use transform="translate(846.09375 0.015625)" xlink:href="#DejaVuSans-100"/>
      <use transform="translate(909.570312 0.015625)" xlink:href="#DejaVuSans-101"/>
      <use transform="translate(971.09375 0.015625)" xlink:href="#DejaVuSans-120"/>
      <use transform="translate(1030.273438 0.015625)" xlink:href="#DejaVuSans-32"/>
      <use transform="translate(1062.060547 0.015625)" xlink:href="#DejaVuSans-Oblique-956"/>
     </g>
    </g>
   </g>
   <g id="matplotlib.axis_2">
    <g id="ytick_1">
     <g id="line2d_11">
      <path clip-path="url(#p803164dcc6)" d="M 63 141.932696 
L 397.8 141.932696 
" style="fill:none;stroke:#b0b0b0;stroke-dasharray:0.8,1.32;stroke-dashoffset:0;stroke-width:0.8;"/>
     </g>
     <g id="line2d_12">
      <defs>
       <path d="M 0 0 
L -3.5 0 
" id="ma91f91a06a" style="stroke:#000000;stroke-width:0.8;"/>
      </defs>
      <g>
       <use style="stroke:#000000;stroke-width:0.8;" x="63" xlink:href="#ma91f91a06a" y="141.932696"/>
      </g>
     </g>
     <g id="text_7">
      <!-- $\mathdefault{10^{5}}$ -->
      <defs>
       <path d="M 12.40625 8.296875 
L 28.515625 8.296875 
L 28.515625 63.921875 
L 10.984375 60.40625 
L 10.984375 69.390625 
L 28.421875 72.90625 
L 38.28125 72.90625 
L 38.28125 8.296875 
L 54.390625 8.296875 
L 54.390625 0 
L 12.40625 0 
z
" id="DejaVuSans-49"/>
       <path d="M 10.796875 72.90625 
L 49.515625 72.90625 
L 49.515625 64.59375 
L 19.828125 64.59375 
L 19.828125 46.734375 
Q 21.96875 47.46875 24.109375 47.828125 
Q 26.265625 48.1875 28.421875 48.1875 
Q 40.625 48.1875 47.75 41.5 
Q 54.890625 34.8125 54.890625 23.390625 
Q 54.890625 11.625 47.5625 5.09375 
Q 40.234375 -1.421875 26.90625 -1.421875 
Q 22.3125 -1.421875 17.546875 -0.640625 
Q 12.796875 0.140625 7.71875 1.703125 
L 7.71875 11.625 
Q 12.109375 9.234375 16.796875 8.0625 
Q 21.484375 6.890625 26.703125 6.890625 
Q 35.15625 6.890625 40.078125 11.328125 
Q 45.015625 15.765625 45.015625 23.390625 
Q 45.015625 31 40.078125 35.4375 
Q 35.15625 39.890625 26.703125 39.890625 
Q 22.75 39.890625 18.8125 39.015625 
Q 14.890625 38.140625 10.796875 36.28125 
z
" id="DejaVuSans-53"/>
      </defs>
      <g transform="translate(27.84 148.011446)scale(0.16 -0.16)">
       <use transform="translate(0 0.684375)" xlink:href="#DejaVuSans-49"/>
       <use transform="translate(63.623047 0.684375)" xlink:href="#DejaVuSans-48"/>
       <use transform="translate(128.203125 38.965625)scale(0.7)" xlink:href="#DejaVuSans-53"/>
      </g>
     </g>
    </g>
    <g id="ytick_2">
     <g id="line2d_13">
      <path clip-path="url(#p803164dcc6)" d="M 63 78.346348 
L 397.8 78.346348 
" style="fill:none;stroke:#b0b0b0;stroke-dasharray:0.8,1.32;stroke-dashoffset:0;stroke-width:0.8;"/>
     </g>
     <g id="line2d_14">
      <g>
       <use style="stroke:#000000;stroke-width:0.8;" x="63" xlink:href="#ma91f91a06a" y="78.346348"/>
      </g>
     </g>
     <g id="text_8">
      <!-- $\mathdefault{10^{6}}$ -->
      <defs>
       <path d="M 33.015625 40.375 
Q 26.375 40.375 22.484375 35.828125 
Q 18.609375 31.296875 18.609375 23.390625 
Q 18.609375 15.53125 22.484375 10.953125 
Q 26.375 6.390625 33.015625 6.390625 
Q 39.65625 6.390625 43.53125 10.953125 
Q 47.40625 15.53125 47.40625 23.390625 
Q 47.40625 31.296875 43.53125 35.828125 
Q 39.65625 40.375 33.015625 40.375 
z
M 52.59375 71.296875 
L 52.59375 62.3125 
Q 48.875 64.0625 45.09375 64.984375 
Q 41.3125 65.921875 37.59375 65.921875 
Q 27.828125 65.921875 22.671875 59.328125 
Q 17.53125 52.734375 16.796875 39.40625 
Q 19.671875 43.65625 24.015625 45.921875 
Q 28.375 48.1875 33.59375 48.1875 
Q 44.578125 48.1875 50.953125 41.515625 
Q 57.328125 34.859375 57.328125 23.390625 
Q 57.328125 12.15625 50.6875 5.359375 
Q 44.046875 -1.421875 33.015625 -1.421875 
Q 20.359375 -1.421875 13.671875 8.265625 
Q 6.984375 17.96875 6.984375 36.375 
Q 6.984375 53.65625 15.1875 63.9375 
Q 23.390625 74.21875 37.203125 74.21875 
Q 40.921875 74.21875 44.703125 73.484375 
Q 48.484375 72.75 52.59375 71.296875 
z
" id="DejaVuSans-54"/>
      </defs>
      <g transform="translate(27.84 84.425098)scale(0.16 -0.16)">
       <use transform="translate(0 0.765625)" xlink:href="#DejaVuSans-49"/>
       <use transform="translate(63.623047 0.765625)" xlink:href="#DejaVuSans-48"/>
       <use transform="translate(128.203125 39.046875)scale(0.7)" xlink:href="#DejaVuSans-54"/>
      </g>
     </g>
    </g>
    <g id="ytick_3">
     <g id="line2d_15">
      <path clip-path="url(#p803164dcc6)" d="M 63 14.76 
L 397.8 14.76 
" style="fill:none;stroke:#b0b0b0;stroke-dasharray:0.8,1.32;stroke-dashoffset:0;stroke-width:0.8;"/>
     </g>
     <g id="line2d_16">
      <g>
       <use style="stroke:#000000;stroke-width:0.8;" x="63" xlink:href="#ma91f91a06a" y="14.76"/>
      </g>
     </g>
     <g id="text_9">
      <!-- $\mathdefault{10^{7}}$ -->
      <defs>
       <path d="M 8.203125 72.90625 
L 55.078125 72.90625 
L 55.078125 68.703125 
L 28.609375 0 
L 18.3125 0 
L 43.21875 64.59375 
L 8.203125 64.59375 
z
" id="DejaVuSans-55"/>
      </defs>
      <g transform="translate(27.84 20.83875)scale(0.16 -0.16)">
       <use transform="translate(0 0.684375)" xlink:href="#DejaVuSans-49"/>
       <use transform="translate(63.623047 0.684375)" xlink:href="#DejaVuSans-48"/>
       <use transform="translate(128.203125 38.965625)scale(0.7)" xlink:href="#DejaVuSans-55"/>
      </g>
     </g>
    </g>
    <g id="ytick_4">
     <g id="line2d_17">
      <defs>
       <path d="M 0 0 
L -2 0 
" id="m99daa4bec3" style="stroke:#000000;stroke-width:0.6;"/>
      </defs>
      <g>
       <use style="stroke:#000000;stroke-width:0.6;" x="63" xlink:href="#m99daa4bec3" y="167.236248"/>
      </g>
     </g>
    </g>
    <g id="ytick_5">
     <g id="line2d_18">
      <g>
       <use style="stroke:#000000;stroke-width:0.6;" x="63" xlink:href="#m99daa4bec3" y="161.074094"/>
      </g>
     </g>
    </g>
    <g id="ytick_6">
     <g id="line2d_19">
      <g>
       <use style="stroke:#000000;stroke-width:0.6;" x="63" xlink:href="#m99daa4bec3" y="156.039248"/>
      </g>
     </g>
    </g>
    <g id="ytick_7">
     <g id="line2d_20">
      <g>
       <use style="stroke:#000000;stroke-width:0.6;" x="63" xlink:href="#m99daa4bec3" y="151.782346"/>
      </g>
     </g>
    </g>
    <g id="ytick_8">
     <g id="line2d_21">
      <g>
       <use style="stroke:#000000;stroke-width:0.6;" x="63" xlink:href="#m99daa4bec3" y="148.09485"/>
      </g>
     </g>
    </g>
    <g id="ytick_9">
     <g id="line2d_22">
      <g>
       <use style="stroke:#000000;stroke-width:0.6;" x="63" xlink:href="#m99daa4bec3" y="144.842248"/>
      </g>
     </g>
    </g>
    <g id="ytick_10">
     <g id="line2d_23">
      <g>
       <use style="stroke:#000000;stroke-width:0.6;" x="63" xlink:href="#m99daa4bec3" y="122.791298"/>
      </g>
     </g>
    </g>
    <g id="ytick_11">
     <g id="line2d_24">
      <g>
       <use style="stroke:#000000;stroke-width:0.6;" x="63" xlink:href="#m99daa4bec3" y="111.594298"/>
      </g>
     </g>
    </g>
    <g id="ytick_12">
     <g id="line2d_25">
      <g>
       <use style="stroke:#000000;stroke-width:0.6;" x="63" xlink:href="#m99daa4bec3" y="103.6499"/>
      </g>
     </g>
    </g>
    <g id="ytick_13">
     <g id="line2d_26">
      <g>
       <use style="stroke:#000000;stroke-width:0.6;" x="63" xlink:href="#m99daa4bec3" y="97.487746"/>
      </g>
     </g>
    </g>
    <g id="ytick_14">
     <g id="line2d_27">
      <g>
       <use style="stroke:#000000;stroke-width:0.6;" x="63" xlink:href="#m99daa4bec3" y="92.4529"/>
      </g>
     </g>
    </g>
    <g id="ytick_15">
     <g id="line2d_28">
      <g>
       <use style="stroke:#000000;stroke-width:0.6;" x="63" xlink:href="#m99daa4bec3" y="88.195998"/>
      </g>
     </g>
    </g>
    <g id="ytick_16">
     <g id="line2d_29">
      <g>
       <use style="stroke:#000000;stroke-width:0.6;" x="63" xlink:href="#m99daa4bec3" y="84.508502"/>
      </g>
     </g>
    </g>
    <g id="ytick_17">
     <g id="line2d_30">
      <g>
       <use style="stroke:#000000;stroke-width:0.6;" x="63" xlink:href="#m99daa4bec3" y="81.2559"/>
      </g>
     </g>
    </g>
    <g id="ytick_18">
     <g id="line2d_31">
      <g>
       <use style="stroke:#000000;stroke-width:0.6;" x="63" xlink:href="#m99daa4bec3" y="59.20495"/>
      </g>
     </g>
    </g>
    <g id="ytick_19">
     <g id="line2d_32">
      <g>
       <use style="stroke:#000000;stroke-width:0.6;" x="63" xlink:href="#m99daa4bec3" y="48.00795"/>
      </g>
     </g>
    </g>
    <g id="ytick_20">
     <g id="line2d_33">
      <g>
       <use style="stroke:#000000;stroke-width:0.6;" x="63" xlink:href="#m99daa4bec3" y="40.063552"/>
      </g>
     </g>
    </g>
    <g id="ytick_21">
     <g id="line2d_34">
      <g>
       <use style="stroke:#000000;stroke-width:0.6;" x="63" xlink:href="#m99daa4bec3" y="33.901398"/>
      </g>
     </g>
    </g>
    <g id="ytick_22">
     <g id="line2d_35">
      <g>
       <use style="stroke:#000000;stroke-width:0.6;" x="63" xlink:href="#m99daa4bec3" y="28.866552"/>
      </g>
     </g>
    </g>
    <g id="ytick_23">
     <g id="line2d_36">
      <g>
       <use style="stroke:#000000;stroke-width:0.6;" x="63" xlink:href="#m99daa4bec3" y="24.60965"/>
      </g>
     </g>
    </g>
    <g id="ytick_24">
     <g id="line2d_37">
      <g>
       <use style="stroke:#000000;stroke-width:0.6;" x="63" xlink:href="#m99daa4bec3" y="20.922154"/>
      </g>
     </g>
    </g>
    <g id="ytick_25">
     <g id="line2d_38">
      <g>
       <use style="stroke:#000000;stroke-width:0.6;" x="63" xlink:href="#m99daa4bec3" y="17.669552"/>
      </g>
     </g>
    </g>
    <g id="text_10">
     <!-- Photon flux ($\mathrm{s^{-1}}$) -->
     <defs>
      <path d="M 19.671875 64.796875 
L 19.671875 37.40625 
L 32.078125 37.40625 
Q 38.96875 37.40625 42.71875 40.96875 
Q 46.484375 44.53125 46.484375 51.125 
Q 46.484375 57.671875 42.71875 61.234375 
Q 38.96875 64.796875 32.078125 64.796875 
z
M 9.8125 72.90625 
L 32.078125 72.90625 
Q 44.34375 72.90625 50.609375 67.359375 
Q 56.890625 61.8125 56.890625 51.125 
Q 56.890625 40.328125 50.609375 34.8125 
Q 44.34375 29.296875 32.078125 29.296875 
L 19.671875 29.296875 
L 19.671875 0 
L 9.8125 0 
z
" id="DejaVuSans-80"/>
      <path d="M 54.890625 33.015625 
L 54.890625 0 
L 45.90625 0 
L 45.90625 32.71875 
Q 45.90625 40.484375 42.875 44.328125 
Q 39.84375 48.1875 33.796875 48.1875 
Q 26.515625 48.1875 22.3125 43.546875 
Q 18.109375 38.921875 18.109375 30.90625 
L 18.109375 0 
L 9.078125 0 
L 9.078125 75.984375 
L 18.109375 75.984375 
L 18.109375 46.1875 
Q 21.34375 51.125 25.703125 53.5625 
Q 30.078125 56 35.796875 56 
Q 45.21875 56 50.046875 50.171875 
Q 54.890625 44.34375 54.890625 33.015625 
z
" id="DejaVuSans-104"/>
      <path d="M 37.109375 75.984375 
L 37.109375 68.5 
L 28.515625 68.5 
Q 23.6875 68.5 21.796875 66.546875 
Q 19.921875 64.59375 19.921875 59.515625 
L 19.921875 54.6875 
L 34.71875 54.6875 
L 34.71875 47.703125 
L 19.921875 47.703125 
L 19.921875 0 
L 10.890625 0 
L 10.890625 47.703125 
L 2.296875 47.703125 
L 2.296875 54.6875 
L 10.890625 54.6875 
L 10.890625 58.5 
Q 10.890625 67.625 15.140625 71.796875 
Q 19.390625 75.984375 28.609375 75.984375 
z
" id="DejaVuSans-102"/>
      <path d="M 8.5 21.578125 
L 8.5 54.6875 
L 17.484375 54.6875 
L 17.484375 21.921875 
Q 17.484375 14.15625 20.5 10.265625 
Q 23.53125 6.390625 29.59375 6.390625 
Q 36.859375 6.390625 41.078125 11.03125 
Q 45.3125 15.671875 45.3125 23.6875 
L 45.3125 54.6875 
L 54.296875 54.6875 
L 54.296875 0 
L 45.3125 0 
L 45.3125 8.40625 
Q 42.046875 3.421875 37.71875 1 
Q 33.40625 -1.421875 27.6875 -1.421875 
Q 18.265625 -1.421875 13.375 4.4375 
Q 8.5 10.296875 8.5 21.578125 
z
M 31.109375 56 
z
" id="DejaVuSans-117"/>
      <path d="M 31 75.875 
Q 24.46875 64.65625 21.28125 53.65625 
Q 18.109375 42.671875 18.109375 31.390625 
Q 18.109375 20.125 21.3125 9.0625 
Q 24.515625 -2 31 -13.1875 
L 23.1875 -13.1875 
Q 15.875 -1.703125 12.234375 9.375 
Q 8.59375 20.453125 8.59375 31.390625 
Q 8.59375 42.28125 12.203125 53.3125 
Q 15.828125 64.359375 23.1875 75.875 
z
" id="DejaVuSans-40"/>
      <path d="M 44.28125 53.078125 
L 44.28125 44.578125 
Q 40.484375 46.53125 36.375 47.5 
Q 32.28125 48.484375 27.875 48.484375 
Q 21.1875 48.484375 17.84375 46.4375 
Q 14.5 44.390625 14.5 40.28125 
Q 14.5 37.15625 16.890625 35.375 
Q 19.28125 33.59375 26.515625 31.984375 
L 29.59375 31.296875 
Q 39.15625 29.25 43.1875 25.515625 
Q 47.21875 21.78125 47.21875 15.09375 
Q 47.21875 7.46875 41.1875 3.015625 
Q 35.15625 -1.421875 24.609375 -1.421875 
Q 20.21875 -1.421875 15.453125 -0.5625 
Q 10.6875 0.296875 5.421875 2 
L 5.421875 11.28125 
Q 10.40625 8.6875 15.234375 7.390625 
Q 20.0625 6.109375 24.8125 6.109375 
Q 31.15625 6.109375 34.5625 8.28125 
Q 37.984375 10.453125 37.984375 14.40625 
Q 37.984375 18.0625 35.515625 20.015625 
Q 33.0625 21.96875 24.703125 23.78125 
L 21.578125 24.515625 
Q 13.234375 26.265625 9.515625 29.90625 
Q 5.8125 33.546875 5.8125 39.890625 
Q 5.8125 47.609375 11.28125 51.796875 
Q 16.75 56 26.8125 56 
Q 31.78125 56 36.171875 55.265625 
Q 40.578125 54.546875 44.28125 53.078125 
z
" id="DejaVuSans-115"/>
      <path d="M 8.015625 75.875 
L 15.828125 75.875 
Q 23.140625 64.359375 26.78125 53.3125 
Q 30.421875 42.28125 30.421875 31.390625 
Q 30.421875 20.453125 26.78125 9.375 
Q 23.140625 -1.703125 15.828125 -13.1875 
L 8.015625 -13.1875 
Q 14.5 -2 17.703125 9.0625 
Q 20.90625 20.125 20.90625 31.390625 
Q 20.90625 42.671875 17.703125 53.65625 
Q 14.5 64.65625 8.015625 75.875 
z
" id="DejaVuSans-41"/>
     </defs>
     <g transform="translate(20.5125 157.16)rotate(-90)scale(0.16 -0.16)">
      <use transform="translate(0 0.684375)" xlink:href="#DejaVuSans-80"/>
      <use transform="translate(60.302734 0.684375)" xlink:href="#DejaVuSans-104"/>
      <use transform="translate(123.681641 0.684375)" xlink:href="#DejaVuSans-111"/>
      <use transform="translate(184.863281 0.684375)" xlink:href="#DejaVuSans-116"/>
      <use transform="translate(224.072266 0.684375)" xlink:href="#DejaVuSans-111"/>
      <use transform="translate(285.253906 0.684375)" xlink:href="#DejaVuSans-110"/>
      <use transform="translate(348.632812 0.684375)" xlink:href="#DejaVuSans-32"/>
      <use transform="translate(380.419922 0.684375)" xlink:href="#DejaVuSans-102"/>
      <use transform="translate(415.625 0.684375)" xlink:href="#DejaVuSans-108"/>
      <use transform="translate(443.408203 0.684375)" xlink:href="#DejaVuSans-117"/>
      <use transform="translate(506.787109 0.684375)" xlink:href="#DejaVuSans-120"/>
      <use transform="translate(565.966797 0.684375)" xlink:href="#DejaVuSans-32"/>
      <use transform="translate(597.753906 0.684375)" xlink:href="#DejaVuSans-40"/>
      <use transform="translate(636.767578 0.684375)" xlink:href="#DejaVuSans-115"/>
      <use transform="translate(689.824219 38.965625)scale(0.7)" xlink:href="#DejaVuSans-8722"/>
      <use transform="translate(748.476562 38.965625)scale(0.7)" xlink:href="#DejaVuSans-49"/>
      <use transform="translate(795.74707 0.684375)" xlink:href="#DejaVuSans-41"/>
     </g>
    </g>
   </g>
   <g id="LineCollection_1">
    <path clip-path="url(#p803164dcc6)" d="M 230.4 223.725 
L 230.4 14.76 
" style="fill:none;stroke:#000000;stroke-width:0.8;"/>
   </g>
   <g id="line2d_39">
    <path clip-path="url(#p803164dcc6)" d="M 223.783399 223.725 
L 223.783399 165.96 
" style="fill:none;stroke:#0000ff;stroke-linecap:square;stroke-width:0.8;"/>
   </g>
   <g id="line2d_40">
    <path clip-path="url(#p803164dcc6)" d="M 220.475099 223.725 
L 220.475099 122.691924 
" style="fill:none;stroke:#0000ff;stroke-linecap:square;stroke-width:0.8;"/>
   </g>
   <g id="line2d_41">
    <path clip-path="url(#p803164dcc6)" d="M 217.166798 223.725 
L 217.166798 149.240862 
" style="fill:none;stroke:#0000ff;stroke-linecap:square;stroke-width:0.8;"/>
   </g>
   <g id="line2d_42">
    <path clip-path="url(#p803164dcc6)" d="M 213.858498 223.725 
L 213.858498 133.043299 
" style="fill:none;stroke:#0000ff;stroke-linecap:square;stroke-width:0.8;"/>
   </g>
   <g id="line2d_43">
    <path clip-path="url(#p803164dcc6)" d="M 210.550198 223.725 
L 210.550198 105.694516 
" style="fill:none;stroke:#0000ff;stroke-linecap:square;stroke-width:0.8;"/>
   </g>
   <g id="line2d_44">
    <path clip-path="url(#p803164dcc6)" d="M 207.241897 223.725 
L 207.241897 80.49966 
" style="fill:none;stroke:#0000ff;stroke-linecap:square;stroke-width:0.8;"/>
   </g>
   <g id="line2d_45">
    <path clip-path="url(#p803164dcc6)" d="M 203.933597 223.725 
L 203.933597 70.104963 
" style="fill:none;stroke:#0000ff;stroke-linecap:square;stroke-width:0.8;"/>
   </g>
   <g id="line2d_46">
    <path clip-path="url(#p803164dcc6)" d="M 200.625296 223.725 
L 200.625296 64.293942 
" style="fill:none;stroke:#0000ff;stroke-linecap:square;stroke-width:0.8;"/>
   </g>
   <g id="line2d_47">
    <path clip-path="url(#p803164dcc6)" d="M 197.316996 223.725 
L 197.316996 63.328691 
" style="fill:none;stroke:#0000ff;stroke-linecap:square;stroke-width:0.8;"/>
   </g>
   <g id="line2d_48">
    <path clip-path="url(#p803164dcc6)" d="M 194.008696 223.725 
L 194.008696 63.095921 
" style="fill:none;stroke:#0000ff;stroke-linecap:square;stroke-width:0.8;"/>
   </g>
   <g id="line2d_49">
    <path clip-path="url(#p803164dcc6)" d="M 190.700395 223.725 
L 190.700395 63.000879 
" style="fill:none;stroke:#0000ff;stroke-linecap:square;stroke-width:0.8;"/>
   </g>
   <g id="line2d_50">
    <path clip-path="url(#p803164dcc6)" d="M 187.392095 223.725 
L 187.392095 71.336218 
" style="fill:none;stroke:#0000ff;stroke-linecap:square;stroke-width:0.8;"/>
   </g>
   <g id="line2d_51">
    <path clip-path="url(#p803164dcc6)" d="M 184.083794 223.725 
L 184.083794 65.268556 
" style="fill:none;stroke:#0000ff;stroke-linecap:square;stroke-width:0.8;"/>
   </g>
   <g id="line2d_52">
    <path clip-path="url(#p803164dcc6)" d="M 180.775494 223.725 
L 180.775494 57.604024 
" style="fill:none;stroke:#0000ff;stroke-linecap:square;stroke-width:0.8;"/>
   </g>
   <g id="line2d_53">
    <path clip-path="url(#p803164dcc6)" d="M 177.467194 223.725 
L 177.467194 63.704219 
" style="fill:none;stroke:#0000ff;stroke-linecap:square;stroke-width:0.8;"/>
   </g>
   <g id="line2d_54">
    <path clip-path="url(#p803164dcc6)" d="M 174.158893 223.725 
L 174.158893 62.635358 
" style="fill:none;stroke:#0000ff;stroke-linecap:square;stroke-width:0.8;"/>
   </g>
   <g id="line2d_55">
    <path clip-path="url(#p803164dcc6)" d="M 170.850593 223.725 
L 170.850593 69.742409 
" style="fill:none;stroke:#0000ff;stroke-linecap:square;stroke-width:0.8;"/>
   </g>
   <g id="line2d_56">
    <path clip-path="url(#p803164dcc6)" d="M 167.542292 223.725 
L 167.542292 93.399622 
" style="fill:none;stroke:#0000ff;stroke-linecap:square;stroke-width:0.8;"/>
   </g>
   <g id="line2d_57">
    <path clip-path="url(#p803164dcc6)" d="M 164.233992 223.725 
L 164.233992 105.107683 
" style="fill:none;stroke:#0000ff;stroke-linecap:square;stroke-width:0.8;"/>
   </g>
   <g id="line2d_58">
    <path clip-path="url(#p803164dcc6)" d="M 160.925692 223.725 
L 160.925692 104.806276 
" style="fill:none;stroke:#0000ff;stroke-linecap:square;stroke-width:0.8;"/>
   </g>
   <g id="line2d_59">
    <path clip-path="url(#p803164dcc6)" d="M 157.617391 223.725 
L 157.617391 91.287002 
" style="fill:none;stroke:#0000ff;stroke-linecap:square;stroke-width:0.8;"/>
   </g>
   <g id="line2d_60">
    <path clip-path="url(#p803164dcc6)" d="M 154.309091 223.725 
L 154.309091 82.406646 
" style="fill:none;stroke:#0000ff;stroke-linecap:square;stroke-width:0.8;"/>
   </g>
   <g id="line2d_61">
    <path clip-path="url(#p803164dcc6)" d="M 151.000791 223.725 
L 151.000791 76.603423 
" style="fill:none;stroke:#0000ff;stroke-linecap:square;stroke-width:0.8;"/>
   </g>
   <g id="line2d_62">
    <path clip-path="url(#p803164dcc6)" d="M 147.69249 223.725 
L 147.69249 77.129518 
" style="fill:none;stroke:#0000ff;stroke-linecap:square;stroke-width:0.8;"/>
   </g>
   <g id="line2d_63">
    <path clip-path="url(#p803164dcc6)" d="M 144.38419 223.725 
L 144.38419 80.23268 
" style="fill:none;stroke:#0000ff;stroke-linecap:square;stroke-width:0.8;"/>
   </g>
   <g id="line2d_64">
    <path clip-path="url(#p803164dcc6)" d="M 141.075889 223.725 
L 141.075889 73.255844 
" style="fill:none;stroke:#0000ff;stroke-linecap:square;stroke-width:0.8;"/>
   </g>
   <g id="line2d_65">
    <path clip-path="url(#p803164dcc6)" d="M 137.767589 223.725 
L 137.767589 74.465887 
" style="fill:none;stroke:#0000ff;stroke-linecap:square;stroke-width:0.8;"/>
   </g>
   <g id="line2d_66">
    <path clip-path="url(#p803164dcc6)" d="M 134.459289 223.725 
L 134.459289 77.189012 
" style="fill:none;stroke:#0000ff;stroke-linecap:square;stroke-width:0.8;"/>
   </g>
   <g id="line2d_67">
    <path clip-path="url(#p803164dcc6)" d="M 131.150988 223.725 
L 131.150988 82.480607 
" style="fill:none;stroke:#0000ff;stroke-linecap:square;stroke-width:0.8;"/>
   </g>
   <g id="line2d_68">
    <path clip-path="url(#p803164dcc6)" d="M 127.842688 223.725 
L 127.842688 83.842376 
" style="fill:none;stroke:#0000ff;stroke-linecap:square;stroke-width:0.8;"/>
   </g>
   <g id="line2d_69">
    <path clip-path="url(#p803164dcc6)" d="M 124.534387 223.725 
L 124.534387 84.821178 
" style="fill:none;stroke:#0000ff;stroke-linecap:square;stroke-width:0.8;"/>
   </g>
   <g id="line2d_70">
    <path clip-path="url(#p803164dcc6)" d="M 121.226087 223.725 
L 121.226087 86.75207 
" style="fill:none;stroke:#0000ff;stroke-linecap:square;stroke-width:0.8;"/>
   </g>
   <g id="line2d_71">
    <path clip-path="url(#p803164dcc6)" d="M 117.917787 223.725 
L 117.917787 88.439888 
" style="fill:none;stroke:#0000ff;stroke-linecap:square;stroke-width:0.8;"/>
   </g>
   <g id="line2d_72">
    <path clip-path="url(#p803164dcc6)" d="M 114.609486 223.725 
L 114.609486 84.72384 
" style="fill:none;stroke:#0000ff;stroke-linecap:square;stroke-width:0.8;"/>
   </g>
   <g id="line2d_73">
    <path clip-path="url(#p803164dcc6)" d="M 111.301186 223.725 
L 111.301186 84.639779 
" style="fill:none;stroke:#0000ff;stroke-linecap:square;stroke-width:0.8;"/>
   </g>
   <g id="line2d_74">
    <path clip-path="url(#p803164dcc6)" d="M 107.992885 223.725 
L 107.992885 84.400496 
" style="fill:none;stroke:#0000ff;stroke-linecap:square;stroke-width:0.8;"/>
   </g>
   <g id="line2d_75">
    <path clip-path="url(#p803164dcc6)" d="M 104.684585 223.725 
L 104.684585 88.736595 
" style="fill:none;stroke:#0000ff;stroke-linecap:square;stroke-width:0.8;"/>
   </g>
   <g id="line2d_76">
    <path clip-path="url(#p803164dcc6)" d="M 101.376285 223.725 
L 101.376285 82.501721 
" style="fill:none;stroke:#0000ff;stroke-linecap:square;stroke-width:0.8;"/>
   </g>
   <g id="line2d_77">
    <path clip-path="url(#p803164dcc6)" d="M 98.067984 223.725 
L 98.067984 81.048097 
" style="fill:none;stroke:#0000ff;stroke-linecap:square;stroke-width:0.8;"/>
   </g>
   <g id="line2d_78">
    <path clip-path="url(#p803164dcc6)" d="M 94.759684 223.725 
L 94.759684 81.340747 
" style="fill:none;stroke:#0000ff;stroke-linecap:square;stroke-width:0.8;"/>
   </g>
   <g id="line2d_79">
    <path clip-path="url(#p803164dcc6)" d="M 91.451383 223.725 
L 91.451383 81.623159 
" style="fill:none;stroke:#0000ff;stroke-linecap:square;stroke-width:0.8;"/>
   </g>
   <g id="line2d_80">
    <path clip-path="url(#p803164dcc6)" d="M 88.143083 223.725 
L 88.143083 78.004252 
" style="fill:none;stroke:#0000ff;stroke-linecap:square;stroke-width:0.8;"/>
   </g>
   <g id="line2d_81">
    <path clip-path="url(#p803164dcc6)" d="M 84.834783 223.725 
L 84.834783 81.485506 
" style="fill:none;stroke:#0000ff;stroke-linecap:square;stroke-width:0.8;"/>
   </g>
   <g id="line2d_82">
    <path clip-path="url(#p803164dcc6)" d="M 81.526482 223.725 
L 81.526482 82.49174 
" style="fill:none;stroke:#0000ff;stroke-linecap:square;stroke-width:0.8;"/>
   </g>
   <g id="line2d_83">
    <path clip-path="url(#p803164dcc6)" d="M 78.218182 223.725 
L 78.218182 87.017598 
" style="fill:none;stroke:#0000ff;stroke-linecap:square;stroke-width:0.8;"/>
   </g>
   <g id="line2d_84">
    <defs>
     <path d="M 0 1.5 
C 0.397805 1.5 0.77937 1.341951 1.06066 1.06066 
C 1.341951 0.77937 1.5 0.397805 1.5 0 
C 1.5 -0.397805 1.341951 -0.77937 1.06066 -1.06066 
C 0.77937 -1.341951 0.397805 -1.5 0 -1.5 
C -0.397805 -1.5 -0.77937 -1.341951 -1.06066 -1.06066 
C -1.341951 -0.77937 -1.5 -0.397805 -1.5 0 
C -1.5 0.397805 -1.341951 0.77937 -1.06066 1.06066 
C -0.77937 1.341951 -0.397805 1.5 0 1.5 
z
" id="m9baafb79e8" style="stroke:#0000ff;"/>
    </defs>
    <g clip-path="url(#p803164dcc6)">
     <use style="fill:#0000ff;stroke:#0000ff;" x="223.783399" xlink:href="#m9baafb79e8" y="165.96"/>
     <use style="fill:#0000ff;stroke:#0000ff;" x="220.475099" xlink:href="#m9baafb79e8" y="122.691924"/>
     <use style="fill:#0000ff;stroke:#0000ff;" x="217.166798" xlink:href="#m9baafb79e8" y="149.240862"/>
     <use style="fill:#0000ff;stroke:#0000ff;" x="213.858498" xlink:href="#m9baafb79e8" y="133.043299"/>
     <use style="fill:#0000ff;stroke:#0000ff;" x="210.550198" xlink:href="#m9baafb79e8" y="105.694516"/>
     <use style="fill:#0000ff;stroke:#0000ff;" x="207.241897" xlink:href="#m9baafb79e8" y="80.49966"/>
     <use style="fill:#0000ff;stroke:#0000ff;" x="203.933597" xlink:href="#m9baafb79e8" y="70.104963"/>
     <use style="fill:#0000ff;stroke:#0000ff;" x="200.625296" xlink:href="#m9baafb79e8" y="64.293942"/>
     <use style="fill:#0000ff;stroke:#0000ff;" x="197.316996" xlink:href="#m9baafb79e8" y="63.328691"/>
     <use style="fill:#0000ff;stroke:#0000ff;" x="194.008696" xlink:href="#m9baafb79e8" y="63.095921"/>
     <use style="fill:#0000ff;stroke:#0000ff;" x="190.700395" xlink:href="#m9baafb79e8" y="63.000879"/>
     <use style="fill:#0000ff;stroke:#0000ff;" x="187.392095" xlink:href="#m9baafb79e8" y="71.336218"/>
     <use style="fill:#0000ff;stroke:#0000ff;" x="184.083794" xlink:href="#m9baafb79e8" y="65.268556"/>
     <use style="fill:#0000ff;stroke:#0000ff;" x="180.775494" xlink:href="#m9baafb79e8" y="57.604024"/>
     <use style="fill:#0000ff;stroke:#0000ff;" x="177.467194" xlink:href="#m9baafb79e8" y="63.704219"/>
     <use style="fill:#0000ff;stroke:#0000ff;" x="174.158893" xlink:href="#m9baafb79e8" y="62.635358"/>
     <use style="fill:#0000ff;stroke:#0000ff;" x="170.850593" xlink:href="#m9baafb79e8" y="69.742409"/>
     <use style="fill:#0000ff;stroke:#0000ff;" x="167.542292" xlink:href="#m9baafb79e8" y="93.399622"/>
     <use style="fill:#0000ff;stroke:#0000ff;" x="164.233992" xlink:href="#m9baafb79e8" y="105.107683"/>
     <use style="fill:#0000ff;stroke:#0000ff;" x="160.925692" xlink:href="#m9baafb79e8" y="104.806276"/>
     <use style="fill:#0000ff;stroke:#0000ff;" x="157.617391" xlink:href="#m9baafb79e8" y="91.287002"/>
     <use style="fill:#0000ff;stroke:#0000ff;" x="154.309091" xlink:href="#m9baafb79e8" y="82.406646"/>
     <use style="fill:#0000ff;stroke:#0000ff;" x="151.000791" xlink:href="#m9baafb79e8" y="76.603423"/>
     <use style="fill:#0000ff;stroke:#0000ff;" x="147.69249" xlink:href="#m9baafb79e8" y="77.129518"/>
     <use style="fill:#0000ff;stroke:#0000ff;" x="144.38419" xlink:href="#m9baafb79e8" y="80.23268"/>
     <use style="fill:#0000ff;stroke:#0000ff;" x="141.075889" xlink:href="#m9baafb79e8" y="73.255844"/>
     <use style="fill:#0000ff;stroke:#0000ff;" x="137.767589" xlink:href="#m9baafb79e8" y="74.465887"/>
     <use style="fill:#0000ff;stroke:#0000ff;" x="134.459289" xlink:href="#m9baafb79e8" y="77.189012"/>
     <use style="fill:#0000ff;stroke:#0000ff;" x="131.150988" xlink:href="#m9baafb79e8" y="82.480607"/>
     <use style="fill:#0000ff;stroke:#0000ff;" x="127.842688" xlink:href="#m9baafb79e8" y="83.842376"/>
     <use style="fill:#0000ff;stroke:#0000ff;" x="124.534387" xlink:href="#m9baafb79e8" y="84.821178"/>
     <use style="fill:#0000ff;stroke:#0000ff;" x="121.226087" xlink:href="#m9baafb79e8" y="86.75207"/>
     <use style="fill:#0000ff;stroke:#0000ff;" x="117.917787" xlink:href="#m9baafb79e8" y="88.439888"/>
     <use style="fill:#0000ff;stroke:#0000ff;" x="114.609486" xlink:href="#m9baafb79e8" y="84.72384"/>
     <use style="fill:#0000ff;stroke:#0000ff;" x="111.301186" xlink:href="#m9baafb79e8" y="84.639779"/>
     <use style="fill:#0000ff;stroke:#0000ff;" x="107.992885" xlink:href="#m9baafb79e8" y="84.400496"/>
     <use style="fill:#0000ff;stroke:#0000ff;" x="104.684585" xlink:href="#m9baafb79e8" y="88.736595"/>
     <use style="fill:#0000ff;stroke:#0000ff;" x="101.376285" xlink:href="#m9baafb79e8" y="82.501721"/>
     <use style="fill:#0000ff;stroke:#0000ff;" x="98.067984" xlink:href="#m9baafb79e8" y="81.048097"/>
     <use style="fill:#0000ff;stroke:#0000ff;" x="94.759684" xlink:href="#m9baafb79e8" y="81.340747"/>
     <use style="fill:#0000ff;stroke:#0000ff;" x="91.451383" xlink:href="#m9baafb79e8" y="81.623159"/>
     <use style="fill:#0000ff;stroke:#0000ff;" x="88.143083" xlink:href="#m9baafb79e8" y="78.004252"/>
     <use style="fill:#0000ff;stroke:#0000ff;" x="84.834783" xlink:href="#m9baafb79e8" y="81.485506"/>
     <use style="fill:#0000ff;stroke:#0000ff;" x="81.526482" xlink:href="#m9baafb79e8" y="82.49174"/>
     <use style="fill:#0000ff;stroke:#0000ff;" x="78.218182" xlink:href="#m9baafb79e8" y="87.017598"/>
    </g>
   </g>
   <g id="line2d_85">
    <path clip-path="url(#p803164dcc6)" style="fill:none;stroke:#00bfbf;stroke-linecap:square;stroke-width:0.8;"/>
   </g>
   <g id="line2d_86">
    <path clip-path="url(#p803164dcc6)" d="M 237.016601 223.725 
L 237.016601 78.806698 
" style="fill:none;stroke:#ff0000;stroke-linecap:square;stroke-width:0.8;"/>
   </g>
   <g id="line2d_87">
    <path clip-path="url(#p803164dcc6)" d="M 240.324901 223.725 
L 240.324901 77.667232 
" style="fill:none;stroke:#ff0000;stroke-linecap:square;stroke-width:0.8;"/>
   </g>
   <g id="line2d_88">
    <path clip-path="url(#p803164dcc6)" d="M 243.633202 223.725 
L 243.633202 79.435194 
" style="fill:none;stroke:#ff0000;stroke-linecap:square;stroke-width:0.8;"/>
   </g>
   <g id="line2d_89">
    <path clip-path="url(#p803164dcc6)" d="M 246.941502 223.725 
L 246.941502 72.222462 
" style="fill:none;stroke:#ff0000;stroke-linecap:square;stroke-width:0.8;"/>
   </g>
   <g id="line2d_90">
    <path clip-path="url(#p803164dcc6)" d="M 250.249802 223.725 
L 250.249802 71.420822 
" style="fill:none;stroke:#ff0000;stroke-linecap:square;stroke-width:0.8;"/>
   </g>
   <g id="line2d_91">
    <path clip-path="url(#p803164dcc6)" d="M 253.558103 223.725 
L 253.558103 66.817028 
" style="fill:none;stroke:#ff0000;stroke-linecap:square;stroke-width:0.8;"/>
   </g>
   <g id="line2d_92">
    <path clip-path="url(#p803164dcc6)" d="M 256.866403 223.725 
L 256.866403 61.825841 
" style="fill:none;stroke:#ff0000;stroke-linecap:square;stroke-width:0.8;"/>
   </g>
   <g id="line2d_93">
    <path clip-path="url(#p803164dcc6)" d="M 260.174704 223.725 
L 260.174704 59.357461 
" style="fill:none;stroke:#ff0000;stroke-linecap:square;stroke-width:0.8;"/>
   </g>
   <g id="line2d_94">
    <path clip-path="url(#p803164dcc6)" d="M 263.483004 223.725 
L 263.483004 65.898653 
" style="fill:none;stroke:#ff0000;stroke-linecap:square;stroke-width:0.8;"/>
   </g>
   <g id="line2d_95">
    <path clip-path="url(#p803164dcc6)" d="M 266.791304 223.725 
L 266.791304 59.185681 
" style="fill:none;stroke:#ff0000;stroke-linecap:square;stroke-width:0.8;"/>
   </g>
   <g id="line2d_96">
    <path clip-path="url(#p803164dcc6)" d="M 270.099605 223.725 
L 270.099605 57.529528 
" style="fill:none;stroke:#ff0000;stroke-linecap:square;stroke-width:0.8;"/>
   </g>
   <g id="line2d_97">
    <path clip-path="url(#p803164dcc6)" d="M 273.407905 223.725 
L 273.407905 60.172123 
" style="fill:none;stroke:#ff0000;stroke-linecap:square;stroke-width:0.8;"/>
   </g>
   <g id="line2d_98">
    <path clip-path="url(#p803164dcc6)" d="M 276.716206 223.725 
L 276.716206 55.869174 
" style="fill:none;stroke:#ff0000;stroke-linecap:square;stroke-width:0.8;"/>
   </g>
   <g id="line2d_99">
    <path clip-path="url(#p803164dcc6)" d="M 280.024506 223.725 
L 280.024506 47.370908 
" style="fill:none;stroke:#ff0000;stroke-linecap:square;stroke-width:0.8;"/>
   </g>
   <g id="line2d_100">
    <path clip-path="url(#p803164dcc6)" d="M 283.332806 223.725 
L 283.332806 55.270804 
" style="fill:none;stroke:#ff0000;stroke-linecap:square;stroke-width:0.8;"/>
   </g>
   <g id="line2d_101">
    <path clip-path="url(#p803164dcc6)" d="M 286.641107 223.725 
L 286.641107 49.462346 
" style="fill:none;stroke:#ff0000;stroke-linecap:square;stroke-width:0.8;"/>
   </g>
   <g id="line2d_102">
    <path clip-path="url(#p803164dcc6)" d="M 289.949407 223.725 
L 289.949407 47.873717 
" style="fill:none;stroke:#ff0000;stroke-linecap:square;stroke-width:0.8;"/>
   </g>
   <g id="line2d_103">
    <path clip-path="url(#p803164dcc6)" d="M 293.257708 223.725 
L 293.257708 46.753657 
" style="fill:none;stroke:#ff0000;stroke-linecap:square;stroke-width:0.8;"/>
   </g>
   <g id="line2d_104">
    <path clip-path="url(#p803164dcc6)" d="M 296.566008 223.725 
L 296.566008 55.755011 
" style="fill:none;stroke:#ff0000;stroke-linecap:square;stroke-width:0.8;"/>
   </g>
   <g id="line2d_105">
    <path clip-path="url(#p803164dcc6)" d="M 299.874308 223.725 
L 299.874308 63.601493 
" style="fill:none;stroke:#ff0000;stroke-linecap:square;stroke-width:0.8;"/>
   </g>
   <g id="line2d_106">
    <path clip-path="url(#p803164dcc6)" d="M 303.182609 223.725 
L 303.182609 70.280174 
" style="fill:none;stroke:#ff0000;stroke-linecap:square;stroke-width:0.8;"/>
   </g>
   <g id="line2d_107">
    <path clip-path="url(#p803164dcc6)" d="M 306.490909 223.725 
L 306.490909 66.282021 
" style="fill:none;stroke:#ff0000;stroke-linecap:square;stroke-width:0.8;"/>
   </g>
   <g id="line2d_108">
    <path clip-path="url(#p803164dcc6)" d="M 309.799209 223.725 
L 309.799209 64.348699 
" style="fill:none;stroke:#ff0000;stroke-linecap:square;stroke-width:0.8;"/>
   </g>
   <g id="line2d_109">
    <path clip-path="url(#p803164dcc6)" d="M 313.10751 223.725 
L 313.10751 61.156852 
" style="fill:none;stroke:#ff0000;stroke-linecap:square;stroke-width:0.8;"/>
   </g>
   <g id="line2d_110">
    <path clip-path="url(#p803164dcc6)" d="M 316.41581 223.725 
L 316.41581 58.633065 
" style="fill:none;stroke:#ff0000;stroke-linecap:square;stroke-width:0.8;"/>
   </g>
   <g id="line2d_111">
    <path clip-path="url(#p803164dcc6)" d="M 319.724111 223.725 
L 319.724111 58.801812 
" style="fill:none;stroke:#ff0000;stroke-linecap:square;stroke-width:0.8;"/>
   </g>
   <g id="line2d_112">
    <path clip-path="url(#p803164dcc6)" d="M 323.032411 223.725 
L 323.032411 57.079873 
" style="fill:none;stroke:#ff0000;stroke-linecap:square;stroke-width:0.8;"/>
   </g>
   <g id="line2d_113">
    <path clip-path="url(#p803164dcc6)" d="M 326.340711 223.725 
L 326.340711 62.300795 
" style="fill:none;stroke:#ff0000;stroke-linecap:square;stroke-width:0.8;"/>
   </g>
   <g id="line2d_114">
    <path clip-path="url(#p803164dcc6)" d="M 329.649012 223.725 
L 329.649012 62.946325 
" style="fill:none;stroke:#ff0000;stroke-linecap:square;stroke-width:0.8;"/>
   </g>
   <g id="line2d_115">
    <path clip-path="url(#p803164dcc6)" d="M 332.957312 223.725 
L 332.957312 64.206358 
" style="fill:none;stroke:#ff0000;stroke-linecap:square;stroke-width:0.8;"/>
   </g>
   <g id="line2d_116">
    <path clip-path="url(#p803164dcc6)" d="M 336.265613 223.725 
L 336.265613 65.251414 
" style="fill:none;stroke:#ff0000;stroke-linecap:square;stroke-width:0.8;"/>
   </g>
   <g id="line2d_117">
    <path clip-path="url(#p803164dcc6)" d="M 339.573913 223.725 
L 339.573913 64.336774 
" style="fill:none;stroke:#ff0000;stroke-linecap:square;stroke-width:0.8;"/>
   </g>
   <g id="line2d_118">
    <path clip-path="url(#p803164dcc6)" d="M 342.882213 223.725 
L 342.882213 65.508753 
" style="fill:none;stroke:#ff0000;stroke-linecap:square;stroke-width:0.8;"/>
   </g>
   <g id="line2d_119">
    <path clip-path="url(#p803164dcc6)" d="M 346.190514 223.725 
L 346.190514 66.354443 
" style="fill:none;stroke:#ff0000;stroke-linecap:square;stroke-width:0.8;"/>
   </g>
   <g id="line2d_120">
    <path clip-path="url(#p803164dcc6)" d="M 349.498814 223.725 
L 349.498814 67.902749 
" style="fill:none;stroke:#ff0000;stroke-linecap:square;stroke-width:0.8;"/>
   </g>
   <g id="line2d_121">
    <path clip-path="url(#p803164dcc6)" d="M 352.807115 223.725 
L 352.807115 68.495083 
" style="fill:none;stroke:#ff0000;stroke-linecap:square;stroke-width:0.8;"/>
   </g>
   <g id="line2d_122">
    <path clip-path="url(#p803164dcc6)" d="M 356.115415 223.725 
L 356.115415 70.777113 
" style="fill:none;stroke:#ff0000;stroke-linecap:square;stroke-width:0.8;"/>
   </g>
   <g id="line2d_123">
    <path clip-path="url(#p803164dcc6)" d="M 359.423715 223.725 
L 359.423715 67.481375 
" style="fill:none;stroke:#ff0000;stroke-linecap:square;stroke-width:0.8;"/>
   </g>
   <g id="line2d_124">
    <path clip-path="url(#p803164dcc6)" d="M 362.732016 223.725 
L 362.732016 110.219872 
" style="fill:none;stroke:#ff0000;stroke-linecap:square;stroke-width:0.8;"/>
   </g>
   <g id="line2d_125">
    <path clip-path="url(#p803164dcc6)" d="M 366.040316 223.725 
L 366.040316 105.982082 
" style="fill:none;stroke:#ff0000;stroke-linecap:square;stroke-width:0.8;"/>
   </g>
   <g id="line2d_126">
    <path clip-path="url(#p803164dcc6)" d="M 369.348617 223.725 
L 369.348617 92.894528 
" style="fill:none;stroke:#ff0000;stroke-linecap:square;stroke-width:0.8;"/>
   </g>
   <g id="line2d_127">
    <path clip-path="url(#p803164dcc6)" d="M 372.656917 223.725 
L 372.656917 65.19105 
" style="fill:none;stroke:#ff0000;stroke-linecap:square;stroke-width:0.8;"/>
   </g>
   <g id="line2d_128">
    <path clip-path="url(#p803164dcc6)" d="M 375.965217 223.725 
L 375.965217 64.201708 
" style="fill:none;stroke:#ff0000;stroke-linecap:square;stroke-width:0.8;"/>
   </g>
   <g id="line2d_129">
    <path clip-path="url(#p803164dcc6)" d="M 379.273518 223.725 
L 379.273518 66.898438 
" style="fill:none;stroke:#ff0000;stroke-linecap:square;stroke-width:0.8;"/>
   </g>
   <g id="line2d_130">
    <path clip-path="url(#p803164dcc6)" d="M 382.581818 223.725 
L 382.581818 67.509301 
" style="fill:none;stroke:#ff0000;stroke-linecap:square;stroke-width:0.8;"/>
   </g>
   <g id="line2d_131">
    <defs>
     <path d="M 0 1.5 
C 0.397805 1.5 0.77937 1.341951 1.06066 1.06066 
C 1.341951 0.77937 1.5 0.397805 1.5 0 
C 1.5 -0.397805 1.341951 -0.77937 1.06066 -1.06066 
C 0.77937 -1.341951 0.397805 -1.5 0 -1.5 
C -0.397805 -1.5 -0.77937 -1.341951 -1.06066 -1.06066 
C -1.341951 -0.77937 -1.5 -0.397805 -1.5 0 
C -1.5 0.397805 -1.341951 0.77937 -1.06066 1.06066 
C -0.77937 1.341951 -0.397805 1.5 0 1.5 
z
" id="mb0ec80bf1d" style="stroke:#ff0000;"/>
    </defs>
    <g clip-path="url(#p803164dcc6)">
     <use style="fill:#ff0000;stroke:#ff0000;" x="237.016601" xlink:href="#mb0ec80bf1d" y="78.806698"/>
     <use style="fill:#ff0000;stroke:#ff0000;" x="240.324901" xlink:href="#mb0ec80bf1d" y="77.667232"/>
     <use style="fill:#ff0000;stroke:#ff0000;" x="243.633202" xlink:href="#mb0ec80bf1d" y="79.435194"/>
     <use style="fill:#ff0000;stroke:#ff0000;" x="246.941502" xlink:href="#mb0ec80bf1d" y="72.222462"/>
     <use style="fill:#ff0000;stroke:#ff0000;" x="250.249802" xlink:href="#mb0ec80bf1d" y="71.420822"/>
     <use style="fill:#ff0000;stroke:#ff0000;" x="253.558103" xlink:href="#mb0ec80bf1d" y="66.817028"/>
     <use style="fill:#ff0000;stroke:#ff0000;" x="256.866403" xlink:href="#mb0ec80bf1d" y="61.825841"/>
     <use style="fill:#ff0000;stroke:#ff0000;" x="260.174704" xlink:href="#mb0ec80bf1d" y="59.357461"/>
     <use style="fill:#ff0000;stroke:#ff0000;" x="263.483004" xlink:href="#mb0ec80bf1d" y="65.898653"/>
     <use style="fill:#ff0000;stroke:#ff0000;" x="266.791304" xlink:href="#mb0ec80bf1d" y="59.185681"/>
     <use style="fill:#ff0000;stroke:#ff0000;" x="270.099605" xlink:href="#mb0ec80bf1d" y="57.529528"/>
     <use style="fill:#ff0000;stroke:#ff0000;" x="273.407905" xlink:href="#mb0ec80bf1d" y="60.172123"/>
     <use style="fill:#ff0000;stroke:#ff0000;" x="276.716206" xlink:href="#mb0ec80bf1d" y="55.869174"/>
     <use style="fill:#ff0000;stroke:#ff0000;" x="280.024506" xlink:href="#mb0ec80bf1d" y="47.370908"/>
     <use style="fill:#ff0000;stroke:#ff0000;" x="283.332806" xlink:href="#mb0ec80bf1d" y="55.270804"/>
     <use style="fill:#ff0000;stroke:#ff0000;" x="286.641107" xlink:href="#mb0ec80bf1d" y="49.462346"/>
     <use style="fill:#ff0000;stroke:#ff0000;" x="289.949407" xlink:href="#mb0ec80bf1d" y="47.873717"/>
     <use style="fill:#ff0000;stroke:#ff0000;" x="293.257708" xlink:href="#mb0ec80bf1d" y="46.753657"/>
     <use style="fill:#ff0000;stroke:#ff0000;" x="296.566008" xlink:href="#mb0ec80bf1d" y="55.755011"/>
     <use style="fill:#ff0000;stroke:#ff0000;" x="299.874308" xlink:href="#mb0ec80bf1d" y="63.601493"/>
     <use style="fill:#ff0000;stroke:#ff0000;" x="303.182609" xlink:href="#mb0ec80bf1d" y="70.280174"/>
     <use style="fill:#ff0000;stroke:#ff0000;" x="306.490909" xlink:href="#mb0ec80bf1d" y="66.282021"/>
     <use style="fill:#ff0000;stroke:#ff0000;" x="309.799209" xlink:href="#mb0ec80bf1d" y="64.348699"/>
     <use style="fill:#ff0000;stroke:#ff0000;" x="313.10751" xlink:href="#mb0ec80bf1d" y="61.156852"/>
     <use style="fill:#ff0000;stroke:#ff0000;" x="316.41581" xlink:href="#mb0ec80bf1d" y="58.633065"/>
     <use style="fill:#ff0000;stroke:#ff0000;" x="319.724111" xlink:href="#mb0ec80bf1d" y="58.801812"/>
     <use style="fill:#ff0000;stroke:#ff0000;" x="323.032411" xlink:href="#mb0ec80bf1d" y="57.079873"/>
     <use style="fill:#ff0000;stroke:#ff0000;" x="326.340711" xlink:href="#mb0ec80bf1d" y="62.300795"/>
     <use style="fill:#ff0000;stroke:#ff0000;" x="329.649012" xlink:href="#mb0ec80bf1d" y="62.946325"/>
     <use style="fill:#ff0000;stroke:#ff0000;" x="332.957312" xlink:href="#mb0ec80bf1d" y="64.206358"/>
     <use style="fill:#ff0000;stroke:#ff0000;" x="336.265613" xlink:href="#mb0ec80bf1d" y="65.251414"/>
     <use style="fill:#ff0000;stroke:#ff0000;" x="339.573913" xlink:href="#mb0ec80bf1d" y="64.336774"/>
     <use style="fill:#ff0000;stroke:#ff0000;" x="342.882213" xlink:href="#mb0ec80bf1d" y="65.508753"/>
     <use style="fill:#ff0000;stroke:#ff0000;" x="346.190514" xlink:href="#mb0ec80bf1d" y="66.354443"/>
     <use style="fill:#ff0000;stroke:#ff0000;" x="349.498814" xlink:href="#mb0ec80bf1d" y="67.902749"/>
     <use style="fill:#ff0000;stroke:#ff0000;" x="352.807115" xlink:href="#mb0ec80bf1d" y="68.495083"/>
     <use style="fill:#ff0000;stroke:#ff0000;" x="356.115415" xlink:href="#mb0ec80bf1d" y="70.777113"/>
     <use style="fill:#ff0000;stroke:#ff0000;" x="359.423715" xlink:href="#mb0ec80bf1d" y="67.481375"/>
     <use style="fill:#ff0000;stroke:#ff0000;" x="362.732016" xlink:href="#mb0ec80bf1d" y="110.219872"/>
     <use style="fill:#ff0000;stroke:#ff0000;" x="366.040316" xlink:href="#mb0ec80bf1d" y="105.982082"/>
     <use style="fill:#ff0000;stroke:#ff0000;" x="369.348617" xlink:href="#mb0ec80bf1d" y="92.894528"/>
     <use style="fill:#ff0000;stroke:#ff0000;" x="372.656917" xlink:href="#mb0ec80bf1d" y="65.19105"/>
     <use style="fill:#ff0000;stroke:#ff0000;" x="375.965217" xlink:href="#mb0ec80bf1d" y="64.201708"/>
     <use style="fill:#ff0000;stroke:#ff0000;" x="379.273518" xlink:href="#mb0ec80bf1d" y="66.898438"/>
     <use style="fill:#ff0000;stroke:#ff0000;" x="382.581818" xlink:href="#mb0ec80bf1d" y="67.509301"/>
    </g>
   </g>
   <g id="line2d_132">
    <path clip-path="url(#p803164dcc6)" style="fill:none;stroke:#00bfbf;stroke-linecap:square;stroke-width:0.8;"/>
   </g>
   <g id="patch_3">
    <path d="M 63 173.52 
L 63 7.2 
" style="fill:none;stroke:#000000;stroke-linecap:square;stroke-linejoin:miter;stroke-width:0.8;"/>
   </g>
   <g id="patch_4">
    <path d="M 397.8 173.52 
L 397.8 7.2 
" style="fill:none;stroke:#000000;stroke-linecap:square;stroke-linejoin:miter;stroke-width:0.8;"/>
   </g>
   <g id="patch_5">
    <path d="M 63 173.52 
L 397.8 173.52 
" style="fill:none;stroke:#000000;stroke-linecap:square;stroke-linejoin:miter;stroke-width:0.8;"/>
   </g>
   <g id="patch_6">
    <path d="M 63 7.2 
L 397.8 7.2 
" style="fill:none;stroke:#000000;stroke-linecap:square;stroke-linejoin:miter;stroke-width:0.8;"/>
   </g>
   <g id="legend_1">
    <g id="patch_7">
     <path d="M 157.253268 32.38179 
L 303.546733 32.38179 
Q 305.767533 32.38179 305.767533 30.16099 
L 305.767533 14.9728 
Q 305.767533 12.752 303.546733 12.752 
L 157.253268 12.752 
Q 155.032468 12.752 155.032468 14.9728 
L 155.032468 30.16099 
Q 155.032468 32.38179 157.253268 32.38179 
z
" style="fill:#ffffff;stroke:#000000;stroke-linejoin:miter;"/>
    </g>
    <g id="line2d_133">
     <path d="M 170.578068 25.630905 
L 170.578068 20.287105 
" style="fill:none;stroke:#0000ff;stroke-linecap:square;stroke-width:0.8;"/>
    </g>
    <g id="line2d_134">
     <path d="M 159.474068 25.630905 
L 181.682068 25.630905 
" style="fill:none;stroke:#00bfbf;stroke-linecap:square;stroke-width:0.8;"/>
    </g>
    <g id="line2d_135">
     <g>
      <use style="fill:#0000ff;stroke:#0000ff;" x="170.578068" xlink:href="#m9baafb79e8" y="20.287105"/>
     </g>
    </g>
    <g id="text_11">
     <!-- idler -->
     <defs>
      <path d="M 41.109375 46.296875 
Q 39.59375 47.171875 37.8125 47.578125 
Q 36.03125 48 33.890625 48 
Q 26.265625 48 22.1875 43.046875 
Q 18.109375 38.09375 18.109375 28.8125 
L 18.109375 0 
L 9.078125 0 
L 9.078125 54.6875 
L 18.109375 54.6875 
L 18.109375 46.1875 
Q 20.953125 51.171875 25.484375 53.578125 
Q 30.03125 56 36.53125 56 
Q 37.453125 56 38.578125 55.875 
Q 39.703125 55.765625 41.0625 55.515625 
z
" id="DejaVuSans-114"/>
     </defs>
     <g transform="translate(190.565268 25.630905)scale(0.11104 -0.11104)">
      <use xlink:href="#DejaVuSans-105"/>
      <use x="27.783203" xlink:href="#DejaVuSans-100"/>
      <use x="91.259766" xlink:href="#DejaVuSans-108"/>
      <use x="119.042969" xlink:href="#DejaVuSans-101"/>
      <use x="180.566406" xlink:href="#DejaVuSans-114"/>
     </g>
    </g>
    <g id="line2d_136">
     <path d="M 248.493448 25.630905 
L 248.493448 20.287105 
" style="fill:none;stroke:#ff0000;stroke-linecap:square;stroke-width:0.8;"/>
    </g>
    <g id="line2d_137">
     <path d="M 237.389448 25.630905 
L 259.597448 25.630905 
" style="fill:none;stroke:#00bfbf;stroke-linecap:square;stroke-width:0.8;"/>
    </g>
    <g id="line2d_138">
     <g>
      <use style="fill:#ff0000;stroke:#ff0000;" x="248.493448" xlink:href="#mb0ec80bf1d" y="20.287105"/>
     </g>
    </g>
    <g id="text_12">
     <!-- signal -->
     <defs>
      <path d="M 45.40625 27.984375 
Q 45.40625 37.75 41.375 43.109375 
Q 37.359375 48.484375 30.078125 48.484375 
Q 22.859375 48.484375 18.828125 43.109375 
Q 14.796875 37.75 14.796875 27.984375 
Q 14.796875 18.265625 18.828125 12.890625 
Q 22.859375 7.515625 30.078125 7.515625 
Q 37.359375 7.515625 41.375 12.890625 
Q 45.40625 18.265625 45.40625 27.984375 
z
M 54.390625 6.78125 
Q 54.390625 -7.171875 48.1875 -13.984375 
Q 42 -20.796875 29.203125 -20.796875 
Q 24.46875 -20.796875 20.265625 -20.09375 
Q 16.0625 -19.390625 12.109375 -17.921875 
L 12.109375 -9.1875 
Q 16.0625 -11.328125 19.921875 -12.34375 
Q 23.78125 -13.375 27.78125 -13.375 
Q 36.625 -13.375 41.015625 -8.765625 
Q 45.40625 -4.15625 45.40625 5.171875 
L 45.40625 9.625 
Q 42.625 4.78125 38.28125 2.390625 
Q 33.9375 0 27.875 0 
Q 17.828125 0 11.671875 7.65625 
Q 5.515625 15.328125 5.515625 27.984375 
Q 5.515625 40.671875 11.671875 48.328125 
Q 17.828125 56 27.875 56 
Q 33.9375 56 38.28125 53.609375 
Q 42.625 51.21875 45.40625 46.390625 
L 45.40625 54.6875 
L 54.390625 54.6875 
z
" id="DejaVuSans-103"/>
     </defs>
     <g transform="translate(268.480648 25.630905)scale(0.11104 -0.11104)">
      <use xlink:href="#DejaVuSans-115"/>
      <use x="52.099609" xlink:href="#DejaVuSans-105"/>
      <use x="79.882812" xlink:href="#DejaVuSans-103"/>
      <use x="143.359375" xlink:href="#DejaVuSans-110"/>
      <use x="206.738281" xlink:href="#DejaVuSans-97"/>
      <use x="268.017578" xlink:href="#DejaVuSans-108"/>
     </g>
    </g>
   </g>
  </g>
 </g>
 <defs>
  <clipPath id="p803164dcc6">
   <rect height="166.32" width="334.8" x="63" y="7.2"/>
  </clipPath>
 </defs>
</svg>
