<?xml version="1.0" encoding="utf-8" standalone="no"?>
<!DOCTYPE svg PUBLIC "-//W3C//DTD SVG 1.1//EN"
  "http://www.w3.org/Graphics/SVG/1.1/DTD/svg11.dtd">
<!-- Created with matplotlib (https://matplotlib.org/) -->
<svg height="389.01pt" version="1.1" viewBox="0 0 533.09 389.01" width="533.09pt" xmlns="http://www.w3.org/2000/svg" xmlns:xlink="http://www.w3.org/1999/xlink">
 <defs>
  <style type="text/css">
*{stroke-linecap:butt;stroke-linejoin:round;white-space:pre;}
  </style>
 </defs>
 <g id="figure_1">
  <g id="patch_1">
   <path d="M 0 389.01 
L 533.09 389.01 
L 533.09 0 
L 0 0 
z
" style="fill:none;"/>
  </g>
  <g id="axes_1">
   <g id="patch_2">
    <path d="M 79.49 173.52 
L 525.89 173.52 
L 525.89 7.2 
L 79.49 7.2 
z
" style="fill:none;"/>
   </g>
   <g id="PathCollection_1">
    <defs>
     <path d="M 0 3 
C 0.795609 3 1.55874 2.683901 2.12132 2.12132 
C 2.683901 1.55874 3 0.795609 3 0 
C 3 -0.795609 2.683901 -1.55874 2.12132 -2.12132 
C 1.55874 -2.683901 0.795609 -3 0 -3 
C -0.795609 -3 -1.55874 -2.683901 -2.12132 -2.12132 
C -2.683901 -1.55874 -3 -0.795609 -3 0 
C -3 0.795609 -2.683901 1.55874 -2.12132 2.12132 
C -1.55874 2.683901 -0.795609 3 0 3 
z
" id="m0cb782ccb2" style="stroke:#ff0000;"/>
    </defs>
    <g clip-path="url(#p385a46202d)">
     <use style="fill:#ff0000;stroke:#ff0000;" x="404.439186" xlink:href="#m0cb782ccb2" y="129.278237"/>
    </g>
   </g>
   <g id="matplotlib.axis_1">
    <g id="xtick_1">
     <g id="line2d_1">
      <path clip-path="url(#p385a46202d)" d="M 158.866151 173.52 
L 158.866151 7.2 
" style="fill:none;stroke:#b0b0b0;stroke-dasharray:0.8,1.32;stroke-dashoffset:0;stroke-width:0.8;"/>
     </g>
     <g id="line2d_2">
      <defs>
       <path d="M 0 0 
L 0 3.5 
" id="meb14d18a15" style="stroke:#000000;stroke-width:0.8;"/>
      </defs>
      <g>
       <use style="stroke:#000000;stroke-width:0.8;" x="158.866151" xlink:href="#meb14d18a15" y="173.52"/>
      </g>
     </g>
    </g>
    <g id="xtick_2">
     <g id="line2d_3">
      <path clip-path="url(#p385a46202d)" d="M 257.079651 173.52 
L 257.079651 7.2 
" style="fill:none;stroke:#b0b0b0;stroke-dasharray:0.8,1.32;stroke-dashoffset:0;stroke-width:0.8;"/>
     </g>
     <g id="line2d_4">
      <g>
       <use style="stroke:#000000;stroke-width:0.8;" x="257.079651" xlink:href="#meb14d18a15" y="173.52"/>
      </g>
     </g>
    </g>
    <g id="xtick_3">
     <g id="line2d_5">
      <path clip-path="url(#p385a46202d)" d="M 355.293151 173.52 
L 355.293151 7.2 
" style="fill:none;stroke:#b0b0b0;stroke-dasharray:0.8,1.32;stroke-dashoffset:0;stroke-width:0.8;"/>
     </g>
     <g id="line2d_6">
      <g>
       <use style="stroke:#000000;stroke-width:0.8;" x="355.293151" xlink:href="#meb14d18a15" y="173.52"/>
      </g>
     </g>
    </g>
    <g id="xtick_4">
     <g id="line2d_7">
      <path clip-path="url(#p385a46202d)" d="M 453.506651 173.52 
L 453.506651 7.2 
" style="fill:none;stroke:#b0b0b0;stroke-dasharray:0.8,1.32;stroke-dashoffset:0;stroke-width:0.8;"/>
     </g>
     <g id="line2d_8">
      <g>
       <use style="stroke:#000000;stroke-width:0.8;" x="453.506651" xlink:href="#meb14d18a15" y="173.52"/>
      </g>
     </g>
    </g>
   </g>
   <g id="matplotlib.axis_2">
    <g id="ytick_1">
     <g id="line2d_9">
      <path clip-path="url(#p385a46202d)" d="M 79.49 145.582567 
L 525.89 145.582567 
" style="fill:none;stroke:#b0b0b0;stroke-dasharray:0.8,1.32;stroke-dashoffset:0;stroke-width:0.8;"/>
     </g>
     <g id="line2d_10">
      <defs>
       <path d="M 0 0 
L -3.5 0 
" id="m0f7fbd2083" style="stroke:#000000;stroke-width:0.8;"/>
      </defs>
      <g>
       <use style="stroke:#000000;stroke-width:0.8;" x="79.49" xlink:href="#m0f7fbd2083" y="145.582567"/>
      </g>
     </g>
     <g id="text_1">
      <!-- 1.995 -->
      <defs>
       <path d="M 12.40625 8.296875 
L 28.515625 8.296875 
L 28.515625 63.921875 
L 10.984375 60.40625 
L 10.984375 69.390625 
L 28.421875 72.90625 
L 38.28125 72.90625 
L 38.28125 8.296875 
L 54.390625 8.296875 
L 54.390625 0 
L 12.40625 0 
z
" id="DejaVuSans-49"/>
       <path d="M 10.6875 12.40625 
L 21 12.40625 
L 21 0 
L 10.6875 0 
z
" id="DejaVuSans-46"/>
       <path d="M 10.984375 1.515625 
L 10.984375 10.5 
Q 14.703125 8.734375 18.5 7.8125 
Q 22.3125 6.890625 25.984375 6.890625 
Q 35.75 6.890625 40.890625 13.453125 
Q 46.046875 20.015625 46.78125 33.40625 
Q 43.953125 29.203125 39.59375 26.953125 
Q 35.25 24.703125 29.984375 24.703125 
Q 19.046875 24.703125 12.671875 31.3125 
Q 6.296875 37.9375 6.296875 49.421875 
Q 6.296875 60.640625 12.9375 67.421875 
Q 19.578125 74.21875 30.609375 74.21875 
Q 43.265625 74.21875 49.921875 64.515625 
Q 56.59375 54.828125 56.59375 36.375 
Q 56.59375 19.140625 48.40625 8.859375 
Q 40.234375 -1.421875 26.421875 -1.421875 
Q 22.703125 -1.421875 18.890625 -0.6875 
Q 15.09375 0.046875 10.984375 1.515625 
z
M 30.609375 32.421875 
Q 37.25 32.421875 41.125 36.953125 
Q 45.015625 41.5 45.015625 49.421875 
Q 45.015625 57.28125 41.125 61.84375 
Q 37.25 66.40625 30.609375 66.40625 
Q 23.96875 66.40625 20.09375 61.84375 
Q 16.21875 57.28125 16.21875 49.421875 
Q 16.21875 41.5 20.09375 36.953125 
Q 23.96875 32.421875 30.609375 32.421875 
z
" id="DejaVuSans-57"/>
       <path d="M 10.796875 72.90625 
L 49.515625 72.90625 
L 49.515625 64.59375 
L 19.828125 64.59375 
L 19.828125 46.734375 
Q 21.96875 47.46875 24.109375 47.828125 
Q 26.265625 48.1875 28.421875 48.1875 
Q 40.625 48.1875 47.75 41.5 
Q 54.890625 34.8125 54.890625 23.390625 
Q 54.890625 11.625 47.5625 5.09375 
Q 40.234375 -1.421875 26.90625 -1.421875 
Q 22.3125 -1.421875 17.546875 -0.640625 
Q 12.796875 0.140625 7.71875 1.703125 
L 7.71875 11.625 
Q 12.109375 9.234375 16.796875 8.0625 
Q 21.484375 6.890625 26.703125 6.890625 
Q 35.15625 6.890625 40.078125 11.328125 
Q 45.015625 15.765625 45.015625 23.390625 
Q 45.015625 31 40.078125 35.4375 
Q 35.15625 39.890625 26.703125 39.890625 
Q 22.75 39.890625 18.8125 39.015625 
Q 14.890625 38.140625 10.796875 36.28125 
z
" id="DejaVuSans-53"/>
      </defs>
      <g transform="translate(26.685 151.661317)scale(0.16 -0.16)">
       <use xlink:href="#DejaVuSans-49"/>
       <use x="63.623047" xlink:href="#DejaVuSans-46"/>
       <use x="95.410156" xlink:href="#DejaVuSans-57"/>
       <use x="159.033203" xlink:href="#DejaVuSans-57"/>
       <use x="222.65625" xlink:href="#DejaVuSans-53"/>
      </g>
     </g>
    </g>
    <g id="ytick_2">
     <g id="line2d_11">
      <path clip-path="url(#p385a46202d)" d="M 79.49 81.824764 
L 525.89 81.824764 
" style="fill:none;stroke:#b0b0b0;stroke-dasharray:0.8,1.32;stroke-dashoffset:0;stroke-width:0.8;"/>
     </g>
     <g id="line2d_12">
      <g>
       <use style="stroke:#000000;stroke-width:0.8;" x="79.49" xlink:href="#m0f7fbd2083" y="81.824764"/>
      </g>
     </g>
     <g id="text_2">
      <!-- 2.000 -->
      <defs>
       <path d="M 19.1875 8.296875 
L 53.609375 8.296875 
L 53.609375 0 
L 7.328125 0 
L 7.328125 8.296875 
Q 12.9375 14.109375 22.625 23.890625 
Q 32.328125 33.6875 34.8125 36.53125 
Q 39.546875 41.84375 41.421875 45.53125 
Q 43.3125 49.21875 43.3125 52.78125 
Q 43.3125 58.59375 39.234375 62.25 
Q 35.15625 65.921875 28.609375 65.921875 
Q 23.96875 65.921875 18.8125 64.3125 
Q 13.671875 62.703125 7.8125 59.421875 
L 7.8125 69.390625 
Q 13.765625 71.78125 18.9375 73 
Q 24.125 74.21875 28.421875 74.21875 
Q 39.75 74.21875 46.484375 68.546875 
Q 53.21875 62.890625 53.21875 53.421875 
Q 53.21875 48.921875 51.53125 44.890625 
Q 49.859375 40.875 45.40625 35.40625 
Q 44.1875 33.984375 37.640625 27.21875 
Q 31.109375 20.453125 19.1875 8.296875 
z
" id="DejaVuSans-50"/>
       <path d="M 31.78125 66.40625 
Q 24.171875 66.40625 20.328125 58.90625 
Q 16.5 51.421875 16.5 36.375 
Q 16.5 21.390625 20.328125 13.890625 
Q 24.171875 6.390625 31.78125 6.390625 
Q 39.453125 6.390625 43.28125 13.890625 
Q 47.125 21.390625 47.125 36.375 
Q 47.125 51.421875 43.28125 58.90625 
Q 39.453125 66.40625 31.78125 66.40625 
z
M 31.78125 74.21875 
Q 44.046875 74.21875 50.515625 64.515625 
Q 56.984375 54.828125 56.984375 36.375 
Q 56.984375 17.96875 50.515625 8.265625 
Q 44.046875 -1.421875 31.78125 -1.421875 
Q 19.53125 -1.421875 13.0625 8.265625 
Q 6.59375 17.96875 6.59375 36.375 
Q 6.59375 54.828125 13.0625 64.515625 
Q 19.53125 74.21875 31.78125 74.21875 
z
" id="DejaVuSans-48"/>
      </defs>
      <g transform="translate(26.685 87.903514)scale(0.16 -0.16)">
       <use xlink:href="#DejaVuSans-50"/>
       <use x="63.623047" xlink:href="#DejaVuSans-46"/>
       <use x="95.410156" xlink:href="#DejaVuSans-48"/>
       <use x="159.033203" xlink:href="#DejaVuSans-48"/>
       <use x="222.65625" xlink:href="#DejaVuSans-48"/>
      </g>
     </g>
    </g>
    <g id="ytick_3">
     <g id="line2d_13">
      <path clip-path="url(#p385a46202d)" d="M 79.49 18.066961 
L 525.89 18.066961 
" style="fill:none;stroke:#b0b0b0;stroke-dasharray:0.8,1.32;stroke-dashoffset:0;stroke-width:0.8;"/>
     </g>
     <g id="line2d_14">
      <g>
       <use style="stroke:#000000;stroke-width:0.8;" x="79.49" xlink:href="#m0f7fbd2083" y="18.066961"/>
      </g>
     </g>
     <g id="text_3">
      <!-- 2.005 -->
      <g transform="translate(26.685 24.145711)scale(0.16 -0.16)">
       <use xlink:href="#DejaVuSans-50"/>
       <use x="63.623047" xlink:href="#DejaVuSans-46"/>
       <use x="95.410156" xlink:href="#DejaVuSans-48"/>
       <use x="159.033203" xlink:href="#DejaVuSans-48"/>
       <use x="222.65625" xlink:href="#DejaVuSans-53"/>
      </g>
     </g>
    </g>
    <g id="text_4">
     <!-- refractive index -->
     <defs>
      <path d="M 41.109375 46.296875 
Q 39.59375 47.171875 37.8125 47.578125 
Q 36.03125 48 33.890625 48 
Q 26.265625 48 22.1875 43.046875 
Q 18.109375 38.09375 18.109375 28.8125 
L 18.109375 0 
L 9.078125 0 
L 9.078125 54.6875 
L 18.109375 54.6875 
L 18.109375 46.1875 
Q 20.953125 51.171875 25.484375 53.578125 
Q 30.03125 56 36.53125 56 
Q 37.453125 56 38.578125 55.875 
Q 39.703125 55.765625 41.0625 55.515625 
z
" id="DejaVuSans-114"/>
      <path d="M 56.203125 29.59375 
L 56.203125 25.203125 
L 14.890625 25.203125 
Q 15.484375 15.921875 20.484375 11.0625 
Q 25.484375 6.203125 34.421875 6.203125 
Q 39.59375 6.203125 44.453125 7.46875 
Q 49.3125 8.734375 54.109375 11.28125 
L 54.109375 2.78125 
Q 49.265625 0.734375 44.1875 -0.34375 
Q 39.109375 -1.421875 33.890625 -1.421875 
Q 20.796875 -1.421875 13.15625 6.1875 
Q 5.515625 13.8125 5.515625 26.8125 
Q 5.515625 40.234375 12.765625 48.109375 
Q 20.015625 56 32.328125 56 
Q 43.359375 56 49.78125 48.890625 
Q 56.203125 41.796875 56.203125 29.59375 
z
M 47.21875 32.234375 
Q 47.125 39.59375 43.09375 43.984375 
Q 39.0625 48.390625 32.421875 48.390625 
Q 24.90625 48.390625 20.390625 44.140625 
Q 15.875 39.890625 15.1875 32.171875 
z
" id="DejaVuSans-101"/>
      <path d="M 37.109375 75.984375 
L 37.109375 68.5 
L 28.515625 68.5 
Q 23.6875 68.5 21.796875 66.546875 
Q 19.921875 64.59375 19.921875 59.515625 
L 19.921875 54.6875 
L 34.71875 54.6875 
L 34.71875 47.703125 
L 19.921875 47.703125 
L 19.921875 0 
L 10.890625 0 
L 10.890625 47.703125 
L 2.296875 47.703125 
L 2.296875 54.6875 
L 10.890625 54.6875 
L 10.890625 58.5 
Q 10.890625 67.625 15.140625 71.796875 
Q 19.390625 75.984375 28.609375 75.984375 
z
" id="DejaVuSans-102"/>
      <path d="M 34.28125 27.484375 
Q 23.390625 27.484375 19.1875 25 
Q 14.984375 22.515625 14.984375 16.5 
Q 14.984375 11.71875 18.140625 8.90625 
Q 21.296875 6.109375 26.703125 6.109375 
Q 34.1875 6.109375 38.703125 11.40625 
Q 43.21875 16.703125 43.21875 25.484375 
L 43.21875 27.484375 
z
M 52.203125 31.203125 
L 52.203125 0 
L 43.21875 0 
L 43.21875 8.296875 
Q 40.140625 3.328125 35.546875 0.953125 
Q 30.953125 -1.421875 24.3125 -1.421875 
Q 15.921875 -1.421875 10.953125 3.296875 
Q 6 8.015625 6 15.921875 
Q 6 25.140625 12.171875 29.828125 
Q 18.359375 34.515625 30.609375 34.515625 
L 43.21875 34.515625 
L 43.21875 35.40625 
Q 43.21875 41.609375 39.140625 45 
Q 35.0625 48.390625 27.6875 48.390625 
Q 23 48.390625 18.546875 47.265625 
Q 14.109375 46.140625 10.015625 43.890625 
L 10.015625 52.203125 
Q 14.9375 54.109375 19.578125 55.046875 
Q 24.21875 56 28.609375 56 
Q 40.484375 56 46.34375 49.84375 
Q 52.203125 43.703125 52.203125 31.203125 
z
" id="DejaVuSans-97"/>
      <path d="M 48.78125 52.59375 
L 48.78125 44.1875 
Q 44.96875 46.296875 41.140625 47.34375 
Q 37.3125 48.390625 33.40625 48.390625 
Q 24.65625 48.390625 19.8125 42.84375 
Q 14.984375 37.3125 14.984375 27.296875 
Q 14.984375 17.28125 19.8125 11.734375 
Q 24.65625 6.203125 33.40625 6.203125 
Q 37.3125 6.203125 41.140625 7.25 
Q 44.96875 8.296875 48.78125 10.40625 
L 48.78125 2.09375 
Q 45.015625 0.34375 40.984375 -0.53125 
Q 36.96875 -1.421875 32.421875 -1.421875 
Q 20.0625 -1.421875 12.78125 6.34375 
Q 5.515625 14.109375 5.515625 27.296875 
Q 5.515625 40.671875 12.859375 48.328125 
Q 20.21875 56 33.015625 56 
Q 37.15625 56 41.109375 55.140625 
Q 45.0625 54.296875 48.78125 52.59375 
z
" id="DejaVuSans-99"/>
      <path d="M 18.3125 70.21875 
L 18.3125 54.6875 
L 36.8125 54.6875 
L 36.8125 47.703125 
L 18.3125 47.703125 
L 18.3125 18.015625 
Q 18.3125 11.328125 20.140625 9.421875 
Q 21.96875 7.515625 27.59375 7.515625 
L 36.8125 7.515625 
L 36.8125 0 
L 27.59375 0 
Q 17.1875 0 13.234375 3.875 
Q 9.28125 7.765625 9.28125 18.015625 
L 9.28125 47.703125 
L 2.6875 47.703125 
L 2.6875 54.6875 
L 9.28125 54.6875 
L 9.28125 70.21875 
z
" id="DejaVuSans-116"/>
      <path d="M 9.421875 54.6875 
L 18.40625 54.6875 
L 18.40625 0 
L 9.421875 0 
z
M 9.421875 75.984375 
L 18.40625 75.984375 
L 18.40625 64.59375 
L 9.421875 64.59375 
z
" id="DejaVuSans-105"/>
      <path d="M 2.984375 54.6875 
L 12.5 54.6875 
L 29.59375 8.796875 
L 46.6875 54.6875 
L 56.203125 54.6875 
L 35.6875 0 
L 23.484375 0 
z
" id="DejaVuSans-118"/>
      <path id="DejaVuSans-32"/>
      <path d="M 54.890625 33.015625 
L 54.890625 0 
L 45.90625 0 
L 45.90625 32.71875 
Q 45.90625 40.484375 42.875 44.328125 
Q 39.84375 48.1875 33.796875 48.1875 
Q 26.515625 48.1875 22.3125 43.546875 
Q 18.109375 38.921875 18.109375 30.90625 
L 18.109375 0 
L 9.078125 0 
L 9.078125 54.6875 
L 18.109375 54.6875 
L 18.109375 46.1875 
Q 21.34375 51.125 25.703125 53.5625 
Q 30.078125 56 35.796875 56 
Q 45.21875 56 50.046875 50.171875 
Q 54.890625 44.34375 54.890625 33.015625 
z
" id="DejaVuSans-110"/>
      <path d="M 45.40625 46.390625 
L 45.40625 75.984375 
L 54.390625 75.984375 
L 54.390625 0 
L 45.40625 0 
L 45.40625 8.203125 
Q 42.578125 3.328125 38.25 0.953125 
Q 33.9375 -1.421875 27.875 -1.421875 
Q 17.96875 -1.421875 11.734375 6.484375 
Q 5.515625 14.40625 5.515625 27.296875 
Q 5.515625 40.1875 11.734375 48.09375 
Q 17.96875 56 27.875 56 
Q 33.9375 56 38.25 53.625 
Q 42.578125 51.265625 45.40625 46.390625 
z
M 14.796875 27.296875 
Q 14.796875 17.390625 18.875 11.75 
Q 22.953125 6.109375 30.078125 6.109375 
Q 37.203125 6.109375 41.296875 11.75 
Q 45.40625 17.390625 45.40625 27.296875 
Q 45.40625 37.203125 41.296875 42.84375 
Q 37.203125 48.484375 30.078125 48.484375 
Q 22.953125 48.484375 18.875 42.84375 
Q 14.796875 37.203125 14.796875 27.296875 
z
" id="DejaVuSans-100"/>
      <path d="M 54.890625 54.6875 
L 35.109375 28.078125 
L 55.90625 0 
L 45.3125 0 
L 29.390625 21.484375 
L 13.484375 0 
L 2.875 0 
L 24.125 28.609375 
L 4.6875 54.6875 
L 15.28125 54.6875 
L 29.78125 35.203125 
L 44.28125 54.6875 
z
" id="DejaVuSans-120"/>
     </defs>
     <g transform="translate(19.3575 153.56125)rotate(-90)scale(0.16 -0.16)">
      <use xlink:href="#DejaVuSans-114"/>
      <use x="41.082031" xlink:href="#DejaVuSans-101"/>
      <use x="102.605469" xlink:href="#DejaVuSans-102"/>
      <use x="137.810547" xlink:href="#DejaVuSans-114"/>
      <use x="178.923828" xlink:href="#DejaVuSans-97"/>
      <use x="240.203125" xlink:href="#DejaVuSans-99"/>
      <use x="295.183594" xlink:href="#DejaVuSans-116"/>
      <use x="334.392578" xlink:href="#DejaVuSans-105"/>
      <use x="362.175781" xlink:href="#DejaVuSans-118"/>
      <use x="421.355469" xlink:href="#DejaVuSans-101"/>
      <use x="482.878906" xlink:href="#DejaVuSans-32"/>
      <use x="514.666016" xlink:href="#DejaVuSans-105"/>
      <use x="542.449219" xlink:href="#DejaVuSans-110"/>
      <use x="605.828125" xlink:href="#DejaVuSans-100"/>
      <use x="669.304688" xlink:href="#DejaVuSans-101"/>
      <use x="730.8125" xlink:href="#DejaVuSans-120"/>
     </g>
    </g>
   </g>
   <g id="line2d_15">
    <path clip-path="url(#p385a46202d)" d="M 99.780909 14.76 
L 128.655678 26.285757 
L 159.887571 38.509221 
L 194.065869 51.643047 
L 232.074494 66.006076 
L 275.484861 82.166888 
L 327.538015 101.299038 
L 398.251735 127.034069 
L 505.599091 165.96 
L 505.599091 165.96 
" style="fill:none;stroke:#ff0000;stroke-linecap:square;stroke-width:0.8;"/>
   </g>
   <g id="patch_3">
    <path d="M 79.49 173.52 
L 79.49 7.2 
" style="fill:none;stroke:#000000;stroke-linecap:square;stroke-linejoin:miter;stroke-width:0.8;"/>
   </g>
   <g id="patch_4">
    <path d="M 525.89 173.52 
L 525.89 7.2 
" style="fill:none;stroke:#000000;stroke-linecap:square;stroke-linejoin:miter;stroke-width:0.8;"/>
   </g>
   <g id="patch_5">
    <path d="M 79.49 173.52 
L 525.89 173.52 
" style="fill:none;stroke:#000000;stroke-linecap:square;stroke-linejoin:miter;stroke-width:0.8;"/>
   </g>
   <g id="patch_6">
    <path d="M 79.49 7.2 
L 525.89 7.2 
" style="fill:none;stroke:#000000;stroke-linecap:square;stroke-linejoin:miter;stroke-width:0.8;"/>
   </g>
   <g id="text_5">
    <!-- (1550, 1.9963) -->
    <defs>
     <path d="M 31 75.875 
Q 24.46875 64.65625 21.28125 53.65625 
Q 18.109375 42.671875 18.109375 31.390625 
Q 18.109375 20.125 21.3125 9.0625 
Q 24.515625 -2 31 -13.1875 
L 23.1875 -13.1875 
Q 15.875 -1.703125 12.234375 9.375 
Q 8.59375 20.453125 8.59375 31.390625 
Q 8.59375 42.28125 12.203125 53.3125 
Q 15.828125 64.359375 23.1875 75.875 
z
" id="DejaVuSans-40"/>
     <path d="M 11.71875 12.40625 
L 22.015625 12.40625 
L 22.015625 4 
L 14.015625 -11.625 
L 7.71875 -11.625 
L 11.71875 4 
z
" id="DejaVuSans-44"/>
     <path d="M 33.015625 40.375 
Q 26.375 40.375 22.484375 35.828125 
Q 18.609375 31.296875 18.609375 23.390625 
Q 18.609375 15.53125 22.484375 10.953125 
Q 26.375 6.390625 33.015625 6.390625 
Q 39.65625 6.390625 43.53125 10.953125 
Q 47.40625 15.53125 47.40625 23.390625 
Q 47.40625 31.296875 43.53125 35.828125 
Q 39.65625 40.375 33.015625 40.375 
z
M 52.59375 71.296875 
L 52.59375 62.3125 
Q 48.875 64.0625 45.09375 64.984375 
Q 41.3125 65.921875 37.59375 65.921875 
Q 27.828125 65.921875 22.671875 59.328125 
Q 17.53125 52.734375 16.796875 39.40625 
Q 19.671875 43.65625 24.015625 45.921875 
Q 28.375 48.1875 33.59375 48.1875 
Q 44.578125 48.1875 50.953125 41.515625 
Q 57.328125 34.859375 57.328125 23.390625 
Q 57.328125 12.15625 50.6875 5.359375 
Q 44.046875 -1.421875 33.015625 -1.421875 
Q 20.359375 -1.421875 13.671875 8.265625 
Q 6.984375 17.96875 6.984375 36.375 
Q 6.984375 53.65625 15.1875 63.9375 
Q 23.390625 74.21875 37.203125 74.21875 
Q 40.921875 74.21875 44.703125 73.484375 
Q 48.484375 72.75 52.59375 71.296875 
z
" id="DejaVuSans-54"/>
     <path d="M 40.578125 39.3125 
Q 47.65625 37.796875 51.625 33 
Q 55.609375 28.21875 55.609375 21.1875 
Q 55.609375 10.40625 48.1875 4.484375 
Q 40.765625 -1.421875 27.09375 -1.421875 
Q 22.515625 -1.421875 17.65625 -0.515625 
Q 12.796875 0.390625 7.625 2.203125 
L 7.625 11.71875 
Q 11.71875 9.328125 16.59375 8.109375 
Q 21.484375 6.890625 26.8125 6.890625 
Q 36.078125 6.890625 40.9375 10.546875 
Q 45.796875 14.203125 45.796875 21.1875 
Q 45.796875 27.640625 41.28125 31.265625 
Q 36.765625 34.90625 28.71875 34.90625 
L 20.21875 34.90625 
L 20.21875 43.015625 
L 29.109375 43.015625 
Q 36.375 43.015625 40.234375 45.921875 
Q 44.09375 48.828125 44.09375 54.296875 
Q 44.09375 59.90625 40.109375 62.90625 
Q 36.140625 65.921875 28.71875 65.921875 
Q 24.65625 65.921875 20.015625 65.03125 
Q 15.375 64.15625 9.8125 62.3125 
L 9.8125 71.09375 
Q 15.4375 72.65625 20.34375 73.4375 
Q 25.25 74.21875 29.59375 74.21875 
Q 40.828125 74.21875 47.359375 69.109375 
Q 53.90625 64.015625 53.90625 55.328125 
Q 53.90625 49.265625 50.4375 45.09375 
Q 46.96875 40.921875 40.578125 39.3125 
z
" id="DejaVuSans-51"/>
     <path d="M 8.015625 75.875 
L 15.828125 75.875 
Q 23.140625 64.359375 26.78125 53.3125 
Q 30.421875 42.28125 30.421875 31.390625 
Q 30.421875 20.453125 26.78125 9.375 
Q 23.140625 -1.703125 15.828125 -13.1875 
L 8.015625 -13.1875 
Q 14.5 -2 17.703125 9.0625 
Q 20.90625 20.125 20.90625 31.390625 
Q 20.90625 42.671875 17.703125 53.65625 
Q 14.5 64.65625 8.015625 75.875 
z
" id="DejaVuSans-41"/>
    </defs>
    <g transform="translate(208.012186 129.278237)scale(0.16 -0.16)">
     <use xlink:href="#DejaVuSans-40"/>
     <use x="39.013672" xlink:href="#DejaVuSans-49"/>
     <use x="102.636719" xlink:href="#DejaVuSans-53"/>
     <use x="166.259766" xlink:href="#DejaVuSans-53"/>
     <use x="229.882812" xlink:href="#DejaVuSans-48"/>
     <use x="293.505859" xlink:href="#DejaVuSans-44"/>
     <use x="325.292969" xlink:href="#DejaVuSans-32"/>
     <use x="357.080078" xlink:href="#DejaVuSans-49"/>
     <use x="420.703125" xlink:href="#DejaVuSans-46"/>
     <use x="452.490234" xlink:href="#DejaVuSans-57"/>
     <use x="516.113281" xlink:href="#DejaVuSans-57"/>
     <use x="579.736328" xlink:href="#DejaVuSans-54"/>
     <use x="643.359375" xlink:href="#DejaVuSans-51"/>
     <use x="706.982422" xlink:href="#DejaVuSans-41"/>
    </g>
   </g>
  </g>
  <g id="axes_2">
   <g id="patch_7">
    <path d="M 79.49 339.84 
L 525.89 339.84 
L 525.89 173.52 
L 79.49 173.52 
z
" style="fill:none;"/>
   </g>
   <g id="PathCollection_2">
    <defs>
     <path d="M 0 3 
C 0.795609 3 1.55874 2.683901 2.12132 2.12132 
C 2.683901 1.55874 3 0.795609 3 0 
C 3 -0.795609 2.683901 -1.55874 2.12132 -2.12132 
C 1.55874 -2.683901 0.795609 -3 0 -3 
C -0.795609 -3 -1.55874 -2.683901 -2.12132 -2.12132 
C -2.683901 -1.55874 -3 -0.795609 -3 0 
C -3 0.795609 -2.683901 1.55874 -2.12132 2.12132 
C -1.55874 2.683901 -0.795609 3 0 3 
z
" id="maca0ef6bba" style="stroke:#0000ff;"/>
    </defs>
    <g clip-path="url(#pace3361775)">
     <use style="fill:#0000ff;stroke:#0000ff;" x="404.439186" xlink:href="#maca0ef6bba" y="207.163635"/>
    </g>
   </g>
   <g id="matplotlib.axis_3">
    <g id="xtick_5">
     <g id="line2d_16">
      <path clip-path="url(#pace3361775)" d="M 158.866151 339.84 
L 158.866151 173.52 
" style="fill:none;stroke:#b0b0b0;stroke-dasharray:0.8,1.32;stroke-dashoffset:0;stroke-width:0.8;"/>
     </g>
     <g id="line2d_17">
      <g>
       <use style="stroke:#000000;stroke-width:0.8;" x="158.866151" xlink:href="#meb14d18a15" y="339.84"/>
      </g>
     </g>
     <g id="text_6">
      <!-- 1300 -->
      <g transform="translate(138.506151 358.9975)scale(0.16 -0.16)">
       <use xlink:href="#DejaVuSans-49"/>
       <use x="63.623047" xlink:href="#DejaVuSans-51"/>
       <use x="127.246094" xlink:href="#DejaVuSans-48"/>
       <use x="190.869141" xlink:href="#DejaVuSans-48"/>
      </g>
     </g>
    </g>
    <g id="xtick_6">
     <g id="line2d_18">
      <path clip-path="url(#pace3361775)" d="M 257.079651 339.84 
L 257.079651 173.52 
" style="fill:none;stroke:#b0b0b0;stroke-dasharray:0.8,1.32;stroke-dashoffset:0;stroke-width:0.8;"/>
     </g>
     <g id="line2d_19">
      <g>
       <use style="stroke:#000000;stroke-width:0.8;" x="257.079651" xlink:href="#meb14d18a15" y="339.84"/>
      </g>
     </g>
     <g id="text_7">
      <!-- 1400 -->
      <defs>
       <path d="M 37.796875 64.3125 
L 12.890625 25.390625 
L 37.796875 25.390625 
z
M 35.203125 72.90625 
L 47.609375 72.90625 
L 47.609375 25.390625 
L 58.015625 25.390625 
L 58.015625 17.1875 
L 47.609375 17.1875 
L 47.609375 0 
L 37.796875 0 
L 37.796875 17.1875 
L 4.890625 17.1875 
L 4.890625 26.703125 
z
" id="DejaVuSans-52"/>
      </defs>
      <g transform="translate(236.719651 358.9975)scale(0.16 -0.16)">
       <use xlink:href="#DejaVuSans-49"/>
       <use x="63.623047" xlink:href="#DejaVuSans-52"/>
       <use x="127.246094" xlink:href="#DejaVuSans-48"/>
       <use x="190.869141" xlink:href="#DejaVuSans-48"/>
      </g>
     </g>
    </g>
    <g id="xtick_7">
     <g id="line2d_20">
      <path clip-path="url(#pace3361775)" d="M 355.293151 339.84 
L 355.293151 173.52 
" style="fill:none;stroke:#b0b0b0;stroke-dasharray:0.8,1.32;stroke-dashoffset:0;stroke-width:0.8;"/>
     </g>
     <g id="line2d_21">
      <g>
       <use style="stroke:#000000;stroke-width:0.8;" x="355.293151" xlink:href="#meb14d18a15" y="339.84"/>
      </g>
     </g>
     <g id="text_8">
      <!-- 1500 -->
      <g transform="translate(334.933151 358.9975)scale(0.16 -0.16)">
       <use xlink:href="#DejaVuSans-49"/>
       <use x="63.623047" xlink:href="#DejaVuSans-53"/>
       <use x="127.246094" xlink:href="#DejaVuSans-48"/>
       <use x="190.869141" xlink:href="#DejaVuSans-48"/>
      </g>
     </g>
    </g>
    <g id="xtick_8">
     <g id="line2d_22">
      <path clip-path="url(#pace3361775)" d="M 453.506651 339.84 
L 453.506651 173.52 
" style="fill:none;stroke:#b0b0b0;stroke-dasharray:0.8,1.32;stroke-dashoffset:0;stroke-width:0.8;"/>
     </g>
     <g id="line2d_23">
      <g>
       <use style="stroke:#000000;stroke-width:0.8;" x="453.506651" xlink:href="#meb14d18a15" y="339.84"/>
      </g>
     </g>
     <g id="text_9">
      <!-- 1600 -->
      <g transform="translate(433.146651 358.9975)scale(0.16 -0.16)">
       <use xlink:href="#DejaVuSans-49"/>
       <use x="63.623047" xlink:href="#DejaVuSans-54"/>
       <use x="127.246094" xlink:href="#DejaVuSans-48"/>
       <use x="190.869141" xlink:href="#DejaVuSans-48"/>
      </g>
     </g>
    </g>
    <g id="text_10">
     <!-- wavelength (nm) -->
     <defs>
      <path d="M 4.203125 54.6875 
L 13.1875 54.6875 
L 24.421875 12.015625 
L 35.59375 54.6875 
L 46.1875 54.6875 
L 57.421875 12.015625 
L 68.609375 54.6875 
L 77.59375 54.6875 
L 63.28125 0 
L 52.6875 0 
L 40.921875 44.828125 
L 29.109375 0 
L 18.5 0 
z
" id="DejaVuSans-119"/>
      <path d="M 9.421875 75.984375 
L 18.40625 75.984375 
L 18.40625 0 
L 9.421875 0 
z
" id="DejaVuSans-108"/>
      <path d="M 45.40625 27.984375 
Q 45.40625 37.75 41.375 43.109375 
Q 37.359375 48.484375 30.078125 48.484375 
Q 22.859375 48.484375 18.828125 43.109375 
Q 14.796875 37.75 14.796875 27.984375 
Q 14.796875 18.265625 18.828125 12.890625 
Q 22.859375 7.515625 30.078125 7.515625 
Q 37.359375 7.515625 41.375 12.890625 
Q 45.40625 18.265625 45.40625 27.984375 
z
M 54.390625 6.78125 
Q 54.390625 -7.171875 48.1875 -13.984375 
Q 42 -20.796875 29.203125 -20.796875 
Q 24.46875 -20.796875 20.265625 -20.09375 
Q 16.0625 -19.390625 12.109375 -17.921875 
L 12.109375 -9.1875 
Q 16.0625 -11.328125 19.921875 -12.34375 
Q 23.78125 -13.375 27.78125 -13.375 
Q 36.625 -13.375 41.015625 -8.765625 
Q 45.40625 -4.15625 45.40625 5.171875 
L 45.40625 9.625 
Q 42.625 4.78125 38.28125 2.390625 
Q 33.9375 0 27.875 0 
Q 17.828125 0 11.671875 7.65625 
Q 5.515625 15.328125 5.515625 27.984375 
Q 5.515625 40.671875 11.671875 48.328125 
Q 17.828125 56 27.875 56 
Q 33.9375 56 38.28125 53.609375 
Q 42.625 51.21875 45.40625 46.390625 
L 45.40625 54.6875 
L 54.390625 54.6875 
z
" id="DejaVuSans-103"/>
      <path d="M 54.890625 33.015625 
L 54.890625 0 
L 45.90625 0 
L 45.90625 32.71875 
Q 45.90625 40.484375 42.875 44.328125 
Q 39.84375 48.1875 33.796875 48.1875 
Q 26.515625 48.1875 22.3125 43.546875 
Q 18.109375 38.921875 18.109375 30.90625 
L 18.109375 0 
L 9.078125 0 
L 9.078125 75.984375 
L 18.109375 75.984375 
L 18.109375 46.1875 
Q 21.34375 51.125 25.703125 53.5625 
Q 30.078125 56 35.796875 56 
Q 45.21875 56 50.046875 50.171875 
Q 54.890625 44.34375 54.890625 33.015625 
z
" id="DejaVuSans-104"/>
      <path d="M 52 44.1875 
Q 55.375 50.25 60.0625 53.125 
Q 64.75 56 71.09375 56 
Q 79.640625 56 84.28125 50.015625 
Q 88.921875 44.046875 88.921875 33.015625 
L 88.921875 0 
L 79.890625 0 
L 79.890625 32.71875 
Q 79.890625 40.578125 77.09375 44.375 
Q 74.3125 48.1875 68.609375 48.1875 
Q 61.625 48.1875 57.5625 43.546875 
Q 53.515625 38.921875 53.515625 30.90625 
L 53.515625 0 
L 44.484375 0 
L 44.484375 32.71875 
Q 44.484375 40.625 41.703125 44.40625 
Q 38.921875 48.1875 33.109375 48.1875 
Q 26.21875 48.1875 22.15625 43.53125 
Q 18.109375 38.875 18.109375 30.90625 
L 18.109375 0 
L 9.078125 0 
L 9.078125 54.6875 
L 18.109375 54.6875 
L 18.109375 46.1875 
Q 21.1875 51.21875 25.484375 53.609375 
Q 29.78125 56 35.6875 56 
Q 41.65625 56 45.828125 52.96875 
Q 50 49.953125 52 44.1875 
z
" id="DejaVuSans-109"/>
     </defs>
     <g transform="translate(234.44 378.4825)scale(0.16 -0.16)">
      <use xlink:href="#DejaVuSans-119"/>
      <use x="81.787109" xlink:href="#DejaVuSans-97"/>
      <use x="143.066406" xlink:href="#DejaVuSans-118"/>
      <use x="202.246094" xlink:href="#DejaVuSans-101"/>
      <use x="263.769531" xlink:href="#DejaVuSans-108"/>
      <use x="291.552734" xlink:href="#DejaVuSans-101"/>
      <use x="353.076172" xlink:href="#DejaVuSans-110"/>
      <use x="416.455078" xlink:href="#DejaVuSans-103"/>
      <use x="479.931641" xlink:href="#DejaVuSans-116"/>
      <use x="519.140625" xlink:href="#DejaVuSans-104"/>
      <use x="582.519531" xlink:href="#DejaVuSans-32"/>
      <use x="614.306641" xlink:href="#DejaVuSans-40"/>
      <use x="653.320312" xlink:href="#DejaVuSans-110"/>
      <use x="716.699219" xlink:href="#DejaVuSans-109"/>
      <use x="814.111328" xlink:href="#DejaVuSans-41"/>
     </g>
    </g>
   </g>
   <g id="matplotlib.axis_4">
    <g id="ytick_4">
     <g id="line2d_24">
      <path clip-path="url(#pace3361775)" d="M 79.49 339.480326 
L 525.89 339.480326 
" style="fill:none;stroke:#b0b0b0;stroke-dasharray:0.8,1.32;stroke-dashoffset:0;stroke-width:0.8;"/>
     </g>
     <g id="line2d_25">
      <g>
       <use style="stroke:#000000;stroke-width:0.8;" x="79.49" xlink:href="#m0f7fbd2083" y="339.480326"/>
      </g>
     </g>
     <g id="text_11">
      <!-- −100 -->
      <defs>
       <path d="M 10.59375 35.5 
L 73.1875 35.5 
L 73.1875 27.203125 
L 10.59375 27.203125 
z
" id="DejaVuSans-8722"/>
      </defs>
      <g transform="translate(28.5425 345.559076)scale(0.16 -0.16)">
       <use xlink:href="#DejaVuSans-8722"/>
       <use x="83.789062" xlink:href="#DejaVuSans-49"/>
       <use x="147.412109" xlink:href="#DejaVuSans-48"/>
       <use x="211.035156" xlink:href="#DejaVuSans-48"/>
      </g>
     </g>
    </g>
    <g id="ytick_5">
     <g id="line2d_26">
      <path clip-path="url(#pace3361775)" d="M 79.49 304.076211 
L 525.89 304.076211 
" style="fill:none;stroke:#b0b0b0;stroke-dasharray:0.8,1.32;stroke-dashoffset:0;stroke-width:0.8;"/>
     </g>
     <g id="line2d_27">
      <g>
       <use style="stroke:#000000;stroke-width:0.8;" x="79.49" xlink:href="#m0f7fbd2083" y="304.076211"/>
      </g>
     </g>
     <g id="text_12">
      <!-- −75 -->
      <defs>
       <path d="M 8.203125 72.90625 
L 55.078125 72.90625 
L 55.078125 68.703125 
L 28.609375 0 
L 18.3125 0 
L 43.21875 64.59375 
L 8.203125 64.59375 
z
" id="DejaVuSans-55"/>
      </defs>
      <g transform="translate(38.7225 310.154961)scale(0.16 -0.16)">
       <use xlink:href="#DejaVuSans-8722"/>
       <use x="83.789062" xlink:href="#DejaVuSans-55"/>
       <use x="147.412109" xlink:href="#DejaVuSans-53"/>
      </g>
     </g>
    </g>
    <g id="ytick_6">
     <g id="line2d_28">
      <path clip-path="url(#pace3361775)" d="M 79.49 268.672095 
L 525.89 268.672095 
" style="fill:none;stroke:#b0b0b0;stroke-dasharray:0.8,1.32;stroke-dashoffset:0;stroke-width:0.8;"/>
     </g>
     <g id="line2d_29">
      <g>
       <use style="stroke:#000000;stroke-width:0.8;" x="79.49" xlink:href="#m0f7fbd2083" y="268.672095"/>
      </g>
     </g>
     <g id="text_13">
      <!-- −50 -->
      <g transform="translate(38.7225 274.750845)scale(0.16 -0.16)">
       <use xlink:href="#DejaVuSans-8722"/>
       <use x="83.789062" xlink:href="#DejaVuSans-53"/>
       <use x="147.412109" xlink:href="#DejaVuSans-48"/>
      </g>
     </g>
    </g>
    <g id="ytick_7">
     <g id="line2d_30">
      <path clip-path="url(#pace3361775)" d="M 79.49 233.26798 
L 525.89 233.26798 
" style="fill:none;stroke:#b0b0b0;stroke-dasharray:0.8,1.32;stroke-dashoffset:0;stroke-width:0.8;"/>
     </g>
     <g id="line2d_31">
      <g>
       <use style="stroke:#000000;stroke-width:0.8;" x="79.49" xlink:href="#m0f7fbd2083" y="233.26798"/>
      </g>
     </g>
     <g id="text_14">
      <!-- −25 -->
      <g transform="translate(38.7225 239.34673)scale(0.16 -0.16)">
       <use xlink:href="#DejaVuSans-8722"/>
       <use x="83.789062" xlink:href="#DejaVuSans-50"/>
       <use x="147.412109" xlink:href="#DejaVuSans-53"/>
      </g>
     </g>
    </g>
    <g id="ytick_8">
     <g id="line2d_32">
      <path clip-path="url(#pace3361775)" d="M 79.49 197.863865 
L 525.89 197.863865 
" style="fill:none;stroke:#b0b0b0;stroke-dasharray:0.8,1.32;stroke-dashoffset:0;stroke-width:0.8;"/>
     </g>
     <g id="line2d_33">
      <g>
       <use style="stroke:#000000;stroke-width:0.8;" x="79.49" xlink:href="#m0f7fbd2083" y="197.863865"/>
      </g>
     </g>
     <g id="text_15">
      <!-- 0 -->
      <g transform="translate(62.31 203.942615)scale(0.16 -0.16)">
       <use xlink:href="#DejaVuSans-48"/>
      </g>
     </g>
    </g>
    <g id="text_16">
     <!-- $D_{\lambda}$ (ps/km·nm) -->
     <defs>
      <path d="M 16.890625 72.90625 
L 38.09375 72.90625 
Q 54.984375 72.90625 63.59375 65.75 
Q 72.21875 58.59375 72.21875 44.484375 
Q 72.21875 35.15625 68.9375 26.53125 
Q 65.671875 17.921875 59.90625 12.015625 
Q 54.109375 5.953125 45.171875 2.96875 
Q 36.234375 0 24.03125 0 
L 2.6875 0 
z
M 25.203125 64.796875 
L 14.203125 8.109375 
L 27.09375 8.109375 
Q 43.65625 8.109375 52.734375 17.625 
Q 61.8125 27.15625 61.8125 44.484375 
Q 61.8125 54.984375 55.953125 59.890625 
Q 50.09375 64.796875 37.59375 64.796875 
z
" id="DejaVuSans-Oblique-68"/>
      <path d="M 36.71875 67.4375 
L 48.828125 0 
L 39.3125 0 
L 31.84375 40.4375 
L 5.125 0 
L -4.390625 0 
L 29.734375 52.4375 
L 28.03125 62.109375 
Q 26.953125 68.265625 21.734375 68.265625 
L 17.046875 68.265625 
L 18.5 75.984375 
L 24.21875 75.875 
Q 35.203125 75.734375 36.71875 67.4375 
z
" id="DejaVuSans-Oblique-955"/>
      <path d="M 18.109375 8.203125 
L 18.109375 -20.796875 
L 9.078125 -20.796875 
L 9.078125 54.6875 
L 18.109375 54.6875 
L 18.109375 46.390625 
Q 20.953125 51.265625 25.265625 53.625 
Q 29.59375 56 35.59375 56 
Q 45.5625 56 51.78125 48.09375 
Q 58.015625 40.1875 58.015625 27.296875 
Q 58.015625 14.40625 51.78125 6.484375 
Q 45.5625 -1.421875 35.59375 -1.421875 
Q 29.59375 -1.421875 25.265625 0.953125 
Q 20.953125 3.328125 18.109375 8.203125 
z
M 48.6875 27.296875 
Q 48.6875 37.203125 44.609375 42.84375 
Q 40.53125 48.484375 33.40625 48.484375 
Q 26.265625 48.484375 22.1875 42.84375 
Q 18.109375 37.203125 18.109375 27.296875 
Q 18.109375 17.390625 22.1875 11.75 
Q 26.265625 6.109375 33.40625 6.109375 
Q 40.53125 6.109375 44.609375 11.75 
Q 48.6875 17.390625 48.6875 27.296875 
z
" id="DejaVuSans-112"/>
      <path d="M 44.28125 53.078125 
L 44.28125 44.578125 
Q 40.484375 46.53125 36.375 47.5 
Q 32.28125 48.484375 27.875 48.484375 
Q 21.1875 48.484375 17.84375 46.4375 
Q 14.5 44.390625 14.5 40.28125 
Q 14.5 37.15625 16.890625 35.375 
Q 19.28125 33.59375 26.515625 31.984375 
L 29.59375 31.296875 
Q 39.15625 29.25 43.1875 25.515625 
Q 47.21875 21.78125 47.21875 15.09375 
Q 47.21875 7.46875 41.1875 3.015625 
Q 35.15625 -1.421875 24.609375 -1.421875 
Q 20.21875 -1.421875 15.453125 -0.5625 
Q 10.6875 0.296875 5.421875 2 
L 5.421875 11.28125 
Q 10.40625 8.6875 15.234375 7.390625 
Q 20.0625 6.109375 24.8125 6.109375 
Q 31.15625 6.109375 34.5625 8.28125 
Q 37.984375 10.453125 37.984375 14.40625 
Q 37.984375 18.0625 35.515625 20.015625 
Q 33.0625 21.96875 24.703125 23.78125 
L 21.578125 24.515625 
Q 13.234375 26.265625 9.515625 29.90625 
Q 5.8125 33.546875 5.8125 39.890625 
Q 5.8125 47.609375 11.28125 51.796875 
Q 16.75 56 26.8125 56 
Q 31.78125 56 36.171875 55.265625 
Q 40.578125 54.546875 44.28125 53.078125 
z
" id="DejaVuSans-115"/>
      <path d="M 25.390625 72.90625 
L 33.6875 72.90625 
L 8.296875 -9.28125 
L 0 -9.28125 
z
" id="DejaVuSans-47"/>
      <path d="M 9.078125 75.984375 
L 18.109375 75.984375 
L 18.109375 31.109375 
L 44.921875 54.6875 
L 56.390625 54.6875 
L 27.390625 29.109375 
L 57.625 0 
L 45.90625 0 
L 18.109375 26.703125 
L 18.109375 0 
L 9.078125 0 
z
" id="DejaVuSans-107"/>
      <path d="M 10.6875 40.921875 
L 21 40.921875 
L 21 28.515625 
L 10.6875 28.515625 
z
" id="DejaVuSans-183"/>
     </defs>
     <g transform="translate(21.1825 315)rotate(-90)scale(0.16 -0.16)">
      <use transform="translate(0 0.015625)" xlink:href="#DejaVuSans-Oblique-68"/>
      <use transform="translate(77.001953 -16.390625)scale(0.7)" xlink:href="#DejaVuSans-Oblique-955"/>
      <use transform="translate(121.162109 0.015625)" xlink:href="#DejaVuSans-32"/>
      <use transform="translate(152.949219 0.015625)" xlink:href="#DejaVuSans-40"/>
      <use transform="translate(191.962891 0.015625)" xlink:href="#DejaVuSans-112"/>
      <use transform="translate(255.439453 0.015625)" xlink:href="#DejaVuSans-115"/>
      <use transform="translate(307.539062 0.015625)" xlink:href="#DejaVuSans-47"/>
      <use transform="translate(341.230469 0.015625)" xlink:href="#DejaVuSans-107"/>
      <use transform="translate(399.140625 0.015625)" xlink:href="#DejaVuSans-109"/>
      <use transform="translate(496.552734 0.015625)" xlink:href="#DejaVuSans-183"/>
      <use transform="translate(528.339844 0.015625)" xlink:href="#DejaVuSans-110"/>
      <use transform="translate(591.71875 0.015625)" xlink:href="#DejaVuSans-109"/>
      <use transform="translate(689.130859 0.015625)" xlink:href="#DejaVuSans-41"/>
     </g>
    </g>
   </g>
   <g id="line2d_34">
    <path clip-path="url(#pace3361775)" d="M 99.780909 332.28 
L 100.07555 331.896275 
L 100.173763 332.011153 
L 100.271977 332.021969 
L 100.37019 331.720523 
L 100.566617 331.846209 
L 100.664831 331.857009 
L 100.763044 331.451324 
L 100.861258 331.670349 
L 101.254112 331.296827 
L 101.352325 331.411747 
L 101.450539 331.005785 
L 101.646966 331.339823 
L 101.745179 331.037957 
L 101.843393 331.152894 
L 102.03982 330.965899 
L 102.138033 330.976614 
L 102.432674 330.591706 
L 102.530887 330.602387 
L 102.629101 330.404508 
L 102.727314 330.623751 
L 102.825528 330.530136 
L 102.923741 330.227892 
L 103.021955 330.342855 
L 103.414809 329.968091 
L 103.611236 330.093702 
L 103.905876 329.708038 
L 104.200517 329.844247 
L 104.396944 329.552165 
L 104.593371 329.364431 
L 104.691584 329.479452 
L 104.986225 328.988761 
L 105.084438 329.103782 
L 105.182652 328.905324 
L 105.379079 329.030885 
L 105.771933 328.550263 
L 105.870146 328.66531 
L 106.066573 328.58173 
L 106.263 328.288935 
L 106.361214 328.508597 
L 106.655854 328.016916 
L 106.754068 328.131988 
L 106.852281 327.933152 
L 107.048708 328.163329 
L 107.146922 327.859776 
L 107.245135 327.974873 
L 107.539776 327.377963 
L 107.637989 327.702468 
L 107.834416 327.513828 
L 107.93263 327.62895 
L 108.129057 327.230741 
L 108.423697 327.157055 
L 108.620124 326.863387 
L 108.718338 327.083318 
L 109.111192 326.8102 
L 109.307619 326.725991 
L 109.700473 326.242818 
L 109.798686 326.462875 
L 109.995113 326.168721 
L 110.093327 326.178983 
L 110.289754 325.884703 
L 110.584394 325.915414 
L 110.780821 325.620958 
L 110.879035 325.736155 
L 111.271889 325.46198 
L 111.468316 325.377335 
L 111.762956 325.197774 
L 111.959383 325.113036 
L 112.15581 324.92317 
L 112.254024 324.933315 
L 112.352237 324.628126 
L 112.548664 324.96375 
L 112.745091 324.56346 
L 113.039732 324.593795 
L 113.236159 324.298457 
L 113.629013 324.233581 
L 113.923653 323.842832 
L 114.021867 324.063384 
L 114.218294 323.767694 
L 114.512934 323.692506 
L 114.611148 323.597229 
L 114.709361 323.712561 
L 114.905788 323.416627 
L 115.004002 323.42663 
L 115.298642 323.035184 
L 115.396856 323.150524 
L 115.495069 322.844362 
L 115.593283 323.06509 
L 116.08435 322.693213 
L 116.182564 322.808587 
L 116.280777 322.50219 
L 116.378991 322.617563 
L 116.673631 322.225421 
L 116.771845 322.446293 
L 117.164699 322.063843 
L 117.262912 322.17925 
L 117.459339 321.776829 
L 117.557553 321.892236 
L 117.75398 321.70081 
L 117.852193 321.816234 
L 118.245047 321.538794 
L 118.441474 321.452815 
L 118.637901 321.261154 
L 118.834328 321.17509 
L 118.932542 321.290556 
L 119.325396 320.695517 
L 119.521823 320.820742 
L 119.620036 320.407572 
L 119.816463 320.638521 
L 120.209317 320.254359 
L 120.307531 320.47565 
L 120.405744 320.167977 
L 120.503958 320.389293 
L 121.289666 319.620029 
L 121.387879 319.735563 
L 121.780733 319.456445 
L 121.97716 319.369777 
L 122.271801 319.186734 
L 122.370014 319.302309 
L 122.762868 318.81077 
L 122.861082 318.926354 
L 123.057509 318.839493 
L 123.352149 318.33796 
L 123.450363 318.559612 
L 123.548576 318.357025 
L 123.64679 318.57871 
L 124.236071 318.105372 
L 124.334284 318.221014 
L 125.218206 317.45697 
L 125.512846 317.37908 
L 125.807487 317.194878 
L 126.003914 317.213725 
L 126.200341 317.019982 
L 126.593195 316.738624 
L 126.691408 316.960678 
L 126.789622 316.651042 
L 126.887835 316.766768 
L 126.986049 316.563426 
L 127.084262 316.679161 
L 127.280689 316.378747 
L 127.378903 316.494489 
L 127.477116 316.397442 
L 127.57533 315.981142 
L 127.673543 316.203297 
L 127.86997 316.009085 
L 127.968184 316.337735 
L 128.164611 315.824103 
L 128.262824 315.939871 
L 128.361038 315.949177 
L 128.557465 315.754797 
L 128.852105 315.463101 
L 128.950319 315.685423 
L 129.048532 315.481628 
L 129.146746 315.597438 
L 129.83424 314.809504 
L 129.932454 314.925323 
L 130.227094 314.846325 
L 130.619948 314.563129 
L 130.718162 314.67899 
L 130.914589 314.377275 
L 131.012802 314.599849 
L 131.209229 314.191319 
L 131.307443 314.200466 
L 131.405656 313.996134 
L 131.50387 314.218758 
L 131.602083 313.907637 
L 131.700297 314.023522 
L 131.896724 313.828219 
L 131.994937 313.730543 
L 132.191364 313.855558 
L 132.387791 313.553314 
L 132.584218 313.571489 
L 132.682432 313.36688 
L 132.780645 313.482808 
L 133.075286 313.082518 
L 133.173499 313.198454 
L 133.271713 313.314407 
L 133.369926 313.002748 
L 133.46814 313.118701 
L 134.057421 312.638146 
L 134.155634 312.754124 
L 134.450275 312.567162 
L 134.646702 312.478137 
L 134.843129 312.282045 
L 134.941342 312.398056 
L 135.137769 312.201897 
L 135.530623 311.916469 
L 135.628837 311.925406 
L 135.72705 311.613017 
L 135.923477 311.84509 
L 136.119904 311.541521 
L 136.512758 311.469958 
L 136.905612 311.183909 
L 137.003826 311.299996 
L 137.298466 310.897659 
L 137.69132 310.82576 
L 138.182388 310.440666 
L 138.378815 310.350936 
L 138.477028 310.252387 
L 138.673455 310.377318 
L 138.869882 309.965398 
L 139.066309 310.090313 
L 139.262736 309.893029 
L 139.459163 309.910533 
L 139.557377 309.596978 
L 139.753804 309.721884 
L 139.950231 309.739355 
L 140.146658 309.434367 
L 140.539512 309.361688 
L 140.735939 309.056482 
L 140.932366 309.181388 
L 141.128793 308.983618 
L 141.227006 308.992286 
L 141.521647 308.587876 
L 141.816287 308.61378 
L 141.914501 308.40714 
L 142.110928 308.53203 
L 142.307355 308.22627 
L 142.700209 308.15297 
L 142.896636 307.739271 
L 142.994849 308.071018 
L 143.093063 307.864126 
L 143.191276 307.98044 
L 143.485917 307.575082 
L 143.878771 307.609251 
L 144.075198 307.410692 
L 144.173411 307.311387 
L 144.271625 307.427743 
L 144.369838 307.328422 
L 144.566265 307.021865 
L 144.762692 307.146729 
L 144.959119 306.840038 
L 145.155546 306.64116 
L 145.25376 306.757541 
L 145.351973 306.658077 
L 145.450187 306.774474 
L 145.646614 306.575496 
L 145.744827 306.583946 
L 145.941254 306.384883 
L 146.137681 306.40175 
L 146.235895 306.19417 
L 146.334108 306.526631 
L 146.530535 305.895325 
L 146.726962 306.020155 
L 146.825176 305.704385 
L 147.021603 305.829207 
L 147.316243 305.746257 
L 147.414457 305.538418 
L 147.51267 305.654891 
L 147.610884 305.338885 
L 147.807311 305.463707 
L 148.200165 305.064408 
L 148.298378 305.289089 
L 148.396592 305.18923 
L 148.593019 304.881255 
L 148.789446 305.006077 
L 149.084086 304.598001 
L 149.378727 304.839371 
L 149.575154 304.531078 
L 149.673367 304.322743 
L 149.869794 304.555874 
L 149.968008 304.239164 
L 150.066221 304.355737 
L 150.360862 303.947048 
L 150.459075 304.06363 
L 150.557289 304.180229 
L 150.851929 303.771321 
L 150.950143 303.671111 
L 151.048356 303.896135 
L 151.14657 303.579064 
L 151.244783 303.69568 
L 151.342997 303.486985 
L 151.44121 303.603609 
L 151.735851 303.4112 
L 151.834064 303.52785 
L 151.932278 303.210544 
L 152.030491 303.435694 
L 152.128705 303.11833 
L 152.226918 303.343505 
L 152.423345 302.817143 
L 152.717986 302.841486 
L 152.914413 302.640561 
L 153.209053 302.556251 
L 153.307267 302.45573 
L 153.40548 302.681048 
L 153.503694 302.363264 
L 153.601907 302.588608 
L 153.798334 302.061524 
L 153.994761 302.294956 
L 154.191188 301.87634 
L 154.289402 302.210454 
L 154.387615 301.892401 
L 154.584042 302.017181 
L 154.878683 301.606319 
L 155.07511 301.731091 
L 155.271537 301.420783 
L 155.36975 301.537558 
L 155.566177 301.444748 
L 155.664391 301.235113 
L 155.762604 301.351905 
L 155.860818 301.142228 
L 155.959031 301.259028 
L 156.351885 300.855432 
L 156.450099 301.081128 
L 156.646526 300.879246 
L 156.842953 300.78621 
L 157.137593 300.592123 
L 157.33402 300.607949 
L 157.530447 300.296861 
L 157.628661 300.413728 
L 157.825088 299.993535 
L 158.021515 300.118273 
L 158.119728 300.017122 
L 158.217942 300.134015 
L 158.316155 300.032848 
L 158.414369 300.149757 
L 158.610796 299.838308 
L 158.807223 299.744919 
L 159.101863 299.441115 
L 159.29829 299.674984 
L 159.592931 299.261881 
L 159.691144 299.487988 
L 159.887571 299.285267 
L 159.985785 299.293062 
L 160.280425 298.879624 
L 160.771493 298.809185 
L 161.164347 298.512353 
L 161.458987 298.535538 
L 161.557201 298.324636 
L 161.655414 298.441671 
L 161.753628 298.340059 
L 161.851841 298.019749 
L 161.950055 298.246133 
L 162.146482 298.042808 
L 162.244695 297.94112 
L 162.342909 298.05818 
L 162.539336 297.854755 
L 162.637549 297.753017 
L 162.833976 297.877763 
L 162.93219 297.557134 
L 163.030403 297.67422 
L 163.619684 297.172679 
L 163.816111 297.406917 
L 163.914325 297.085995 
L 164.012538 297.203122 
L 164.503606 296.802908 
L 164.601819 296.920061 
L 164.89646 296.723616 
L 164.994673 296.840794 
L 165.1911 296.636697 
L 165.289314 296.644258 
L 165.485741 296.220775 
L 165.583954 296.44762 
L 165.878595 296.250882 
L 166.075022 296.265936 
L 166.173235 295.944334 
L 166.271449 296.061554 
L 166.566089 295.864597 
L 166.86073 295.777309 
L 167.15537 295.360589 
L 167.253584 295.477843 
L 167.351797 295.485302 
L 167.450011 295.273125 
L 167.548224 295.500222 
L 167.646438 295.288011 
L 167.744651 295.405298 
L 167.842865 295.193044 
L 167.941078 295.31034 
L 168.137505 294.885715 
L 168.235719 295.112897 
L 168.432146 295.017846 
L 168.530359 295.025264 
L 168.628573 294.812843 
L 168.726786 295.0401 
L 168.923213 294.615157 
L 169.316067 294.534716 
L 169.414281 294.432105 
L 169.512494 294.549467 
L 170.003562 294.036162 
L 170.101775 294.153541 
L 170.396416 293.845356 
L 170.592843 294.080165 
L 170.78927 293.764521 
L 170.985697 293.669017 
L 171.08391 293.566188 
L 171.182124 293.683618 
L 171.476764 293.37503 
L 171.574978 293.712819 
L 171.771405 293.17648 
L 171.869618 293.293935 
L 172.164259 293.095292 
L 172.557113 293.014037 
L 172.75354 292.918248 
L 173.04818 292.82965 
L 173.342821 292.63068 
L 173.539248 292.534757 
L 173.735675 292.328445 
L 173.833888 292.445992 
L 173.932102 292.232438 
L 174.030315 292.349994 
L 174.128529 292.026008 
L 174.324956 292.15073 
L 174.521383 291.833793 
L 174.619596 291.840934 
L 174.71781 292.068954 
L 174.914237 291.7519 
L 175.01245 291.869498 
L 175.110664 291.545219 
L 175.208877 291.773298 
L 175.307091 291.44896 
L 175.503518 291.684188 
L 175.699945 291.366866 
L 176.092799 291.284704 
L 176.387439 290.974229 
L 176.485653 291.091885 
L 176.780293 290.781258 
L 176.878507 291.009556 
L 176.97672 290.684723 
L 177.173147 290.809453 
L 177.271361 290.595186 
L 177.369574 290.82355 
L 177.566001 290.505598 
L 177.860642 290.41596 
L 178.155282 290.215538 
L 178.548136 290.243531 
L 178.744563 289.814393 
L 178.842777 289.710565 
L 179.039204 289.835287 
L 179.235631 289.73839 
L 179.530271 289.426706 
L 179.628485 289.544497 
L 179.726698 289.329701 
L 179.824912 289.558376 
L 179.923125 289.343546 
L 180.021339 289.461362 
L 180.217766 289.142495 
L 180.315979 289.482155 
L 180.61062 288.948233 
L 180.807047 289.183931 
L 181.199901 288.878574 
L 181.298114 288.996457 
L 181.396328 288.670315 
L 181.494541 288.788198 
L 181.690968 288.579872 
L 181.789182 288.253595 
L 181.887395 288.48253 
L 182.280249 288.176662 
L 182.476676 288.301408 
L 182.57489 287.974906 
L 182.673103 288.20395 
L 182.86953 288.106458 
L 183.065957 288.008932 
L 183.458811 287.591407 
L 183.557025 287.709373 
L 183.753452 287.50051 
L 183.851665 287.396053 
L 184.048092 287.5208 
L 184.244519 287.200566 
L 184.53916 287.332059 
L 184.637373 286.893656 
L 184.8338 287.018386 
L 185.128441 286.704563 
L 185.324868 287.051993 
L 185.521295 286.619985 
L 185.619508 286.738044 
L 185.717722 286.63336 
L 185.815935 286.751436 
L 186.110576 286.437285 
L 186.208789 286.666799 
L 186.50343 286.129629 
L 186.896284 286.156212 
L 186.994497 285.828392 
L 187.092711 285.94651 
L 187.190924 285.730128 
L 187.289138 285.959768 
L 187.485565 285.749965 
L 187.681992 285.874737 
L 187.780205 285.769802 
L 187.878419 285.441721 
L 187.976632 285.671454 
L 188.074846 285.454896 
L 188.173059 285.573072 
L 188.369486 285.251445 
L 188.4677 285.481244 
L 188.958767 285.067553 
L 189.155194 285.080661 
L 189.351621 284.758697 
L 189.449835 284.876924 
L 189.744475 284.673087 
L 189.940902 284.686127 
L 190.137329 284.58741 
L 190.235543 284.593921 
L 190.628397 284.172771 
L 190.824824 284.409359 
L 191.217678 284.09979 
L 191.315891 284.106259 
L 191.512318 283.783575 
L 191.610532 283.901902 
L 191.708745 283.908355 
L 191.806959 283.802908 
L 191.905172 283.921261 
L 192.101599 283.710316 
L 192.39624 283.505724 
L 192.494453 283.512143 
L 192.789094 283.307434 
L 192.887307 283.313836 
L 192.985521 283.096238 
L 193.181948 283.221026 
L 193.673015 282.80476 
L 193.869442 282.929557 
L 194.065869 282.718109 
L 194.36051 282.737166 
L 194.556937 282.413466 
L 194.65515 282.419793 
L 194.753364 282.538271 
L 195.342645 282.015274 
L 195.440858 282.133777 
L 195.539072 281.915642 
L 195.735499 282.152683 
L 195.931926 281.940782 
L 196.226566 281.735082 
L 196.32478 281.74135 
L 196.815847 281.32338 
L 197.012274 281.33585 
L 197.110488 281.454437 
L 197.306915 281.242184 
L 197.405128 281.24841 
L 197.503342 281.029863 
L 197.601555 281.148468 
L 197.797982 280.93608 
L 197.896196 281.054701 
L 198.092623 280.954683 
L 198.190836 280.960885 
L 198.387263 280.748363 
L 198.58369 280.760731 
L 198.681904 280.541941 
L 198.780117 280.660604 
L 198.878331 280.441772 
L 198.976544 280.560444 
L 199.074758 280.454091 
L 199.172971 280.572779 
L 199.271185 280.128796 
L 199.467612 280.366173 
L 199.762252 279.934307 
L 199.860466 280.1656 
L 200.056893 279.840054 
L 200.25332 279.964893 
L 200.54796 279.757951 
L 200.646174 279.876707 
L 200.842601 279.663581 
L 200.940814 279.669673 
L 201.039028 279.563076 
L 201.137241 279.681857 
L 201.431882 279.249244 
L 201.530095 279.142572 
L 201.628309 279.486839 
L 201.726522 279.380167 
L 201.824736 279.047966 
L 201.922949 279.166772 
L 202.119376 279.066091 
L 202.21759 279.184922 
L 202.315803 279.078175 
L 202.414017 279.197022 
L 202.51223 279.090258 
L 202.610444 278.757831 
L 202.708657 278.876679 
L 202.806871 278.657025 
L 202.905084 278.775881 
L 203.199725 278.568184 
L 203.297938 278.574183 
L 203.494365 278.699081 
L 203.690792 278.372352 
L 203.887219 278.271386 
L 203.985433 278.27736 
L 204.083646 278.170386 
L 204.18186 278.289309 
L 204.280073 278.069353 
L 204.378287 278.188285 
L 204.771141 277.873127 
L 204.869354 277.992084 
L 205.065781 277.551852 
L 205.163995 277.78385 
L 205.262208 277.676733 
L 205.360422 277.795715 
L 205.556849 277.581431 
L 205.655062 277.474264 
L 205.753276 277.706354 
L 205.851489 277.259879 
L 205.949703 277.378878 
L 206.244343 277.170308 
L 206.342557 277.17619 
L 206.44077 276.955772 
L 206.538984 277.187955 
L 206.735411 277.086544 
L 206.833624 277.092418 
L 207.226478 276.663044 
L 207.324692 276.895336 
L 207.717546 276.465727 
L 207.815759 276.811353 
L 208.012186 276.369913 
L 208.1104 276.489021 
L 208.503254 276.172336 
L 208.601467 276.291469 
L 208.797894 275.963028 
L 208.896108 276.08217 
L 208.994321 276.087959 
L 209.288962 275.765149 
L 209.387175 275.884316 
L 209.485389 275.663268 
L 209.681816 275.901635 
L 209.976456 275.465146 
L 210.07467 275.470885 
L 210.271097 275.595842 
L 210.663951 275.16479 
L 210.762164 275.397543 
L 210.860378 275.062691 
L 210.958591 275.295469 
L 211.155018 274.966256 
L 211.253232 275.199076 
L 211.449659 275.096927 
L 211.547872 274.648287 
L 211.646086 274.881149 
L 211.744299 274.659632 
L 211.842513 274.892528 
L 211.940726 274.670977 
L 212.03894 274.790278 
L 212.33358 274.46636 
L 212.530007 274.591341 
L 212.726434 274.375295 
L 212.824648 274.267247 
L 212.922861 274.500294 
L 213.217502 274.176074 
L 213.315715 274.295441 
L 213.512142 274.079211 
L 213.806783 274.096077 
L 213.904996 273.760336 
L 214.101423 273.885334 
L 214.29785 273.668902 
L 214.396064 273.78832 
L 214.592491 273.571821 
L 214.788918 273.696845 
L 214.985345 273.480261 
L 215.181772 273.377508 
L 215.279985 273.383071 
L 215.378199 273.160807 
L 215.476412 273.50812 
L 215.771053 273.069046 
L 216.065693 272.857716 
L 216.163907 272.863238 
L 216.26212 272.640781 
L 216.360334 272.87428 
L 216.556761 272.771309 
L 216.753188 272.782335 
L 217.047828 272.342648 
L 217.244255 272.46768 
L 217.342469 272.473168 
L 217.735323 272.152774 
L 217.833536 272.158237 
L 217.93175 272.277832 
L 218.324604 271.95722 
L 218.422817 271.962665 
L 218.521031 271.853929 
L 218.619244 271.973557 
L 218.815671 271.756034 
L 218.913885 271.647248 
L 219.012098 271.881117 
L 219.208525 271.549269 
L 219.306739 271.554681 
L 219.404952 271.331578 
L 219.503166 271.45124 
L 219.601379 271.342369 
L 219.699593 271.462047 
L 220.092447 271.140714 
L 220.19066 271.146092 
L 220.387087 271.042508 
L 220.485301 271.162229 
L 220.583514 270.938891 
L 220.779941 271.06399 
L 221.074582 270.7369 
L 221.172795 270.971062 
L 221.369222 270.63851 
L 221.467436 270.643847 
L 221.663863 270.540069 
L 221.86029 270.550726 
L 222.056717 270.21793 
L 222.15493 270.452219 
L 222.449571 270.010107 
L 222.547784 270.12992 
L 222.645998 270.135215 
L 222.744211 269.911424 
L 222.842425 270.145805 
L 222.940638 269.92198 
L 223.038852 270.041826 
L 223.235279 269.708644 
L 223.431706 269.94837 
L 223.628133 269.615071 
L 223.922773 269.630829 
L 224.1192 269.297354 
L 224.217414 269.531919 
L 224.413841 269.313037 
L 224.610268 269.438195 
L 224.806695 269.104509 
L 225.003122 269.229667 
L 225.297762 269.015802 
L 225.395976 269.135775 
L 225.494189 268.796652 
L 225.592403 269.03141 
L 225.690616 268.692228 
L 225.78883 268.812209 
L 226.08347 268.598109 
L 226.181684 268.603278 
L 226.279897 268.493602 
L 226.476324 268.618785 
L 226.770965 268.174744 
L 226.869178 268.294775 
L 226.967392 268.299919 
L 227.163819 268.080365 
L 227.262032 268.31535 
L 227.458459 267.9808 
L 227.556673 267.870965 
L 227.851313 268.116254 
L 228.440594 267.571868 
L 228.538808 267.691991 
L 228.735235 267.357013 
L 228.833448 267.362081 
L 228.931662 267.482221 
L 229.029875 267.257138 
L 229.226302 267.382354 
L 229.422729 267.277377 
L 229.520943 267.397559 
L 229.619156 267.057236 
L 229.71737 267.177418 
L 229.815583 267.067323 
L 229.913797 267.187521 
L 230.208437 266.857133 
L 230.306651 266.977349 
L 230.699505 266.536597 
L 230.895932 266.777078 
L 231.288786 266.336058 
L 231.386999 266.571605 
L 231.583426 266.235713 
L 231.779853 266.36098 
L 231.97628 266.024953 
L 232.074494 266.145252 
L 232.369134 265.929424 
L 232.663775 265.944277 
L 232.761988 266.064626 
L 233.253056 265.512218 
L 233.351269 265.748034 
L 233.449483 265.522052 
L 233.64591 265.647361 
L 233.744123 265.305838 
L 233.842337 265.541721 
L 234.038764 265.205032 
L 234.136977 265.32544 
L 234.235191 265.445866 
L 234.628045 264.887709 
L 234.726258 265.008143 
L 234.824472 265.244168 
L 235.020899 264.791585 
L 235.217326 264.91691 
L 235.315539 264.921777 
L 235.708393 264.478642 
L 235.806607 264.599135 
L 236.101247 264.382291 
L 236.297674 264.391941 
L 236.592315 264.174964 
L 236.690528 264.295506 
L 236.788742 264.068837 
L 236.886955 264.189388 
L 237.083382 263.967468 
L 237.181596 264.203813 
L 237.378023 263.866049 
L 237.57445 263.991425 
L 237.672663 263.764579 
L 237.770877 263.885181 
L 237.86909 263.658293 
L 237.967304 263.778903 
L 238.065517 263.551974 
L 238.163731 263.788452 
L 238.261944 263.44562 
L 238.360158 263.566247 
L 238.458371 263.455119 
L 238.556585 263.575763 
L 238.753012 263.353457 
L 239.145866 263.372421 
L 239.636933 262.816194 
L 239.83336 263.057599 
L 240.128001 262.83969 
L 240.226214 262.844389 
L 240.422641 262.62168 
L 240.520855 262.626362 
L 240.619068 262.747115 
L 240.815495 262.408235 
L 240.913709 262.645091 
L 241.011922 262.301462 
L 241.110136 262.538344 
L 241.601203 262.097097 
L 241.699417 262.101737 
L 241.79763 262.222548 
L 242.092271 262.004102 
L 242.190484 262.008734 
L 242.288698 261.897153 
L 242.485125 262.13886 
L 242.681552 261.683155 
L 242.779765 261.804016 
L 242.976192 261.464432 
L 243.074406 261.585302 
L 243.172619 261.5899 
L 243.270833 261.361905 
L 243.369046 261.599097 
L 243.565473 261.37565 
L 243.663687 261.380231 
L 243.7619 261.268474 
L 243.860114 261.389394 
L 243.958327 261.161265 
L 244.056541 261.282194 
L 244.351181 261.063135 
L 244.449395 261.184089 
L 244.744035 260.848515 
L 244.842249 260.969486 
L 244.940462 260.857595 
L 245.038676 260.978582 
L 245.136889 260.750218 
L 245.235103 260.871213 
L 245.333316 260.526334 
L 245.43153 260.64733 
L 245.529743 260.535363 
L 245.627957 260.656376 
L 245.824384 260.315877 
L 245.922597 260.553421 
L 246.315451 260.221808 
L 246.413665 260.342863 
L 246.806519 260.011057 
L 246.904732 260.132136 
L 247.101159 259.90785 
L 247.297586 260.033419 
L 247.494013 259.809049 
L 247.592227 259.813505 
L 247.69044 259.584612 
L 247.788654 259.822416 
L 248.181508 259.49009 
L 248.377935 259.498951 
L 248.574362 259.274312 
L 248.672575 259.395484 
L 248.869002 259.287554 
L 248.967216 259.408751 
L 249.261856 258.954783 
L 249.458283 259.197211 
L 249.65471 258.855495 
L 249.752924 259.093576 
L 250.047564 258.639264 
L 250.243991 258.764884 
L 250.538632 258.544164 
L 250.636845 258.548519 
L 250.833272 258.440286 
L 251.226126 258.457672 
L 251.422553 257.998393 
L 251.61898 258.241039 
L 251.913621 258.019958 
L 252.110048 258.145636 
L 252.208261 257.915837 
L 252.306475 258.03721 
L 252.502902 257.811665 
L 252.601115 257.933056 
L 252.895756 257.711731 
L 253.190396 257.724595 
L 253.485037 257.50312 
L 253.58325 257.507391 
L 253.681464 257.27729 
L 253.779677 257.515933 
L 253.877891 257.168595 
L 254.074318 257.411527 
L 254.270745 257.068342 
L 254.467172 257.194071 
L 254.761812 256.972252 
L 254.958239 256.98071 
L 255.154666 256.637232 
L 255.25288 256.758756 
L 255.351093 256.762969 
L 255.449307 256.884518 
L 255.645734 256.423544 
L 255.743947 256.779818 
L 255.940374 256.436105 
L 256.136801 256.44448 
L 256.235015 256.331262 
L 256.333228 256.452854 
L 256.627869 256.113102 
L 256.726082 256.23471 
L 257.21715 255.785609 
L 257.315363 256.024739 
L 257.51179 255.680506 
L 257.610004 256.0372 
L 257.806431 255.692891 
L 258.002858 255.701148 
L 258.101071 255.587713 
L 258.199285 255.709405 
L 258.297498 255.478372 
L 258.395712 255.600073 
L 258.592139 255.373102 
L 258.690352 255.612433 
L 258.886779 255.267781 
L 258.984993 255.036597 
L 259.18142 255.280065 
L 259.377847 255.288255 
L 259.574274 254.943376 
L 259.672487 255.182842 
L 260.065341 254.845993 
L 260.261768 254.854115 
L 260.458195 254.626707 
L 260.654622 254.870361 
L 260.851049 254.525087 
L 260.949263 254.529123 
L 261.047476 254.650975 
L 261.14569 254.419371 
L 261.243903 254.541232 
L 261.538544 254.317625 
L 261.636757 254.321644 
L 261.833184 254.2118 
L 262.029611 254.219822 
L 262.422465 253.882067 
L 262.618892 254.007989 
L 262.815319 253.662077 
L 262.913533 253.901996 
L 263.208173 253.559953 
L 263.306387 253.799931 
L 263.4046 253.449857 
L 263.502814 253.571835 
L 263.699241 253.461714 
L 263.797454 253.583717 
L 263.993881 253.355504 
L 264.288522 253.13115 
L 264.386735 253.253178 
L 264.484949 253.020895 
L 264.681376 253.383111 
L 264.877803 253.03657 
L 264.976016 253.040488 
L 265.270657 252.815892 
L 265.36887 252.819794 
L 265.467084 252.941889 
L 265.761724 252.717183 
L 265.859938 252.721076 
L 266.056365 252.61062 
L 266.154578 252.614505 
L 266.252792 252.381869 
L 266.449219 252.62616 
L 266.645646 252.279049 
L 266.940286 252.290629 
L 267.234927 251.828832 
L 267.33314 251.951011 
L 267.431354 252.073206 
L 267.529567 251.840311 
L 267.627781 251.962515 
L 267.824208 251.85179 
L 268.020635 251.977854 
L 268.118848 251.981689 
L 268.217062 251.748667 
L 268.315275 251.870922 
L 268.511702 251.523215 
L 268.609916 251.763939 
L 268.708129 251.530817 
L 268.806343 251.653097 
L 269.00277 251.542221 
L 269.100983 251.546022 
L 269.199197 251.075775 
L 269.395624 251.320368 
L 269.493837 251.205615 
L 269.592051 251.446482 
L 269.690264 251.094613 
L 269.788478 251.216943 
L 269.886691 250.983578 
L 269.984905 251.105916 
L 270.181332 250.994855 
L 270.377759 251.002374 
L 270.770613 250.542826 
L 270.868826 250.902515 
L 271.065253 250.672674 
L 271.163467 250.557728 
L 271.26168 250.680142 
L 271.458107 250.331495 
L 271.556321 250.691345 
L 271.752748 250.342622 
L 271.850961 250.46507 
L 271.949175 250.35004 
L 272.047388 250.59126 
L 272.145602 250.238694 
L 272.243815 250.361167 
L 272.342029 250.008534 
L 272.440242 250.249795 
L 272.636669 249.900779 
L 272.734883 250.142083 
L 272.93131 249.911805 
L 273.127737 249.919156 
L 273.22595 250.041687 
L 273.324164 249.569913 
L 273.422377 249.930182 
L 273.520591 249.577213 
L 273.618804 249.818643 
L 273.815231 249.588164 
L 273.913445 249.710729 
L 274.011658 249.595464 
L 274.109872 249.718046 
L 274.306299 249.368518 
L 274.404512 249.372151 
L 274.502726 249.25682 
L 274.699153 249.383052 
L 274.89558 249.27132 
L 274.993793 249.274945 
L 275.19022 249.103659 
L 275.386647 249.051363 
L 276.270569 248.547814 
L 276.368782 248.789634 
L 276.565209 248.498955 
L 276.761636 248.506087 
L 277.15449 248.281969 
L 277.252704 248.404718 
L 277.350917 248.348672 
L 277.449131 248.113792 
L 277.547344 248.236554 
L 277.940198 248.131476 
L 278.038412 248.135013 
L 278.136625 247.840361 
L 278.333052 248.026331 
L 278.431266 247.850909 
L 278.627693 247.85794 
L 279.020547 247.513951 
L 279.11876 247.75616 
L 279.413401 247.527913 
L 279.904468 247.366227 
L 280.100895 247.313462 
L 280.297322 247.200949 
L 280.493749 247.148142 
L 280.886603 247.042477 
L 280.984817 247.105689 
L 281.181244 246.813764 
L 281.574098 246.827509 
L 281.770525 246.714795 
L 282.163379 246.549077 
L 282.261592 246.612306 
L 282.556233 246.383258 
L 282.654446 246.32683 
L 282.75266 246.509733 
L 282.850873 246.273787 
L 282.949087 246.337025 
L 283.145514 246.044563 
L 283.243727 246.227508 
L 284.324076 245.665777 
L 284.520503 245.672473 
L 284.618716 245.675821 
L 284.71693 245.499413 
L 284.815143 245.562671 
L 285.01157 245.389556 
L 285.502638 245.346239 
L 285.699065 245.173002 
L 285.797278 245.176313 
L 285.895492 245.059684 
L 285.993705 245.182933 
L 286.091919 245.006311 
L 286.190132 245.06959 
L 286.386559 244.776243 
L 286.484773 245.079496 
L 286.582986 244.902802 
L 286.6812 244.966094 
L 286.877627 244.792648 
L 286.97584 244.855944 
L 287.270481 244.625687 
L 288.056189 244.291465 
L 288.154402 244.41484 
L 288.252616 244.237881 
L 288.547256 244.307681 
L 288.64547 244.070577 
L 288.841897 244.07703 
L 289.038324 244.023379 
L 289.234751 243.9096 
L 289.431178 243.855907 
L 289.824032 243.56806 
L 289.922245 243.751673 
L 290.118672 243.577626 
L 290.413313 243.52703 
L 290.90438 243.362402 
L 291.002594 243.365574 
L 291.100807 243.067788 
L 291.199021 243.251526 
L 291.297234 243.19449 
L 291.395448 243.318057 
L 291.591875 243.083542 
L 291.690088 243.026476 
L 291.788302 243.150065 
L 292.082942 242.737895 
L 292.181156 242.741021 
L 292.377583 242.867765 
L 292.475796 242.690147 
L 292.770437 242.759775 
L 292.86865 242.762901 
L 292.966864 242.524941 
L 293.065077 242.588326 
L 293.163291 242.410599 
L 293.261504 242.654836 
L 293.359718 242.4168 
L 293.457931 242.540486 
L 293.556145 242.302408 
L 293.752572 242.429203 
L 293.948999 242.314777 
L 294.636493 242.034709 
L 294.734707 242.158474 
L 294.83292 241.920149 
L 295.029347 241.926275 
L 295.815055 241.528026 
L 296.011482 241.594494 
L 296.306123 241.301537 
L 296.404336 241.42539 
L 297.190044 241.086879 
L 297.288258 241.150335 
L 297.484685 240.914486 
L 297.681112 240.92046 
L 297.877539 240.805472 
L 298.073966 240.81143 
L 298.172179 240.632928 
L 298.270393 240.696392 
L 298.368606 240.578358 
L 298.565033 240.644793 
L 298.663247 240.466215 
L 298.76146 240.590207 
L 298.957887 240.414549 
L 299.056101 240.235904 
L 299.154314 240.359912 
L 299.350741 240.244715 
L 299.448955 240.368748 
L 299.547168 240.190036 
L 299.645382 240.253526 
L 299.940022 240.020059 
L 300.038236 240.083553 
L 300.234663 239.847074 
L 300.332876 239.971154 
L 300.922157 239.685593 
L 301.020371 239.870335 
L 301.118584 239.630764 
L 301.315011 239.636545 
L 301.413225 239.457539 
L 301.609652 239.584577 
L 302.100719 239.356364 
L 302.198933 239.419899 
L 302.39536 239.304299 
L 302.493573 239.307164 
L 302.788213 239.012307 
L 302.98464 239.139394 
L 303.181067 238.90227 
L 303.475708 238.910778 
L 303.672135 238.794993 
L 303.966775 238.742736 
L 304.163202 238.809133 
L 304.359629 238.510998 
L 304.457843 238.696092 
L 304.752483 238.400676 
L 304.850697 238.403474 
L 304.94891 238.223923 
L 305.047124 238.348284 
L 305.341764 238.113466 
L 305.439978 238.237852 
L 306.225686 237.895113 
L 306.422113 237.900634 
L 306.61854 237.723592 
L 306.716753 237.908916 
L 306.814967 237.546499 
L 306.91318 237.731836 
L 307.109607 237.554706 
L 307.207821 237.557441 
L 307.306034 237.438409 
L 307.600675 237.507487 
L 307.797102 237.26933 
L 307.895315 237.393863 
L 308.189956 237.158345 
L 308.386383 237.102827 
L 308.484596 237.288332 
L 308.58281 236.986354 
L 308.975664 237.119039 
L 309.073877 236.816944 
L 309.172091 237.002516 
L 309.466731 236.705715 
L 309.564945 236.708388 
L 309.663158 236.589091 
L 309.761372 236.774722 
L 309.957799 236.536087 
L 310.056012 236.660749 
L 310.154226 236.480401 
L 310.252439 236.544067 
L 310.350653 236.363685 
L 310.448866 236.488369 
L 310.54708 236.307957 
L 310.645293 236.432654 
L 310.743507 236.313244 
L 310.84172 236.376922 
L 310.939934 236.196452 
L 311.234574 236.265408 
L 311.332788 236.268047 
L 311.431001 235.965385 
L 311.627428 236.03169 
L 312.118496 235.800443 
L 312.314923 235.866752 
L 313.100631 235.520841 
L 313.493485 235.47003 
L 313.689912 235.291721 
L 313.788125 235.294289 
L 313.984552 235.115917 
L 314.082766 235.179645 
L 314.279193 235.0624 
L 314.377406 235.248509 
L 314.47562 235.006312 
L 314.672047 235.011405 
L 314.77026 234.891546 
L 314.868474 235.016499 
L 314.966687 234.774201 
L 315.163114 234.9017 
L 315.261328 234.598119 
L 315.359541 234.78432 
L 315.948822 234.554488 
L 316.047036 234.557001 
L 316.145249 234.436991 
L 316.243463 234.562027 
L 316.341676 234.319461 
L 316.538103 234.44701 
L 316.636317 234.265667 
L 316.73453 234.329446 
L 316.832744 234.14807 
L 317.029171 234.336935 
L 317.225598 234.096697 
L 317.520238 234.165456 
L 317.716665 233.863781 
L 318.109519 233.812287 
L 318.207733 233.692046 
L 318.40416 233.696946 
L 318.6988 233.642926 
L 318.895227 233.647818 
L 319.091654 233.468548 
L 319.288081 233.412019 
L 319.680935 233.176086 
L 319.877362 233.365174 
L 320.073789 233.062877 
L 320.172003 233.188149 
L 320.270216 232.94481 
L 320.564857 233.013447 
L 321.055924 232.841033 
L 321.252351 232.845808 
L 321.448778 232.666118 
L 321.743419 232.734743 
L 322.529127 232.2615 
L 322.725554 232.389276 
L 322.921981 232.20933 
L 323.118408 232.337131 
L 323.413048 231.913176 
L 323.609475 232.040977 
L 323.805902 231.860868 
L 323.904116 231.863184 
L 324.100543 231.683012 
L 324.198756 231.808526 
L 324.29697 231.626009 
L 324.493397 231.630607 
L 324.689824 231.635206 
L 324.886251 231.454899 
L 325.180891 231.523406 
L 325.770172 231.29046 
L 325.966599 231.233327 
L 326.064813 231.112227 
L 326.163026 231.176178 
L 326.457667 230.936166 
L 326.654094 230.878953 
L 326.752307 230.757769 
L 327.046948 230.826205 
L 327.243375 230.76895 
L 327.439802 230.588191 
L 327.538015 230.713911 
L 327.734442 230.656618 
L 327.832656 230.720607 
L 327.930869 230.599309 
L 328.029083 230.292687 
L 328.22551 230.544202 
L 328.323723 230.361076 
L 328.421937 230.425069 
L 328.52015 230.24191 
L 328.716577 230.431703 
L 328.913004 230.12709 
L 329.011218 230.191091 
L 329.109431 229.946024 
L 329.207645 230.13366 
L 329.404072 229.952557 
L 329.600499 229.956912 
L 329.796926 229.899422 
L 329.895139 230.025293 
L 330.091566 229.72037 
L 330.18978 229.846254 
L 330.48442 229.543391 
L 330.779061 229.673609 
L 331.073701 229.432481 
L 331.171915 229.558428 
L 331.270128 229.498668 
L 331.368342 229.191253 
L 331.466555 229.317208 
L 331.859409 229.201868 
L 331.957623 229.327865 
L 332.252263 228.962561 
L 332.350477 229.088575 
L 332.546904 229.092804 
L 332.645117 229.218852 
L 332.841544 228.789274 
L 332.939758 228.977305 
L 333.136185 228.733568 
L 333.234398 228.735657 
L 333.332612 228.613755 
L 333.430825 228.739836 
L 333.529039 228.617917 
L 333.725466 228.622079 
L 333.823679 228.43811 
L 333.921893 228.688262 
L 334.11832 228.506345 
L 334.314747 228.386414 
L 334.41296 228.45052 
L 334.707601 228.208508 
L 335.002241 228.27673 
L 335.198668 228.03254 
L 335.296882 228.282897 
L 335.689736 227.918542 
L 335.886163 228.046813 
L 336.08259 227.740325 
L 336.180803 227.742343 
L 336.279017 227.868604 
L 337.162938 227.327408 
L 337.359365 227.517889 
L 337.555792 227.397539 
L 337.850433 227.341329 
L 337.948646 227.343318 
L 338.04686 227.096518 
L 338.439714 227.228834 
L 338.636141 226.921683 
L 339.225422 226.871191 
L 339.618276 226.754483 
L 339.814703 226.82065 
L 339.912916 226.573493 
L 340.01113 226.637708 
L 340.207557 226.454717 
L 340.403984 226.458568 
L 340.502197 226.273588 
L 340.600411 226.524726 
L 340.895051 226.281241 
L 340.993265 226.283154 
L 341.091478 226.098086 
L 341.287905 226.226558 
L 341.484332 226.043344 
L 341.680759 226.109489 
L 341.778973 225.861964 
L 341.877186 226.11329 
L 342.073613 225.867615 
L 342.368254 225.935648 
L 343.252175 225.515704 
L 343.448602 225.519421 
L 343.546816 225.396416 
L 343.743243 225.462557 
L 344.037883 225.405667 
L 344.136097 225.407517 
L 344.23431 225.09706 
L 344.528951 225.165022 
L 344.823591 224.983063 
L 345.020018 225.111694 
L 345.216445 224.865339 
L 345.412872 224.743941 
L 345.609299 224.935109 
L 345.707513 224.749353 
L 345.805726 224.813686 
L 346.002153 224.567154 
L 346.100367 224.756569 
L 346.296794 224.509979 
L 346.395007 224.636874 
L 347.180715 224.213129 
L 347.377142 224.341853 
L 347.475356 224.093228 
L 347.573569 224.220194 
L 348.261064 223.919391 
L 348.359277 223.983774 
L 348.457491 223.797598 
L 348.752131 223.865463 
L 349.243199 223.623468 
L 349.341412 223.687872 
L 349.439626 223.501549 
L 349.537839 223.565953 
L 349.636053 223.379596 
L 349.734266 223.569393 
L 350.028907 223.323718 
L 350.12712 223.450847 
L 350.225334 223.264407 
L 350.323547 223.391549 
L 350.618188 223.145736 
L 350.716401 223.084688 
L 350.814615 223.21186 
L 351.011042 222.901495 
L 351.207469 223.155881 
L 351.993177 222.729857 
L 352.189604 222.795981 
L 352.386031 222.485264 
L 352.582458 222.614189 
L 352.680671 222.427376 
L 352.778885 222.743148 
L 352.975312 222.495132 
L 353.171739 222.435578 
L 353.368166 222.313156 
L 353.662806 222.192323 
L 353.76102 222.256816 
L 353.859233 222.069826 
L 354.252087 222.202066 
L 354.448514 221.953722 
L 354.546728 222.018231 
L 354.743155 221.769811 
L 354.841368 221.960149 
L 355.627076 221.595316 
L 356.118144 221.540255 
L 356.216357 221.352913 
L 356.314571 221.480433 
L 356.412784 221.356043 
L 356.609211 221.359173 
L 356.707425 221.360738 
L 356.805638 221.236306 
L 356.903852 221.300865 
L 357.100279 221.051942 
L 357.198492 221.242532 
L 357.885987 220.938205 
L 357.9842 221.002789 
L 358.082414 220.878223 
L 358.180627 220.942811 
L 358.377054 220.69362 
L 358.671695 220.698177 
L 358.966335 220.45037 
L 359.064549 220.578062 
L 359.162762 220.453374 
L 359.359189 220.582593 
L 359.65383 220.334644 
L 359.752043 220.336137 
L 359.94847 220.149726 
L 360.046684 220.277481 
L 360.537751 220.095455 
L 360.832392 220.036715 
L 361.127032 219.851583 
L 361.225246 219.979418 
L 361.323459 219.72812 
L 361.421673 219.792768 
L 361.519886 219.667824 
L 361.6181 219.79568 
L 362.010954 219.61184 
L 362.207381 219.677956 
L 362.305594 219.42647 
L 362.403808 219.617614 
L 362.894875 219.371796 
L 362.993089 219.436485 
L 363.091302 219.184848 
L 363.189516 219.376075 
L 363.385943 219.189089 
L 363.484156 219.317071 
L 364.171651 219.010461 
L 364.269864 219.138497 
L 364.564505 218.762747 
L 364.662718 218.954134 
L 364.957359 218.704938 
L 365.153786 218.707699 
L 365.251999 218.582361 
L 365.350213 218.710459 
L 365.939494 218.401798 
L 366.037707 218.46655 
L 366.135921 218.277723 
L 366.234134 218.469278 
L 366.528775 218.219713 
L 366.725202 218.285829 
L 367.609123 217.790307 
L 367.903764 217.921205 
L 368.001977 217.795577 
L 368.100191 217.923856 
L 368.296618 217.672551 
L 368.394831 217.800847 
L 368.984112 217.491158 
L 369.082326 217.555977 
L 369.180539 217.430223 
L 369.376966 217.496343 
L 369.47518 217.243481 
L 369.573393 217.371848 
L 369.966247 217.249879 
L 370.162674 217.188869 
L 370.359101 217.064265 
L 370.457315 217.129114 
L 370.555528 216.876042 
L 370.751955 217.069334 
L 371.635877 216.635313 
L 371.832304 216.701429 
L 371.930517 216.511737 
L 372.323371 216.643977 
L 372.519798 216.391773 
L 372.716225 216.521571 
L 373.600147 216.086624 
L 373.796574 216.152748 
L 373.894787 215.962766 
L 373.993001 216.091423 
L 374.582282 215.843591 
L 374.680495 215.844774 
L 374.975136 215.593225 
L 375.073349 215.785728 
L 375.269776 215.532937 
L 375.36799 215.597891 
L 375.466203 215.471466 
L 375.564417 215.600223 
L 376.153698 215.351922 
L 376.350125 215.290387 
L 376.448338 215.227695 
L 376.546552 215.35652 
L 376.644765 215.102286 
L 376.742979 215.231119 
L 377.234046 214.98134 
L 377.33226 215.04634 
L 377.430473 214.919709 
L 377.528687 214.984713 
L 377.725114 214.795286 
L 378.216181 214.736932 
L 378.903676 214.424973 
L 379.001889 214.426059 
L 379.100103 214.618999 
L 379.29653 214.36536 
L 379.394743 214.366443 
L 379.492957 214.23959 
L 379.59117 214.432579 
L 379.689384 214.241738 
L 379.787597 214.370772 
L 379.984024 214.180971 
L 380.180451 214.247108 
L 380.278665 214.056178 
L 380.376878 214.249256 
L 380.769732 213.997464 
L 380.867946 214.126574 
L 381.064373 214.000636 
L 381.162586 214.001693 
L 381.2608 213.746577 
L 381.457227 213.748658 
L 381.948294 213.817933 
L 382.144721 213.499618 
L 382.341148 213.501666 
L 382.537575 213.439615 
L 382.832216 213.378564 
L 382.930429 213.507808 
L 383.028643 213.316475 
L 383.22507 213.382625 
L 383.421497 213.192249 
L 383.51971 213.257391 
L 383.617924 213.065967 
L 383.912564 213.133106 
L 384.207205 212.879426 
L 384.403632 212.881389 
L 384.796486 212.821122 
L 384.992913 212.630469 
L 385.091126 212.824055 
L 385.385767 212.50589 
L 385.582194 212.636259 
L 385.680407 212.380296 
L 385.876834 212.510673 
L 385.975048 212.447385 
L 386.073261 212.576835 
L 386.760756 212.26217 
L 386.957183 212.392623 
L 387.055396 212.136408 
L 387.15361 212.201635 
L 387.251823 212.009673 
L 387.350037 212.074899 
L 387.44825 211.947211 
L 387.644677 212.206313 
L 387.841104 211.886562 
L 387.939318 211.951805 
L 388.037531 211.824059 
L 388.135745 211.889306 
L 388.233958 211.761539 
L 388.430385 211.827701 
L 388.528599 211.571196 
L 388.725026 211.701708 
L 388.921453 211.510401 
L 389.11788 211.51218 
L 389.314307 211.449571 
L 389.41252 211.386065 
L 389.510734 211.580133 
L 389.608947 211.387827 
L 389.707161 211.453112 
L 389.805374 211.131957 
L 390.001801 211.326935 
L 390.198228 211.070989 
L 390.296442 211.265136 
L 390.492869 211.138007 
L 390.983936 210.948952 
L 391.180363 211.015123 
L 391.278577 210.758094 
L 391.475004 210.953211 
L 391.867858 210.634136 
L 391.966071 210.828468 
L 392.653566 210.447192 
L 392.849993 210.513367 
L 393.144633 210.322181 
L 393.242847 210.516656 
L 393.34106 210.259242 
L 393.439274 210.324611 
L 393.537487 210.196285 
L 393.635701 210.261658 
L 393.733914 210.133312 
L 394.028555 210.200292 
L 394.126768 210.1365 
L 394.224982 209.814312 
L 394.323195 209.944291 
L 394.421409 209.88047 
L 394.519622 210.01047 
L 394.814263 209.948214 
L 394.912476 209.948999 
L 395.108903 209.756663 
L 395.501757 209.759751 
L 395.599971 209.889835 
L 395.796398 209.697403 
L 395.992825 209.504921 
L 396.189252 209.506432 
L 396.287465 209.377816 
L 396.483892 209.444004 
L 396.582106 209.315359 
L 396.680319 209.445506 
L 396.778533 209.187432 
L 396.876746 209.317587 
L 396.97496 209.059472 
L 397.073173 209.189635 
L 397.171387 209.125646 
L 397.2696 209.320558 
L 397.858881 209.066004 
L 398.153522 209.003417 
L 398.349949 208.810541 
L 398.448162 208.81125 
L 398.546376 208.682395 
L 398.742803 208.683797 
L 398.93923 208.749996 
L 399.135657 208.556986 
L 399.23387 208.6873 
L 399.332084 208.55837 
L 399.430297 208.623882 
L 399.626724 208.495619 
L 399.823151 208.496996 
L 399.921365 208.368003 
L 400.117792 208.49906 
L 400.314219 208.305865 
L 400.412432 208.371401 
L 400.510646 208.177484 
L 400.608859 208.372761 
L 400.707073 208.113945 
L 401.001713 208.18082 
L 401.099927 207.986815 
L 401.296354 208.053023 
L 401.394567 207.923875 
L 401.590994 207.990088 
L 401.689208 207.86091 
L 401.885635 207.927127 
L 401.983848 207.79792 
L 402.082062 207.863495 
L 402.180275 207.604393 
L 402.278489 207.864787 
L 402.474916 207.671231 
L 402.573129 207.866725 
L 402.671343 207.60754 
L 402.769556 207.738094 
L 402.86777 207.478866 
L 402.965983 207.609428 
L 403.457051 207.417601 
L 403.555264 207.418217 
L 403.653478 207.223835 
L 403.849905 207.420068 
L 404.537399 207.03416 
L 404.733826 207.165435 
L 404.930253 206.971472 
L 405.323107 206.90875 
L 405.421321 206.714107 
L 405.715961 206.845995 
L 405.912388 206.71696 
L 406.108815 206.718101 
L 406.207029 206.718672 
L 406.403456 206.589579 
L 406.698096 206.591265 
L 406.992737 206.26724 
L 407.09095 206.463221 
L 407.287377 206.203708 
L 407.385591 206.334564 
L 407.582018 206.335655 
L 407.680231 206.3362 
L 407.876658 206.206931 
L 408.367726 205.88361 
L 408.564153 206.14548 
L 408.76058 205.950892 
L 409.05522 205.952453 
L 409.153434 205.822504 
L 409.251647 206.018732 
L 409.349861 205.823527 
L 409.448074 205.889287 
L 409.546288 205.694048 
L 409.644501 205.759807 
L 409.742715 205.564535 
L 409.840928 205.695559 
L 409.939142 205.434989 
L 410.233782 205.632291 
L 410.430209 205.502711 
L 410.528423 205.503202 
L 410.626636 205.3078 
L 411.01949 205.440342 
L 411.215917 205.049379 
L 411.314131 205.245821 
L 411.805198 205.052148 
L 411.903412 205.248666 
L 412.099839 204.988172 
L 412.394479 204.858797 
L 412.492693 204.990001 
L 412.590906 204.859695 
L 412.68912 204.92553 
L 412.98376 204.665296 
L 413.180187 204.862389 
L 413.278401 204.601194 
L 413.376614 204.732456 
L 413.474828 204.536639 
L 413.573041 204.667914 
L 413.769468 204.472491 
L 413.965895 204.604219 
L 414.064109 204.408317 
L 414.162322 204.605083 
L 414.555176 204.214019 
L 414.65339 204.410835 
L 415.144457 204.085479 
L 415.242671 204.216867 
L 415.537311 204.021566 
L 415.635525 204.152984 
L 415.733738 203.891323 
L 415.930165 204.088668 
L 416.715873 203.69851 
L 416.814087 203.830007 
L 416.9123 203.63369 
L 417.108727 203.700003 
L 417.206941 203.438061 
L 417.403368 203.635536 
L 417.698008 203.374245 
L 417.796222 203.374597 
L 417.894435 203.571774 
L 418.090862 203.244421 
L 418.189076 203.507248 
L 418.287289 203.376359 
L 418.385503 203.442341 
L 418.58193 203.180504 
L 418.974784 203.181864 
L 419.171211 202.919892 
L 419.367638 203.117552 
L 419.465851 202.920862 
L 419.564065 202.986864 
L 419.662278 202.79014 
L 419.956919 202.856781 
L 420.251559 202.857737 
L 420.349773 202.72663 
L 420.447986 202.792658 
L 420.644413 202.59611 
L 420.84084 202.85965 
L 421.037267 202.400091 
L 421.135481 202.531874 
L 421.724762 202.204802 
L 421.921189 202.402697 
L 422.608683 202.009866 
L 422.706897 202.075944 
L 422.80511 201.944577 
L 422.903324 202.076481 
L 423.197964 201.879783 
L 423.296178 202.011716 
L 423.394391 201.880294 
L 423.492605 202.078092 
L 423.689032 201.749351 
L 423.787245 201.881318 
L 423.885459 201.618118 
L 424.081886 201.816213 
L 424.180099 201.552958 
L 424.278313 201.750836 
L 424.867594 201.488697 
L 425.064021 201.489159 
L 425.162234 201.291634 
L 425.358661 201.423924 
L 425.456875 201.292288 
L 425.653302 201.358664 
L 425.947942 201.095522 
L 426.046156 201.293597 
L 426.144369 201.095933 
L 426.340796 201.228283 
L 427.028291 200.83379 
L 427.126504 200.965984 
L 427.322931 200.768346 
L 427.617572 200.834923 
L 427.813999 200.637205 
L 428.010426 200.703598 
L 428.206853 200.505813 
L 428.40328 200.506148 
L 428.501493 200.506316 
L 428.599707 200.638615 
L 428.69792 200.440582 
L 428.796134 200.50682 
L 428.992561 200.308908 
L 429.188988 200.177038 
L 429.385415 200.309529 
L 429.483628 200.309685 
L 429.680055 200.045549 
L 429.778269 200.177919 
L 429.876482 200.045825 
L 429.974696 200.178212 
L 430.072909 200.046102 
L 430.269336 200.112516 
L 430.563977 199.980645 
L 430.760404 200.047072 
L 431.055044 199.650465 
L 431.153258 199.849102 
L 431.251471 199.650691 
L 431.349685 199.783171 
L 431.447898 199.717105 
L 431.546112 199.849605 
L 431.644325 199.584949 
L 431.938966 199.783901 
L 432.037179 199.519173 
L 432.135393 199.717927 
L 432.33182 199.453263 
L 432.528247 199.585931 
L 432.62646 199.32109 
L 432.921101 199.387617 
L 433.510382 199.05682 
L 433.608595 199.189454 
L 433.805022 199.057046 
L 434.197876 199.057348 
L 434.29609 198.858497 
L 434.492517 199.057575 
L 434.59073 198.858686 
L 434.688944 198.9914 
L 435.376438 198.660125 
L 435.474652 198.660175 
L 435.572865 198.527499 
L 435.769292 198.660326 
L 435.867506 198.461249 
L 436.063933 198.527708 
L 436.162146 198.394973 
L 436.358573 198.594231 
L 436.555 198.262297 
L 436.849641 198.32879 
L 437.144281 198.262448 
L 437.635349 197.930317 
L 437.831776 198.063245 
L 437.929989 198.129721 
L 438.028203 197.996802 
L 438.126416 198.063282 
L 438.322843 197.863865 
L 438.421057 197.863865 
L 438.51927 198.063333 
L 438.715697 197.73087 
L 438.813911 197.863865 
L 439.010338 197.664334 
L 439.501405 197.664272 
L 439.697832 197.464628 
L 439.992473 197.531104 
L 440.090686 197.397971 
L 440.1889 197.531062 
L 440.287113 197.331347 
L 440.48354 197.397853 
L 440.974608 197.197924 
L 441.072821 197.26448 
L 441.269248 197.131191 
L 441.367462 197.064534 
L 441.563889 197.264291 
L 441.760316 196.931078 
L 441.858529 197.064283 
L 442.15317 196.864198 
L 442.251383 197.064081 
L 442.44781 196.797352 
L 442.644237 196.797218 
L 442.742451 196.597142 
L 442.840664 196.797084 
L 443.331732 196.529969 
L 443.528159 196.529801 
L 443.724586 196.462922 
L 444.019226 196.529381 
L 444.215653 196.195551 
L 444.313867 196.462393 
L 444.510294 196.195236 
L 444.608507 196.261881 
L 444.706721 196.128273 
L 444.903148 196.194817 
L 445.001361 195.994413 
L 445.099575 196.127836 
L 445.197788 195.927404 
L 445.296002 196.127618 
L 445.394215 195.860378 
L 445.590642 196.0605 
L 445.688856 195.926795 
L 445.885283 195.926552 
L 445.983496 195.92643 
L 446.08171 195.792684 
L 446.37635 195.925944 
L 446.572777 195.725201 
L 446.670991 195.725066 
L 446.769204 195.858615 
L 447.162058 195.456961 
L 447.260272 195.724261 
L 447.554912 195.456357 
L 447.653126 195.456206 
L 447.849553 195.322128 
L 448.144193 195.455451 
L 448.537047 195.254095 
L 448.733474 195.253768 
L 448.929901 194.985705 
L 449.126328 195.052286 
L 449.322755 194.918032 
L 449.420969 195.185668 
L 449.617396 194.984442 
L 449.715609 195.118197 
L 449.813823 194.850138 
L 449.912036 194.983901 
L 450.30489 194.849194 
L 450.403104 194.916002 
L 450.599531 194.714617 
L 450.795958 194.781236 
L 450.894171 194.579989 
L 451.090598 194.579578 
L 451.385239 194.377845 
L 451.483452 194.645799 
L 451.679879 194.444242 
L 451.97452 194.309472 
L 452.072733 194.443386 
L 452.26916 194.241728 
L 452.662014 194.240822 
L 452.858441 194.039064 
L 453.153082 194.10546 
L 453.447722 193.836248 
L 453.742363 193.902632 
L 454.135217 193.700173 
L 454.429857 193.766561 
L 454.822711 193.631166 
L 454.920925 193.698092 
L 455.019138 193.563444 
L 455.313779 193.629845 
L 455.510206 193.427671 
L 455.804846 193.42684 
L 455.90306 193.2921 
L 456.001273 193.426286 
L 456.099487 193.157049 
L 456.295914 193.425456 
L 456.492341 193.155874 
L 456.590554 193.15558 
L 456.688768 193.020756 
L 456.786981 193.356802 
L 456.983408 193.154405 
L 457.081622 193.019547 
L 457.179835 193.153818 
L 457.278049 192.951652 
L 457.376262 193.018641 
L 457.474476 192.883741 
L 457.670903 192.950427 
L 457.86733 192.815183 
L 457.965543 192.882189 
L 458.456611 192.678613 
L 459.045892 192.609309 
L 459.340532 192.47357 
L 459.438746 192.608 
L 459.733386 192.337436 
L 459.8316 192.539291 
L 459.929813 192.269344 
L 460.028027 192.47122 
L 460.12624 192.201236 
L 460.322667 192.335372 
L 460.420881 192.335028 
L 460.617308 191.997174 
L 460.715521 192.131684 
L 460.813735 192.063885 
L 460.911948 192.198416 
L 461.010162 191.928264 
L 461.304802 192.129544 
L 461.697656 191.925679 
L 461.79587 191.992794 
L 461.894083 191.789965 
L 461.992297 191.85708 
L 462.286937 191.788455 
L 462.385151 191.855586 
L 462.483364 191.652674 
L 462.581578 191.787322 
L 462.974432 191.515676 
L 463.072645 191.312667 
L 463.170859 191.514887 
L 463.465499 191.311039 
L 463.563713 191.44575 
L 463.661926 191.377789 
L 463.76014 191.444953 
L 463.858353 191.376983 
L 463.956567 191.444156 
L 464.05478 191.376177 
L 464.152994 191.173022 
L 464.251207 191.375372 
L 464.545848 191.103759 
L 464.644061 191.23855 
L 464.742275 191.17053 
L 464.840488 190.967273 
L 464.938702 191.237317 
L 465.135129 191.033616 
L 465.233342 190.897931 
L 465.331556 191.032768 
L 465.527983 190.896635 
L 465.626196 190.896203 
L 465.72441 190.760468 
L 465.822623 190.962994 
L 466.01905 190.759146 
L 466.117264 190.894042 
L 466.215477 190.690593 
L 466.313691 190.825501 
L 466.608331 190.553435 
L 466.706545 190.756062 
L 466.902972 190.552076 
L 467.001185 190.619329 
L 467.197612 190.483002 
L 467.295826 190.550263 
L 467.394039 190.482088 
L 467.492253 190.617084 
L 467.68868 190.345245 
L 467.885107 190.479801 
L 467.98332 190.343848 
L 468.081534 190.411134 
L 468.277961 190.139169 
L 468.474388 190.27375 
L 468.670815 190.137256 
L 468.769028 190.272341 
L 469.161882 190.067066 
L 469.260096 190.066584 
L 469.456523 189.862186 
L 469.554736 189.997321 
L 469.65295 189.861196 
L 469.849377 189.928034 
L 469.94759 189.791879 
L 470.045804 189.859216 
L 470.144017 189.72304 
L 470.242231 189.858226 
L 470.340444 189.654185 
L 470.438658 189.72153 
L 470.635085 189.516939 
L 471.027939 189.718509 
L 471.322579 189.445437 
L 471.519006 189.580194 
L 471.61722 189.308069 
L 471.715433 189.511263 
L 471.91186 189.306484 
L 472.010074 189.509715 
L 472.206501 189.236969 
L 472.304714 189.440234 
L 472.402928 189.167967 
L 472.501141 189.371253 
L 472.697568 189.098407 
L 472.795782 189.165819 
L 472.992209 188.960859 
L 473.188636 189.163671 
L 473.286849 188.823261 
L 473.385063 189.026639 
L 473.679703 188.821029 
L 473.87613 188.955912 
L 474.268984 188.749665 
L 474.367198 188.817123 
L 474.661838 188.543316 
L 474.858265 188.67825 
L 474.956479 188.609638 
L 475.054692 188.677117 
L 475.251119 188.539867 
L 475.447546 188.470651 
L 475.54576 188.265859 
L 475.643973 188.537568 
L 475.742187 188.400835 
L 475.938614 188.467756 
L 476.135041 188.26231 
L 476.626108 188.191235 
L 476.724322 188.054396 
L 476.822535 188.190043 
L 476.920749 188.053188 
L 477.018962 188.120718 
L 477.117176 187.915704 
L 477.411816 188.050167 
L 477.706457 187.843865 
L 477.902884 187.978975 
L 478.001097 187.705663 
L 478.197524 187.840781 
L 478.295738 187.703788 
L 478.393951 187.90774 
L 478.492165 187.63434 
L 478.688592 187.769492 
L 478.786805 187.632452 
L 478.885019 187.700037 
L 478.983232 187.42654 
L 479.081446 187.698786 
L 479.277873 187.561075 
L 479.376086 187.628676 
L 479.867154 187.284252 
L 479.965367 187.420121 
L 480.358221 187.212724 
L 480.456435 187.28035 
L 480.652862 187.074182 
L 480.751075 187.210106 
L 480.947502 186.93559 
L 481.143929 187.207488 
L 481.340356 186.932905 
L 481.43857 187.000556 
L 481.536783 186.863235 
L 481.73321 186.930219 
L 482.126064 186.859182 
L 482.224278 186.721794 
L 482.322491 186.857831 
L 482.420705 186.652062 
L 482.518918 186.85648 
L 482.813559 186.717691 
L 483.108199 186.647245 
L 483.206413 186.372964 
L 483.304626 186.577467 
L 483.599267 186.30173 
L 483.69748 186.506278 
L 484.090334 186.298184 
L 484.188548 186.297475 
L 484.286761 186.433655 
L 484.384975 186.364506 
L 484.483188 186.158443 
L 484.679615 186.225469 
L 484.777829 186.01936 
L 484.876042 186.224043 
L 484.974256 186.017908 
L 485.170683 186.221903 
L 485.36711 186.015005 
L 485.465323 186.014279 
L 485.563537 185.876555 
L 485.759964 185.943594 
L 485.858177 185.874353 
L 485.956391 186.01065 
L 486.447458 185.732874 
L 487.134953 185.659109 
L 487.233166 185.521222 
L 487.429593 185.58829 
L 487.62602 185.31244 
L 487.822447 185.448095 
L 487.920661 185.515936 
L 488.018874 185.309369 
L 488.215301 185.445058 
L 488.509942 185.168281 
L 488.608155 185.304762 
L 488.706369 185.098095 
L 488.804582 185.234589 
L 488.902796 185.165176 
L 489.001009 185.233045 
L 489.197436 185.162847 
L 489.29565 185.230729 
L 489.393863 185.02397 
L 489.59029 185.159742 
L 489.786717 185.020831 
L 489.884931 185.020047 
L 490.081358 184.881094 
L 490.277785 184.879508 
L 490.375998 184.672602 
L 490.474212 184.740505 
L 490.572425 184.945842 
L 490.867066 184.531123 
L 491.063493 184.80443 
L 491.161706 184.459943 
L 491.25992 184.665352 
L 491.55456 184.525425 
L 491.652774 184.59337 
L 491.750987 184.317508 
L 491.947414 184.522169 
L 492.242055 184.313375 
L 492.340268 184.381337 
L 492.733122 184.171632 
L 492.831336 184.308416 
L 493.125976 184.030648 
L 493.322403 184.166622 
L 493.420617 184.234622 
L 493.617044 184.026432 
L 493.813471 183.955894 
L 493.911684 184.092757 
L 494.108111 184.022215 
L 494.206325 184.021372 
L 494.402752 183.881932 
L 494.795606 183.947419 
L 494.992033 183.601215 
L 495.18846 183.737298 
L 495.384887 183.597741 
L 495.581314 183.527077 
L 495.679527 183.457274 
L 495.777741 183.594267 
L 496.170595 183.383937 
L 496.367022 183.451135 
L 496.465235 183.312329 
L 496.661662 183.379532 
L 496.858089 183.308788 
L 496.956303 183.238917 
L 497.054516 183.376008 
L 497.15273 183.306132 
L 497.250943 183.098253 
L 497.349157 183.304362 
L 497.545584 183.026548 
L 497.742011 183.162783 
L 497.938438 182.884885 
L 498.134865 183.021136 
L 498.331292 182.950288 
L 498.527719 182.879422 
L 498.625932 182.947569 
L 498.822359 182.807626 
L 498.920573 182.875781 
L 499.018786 182.805796 
L 499.117 182.87396 
L 499.215213 182.734885 
L 499.313427 182.803052 
L 499.41164 182.733047 
L 499.509854 182.524844 
L 499.608067 182.73121 
L 499.804494 182.591157 
L 499.902708 182.659342 
L 500.099135 182.381016 
L 500.295562 182.586521 
L 500.393775 182.309064 
L 500.590202 182.445458 
L 500.786629 182.236139 
L 500.884843 182.442651 
L 501.08127 182.233294 
L 501.179483 182.370678 
L 501.37591 182.161275 
L 501.474124 182.29868 
L 501.572337 182.090188 
L 501.670551 182.227605 
L 501.965191 182.086361 
L 502.358045 182.082535 
L 502.456259 181.804696 
L 502.750899 181.940242 
L 503.04554 181.798856 
L 503.143753 181.936382 
L 503.241967 181.866163 
L 503.438394 181.587175 
L 503.536607 181.793989 
L 503.634821 181.723745 
L 503.733034 181.792042 
L 504.027675 181.650547 
L 504.125888 181.788149 
L 504.322315 181.439701 
L 504.420529 181.577315 
L 504.715169 181.297089 
L 504.813383 181.50405 
L 505.00981 181.363411 
L 505.108023 181.570414 
L 505.206237 181.292075 
L 505.402664 181.428763 
L 505.599091 181.08 
L 505.599091 181.08 
" style="fill:none;stroke:#0000ff;stroke-dasharray:2.96,1.28;stroke-dashoffset:0;stroke-width:0.8;"/>
   </g>
   <g id="patch_8">
    <path d="M 79.49 339.84 
L 79.49 173.52 
" style="fill:none;stroke:#000000;stroke-linecap:square;stroke-linejoin:miter;stroke-width:0.8;"/>
   </g>
   <g id="patch_9">
    <path d="M 525.89 339.84 
L 525.89 173.52 
" style="fill:none;stroke:#000000;stroke-linecap:square;stroke-linejoin:miter;stroke-width:0.8;"/>
   </g>
   <g id="patch_10">
    <path d="M 79.49 339.84 
L 525.89 339.84 
" style="fill:none;stroke:#000000;stroke-linecap:square;stroke-linejoin:miter;stroke-width:0.8;"/>
   </g>
   <g id="patch_11">
    <path d="M 79.49 173.52 
L 525.89 173.52 
" style="fill:none;stroke:#000000;stroke-linecap:square;stroke-linejoin:miter;stroke-width:0.8;"/>
   </g>
   <g id="text_17">
    <!-- (1550, -6.57) -->
    <defs>
     <path d="M 4.890625 31.390625 
L 31.203125 31.390625 
L 31.203125 23.390625 
L 4.890625 23.390625 
z
" id="DejaVuSans-45"/>
    </defs>
    <g transform="translate(208.012186 197.863874)scale(0.16 -0.16)">
     <use xlink:href="#DejaVuSans-40"/>
     <use x="39.013672" xlink:href="#DejaVuSans-49"/>
     <use x="102.636719" xlink:href="#DejaVuSans-53"/>
     <use x="166.259766" xlink:href="#DejaVuSans-53"/>
     <use x="229.882812" xlink:href="#DejaVuSans-48"/>
     <use x="293.505859" xlink:href="#DejaVuSans-44"/>
     <use x="325.292969" xlink:href="#DejaVuSans-32"/>
     <use x="357.080078" xlink:href="#DejaVuSans-45"/>
     <use x="393.164062" xlink:href="#DejaVuSans-54"/>
     <use x="456.787109" xlink:href="#DejaVuSans-46"/>
     <use x="488.574219" xlink:href="#DejaVuSans-53"/>
     <use x="552.197266" xlink:href="#DejaVuSans-55"/>
     <use x="615.820312" xlink:href="#DejaVuSans-41"/>
    </g>
   </g>
  </g>
 </g>
 <defs>
  <clipPath id="p385a46202d">
   <rect height="166.32" width="446.4" x="79.49" y="7.2"/>
  </clipPath>
  <clipPath id="pace3361775">
   <rect height="166.32" width="446.4" x="79.49" y="173.52"/>
  </clipPath>
 </defs>
</svg>
