<?xml version="1.0" encoding="utf-8" standalone="no"?>
<!DOCTYPE svg PUBLIC "-//W3C//DTD SVG 1.1//EN"
  "http://www.w3.org/Graphics/SVG/1.1/DTD/svg11.dtd">
<!-- Created with matplotlib (https://matplotlib.org/) -->
<svg height="333.57pt" version="1.1" viewBox="0 0 479.984249 333.57" width="479.984249pt" xmlns="http://www.w3.org/2000/svg" xmlns:xlink="http://www.w3.org/1999/xlink">
 <defs>
  <style type="text/css">
*{stroke-linecap:butt;stroke-linejoin:round;white-space:pre;}
  </style>
 </defs>
 <g id="figure_1">
  <g id="patch_1">
   <path d="M 0 333.57 
L 479.984249 333.57 
L 479.984249 0 
L 0 0 
z
" style="fill:none;"/>
  </g>
  <g id="axes_1">
   <g id="patch_2">
    <path d="M 79.49 145.8 
L 470.09 145.8 
L 470.09 7.2 
L 79.49 7.2 
z
" style="fill:none;"/>
   </g>
   <g id="PathCollection_1">
    <defs>
     <path d="M 0 3 
C 0.795609 3 1.55874 2.683901 2.12132 2.12132 
C 2.683901 1.55874 3 0.795609 3 0 
C 3 -0.795609 2.683901 -1.55874 2.12132 -2.12132 
C 1.55874 -2.683901 0.795609 -3 0 -3 
C -0.795609 -3 -1.55874 -2.683901 -2.12132 -2.12132 
C -2.683901 -1.55874 -3 -0.795609 -3 0 
C -3 0.795609 -2.683901 1.55874 -2.12132 2.12132 
C -1.55874 2.683901 -0.795609 3 0 3 
z
" id="mca6f4200e4" style="stroke:#ff0000;"/>
    </defs>
    <g clip-path="url(#p309051a275)">
     <use style="fill:#ff0000;stroke:#ff0000;" x="319.23186" xlink:href="#mca6f4200e4" y="92.923666"/>
    </g>
   </g>
   <g id="matplotlib.axis_1">
    <g id="xtick_1">
     <g id="line2d_1">
      <path clip-path="url(#p309051a275)" d="M 97.244545 145.8 
L 97.244545 7.2 
" style="fill:none;stroke:#b0b0b0;stroke-dasharray:0.8,1.32;stroke-dashoffset:0;stroke-width:0.8;"/>
     </g>
     <g id="line2d_2">
      <defs>
       <path d="M 0 0 
L 0 3.5 
" id="md95c182d8a" style="stroke:#000000;stroke-width:0.8;"/>
      </defs>
      <g>
       <use style="stroke:#000000;stroke-width:0.8;" x="97.244545" xlink:href="#md95c182d8a" y="145.8"/>
      </g>
     </g>
    </g>
    <g id="xtick_2">
     <g id="line2d_3">
      <path clip-path="url(#p309051a275)" d="M 186.039471 145.8 
L 186.039471 7.2 
" style="fill:none;stroke:#b0b0b0;stroke-dasharray:0.8,1.32;stroke-dashoffset:0;stroke-width:0.8;"/>
     </g>
     <g id="line2d_4">
      <g>
       <use style="stroke:#000000;stroke-width:0.8;" x="186.039471" xlink:href="#md95c182d8a" y="145.8"/>
      </g>
     </g>
    </g>
    <g id="xtick_3">
     <g id="line2d_5">
      <path clip-path="url(#p309051a275)" d="M 274.834397 145.8 
L 274.834397 7.2 
" style="fill:none;stroke:#b0b0b0;stroke-dasharray:0.8,1.32;stroke-dashoffset:0;stroke-width:0.8;"/>
     </g>
     <g id="line2d_6">
      <g>
       <use style="stroke:#000000;stroke-width:0.8;" x="274.834397" xlink:href="#md95c182d8a" y="145.8"/>
      </g>
     </g>
    </g>
    <g id="xtick_4">
     <g id="line2d_7">
      <path clip-path="url(#p309051a275)" d="M 363.629323 145.8 
L 363.629323 7.2 
" style="fill:none;stroke:#b0b0b0;stroke-dasharray:0.8,1.32;stroke-dashoffset:0;stroke-width:0.8;"/>
     </g>
     <g id="line2d_8">
      <g>
       <use style="stroke:#000000;stroke-width:0.8;" x="363.629323" xlink:href="#md95c182d8a" y="145.8"/>
      </g>
     </g>
    </g>
    <g id="xtick_5">
     <g id="line2d_9">
      <path clip-path="url(#p309051a275)" d="M 452.424249 145.8 
L 452.424249 7.2 
" style="fill:none;stroke:#b0b0b0;stroke-dasharray:0.8,1.32;stroke-dashoffset:0;stroke-width:0.8;"/>
     </g>
     <g id="line2d_10">
      <g>
       <use style="stroke:#000000;stroke-width:0.8;" x="452.424249" xlink:href="#md95c182d8a" y="145.8"/>
      </g>
     </g>
    </g>
   </g>
   <g id="matplotlib.axis_2">
    <g id="ytick_1">
     <g id="line2d_11">
      <path clip-path="url(#p309051a275)" d="M 79.49 107.142729 
L 470.09 107.142729 
" style="fill:none;stroke:#b0b0b0;stroke-dasharray:0.8,1.32;stroke-dashoffset:0;stroke-width:0.8;"/>
     </g>
     <g id="line2d_12">
      <defs>
       <path d="M 0 0 
L -3.5 0 
" id="m304bb0cbc8" style="stroke:#000000;stroke-width:0.8;"/>
      </defs>
      <g>
       <use style="stroke:#000000;stroke-width:0.8;" x="79.49" xlink:href="#m304bb0cbc8" y="107.142729"/>
      </g>
     </g>
     <g id="text_1">
      <!-- 1.995 -->
      <defs>
       <path d="M 12.40625 8.296875 
L 28.515625 8.296875 
L 28.515625 63.921875 
L 10.984375 60.40625 
L 10.984375 69.390625 
L 28.421875 72.90625 
L 38.28125 72.90625 
L 38.28125 8.296875 
L 54.390625 8.296875 
L 54.390625 0 
L 12.40625 0 
z
" id="DejaVuSans-49"/>
       <path d="M 10.6875 12.40625 
L 21 12.40625 
L 21 0 
L 10.6875 0 
z
" id="DejaVuSans-46"/>
       <path d="M 10.984375 1.515625 
L 10.984375 10.5 
Q 14.703125 8.734375 18.5 7.8125 
Q 22.3125 6.890625 25.984375 6.890625 
Q 35.75 6.890625 40.890625 13.453125 
Q 46.046875 20.015625 46.78125 33.40625 
Q 43.953125 29.203125 39.59375 26.953125 
Q 35.25 24.703125 29.984375 24.703125 
Q 19.046875 24.703125 12.671875 31.3125 
Q 6.296875 37.9375 6.296875 49.421875 
Q 6.296875 60.640625 12.9375 67.421875 
Q 19.578125 74.21875 30.609375 74.21875 
Q 43.265625 74.21875 49.921875 64.515625 
Q 56.59375 54.828125 56.59375 36.375 
Q 56.59375 19.140625 48.40625 8.859375 
Q 40.234375 -1.421875 26.421875 -1.421875 
Q 22.703125 -1.421875 18.890625 -0.6875 
Q 15.09375 0.046875 10.984375 1.515625 
z
M 30.609375 32.421875 
Q 37.25 32.421875 41.125 36.953125 
Q 45.015625 41.5 45.015625 49.421875 
Q 45.015625 57.28125 41.125 61.84375 
Q 37.25 66.40625 30.609375 66.40625 
Q 23.96875 66.40625 20.09375 61.84375 
Q 16.21875 57.28125 16.21875 49.421875 
Q 16.21875 41.5 20.09375 36.953125 
Q 23.96875 32.421875 30.609375 32.421875 
z
" id="DejaVuSans-57"/>
       <path d="M 10.796875 72.90625 
L 49.515625 72.90625 
L 49.515625 64.59375 
L 19.828125 64.59375 
L 19.828125 46.734375 
Q 21.96875 47.46875 24.109375 47.828125 
Q 26.265625 48.1875 28.421875 48.1875 
Q 40.625 48.1875 47.75 41.5 
Q 54.890625 34.8125 54.890625 23.390625 
Q 54.890625 11.625 47.5625 5.09375 
Q 40.234375 -1.421875 26.90625 -1.421875 
Q 22.3125 -1.421875 17.546875 -0.640625 
Q 12.796875 0.140625 7.71875 1.703125 
L 7.71875 11.625 
Q 12.109375 9.234375 16.796875 8.0625 
Q 21.484375 6.890625 26.703125 6.890625 
Q 35.15625 6.890625 40.078125 11.328125 
Q 45.015625 15.765625 45.015625 23.390625 
Q 45.015625 31 40.078125 35.4375 
Q 35.15625 39.890625 26.703125 39.890625 
Q 22.75 39.890625 18.8125 39.015625 
Q 14.890625 38.140625 10.796875 36.28125 
z
" id="DejaVuSans-53"/>
      </defs>
      <g transform="translate(26.685 113.221479)scale(0.16 -0.16)">
       <use xlink:href="#DejaVuSans-49"/>
       <use x="63.623047" xlink:href="#DejaVuSans-46"/>
       <use x="95.410156" xlink:href="#DejaVuSans-57"/>
       <use x="159.033203" xlink:href="#DejaVuSans-57"/>
       <use x="222.65625" xlink:href="#DejaVuSans-53"/>
      </g>
     </g>
    </g>
    <g id="ytick_2">
     <g id="line2d_13">
      <path clip-path="url(#p309051a275)" d="M 79.49 51.587869 
L 470.09 51.587869 
" style="fill:none;stroke:#b0b0b0;stroke-dasharray:0.8,1.32;stroke-dashoffset:0;stroke-width:0.8;"/>
     </g>
     <g id="line2d_14">
      <g>
       <use style="stroke:#000000;stroke-width:0.8;" x="79.49" xlink:href="#m304bb0cbc8" y="51.587869"/>
      </g>
     </g>
     <g id="text_2">
      <!-- 2.000 -->
      <defs>
       <path d="M 19.1875 8.296875 
L 53.609375 8.296875 
L 53.609375 0 
L 7.328125 0 
L 7.328125 8.296875 
Q 12.9375 14.109375 22.625 23.890625 
Q 32.328125 33.6875 34.8125 36.53125 
Q 39.546875 41.84375 41.421875 45.53125 
Q 43.3125 49.21875 43.3125 52.78125 
Q 43.3125 58.59375 39.234375 62.25 
Q 35.15625 65.921875 28.609375 65.921875 
Q 23.96875 65.921875 18.8125 64.3125 
Q 13.671875 62.703125 7.8125 59.421875 
L 7.8125 69.390625 
Q 13.765625 71.78125 18.9375 73 
Q 24.125 74.21875 28.421875 74.21875 
Q 39.75 74.21875 46.484375 68.546875 
Q 53.21875 62.890625 53.21875 53.421875 
Q 53.21875 48.921875 51.53125 44.890625 
Q 49.859375 40.875 45.40625 35.40625 
Q 44.1875 33.984375 37.640625 27.21875 
Q 31.109375 20.453125 19.1875 8.296875 
z
" id="DejaVuSans-50"/>
       <path d="M 31.78125 66.40625 
Q 24.171875 66.40625 20.328125 58.90625 
Q 16.5 51.421875 16.5 36.375 
Q 16.5 21.390625 20.328125 13.890625 
Q 24.171875 6.390625 31.78125 6.390625 
Q 39.453125 6.390625 43.28125 13.890625 
Q 47.125 21.390625 47.125 36.375 
Q 47.125 51.421875 43.28125 58.90625 
Q 39.453125 66.40625 31.78125 66.40625 
z
M 31.78125 74.21875 
Q 44.046875 74.21875 50.515625 64.515625 
Q 56.984375 54.828125 56.984375 36.375 
Q 56.984375 17.96875 50.515625 8.265625 
Q 44.046875 -1.421875 31.78125 -1.421875 
Q 19.53125 -1.421875 13.0625 8.265625 
Q 6.59375 17.96875 6.59375 36.375 
Q 6.59375 54.828125 13.0625 64.515625 
Q 19.53125 74.21875 31.78125 74.21875 
z
" id="DejaVuSans-48"/>
      </defs>
      <g transform="translate(26.685 57.666619)scale(0.16 -0.16)">
       <use xlink:href="#DejaVuSans-50"/>
       <use x="63.623047" xlink:href="#DejaVuSans-46"/>
       <use x="95.410156" xlink:href="#DejaVuSans-48"/>
       <use x="159.033203" xlink:href="#DejaVuSans-48"/>
       <use x="222.65625" xlink:href="#DejaVuSans-48"/>
      </g>
     </g>
    </g>
    <g id="text_3">
     <!-- refractive index -->
     <defs>
      <path d="M 41.109375 46.296875 
Q 39.59375 47.171875 37.8125 47.578125 
Q 36.03125 48 33.890625 48 
Q 26.265625 48 22.1875 43.046875 
Q 18.109375 38.09375 18.109375 28.8125 
L 18.109375 0 
L 9.078125 0 
L 9.078125 54.6875 
L 18.109375 54.6875 
L 18.109375 46.1875 
Q 20.953125 51.171875 25.484375 53.578125 
Q 30.03125 56 36.53125 56 
Q 37.453125 56 38.578125 55.875 
Q 39.703125 55.765625 41.0625 55.515625 
z
" id="DejaVuSans-114"/>
      <path d="M 56.203125 29.59375 
L 56.203125 25.203125 
L 14.890625 25.203125 
Q 15.484375 15.921875 20.484375 11.0625 
Q 25.484375 6.203125 34.421875 6.203125 
Q 39.59375 6.203125 44.453125 7.46875 
Q 49.3125 8.734375 54.109375 11.28125 
L 54.109375 2.78125 
Q 49.265625 0.734375 44.1875 -0.34375 
Q 39.109375 -1.421875 33.890625 -1.421875 
Q 20.796875 -1.421875 13.15625 6.1875 
Q 5.515625 13.8125 5.515625 26.8125 
Q 5.515625 40.234375 12.765625 48.109375 
Q 20.015625 56 32.328125 56 
Q 43.359375 56 49.78125 48.890625 
Q 56.203125 41.796875 56.203125 29.59375 
z
M 47.21875 32.234375 
Q 47.125 39.59375 43.09375 43.984375 
Q 39.0625 48.390625 32.421875 48.390625 
Q 24.90625 48.390625 20.390625 44.140625 
Q 15.875 39.890625 15.1875 32.171875 
z
" id="DejaVuSans-101"/>
      <path d="M 37.109375 75.984375 
L 37.109375 68.5 
L 28.515625 68.5 
Q 23.6875 68.5 21.796875 66.546875 
Q 19.921875 64.59375 19.921875 59.515625 
L 19.921875 54.6875 
L 34.71875 54.6875 
L 34.71875 47.703125 
L 19.921875 47.703125 
L 19.921875 0 
L 10.890625 0 
L 10.890625 47.703125 
L 2.296875 47.703125 
L 2.296875 54.6875 
L 10.890625 54.6875 
L 10.890625 58.5 
Q 10.890625 67.625 15.140625 71.796875 
Q 19.390625 75.984375 28.609375 75.984375 
z
" id="DejaVuSans-102"/>
      <path d="M 34.28125 27.484375 
Q 23.390625 27.484375 19.1875 25 
Q 14.984375 22.515625 14.984375 16.5 
Q 14.984375 11.71875 18.140625 8.90625 
Q 21.296875 6.109375 26.703125 6.109375 
Q 34.1875 6.109375 38.703125 11.40625 
Q 43.21875 16.703125 43.21875 25.484375 
L 43.21875 27.484375 
z
M 52.203125 31.203125 
L 52.203125 0 
L 43.21875 0 
L 43.21875 8.296875 
Q 40.140625 3.328125 35.546875 0.953125 
Q 30.953125 -1.421875 24.3125 -1.421875 
Q 15.921875 -1.421875 10.953125 3.296875 
Q 6 8.015625 6 15.921875 
Q 6 25.140625 12.171875 29.828125 
Q 18.359375 34.515625 30.609375 34.515625 
L 43.21875 34.515625 
L 43.21875 35.40625 
Q 43.21875 41.609375 39.140625 45 
Q 35.0625 48.390625 27.6875 48.390625 
Q 23 48.390625 18.546875 47.265625 
Q 14.109375 46.140625 10.015625 43.890625 
L 10.015625 52.203125 
Q 14.9375 54.109375 19.578125 55.046875 
Q 24.21875 56 28.609375 56 
Q 40.484375 56 46.34375 49.84375 
Q 52.203125 43.703125 52.203125 31.203125 
z
" id="DejaVuSans-97"/>
      <path d="M 48.78125 52.59375 
L 48.78125 44.1875 
Q 44.96875 46.296875 41.140625 47.34375 
Q 37.3125 48.390625 33.40625 48.390625 
Q 24.65625 48.390625 19.8125 42.84375 
Q 14.984375 37.3125 14.984375 27.296875 
Q 14.984375 17.28125 19.8125 11.734375 
Q 24.65625 6.203125 33.40625 6.203125 
Q 37.3125 6.203125 41.140625 7.25 
Q 44.96875 8.296875 48.78125 10.40625 
L 48.78125 2.09375 
Q 45.015625 0.34375 40.984375 -0.53125 
Q 36.96875 -1.421875 32.421875 -1.421875 
Q 20.0625 -1.421875 12.78125 6.34375 
Q 5.515625 14.109375 5.515625 27.296875 
Q 5.515625 40.671875 12.859375 48.328125 
Q 20.21875 56 33.015625 56 
Q 37.15625 56 41.109375 55.140625 
Q 45.0625 54.296875 48.78125 52.59375 
z
" id="DejaVuSans-99"/>
      <path d="M 18.3125 70.21875 
L 18.3125 54.6875 
L 36.8125 54.6875 
L 36.8125 47.703125 
L 18.3125 47.703125 
L 18.3125 18.015625 
Q 18.3125 11.328125 20.140625 9.421875 
Q 21.96875 7.515625 27.59375 7.515625 
L 36.8125 7.515625 
L 36.8125 0 
L 27.59375 0 
Q 17.1875 0 13.234375 3.875 
Q 9.28125 7.765625 9.28125 18.015625 
L 9.28125 47.703125 
L 2.6875 47.703125 
L 2.6875 54.6875 
L 9.28125 54.6875 
L 9.28125 70.21875 
z
" id="DejaVuSans-116"/>
      <path d="M 9.421875 54.6875 
L 18.40625 54.6875 
L 18.40625 0 
L 9.421875 0 
z
M 9.421875 75.984375 
L 18.40625 75.984375 
L 18.40625 64.59375 
L 9.421875 64.59375 
z
" id="DejaVuSans-105"/>
      <path d="M 2.984375 54.6875 
L 12.5 54.6875 
L 29.59375 8.796875 
L 46.6875 54.6875 
L 56.203125 54.6875 
L 35.6875 0 
L 23.484375 0 
z
" id="DejaVuSans-118"/>
      <path id="DejaVuSans-32"/>
      <path d="M 54.890625 33.015625 
L 54.890625 0 
L 45.90625 0 
L 45.90625 32.71875 
Q 45.90625 40.484375 42.875 44.328125 
Q 39.84375 48.1875 33.796875 48.1875 
Q 26.515625 48.1875 22.3125 43.546875 
Q 18.109375 38.921875 18.109375 30.90625 
L 18.109375 0 
L 9.078125 0 
L 9.078125 54.6875 
L 18.109375 54.6875 
L 18.109375 46.1875 
Q 21.34375 51.125 25.703125 53.5625 
Q 30.078125 56 35.796875 56 
Q 45.21875 56 50.046875 50.171875 
Q 54.890625 44.34375 54.890625 33.015625 
z
" id="DejaVuSans-110"/>
      <path d="M 45.40625 46.390625 
L 45.40625 75.984375 
L 54.390625 75.984375 
L 54.390625 0 
L 45.40625 0 
L 45.40625 8.203125 
Q 42.578125 3.328125 38.25 0.953125 
Q 33.9375 -1.421875 27.875 -1.421875 
Q 17.96875 -1.421875 11.734375 6.484375 
Q 5.515625 14.40625 5.515625 27.296875 
Q 5.515625 40.1875 11.734375 48.09375 
Q 17.96875 56 27.875 56 
Q 33.9375 56 38.25 53.625 
Q 42.578125 51.265625 45.40625 46.390625 
z
M 14.796875 27.296875 
Q 14.796875 17.390625 18.875 11.75 
Q 22.953125 6.109375 30.078125 6.109375 
Q 37.203125 6.109375 41.296875 11.75 
Q 45.40625 17.390625 45.40625 27.296875 
Q 45.40625 37.203125 41.296875 42.84375 
Q 37.203125 48.484375 30.078125 48.484375 
Q 22.953125 48.484375 18.875 42.84375 
Q 14.796875 37.203125 14.796875 27.296875 
z
" id="DejaVuSans-100"/>
      <path d="M 54.890625 54.6875 
L 35.109375 28.078125 
L 55.90625 0 
L 45.3125 0 
L 29.390625 21.484375 
L 13.484375 0 
L 2.875 0 
L 24.125 28.609375 
L 4.6875 54.6875 
L 15.28125 54.6875 
L 29.78125 35.203125 
L 44.28125 54.6875 
z
" id="DejaVuSans-120"/>
     </defs>
     <g transform="translate(19.3575 139.70125)rotate(-90)scale(0.16 -0.16)">
      <use xlink:href="#DejaVuSans-114"/>
      <use x="41.082031" xlink:href="#DejaVuSans-101"/>
      <use x="102.605469" xlink:href="#DejaVuSans-102"/>
      <use x="137.810547" xlink:href="#DejaVuSans-114"/>
      <use x="178.923828" xlink:href="#DejaVuSans-97"/>
      <use x="240.203125" xlink:href="#DejaVuSans-99"/>
      <use x="295.183594" xlink:href="#DejaVuSans-116"/>
      <use x="334.392578" xlink:href="#DejaVuSans-105"/>
      <use x="362.175781" xlink:href="#DejaVuSans-118"/>
      <use x="421.355469" xlink:href="#DejaVuSans-101"/>
      <use x="482.878906" xlink:href="#DejaVuSans-32"/>
      <use x="514.666016" xlink:href="#DejaVuSans-105"/>
      <use x="542.449219" xlink:href="#DejaVuSans-110"/>
      <use x="605.828125" xlink:href="#DejaVuSans-100"/>
      <use x="669.304688" xlink:href="#DejaVuSans-101"/>
      <use x="730.8125" xlink:href="#DejaVuSans-120"/>
     </g>
    </g>
   </g>
   <g id="line2d_15">
    <path clip-path="url(#p309051a275)" d="M 97.244545 13.5 
L 130.276258 25.732574 
L 167.303742 39.20251 
L 210.102896 54.528917 
L 262.758288 73.138083 
L 341.608182 100.740882 
L 452.335455 139.5 
L 452.335455 139.5 
" style="fill:none;stroke:#ff0000;stroke-linecap:square;stroke-width:0.8;"/>
   </g>
   <g id="patch_3">
    <path d="M 79.49 145.8 
L 79.49 7.2 
" style="fill:none;stroke:#000000;stroke-linecap:square;stroke-linejoin:miter;stroke-width:0.8;"/>
   </g>
   <g id="patch_4">
    <path d="M 470.09 145.8 
L 470.09 7.2 
" style="fill:none;stroke:#000000;stroke-linecap:square;stroke-linejoin:miter;stroke-width:0.8;"/>
   </g>
   <g id="patch_5">
    <path d="M 79.49 145.8 
L 470.09 145.8 
" style="fill:none;stroke:#000000;stroke-linecap:square;stroke-linejoin:miter;stroke-width:0.8;"/>
   </g>
   <g id="patch_6">
    <path d="M 79.49 7.2 
L 470.09 7.2 
" style="fill:none;stroke:#000000;stroke-linecap:square;stroke-linejoin:miter;stroke-width:0.8;"/>
   </g>
  </g>
  <g id="axes_2">
   <g id="patch_7">
    <path d="M 79.49 284.4 
L 470.09 284.4 
L 470.09 145.8 
L 79.49 145.8 
z
" style="fill:none;"/>
   </g>
   <g id="PathCollection_2">
    <defs>
     <path d="M 0 3 
C 0.795609 3 1.55874 2.683901 2.12132 2.12132 
C 2.683901 1.55874 3 0.795609 3 0 
C 3 -0.795609 2.683901 -1.55874 2.12132 -2.12132 
C 1.55874 -2.683901 0.795609 -3 0 -3 
C -0.795609 -3 -1.55874 -2.683901 -2.12132 -2.12132 
C -2.683901 -1.55874 -3 -0.795609 -3 0 
C -3 0.795609 -2.683901 1.55874 -2.12132 2.12132 
C -1.55874 2.683901 -0.795609 3 0 3 
z
" id="mde18c7c90d" style="stroke:#0000ff;"/>
    </defs>
    <g clip-path="url(#pe87791d57d)">
     <use style="fill:#0000ff;stroke:#0000ff;" x="319.23186" xlink:href="#mde18c7c90d" y="187.432527"/>
    </g>
   </g>
   <g id="matplotlib.axis_3">
    <g id="xtick_6">
     <g id="line2d_16">
      <path clip-path="url(#pe87791d57d)" d="M 97.244545 284.4 
L 97.244545 145.8 
" style="fill:none;stroke:#b0b0b0;stroke-dasharray:0.8,1.32;stroke-dashoffset:0;stroke-width:0.8;"/>
     </g>
     <g id="line2d_17">
      <g>
       <use style="stroke:#000000;stroke-width:0.8;" x="97.244545" xlink:href="#md95c182d8a" y="284.4"/>
      </g>
     </g>
     <g id="text_4">
      <!-- 1300 -->
      <defs>
       <path d="M 40.578125 39.3125 
Q 47.65625 37.796875 51.625 33 
Q 55.609375 28.21875 55.609375 21.1875 
Q 55.609375 10.40625 48.1875 4.484375 
Q 40.765625 -1.421875 27.09375 -1.421875 
Q 22.515625 -1.421875 17.65625 -0.515625 
Q 12.796875 0.390625 7.625 2.203125 
L 7.625 11.71875 
Q 11.71875 9.328125 16.59375 8.109375 
Q 21.484375 6.890625 26.8125 6.890625 
Q 36.078125 6.890625 40.9375 10.546875 
Q 45.796875 14.203125 45.796875 21.1875 
Q 45.796875 27.640625 41.28125 31.265625 
Q 36.765625 34.90625 28.71875 34.90625 
L 20.21875 34.90625 
L 20.21875 43.015625 
L 29.109375 43.015625 
Q 36.375 43.015625 40.234375 45.921875 
Q 44.09375 48.828125 44.09375 54.296875 
Q 44.09375 59.90625 40.109375 62.90625 
Q 36.140625 65.921875 28.71875 65.921875 
Q 24.65625 65.921875 20.015625 65.03125 
Q 15.375 64.15625 9.8125 62.3125 
L 9.8125 71.09375 
Q 15.4375 72.65625 20.34375 73.4375 
Q 25.25 74.21875 29.59375 74.21875 
Q 40.828125 74.21875 47.359375 69.109375 
Q 53.90625 64.015625 53.90625 55.328125 
Q 53.90625 49.265625 50.4375 45.09375 
Q 46.96875 40.921875 40.578125 39.3125 
z
" id="DejaVuSans-51"/>
      </defs>
      <g transform="translate(76.884545 303.5575)scale(0.16 -0.16)">
       <use xlink:href="#DejaVuSans-49"/>
       <use x="63.623047" xlink:href="#DejaVuSans-51"/>
       <use x="127.246094" xlink:href="#DejaVuSans-48"/>
       <use x="190.869141" xlink:href="#DejaVuSans-48"/>
      </g>
     </g>
    </g>
    <g id="xtick_7">
     <g id="line2d_18">
      <path clip-path="url(#pe87791d57d)" d="M 186.039471 284.4 
L 186.039471 145.8 
" style="fill:none;stroke:#b0b0b0;stroke-dasharray:0.8,1.32;stroke-dashoffset:0;stroke-width:0.8;"/>
     </g>
     <g id="line2d_19">
      <g>
       <use style="stroke:#000000;stroke-width:0.8;" x="186.039471" xlink:href="#md95c182d8a" y="284.4"/>
      </g>
     </g>
     <g id="text_5">
      <!-- 1400 -->
      <defs>
       <path d="M 37.796875 64.3125 
L 12.890625 25.390625 
L 37.796875 25.390625 
z
M 35.203125 72.90625 
L 47.609375 72.90625 
L 47.609375 25.390625 
L 58.015625 25.390625 
L 58.015625 17.1875 
L 47.609375 17.1875 
L 47.609375 0 
L 37.796875 0 
L 37.796875 17.1875 
L 4.890625 17.1875 
L 4.890625 26.703125 
z
" id="DejaVuSans-52"/>
      </defs>
      <g transform="translate(165.679471 303.5575)scale(0.16 -0.16)">
       <use xlink:href="#DejaVuSans-49"/>
       <use x="63.623047" xlink:href="#DejaVuSans-52"/>
       <use x="127.246094" xlink:href="#DejaVuSans-48"/>
       <use x="190.869141" xlink:href="#DejaVuSans-48"/>
      </g>
     </g>
    </g>
    <g id="xtick_8">
     <g id="line2d_20">
      <path clip-path="url(#pe87791d57d)" d="M 274.834397 284.4 
L 274.834397 145.8 
" style="fill:none;stroke:#b0b0b0;stroke-dasharray:0.8,1.32;stroke-dashoffset:0;stroke-width:0.8;"/>
     </g>
     <g id="line2d_21">
      <g>
       <use style="stroke:#000000;stroke-width:0.8;" x="274.834397" xlink:href="#md95c182d8a" y="284.4"/>
      </g>
     </g>
     <g id="text_6">
      <!-- 1500 -->
      <g transform="translate(254.474397 303.5575)scale(0.16 -0.16)">
       <use xlink:href="#DejaVuSans-49"/>
       <use x="63.623047" xlink:href="#DejaVuSans-53"/>
       <use x="127.246094" xlink:href="#DejaVuSans-48"/>
       <use x="190.869141" xlink:href="#DejaVuSans-48"/>
      </g>
     </g>
    </g>
    <g id="xtick_9">
     <g id="line2d_22">
      <path clip-path="url(#pe87791d57d)" d="M 363.629323 284.4 
L 363.629323 145.8 
" style="fill:none;stroke:#b0b0b0;stroke-dasharray:0.8,1.32;stroke-dashoffset:0;stroke-width:0.8;"/>
     </g>
     <g id="line2d_23">
      <g>
       <use style="stroke:#000000;stroke-width:0.8;" x="363.629323" xlink:href="#md95c182d8a" y="284.4"/>
      </g>
     </g>
     <g id="text_7">
      <!-- 1600 -->
      <defs>
       <path d="M 33.015625 40.375 
Q 26.375 40.375 22.484375 35.828125 
Q 18.609375 31.296875 18.609375 23.390625 
Q 18.609375 15.53125 22.484375 10.953125 
Q 26.375 6.390625 33.015625 6.390625 
Q 39.65625 6.390625 43.53125 10.953125 
Q 47.40625 15.53125 47.40625 23.390625 
Q 47.40625 31.296875 43.53125 35.828125 
Q 39.65625 40.375 33.015625 40.375 
z
M 52.59375 71.296875 
L 52.59375 62.3125 
Q 48.875 64.0625 45.09375 64.984375 
Q 41.3125 65.921875 37.59375 65.921875 
Q 27.828125 65.921875 22.671875 59.328125 
Q 17.53125 52.734375 16.796875 39.40625 
Q 19.671875 43.65625 24.015625 45.921875 
Q 28.375 48.1875 33.59375 48.1875 
Q 44.578125 48.1875 50.953125 41.515625 
Q 57.328125 34.859375 57.328125 23.390625 
Q 57.328125 12.15625 50.6875 5.359375 
Q 44.046875 -1.421875 33.015625 -1.421875 
Q 20.359375 -1.421875 13.671875 8.265625 
Q 6.984375 17.96875 6.984375 36.375 
Q 6.984375 53.65625 15.1875 63.9375 
Q 23.390625 74.21875 37.203125 74.21875 
Q 40.921875 74.21875 44.703125 73.484375 
Q 48.484375 72.75 52.59375 71.296875 
z
" id="DejaVuSans-54"/>
      </defs>
      <g transform="translate(343.269323 303.5575)scale(0.16 -0.16)">
       <use xlink:href="#DejaVuSans-49"/>
       <use x="63.623047" xlink:href="#DejaVuSans-54"/>
       <use x="127.246094" xlink:href="#DejaVuSans-48"/>
       <use x="190.869141" xlink:href="#DejaVuSans-48"/>
      </g>
     </g>
    </g>
    <g id="xtick_10">
     <g id="line2d_24">
      <path clip-path="url(#pe87791d57d)" d="M 452.424249 284.4 
L 452.424249 145.8 
" style="fill:none;stroke:#b0b0b0;stroke-dasharray:0.8,1.32;stroke-dashoffset:0;stroke-width:0.8;"/>
     </g>
     <g id="line2d_25">
      <g>
       <use style="stroke:#000000;stroke-width:0.8;" x="452.424249" xlink:href="#md95c182d8a" y="284.4"/>
      </g>
     </g>
     <g id="text_8">
      <!-- 1700 -->
      <defs>
       <path d="M 8.203125 72.90625 
L 55.078125 72.90625 
L 55.078125 68.703125 
L 28.609375 0 
L 18.3125 0 
L 43.21875 64.59375 
L 8.203125 64.59375 
z
" id="DejaVuSans-55"/>
      </defs>
      <g transform="translate(432.064249 303.5575)scale(0.16 -0.16)">
       <use xlink:href="#DejaVuSans-49"/>
       <use x="63.623047" xlink:href="#DejaVuSans-55"/>
       <use x="127.246094" xlink:href="#DejaVuSans-48"/>
       <use x="190.869141" xlink:href="#DejaVuSans-48"/>
      </g>
     </g>
    </g>
    <g id="text_9">
     <!-- wavelength (nm) -->
     <defs>
      <path d="M 4.203125 54.6875 
L 13.1875 54.6875 
L 24.421875 12.015625 
L 35.59375 54.6875 
L 46.1875 54.6875 
L 57.421875 12.015625 
L 68.609375 54.6875 
L 77.59375 54.6875 
L 63.28125 0 
L 52.6875 0 
L 40.921875 44.828125 
L 29.109375 0 
L 18.5 0 
z
" id="DejaVuSans-119"/>
      <path d="M 9.421875 75.984375 
L 18.40625 75.984375 
L 18.40625 0 
L 9.421875 0 
z
" id="DejaVuSans-108"/>
      <path d="M 45.40625 27.984375 
Q 45.40625 37.75 41.375 43.109375 
Q 37.359375 48.484375 30.078125 48.484375 
Q 22.859375 48.484375 18.828125 43.109375 
Q 14.796875 37.75 14.796875 27.984375 
Q 14.796875 18.265625 18.828125 12.890625 
Q 22.859375 7.515625 30.078125 7.515625 
Q 37.359375 7.515625 41.375 12.890625 
Q 45.40625 18.265625 45.40625 27.984375 
z
M 54.390625 6.78125 
Q 54.390625 -7.171875 48.1875 -13.984375 
Q 42 -20.796875 29.203125 -20.796875 
Q 24.46875 -20.796875 20.265625 -20.09375 
Q 16.0625 -19.390625 12.109375 -17.921875 
L 12.109375 -9.1875 
Q 16.0625 -11.328125 19.921875 -12.34375 
Q 23.78125 -13.375 27.78125 -13.375 
Q 36.625 -13.375 41.015625 -8.765625 
Q 45.40625 -4.15625 45.40625 5.171875 
L 45.40625 9.625 
Q 42.625 4.78125 38.28125 2.390625 
Q 33.9375 0 27.875 0 
Q 17.828125 0 11.671875 7.65625 
Q 5.515625 15.328125 5.515625 27.984375 
Q 5.515625 40.671875 11.671875 48.328125 
Q 17.828125 56 27.875 56 
Q 33.9375 56 38.28125 53.609375 
Q 42.625 51.21875 45.40625 46.390625 
L 45.40625 54.6875 
L 54.390625 54.6875 
z
" id="DejaVuSans-103"/>
      <path d="M 54.890625 33.015625 
L 54.890625 0 
L 45.90625 0 
L 45.90625 32.71875 
Q 45.90625 40.484375 42.875 44.328125 
Q 39.84375 48.1875 33.796875 48.1875 
Q 26.515625 48.1875 22.3125 43.546875 
Q 18.109375 38.921875 18.109375 30.90625 
L 18.109375 0 
L 9.078125 0 
L 9.078125 75.984375 
L 18.109375 75.984375 
L 18.109375 46.1875 
Q 21.34375 51.125 25.703125 53.5625 
Q 30.078125 56 35.796875 56 
Q 45.21875 56 50.046875 50.171875 
Q 54.890625 44.34375 54.890625 33.015625 
z
" id="DejaVuSans-104"/>
      <path d="M 31 75.875 
Q 24.46875 64.65625 21.28125 53.65625 
Q 18.109375 42.671875 18.109375 31.390625 
Q 18.109375 20.125 21.3125 9.0625 
Q 24.515625 -2 31 -13.1875 
L 23.1875 -13.1875 
Q 15.875 -1.703125 12.234375 9.375 
Q 8.59375 20.453125 8.59375 31.390625 
Q 8.59375 42.28125 12.203125 53.3125 
Q 15.828125 64.359375 23.1875 75.875 
z
" id="DejaVuSans-40"/>
      <path d="M 52 44.1875 
Q 55.375 50.25 60.0625 53.125 
Q 64.75 56 71.09375 56 
Q 79.640625 56 84.28125 50.015625 
Q 88.921875 44.046875 88.921875 33.015625 
L 88.921875 0 
L 79.890625 0 
L 79.890625 32.71875 
Q 79.890625 40.578125 77.09375 44.375 
Q 74.3125 48.1875 68.609375 48.1875 
Q 61.625 48.1875 57.5625 43.546875 
Q 53.515625 38.921875 53.515625 30.90625 
L 53.515625 0 
L 44.484375 0 
L 44.484375 32.71875 
Q 44.484375 40.625 41.703125 44.40625 
Q 38.921875 48.1875 33.109375 48.1875 
Q 26.21875 48.1875 22.15625 43.53125 
Q 18.109375 38.875 18.109375 30.90625 
L 18.109375 0 
L 9.078125 0 
L 9.078125 54.6875 
L 18.109375 54.6875 
L 18.109375 46.1875 
Q 21.1875 51.21875 25.484375 53.609375 
Q 29.78125 56 35.6875 56 
Q 41.65625 56 45.828125 52.96875 
Q 50 49.953125 52 44.1875 
z
" id="DejaVuSans-109"/>
      <path d="M 8.015625 75.875 
L 15.828125 75.875 
Q 23.140625 64.359375 26.78125 53.3125 
Q 30.421875 42.28125 30.421875 31.390625 
Q 30.421875 20.453125 26.78125 9.375 
Q 23.140625 -1.703125 15.828125 -13.1875 
L 8.015625 -13.1875 
Q 14.5 -2 17.703125 9.0625 
Q 20.90625 20.125 20.90625 31.390625 
Q 20.90625 42.671875 17.703125 53.65625 
Q 14.5 64.65625 8.015625 75.875 
z
" id="DejaVuSans-41"/>
     </defs>
     <g transform="translate(206.54 323.0425)scale(0.16 -0.16)">
      <use xlink:href="#DejaVuSans-119"/>
      <use x="81.787109" xlink:href="#DejaVuSans-97"/>
      <use x="143.066406" xlink:href="#DejaVuSans-118"/>
      <use x="202.246094" xlink:href="#DejaVuSans-101"/>
      <use x="263.769531" xlink:href="#DejaVuSans-108"/>
      <use x="291.552734" xlink:href="#DejaVuSans-101"/>
      <use x="353.076172" xlink:href="#DejaVuSans-110"/>
      <use x="416.455078" xlink:href="#DejaVuSans-103"/>
      <use x="479.931641" xlink:href="#DejaVuSans-116"/>
      <use x="519.140625" xlink:href="#DejaVuSans-104"/>
      <use x="582.519531" xlink:href="#DejaVuSans-32"/>
      <use x="614.306641" xlink:href="#DejaVuSans-40"/>
      <use x="653.320312" xlink:href="#DejaVuSans-110"/>
      <use x="716.699219" xlink:href="#DejaVuSans-109"/>
      <use x="814.111328" xlink:href="#DejaVuSans-41"/>
     </g>
    </g>
   </g>
   <g id="matplotlib.axis_4">
    <g id="ytick_3">
     <g id="line2d_26">
      <path clip-path="url(#pe87791d57d)" d="M 79.49 247.546331 
L 470.09 247.546331 
" style="fill:none;stroke:#b0b0b0;stroke-dasharray:0.8,1.32;stroke-dashoffset:0;stroke-width:0.8;"/>
     </g>
     <g id="line2d_27">
      <g>
       <use style="stroke:#000000;stroke-width:0.8;" x="79.49" xlink:href="#m304bb0cbc8" y="247.546331"/>
      </g>
     </g>
     <g id="text_10">
      <!-- −50 -->
      <defs>
       <path d="M 10.59375 35.5 
L 73.1875 35.5 
L 73.1875 27.203125 
L 10.59375 27.203125 
z
" id="DejaVuSans-8722"/>
      </defs>
      <g transform="translate(38.7225 253.625081)scale(0.16 -0.16)">
       <use xlink:href="#DejaVuSans-8722"/>
       <use x="83.789062" xlink:href="#DejaVuSans-53"/>
       <use x="147.412109" xlink:href="#DejaVuSans-48"/>
      </g>
     </g>
    </g>
    <g id="ytick_4">
     <g id="line2d_28">
      <path clip-path="url(#pe87791d57d)" d="M 79.49 178.416981 
L 470.09 178.416981 
" style="fill:none;stroke:#b0b0b0;stroke-dasharray:0.8,1.32;stroke-dashoffset:0;stroke-width:0.8;"/>
     </g>
     <g id="line2d_29">
      <g>
       <use style="stroke:#000000;stroke-width:0.8;" x="79.49" xlink:href="#m304bb0cbc8" y="178.416981"/>
      </g>
     </g>
     <g id="text_11">
      <!-- 0 -->
      <g transform="translate(62.31 184.495731)scale(0.16 -0.16)">
       <use xlink:href="#DejaVuSans-48"/>
      </g>
     </g>
    </g>
    <g id="text_12">
     <!-- $D_M$ (ps/km·nm) -->
     <defs>
      <path d="M 16.890625 72.90625 
L 38.09375 72.90625 
Q 54.984375 72.90625 63.59375 65.75 
Q 72.21875 58.59375 72.21875 44.484375 
Q 72.21875 35.15625 68.9375 26.53125 
Q 65.671875 17.921875 59.90625 12.015625 
Q 54.109375 5.953125 45.171875 2.96875 
Q 36.234375 0 24.03125 0 
L 2.6875 0 
z
M 25.203125 64.796875 
L 14.203125 8.109375 
L 27.09375 8.109375 
Q 43.65625 8.109375 52.734375 17.625 
Q 61.8125 27.15625 61.8125 44.484375 
Q 61.8125 54.984375 55.953125 59.890625 
Q 50.09375 64.796875 37.59375 64.796875 
z
" id="DejaVuSans-Oblique-68"/>
      <path d="M 16.890625 72.90625 
L 31.6875 72.90625 
L 40.1875 23.78125 
L 68.40625 72.90625 
L 83.59375 72.90625 
L 69.390625 0 
L 59.8125 0 
L 72.21875 63.921875 
L 43.609375 14.015625 
L 33.984375 14.015625 
L 24.703125 64.109375 
L 12.3125 0 
L 2.6875 0 
z
" id="DejaVuSans-Oblique-77"/>
      <path d="M 18.109375 8.203125 
L 18.109375 -20.796875 
L 9.078125 -20.796875 
L 9.078125 54.6875 
L 18.109375 54.6875 
L 18.109375 46.390625 
Q 20.953125 51.265625 25.265625 53.625 
Q 29.59375 56 35.59375 56 
Q 45.5625 56 51.78125 48.09375 
Q 58.015625 40.1875 58.015625 27.296875 
Q 58.015625 14.40625 51.78125 6.484375 
Q 45.5625 -1.421875 35.59375 -1.421875 
Q 29.59375 -1.421875 25.265625 0.953125 
Q 20.953125 3.328125 18.109375 8.203125 
z
M 48.6875 27.296875 
Q 48.6875 37.203125 44.609375 42.84375 
Q 40.53125 48.484375 33.40625 48.484375 
Q 26.265625 48.484375 22.1875 42.84375 
Q 18.109375 37.203125 18.109375 27.296875 
Q 18.109375 17.390625 22.1875 11.75 
Q 26.265625 6.109375 33.40625 6.109375 
Q 40.53125 6.109375 44.609375 11.75 
Q 48.6875 17.390625 48.6875 27.296875 
z
" id="DejaVuSans-112"/>
      <path d="M 44.28125 53.078125 
L 44.28125 44.578125 
Q 40.484375 46.53125 36.375 47.5 
Q 32.28125 48.484375 27.875 48.484375 
Q 21.1875 48.484375 17.84375 46.4375 
Q 14.5 44.390625 14.5 40.28125 
Q 14.5 37.15625 16.890625 35.375 
Q 19.28125 33.59375 26.515625 31.984375 
L 29.59375 31.296875 
Q 39.15625 29.25 43.1875 25.515625 
Q 47.21875 21.78125 47.21875 15.09375 
Q 47.21875 7.46875 41.1875 3.015625 
Q 35.15625 -1.421875 24.609375 -1.421875 
Q 20.21875 -1.421875 15.453125 -0.5625 
Q 10.6875 0.296875 5.421875 2 
L 5.421875 11.28125 
Q 10.40625 8.6875 15.234375 7.390625 
Q 20.0625 6.109375 24.8125 6.109375 
Q 31.15625 6.109375 34.5625 8.28125 
Q 37.984375 10.453125 37.984375 14.40625 
Q 37.984375 18.0625 35.515625 20.015625 
Q 33.0625 21.96875 24.703125 23.78125 
L 21.578125 24.515625 
Q 13.234375 26.265625 9.515625 29.90625 
Q 5.8125 33.546875 5.8125 39.890625 
Q 5.8125 47.609375 11.28125 51.796875 
Q 16.75 56 26.8125 56 
Q 31.78125 56 36.171875 55.265625 
Q 40.578125 54.546875 44.28125 53.078125 
z
" id="DejaVuSans-115"/>
      <path d="M 25.390625 72.90625 
L 33.6875 72.90625 
L 8.296875 -9.28125 
L 0 -9.28125 
z
" id="DejaVuSans-47"/>
      <path d="M 9.078125 75.984375 
L 18.109375 75.984375 
L 18.109375 31.109375 
L 44.921875 54.6875 
L 56.390625 54.6875 
L 27.390625 29.109375 
L 57.625 0 
L 45.90625 0 
L 18.109375 26.703125 
L 18.109375 0 
L 9.078125 0 
z
" id="DejaVuSans-107"/>
      <path d="M 10.6875 40.921875 
L 21 40.921875 
L 21 28.515625 
L 10.6875 28.515625 
z
" id="DejaVuSans-183"/>
     </defs>
     <g transform="translate(31.3625 274.94)rotate(-90)scale(0.16 -0.16)">
      <use transform="translate(0 0.015625)" xlink:href="#DejaVuSans-Oblique-68"/>
      <use transform="translate(77.001953 -16.390625)scale(0.7)" xlink:href="#DejaVuSans-Oblique-77"/>
      <use transform="translate(140.131836 0.015625)" xlink:href="#DejaVuSans-32"/>
      <use transform="translate(171.918945 0.015625)" xlink:href="#DejaVuSans-40"/>
      <use transform="translate(210.932617 0.015625)" xlink:href="#DejaVuSans-112"/>
      <use transform="translate(274.40918 0.015625)" xlink:href="#DejaVuSans-115"/>
      <use transform="translate(326.508789 0.015625)" xlink:href="#DejaVuSans-47"/>
      <use transform="translate(360.200195 0.015625)" xlink:href="#DejaVuSans-107"/>
      <use transform="translate(418.110352 0.015625)" xlink:href="#DejaVuSans-109"/>
      <use transform="translate(515.522461 0.015625)" xlink:href="#DejaVuSans-183"/>
      <use transform="translate(547.30957 0.015625)" xlink:href="#DejaVuSans-110"/>
      <use transform="translate(610.688477 0.015625)" xlink:href="#DejaVuSans-109"/>
      <use transform="translate(708.100586 0.015625)" xlink:href="#DejaVuSans-41"/>
     </g>
    </g>
   </g>
   <g id="line2d_30">
    <path clip-path="url(#pe87791d57d)" d="M 97.244545 278.1 
L 97.422135 277.582759 
L 97.599725 277.704545 
L 97.86611 277.620894 
L 97.954905 277.415392 
L 98.0437 277.529575 
L 98.132495 277.217451 
L 98.310085 277.445834 
L 98.576469 277.042179 
L 98.754059 276.950696 
L 98.842854 276.851619 
L 99.020444 276.973405 
L 99.286829 276.676052 
L 99.375624 276.896988 
L 99.642008 276.492792 
L 99.730803 276.393592 
L 99.819598 276.614585 
L 99.908393 276.408633 
L 99.997188 276.522906 
L 100.085983 276.316913 
L 100.174778 276.431194 
L 100.352368 276.125878 
L 100.707548 275.835406 
L 100.885137 276.064019 
L 101.062727 275.651589 
L 101.151522 275.872763 
L 101.329112 275.673954 
L 101.417907 275.681409 
L 101.595497 275.482518 
L 102.039471 275.091945 
L 102.217061 275.213715 
L 102.394651 274.90762 
L 102.483446 275.235956 
L 103.105011 274.645616 
L 103.193805 274.867077 
L 103.371395 274.453582 
L 103.46019 274.568003 
L 103.81537 274.169009 
L 103.904165 274.39056 
L 104.081755 274.190981 
L 104.259345 274.098482 
L 104.34814 274.212952 
L 104.525729 273.906088 
L 104.792114 273.927985 
L 104.880909 273.613674 
L 105.058499 273.735444 
L 105.236089 273.428301 
L 105.324884 273.435559 
L 105.413679 273.228312 
L 105.502474 273.450076 
L 105.680063 273.357315 
L 105.768858 273.364565 
L 105.946448 273.05716 
L 106.124038 273.286247 
L 106.301628 272.871393 
L 106.390423 272.985945 
L 106.479218 272.885811 
L 106.568013 273.00038 
L 106.656808 272.685495 
L 106.834397 272.807264 
L 106.923192 272.599681 
L 107.011987 272.714266 
L 107.100782 272.614051 
L 107.189577 272.728652 
L 107.367167 272.313306 
L 107.455962 272.427907 
L 107.722347 272.019549 
L 107.811142 272.241632 
L 108.166321 271.840213 
L 108.255116 272.062361 
L 108.521501 271.65361 
L 108.610296 271.553165 
L 108.787886 271.890046 
L 108.965476 271.581543 
L 109.143066 271.595732 
L 109.23186 271.387617 
L 109.320655 271.502308 
L 109.675835 271.10007 
L 109.76463 271.214777 
L 109.94222 271.01356 
L 110.031015 271.128284 
L 110.208605 270.927001 
L 110.2974 271.041741 
L 110.474989 270.624953 
L 110.563784 270.847421 
L 110.741374 270.538247 
L 111.096554 270.458487 
L 111.185349 270.249913 
L 111.274144 270.580273 
L 111.806913 270.083087 
L 112.073298 269.99611 
L 112.250888 269.68637 
L 112.339683 269.909084 
L 112.783658 269.404156 
L 112.872452 269.519003 
L 113.227632 269.114765 
L 113.316427 269.33761 
L 113.582812 269.142291 
L 113.849197 269.162936 
L 114.026786 268.852557 
L 114.115581 268.967469 
L 114.204376 268.758207 
L 114.293171 268.873127 
L 114.648351 268.468136 
L 114.737146 268.691186 
L 114.825941 268.373664 
L 114.914736 268.488609 
L 115.003531 268.279158 
L 115.092326 268.394111 
L 115.181121 268.076466 
L 115.35871 268.198219 
L 115.5363 268.103631 
L 115.71389 267.900808 
L 115.802685 268.015794 
L 116.06907 267.819673 
L 116.335455 267.731713 
L 116.424249 267.630203 
L 116.513044 267.853506 
L 116.690634 267.217282 
L 116.779429 267.548903 
L 116.957019 267.45407 
L 117.134609 267.467538 
L 117.312199 267.155955 
L 117.400994 267.271023 
L 117.667378 267.074409 
L 117.844968 266.979412 
L 118.022558 266.775966 
L 118.111353 266.999491 
L 118.288943 266.687556 
L 118.555328 266.707561 
L 118.732918 266.503935 
L 118.821712 266.402098 
L 118.910507 266.517239 
L 119.088097 266.313515 
L 119.265687 266.326787 
L 119.354482 265.899267 
L 119.443277 266.014417 
L 119.532072 266.021028 
L 119.620867 265.810512 
L 119.798457 266.040861 
L 119.887252 266.047473 
L 119.976047 265.728295 
L 120.064841 265.952091 
L 120.153636 265.632856 
L 120.331226 265.86327 
L 120.508816 265.659169 
L 121.041586 265.155167 
L 121.48556 265.079119 
L 121.574355 264.976904 
L 121.66315 265.200929 
L 121.84074 264.778931 
L 122.284715 264.702645 
L 122.462304 264.497987 
L 122.639894 264.619789 
L 122.906279 264.203787 
L 123.083869 264.325581 
L 123.261459 264.229609 
L 123.350254 264.344972 
L 123.527844 264.140052 
L 123.616638 263.819703 
L 123.705433 263.935066 
L 123.794228 263.832548 
L 123.883023 263.947928 
L 123.971818 263.627464 
L 124.149408 263.749258 
L 124.326998 263.762087 
L 124.504588 263.556888 
L 124.593383 263.672308 
L 124.948562 263.370769 
L 125.037357 263.377151 
L 125.126152 263.16539 
L 125.214947 263.280835 
L 125.481332 263.081747 
L 125.658922 263.203582 
L 125.747717 262.773433 
L 125.836512 262.998039 
L 125.925307 262.895243 
L 126.014101 263.010737 
L 126.191691 262.586756 
L 126.280486 262.70225 
L 126.458076 262.387317 
L 126.546871 262.502819 
L 126.902051 262.528051 
L 126.990846 262.315872 
L 127.079641 262.431415 
L 127.25723 262.116211 
L 127.523615 262.025744 
L 127.701205 261.92897 
L 127.79 261.935229 
L 127.878795 261.722837 
L 128.056385 262.063347 
L 128.233975 261.638449 
L 128.32277 261.754049 
L 128.411564 261.541543 
L 128.500359 261.657152 
L 128.766744 261.238226 
L 128.855539 261.572673 
L 129.033129 261.25683 
L 129.388309 261.172172 
L 129.654693 260.971774 
L 130.009873 260.996481 
L 130.187463 260.789759 
L 130.276258 260.686373 
L 130.365053 260.80208 
L 130.631438 260.382244 
L 130.809027 260.504096 
L 131.075412 260.412883 
L 131.253002 260.315502 
L 131.341797 260.321622 
L 131.430592 260.108436 
L 131.519387 260.2242 
L 131.608182 259.901303 
L 131.696977 260.126745 
L 131.785772 259.694106 
L 131.874567 260.029258 
L 132.052156 259.822027 
L 132.318541 259.730528 
L 132.496131 259.523167 
L 132.673721 259.75481 
L 132.851311 259.218031 
L 132.940106 259.443645 
L 133.117696 259.236119 
L 133.20649 259.461782 
L 133.38408 259.144374 
L 133.56167 259.046567 
L 133.650465 258.942723 
L 133.828055 259.064607 
L 134.005645 258.746961 
L 134.09444 258.972747 
L 134.360825 258.660992 
L 134.449619 258.776904 
L 134.538414 258.672953 
L 134.627209 258.349089 
L 134.716004 258.574957 
L 134.893594 258.476929 
L 135.159979 258.384824 
L 135.337569 258.286722 
L 135.515159 258.188587 
L 135.603953 257.974451 
L 135.692748 258.09042 
L 135.781543 257.876242 
L 135.870338 257.99222 
L 135.959133 257.888072 
L 136.047928 258.004066 
L 136.225518 257.685625 
L 136.314313 257.691524 
L 136.403108 257.917646 
L 136.669493 257.384709 
L 136.758288 257.610871 
L 136.847082 257.396456 
L 136.935877 257.512491 
L 137.113467 257.193723 
L 137.291057 257.315632 
L 137.379852 257.101094 
L 137.557442 257.22301 
L 137.646237 257.118641 
L 137.735032 257.234725 
L 137.823827 256.909854 
L 137.912622 257.136189 
L 138.001416 256.811261 
L 138.090211 256.927353 
L 138.356596 256.724268 
L 138.534186 256.625592 
L 138.800571 256.312018 
L 138.978161 256.654634 
L 139.155751 256.445519 
L 139.33334 256.346721 
L 139.422135 256.242114 
L 139.51093 256.358288 
L 139.68852 256.149026 
L 140.0437 255.840752 
L 140.132495 256.067407 
L 140.22129 255.852238 
L 140.310085 255.968453 
L 140.487674 255.648489 
L 140.842854 255.560873 
L 141.020444 255.351234 
L 141.109239 255.578028 
L 141.198034 255.362638 
L 141.286829 255.478902 
L 141.730803 255.065039 
L 141.908393 254.965773 
L 141.997188 254.750187 
L 142.085983 254.977111 
L 142.263573 254.656492 
L 142.352368 254.883458 
L 142.441163 254.77845 
L 142.529958 255.005456 
L 142.796342 254.468956 
L 142.885137 254.696003 
L 143.062727 254.596566 
L 143.151522 254.712937 
L 143.240317 254.386353 
L 143.329112 254.502724 
L 143.506702 254.292446 
L 143.861882 254.204093 
L 144.128266 253.88843 
L 144.217061 254.004841 
L 144.305856 253.788747 
L 144.394651 254.016016 
L 144.572241 253.805459 
L 144.749831 253.705719 
L 145.016216 253.500593 
L 145.371395 253.411839 
L 145.548985 253.311959 
L 145.63778 253.539416 
L 145.81537 253.106588 
L 146.34814 253.028639 
L 146.436934 252.701032 
L 146.614524 252.823047 
L 146.792114 252.722955 
L 146.880909 252.839514 
L 147.058499 252.517207 
L 147.502474 252.433392 
L 147.591268 252.327704 
L 147.680063 252.444304 
L 147.857653 252.010542 
L 147.946448 252.238319 
L 148.301628 251.815239 
L 148.568013 252.053928 
L 148.656808 251.725625 
L 148.834397 251.958939 
L 149.189577 251.646725 
L 149.278372 251.652116 
L 149.455962 251.328949 
L 149.544757 251.445639 
L 149.899937 251.133064 
L 149.988732 251.138414 
L 150.077526 251.255137 
L 150.166321 251.149113 
L 150.255116 251.265852 
L 150.521501 250.947683 
L 150.699091 251.069779 
L 150.787886 251.075121 
L 150.876681 250.634674 
L 150.965476 250.751438 
L 151.054271 250.645291 
L 151.143066 250.873543 
L 151.23186 250.544428 
L 151.320655 250.661217 
L 151.40945 250.443533 
L 151.498245 250.560329 
L 151.58704 250.342605 
L 151.675835 250.459409 
L 151.76463 250.241644 
L 151.853425 250.581531 
L 152.11981 250.151185 
L 152.208605 250.268023 
L 152.2974 249.938564 
L 152.474989 250.28385 
L 152.741374 249.853201 
L 152.830169 249.970071 
L 152.918964 249.863687 
L 153.007759 249.980574 
L 153.096554 249.650869 
L 153.185349 249.879416 
L 153.274144 249.772991 
L 153.362939 249.443196 
L 153.451734 249.671776 
L 153.540529 249.453617 
L 153.629323 249.570528 
L 153.718118 249.464037 
L 153.806913 249.580965 
L 153.895708 249.362732 
L 153.984503 249.479668 
L 154.073298 249.261394 
L 154.339683 249.500509 
L 154.606068 249.068975 
L 154.872452 248.860876 
L 154.961247 248.977862 
L 155.138837 248.76452 
L 155.582812 248.790284 
L 155.849197 248.581931 
L 156.026786 248.592204 
L 156.293171 248.159827 
L 156.381966 248.276885 
L 156.648351 248.068262 
L 156.737146 248.073358 
L 156.914736 247.859541 
L 157.003531 248.088644 
L 157.181121 247.874778 
L 157.269915 247.879857 
L 157.35871 247.996982 
L 157.625095 247.676035 
L 157.71389 247.793175 
L 157.802685 247.574074 
L 157.89148 247.691223 
L 158.06907 247.365017 
L 158.24666 247.48722 
L 158.424249 247.497313 
L 158.513044 247.278056 
L 158.601839 247.395246 
L 158.868224 247.073808 
L 158.957019 247.191014 
L 159.045814 246.971634 
L 159.134609 247.088849 
L 159.312199 246.7622 
L 159.400994 247.10389 
L 159.578584 246.664917 
L 159.667378 246.894414 
L 159.933763 246.460275 
L 160.111353 246.694803 
L 160.466533 246.377731 
L 160.555328 246.382687 
L 160.644123 246.275295 
L 160.821712 246.397556 
L 160.999302 246.182706 
L 161.088097 245.850479 
L 161.176892 246.192586 
L 161.532072 245.875055 
L 161.620867 245.992409 
L 161.709662 245.659993 
L 161.798457 245.889801 
L 161.887252 245.669791 
L 161.976047 246.012103 
L 162.242431 245.464396 
L 162.508816 245.479043 
L 162.597611 245.371397 
L 162.686406 245.713882 
L 162.863996 245.160914 
L 162.952791 245.390895 
L 163.130381 245.062911 
L 163.219175 245.180346 
L 163.48556 244.9697 
L 163.574355 245.08716 
L 163.66315 244.866756 
L 163.751945 244.984225 
L 164.01833 244.77343 
L 164.107125 244.890923 
L 164.284715 244.675222 
L 164.37351 244.680039 
L 164.551099 244.576964 
L 164.639894 244.581773 
L 164.995074 244.26276 
L 165.172664 244.49786 
L 165.261459 244.389887 
L 165.350254 244.056332 
L 165.439049 244.286681 
L 165.616638 243.957829 
L 165.705433 244.075403 
L 165.794228 243.967348 
L 165.883023 244.084939 
L 165.971818 243.751188 
L 166.238203 243.991146 
L 166.415793 243.774904 
L 166.504588 243.779648 
L 166.770973 243.455137 
L 166.859767 243.572778 
L 167.126152 243.361066 
L 167.214947 243.365776 
L 167.303742 243.144562 
L 167.392537 243.262227 
L 167.570127 243.158644 
L 167.658922 243.389329 
L 167.747717 243.055029 
L 167.836512 243.285738 
L 168.280486 242.857039 
L 168.369281 242.861709 
L 168.458076 243.092516 
L 168.635666 242.649546 
L 168.724461 242.654199 
L 168.902051 242.437286 
L 168.990846 242.668159 
L 169.079641 242.333433 
L 169.168436 242.677465 
L 169.346025 242.347319 
L 169.523615 242.356576 
L 169.701205 242.139465 
L 169.79 242.370462 
L 169.878795 242.14869 
L 169.96759 242.379719 
L 170.14518 242.049302 
L 170.233975 242.167139 
L 170.32277 241.945269 
L 170.500359 242.067718 
L 170.589154 241.732525 
L 170.677949 241.963652 
L 170.855539 241.746263 
L 171.033129 241.868729 
L 171.121924 241.533372 
L 171.210719 241.764581 
L 171.388309 241.547061 
L 171.654693 241.334022 
L 171.743488 241.565313 
L 171.832283 241.116355 
L 171.921078 241.461051 
L 172.098668 241.129946 
L 172.276258 241.252428 
L 172.365053 241.256966 
L 172.720233 240.934733 
L 172.809027 240.939247 
L 172.986617 240.834788 
L 173.075412 240.839293 
L 173.164207 240.616793 
L 173.253002 240.961816 
L 173.430592 240.743789 
L 173.696977 240.530176 
L 173.785772 240.534657 
L 173.963362 240.316466 
L 174.229746 240.32986 
L 174.496131 240.002376 
L 174.584926 240.12045 
L 174.673721 240.011256 
L 174.851311 240.133795 
L 175.295285 239.587538 
L 175.472875 239.823785 
L 175.650465 239.605167 
L 175.73926 239.609575 
L 175.828055 239.727731 
L 176.09444 239.513431 
L 176.183235 239.631612 
L 176.27203 239.180859 
L 176.360825 239.299032 
L 176.449619 239.075802 
L 176.538414 239.307798 
L 176.627209 239.084535 
L 176.716004 239.430394 
L 176.982389 238.87429 
L 177.071184 239.106367 
L 177.248774 238.88734 
L 177.337569 238.777801 
L 177.426364 238.89604 
L 177.692748 238.567327 
L 177.870338 238.803853 
L 178.314313 238.369648 
L 178.403108 238.373957 
L 178.580698 238.496579 
L 178.935877 238.057705 
L 179.113467 238.180326 
L 179.291057 238.074843 
L 179.379852 238.079127 
L 179.468647 238.197497 
L 179.646237 237.863778 
L 179.735032 237.868046 
L 179.823827 237.986432 
L 180.001416 237.766717 
L 180.090211 237.885119 
L 180.267801 237.665338 
L 180.445391 237.673842 
L 180.800571 237.348225 
L 180.889366 237.352452 
L 180.978161 237.585128 
L 181.155751 237.365134 
L 181.244545 237.48361 
L 181.422135 237.149285 
L 181.599725 237.157707 
L 181.68852 236.933338 
L 181.86611 237.056033 
L 182.0437 236.835793 
L 182.132495 236.725649 
L 182.22129 236.844166 
L 182.398879 236.738183 
L 182.487674 236.742361 
L 182.576469 236.86091 
L 182.665264 236.521957 
L 182.754059 236.754895 
L 182.842854 236.415884 
L 182.931649 236.648846 
L 183.020444 236.424191 
L 183.109239 236.542765 
L 183.198034 236.432498 
L 183.286829 236.551089 
L 183.642008 235.995385 
L 183.819598 236.232599 
L 184.174778 235.90559 
L 184.352368 236.028351 
L 184.441163 236.032471 
L 184.618753 235.582472 
L 184.707548 235.930265 
L 184.796342 235.705225 
L 184.973932 235.82801 
L 185.240317 235.381853 
L 185.329112 235.385925 
L 185.595497 235.168839 
L 185.684292 235.402211 
L 185.861882 235.295679 
L 185.950677 235.414425 
L 186.217061 235.082517 
L 186.305856 235.20128 
L 186.483446 234.865194 
L 186.661036 235.102752 
L 186.749831 234.877286 
L 186.838626 234.996081 
L 187.016216 234.659815 
L 187.105011 234.778618 
L 187.193805 234.782641 
L 187.371395 234.561057 
L 187.46019 234.794708 
L 187.726575 234.232541 
L 187.904165 234.47023 
L 188.17055 234.252448 
L 188.259345 234.371325 
L 188.34814 234.145507 
L 188.436934 234.264392 
L 188.703319 233.931526 
L 188.792114 234.165373 
L 188.969704 233.828435 
L 189.147294 234.066288 
L 189.324884 233.844229 
L 189.413679 233.848178 
L 189.502474 233.622105 
L 189.591268 233.741056 
L 189.857653 233.407747 
L 190.035243 233.530639 
L 190.124038 233.419495 
L 190.212833 233.538487 
L 190.390423 233.201058 
L 190.479218 233.320058 
L 190.568013 233.208857 
L 190.745603 233.331781 
L 191.100782 233.001937 
L 191.278372 233.009704 
L 191.367167 232.898404 
L 191.455962 233.01747 
L 191.544757 232.790955 
L 191.633552 233.025236 
L 191.811142 232.687331 
L 191.899937 232.69119 
L 191.988732 232.810288 
L 192.077526 232.583659 
L 192.166321 232.818022 
L 192.610296 232.260868 
L 192.787886 232.383834 
L 192.876681 232.387668 
L 192.965476 232.506832 
L 193.143066 232.168476 
L 193.23186 232.287649 
L 193.40945 232.064558 
L 193.675835 232.075986 
L 193.76463 232.1952 
L 193.94222 231.856574 
L 194.031015 232.091224 
L 194.208605 231.752508 
L 194.474989 231.763862 
L 194.830169 231.316993 
L 195.007759 231.555534 
L 195.274144 231.335753 
L 195.451734 231.343257 
L 195.718118 231.123345 
L 195.806913 231.358265 
L 195.984503 231.134552 
L 196.250888 230.798859 
L 196.428478 230.921931 
L 196.606068 230.813703 
L 196.694863 230.817414 
L 196.783658 230.936808 
L 196.961247 230.712849 
L 197.050042 230.832259 
L 197.138837 230.488824 
L 197.227632 230.608234 
L 197.405222 230.384144 
L 197.494017 230.619318 
L 197.671607 230.395179 
L 197.760402 230.283085 
L 197.849197 230.402535 
L 198.115581 230.18196 
L 198.204376 230.185622 
L 198.293171 230.305105 
L 198.470761 229.964931 
L 198.559556 230.084423 
L 198.825941 229.863643 
L 198.914736 229.86728 
L 199.003531 229.986804 
L 199.269915 229.765917 
L 199.35871 229.769547 
L 199.625095 229.548545 
L 199.71389 229.552158 
L 199.89148 229.211476 
L 199.980275 229.331041 
L 200.157865 229.570222 
L 200.335455 229.345427 
L 200.424249 229.349023 
L 200.513044 229.120567 
L 200.601839 229.240181 
L 200.690634 229.127727 
L 200.779429 229.247358 
L 200.957019 228.906332 
L 201.134609 229.145627 
L 201.312199 228.804486 
L 201.489789 228.811597 
L 201.578584 228.699027 
L 201.756173 228.822263 
L 202.111353 228.487963 
L 202.377738 228.556655 
L 202.644123 228.102367 
L 202.732918 228.396447 
L 203.088097 228.061746 
L 203.176892 228.065244 
L 203.354482 228.130384 
L 204.508816 227.535739 
L 204.597611 227.597398 
L 204.863996 227.43314 
L 205.041586 227.440038 
L 205.219175 227.388705 
L 205.30797 227.39215 
L 205.751945 227.00159 
L 205.929535 227.008422 
L 206.01833 226.895304 
L 206.19592 226.960395 
L 206.817484 226.692759 
L 206.906279 226.696151 
L 207.083869 226.586301 
L 207.172664 226.648005 
L 207.439049 226.249838 
L 207.527844 226.428208 
L 207.616638 226.198215 
L 207.705433 226.259915 
L 207.971818 226.328348 
L 208.060613 226.098266 
L 208.238203 226.221698 
L 208.326998 225.933184 
L 208.415793 226.111652 
L 208.682178 225.829741 
L 208.859767 226.011588 
L 209.037357 225.726232 
L 209.126152 225.78796 
L 209.303742 225.619348 
L 209.392537 225.681081 
L 209.570127 225.629277 
L 210.102896 225.356857 
L 210.280486 225.421899 
L 210.546871 225.25635 
L 210.635666 225.259631 
L 210.813256 225.090728 
L 211.25723 224.873036 
L 211.346025 224.934801 
L 211.61241 224.768995 
L 211.701205 224.830768 
L 211.878795 224.603115 
L 211.96759 224.72343 
L 212.056385 224.492487 
L 212.14518 224.55426 
L 212.500359 224.450039 
L 212.589154 224.511829 
L 212.677949 224.280754 
L 212.766744 224.34254 
L 212.944334 224.290376 
L 213.121924 224.296791 
L 213.299514 224.068793 
L 213.388309 224.071984 
L 213.565899 224.01975 
L 213.832283 223.970683 
L 214.098668 223.687031 
L 214.276258 223.752004 
L 214.453848 223.582367 
L 214.631438 223.64734 
L 214.720233 223.650498 
L 215.075412 223.31102 
L 215.164207 223.431532 
L 215.430592 223.14745 
L 215.519387 223.326688 
L 215.696977 223.0981 
L 215.874567 223.163056 
L 216.052156 222.993108 
L 216.140951 222.937483 
L 216.229746 223.058065 
L 216.496131 222.7149 
L 216.584926 222.953007 
L 216.673721 222.60356 
L 216.762516 222.841691 
L 216.851311 222.786021 
L 217.028901 222.557106 
L 217.20649 222.504475 
L 217.38408 222.510619 
L 217.472875 222.337304 
L 217.56167 222.457963 
L 217.650465 222.343424 
L 217.73926 222.464099 
L 218.005645 222.238023 
L 218.09444 222.241074 
L 218.183235 222.067641 
L 218.27203 222.188345 
L 218.360825 222.014883 
L 218.449619 222.076759 
L 218.716004 222.027024 
L 218.804799 222.030059 
L 218.982389 221.800668 
L 219.071184 221.862556 
L 219.337569 221.69498 
L 219.515159 221.701002 
L 220.047928 221.483408 
L 220.314313 221.433464 
L 221.113467 220.988667 
L 221.202262 221.168527 
L 221.291057 221.112525 
L 221.557442 220.708534 
L 221.646237 220.947423 
L 221.912622 220.661281 
L 222.001416 220.723218 
L 222.090211 220.608138 
L 222.179006 220.788105 
L 222.445391 220.501803 
L 222.534186 220.563753 
L 222.800571 220.395402 
L 223.155751 220.347994 
L 223.244545 220.173717 
L 223.422135 220.238579 
L 223.51093 220.005182 
L 223.599725 220.067144 
L 223.777315 220.132006 
L 224.0437 219.845188 
L 224.132495 219.788956 
L 224.22129 220.028251 
L 224.487674 219.682187 
L 224.665264 219.628778 
L 225.020444 219.462766 
L 225.109239 219.643053 
L 225.198034 219.586756 
L 225.997188 219.079714 
L 226.085983 219.378493 
L 226.174778 219.085342 
L 226.263573 219.147358 
L 226.796342 218.808912 
L 226.885137 218.989395 
L 226.973932 218.696031 
L 227.062727 218.876531 
L 227.151522 218.820086 
L 227.240317 218.645141 
L 227.329112 218.825673 
L 227.506702 218.653485 
L 228.128266 218.376518 
L 228.305856 218.38204 
L 228.394651 218.3848 
L 228.749831 218.039949 
L 228.927421 218.045421 
L 229.105011 217.991561 
L 229.2826 218.056366 
L 229.46019 217.824444 
L 229.63778 217.829884 
L 229.904165 217.659936 
L 229.99296 217.840763 
L 230.259345 217.61138 
L 230.34814 217.614084 
L 230.614524 217.443989 
L 231.058499 217.279177 
L 231.147294 217.400709 
L 231.236089 217.165674 
L 231.324884 217.227779 
L 231.591268 216.998016 
L 231.768858 217.122243 
L 231.946448 216.889723 
L 232.035243 217.011308 
L 232.301628 216.781364 
L 232.568013 216.729799 
L 232.745603 216.556574 
L 232.923192 216.680842 
L 233.811142 216.230785 
L 233.988732 216.17643 
L 234.432706 216.010681 
L 234.610296 215.956264 
L 234.699091 215.899254 
L 234.787886 216.021019 
L 234.965476 215.668573 
L 235.054271 215.671133 
L 235.23186 215.855098 
L 235.320655 215.798051 
L 235.498245 215.445425 
L 235.58704 215.686494 
L 235.675835 215.629419 
L 235.853425 215.4556 
L 235.94222 215.398496 
L 236.11981 215.463231 
L 236.2974 215.408654 
L 236.474989 215.115373 
L 236.652579 215.239772 
L 236.830169 215.185138 
L 236.918964 215.008583 
L 237.096554 215.073306 
L 237.185349 215.075821 
L 237.362939 214.901711 
L 237.451734 214.844497 
L 237.540529 215.026159 
L 237.718118 214.672804 
L 237.806913 214.735024 
L 237.984503 214.740005 
L 238.162093 214.625486 
L 238.250888 214.687722 
L 238.517273 214.456116 
L 238.783658 214.403747 
L 239.316427 214.179329 
L 239.405222 214.241586 
L 239.582812 213.947415 
L 239.671607 214.129307 
L 239.849197 213.954714 
L 239.937992 214.076811 
L 240.026786 213.959581 
L 240.115581 214.081694 
L 240.381966 213.670051 
L 240.648351 213.737153 
L 241.003531 213.627058 
L 241.092326 213.629467 
L 241.35871 213.397102 
L 241.89148 213.351533 
L 242.06907 213.116588 
L 242.24666 213.18127 
L 242.335455 213.003818 
L 242.424249 213.066128 
L 242.779429 212.895709 
L 242.868224 213.017999 
L 242.957019 212.840449 
L 243.045814 212.902775 
L 243.312199 212.669891 
L 243.489789 212.734564 
L 243.578584 212.556907 
L 243.756173 212.621577 
L 244.200148 212.333108 
L 244.288943 212.51552 
L 244.466533 212.340051 
L 244.732918 212.226888 
L 244.821712 212.289251 
L 245.176892 211.93805 
L 245.354482 212.122867 
L 245.443277 211.824735 
L 245.620867 212.009572 
L 246.420021 211.489001 
L 246.508816 211.731795 
L 246.863996 211.379963 
L 247.041586 211.444612 
L 247.219175 211.208438 
L 247.574355 211.157184 
L 247.751945 211.16164 
L 247.929535 211.166097 
L 248.284715 210.813708 
L 248.37351 210.936354 
L 248.551099 210.880548 
L 249.083869 210.65278 
L 249.172664 210.654971 
L 249.350254 210.599088 
L 249.439049 210.601275 
L 249.705433 210.42699 
L 249.883023 210.371049 
L 249.971818 210.252631 
L 250.060613 210.43569 
L 250.326998 210.140659 
L 250.593383 210.147123 
L 250.770973 210.0911 
L 250.859767 210.153587 
L 251.214947 209.860444 
L 251.303742 209.862578 
L 251.481332 209.685753 
L 251.747717 209.873249 
L 252.458076 209.527864 
L 252.546871 209.529974 
L 252.813256 209.113321 
L 252.990846 209.419653 
L 253.346025 209.125806 
L 253.43482 208.946523 
L 253.523615 209.00905 
L 253.61241 209.132049 
L 253.96759 208.837976 
L 254.233975 208.96514 
L 254.500359 208.729331 
L 254.677949 208.793947 
L 254.766744 208.614455 
L 254.855539 208.79806 
L 255.033129 208.499531 
L 255.121924 208.441034 
L 255.210719 208.624675 
L 255.477104 208.267515 
L 255.565899 208.39064 
L 255.654693 208.210996 
L 255.743488 208.273573 
L 255.832283 208.336157 
L 255.921078 208.217042 
L 256.009873 208.340204 
L 256.098668 208.099918 
L 256.187463 208.162507 
L 256.276258 208.164518 
L 256.453848 207.986759 
L 256.631438 207.990757 
L 256.720233 208.174574 
L 256.897822 207.81491 
L 256.986617 207.816897 
L 257.164207 207.760244 
L 257.253002 207.822857 
L 257.341797 207.642939 
L 257.519387 207.707531 
L 257.608182 207.709509 
L 257.696977 207.529534 
L 257.785772 207.592156 
L 257.874567 207.594126 
L 258.052156 207.537399 
L 258.318541 207.482617 
L 258.584926 207.306427 
L 258.762516 207.067525 
L 258.851311 207.372981 
L 259.028901 207.012613 
L 259.117696 207.075259 
L 259.20649 206.955751 
L 259.295285 207.200575 
L 259.650465 206.843894 
L 259.73926 206.906556 
L 259.91685 206.849645 
L 260.538414 206.559153 
L 260.627209 206.561049 
L 260.716004 206.684527 
L 260.893594 206.566739 
L 260.982389 206.629438 
L 261.071184 206.388111 
L 261.159979 206.511617 
L 261.248774 206.331065 
L 261.337569 206.393764 
L 261.959133 206.041867 
L 262.136723 206.167298 
L 262.225518 205.986586 
L 262.314313 206.110169 
L 262.580698 205.872255 
L 262.669493 205.995863 
L 262.758288 205.75418 
L 262.847082 205.816908 
L 263.202262 205.702471 
L 263.379852 205.706141 
L 263.468647 205.525224 
L 263.557442 205.587968 
L 263.735032 205.530692 
L 264.001416 205.292393 
L 264.090211 205.537983 
L 264.267801 205.236858 
L 264.445391 205.362387 
L 264.711776 205.184894 
L 264.978161 205.129302 
L 265.244545 204.951686 
L 265.422135 204.95525 
L 265.68852 204.960595 
L 265.777315 204.596234 
L 265.86611 204.781075 
L 266.0437 204.723578 
L 266.310085 204.423632 
L 266.398879 204.669587 
L 266.487674 204.610291 
L 266.754059 204.371287 
L 266.931649 204.374769 
L 267.109239 204.378251 
L 267.375624 204.077985 
L 267.642008 204.388696 
L 267.730803 204.084867 
L 267.819598 204.269941 
L 267.997188 204.028901 
L 268.174778 203.971199 
L 268.529958 203.978048 
L 268.796342 203.677369 
L 268.885137 203.862562 
L 269.062727 203.682444 
L 269.506702 203.384923 
L 269.595497 203.570194 
L 269.684292 203.510673 
L 270.128266 203.274172 
L 270.305856 203.338731 
L 271.105011 202.924847 
L 271.193805 202.987759 
L 271.2826 202.866846 
L 271.371395 203.052327 
L 271.46019 202.747543 
L 271.548985 202.871749 
L 271.81537 202.692745 
L 272.081755 202.758926 
L 272.34814 202.334515 
L 272.436934 202.458775 
L 272.525729 202.644386 
L 272.792114 202.342503 
L 273.058499 202.408655 
L 273.680063 202.051535 
L 273.768858 202.114505 
L 273.857653 201.931896 
L 273.946448 201.994866 
L 274.301628 202.001157 
L 274.568013 201.821588 
L 275.011987 201.583591 
L 275.278372 201.649686 
L 275.367167 201.405369 
L 275.455962 201.652783 
L 275.544757 201.346959 
L 275.633552 201.409965 
L 275.722347 201.595945 
L 275.899937 201.35307 
L 276.077526 201.294627 
L 276.166321 201.173144 
L 276.255116 201.359182 
L 276.432706 201.177691 
L 276.699091 201.059182 
L 276.876681 201.123733 
L 276.965476 200.879084 
L 277.054271 201.065212 
L 277.23186 200.822017 
L 277.320655 200.946621 
L 277.40945 200.701878 
L 277.58704 200.766413 
L 277.853425 200.709292 
L 278.031015 200.712258 
L 278.2974 200.4703 
L 278.563784 200.536313 
L 278.652579 200.537784 
L 278.830169 200.417473 
L 278.918964 200.480565 
L 279.185349 200.176752 
L 279.362939 200.117994 
L 279.540529 200.305854 
L 279.718118 200.000427 
L 279.806913 200.063532 
L 279.984503 200.004728 
L 280.073298 200.067845 
L 280.250888 199.823954 
L 280.339683 199.948767 
L 280.428478 199.765097 
L 280.517273 199.951626 
L 280.783658 199.70905 
L 280.961247 199.650152 
L 281.050042 199.528104 
L 281.316427 199.77927 
L 281.671607 199.290882 
L 281.760402 199.415789 
L 282.026786 199.234646 
L 282.204376 199.237407 
L 282.293171 199.300573 
L 282.381966 199.116588 
L 282.470761 199.179754 
L 282.559556 199.181131 
L 282.737146 199.122077 
L 283.447505 198.700181 
L 283.5363 198.887054 
L 283.625095 198.702868 
L 283.71389 198.827914 
L 283.89148 198.645039 
L 283.980275 198.83197 
L 284.157865 198.587186 
L 284.335455 198.589857 
L 284.424249 198.40554 
L 284.513044 198.592527 
L 284.690634 198.347612 
L 285.045814 198.414801 
L 285.223404 198.107842 
L 285.400994 198.234306 
L 285.578584 198.113053 
L 285.667378 198.238238 
L 285.756173 197.991767 
L 285.844968 198.055011 
L 286.022558 197.99565 
L 286.555328 197.755486 
L 286.644123 197.756764 
L 286.732918 197.882024 
L 286.910507 197.512603 
L 286.999302 197.637871 
L 287.354482 197.580931 
L 287.709662 197.461922 
L 287.798457 197.525219 
L 287.976047 197.279551 
L 288.153636 197.406153 
L 288.242431 197.221226 
L 288.331226 197.346596 
L 288.597611 197.039961 
L 288.686406 197.165351 
L 288.863996 197.043647 
L 288.952791 197.044876 
L 289.130381 196.86103 
L 289.219175 197.048563 
L 289.396765 196.86468 
L 289.48556 196.928014 
L 289.574355 196.74287 
L 289.66315 196.992581 
L 289.84074 196.746495 
L 289.929535 196.871979 
L 290.107125 196.563681 
L 290.284715 196.690382 
L 290.551099 196.507495 
L 290.817484 196.511071 
L 290.995074 196.326893 
L 291.261459 196.330432 
L 291.350254 196.082797 
L 291.527844 196.209548 
L 291.705433 196.274111 
L 291.794228 195.964166 
L 291.883023 196.214234 
L 292.060613 195.967631 
L 292.149408 196.093267 
L 292.326998 195.908848 
L 292.415793 196.034504 
L 292.682178 195.788922 
L 292.770973 195.790065 
L 292.948562 195.667796 
L 293.037357 195.793493 
L 293.126152 195.607779 
L 293.214947 195.6712 
L 293.303742 195.672334 
L 293.392537 195.424278 
L 293.481332 195.612302 
L 293.570127 195.551126 
L 293.747717 195.366436 
L 293.836512 195.429869 
L 294.014101 195.369779 
L 294.191691 195.309672 
L 294.369281 195.124864 
L 294.458076 195.37535 
L 294.635666 195.190512 
L 294.724461 195.316333 
L 294.902051 195.069083 
L 295.079641 195.008895 
L 295.25723 195.011074 
L 295.43482 194.950861 
L 295.79 194.767978 
L 295.878795 194.831463 
L 295.96759 194.645291 
L 296.14518 194.834695 
L 296.233975 194.648486 
L 296.32277 194.711984 
L 296.944334 194.407159 
L 297.477104 194.350965 
L 297.565899 194.102048 
L 297.743488 194.229101 
L 297.921078 194.043654 
L 298.098668 194.108217 
L 298.276258 194.04775 
L 298.631438 193.864228 
L 298.809027 193.928799 
L 299.341797 193.622033 
L 299.519387 193.686604 
L 299.963362 193.503798 
L 300.140951 193.443164 
L 300.407336 193.383491 
L 300.496131 193.509721 
L 300.762516 193.136856 
L 300.940106 193.201427 
L 301.028901 193.014444 
L 301.117696 193.266015 
L 301.295285 193.017307 
L 301.472875 193.019216 
L 301.56167 193.02017 
L 301.650465 192.895767 
L 301.73926 193.022079 
L 302.005645 192.836857 
L 302.09444 192.837799 
L 302.183235 192.650631 
L 302.27203 192.714268 
L 302.538414 192.77979 
L 302.716004 192.530754 
L 302.804799 192.65714 
L 303.071184 192.471697 
L 303.248774 192.473532 
L 303.603953 192.414433 
L 303.692748 192.101482 
L 303.781543 192.41626 
L 304.047928 192.105053 
L 304.314313 192.170534 
L 304.669493 191.985668 
L 304.758288 192.049375 
L 304.935877 191.925492 
L 305.202262 191.928134 
L 305.379852 191.741343 
L 305.557442 191.74308 
L 305.735032 191.744817 
L 306.267801 191.435568 
L 306.445391 191.500164 
L 306.622981 191.376052 
L 306.800571 191.440656 
L 306.978161 191.253578 
L 307.155751 191.255249 
L 307.422135 191.257756 
L 307.599725 191.070568 
L 307.68852 191.071391 
L 307.86611 190.884141 
L 307.954905 191.073861 
L 308.132495 190.823597 
L 308.310085 190.888196 
L 308.398879 191.014988 
L 308.576469 190.701635 
L 308.842854 190.704031 
L 309.109239 190.517359 
L 309.198034 190.770253 
L 309.375624 190.519718 
L 309.464419 190.583544 
L 309.553214 190.458248 
L 309.642008 190.585125 
L 309.819598 190.334484 
L 309.908393 190.461377 
L 309.997188 190.399096 
L 310.529958 190.088324 
L 310.618753 190.215266 
L 310.707548 190.026743 
L 310.796342 190.090597 
L 310.885137 189.965145 
L 310.973932 190.092113 
L 311.062727 189.903532 
L 311.151522 189.967394 
L 311.329112 189.968893 
L 311.417907 189.969643 
L 311.684292 189.782467 
L 311.773087 189.783204 
L 311.861882 189.657642 
L 311.950677 189.721525 
L 312.039471 189.6591 
L 312.128266 189.786153 
L 312.305856 189.534947 
L 312.394651 189.662017 
L 312.483446 189.410032 
L 312.572241 189.473927 
L 312.661036 189.474644 
L 312.749831 189.601742 
L 312.838626 189.539272 
L 313.016216 189.351105 
L 313.193805 189.352522 
L 313.2826 189.163585 
L 313.371395 189.227501 
L 313.548985 189.292129 
L 313.726575 189.103831 
L 314.259345 189.107984 
L 314.525729 188.856971 
L 314.792114 188.858998 
L 314.880909 188.986252 
L 314.969704 188.797057 
L 315.058499 188.861026 
L 315.324884 188.863053 
L 315.502474 188.611134 
L 315.591268 188.611794 
L 315.680063 188.485801 
L 315.768858 188.613113 
L 315.857653 188.550438 
L 316.035243 188.425064 
L 316.124038 188.425711 
L 316.212833 188.299657 
L 316.301628 188.427006 
L 316.479218 188.301574 
L 316.568013 188.36558 
L 316.745603 188.240116 
L 316.923192 188.241386 
L 317.011987 188.051859 
L 317.100782 188.115873 
L 317.367167 187.927542 
L 317.455962 188.181788 
L 317.722347 187.99342 
L 317.811142 188.057462 
L 317.899937 187.8678 
L 317.988732 187.931843 
L 318.255116 187.870241 
L 318.343911 187.870852 
L 318.521501 187.745158 
L 318.610296 187.809222 
L 318.699091 187.619432 
L 318.787886 187.683495 
L 318.965476 187.494259 
L 319.054271 187.68529 
L 319.23186 187.432527 
L 319.40945 187.497188 
L 319.58704 187.307841 
L 319.76463 187.372502 
L 319.94222 187.246612 
L 320.031015 187.374235 
L 320.11981 187.311282 
L 320.652579 186.996946 
L 320.830169 186.998052 
L 321.096554 186.936135 
L 321.362939 186.810605 
L 321.451734 186.874738 
L 321.629323 186.685027 
L 321.895708 186.750237 
L 322.073298 186.687689 
L 322.428478 186.43527 
L 322.517273 186.690352 
L 322.783658 186.373681 
L 322.961247 186.374705 
L 323.405222 186.313583 
L 323.671607 186.124023 
L 323.760402 186.188217 
L 323.937992 185.998096 
L 324.115581 186.062786 
L 324.204376 185.87212 
L 324.381966 186.064261 
L 324.559556 185.937773 
L 324.648351 185.619558 
L 324.737146 185.811252 
L 324.825941 185.747979 
L 325.092326 185.813153 
L 325.181121 185.558571 
L 325.269915 185.686566 
L 325.35871 185.559489 
L 325.447505 185.623724 
L 325.625095 185.62465 
L 325.980275 185.435098 
L 326.157865 185.435999 
L 326.601839 185.119103 
L 326.690634 185.311035 
L 326.779429 185.119963 
L 326.868224 185.375761 
L 327.045814 185.121254 
L 327.223404 184.994397 
L 327.400994 185.122974 
L 327.489789 185.123404 
L 327.756173 184.805279 
L 328.111353 184.934717 
L 328.200148 184.807327 
L 328.288943 184.935552 
L 328.377738 184.680323 
L 328.466533 184.74464 
L 328.732918 184.681929 
L 328.821712 184.490534 
L 328.999302 184.747074 
L 329.088097 184.427757 
L 329.176892 184.556039 
L 329.443277 184.365336 
L 329.532072 184.365717 
L 329.709662 184.494425 
L 329.887252 184.239278 
L 329.976047 184.367622 
L 330.064841 184.112045 
L 330.242431 184.240769 
L 330.597611 184.114232 
L 330.775201 184.114961 
L 330.863996 183.923247 
L 330.952791 184.05166 
L 331.041586 183.923951 
L 331.130381 183.988342 
L 331.48556 183.733548 
L 331.574355 183.862006 
L 331.66315 183.798291 
L 331.751945 183.798635 
L 331.929535 183.671172 
L 332.284715 183.672516 
L 332.462304 183.480887 
L 332.551099 183.545315 
L 332.639894 183.353318 
L 332.728689 183.610083 
L 332.995074 183.22633 
L 333.083869 183.226637 
L 333.172664 183.35521 
L 333.261459 183.291389 
L 333.350254 183.163418 
L 333.439049 183.227866 
L 333.794228 183.229095 
L 333.883023 183.101071 
L 334.060613 183.29419 
L 334.238203 182.909721 
L 334.415793 183.038675 
L 334.504588 182.910581 
L 334.593383 183.039265 
L 334.859767 182.847517 
L 335.037357 182.783864 
L 335.214947 182.784421 
L 335.392537 182.720743 
L 335.658922 182.528823 
L 335.925307 182.59387 
L 336.014101 182.401344 
L 336.102896 182.465866 
L 336.191691 182.530396 
L 336.458076 182.274045 
L 336.546871 182.338579 
L 336.635666 182.145951 
L 336.724461 182.210486 
L 336.990846 182.27552 
L 337.079641 182.275765 
L 337.346025 181.954876 
L 337.701205 182.084461 
L 337.878795 181.891878 
L 338.056385 182.021036 
L 338.233975 181.76403 
L 338.32277 181.892984 
L 338.500359 181.764669 
L 338.589154 181.829264 
L 338.677949 181.571934 
L 338.766744 181.636526 
L 338.944334 181.701335 
L 339.033129 181.443931 
L 339.121924 181.508531 
L 339.299514 181.444508 
L 339.388309 181.57354 
L 339.477104 181.509317 
L 339.565899 181.380658 
L 339.654693 181.445278 
L 339.743488 181.509907 
L 340.009873 181.317152 
L 340.187463 181.124151 
L 340.365053 181.317889 
L 340.809027 181.125356 
L 340.897822 181.125528 
L 341.075412 180.932379 
L 341.253002 180.997205 
L 341.341797 180.803839 
L 341.430592 180.868505 
L 341.608182 180.67525 
L 341.696977 180.804446 
L 341.785772 180.804597 
L 341.874567 180.67568 
L 341.963362 180.740362 
L 342.052156 180.675967 
L 342.140951 180.805203 
L 342.407336 180.482864 
L 342.584926 180.61226 
L 342.673721 180.418686 
L 342.762516 180.547963 
L 342.851311 180.41894 
L 342.940106 180.48365 
L 343.117696 180.548504 
L 343.20649 180.225661 
L 343.295285 180.290375 
L 343.650465 180.355466 
L 343.828055 180.161839 
L 343.91685 180.291207 
L 344.005645 180.226693 
L 344.09444 180.032897 
L 344.183235 180.097641 
L 344.27203 180.033102 
L 344.360825 180.162503 
L 344.538414 179.839438 
L 344.627209 179.904189 
L 344.804799 179.775039 
L 345.159979 179.904755 
L 345.248774 179.710779 
L 345.337569 179.775555 
L 345.603953 179.6464 
L 345.692748 179.711189 
L 345.781543 179.581842 
L 345.870338 179.646634 
L 345.959133 179.646712 
L 346.047928 179.517336 
L 346.136723 179.646867 
L 346.225518 179.45274 
L 346.314313 179.582284 
L 346.580698 179.388251 
L 346.669493 179.453068 
L 346.758288 179.194095 
L 346.935877 179.323729 
L 347.113467 179.194292 
L 347.291057 179.323959 
L 347.468647 179.194489 
L 347.557442 179.259334 
L 347.735032 179.000222 
L 348.267801 179.000443 
L 348.356596 178.80598 
L 348.445391 178.870842 
L 348.534186 178.870871 
L 348.622981 178.741209 
L 348.711776 178.806079 
L 348.978161 178.74129 
L 349.066956 178.741311 
L 349.244545 178.611603 
L 349.33334 178.676494 
L 349.599725 178.416981 
L 349.954905 178.546795 
L 350.132495 178.222235 
L 350.22129 178.416981 
L 350.398879 178.222198 
L 350.487674 178.416981 
L 350.576469 178.222174 
L 350.665264 178.287101 
L 350.842854 178.092241 
L 350.931649 178.222124 
L 351.198034 178.157123 
L 351.553214 177.962115 
L 351.819598 178.092016 
L 352.085983 177.766927 
L 352.174778 177.766886 
L 352.263573 177.896873 
L 352.352368 177.831822 
L 352.441163 177.831785 
L 352.529958 177.701697 
L 352.618753 177.766682 
L 352.973932 177.636425 
L 353.062727 177.636376 
L 353.240317 177.506161 
L 353.329112 177.571166 
L 353.417907 177.440979 
L 353.506702 177.505989 
L 353.773087 177.37565 
L 353.861882 177.505759 
L 353.950677 177.440611 
L 354.128266 177.18009 
L 354.217061 177.375323 
L 354.394651 177.114744 
L 354.483446 177.179778 
L 354.572241 177.04946 
L 354.661036 177.244747 
L 354.838626 176.98407 
L 354.927421 177.049116 
L 355.016216 176.918749 
L 355.105011 177.048944 
L 355.193805 176.853412 
L 355.2826 176.918467 
L 355.63778 176.787752 
L 355.726575 176.917996 
L 355.81537 176.852724 
L 356.34814 176.526125 
L 356.436934 176.656418 
L 356.525729 176.591097 
L 356.703319 176.525649 
L 356.880909 176.525412 
L 356.969704 176.525293 
L 357.236089 176.329208 
L 357.413679 176.524699 
L 357.591268 176.263424 
L 357.768858 176.263154 
L 357.857653 176.32829 
L 358.035243 176.132189 
L 358.124038 176.19733 
L 358.212833 175.936038 
L 358.301628 176.131759 
L 358.568013 175.870111 
L 358.834397 176.000265 
L 358.923192 175.738831 
L 359.189577 175.934326 
L 359.367167 175.737991 
L 359.544757 175.737655 
L 359.899937 175.671618 
L 359.988732 175.606076 
L 360.077526 175.736648 
L 360.255116 175.605548 
L 360.343911 175.605371 
L 360.432706 175.474415 
L 360.521501 175.539625 
L 360.787886 175.473677 
L 360.965476 175.342479 
L 361.23186 175.341901 
L 361.320655 175.145415 
L 361.40945 175.341516 
L 361.58704 175.210244 
L 361.675835 175.210043 
L 361.76463 175.078939 
L 361.853425 175.209642 
L 361.94222 175.078521 
L 362.031015 175.143776 
L 362.474989 174.880814 
L 362.563784 174.946082 
L 362.830169 174.748927 
L 363.007759 174.813978 
L 363.096554 174.748239 
L 363.185349 174.879045 
L 363.362939 174.6165 
L 363.451734 174.681792 
L 363.806913 174.48422 
L 363.984503 174.614837 
L 364.250888 174.286292 
L 364.339683 174.548316 
L 364.694863 174.153828 
L 364.961247 174.349827 
L 365.405222 173.954838 
L 365.494017 174.151431 
L 365.582812 174.085537 
L 365.760402 173.822452 
L 365.849197 174.150366 
L 365.937992 173.953167 
L 366.026786 174.018537 
L 366.204376 173.821018 
L 366.293171 174.017714 
L 366.381966 173.951775 
L 366.559556 173.754198 
L 366.737146 173.753617 
L 366.914736 173.884414 
L 367.003531 173.621357 
L 367.181121 173.752163 
L 367.35871 173.685871 
L 367.71389 173.553239 
L 367.89148 173.618367 
L 367.980275 173.289376 
L 368.157865 173.551723 
L 368.335455 173.288098 
L 368.868224 173.220401 
L 368.957019 173.08851 
L 369.045814 173.219754 
L 369.134609 173.022055 
L 369.223404 173.087515 
L 369.400994 172.955243 
L 369.578584 173.020376 
L 369.667378 173.085856 
L 369.756173 172.888063 
L 369.844968 172.953543 
L 370.111353 172.952524 
L 370.200148 172.754661 
L 370.288943 172.820154 
L 370.555328 172.621537 
L 370.821712 172.752195 
L 370.910507 172.554222 
L 370.999302 172.685613 
L 371.088097 172.619374 
L 371.176892 172.619014 
L 371.443277 172.420238 
L 371.709662 172.221388 
L 371.887252 172.352455 
L 372.064841 172.285775 
L 372.153636 172.0876 
L 372.331226 172.350571 
L 372.420021 172.218307 
L 372.508816 172.28387 
L 372.597611 172.283489 
L 372.775201 171.886969 
L 372.952791 172.150029 
L 373.041586 172.083668 
L 373.130381 171.951323 
L 373.219175 172.016902 
L 373.396765 171.950119 
L 373.48556 171.817732 
L 373.574355 171.883319 
L 373.84074 171.816094 
L 374.01833 171.881292 
L 374.284715 171.549928 
L 374.462304 171.747189 
L 374.551099 171.614692 
L 374.728689 171.547798 
L 374.817484 171.613426 
L 374.906279 171.480888 
L 374.995074 171.612582 
L 375.083869 171.546094 
L 375.172664 171.347457 
L 375.261459 171.413093 
L 375.527844 171.345704 
L 375.616638 171.543538 
L 375.794228 171.27829 
L 375.883023 171.410054 
L 376.149408 171.210405 
L 376.238203 171.342198 
L 376.415793 171.209066 
L 376.504588 171.340883 
L 376.682178 171.075447 
L 376.948562 170.743322 
L 377.126152 171.007013 
L 377.214947 170.94039 
L 377.658922 170.673335 
L 377.836512 170.73857 
L 377.925307 170.6057 
L 378.014101 170.803821 
L 378.102896 170.737145 
L 378.280486 170.603767 
L 378.458076 170.669022 
L 378.546871 170.469865 
L 378.635666 170.535604 
L 378.724461 170.667584 
L 378.902051 170.401657 
L 379.079641 170.400665 
L 379.25723 170.399674 
L 379.346025 170.20039 
L 379.43482 170.332416 
L 379.523615 170.265645 
L 379.61241 170.132591 
L 379.701205 170.330917 
L 379.79 170.264134 
L 379.878795 170.329917 
L 380.233975 169.996399 
L 380.32277 170.128495 
L 380.411564 169.862735 
L 380.500359 170.061155 
L 380.589154 169.861678 
L 380.677949 169.927474 
L 380.944334 169.992238 
L 381.299514 169.658392 
L 381.477104 169.856394 
L 381.654693 169.788968 
L 382.098668 169.520746 
L 382.365053 169.585502 
L 382.453848 169.452145 
L 382.542643 169.518002 
L 382.897822 169.316526 
L 382.986617 169.448827 
L 383.075412 169.182534 
L 383.164207 169.381282 
L 383.253002 169.247839 
L 383.341797 169.380168 
L 383.430592 169.180257 
L 383.519387 169.312598 
L 383.696977 169.045622 
L 383.785772 169.177979 
L 383.874567 169.110938 
L 384.052156 168.976832 
L 384.229746 169.175133 
L 384.496131 168.907423 
L 384.584926 168.906837 
L 384.673721 169.105777 
L 384.851311 168.639013 
L 385.028901 168.903909 
L 385.117696 168.637206 
L 385.295285 168.835614 
L 385.56167 168.700745 
L 385.650465 168.766701 
L 385.828055 168.565828 
L 385.91685 168.631787 
L 386.005645 168.897465 
L 386.183235 168.563403 
L 386.449619 168.361812 
L 386.538414 168.427789 
L 386.627209 168.293977 
L 386.804799 168.559159 
L 387.071184 168.224244 
L 387.248774 168.089736 
L 387.426364 168.221738 
L 387.515159 168.087832 
L 387.603953 168.15384 
L 387.781543 168.219231 
L 388.047928 167.950694 
L 388.136723 168.083387 
L 388.225518 167.882735 
L 388.314313 168.082118 
L 388.491903 167.880794 
L 388.580698 168.013524 
L 389.024672 167.743492 
L 389.113467 167.876263 
L 389.557442 167.606092 
L 389.735032 167.604765 
L 390.179006 167.401159 
L 390.356596 167.533349 
L 390.711776 167.26353 
L 390.800571 167.396428 
L 391.244545 167.125802 
L 391.422135 167.124418 
L 391.777315 167.054812 
L 391.954905 166.986575 
L 392.0437 167.052723 
L 392.132495 166.918322 
L 392.22129 167.118187 
L 392.398879 166.916208 
L 392.487674 166.848634 
L 392.576469 166.981672 
L 393.198034 166.508456 
L 393.286829 166.775351 
L 393.375624 166.707728 
L 393.642008 166.705578 
L 393.730803 166.504082 
L 393.819598 166.570283 
L 393.908393 166.569558 
L 393.997188 166.368017 
L 394.174778 166.567383 
L 394.263573 166.298854 
L 394.352368 166.498978 
L 394.441163 166.297371 
L 394.529958 166.49752 
L 394.707548 166.161204 
L 394.885137 166.360644 
L 394.973932 166.158955 
L 395.062727 166.225194 
L 395.240317 166.156707 
L 395.417907 166.222212 
L 395.684292 165.951909 
L 395.773087 166.152209 
L 395.861882 166.084435 
L 396.039471 166.015895 
L 396.305856 165.812486 
L 396.483446 165.877999 
L 396.661036 165.675282 
L 396.749831 165.875701 
L 396.838626 165.807865 
L 396.927421 165.874169 
L 397.2826 165.535654 
L 397.371395 165.73615 
L 397.46019 165.466983 
L 397.63778 165.599615 
L 397.726575 165.531722 
L 397.81537 165.665165 
L 398.17055 165.259265 
L 398.259345 165.392732 
L 398.614524 165.188099 
L 398.880909 165.252842 
L 399.058499 165.04972 
L 399.147294 165.250433 
L 399.236089 164.980909 
L 399.324884 165.047274 
L 399.413679 165.113648 
L 399.591268 164.977632 
L 399.768858 164.975994 
L 400.035243 164.839102 
L 400.301628 164.903849 
L 400.390423 164.701325 
L 400.479218 164.767727 
L 400.745603 164.697982 
L 400.834397 164.831655 
L 401.189577 164.626534 
L 401.278372 164.692969 
L 401.367167 164.423018 
L 401.455962 164.691297 
L 401.544757 164.421314 
L 401.633552 164.622335 
L 401.722347 164.5542 
L 401.811142 164.553357 
L 401.899937 164.417906 
L 401.988732 164.484362 
L 402.077526 164.550825 
L 402.166321 164.280719 
L 402.255116 164.347179 
L 402.432706 164.345467 
L 402.521501 164.411942 
L 402.699091 164.140878 
L 402.876681 164.20649 
L 402.965476 164.272978 
L 403.054271 164.070048 
L 403.143066 164.203897 
L 403.23186 164.068303 
L 403.320655 164.202168 
L 403.40945 163.931812 
L 403.498245 163.998309 
L 403.76463 163.92829 
L 404.031015 163.993049 
L 404.563784 163.718085 
L 404.652579 163.784623 
L 404.918964 163.512186 
L 405.096554 163.645277 
L 405.185349 163.50947 
L 405.274144 163.710942 
L 405.362939 163.642586 
L 405.540529 163.438378 
L 406.162093 163.364513 
L 406.250888 163.161088 
L 406.339683 163.362686 
L 406.428478 163.294261 
L 406.606068 163.292425 
L 406.694863 163.291508 
L 406.872452 163.019542 
L 406.961247 163.153682 
L 407.138837 163.084286 
L 407.316427 163.217532 
L 407.582812 162.944506 
L 407.671607 163.146276 
L 407.937992 162.80559 
L 408.115581 162.871288 
L 408.293171 162.869403 
L 408.381966 162.936064 
L 408.470761 162.6647 
L 408.559556 162.798967 
L 408.825941 162.59326 
L 409.003531 162.726605 
L 409.181121 162.521787 
L 409.35871 162.519862 
L 409.71389 162.31302 
L 409.802685 162.447381 
L 409.89148 162.31107 
L 409.980275 162.377772 
L 410.335455 162.238504 
L 410.513044 162.371947 
L 410.601839 162.100157 
L 410.690634 162.166879 
L 410.868224 162.368064 
L 410.957019 162.028488 
L 411.045814 162.095222 
L 411.134609 161.891047 
L 411.223404 161.957781 
L 411.312199 162.09226 
L 411.489789 161.887049 
L 411.578584 162.089299 
L 411.667378 162.020558 
L 412.022558 161.677742 
L 412.200148 161.879053 
L 412.288943 161.674706 
L 412.377738 161.809268 
L 412.466533 161.604892 
L 412.555328 161.807261 
L 412.644123 161.738458 
L 412.732918 161.805254 
L 412.999302 161.530982 
L 413.887252 161.520783 
L 414.064841 161.247285 
L 414.420021 161.378901 
L 414.508816 161.309988 
L 414.597611 161.0374 
L 414.775201 161.306892 
L 414.863996 161.034254 
L 415.041586 161.235886 
L 415.219175 160.894225 
L 415.30797 161.029011 
L 415.66315 160.888941 
L 415.84074 160.886827 
L 415.929535 160.749869 
L 416.01833 160.816759 
L 416.19592 160.814637 
L 416.37351 160.812515 
L 416.639894 160.809333 
L 416.817484 160.671228 
L 417.261459 160.597871 
L 417.439049 160.595725 
L 417.616638 160.52555 
L 417.794228 160.319286 
L 417.883023 160.522318 
L 418.149408 160.178822 
L 418.326998 160.38081 
L 418.504588 160.106362 
L 418.593383 160.30948 
L 418.682178 160.104158 
L 418.770973 160.171138 
L 419.126152 160.166747 
L 419.392537 159.891013 
L 419.658922 159.955793 
L 419.836512 159.817311 
L 419.925307 159.952463 
L 420.014101 159.815075 
L 420.102896 159.950243 
L 420.546871 159.672039 
L 420.724461 159.806129 
L 420.813256 159.668659 
L 420.902051 159.735713 
L 421.43482 159.456161 
L 421.79 159.451606 
L 421.96759 159.312871 
L 422.056385 159.516423 
L 422.14518 159.24234 
L 422.233975 159.377671 
L 422.32277 159.240038 
L 422.411564 159.307136 
L 422.589154 159.168327 
L 422.677949 159.371957 
L 422.944334 159.163707 
L 423.121924 159.161397 
L 423.477104 158.95188 
L 423.565899 159.087318 
L 423.654693 158.949546 
L 423.743488 159.085 
L 423.832283 158.947211 
L 423.921078 159.014363 
L 424.453848 158.665665 
L 424.720233 158.798825 
L 424.809027 158.524209 
L 424.897822 158.72811 
L 425.164207 158.519441 
L 425.253002 158.58663 
L 425.341797 158.380288 
L 425.430592 158.515866 
L 425.519387 158.446281 
L 425.608182 158.581879 
L 426.052156 158.370687 
L 426.140951 158.369487 
L 426.229746 158.505138 
L 426.407336 158.229019 
L 426.496131 158.22781 
L 426.584926 158.431928 
L 426.851311 158.086069 
L 426.940106 158.016394 
L 427.028901 158.289023 
L 427.117696 158.219352 
L 427.20649 158.012732 
L 427.295285 158.148461 
L 427.56167 157.939362 
L 427.650465 157.869646 
L 427.73926 158.073903 
L 427.91685 157.797456 
L 428.005645 157.864731 
L 428.27203 157.998084 
L 428.449619 157.858587 
L 428.538414 157.994422 
L 428.804799 157.51095 
L 429.159979 157.643074 
L 429.337569 157.366316 
L 429.515159 157.500955 
L 429.870338 157.221584 
L 430.136723 157.560816 
L 430.403108 157.145371 
L 430.491903 157.281346 
L 430.580698 157.142832 
L 430.669493 157.278823 
L 430.758288 157.208927 
L 430.847082 157.344938 
L 431.024672 157.136483 
L 431.202262 157.133943 
L 431.291057 157.132674 
L 431.379852 156.994077 
L 431.468647 157.267468 
L 431.735032 156.920286 
L 431.912622 157.055097 
L 432.445391 156.772605 
L 432.534186 156.840031 
L 432.622981 156.701304 
L 432.800571 156.904901 
L 432.978161 156.627389 
L 433.155751 156.624792 
L 433.244545 156.554745 
L 433.422135 156.689654 
L 433.51093 156.482076 
L 433.599725 156.549534 
L 433.777315 156.409382 
L 433.86611 156.614405 
L 434.0437 156.40545 
L 434.22129 156.402828 
L 434.398879 156.331404 
L 434.665264 156.258645 
L 434.754059 156.463782 
L 434.842854 156.118361 
L 435.020444 156.3222 
L 435.198034 156.113053 
L 435.286829 156.318256 
L 435.375624 156.179246 
L 435.553214 156.1766 
L 435.642008 156.175277 
L 435.730803 155.898498 
L 435.908393 156.102435 
L 436.085983 155.89314 
L 436.174778 156.098454 
L 436.263573 155.890462 
L 436.352368 156.026907 
L 436.618753 155.678389 
L 436.885137 156.01892 
L 437.240317 155.599994 
L 437.595497 155.525621 
L 437.684292 155.731123 
L 437.861882 155.452579 
L 438.128266 155.517461 
L 438.305856 155.445759 
L 438.394651 155.513382 
L 438.572241 155.303677 
L 438.749831 155.369936 
L 438.838626 155.161546 
L 439.016216 155.434847 
L 439.105011 155.226424 
L 439.193805 155.294072 
L 439.63778 155.080078 
L 439.726575 155.147742 
L 439.81537 155.008257 
L 439.99296 155.07454 
L 440.081755 154.935027 
L 440.34814 154.999926 
L 440.436934 154.791294 
L 440.614524 154.99576 
L 440.792114 154.785691 
L 441.058499 154.850598 
L 441.236089 154.571333 
L 441.413679 154.706758 
L 441.502474 154.497963 
L 441.591268 154.56568 
L 441.768858 154.562854 
L 441.946448 154.560027 
L 442.035243 154.627769 
L 442.212833 154.279137 
L 442.301628 154.554375 
L 442.390423 154.41462 
L 442.479218 154.482373 
L 442.656808 154.341172 
L 442.923192 154.406091 
L 443.011987 154.40467 
L 443.189577 154.194204 
L 443.544757 154.257693 
L 443.633552 154.048579 
L 443.722347 154.116369 
L 443.811142 154.045695 
L 443.899937 154.251975 
L 443.988732 153.973566 
L 444.077526 154.110618 
L 444.255116 153.899972 
L 444.343911 154.175566 
L 444.432706 153.966337 
L 444.521501 154.03416 
L 444.876681 153.681964 
L 444.965476 153.819082 
L 445.320655 153.743959 
L 445.40945 153.67319 
L 445.58704 153.94754 
L 445.853425 153.457886 
L 446.11981 153.661492 
L 446.2974 153.381162 
L 446.386195 153.518394 
L 446.563784 153.515453 
L 446.652579 153.513982 
L 446.741374 153.304397 
L 446.830169 153.511041 
L 447.007759 153.16118 
L 447.185349 153.366375 
L 447.540529 153.36046 
L 447.629323 153.08133 
L 447.718118 153.288086 
L 447.806913 153.217182 
L 447.895708 153.28512 
L 448.073298 153.143288 
L 448.428478 152.790076 
L 448.517273 153.135833 
L 448.606068 152.856511 
L 448.694863 152.924466 
L 449.227632 152.915446 
L 449.316427 152.774962 
L 449.494017 152.841438 
L 449.582812 152.631422 
L 449.760402 152.836915 
L 449.849197 152.626863 
L 449.937992 152.694862 
L 450.204376 152.551252 
L 450.470761 152.685769 
L 450.648351 152.334978 
L 450.737146 152.402998 
L 450.825941 152.540586 
L 450.914736 152.33037 
L 451.003531 152.398402 
L 451.092326 152.466442 
L 451.35871 152.18352 
L 451.447505 152.251564 
L 451.5363 152.110838 
L 451.71389 152.386146 
L 451.89148 152.104645 
L 451.980275 152.103097 
L 452.06907 152.240783 
L 452.157865 152.1 
L 452.335455 152.166533 
L 452.335455 152.166533 
" style="fill:none;stroke:#0000ff;stroke-dasharray:2.96,1.28;stroke-dashoffset:0;stroke-width:0.8;"/>
   </g>
   <g id="patch_8">
    <path d="M 79.49 284.4 
L 79.49 145.8 
" style="fill:none;stroke:#000000;stroke-linecap:square;stroke-linejoin:miter;stroke-width:0.8;"/>
   </g>
   <g id="patch_9">
    <path d="M 470.09 284.4 
L 470.09 145.8 
" style="fill:none;stroke:#000000;stroke-linecap:square;stroke-linejoin:miter;stroke-width:0.8;"/>
   </g>
   <g id="patch_10">
    <path d="M 79.49 284.4 
L 470.09 284.4 
" style="fill:none;stroke:#000000;stroke-linecap:square;stroke-linejoin:miter;stroke-width:0.8;"/>
   </g>
   <g id="patch_11">
    <path d="M 79.49 145.8 
L 470.09 145.8 
" style="fill:none;stroke:#000000;stroke-linecap:square;stroke-linejoin:miter;stroke-width:0.8;"/>
   </g>
  </g>
 </g>
 <defs>
  <clipPath id="p309051a275">
   <rect height="138.6" width="390.6" x="79.49" y="7.2"/>
  </clipPath>
  <clipPath id="pe87791d57d">
   <rect height="138.6" width="390.6" x="79.49" y="145.8"/>
  </clipPath>
 </defs>
</svg>
