<?xml version="1.0" encoding="utf-8" standalone="no"?>
<!DOCTYPE svg PUBLIC "-//W3C//DTD SVG 1.1//EN"
  "http://www.w3.org/Graphics/SVG/1.1/DTD/svg11.dtd">
<!-- Created with matplotlib (https://matplotlib.org/) -->
<svg height="226.4815pt" version="1.1" viewBox="0 0 416.2355 226.4815" width="416.2355pt" xmlns="http://www.w3.org/2000/svg" xmlns:xlink="http://www.w3.org/1999/xlink">
 <defs>
  <style type="text/css">
*{stroke-linecap:butt;stroke-linejoin:round;white-space:pre;}
  </style>
 </defs>
 <g id="figure_1">
  <g id="patch_1">
   <path d="M 0 226.4815 
L 416.2355 226.4815 
L 416.2355 0 
L 0 0 
z
" style="fill:none;"/>
  </g>
  <g id="axes_1">
   <g id="patch_2">
    <path d="M 72.5375 177.3115 
L 407.3375 177.3115 
L 407.3375 66.4315 
L 72.5375 66.4315 
z
" style="fill:none;"/>
   </g>
   <g id="axes_2">
    <g id="patch_3">
     <path d="M 72.5375 66.4315 
L 407.3375 66.4315 
L 407.3375 66.4315 
L 72.5375 66.4315 
z
" style="fill:#ffffff;"/>
    </g>
    <g id="matplotlib.axis_1">
     <g id="xtick_1">
      <g id="line2d_1">
       <path clip-path="url(#p5cca92749a)" d="M 353.83618 66.4315 
L 353.83618 66.4315 
" style="fill:none;stroke:#b0b0b0;stroke-dasharray:0.8,1.32;stroke-dashoffset:0;stroke-width:0.8;"/>
      </g>
      <g id="line2d_2">
       <defs>
        <path d="M 0 0 
L 0 -3.5 
" id="m7684f926af" style="stroke:#000000;stroke-width:0.8;"/>
       </defs>
       <g>
        <use style="stroke:#000000;stroke-width:0.8;" x="353.83618" xlink:href="#m7684f926af" y="66.4315"/>
       </g>
      </g>
      <g id="text_1">
       <!-- 1500 -->
       <defs>
        <path d="M 12.40625 8.296875 
L 28.515625 8.296875 
L 28.515625 63.921875 
L 10.984375 60.40625 
L 10.984375 69.390625 
L 28.421875 72.90625 
L 38.28125 72.90625 
L 38.28125 8.296875 
L 54.390625 8.296875 
L 54.390625 0 
L 12.40625 0 
z
" id="DejaVuSans-49"/>
        <path d="M 10.796875 72.90625 
L 49.515625 72.90625 
L 49.515625 64.59375 
L 19.828125 64.59375 
L 19.828125 46.734375 
Q 21.96875 47.46875 24.109375 47.828125 
Q 26.265625 48.1875 28.421875 48.1875 
Q 40.625 48.1875 47.75 41.5 
Q 54.890625 34.8125 54.890625 23.390625 
Q 54.890625 11.625 47.5625 5.09375 
Q 40.234375 -1.421875 26.90625 -1.421875 
Q 22.3125 -1.421875 17.546875 -0.640625 
Q 12.796875 0.140625 7.71875 1.703125 
L 7.71875 11.625 
Q 12.109375 9.234375 16.796875 8.0625 
Q 21.484375 6.890625 26.703125 6.890625 
Q 35.15625 6.890625 40.078125 11.328125 
Q 45.015625 15.765625 45.015625 23.390625 
Q 45.015625 31 40.078125 35.4375 
Q 35.15625 39.890625 26.703125 39.890625 
Q 22.75 39.890625 18.8125 39.015625 
Q 14.890625 38.140625 10.796875 36.28125 
z
" id="DejaVuSans-53"/>
        <path d="M 31.78125 66.40625 
Q 24.171875 66.40625 20.328125 58.90625 
Q 16.5 51.421875 16.5 36.375 
Q 16.5 21.390625 20.328125 13.890625 
Q 24.171875 6.390625 31.78125 6.390625 
Q 39.453125 6.390625 43.28125 13.890625 
Q 47.125 21.390625 47.125 36.375 
Q 47.125 51.421875 43.28125 58.90625 
Q 39.453125 66.40625 31.78125 66.40625 
z
M 31.78125 74.21875 
Q 44.046875 74.21875 50.515625 64.515625 
Q 56.984375 54.828125 56.984375 36.375 
Q 56.984375 17.96875 50.515625 8.265625 
Q 44.046875 -1.421875 31.78125 -1.421875 
Q 19.53125 -1.421875 13.0625 8.265625 
Q 6.59375 17.96875 6.59375 36.375 
Q 6.59375 54.828125 13.0625 64.515625 
Q 19.53125 74.21875 31.78125 74.21875 
z
" id="DejaVuSans-48"/>
       </defs>
       <g transform="translate(333.47618 56.104)scale(0.16 -0.16)">
        <use xlink:href="#DejaVuSans-49"/>
        <use x="63.623047" xlink:href="#DejaVuSans-53"/>
        <use x="127.246094" xlink:href="#DejaVuSans-48"/>
        <use x="190.869141" xlink:href="#DejaVuSans-48"/>
       </g>
      </g>
     </g>
     <g id="xtick_2">
      <g id="line2d_3">
       <path clip-path="url(#p5cca92749a)" d="M 252.447876 66.4315 
L 252.447876 66.4315 
" style="fill:none;stroke:#b0b0b0;stroke-dasharray:0.8,1.32;stroke-dashoffset:0;stroke-width:0.8;"/>
      </g>
      <g id="line2d_4">
       <g>
        <use style="stroke:#000000;stroke-width:0.8;" x="252.447876" xlink:href="#m7684f926af" y="66.4315"/>
       </g>
      </g>
      <g id="text_2">
       <!-- 1550 -->
       <g transform="translate(232.087876 56.104)scale(0.16 -0.16)">
        <use xlink:href="#DejaVuSans-49"/>
        <use x="63.623047" xlink:href="#DejaVuSans-53"/>
        <use x="127.246094" xlink:href="#DejaVuSans-53"/>
        <use x="190.869141" xlink:href="#DejaVuSans-48"/>
       </g>
      </g>
     </g>
     <g id="xtick_3">
      <g id="line2d_5">
       <path clip-path="url(#p5cca92749a)" d="M 157.397324 66.4315 
L 157.397324 66.4315 
" style="fill:none;stroke:#b0b0b0;stroke-dasharray:0.8,1.32;stroke-dashoffset:0;stroke-width:0.8;"/>
      </g>
      <g id="line2d_6">
       <g>
        <use style="stroke:#000000;stroke-width:0.8;" x="157.397324" xlink:href="#m7684f926af" y="66.4315"/>
       </g>
      </g>
      <g id="text_3">
       <!-- 1600 -->
       <defs>
        <path d="M 33.015625 40.375 
Q 26.375 40.375 22.484375 35.828125 
Q 18.609375 31.296875 18.609375 23.390625 
Q 18.609375 15.53125 22.484375 10.953125 
Q 26.375 6.390625 33.015625 6.390625 
Q 39.65625 6.390625 43.53125 10.953125 
Q 47.40625 15.53125 47.40625 23.390625 
Q 47.40625 31.296875 43.53125 35.828125 
Q 39.65625 40.375 33.015625 40.375 
z
M 52.59375 71.296875 
L 52.59375 62.3125 
Q 48.875 64.0625 45.09375 64.984375 
Q 41.3125 65.921875 37.59375 65.921875 
Q 27.828125 65.921875 22.671875 59.328125 
Q 17.53125 52.734375 16.796875 39.40625 
Q 19.671875 43.65625 24.015625 45.921875 
Q 28.375 48.1875 33.59375 48.1875 
Q 44.578125 48.1875 50.953125 41.515625 
Q 57.328125 34.859375 57.328125 23.390625 
Q 57.328125 12.15625 50.6875 5.359375 
Q 44.046875 -1.421875 33.015625 -1.421875 
Q 20.359375 -1.421875 13.671875 8.265625 
Q 6.984375 17.96875 6.984375 36.375 
Q 6.984375 53.65625 15.1875 63.9375 
Q 23.390625 74.21875 37.203125 74.21875 
Q 40.921875 74.21875 44.703125 73.484375 
Q 48.484375 72.75 52.59375 71.296875 
z
" id="DejaVuSans-54"/>
       </defs>
       <g transform="translate(137.037324 56.104)scale(0.16 -0.16)">
        <use xlink:href="#DejaVuSans-49"/>
        <use x="63.623047" xlink:href="#DejaVuSans-54"/>
        <use x="127.246094" xlink:href="#DejaVuSans-48"/>
        <use x="190.869141" xlink:href="#DejaVuSans-48"/>
       </g>
      </g>
     </g>
     <g id="text_4">
      <!-- wavelength (nm) -->
      <defs>
       <path d="M 4.203125 54.6875 
L 13.1875 54.6875 
L 24.421875 12.015625 
L 35.59375 54.6875 
L 46.1875 54.6875 
L 57.421875 12.015625 
L 68.609375 54.6875 
L 77.59375 54.6875 
L 63.28125 0 
L 52.6875 0 
L 40.921875 44.828125 
L 29.109375 0 
L 18.5 0 
z
" id="DejaVuSans-119"/>
       <path d="M 34.28125 27.484375 
Q 23.390625 27.484375 19.1875 25 
Q 14.984375 22.515625 14.984375 16.5 
Q 14.984375 11.71875 18.140625 8.90625 
Q 21.296875 6.109375 26.703125 6.109375 
Q 34.1875 6.109375 38.703125 11.40625 
Q 43.21875 16.703125 43.21875 25.484375 
L 43.21875 27.484375 
z
M 52.203125 31.203125 
L 52.203125 0 
L 43.21875 0 
L 43.21875 8.296875 
Q 40.140625 3.328125 35.546875 0.953125 
Q 30.953125 -1.421875 24.3125 -1.421875 
Q 15.921875 -1.421875 10.953125 3.296875 
Q 6 8.015625 6 15.921875 
Q 6 25.140625 12.171875 29.828125 
Q 18.359375 34.515625 30.609375 34.515625 
L 43.21875 34.515625 
L 43.21875 35.40625 
Q 43.21875 41.609375 39.140625 45 
Q 35.0625 48.390625 27.6875 48.390625 
Q 23 48.390625 18.546875 47.265625 
Q 14.109375 46.140625 10.015625 43.890625 
L 10.015625 52.203125 
Q 14.9375 54.109375 19.578125 55.046875 
Q 24.21875 56 28.609375 56 
Q 40.484375 56 46.34375 49.84375 
Q 52.203125 43.703125 52.203125 31.203125 
z
" id="DejaVuSans-97"/>
       <path d="M 2.984375 54.6875 
L 12.5 54.6875 
L 29.59375 8.796875 
L 46.6875 54.6875 
L 56.203125 54.6875 
L 35.6875 0 
L 23.484375 0 
z
" id="DejaVuSans-118"/>
       <path d="M 56.203125 29.59375 
L 56.203125 25.203125 
L 14.890625 25.203125 
Q 15.484375 15.921875 20.484375 11.0625 
Q 25.484375 6.203125 34.421875 6.203125 
Q 39.59375 6.203125 44.453125 7.46875 
Q 49.3125 8.734375 54.109375 11.28125 
L 54.109375 2.78125 
Q 49.265625 0.734375 44.1875 -0.34375 
Q 39.109375 -1.421875 33.890625 -1.421875 
Q 20.796875 -1.421875 13.15625 6.1875 
Q 5.515625 13.8125 5.515625 26.8125 
Q 5.515625 40.234375 12.765625 48.109375 
Q 20.015625 56 32.328125 56 
Q 43.359375 56 49.78125 48.890625 
Q 56.203125 41.796875 56.203125 29.59375 
z
M 47.21875 32.234375 
Q 47.125 39.59375 43.09375 43.984375 
Q 39.0625 48.390625 32.421875 48.390625 
Q 24.90625 48.390625 20.390625 44.140625 
Q 15.875 39.890625 15.1875 32.171875 
z
" id="DejaVuSans-101"/>
       <path d="M 9.421875 75.984375 
L 18.40625 75.984375 
L 18.40625 0 
L 9.421875 0 
z
" id="DejaVuSans-108"/>
       <path d="M 54.890625 33.015625 
L 54.890625 0 
L 45.90625 0 
L 45.90625 32.71875 
Q 45.90625 40.484375 42.875 44.328125 
Q 39.84375 48.1875 33.796875 48.1875 
Q 26.515625 48.1875 22.3125 43.546875 
Q 18.109375 38.921875 18.109375 30.90625 
L 18.109375 0 
L 9.078125 0 
L 9.078125 54.6875 
L 18.109375 54.6875 
L 18.109375 46.1875 
Q 21.34375 51.125 25.703125 53.5625 
Q 30.078125 56 35.796875 56 
Q 45.21875 56 50.046875 50.171875 
Q 54.890625 44.34375 54.890625 33.015625 
z
" id="DejaVuSans-110"/>
       <path d="M 45.40625 27.984375 
Q 45.40625 37.75 41.375 43.109375 
Q 37.359375 48.484375 30.078125 48.484375 
Q 22.859375 48.484375 18.828125 43.109375 
Q 14.796875 37.75 14.796875 27.984375 
Q 14.796875 18.265625 18.828125 12.890625 
Q 22.859375 7.515625 30.078125 7.515625 
Q 37.359375 7.515625 41.375 12.890625 
Q 45.40625 18.265625 45.40625 27.984375 
z
M 54.390625 6.78125 
Q 54.390625 -7.171875 48.1875 -13.984375 
Q 42 -20.796875 29.203125 -20.796875 
Q 24.46875 -20.796875 20.265625 -20.09375 
Q 16.0625 -19.390625 12.109375 -17.921875 
L 12.109375 -9.1875 
Q 16.0625 -11.328125 19.921875 -12.34375 
Q 23.78125 -13.375 27.78125 -13.375 
Q 36.625 -13.375 41.015625 -8.765625 
Q 45.40625 -4.15625 45.40625 5.171875 
L 45.40625 9.625 
Q 42.625 4.78125 38.28125 2.390625 
Q 33.9375 0 27.875 0 
Q 17.828125 0 11.671875 7.65625 
Q 5.515625 15.328125 5.515625 27.984375 
Q 5.515625 40.671875 11.671875 48.328125 
Q 17.828125 56 27.875 56 
Q 33.9375 56 38.28125 53.609375 
Q 42.625 51.21875 45.40625 46.390625 
L 45.40625 54.6875 
L 54.390625 54.6875 
z
" id="DejaVuSans-103"/>
       <path d="M 18.3125 70.21875 
L 18.3125 54.6875 
L 36.8125 54.6875 
L 36.8125 47.703125 
L 18.3125 47.703125 
L 18.3125 18.015625 
Q 18.3125 11.328125 20.140625 9.421875 
Q 21.96875 7.515625 27.59375 7.515625 
L 36.8125 7.515625 
L 36.8125 0 
L 27.59375 0 
Q 17.1875 0 13.234375 3.875 
Q 9.28125 7.765625 9.28125 18.015625 
L 9.28125 47.703125 
L 2.6875 47.703125 
L 2.6875 54.6875 
L 9.28125 54.6875 
L 9.28125 70.21875 
z
" id="DejaVuSans-116"/>
       <path d="M 54.890625 33.015625 
L 54.890625 0 
L 45.90625 0 
L 45.90625 32.71875 
Q 45.90625 40.484375 42.875 44.328125 
Q 39.84375 48.1875 33.796875 48.1875 
Q 26.515625 48.1875 22.3125 43.546875 
Q 18.109375 38.921875 18.109375 30.90625 
L 18.109375 0 
L 9.078125 0 
L 9.078125 75.984375 
L 18.109375 75.984375 
L 18.109375 46.1875 
Q 21.34375 51.125 25.703125 53.5625 
Q 30.078125 56 35.796875 56 
Q 45.21875 56 50.046875 50.171875 
Q 54.890625 44.34375 54.890625 33.015625 
z
" id="DejaVuSans-104"/>
       <path id="DejaVuSans-32"/>
       <path d="M 31 75.875 
Q 24.46875 64.65625 21.28125 53.65625 
Q 18.109375 42.671875 18.109375 31.390625 
Q 18.109375 20.125 21.3125 9.0625 
Q 24.515625 -2 31 -13.1875 
L 23.1875 -13.1875 
Q 15.875 -1.703125 12.234375 9.375 
Q 8.59375 20.453125 8.59375 31.390625 
Q 8.59375 42.28125 12.203125 53.3125 
Q 15.828125 64.359375 23.1875 75.875 
z
" id="DejaVuSans-40"/>
       <path d="M 52 44.1875 
Q 55.375 50.25 60.0625 53.125 
Q 64.75 56 71.09375 56 
Q 79.640625 56 84.28125 50.015625 
Q 88.921875 44.046875 88.921875 33.015625 
L 88.921875 0 
L 79.890625 0 
L 79.890625 32.71875 
Q 79.890625 40.578125 77.09375 44.375 
Q 74.3125 48.1875 68.609375 48.1875 
Q 61.625 48.1875 57.5625 43.546875 
Q 53.515625 38.921875 53.515625 30.90625 
L 53.515625 0 
L 44.484375 0 
L 44.484375 32.71875 
Q 44.484375 40.625 41.703125 44.40625 
Q 38.921875 48.1875 33.109375 48.1875 
Q 26.21875 48.1875 22.15625 43.53125 
Q 18.109375 38.875 18.109375 30.90625 
L 18.109375 0 
L 9.078125 0 
L 9.078125 54.6875 
L 18.109375 54.6875 
L 18.109375 46.1875 
Q 21.1875 51.21875 25.484375 53.609375 
Q 29.78125 56 35.6875 56 
Q 41.65625 56 45.828125 52.96875 
Q 50 49.953125 52 44.1875 
z
" id="DejaVuSans-109"/>
       <path d="M 8.015625 75.875 
L 15.828125 75.875 
Q 23.140625 64.359375 26.78125 53.3125 
Q 30.421875 42.28125 30.421875 31.390625 
Q 30.421875 20.453125 26.78125 9.375 
Q 23.140625 -1.703125 15.828125 -13.1875 
L 8.015625 -13.1875 
Q 14.5 -2 17.703125 9.0625 
Q 20.90625 20.125 20.90625 31.390625 
Q 20.90625 42.671875 17.703125 53.65625 
Q 14.5 64.65625 8.015625 75.875 
z
" id="DejaVuSans-41"/>
      </defs>
      <g transform="translate(171.6875 39.9465)scale(0.16 -0.16)">
       <use xlink:href="#DejaVuSans-119"/>
       <use x="81.787109" xlink:href="#DejaVuSans-97"/>
       <use x="143.066406" xlink:href="#DejaVuSans-118"/>
       <use x="202.246094" xlink:href="#DejaVuSans-101"/>
       <use x="263.769531" xlink:href="#DejaVuSans-108"/>
       <use x="291.552734" xlink:href="#DejaVuSans-101"/>
       <use x="353.076172" xlink:href="#DejaVuSans-110"/>
       <use x="416.455078" xlink:href="#DejaVuSans-103"/>
       <use x="479.931641" xlink:href="#DejaVuSans-116"/>
       <use x="519.140625" xlink:href="#DejaVuSans-104"/>
       <use x="582.519531" xlink:href="#DejaVuSans-32"/>
       <use x="614.306641" xlink:href="#DejaVuSans-40"/>
       <use x="653.320312" xlink:href="#DejaVuSans-110"/>
       <use x="716.699219" xlink:href="#DejaVuSans-109"/>
       <use x="814.111328" xlink:href="#DejaVuSans-41"/>
      </g>
     </g>
    </g>
    <g id="matplotlib.axis_2"/>
    <g id="patch_4">
     <path d="M 407.3375 66.4315 
L 72.5375 66.4315 
" style="fill:none;stroke:#000000;stroke-linecap:square;stroke-linejoin:miter;stroke-width:0.8;"/>
    </g>
   </g>
   <g id="matplotlib.axis_3">
    <g id="xtick_4">
     <g id="line2d_7">
      <path clip-path="url(#pe232473027)" d="M 120.116412 177.3115 
L 120.116412 66.4315 
" style="fill:none;stroke:#b0b0b0;stroke-dasharray:0.8,1.32;stroke-dashoffset:0;stroke-width:0.8;"/>
     </g>
     <g id="line2d_8">
      <defs>
       <path d="M 0 0 
L 0 3.5 
" id="m6924e04bf6" style="stroke:#000000;stroke-width:0.8;"/>
      </defs>
      <g>
       <use style="stroke:#000000;stroke-width:0.8;" x="120.116412" xlink:href="#m6924e04bf6" y="177.3115"/>
      </g>
     </g>
     <g id="text_5">
      <!-- 185 -->
      <defs>
       <path d="M 31.78125 34.625 
Q 24.75 34.625 20.71875 30.859375 
Q 16.703125 27.09375 16.703125 20.515625 
Q 16.703125 13.921875 20.71875 10.15625 
Q 24.75 6.390625 31.78125 6.390625 
Q 38.8125 6.390625 42.859375 10.171875 
Q 46.921875 13.96875 46.921875 20.515625 
Q 46.921875 27.09375 42.890625 30.859375 
Q 38.875 34.625 31.78125 34.625 
z
M 21.921875 38.8125 
Q 15.578125 40.375 12.03125 44.71875 
Q 8.5 49.078125 8.5 55.328125 
Q 8.5 64.0625 14.71875 69.140625 
Q 20.953125 74.21875 31.78125 74.21875 
Q 42.671875 74.21875 48.875 69.140625 
Q 55.078125 64.0625 55.078125 55.328125 
Q 55.078125 49.078125 51.53125 44.71875 
Q 48 40.375 41.703125 38.8125 
Q 48.828125 37.15625 52.796875 32.3125 
Q 56.78125 27.484375 56.78125 20.515625 
Q 56.78125 9.90625 50.3125 4.234375 
Q 43.84375 -1.421875 31.78125 -1.421875 
Q 19.734375 -1.421875 13.25 4.234375 
Q 6.78125 9.90625 6.78125 20.515625 
Q 6.78125 27.484375 10.78125 32.3125 
Q 14.796875 37.15625 21.921875 38.8125 
z
M 18.3125 54.390625 
Q 18.3125 48.734375 21.84375 45.5625 
Q 25.390625 42.390625 31.78125 42.390625 
Q 38.140625 42.390625 41.71875 45.5625 
Q 45.3125 48.734375 45.3125 54.390625 
Q 45.3125 60.0625 41.71875 63.234375 
Q 38.140625 66.40625 31.78125 66.40625 
Q 25.390625 66.40625 21.84375 63.234375 
Q 18.3125 60.0625 18.3125 54.390625 
z
" id="DejaVuSans-56"/>
      </defs>
      <g transform="translate(104.846412 196.469)scale(0.16 -0.16)">
       <use xlink:href="#DejaVuSans-49"/>
       <use x="63.623047" xlink:href="#DejaVuSans-56"/>
       <use x="127.246094" xlink:href="#DejaVuSans-53"/>
      </g>
     </g>
    </g>
    <g id="xtick_5">
     <g id="line2d_9">
      <path clip-path="url(#pe232473027)" d="M 198.747895 177.3115 
L 198.747895 66.4315 
" style="fill:none;stroke:#b0b0b0;stroke-dasharray:0.8,1.32;stroke-dashoffset:0;stroke-width:0.8;"/>
     </g>
     <g id="line2d_10">
      <g>
       <use style="stroke:#000000;stroke-width:0.8;" x="198.747895" xlink:href="#m6924e04bf6" y="177.3115"/>
      </g>
     </g>
     <g id="text_6">
      <!-- 190 -->
      <defs>
       <path d="M 10.984375 1.515625 
L 10.984375 10.5 
Q 14.703125 8.734375 18.5 7.8125 
Q 22.3125 6.890625 25.984375 6.890625 
Q 35.75 6.890625 40.890625 13.453125 
Q 46.046875 20.015625 46.78125 33.40625 
Q 43.953125 29.203125 39.59375 26.953125 
Q 35.25 24.703125 29.984375 24.703125 
Q 19.046875 24.703125 12.671875 31.3125 
Q 6.296875 37.9375 6.296875 49.421875 
Q 6.296875 60.640625 12.9375 67.421875 
Q 19.578125 74.21875 30.609375 74.21875 
Q 43.265625 74.21875 49.921875 64.515625 
Q 56.59375 54.828125 56.59375 36.375 
Q 56.59375 19.140625 48.40625 8.859375 
Q 40.234375 -1.421875 26.421875 -1.421875 
Q 22.703125 -1.421875 18.890625 -0.6875 
Q 15.09375 0.046875 10.984375 1.515625 
z
M 30.609375 32.421875 
Q 37.25 32.421875 41.125 36.953125 
Q 45.015625 41.5 45.015625 49.421875 
Q 45.015625 57.28125 41.125 61.84375 
Q 37.25 66.40625 30.609375 66.40625 
Q 23.96875 66.40625 20.09375 61.84375 
Q 16.21875 57.28125 16.21875 49.421875 
Q 16.21875 41.5 20.09375 36.953125 
Q 23.96875 32.421875 30.609375 32.421875 
z
" id="DejaVuSans-57"/>
      </defs>
      <g transform="translate(183.477895 196.469)scale(0.16 -0.16)">
       <use xlink:href="#DejaVuSans-49"/>
       <use x="63.623047" xlink:href="#DejaVuSans-57"/>
       <use x="127.246094" xlink:href="#DejaVuSans-48"/>
      </g>
     </g>
    </g>
    <g id="xtick_6">
     <g id="line2d_11">
      <path clip-path="url(#pe232473027)" d="M 277.379379 177.3115 
L 277.379379 66.4315 
" style="fill:none;stroke:#b0b0b0;stroke-dasharray:0.8,1.32;stroke-dashoffset:0;stroke-width:0.8;"/>
     </g>
     <g id="line2d_12">
      <g>
       <use style="stroke:#000000;stroke-width:0.8;" x="277.379379" xlink:href="#m6924e04bf6" y="177.3115"/>
      </g>
     </g>
     <g id="text_7">
      <!-- 195 -->
      <g transform="translate(262.109379 196.469)scale(0.16 -0.16)">
       <use xlink:href="#DejaVuSans-49"/>
       <use x="63.623047" xlink:href="#DejaVuSans-57"/>
       <use x="127.246094" xlink:href="#DejaVuSans-53"/>
      </g>
     </g>
    </g>
    <g id="xtick_7">
     <g id="line2d_13">
      <path clip-path="url(#pe232473027)" d="M 356.010862 177.3115 
L 356.010862 66.4315 
" style="fill:none;stroke:#b0b0b0;stroke-dasharray:0.8,1.32;stroke-dashoffset:0;stroke-width:0.8;"/>
     </g>
     <g id="line2d_14">
      <g>
       <use style="stroke:#000000;stroke-width:0.8;" x="356.010862" xlink:href="#m6924e04bf6" y="177.3115"/>
      </g>
     </g>
     <g id="text_8">
      <!-- 200 -->
      <defs>
       <path d="M 19.1875 8.296875 
L 53.609375 8.296875 
L 53.609375 0 
L 7.328125 0 
L 7.328125 8.296875 
Q 12.9375 14.109375 22.625 23.890625 
Q 32.328125 33.6875 34.8125 36.53125 
Q 39.546875 41.84375 41.421875 45.53125 
Q 43.3125 49.21875 43.3125 52.78125 
Q 43.3125 58.59375 39.234375 62.25 
Q 35.15625 65.921875 28.609375 65.921875 
Q 23.96875 65.921875 18.8125 64.3125 
Q 13.671875 62.703125 7.8125 59.421875 
L 7.8125 69.390625 
Q 13.765625 71.78125 18.9375 73 
Q 24.125 74.21875 28.421875 74.21875 
Q 39.75 74.21875 46.484375 68.546875 
Q 53.21875 62.890625 53.21875 53.421875 
Q 53.21875 48.921875 51.53125 44.890625 
Q 49.859375 40.875 45.40625 35.40625 
Q 44.1875 33.984375 37.640625 27.21875 
Q 31.109375 20.453125 19.1875 8.296875 
z
" id="DejaVuSans-50"/>
      </defs>
      <g transform="translate(340.740862 196.469)scale(0.16 -0.16)">
       <use xlink:href="#DejaVuSans-50"/>
       <use x="63.623047" xlink:href="#DejaVuSans-48"/>
       <use x="127.246094" xlink:href="#DejaVuSans-48"/>
      </g>
     </g>
    </g>
    <g id="text_9">
     <!-- frequency (THz) -->
     <defs>
      <path d="M 37.109375 75.984375 
L 37.109375 68.5 
L 28.515625 68.5 
Q 23.6875 68.5 21.796875 66.546875 
Q 19.921875 64.59375 19.921875 59.515625 
L 19.921875 54.6875 
L 34.71875 54.6875 
L 34.71875 47.703125 
L 19.921875 47.703125 
L 19.921875 0 
L 10.890625 0 
L 10.890625 47.703125 
L 2.296875 47.703125 
L 2.296875 54.6875 
L 10.890625 54.6875 
L 10.890625 58.5 
Q 10.890625 67.625 15.140625 71.796875 
Q 19.390625 75.984375 28.609375 75.984375 
z
" id="DejaVuSans-102"/>
      <path d="M 41.109375 46.296875 
Q 39.59375 47.171875 37.8125 47.578125 
Q 36.03125 48 33.890625 48 
Q 26.265625 48 22.1875 43.046875 
Q 18.109375 38.09375 18.109375 28.8125 
L 18.109375 0 
L 9.078125 0 
L 9.078125 54.6875 
L 18.109375 54.6875 
L 18.109375 46.1875 
Q 20.953125 51.171875 25.484375 53.578125 
Q 30.03125 56 36.53125 56 
Q 37.453125 56 38.578125 55.875 
Q 39.703125 55.765625 41.0625 55.515625 
z
" id="DejaVuSans-114"/>
      <path d="M 14.796875 27.296875 
Q 14.796875 17.390625 18.875 11.75 
Q 22.953125 6.109375 30.078125 6.109375 
Q 37.203125 6.109375 41.296875 11.75 
Q 45.40625 17.390625 45.40625 27.296875 
Q 45.40625 37.203125 41.296875 42.84375 
Q 37.203125 48.484375 30.078125 48.484375 
Q 22.953125 48.484375 18.875 42.84375 
Q 14.796875 37.203125 14.796875 27.296875 
z
M 45.40625 8.203125 
Q 42.578125 3.328125 38.25 0.953125 
Q 33.9375 -1.421875 27.875 -1.421875 
Q 17.96875 -1.421875 11.734375 6.484375 
Q 5.515625 14.40625 5.515625 27.296875 
Q 5.515625 40.1875 11.734375 48.09375 
Q 17.96875 56 27.875 56 
Q 33.9375 56 38.25 53.625 
Q 42.578125 51.265625 45.40625 46.390625 
L 45.40625 54.6875 
L 54.390625 54.6875 
L 54.390625 -20.796875 
L 45.40625 -20.796875 
z
" id="DejaVuSans-113"/>
      <path d="M 8.5 21.578125 
L 8.5 54.6875 
L 17.484375 54.6875 
L 17.484375 21.921875 
Q 17.484375 14.15625 20.5 10.265625 
Q 23.53125 6.390625 29.59375 6.390625 
Q 36.859375 6.390625 41.078125 11.03125 
Q 45.3125 15.671875 45.3125 23.6875 
L 45.3125 54.6875 
L 54.296875 54.6875 
L 54.296875 0 
L 45.3125 0 
L 45.3125 8.40625 
Q 42.046875 3.421875 37.71875 1 
Q 33.40625 -1.421875 27.6875 -1.421875 
Q 18.265625 -1.421875 13.375 4.4375 
Q 8.5 10.296875 8.5 21.578125 
z
M 31.109375 56 
z
" id="DejaVuSans-117"/>
      <path d="M 48.78125 52.59375 
L 48.78125 44.1875 
Q 44.96875 46.296875 41.140625 47.34375 
Q 37.3125 48.390625 33.40625 48.390625 
Q 24.65625 48.390625 19.8125 42.84375 
Q 14.984375 37.3125 14.984375 27.296875 
Q 14.984375 17.28125 19.8125 11.734375 
Q 24.65625 6.203125 33.40625 6.203125 
Q 37.3125 6.203125 41.140625 7.25 
Q 44.96875 8.296875 48.78125 10.40625 
L 48.78125 2.09375 
Q 45.015625 0.34375 40.984375 -0.53125 
Q 36.96875 -1.421875 32.421875 -1.421875 
Q 20.0625 -1.421875 12.78125 6.34375 
Q 5.515625 14.109375 5.515625 27.296875 
Q 5.515625 40.671875 12.859375 48.328125 
Q 20.21875 56 33.015625 56 
Q 37.15625 56 41.109375 55.140625 
Q 45.0625 54.296875 48.78125 52.59375 
z
" id="DejaVuSans-99"/>
      <path d="M 32.171875 -5.078125 
Q 28.375 -14.84375 24.75 -17.8125 
Q 21.140625 -20.796875 15.09375 -20.796875 
L 7.90625 -20.796875 
L 7.90625 -13.28125 
L 13.1875 -13.28125 
Q 16.890625 -13.28125 18.9375 -11.515625 
Q 21 -9.765625 23.484375 -3.21875 
L 25.09375 0.875 
L 2.984375 54.6875 
L 12.5 54.6875 
L 29.59375 11.921875 
L 46.6875 54.6875 
L 56.203125 54.6875 
z
" id="DejaVuSans-121"/>
      <path d="M -0.296875 72.90625 
L 61.375 72.90625 
L 61.375 64.59375 
L 35.5 64.59375 
L 35.5 0 
L 25.59375 0 
L 25.59375 64.59375 
L -0.296875 64.59375 
z
" id="DejaVuSans-84"/>
      <path d="M 9.8125 72.90625 
L 19.671875 72.90625 
L 19.671875 43.015625 
L 55.515625 43.015625 
L 55.515625 72.90625 
L 65.375 72.90625 
L 65.375 0 
L 55.515625 0 
L 55.515625 34.71875 
L 19.671875 34.71875 
L 19.671875 0 
L 9.8125 0 
z
" id="DejaVuSans-72"/>
      <path d="M 5.515625 54.6875 
L 48.1875 54.6875 
L 48.1875 46.484375 
L 14.40625 7.171875 
L 48.1875 7.171875 
L 48.1875 0 
L 4.296875 0 
L 4.296875 8.203125 
L 38.09375 47.515625 
L 5.515625 47.515625 
z
" id="DejaVuSans-122"/>
     </defs>
     <g transform="translate(175.75125 215.954)scale(0.16 -0.16)">
      <use xlink:href="#DejaVuSans-102"/>
      <use x="35.205078" xlink:href="#DejaVuSans-114"/>
      <use x="76.287109" xlink:href="#DejaVuSans-101"/>
      <use x="137.810547" xlink:href="#DejaVuSans-113"/>
      <use x="201.287109" xlink:href="#DejaVuSans-117"/>
      <use x="264.666016" xlink:href="#DejaVuSans-101"/>
      <use x="326.189453" xlink:href="#DejaVuSans-110"/>
      <use x="389.568359" xlink:href="#DejaVuSans-99"/>
      <use x="444.548828" xlink:href="#DejaVuSans-121"/>
      <use x="503.728516" xlink:href="#DejaVuSans-32"/>
      <use x="535.515625" xlink:href="#DejaVuSans-40"/>
      <use x="574.529297" xlink:href="#DejaVuSans-84"/>
      <use x="635.613281" xlink:href="#DejaVuSans-72"/>
      <use x="710.808594" xlink:href="#DejaVuSans-122"/>
      <use x="763.298828" xlink:href="#DejaVuSans-41"/>
     </g>
    </g>
   </g>
   <g id="matplotlib.axis_4">
    <g id="ytick_1">
     <g id="line2d_15">
      <path clip-path="url(#pe232473027)" d="M 72.5375 169.20676 
L 407.3375 169.20676 
" style="fill:none;stroke:#b0b0b0;stroke-dasharray:0.8,1.32;stroke-dashoffset:0;stroke-width:0.8;"/>
     </g>
     <g id="line2d_16">
      <defs>
       <path d="M 0 0 
L -3.5 0 
" id="m52d8c89b82" style="stroke:#000000;stroke-width:0.8;"/>
      </defs>
      <g>
       <use style="stroke:#000000;stroke-width:0.8;" x="72.5375" xlink:href="#m52d8c89b82" y="169.20676"/>
      </g>
     </g>
     <g id="text_10">
      <!-- −2.5 -->
      <defs>
       <path d="M 10.59375 35.5 
L 73.1875 35.5 
L 73.1875 27.203125 
L 10.59375 27.203125 
z
" id="DejaVuSans-8722"/>
       <path d="M 10.6875 12.40625 
L 21 12.40625 
L 21 0 
L 10.6875 0 
z
" id="DejaVuSans-46"/>
      </defs>
      <g transform="translate(26.685 175.28551)scale(0.16 -0.16)">
       <use xlink:href="#DejaVuSans-8722"/>
       <use x="83.789062" xlink:href="#DejaVuSans-50"/>
       <use x="147.412109" xlink:href="#DejaVuSans-46"/>
       <use x="179.199219" xlink:href="#DejaVuSans-53"/>
      </g>
     </g>
    </g>
    <g id="ytick_2">
     <g id="line2d_17">
      <path clip-path="url(#pe232473027)" d="M 72.5375 134.490115 
L 407.3375 134.490115 
" style="fill:none;stroke:#b0b0b0;stroke-dasharray:0.8,1.32;stroke-dashoffset:0;stroke-width:0.8;"/>
     </g>
     <g id="line2d_18">
      <g>
       <use style="stroke:#000000;stroke-width:0.8;" x="72.5375" xlink:href="#m52d8c89b82" y="134.490115"/>
      </g>
     </g>
     <g id="text_11">
      <!-- 0.0 -->
      <g transform="translate(40.0925 140.568865)scale(0.16 -0.16)">
       <use xlink:href="#DejaVuSans-48"/>
       <use x="63.623047" xlink:href="#DejaVuSans-46"/>
       <use x="95.410156" xlink:href="#DejaVuSans-48"/>
      </g>
     </g>
    </g>
    <g id="ytick_3">
     <g id="line2d_19">
      <path clip-path="url(#pe232473027)" d="M 72.5375 99.773471 
L 407.3375 99.773471 
" style="fill:none;stroke:#b0b0b0;stroke-dasharray:0.8,1.32;stroke-dashoffset:0;stroke-width:0.8;"/>
     </g>
     <g id="line2d_20">
      <g>
       <use style="stroke:#000000;stroke-width:0.8;" x="72.5375" xlink:href="#m52d8c89b82" y="99.773471"/>
      </g>
     </g>
     <g id="text_12">
      <!-- 2.5 -->
      <g transform="translate(40.0925 105.852221)scale(0.16 -0.16)">
       <use xlink:href="#DejaVuSans-50"/>
       <use x="63.623047" xlink:href="#DejaVuSans-46"/>
       <use x="95.410156" xlink:href="#DejaVuSans-53"/>
      </g>
     </g>
    </g>
    <g id="text_13">
     <!-- $D_\mathrm{int}/{2\pi}$ (GHz) -->
     <defs>
      <path d="M 16.890625 72.90625 
L 38.09375 72.90625 
Q 54.984375 72.90625 63.59375 65.75 
Q 72.21875 58.59375 72.21875 44.484375 
Q 72.21875 35.15625 68.9375 26.53125 
Q 65.671875 17.921875 59.90625 12.015625 
Q 54.109375 5.953125 45.171875 2.96875 
Q 36.234375 0 24.03125 0 
L 2.6875 0 
z
M 25.203125 64.796875 
L 14.203125 8.109375 
L 27.09375 8.109375 
Q 43.65625 8.109375 52.734375 17.625 
Q 61.8125 27.15625 61.8125 44.484375 
Q 61.8125 54.984375 55.953125 59.890625 
Q 50.09375 64.796875 37.59375 64.796875 
z
" id="DejaVuSans-Oblique-68"/>
      <path d="M 9.421875 54.6875 
L 18.40625 54.6875 
L 18.40625 0 
L 9.421875 0 
z
M 9.421875 75.984375 
L 18.40625 75.984375 
L 18.40625 64.59375 
L 9.421875 64.59375 
z
" id="DejaVuSans-105"/>
      <path d="M 25.390625 72.90625 
L 33.6875 72.90625 
L 8.296875 -9.28125 
L 0 -9.28125 
z
" id="DejaVuSans-47"/>
      <path d="M 9.125 54.6875 
L 61.53125 54.6875 
L 59.765625 45.703125 
L 52.875 45.703125 
L 46.34375 12.109375 
Q 45.65625 8.59375 46.578125 7.03125 
Q 47.46875 5.515625 50.140625 5.515625 
Q 50.875 5.515625 51.953125 5.671875 
Q 53.078125 5.765625 53.421875 5.8125 
L 52.15625 -0.6875 
Q 50.34375 -1.3125 48.484375 -1.609375 
Q 46.578125 -1.90625 44.78125 -1.90625 
Q 38.921875 -1.90625 37.3125 1.265625 
Q 35.6875 4.5 37.359375 13.09375 
L 43.703125 45.703125 
L 23.53125 45.703125 
L 14.65625 0 
L 5.46875 0 
L 14.359375 45.703125 
L 7.375 45.703125 
z
" id="DejaVuSans-Oblique-960"/>
      <path d="M 59.515625 10.40625 
L 59.515625 29.984375 
L 43.40625 29.984375 
L 43.40625 38.09375 
L 69.28125 38.09375 
L 69.28125 6.78125 
Q 63.578125 2.734375 56.6875 0.65625 
Q 49.8125 -1.421875 42 -1.421875 
Q 24.90625 -1.421875 15.25 8.5625 
Q 5.609375 18.5625 5.609375 36.375 
Q 5.609375 54.25 15.25 64.234375 
Q 24.90625 74.21875 42 74.21875 
Q 49.125 74.21875 55.546875 72.453125 
Q 61.96875 70.703125 67.390625 67.28125 
L 67.390625 56.78125 
Q 61.921875 61.421875 55.765625 63.765625 
Q 49.609375 66.109375 42.828125 66.109375 
Q 29.4375 66.109375 22.71875 58.640625 
Q 16.015625 51.171875 16.015625 36.375 
Q 16.015625 21.625 22.71875 14.15625 
Q 29.4375 6.6875 42.828125 6.6875 
Q 48.046875 6.6875 52.140625 7.59375 
Q 56.25 8.5 59.515625 10.40625 
z
" id="DejaVuSans-71"/>
     </defs>
     <g transform="translate(19.3575 173.3915)rotate(-90)scale(0.16 -0.16)">
      <use transform="translate(0 0.125)" xlink:href="#DejaVuSans-Oblique-68"/>
      <use transform="translate(77.001953 -16.28125)scale(0.7)" xlink:href="#DejaVuSans-105"/>
      <use transform="translate(96.450195 -16.28125)scale(0.7)" xlink:href="#DejaVuSans-110"/>
      <use transform="translate(140.81543 -16.28125)scale(0.7)" xlink:href="#DejaVuSans-116"/>
      <use transform="translate(170.996094 0.125)" xlink:href="#DejaVuSans-47"/>
      <use transform="translate(204.6875 0.125)" xlink:href="#DejaVuSans-50"/>
      <use transform="translate(268.310547 0.125)" xlink:href="#DejaVuSans-Oblique-960"/>
      <use transform="translate(328.515625 0.125)" xlink:href="#DejaVuSans-32"/>
      <use transform="translate(360.302734 0.125)" xlink:href="#DejaVuSans-40"/>
      <use transform="translate(399.316406 0.125)" xlink:href="#DejaVuSans-71"/>
      <use transform="translate(476.806641 0.125)" xlink:href="#DejaVuSans-72"/>
      <use transform="translate(552.001953 0.125)" xlink:href="#DejaVuSans-122"/>
      <use transform="translate(604.492188 0.125)" xlink:href="#DejaVuSans-41"/>
     </g>
    </g>
   </g>
   <g id="line2d_21">
    <defs>
     <path d="M 0 1.5 
C 0.397805 1.5 0.77937 1.341951 1.06066 1.06066 
C 1.341951 0.77937 1.5 0.397805 1.5 0 
C 1.5 -0.397805 1.341951 -0.77937 1.06066 -1.06066 
C 0.77937 -1.341951 0.397805 -1.5 0 -1.5 
C -0.397805 -1.5 -0.77937 -1.341951 -1.06066 -1.06066 
C -1.341951 -0.77937 -1.5 -0.397805 -1.5 0 
C -1.5 0.397805 -1.341951 0.77937 -1.06066 1.06066 
C -0.77937 1.341951 -0.397805 1.5 0 1.5 
z
" id="md1460a3146" style="stroke:#0000ff;"/>
    </defs>
    <g clip-path="url(#pe232473027)">
     <use style="fill:#0000ff;stroke:#0000ff;" x="87.755682" xlink:href="#md1460a3146" y="81.765669"/>
     <use style="fill:#0000ff;stroke:#0000ff;" x="90.024695" xlink:href="#md1460a3146" y="83.793334"/>
     <use style="fill:#0000ff;stroke:#0000ff;" x="92.293416" xlink:href="#md1460a3146" y="86.079505"/>
     <use style="fill:#0000ff;stroke:#0000ff;" x="94.558835" xlink:href="#md1460a3146" y="91.280809"/>
     <use style="fill:#0000ff;stroke:#0000ff;" x="96.826935" xlink:href="#md1460a3146" y="94.114282"/>
     <use style="fill:#0000ff;stroke:#0000ff;" x="99.101827" xlink:href="#md1460a3146" y="90.951148"/>
     <use style="fill:#0000ff;stroke:#0000ff;" x="101.374034" xlink:href="#md1460a3146" y="90.158773"/>
     <use style="fill:#0000ff;stroke:#0000ff;" x="103.647582" xlink:href="#md1460a3146" y="88.182083"/>
     <use style="fill:#0000ff;stroke:#0000ff;" x="105.912904" xlink:href="#md1460a3146" y="93.468988"/>
     <use style="fill:#0000ff;stroke:#0000ff;" x="108.17875" xlink:href="#md1460a3146" y="98.293666"/>
     <use style="fill:#0000ff;stroke:#0000ff;" x="110.448716" xlink:href="#md1460a3146" y="99.480185"/>
     <use style="fill:#0000ff;stroke:#0000ff;" x="112.715954" xlink:href="#md1460a3146" y="103.075568"/>
     <use style="fill:#0000ff;stroke:#0000ff;" x="114.981337" xlink:href="#md1460a3146" y="108.30862"/>
     <use style="fill:#0000ff;stroke:#0000ff;" x="117.251084" xlink:href="#md1460a3146" y="109.688267"/>
     <use style="fill:#0000ff;stroke:#0000ff;" x="119.51968" xlink:href="#md1460a3146" y="112.084593"/>
     <use style="fill:#0000ff;stroke:#0000ff;" x="121.793545" xlink:href="#md1460a3146" y="109.827678"/>
     <use style="fill:#0000ff;stroke:#0000ff;" x="124.072444" xlink:href="#md1460a3146" y="103.125577"/>
     <use style="fill:#0000ff;stroke:#0000ff;" x="126.33912" xlink:href="#md1460a3146" y="107.2174"/>
     <use style="fill:#0000ff;stroke:#0000ff;" x="128.604016" xlink:href="#md1460a3146" y="112.880397"/>
     <use style="fill:#0000ff;stroke:#0000ff;" x="130.880103" xlink:href="#md1460a3146" y="108.662135"/>
     <use style="fill:#0000ff;stroke:#0000ff;" x="133.150577" xlink:href="#md1460a3146" y="109.399712"/>
     <use style="fill:#0000ff;stroke:#0000ff;" x="135.413663" xlink:href="#md1460a3146" y="116.661542"/>
     <use style="fill:#0000ff;stroke:#0000ff;" x="137.683309" xlink:href="#md1460a3146" y="118.130334"/>
     <use style="fill:#0000ff;stroke:#0000ff;" x="139.953496" xlink:href="#md1460a3146" y="119.121652"/>
     <use style="fill:#0000ff;stroke:#0000ff;" x="142.226186" xlink:href="#md1460a3146" y="117.902234"/>
     <use style="fill:#0000ff;stroke:#0000ff;" x="144.488057" xlink:href="#md1460a3146" y="126.23672"/>
     <use style="fill:#0000ff;stroke:#0000ff;" x="146.75642" xlink:href="#md1460a3146" y="128.838923"/>
     <use style="fill:#0000ff;stroke:#0000ff;" x="149.030344" xlink:href="#md1460a3146" y="126.530233"/>
     <use style="fill:#0000ff;stroke:#0000ff;" x="151.295982" xlink:href="#md1460a3146" y="131.538466"/>
     <use style="fill:#0000ff;stroke:#0000ff;" x="153.568533" xlink:href="#md1460a3146" y="130.44216"/>
     <use style="fill:#0000ff;stroke:#0000ff;" x="155.836688" xlink:href="#md1460a3146" y="133.22712"/>
     <use style="fill:#0000ff;stroke:#0000ff;" x="158.11166" xlink:href="#md1460a3146" y="129.993746"/>
     <use style="fill:#0000ff;stroke:#0000ff;" x="160.376197" xlink:href="#md1460a3146" y="135.973621"/>
     <use style="fill:#0000ff;stroke:#0000ff;" x="162.640816" xlink:href="#md1460a3146" y="141.881295"/>
     <use style="fill:#0000ff;stroke:#0000ff;" x="164.913691" xlink:href="#md1460a3146" y="140.49892"/>
     <use style="fill:#0000ff;stroke:#0000ff;" x="167.181615" xlink:href="#md1460a3146" y="143.48842"/>
     <use style="fill:#0000ff;stroke:#0000ff;" x="169.449719" xlink:href="#md1460a3146" y="146.319116"/>
     <use style="fill:#0000ff;stroke:#0000ff;" x="171.71781" xlink:href="#md1460a3146" y="149.161565"/>
     <use style="fill:#0000ff;stroke:#0000ff;" x="173.994334" xlink:href="#md1460a3146" y="144.55646"/>
     <use style="fill:#0000ff;stroke:#0000ff;" x="176.267237" xlink:href="#md1460a3146" y="143.149884"/>
     <use style="fill:#0000ff;stroke:#0000ff;" x="178.53511" xlink:href="#md1460a3146" y="146.184415"/>
     <use style="fill:#0000ff;stroke:#0000ff;" x="180.798521" xlink:href="#md1460a3146" y="153.158818"/>
     <use style="fill:#0000ff;stroke:#0000ff;" x="183.066437" xlink:href="#md1460a3146" y="156.155706"/>
     <use style="fill:#0000ff;stroke:#0000ff;" x="185.339207" xlink:href="#md1460a3146" y="154.865539"/>
     <use style="fill:#0000ff;stroke:#0000ff;" x="187.603389" xlink:href="#md1460a3146" y="161.159416"/>
     <use style="fill:#0000ff;stroke:#0000ff;" x="189.874522" xlink:href="#md1460a3146" y="161.315492"/>
     <use style="fill:#0000ff;stroke:#0000ff;" x="192.144749" xlink:href="#md1460a3146" y="162.271525"/>
     <use style="fill:#0000ff;stroke:#0000ff;" x="194.413906" xlink:href="#md1460a3146" y="164.171562"/>
     <use style="fill:#0000ff;stroke:#0000ff;" x="196.683911" xlink:href="#md1460a3146" y="165.323624"/>
     <use style="fill:#0000ff;stroke:#0000ff;" x="198.95707" xlink:href="#md1460a3146" y="163.690914"/>
     <use style="fill:#0000ff;stroke:#0000ff;" x="201.221059" xlink:href="#md1460a3146" y="170.154925"/>
     <use style="fill:#0000ff;stroke:#0000ff;" x="203.492889" xlink:href="#md1460a3146" y="169.695564"/>
     <use style="fill:#0000ff;stroke:#0000ff;" x="205.763683" xlink:href="#md1460a3146" y="170.150813"/>
     <use style="fill:#0000ff;stroke:#0000ff;" x="208.032818" xlink:href="#md1460a3146" y="172.070209"/>
     <use style="fill:#0000ff;stroke:#0000ff;" x="210.304136" xlink:href="#md1460a3146" y="172.063347"/>
     <use style="fill:#0000ff;stroke:#0000ff;" x="212.581688" xlink:href="#md1460a3146" y="166.550442"/>
     <use style="fill:#0000ff;stroke:#0000ff;" x="214.857343" xlink:href="#md1460a3146" y="162.713876"/>
     <use style="fill:#0000ff;stroke:#0000ff;" x="217.12211" xlink:href="#md1460a3146" y="168.49062"/>
     <use style="fill:#0000ff;stroke:#0000ff;" x="219.395402" xlink:href="#md1460a3146" y="166.740081"/>
     <use style="fill:#0000ff;stroke:#0000ff;" x="221.667251" xlink:href="#md1460a3146" y="166.264237"/>
     <use style="fill:#0000ff;stroke:#0000ff;" x="223.943187" xlink:href="#md1460a3146" y="162.178305"/>
     <use style="fill:#0000ff;stroke:#0000ff;" x="226.208064" xlink:href="#md1460a3146" y="167.858911"/>
     <use style="fill:#0000ff;stroke:#0000ff;" x="228.476425" xlink:href="#md1460a3146" y="170.462515"/>
     <use style="fill:#0000ff;stroke:#0000ff;" x="230.755049" xlink:href="#md1460a3146" y="164.003322"/>
     <use style="fill:#0000ff;stroke:#0000ff;" x="233.028825" xlink:href="#md1460a3146" y="161.825413"/>
     <use style="fill:#0000ff;stroke:#0000ff;" x="235.29489" xlink:href="#md1460a3146" y="166.456484"/>
     <use style="fill:#0000ff;stroke:#0000ff;" x="237.559614" xlink:href="#md1460a3146" y="172.2715"/>
     <use style="fill:#0000ff;stroke:#0000ff;" x="239.837346" xlink:href="#md1460a3146" y="166.600123"/>
     <use style="fill:#0000ff;stroke:#0000ff;" x="242.110674" xlink:href="#md1460a3146" y="164.818128"/>
     <use style="fill:#0000ff;stroke:#0000ff;" x="244.378593" xlink:href="#md1460a3146" y="167.811679"/>
     <use style="fill:#0000ff;stroke:#0000ff;" x="246.660035" xlink:href="#md1460a3146" y="158.864553"/>
     <use style="fill:#0000ff;stroke:#0000ff;" x="248.929797" xlink:href="#md1460a3146" y="160.231625"/>
     <use style="fill:#0000ff;stroke:#0000ff;" x="251.197464" xlink:href="#md1460a3146" y="163.447492"/>
     <use style="fill:#0000ff;stroke:#0000ff;" x="253.466674" xlink:href="#md1460a3146" y="165.301935"/>
     <use style="fill:#0000ff;stroke:#0000ff;" x="255.744189" xlink:href="#md1460a3146" y="159.821705"/>
     <use style="fill:#0000ff;stroke:#0000ff;" x="258.014442" xlink:href="#md1460a3146" y="160.754929"/>
     <use style="fill:#0000ff;stroke:#0000ff;" x="260.289266" xlink:href="#md1460a3146" y="157.651601"/>
     <use style="fill:#0000ff;stroke:#0000ff;" x="262.561246" xlink:href="#md1460a3146" y="157.059186"/>
     <use style="fill:#0000ff;stroke:#0000ff;" x="264.836417" xlink:href="#md1460a3146" y="153.649892"/>
     <use style="fill:#0000ff;stroke:#0000ff;" x="267.110148" xlink:href="#md1460a3146" y="151.511819"/>
     <use style="fill:#0000ff;stroke:#0000ff;" x="269.380321" xlink:href="#md1460a3146" y="152.51465"/>
     <use style="fill:#0000ff;stroke:#0000ff;" x="271.645484" xlink:href="#md1460a3146" y="157.942491"/>
     <use style="fill:#0000ff;stroke:#0000ff;" x="273.921965" xlink:href="#md1460a3146" y="153.37602"/>
     <use style="fill:#0000ff;stroke:#0000ff;" x="276.188241" xlink:href="#md1460a3146" y="157.820405"/>
     <use style="fill:#0000ff;stroke:#0000ff;" x="278.464022" xlink:href="#md1460a3146" y="153.872684"/>
     <use style="fill:#0000ff;stroke:#0000ff;" x="280.736387" xlink:href="#md1460a3146" y="152.940679"/>
     <use style="fill:#0000ff;stroke:#0000ff;" x="282.998467" xlink:href="#md1460a3146" y="161.090367"/>
     <use style="fill:#0000ff;stroke:#0000ff;" x="285.281607" xlink:href="#md1460a3146" y="150.643655"/>
     <use style="fill:#0000ff;stroke:#0000ff;" x="287.549067" xlink:href="#md1460a3146" y="154.04236"/>
     <use style="fill:#0000ff;stroke:#0000ff;" x="289.821484" xlink:href="#md1460a3146" y="153.065085"/>
     <use style="fill:#0000ff;stroke:#0000ff;" x="292.10028" xlink:href="#md1460a3146" y="146.454167"/>
     <use style="fill:#0000ff;stroke:#0000ff;" x="294.370673" xlink:href="#md1460a3146" y="147.263218"/>
     <use style="fill:#0000ff;stroke:#0000ff;" x="296.628741" xlink:href="#md1460a3146" y="158.956032"/>
     <use style="fill:#0000ff;stroke:#0000ff;" x="298.904035" xlink:href="#md1460a3146" y="155.437733"/>
     <use style="fill:#0000ff;stroke:#0000ff;" x="301.189169" xlink:href="#md1460a3146" y="143.2303"/>
     <use style="fill:#0000ff;stroke:#0000ff;" x="303.452287" xlink:href="#md1460a3146" y="150.463301"/>
     <use style="fill:#0000ff;stroke:#0000ff;" x="305.72498" xlink:href="#md1460a3146" y="149.241633"/>
     <use style="fill:#0000ff;stroke:#0000ff;" x="307.996214" xlink:href="#md1460a3146" y="149.308533"/>
     <use style="fill:#0000ff;stroke:#0000ff;" x="310.276815" xlink:href="#md1460a3146" y="141.103693"/>
     <use style="fill:#0000ff;stroke:#0000ff;" x="312.546452" xlink:href="#md1460a3146" y="142.580955"/>
     <use style="fill:#0000ff;stroke:#0000ff;" x="314.81312" xlink:href="#md1460a3146" y="146.679223"/>
     <use style="fill:#0000ff;stroke:#0000ff;" x="317.082408" xlink:href="#md1460a3146" y="148.464561"/>
     <use style="fill:#0000ff;stroke:#0000ff;" x="319.350015" xlink:href="#md1460a3146" y="151.734026"/>
     <use style="fill:#0000ff;stroke:#0000ff;" x="321.628694" xlink:href="#md1460a3146" y="145.226529"/>
     <use style="fill:#0000ff;stroke:#0000ff;" x="323.895751" xlink:href="#md1460a3146" y="148.981661"/>
     <use style="fill:#0000ff;stroke:#0000ff;" x="326.167844" xlink:href="#md1460a3146" y="148.28996"/>
     <use style="fill:#0000ff;stroke:#0000ff;" x="328.449152" xlink:href="#md1460a3146" y="139.460923"/>
     <use style="fill:#0000ff;stroke:#0000ff;" x="330.724017" xlink:href="#md1460a3146" y="136.321336"/>
     <use style="fill:#0000ff;stroke:#0000ff;" x="332.996456" xlink:href="#md1460a3146" y="135.323975"/>
     <use style="fill:#0000ff;stroke:#0000ff;" x="335.27258" xlink:href="#md1460a3146" y="131.072316"/>
     <use style="fill:#0000ff;stroke:#0000ff;" x="337.54427" xlink:href="#md1460a3146" y="130.736616"/>
     <use style="fill:#0000ff;stroke:#0000ff;" x="339.81316" xlink:href="#md1460a3146" y="132.87332"/>
     <use style="fill:#0000ff;stroke:#0000ff;" x="342.084221" xlink:href="#md1460a3146" y="133.092043"/>
     <use style="fill:#0000ff;stroke:#0000ff;" x="344.362873" xlink:href="#md1460a3146" y="126.609011"/>
     <use style="fill:#0000ff;stroke:#0000ff;" x="346.639128" xlink:href="#md1460a3146" y="122.242037"/>
     <use style="fill:#0000ff;stroke:#0000ff;" x="348.912969" xlink:href="#md1460a3146" y="120.006732"/>
     <use style="fill:#0000ff;stroke:#0000ff;" x="351.196511" xlink:href="#md1460a3146" y="109.205194"/>
     <use style="fill:#0000ff;stroke:#0000ff;" x="353.467667" xlink:href="#md1460a3146" y="109.340831"/>
     <use style="fill:#0000ff;stroke:#0000ff;" x="355.736865" xlink:href="#md1460a3146" y="111.204952"/>
     <use style="fill:#0000ff;stroke:#0000ff;" x="358.002536" xlink:href="#md1460a3146" y="116.184174"/>
     <use style="fill:#0000ff;stroke:#0000ff;" x="360.28578" xlink:href="#md1460a3146" y="105.64527"/>
     <use style="fill:#0000ff;stroke:#0000ff;" x="362.549626" xlink:href="#md1460a3146" y="112.235767"/>
     <use style="fill:#0000ff;stroke:#0000ff;" x="364.829432" xlink:href="#md1460a3146" y="104.733785"/>
     <use style="fill:#0000ff;stroke:#0000ff;" x="367.104677" xlink:href="#md1460a3146" y="101.258656"/>
     <use style="fill:#0000ff;stroke:#0000ff;" x="369.382614" xlink:href="#md1460a3146" y="95.40607"/>
     <use style="fill:#0000ff;stroke:#0000ff;" x="371.645447" xlink:href="#md1460a3146" y="102.891039"/>
     <use style="fill:#0000ff;stroke:#0000ff;" x="373.924046" xlink:href="#md1460a3146" y="96.454482"/>
     <use style="fill:#0000ff;stroke:#0000ff;" x="376.194795" xlink:href="#md1460a3146" y="96.948877"/>
     <use style="fill:#0000ff;stroke:#0000ff;" x="378.483664" xlink:href="#md1460a3146" y="81.444162"/>
     <use style="fill:#0000ff;stroke:#0000ff;" x="380.759219" xlink:href="#md1460a3146" y="77.694998"/>
     <use style="fill:#0000ff;stroke:#0000ff;" x="383.036168" xlink:href="#md1460a3146" y="72.715523"/>
     <use style="fill:#0000ff;stroke:#0000ff;" x="385.305873" xlink:href="#md1460a3146" y="74.132227"/>
     <use style="fill:#0000ff;stroke:#0000ff;" x="387.573262" xlink:href="#md1460a3146" y="77.593503"/>
     <use style="fill:#0000ff;stroke:#0000ff;" x="389.84548" xlink:href="#md1460a3146" y="76.791948"/>
     <use style="fill:#0000ff;stroke:#0000ff;" x="392.119318" xlink:href="#md1460a3146" y="74.55884"/>
    </g>
   </g>
   <g id="line2d_22">
    <path clip-path="url(#pe232473027)" d="M 87.755682 76.889891 
L 94.558835 84.168713 
L 101.374034 91.161665 
L 108.17875 97.865016 
L 114.981337 104.275033 
L 121.793545 110.387986 
L 128.604016 116.200144 
L 135.413663 121.707775 
L 142.226186 126.907147 
L 149.030344 131.794531 
L 155.836688 136.366194 
L 162.640816 140.618405 
L 169.449719 144.547433 
L 176.267237 148.149547 
L 183.066437 151.421015 
L 189.874522 154.358106 
L 196.683911 156.957089 
L 203.492889 159.214233 
L 210.304136 161.125807 
L 217.12211 162.688078 
L 221.667251 163.533693 
L 226.208064 164.221299 
L 230.755049 164.749791 
L 235.29489 165.118062 
L 239.837346 165.325007 
L 244.378593 165.36952 
L 248.929797 165.250497 
L 253.466674 164.966832 
L 258.014442 164.517418 
L 262.561246 163.901151 
L 267.110148 163.116924 
L 271.645484 162.163633 
L 276.188241 161.040171 
L 280.736387 159.745434 
L 285.281607 158.278315 
L 289.821484 156.63771 
L 294.370673 154.822511 
L 301.189169 151.769935 
L 305.72498 149.513418 
L 310.276815 147.07844 
L 314.81312 144.463894 
L 319.350015 141.668675 
L 323.895751 138.691678 
L 330.724017 133.882928 
L 337.54427 128.658958 
L 344.362873 123.016036 
L 351.196511 116.95043 
L 358.002536 110.45841 
L 362.549626 105.891658 
L 369.382614 98.680655 
L 376.194795 91.033288 
L 380.759219 85.690777 
L 387.573262 77.307844 
L 392.119318 71.4715 
L 392.119318 71.4715 
" style="fill:none;stroke:#ff0000;stroke-dasharray:3.7,1.6;stroke-dashoffset:0;"/>
   </g>
   <g id="patch_5">
    <path d="M 72.5375 177.3115 
L 72.5375 66.4315 
" style="fill:none;stroke:#000000;stroke-linecap:square;stroke-linejoin:miter;stroke-width:0.8;"/>
   </g>
   <g id="patch_6">
    <path d="M 407.3375 177.3115 
L 407.3375 66.4315 
" style="fill:none;stroke:#000000;stroke-linecap:square;stroke-linejoin:miter;stroke-width:0.8;"/>
   </g>
   <g id="patch_7">
    <path d="M 72.5375 177.3115 
L 407.3375 177.3115 
" style="fill:none;stroke:#000000;stroke-linecap:square;stroke-linejoin:miter;stroke-width:0.8;"/>
   </g>
   <g id="patch_8">
    <path d="M 72.5375 66.4315 
L 407.3375 66.4315 
" style="fill:none;stroke:#000000;stroke-linecap:square;stroke-linejoin:miter;stroke-width:0.8;"/>
   </g>
   <g id="text_14">
    <!-- ligentec/191030-ligentec-gp2-dev1 -->
    <defs>
     <path d="M 40.578125 39.3125 
Q 47.65625 37.796875 51.625 33 
Q 55.609375 28.21875 55.609375 21.1875 
Q 55.609375 10.40625 48.1875 4.484375 
Q 40.765625 -1.421875 27.09375 -1.421875 
Q 22.515625 -1.421875 17.65625 -0.515625 
Q 12.796875 0.390625 7.625 2.203125 
L 7.625 11.71875 
Q 11.71875 9.328125 16.59375 8.109375 
Q 21.484375 6.890625 26.8125 6.890625 
Q 36.078125 6.890625 40.9375 10.546875 
Q 45.796875 14.203125 45.796875 21.1875 
Q 45.796875 27.640625 41.28125 31.265625 
Q 36.765625 34.90625 28.71875 34.90625 
L 20.21875 34.90625 
L 20.21875 43.015625 
L 29.109375 43.015625 
Q 36.375 43.015625 40.234375 45.921875 
Q 44.09375 48.828125 44.09375 54.296875 
Q 44.09375 59.90625 40.109375 62.90625 
Q 36.140625 65.921875 28.71875 65.921875 
Q 24.65625 65.921875 20.015625 65.03125 
Q 15.375 64.15625 9.8125 62.3125 
L 9.8125 71.09375 
Q 15.4375 72.65625 20.34375 73.4375 
Q 25.25 74.21875 29.59375 74.21875 
Q 40.828125 74.21875 47.359375 69.109375 
Q 53.90625 64.015625 53.90625 55.328125 
Q 53.90625 49.265625 50.4375 45.09375 
Q 46.96875 40.921875 40.578125 39.3125 
z
" id="DejaVuSans-51"/>
     <path d="M 4.890625 31.390625 
L 31.203125 31.390625 
L 31.203125 23.390625 
L 4.890625 23.390625 
z
" id="DejaVuSans-45"/>
     <path d="M 18.109375 8.203125 
L 18.109375 -20.796875 
L 9.078125 -20.796875 
L 9.078125 54.6875 
L 18.109375 54.6875 
L 18.109375 46.390625 
Q 20.953125 51.265625 25.265625 53.625 
Q 29.59375 56 35.59375 56 
Q 45.5625 56 51.78125 48.09375 
Q 58.015625 40.1875 58.015625 27.296875 
Q 58.015625 14.40625 51.78125 6.484375 
Q 45.5625 -1.421875 35.59375 -1.421875 
Q 29.59375 -1.421875 25.265625 0.953125 
Q 20.953125 3.328125 18.109375 8.203125 
z
M 48.6875 27.296875 
Q 48.6875 37.203125 44.609375 42.84375 
Q 40.53125 48.484375 33.40625 48.484375 
Q 26.265625 48.484375 22.1875 42.84375 
Q 18.109375 37.203125 18.109375 27.296875 
Q 18.109375 17.390625 22.1875 11.75 
Q 26.265625 6.109375 33.40625 6.109375 
Q 40.53125 6.109375 44.609375 11.75 
Q 48.6875 17.390625 48.6875 27.296875 
z
" id="DejaVuSans-112"/>
     <path d="M 45.40625 46.390625 
L 45.40625 75.984375 
L 54.390625 75.984375 
L 54.390625 0 
L 45.40625 0 
L 45.40625 8.203125 
Q 42.578125 3.328125 38.25 0.953125 
Q 33.9375 -1.421875 27.875 -1.421875 
Q 17.96875 -1.421875 11.734375 6.484375 
Q 5.515625 14.40625 5.515625 27.296875 
Q 5.515625 40.1875 11.734375 48.09375 
Q 17.96875 56 27.875 56 
Q 33.9375 56 38.25 53.625 
Q 42.578125 51.265625 45.40625 46.390625 
z
M 14.796875 27.296875 
Q 14.796875 17.390625 18.875 11.75 
Q 22.953125 6.109375 30.078125 6.109375 
Q 37.203125 6.109375 41.296875 11.75 
Q 45.40625 17.390625 45.40625 27.296875 
Q 45.40625 37.203125 41.296875 42.84375 
Q 37.203125 48.484375 30.078125 48.484375 
Q 22.953125 48.484375 18.875 42.84375 
Q 14.796875 37.203125 14.796875 27.296875 
z
" id="DejaVuSans-100"/>
    </defs>
    <g transform="translate(70.8395 21.789)scale(0.192 -0.192)">
     <use xlink:href="#DejaVuSans-108"/>
     <use x="27.783203" xlink:href="#DejaVuSans-105"/>
     <use x="55.566406" xlink:href="#DejaVuSans-103"/>
     <use x="119.042969" xlink:href="#DejaVuSans-101"/>
     <use x="180.566406" xlink:href="#DejaVuSans-110"/>
     <use x="243.945312" xlink:href="#DejaVuSans-116"/>
     <use x="283.154297" xlink:href="#DejaVuSans-101"/>
     <use x="344.677734" xlink:href="#DejaVuSans-99"/>
     <use x="399.658203" xlink:href="#DejaVuSans-47"/>
     <use x="433.349609" xlink:href="#DejaVuSans-49"/>
     <use x="496.972656" xlink:href="#DejaVuSans-57"/>
     <use x="560.595703" xlink:href="#DejaVuSans-49"/>
     <use x="624.21875" xlink:href="#DejaVuSans-48"/>
     <use x="687.841797" xlink:href="#DejaVuSans-51"/>
     <use x="751.464844" xlink:href="#DejaVuSans-48"/>
     <use x="815.087891" xlink:href="#DejaVuSans-45"/>
     <use x="851.171875" xlink:href="#DejaVuSans-108"/>
     <use x="878.955078" xlink:href="#DejaVuSans-105"/>
     <use x="906.738281" xlink:href="#DejaVuSans-103"/>
     <use x="970.214844" xlink:href="#DejaVuSans-101"/>
     <use x="1031.738281" xlink:href="#DejaVuSans-110"/>
     <use x="1095.117188" xlink:href="#DejaVuSans-116"/>
     <use x="1134.326172" xlink:href="#DejaVuSans-101"/>
     <use x="1195.849609" xlink:href="#DejaVuSans-99"/>
     <use x="1250.830078" xlink:href="#DejaVuSans-45"/>
     <use x="1286.914062" xlink:href="#DejaVuSans-103"/>
     <use x="1350.390625" xlink:href="#DejaVuSans-112"/>
     <use x="1413.867188" xlink:href="#DejaVuSans-50"/>
     <use x="1477.490234" xlink:href="#DejaVuSans-45"/>
     <use x="1513.574219" xlink:href="#DejaVuSans-100"/>
     <use x="1577.050781" xlink:href="#DejaVuSans-101"/>
     <use x="1638.574219" xlink:href="#DejaVuSans-118"/>
     <use x="1697.753906" xlink:href="#DejaVuSans-49"/>
    </g>
   </g>
  </g>
 </g>
 <defs>
  <clipPath id="p5cca92749a">
   <rect height="0" width="334.8" x="72.5375" y="66.4315"/>
  </clipPath>
  <clipPath id="pe232473027">
   <rect height="110.88" width="334.8" x="72.5375" y="66.4315"/>
  </clipPath>
 </defs>
</svg>
