<?xml version="1.0" encoding="utf-8" standalone="no"?>
<!DOCTYPE svg PUBLIC "-//W3C//DTD SVG 1.1//EN"
  "http://www.w3.org/Graphics/SVG/1.1/DTD/svg11.dtd">
<!-- Created with matplotlib (https://matplotlib.org/) -->
<svg height="226.4815pt" version="1.1" viewBox="0 0 400.9705 226.4815" width="400.9705pt" xmlns="http://www.w3.org/2000/svg" xmlns:xlink="http://www.w3.org/1999/xlink">
 <defs>
  <style type="text/css">
*{stroke-linecap:butt;stroke-linejoin:round;white-space:pre;}
  </style>
 </defs>
 <g id="figure_1">
  <g id="patch_1">
   <path d="M 0 226.4815 
L 400.9705 226.4815 
L 400.9705 0 
L 0 0 
z
" style="fill:none;"/>
  </g>
  <g id="axes_1">
   <g id="patch_2">
    <path d="M 57.2725 177.3115 
L 392.0725 177.3115 
L 392.0725 66.4315 
L 57.2725 66.4315 
z
" style="fill:none;"/>
   </g>
   <g id="axes_2">
    <g id="patch_3">
     <path d="M 57.2725 66.4315 
L 392.0725 66.4315 
L 392.0725 66.4315 
L 57.2725 66.4315 
z
" style="fill:#ffffff;"/>
    </g>
    <g id="matplotlib.axis_1">
     <g id="xtick_1">
      <g id="line2d_1">
       <path clip-path="url(#p23044c3a09)" d="M 336.593487 66.4315 
L 336.593487 66.4315 
" style="fill:none;stroke:#b0b0b0;stroke-dasharray:0.8,1.32;stroke-dashoffset:0;stroke-width:0.8;"/>
      </g>
      <g id="line2d_2">
       <defs>
        <path d="M 0 0 
L 0 -3.5 
" id="m85f578c844" style="stroke:#000000;stroke-width:0.8;"/>
       </defs>
       <g>
        <use style="stroke:#000000;stroke-width:0.8;" x="336.593487" xlink:href="#m85f578c844" y="66.4315"/>
       </g>
      </g>
      <g id="text_1">
       <!-- 1500 -->
       <defs>
        <path d="M 12.40625 8.296875 
L 28.515625 8.296875 
L 28.515625 63.921875 
L 10.984375 60.40625 
L 10.984375 69.390625 
L 28.421875 72.90625 
L 38.28125 72.90625 
L 38.28125 8.296875 
L 54.390625 8.296875 
L 54.390625 0 
L 12.40625 0 
z
" id="DejaVuSans-49"/>
        <path d="M 10.796875 72.90625 
L 49.515625 72.90625 
L 49.515625 64.59375 
L 19.828125 64.59375 
L 19.828125 46.734375 
Q 21.96875 47.46875 24.109375 47.828125 
Q 26.265625 48.1875 28.421875 48.1875 
Q 40.625 48.1875 47.75 41.5 
Q 54.890625 34.8125 54.890625 23.390625 
Q 54.890625 11.625 47.5625 5.09375 
Q 40.234375 -1.421875 26.90625 -1.421875 
Q 22.3125 -1.421875 17.546875 -0.640625 
Q 12.796875 0.140625 7.71875 1.703125 
L 7.71875 11.625 
Q 12.109375 9.234375 16.796875 8.0625 
Q 21.484375 6.890625 26.703125 6.890625 
Q 35.15625 6.890625 40.078125 11.328125 
Q 45.015625 15.765625 45.015625 23.390625 
Q 45.015625 31 40.078125 35.4375 
Q 35.15625 39.890625 26.703125 39.890625 
Q 22.75 39.890625 18.8125 39.015625 
Q 14.890625 38.140625 10.796875 36.28125 
z
" id="DejaVuSans-53"/>
        <path d="M 31.78125 66.40625 
Q 24.171875 66.40625 20.328125 58.90625 
Q 16.5 51.421875 16.5 36.375 
Q 16.5 21.390625 20.328125 13.890625 
Q 24.171875 6.390625 31.78125 6.390625 
Q 39.453125 6.390625 43.28125 13.890625 
Q 47.125 21.390625 47.125 36.375 
Q 47.125 51.421875 43.28125 58.90625 
Q 39.453125 66.40625 31.78125 66.40625 
z
M 31.78125 74.21875 
Q 44.046875 74.21875 50.515625 64.515625 
Q 56.984375 54.828125 56.984375 36.375 
Q 56.984375 17.96875 50.515625 8.265625 
Q 44.046875 -1.421875 31.78125 -1.421875 
Q 19.53125 -1.421875 13.0625 8.265625 
Q 6.59375 17.96875 6.59375 36.375 
Q 6.59375 54.828125 13.0625 64.515625 
Q 19.53125 74.21875 31.78125 74.21875 
z
" id="DejaVuSans-48"/>
       </defs>
       <g transform="translate(316.233487 56.104)scale(0.16 -0.16)">
        <use xlink:href="#DejaVuSans-49"/>
        <use x="63.623047" xlink:href="#DejaVuSans-53"/>
        <use x="127.246094" xlink:href="#DejaVuSans-48"/>
        <use x="190.869141" xlink:href="#DejaVuSans-48"/>
       </g>
      </g>
     </g>
     <g id="xtick_2">
      <g id="line2d_3">
       <path clip-path="url(#p23044c3a09)" d="M 236.461014 66.4315 
L 236.461014 66.4315 
" style="fill:none;stroke:#b0b0b0;stroke-dasharray:0.8,1.32;stroke-dashoffset:0;stroke-width:0.8;"/>
      </g>
      <g id="line2d_4">
       <g>
        <use style="stroke:#000000;stroke-width:0.8;" x="236.461014" xlink:href="#m85f578c844" y="66.4315"/>
       </g>
      </g>
      <g id="text_2">
       <!-- 1550 -->
       <g transform="translate(216.101014 56.104)scale(0.16 -0.16)">
        <use xlink:href="#DejaVuSans-49"/>
        <use x="63.623047" xlink:href="#DejaVuSans-53"/>
        <use x="127.246094" xlink:href="#DejaVuSans-53"/>
        <use x="190.869141" xlink:href="#DejaVuSans-48"/>
       </g>
      </g>
     </g>
     <g id="xtick_3">
      <g id="line2d_5">
       <path clip-path="url(#p23044c3a09)" d="M 142.58779 66.4315 
L 142.58779 66.4315 
" style="fill:none;stroke:#b0b0b0;stroke-dasharray:0.8,1.32;stroke-dashoffset:0;stroke-width:0.8;"/>
      </g>
      <g id="line2d_6">
       <g>
        <use style="stroke:#000000;stroke-width:0.8;" x="142.58779" xlink:href="#m85f578c844" y="66.4315"/>
       </g>
      </g>
      <g id="text_3">
       <!-- 1600 -->
       <defs>
        <path d="M 33.015625 40.375 
Q 26.375 40.375 22.484375 35.828125 
Q 18.609375 31.296875 18.609375 23.390625 
Q 18.609375 15.53125 22.484375 10.953125 
Q 26.375 6.390625 33.015625 6.390625 
Q 39.65625 6.390625 43.53125 10.953125 
Q 47.40625 15.53125 47.40625 23.390625 
Q 47.40625 31.296875 43.53125 35.828125 
Q 39.65625 40.375 33.015625 40.375 
z
M 52.59375 71.296875 
L 52.59375 62.3125 
Q 48.875 64.0625 45.09375 64.984375 
Q 41.3125 65.921875 37.59375 65.921875 
Q 27.828125 65.921875 22.671875 59.328125 
Q 17.53125 52.734375 16.796875 39.40625 
Q 19.671875 43.65625 24.015625 45.921875 
Q 28.375 48.1875 33.59375 48.1875 
Q 44.578125 48.1875 50.953125 41.515625 
Q 57.328125 34.859375 57.328125 23.390625 
Q 57.328125 12.15625 50.6875 5.359375 
Q 44.046875 -1.421875 33.015625 -1.421875 
Q 20.359375 -1.421875 13.671875 8.265625 
Q 6.984375 17.96875 6.984375 36.375 
Q 6.984375 53.65625 15.1875 63.9375 
Q 23.390625 74.21875 37.203125 74.21875 
Q 40.921875 74.21875 44.703125 73.484375 
Q 48.484375 72.75 52.59375 71.296875 
z
" id="DejaVuSans-54"/>
       </defs>
       <g transform="translate(122.22779 56.104)scale(0.16 -0.16)">
        <use xlink:href="#DejaVuSans-49"/>
        <use x="63.623047" xlink:href="#DejaVuSans-54"/>
        <use x="127.246094" xlink:href="#DejaVuSans-48"/>
        <use x="190.869141" xlink:href="#DejaVuSans-48"/>
       </g>
      </g>
     </g>
     <g id="text_4">
      <!-- wavelength (nm) -->
      <defs>
       <path d="M 4.203125 54.6875 
L 13.1875 54.6875 
L 24.421875 12.015625 
L 35.59375 54.6875 
L 46.1875 54.6875 
L 57.421875 12.015625 
L 68.609375 54.6875 
L 77.59375 54.6875 
L 63.28125 0 
L 52.6875 0 
L 40.921875 44.828125 
L 29.109375 0 
L 18.5 0 
z
" id="DejaVuSans-119"/>
       <path d="M 34.28125 27.484375 
Q 23.390625 27.484375 19.1875 25 
Q 14.984375 22.515625 14.984375 16.5 
Q 14.984375 11.71875 18.140625 8.90625 
Q 21.296875 6.109375 26.703125 6.109375 
Q 34.1875 6.109375 38.703125 11.40625 
Q 43.21875 16.703125 43.21875 25.484375 
L 43.21875 27.484375 
z
M 52.203125 31.203125 
L 52.203125 0 
L 43.21875 0 
L 43.21875 8.296875 
Q 40.140625 3.328125 35.546875 0.953125 
Q 30.953125 -1.421875 24.3125 -1.421875 
Q 15.921875 -1.421875 10.953125 3.296875 
Q 6 8.015625 6 15.921875 
Q 6 25.140625 12.171875 29.828125 
Q 18.359375 34.515625 30.609375 34.515625 
L 43.21875 34.515625 
L 43.21875 35.40625 
Q 43.21875 41.609375 39.140625 45 
Q 35.0625 48.390625 27.6875 48.390625 
Q 23 48.390625 18.546875 47.265625 
Q 14.109375 46.140625 10.015625 43.890625 
L 10.015625 52.203125 
Q 14.9375 54.109375 19.578125 55.046875 
Q 24.21875 56 28.609375 56 
Q 40.484375 56 46.34375 49.84375 
Q 52.203125 43.703125 52.203125 31.203125 
z
" id="DejaVuSans-97"/>
       <path d="M 2.984375 54.6875 
L 12.5 54.6875 
L 29.59375 8.796875 
L 46.6875 54.6875 
L 56.203125 54.6875 
L 35.6875 0 
L 23.484375 0 
z
" id="DejaVuSans-118"/>
       <path d="M 56.203125 29.59375 
L 56.203125 25.203125 
L 14.890625 25.203125 
Q 15.484375 15.921875 20.484375 11.0625 
Q 25.484375 6.203125 34.421875 6.203125 
Q 39.59375 6.203125 44.453125 7.46875 
Q 49.3125 8.734375 54.109375 11.28125 
L 54.109375 2.78125 
Q 49.265625 0.734375 44.1875 -0.34375 
Q 39.109375 -1.421875 33.890625 -1.421875 
Q 20.796875 -1.421875 13.15625 6.1875 
Q 5.515625 13.8125 5.515625 26.8125 
Q 5.515625 40.234375 12.765625 48.109375 
Q 20.015625 56 32.328125 56 
Q 43.359375 56 49.78125 48.890625 
Q 56.203125 41.796875 56.203125 29.59375 
z
M 47.21875 32.234375 
Q 47.125 39.59375 43.09375 43.984375 
Q 39.0625 48.390625 32.421875 48.390625 
Q 24.90625 48.390625 20.390625 44.140625 
Q 15.875 39.890625 15.1875 32.171875 
z
" id="DejaVuSans-101"/>
       <path d="M 9.421875 75.984375 
L 18.40625 75.984375 
L 18.40625 0 
L 9.421875 0 
z
" id="DejaVuSans-108"/>
       <path d="M 54.890625 33.015625 
L 54.890625 0 
L 45.90625 0 
L 45.90625 32.71875 
Q 45.90625 40.484375 42.875 44.328125 
Q 39.84375 48.1875 33.796875 48.1875 
Q 26.515625 48.1875 22.3125 43.546875 
Q 18.109375 38.921875 18.109375 30.90625 
L 18.109375 0 
L 9.078125 0 
L 9.078125 54.6875 
L 18.109375 54.6875 
L 18.109375 46.1875 
Q 21.34375 51.125 25.703125 53.5625 
Q 30.078125 56 35.796875 56 
Q 45.21875 56 50.046875 50.171875 
Q 54.890625 44.34375 54.890625 33.015625 
z
" id="DejaVuSans-110"/>
       <path d="M 45.40625 27.984375 
Q 45.40625 37.75 41.375 43.109375 
Q 37.359375 48.484375 30.078125 48.484375 
Q 22.859375 48.484375 18.828125 43.109375 
Q 14.796875 37.75 14.796875 27.984375 
Q 14.796875 18.265625 18.828125 12.890625 
Q 22.859375 7.515625 30.078125 7.515625 
Q 37.359375 7.515625 41.375 12.890625 
Q 45.40625 18.265625 45.40625 27.984375 
z
M 54.390625 6.78125 
Q 54.390625 -7.171875 48.1875 -13.984375 
Q 42 -20.796875 29.203125 -20.796875 
Q 24.46875 -20.796875 20.265625 -20.09375 
Q 16.0625 -19.390625 12.109375 -17.921875 
L 12.109375 -9.1875 
Q 16.0625 -11.328125 19.921875 -12.34375 
Q 23.78125 -13.375 27.78125 -13.375 
Q 36.625 -13.375 41.015625 -8.765625 
Q 45.40625 -4.15625 45.40625 5.171875 
L 45.40625 9.625 
Q 42.625 4.78125 38.28125 2.390625 
Q 33.9375 0 27.875 0 
Q 17.828125 0 11.671875 7.65625 
Q 5.515625 15.328125 5.515625 27.984375 
Q 5.515625 40.671875 11.671875 48.328125 
Q 17.828125 56 27.875 56 
Q 33.9375 56 38.28125 53.609375 
Q 42.625 51.21875 45.40625 46.390625 
L 45.40625 54.6875 
L 54.390625 54.6875 
z
" id="DejaVuSans-103"/>
       <path d="M 18.3125 70.21875 
L 18.3125 54.6875 
L 36.8125 54.6875 
L 36.8125 47.703125 
L 18.3125 47.703125 
L 18.3125 18.015625 
Q 18.3125 11.328125 20.140625 9.421875 
Q 21.96875 7.515625 27.59375 7.515625 
L 36.8125 7.515625 
L 36.8125 0 
L 27.59375 0 
Q 17.1875 0 13.234375 3.875 
Q 9.28125 7.765625 9.28125 18.015625 
L 9.28125 47.703125 
L 2.6875 47.703125 
L 2.6875 54.6875 
L 9.28125 54.6875 
L 9.28125 70.21875 
z
" id="DejaVuSans-116"/>
       <path d="M 54.890625 33.015625 
L 54.890625 0 
L 45.90625 0 
L 45.90625 32.71875 
Q 45.90625 40.484375 42.875 44.328125 
Q 39.84375 48.1875 33.796875 48.1875 
Q 26.515625 48.1875 22.3125 43.546875 
Q 18.109375 38.921875 18.109375 30.90625 
L 18.109375 0 
L 9.078125 0 
L 9.078125 75.984375 
L 18.109375 75.984375 
L 18.109375 46.1875 
Q 21.34375 51.125 25.703125 53.5625 
Q 30.078125 56 35.796875 56 
Q 45.21875 56 50.046875 50.171875 
Q 54.890625 44.34375 54.890625 33.015625 
z
" id="DejaVuSans-104"/>
       <path id="DejaVuSans-32"/>
       <path d="M 31 75.875 
Q 24.46875 64.65625 21.28125 53.65625 
Q 18.109375 42.671875 18.109375 31.390625 
Q 18.109375 20.125 21.3125 9.0625 
Q 24.515625 -2 31 -13.1875 
L 23.1875 -13.1875 
Q 15.875 -1.703125 12.234375 9.375 
Q 8.59375 20.453125 8.59375 31.390625 
Q 8.59375 42.28125 12.203125 53.3125 
Q 15.828125 64.359375 23.1875 75.875 
z
" id="DejaVuSans-40"/>
       <path d="M 52 44.1875 
Q 55.375 50.25 60.0625 53.125 
Q 64.75 56 71.09375 56 
Q 79.640625 56 84.28125 50.015625 
Q 88.921875 44.046875 88.921875 33.015625 
L 88.921875 0 
L 79.890625 0 
L 79.890625 32.71875 
Q 79.890625 40.578125 77.09375 44.375 
Q 74.3125 48.1875 68.609375 48.1875 
Q 61.625 48.1875 57.5625 43.546875 
Q 53.515625 38.921875 53.515625 30.90625 
L 53.515625 0 
L 44.484375 0 
L 44.484375 32.71875 
Q 44.484375 40.625 41.703125 44.40625 
Q 38.921875 48.1875 33.109375 48.1875 
Q 26.21875 48.1875 22.15625 43.53125 
Q 18.109375 38.875 18.109375 30.90625 
L 18.109375 0 
L 9.078125 0 
L 9.078125 54.6875 
L 18.109375 54.6875 
L 18.109375 46.1875 
Q 21.1875 51.21875 25.484375 53.609375 
Q 29.78125 56 35.6875 56 
Q 41.65625 56 45.828125 52.96875 
Q 50 49.953125 52 44.1875 
z
" id="DejaVuSans-109"/>
       <path d="M 8.015625 75.875 
L 15.828125 75.875 
Q 23.140625 64.359375 26.78125 53.3125 
Q 30.421875 42.28125 30.421875 31.390625 
Q 30.421875 20.453125 26.78125 9.375 
Q 23.140625 -1.703125 15.828125 -13.1875 
L 8.015625 -13.1875 
Q 14.5 -2 17.703125 9.0625 
Q 20.90625 20.125 20.90625 31.390625 
Q 20.90625 42.671875 17.703125 53.65625 
Q 14.5 64.65625 8.015625 75.875 
z
" id="DejaVuSans-41"/>
      </defs>
      <g transform="translate(156.4225 39.9465)scale(0.16 -0.16)">
       <use xlink:href="#DejaVuSans-119"/>
       <use x="81.787109" xlink:href="#DejaVuSans-97"/>
       <use x="143.066406" xlink:href="#DejaVuSans-118"/>
       <use x="202.246094" xlink:href="#DejaVuSans-101"/>
       <use x="263.769531" xlink:href="#DejaVuSans-108"/>
       <use x="291.552734" xlink:href="#DejaVuSans-101"/>
       <use x="353.076172" xlink:href="#DejaVuSans-110"/>
       <use x="416.455078" xlink:href="#DejaVuSans-103"/>
       <use x="479.931641" xlink:href="#DejaVuSans-116"/>
       <use x="519.140625" xlink:href="#DejaVuSans-104"/>
       <use x="582.519531" xlink:href="#DejaVuSans-32"/>
       <use x="614.306641" xlink:href="#DejaVuSans-40"/>
       <use x="653.320312" xlink:href="#DejaVuSans-110"/>
       <use x="716.699219" xlink:href="#DejaVuSans-109"/>
       <use x="814.111328" xlink:href="#DejaVuSans-41"/>
      </g>
     </g>
    </g>
    <g id="matplotlib.axis_2"/>
    <g id="patch_4">
     <path d="M 392.0725 66.4315 
L 57.2725 66.4315 
" style="fill:none;stroke:#000000;stroke-linecap:square;stroke-linejoin:miter;stroke-width:0.8;"/>
    </g>
   </g>
   <g id="matplotlib.axis_3">
    <g id="xtick_4">
     <g id="line2d_7">
      <path clip-path="url(#pdbb773a8ac)" d="M 105.764739 177.3115 
L 105.764739 66.4315 
" style="fill:none;stroke:#b0b0b0;stroke-dasharray:0.8,1.32;stroke-dashoffset:0;stroke-width:0.8;"/>
     </g>
     <g id="line2d_8">
      <defs>
       <path d="M 0 0 
L 0 3.5 
" id="m22d82f34ef" style="stroke:#000000;stroke-width:0.8;"/>
      </defs>
      <g>
       <use style="stroke:#000000;stroke-width:0.8;" x="105.764739" xlink:href="#m22d82f34ef" y="177.3115"/>
      </g>
     </g>
     <g id="text_5">
      <!-- 185 -->
      <defs>
       <path d="M 31.78125 34.625 
Q 24.75 34.625 20.71875 30.859375 
Q 16.703125 27.09375 16.703125 20.515625 
Q 16.703125 13.921875 20.71875 10.15625 
Q 24.75 6.390625 31.78125 6.390625 
Q 38.8125 6.390625 42.859375 10.171875 
Q 46.921875 13.96875 46.921875 20.515625 
Q 46.921875 27.09375 42.890625 30.859375 
Q 38.875 34.625 31.78125 34.625 
z
M 21.921875 38.8125 
Q 15.578125 40.375 12.03125 44.71875 
Q 8.5 49.078125 8.5 55.328125 
Q 8.5 64.0625 14.71875 69.140625 
Q 20.953125 74.21875 31.78125 74.21875 
Q 42.671875 74.21875 48.875 69.140625 
Q 55.078125 64.0625 55.078125 55.328125 
Q 55.078125 49.078125 51.53125 44.71875 
Q 48 40.375 41.703125 38.8125 
Q 48.828125 37.15625 52.796875 32.3125 
Q 56.78125 27.484375 56.78125 20.515625 
Q 56.78125 9.90625 50.3125 4.234375 
Q 43.84375 -1.421875 31.78125 -1.421875 
Q 19.734375 -1.421875 13.25 4.234375 
Q 6.78125 9.90625 6.78125 20.515625 
Q 6.78125 27.484375 10.78125 32.3125 
Q 14.796875 37.15625 21.921875 38.8125 
z
M 18.3125 54.390625 
Q 18.3125 48.734375 21.84375 45.5625 
Q 25.390625 42.390625 31.78125 42.390625 
Q 38.140625 42.390625 41.71875 45.5625 
Q 45.3125 48.734375 45.3125 54.390625 
Q 45.3125 60.0625 41.71875 63.234375 
Q 38.140625 66.40625 31.78125 66.40625 
Q 25.390625 66.40625 21.84375 63.234375 
Q 18.3125 60.0625 18.3125 54.390625 
z
" id="DejaVuSans-56"/>
      </defs>
      <g transform="translate(90.494739 196.469)scale(0.16 -0.16)">
       <use xlink:href="#DejaVuSans-49"/>
       <use x="63.623047" xlink:href="#DejaVuSans-56"/>
       <use x="127.246094" xlink:href="#DejaVuSans-53"/>
      </g>
     </g>
    </g>
    <g id="xtick_5">
     <g id="line2d_9">
      <path clip-path="url(#pdbb773a8ac)" d="M 183.423302 177.3115 
L 183.423302 66.4315 
" style="fill:none;stroke:#b0b0b0;stroke-dasharray:0.8,1.32;stroke-dashoffset:0;stroke-width:0.8;"/>
     </g>
     <g id="line2d_10">
      <g>
       <use style="stroke:#000000;stroke-width:0.8;" x="183.423302" xlink:href="#m22d82f34ef" y="177.3115"/>
      </g>
     </g>
     <g id="text_6">
      <!-- 190 -->
      <defs>
       <path d="M 10.984375 1.515625 
L 10.984375 10.5 
Q 14.703125 8.734375 18.5 7.8125 
Q 22.3125 6.890625 25.984375 6.890625 
Q 35.75 6.890625 40.890625 13.453125 
Q 46.046875 20.015625 46.78125 33.40625 
Q 43.953125 29.203125 39.59375 26.953125 
Q 35.25 24.703125 29.984375 24.703125 
Q 19.046875 24.703125 12.671875 31.3125 
Q 6.296875 37.9375 6.296875 49.421875 
Q 6.296875 60.640625 12.9375 67.421875 
Q 19.578125 74.21875 30.609375 74.21875 
Q 43.265625 74.21875 49.921875 64.515625 
Q 56.59375 54.828125 56.59375 36.375 
Q 56.59375 19.140625 48.40625 8.859375 
Q 40.234375 -1.421875 26.421875 -1.421875 
Q 22.703125 -1.421875 18.890625 -0.6875 
Q 15.09375 0.046875 10.984375 1.515625 
z
M 30.609375 32.421875 
Q 37.25 32.421875 41.125 36.953125 
Q 45.015625 41.5 45.015625 49.421875 
Q 45.015625 57.28125 41.125 61.84375 
Q 37.25 66.40625 30.609375 66.40625 
Q 23.96875 66.40625 20.09375 61.84375 
Q 16.21875 57.28125 16.21875 49.421875 
Q 16.21875 41.5 20.09375 36.953125 
Q 23.96875 32.421875 30.609375 32.421875 
z
" id="DejaVuSans-57"/>
      </defs>
      <g transform="translate(168.153302 196.469)scale(0.16 -0.16)">
       <use xlink:href="#DejaVuSans-49"/>
       <use x="63.623047" xlink:href="#DejaVuSans-57"/>
       <use x="127.246094" xlink:href="#DejaVuSans-48"/>
      </g>
     </g>
    </g>
    <g id="xtick_6">
     <g id="line2d_11">
      <path clip-path="url(#pdbb773a8ac)" d="M 261.081866 177.3115 
L 261.081866 66.4315 
" style="fill:none;stroke:#b0b0b0;stroke-dasharray:0.8,1.32;stroke-dashoffset:0;stroke-width:0.8;"/>
     </g>
     <g id="line2d_12">
      <g>
       <use style="stroke:#000000;stroke-width:0.8;" x="261.081866" xlink:href="#m22d82f34ef" y="177.3115"/>
      </g>
     </g>
     <g id="text_7">
      <!-- 195 -->
      <g transform="translate(245.811866 196.469)scale(0.16 -0.16)">
       <use xlink:href="#DejaVuSans-49"/>
       <use x="63.623047" xlink:href="#DejaVuSans-57"/>
       <use x="127.246094" xlink:href="#DejaVuSans-53"/>
      </g>
     </g>
    </g>
    <g id="xtick_7">
     <g id="line2d_13">
      <path clip-path="url(#pdbb773a8ac)" d="M 338.740429 177.3115 
L 338.740429 66.4315 
" style="fill:none;stroke:#b0b0b0;stroke-dasharray:0.8,1.32;stroke-dashoffset:0;stroke-width:0.8;"/>
     </g>
     <g id="line2d_14">
      <g>
       <use style="stroke:#000000;stroke-width:0.8;" x="338.740429" xlink:href="#m22d82f34ef" y="177.3115"/>
      </g>
     </g>
     <g id="text_8">
      <!-- 200 -->
      <defs>
       <path d="M 19.1875 8.296875 
L 53.609375 8.296875 
L 53.609375 0 
L 7.328125 0 
L 7.328125 8.296875 
Q 12.9375 14.109375 22.625 23.890625 
Q 32.328125 33.6875 34.8125 36.53125 
Q 39.546875 41.84375 41.421875 45.53125 
Q 43.3125 49.21875 43.3125 52.78125 
Q 43.3125 58.59375 39.234375 62.25 
Q 35.15625 65.921875 28.609375 65.921875 
Q 23.96875 65.921875 18.8125 64.3125 
Q 13.671875 62.703125 7.8125 59.421875 
L 7.8125 69.390625 
Q 13.765625 71.78125 18.9375 73 
Q 24.125 74.21875 28.421875 74.21875 
Q 39.75 74.21875 46.484375 68.546875 
Q 53.21875 62.890625 53.21875 53.421875 
Q 53.21875 48.921875 51.53125 44.890625 
Q 49.859375 40.875 45.40625 35.40625 
Q 44.1875 33.984375 37.640625 27.21875 
Q 31.109375 20.453125 19.1875 8.296875 
z
" id="DejaVuSans-50"/>
      </defs>
      <g transform="translate(323.470429 196.469)scale(0.16 -0.16)">
       <use xlink:href="#DejaVuSans-50"/>
       <use x="63.623047" xlink:href="#DejaVuSans-48"/>
       <use x="127.246094" xlink:href="#DejaVuSans-48"/>
      </g>
     </g>
    </g>
    <g id="text_9">
     <!-- frequency (THz) -->
     <defs>
      <path d="M 37.109375 75.984375 
L 37.109375 68.5 
L 28.515625 68.5 
Q 23.6875 68.5 21.796875 66.546875 
Q 19.921875 64.59375 19.921875 59.515625 
L 19.921875 54.6875 
L 34.71875 54.6875 
L 34.71875 47.703125 
L 19.921875 47.703125 
L 19.921875 0 
L 10.890625 0 
L 10.890625 47.703125 
L 2.296875 47.703125 
L 2.296875 54.6875 
L 10.890625 54.6875 
L 10.890625 58.5 
Q 10.890625 67.625 15.140625 71.796875 
Q 19.390625 75.984375 28.609375 75.984375 
z
" id="DejaVuSans-102"/>
      <path d="M 41.109375 46.296875 
Q 39.59375 47.171875 37.8125 47.578125 
Q 36.03125 48 33.890625 48 
Q 26.265625 48 22.1875 43.046875 
Q 18.109375 38.09375 18.109375 28.8125 
L 18.109375 0 
L 9.078125 0 
L 9.078125 54.6875 
L 18.109375 54.6875 
L 18.109375 46.1875 
Q 20.953125 51.171875 25.484375 53.578125 
Q 30.03125 56 36.53125 56 
Q 37.453125 56 38.578125 55.875 
Q 39.703125 55.765625 41.0625 55.515625 
z
" id="DejaVuSans-114"/>
      <path d="M 14.796875 27.296875 
Q 14.796875 17.390625 18.875 11.75 
Q 22.953125 6.109375 30.078125 6.109375 
Q 37.203125 6.109375 41.296875 11.75 
Q 45.40625 17.390625 45.40625 27.296875 
Q 45.40625 37.203125 41.296875 42.84375 
Q 37.203125 48.484375 30.078125 48.484375 
Q 22.953125 48.484375 18.875 42.84375 
Q 14.796875 37.203125 14.796875 27.296875 
z
M 45.40625 8.203125 
Q 42.578125 3.328125 38.25 0.953125 
Q 33.9375 -1.421875 27.875 -1.421875 
Q 17.96875 -1.421875 11.734375 6.484375 
Q 5.515625 14.40625 5.515625 27.296875 
Q 5.515625 40.1875 11.734375 48.09375 
Q 17.96875 56 27.875 56 
Q 33.9375 56 38.25 53.625 
Q 42.578125 51.265625 45.40625 46.390625 
L 45.40625 54.6875 
L 54.390625 54.6875 
L 54.390625 -20.796875 
L 45.40625 -20.796875 
z
" id="DejaVuSans-113"/>
      <path d="M 8.5 21.578125 
L 8.5 54.6875 
L 17.484375 54.6875 
L 17.484375 21.921875 
Q 17.484375 14.15625 20.5 10.265625 
Q 23.53125 6.390625 29.59375 6.390625 
Q 36.859375 6.390625 41.078125 11.03125 
Q 45.3125 15.671875 45.3125 23.6875 
L 45.3125 54.6875 
L 54.296875 54.6875 
L 54.296875 0 
L 45.3125 0 
L 45.3125 8.40625 
Q 42.046875 3.421875 37.71875 1 
Q 33.40625 -1.421875 27.6875 -1.421875 
Q 18.265625 -1.421875 13.375 4.4375 
Q 8.5 10.296875 8.5 21.578125 
z
M 31.109375 56 
z
" id="DejaVuSans-117"/>
      <path d="M 48.78125 52.59375 
L 48.78125 44.1875 
Q 44.96875 46.296875 41.140625 47.34375 
Q 37.3125 48.390625 33.40625 48.390625 
Q 24.65625 48.390625 19.8125 42.84375 
Q 14.984375 37.3125 14.984375 27.296875 
Q 14.984375 17.28125 19.8125 11.734375 
Q 24.65625 6.203125 33.40625 6.203125 
Q 37.3125 6.203125 41.140625 7.25 
Q 44.96875 8.296875 48.78125 10.40625 
L 48.78125 2.09375 
Q 45.015625 0.34375 40.984375 -0.53125 
Q 36.96875 -1.421875 32.421875 -1.421875 
Q 20.0625 -1.421875 12.78125 6.34375 
Q 5.515625 14.109375 5.515625 27.296875 
Q 5.515625 40.671875 12.859375 48.328125 
Q 20.21875 56 33.015625 56 
Q 37.15625 56 41.109375 55.140625 
Q 45.0625 54.296875 48.78125 52.59375 
z
" id="DejaVuSans-99"/>
      <path d="M 32.171875 -5.078125 
Q 28.375 -14.84375 24.75 -17.8125 
Q 21.140625 -20.796875 15.09375 -20.796875 
L 7.90625 -20.796875 
L 7.90625 -13.28125 
L 13.1875 -13.28125 
Q 16.890625 -13.28125 18.9375 -11.515625 
Q 21 -9.765625 23.484375 -3.21875 
L 25.09375 0.875 
L 2.984375 54.6875 
L 12.5 54.6875 
L 29.59375 11.921875 
L 46.6875 54.6875 
L 56.203125 54.6875 
z
" id="DejaVuSans-121"/>
      <path d="M -0.296875 72.90625 
L 61.375 72.90625 
L 61.375 64.59375 
L 35.5 64.59375 
L 35.5 0 
L 25.59375 0 
L 25.59375 64.59375 
L -0.296875 64.59375 
z
" id="DejaVuSans-84"/>
      <path d="M 9.8125 72.90625 
L 19.671875 72.90625 
L 19.671875 43.015625 
L 55.515625 43.015625 
L 55.515625 72.90625 
L 65.375 72.90625 
L 65.375 0 
L 55.515625 0 
L 55.515625 34.71875 
L 19.671875 34.71875 
L 19.671875 0 
L 9.8125 0 
z
" id="DejaVuSans-72"/>
      <path d="M 5.515625 54.6875 
L 48.1875 54.6875 
L 48.1875 46.484375 
L 14.40625 7.171875 
L 48.1875 7.171875 
L 48.1875 0 
L 4.296875 0 
L 4.296875 8.203125 
L 38.09375 47.515625 
L 5.515625 47.515625 
z
" id="DejaVuSans-122"/>
     </defs>
     <g transform="translate(160.48625 215.954)scale(0.16 -0.16)">
      <use xlink:href="#DejaVuSans-102"/>
      <use x="35.205078" xlink:href="#DejaVuSans-114"/>
      <use x="76.287109" xlink:href="#DejaVuSans-101"/>
      <use x="137.810547" xlink:href="#DejaVuSans-113"/>
      <use x="201.287109" xlink:href="#DejaVuSans-117"/>
      <use x="264.666016" xlink:href="#DejaVuSans-101"/>
      <use x="326.189453" xlink:href="#DejaVuSans-110"/>
      <use x="389.568359" xlink:href="#DejaVuSans-99"/>
      <use x="444.548828" xlink:href="#DejaVuSans-121"/>
      <use x="503.728516" xlink:href="#DejaVuSans-32"/>
      <use x="535.515625" xlink:href="#DejaVuSans-40"/>
      <use x="574.529297" xlink:href="#DejaVuSans-84"/>
      <use x="635.613281" xlink:href="#DejaVuSans-72"/>
      <use x="710.808594" xlink:href="#DejaVuSans-122"/>
      <use x="763.298828" xlink:href="#DejaVuSans-41"/>
     </g>
    </g>
   </g>
   <g id="matplotlib.axis_4">
    <g id="ytick_1">
     <g id="line2d_15">
      <path clip-path="url(#pdbb773a8ac)" d="M 57.2725 147.092293 
L 392.0725 147.092293 
" style="fill:none;stroke:#b0b0b0;stroke-dasharray:0.8,1.32;stroke-dashoffset:0;stroke-width:0.8;"/>
     </g>
     <g id="line2d_16">
      <defs>
       <path d="M 0 0 
L -3.5 0 
" id="mdb5a46abe5" style="stroke:#000000;stroke-width:0.8;"/>
      </defs>
      <g>
       <use style="stroke:#000000;stroke-width:0.8;" x="57.2725" xlink:href="#mdb5a46abe5" y="147.092293"/>
      </g>
     </g>
     <g id="text_10">
      <!-- −5 -->
      <defs>
       <path d="M 10.59375 35.5 
L 73.1875 35.5 
L 73.1875 27.203125 
L 10.59375 27.203125 
z
" id="DejaVuSans-8722"/>
      </defs>
      <g transform="translate(26.685 153.171043)scale(0.16 -0.16)">
       <use xlink:href="#DejaVuSans-8722"/>
       <use x="83.789062" xlink:href="#DejaVuSans-53"/>
      </g>
     </g>
    </g>
    <g id="ytick_2">
     <g id="line2d_17">
      <path clip-path="url(#pdbb773a8ac)" d="M 57.2725 102.848353 
L 392.0725 102.848353 
" style="fill:none;stroke:#b0b0b0;stroke-dasharray:0.8,1.32;stroke-dashoffset:0;stroke-width:0.8;"/>
     </g>
     <g id="line2d_18">
      <g>
       <use style="stroke:#000000;stroke-width:0.8;" x="57.2725" xlink:href="#mdb5a46abe5" y="102.848353"/>
      </g>
     </g>
     <g id="text_11">
      <!-- 0 -->
      <g transform="translate(40.0925 108.927103)scale(0.16 -0.16)">
       <use xlink:href="#DejaVuSans-48"/>
      </g>
     </g>
    </g>
    <g id="text_12">
     <!-- $D_\mathrm{int}/{2\pi}$ (GHz) -->
     <defs>
      <path d="M 16.890625 72.90625 
L 38.09375 72.90625 
Q 54.984375 72.90625 63.59375 65.75 
Q 72.21875 58.59375 72.21875 44.484375 
Q 72.21875 35.15625 68.9375 26.53125 
Q 65.671875 17.921875 59.90625 12.015625 
Q 54.109375 5.953125 45.171875 2.96875 
Q 36.234375 0 24.03125 0 
L 2.6875 0 
z
M 25.203125 64.796875 
L 14.203125 8.109375 
L 27.09375 8.109375 
Q 43.65625 8.109375 52.734375 17.625 
Q 61.8125 27.15625 61.8125 44.484375 
Q 61.8125 54.984375 55.953125 59.890625 
Q 50.09375 64.796875 37.59375 64.796875 
z
" id="DejaVuSans-Oblique-68"/>
      <path d="M 9.421875 54.6875 
L 18.40625 54.6875 
L 18.40625 0 
L 9.421875 0 
z
M 9.421875 75.984375 
L 18.40625 75.984375 
L 18.40625 64.59375 
L 9.421875 64.59375 
z
" id="DejaVuSans-105"/>
      <path d="M 25.390625 72.90625 
L 33.6875 72.90625 
L 8.296875 -9.28125 
L 0 -9.28125 
z
" id="DejaVuSans-47"/>
      <path d="M 9.125 54.6875 
L 61.53125 54.6875 
L 59.765625 45.703125 
L 52.875 45.703125 
L 46.34375 12.109375 
Q 45.65625 8.59375 46.578125 7.03125 
Q 47.46875 5.515625 50.140625 5.515625 
Q 50.875 5.515625 51.953125 5.671875 
Q 53.078125 5.765625 53.421875 5.8125 
L 52.15625 -0.6875 
Q 50.34375 -1.3125 48.484375 -1.609375 
Q 46.578125 -1.90625 44.78125 -1.90625 
Q 38.921875 -1.90625 37.3125 1.265625 
Q 35.6875 4.5 37.359375 13.09375 
L 43.703125 45.703125 
L 23.53125 45.703125 
L 14.65625 0 
L 5.46875 0 
L 14.359375 45.703125 
L 7.375 45.703125 
z
" id="DejaVuSans-Oblique-960"/>
      <path d="M 59.515625 10.40625 
L 59.515625 29.984375 
L 43.40625 29.984375 
L 43.40625 38.09375 
L 69.28125 38.09375 
L 69.28125 6.78125 
Q 63.578125 2.734375 56.6875 0.65625 
Q 49.8125 -1.421875 42 -1.421875 
Q 24.90625 -1.421875 15.25 8.5625 
Q 5.609375 18.5625 5.609375 36.375 
Q 5.609375 54.25 15.25 64.234375 
Q 24.90625 74.21875 42 74.21875 
Q 49.125 74.21875 55.546875 72.453125 
Q 61.96875 70.703125 67.390625 67.28125 
L 67.390625 56.78125 
Q 61.921875 61.421875 55.765625 63.765625 
Q 49.609375 66.109375 42.828125 66.109375 
Q 29.4375 66.109375 22.71875 58.640625 
Q 16.015625 51.171875 16.015625 36.375 
Q 16.015625 21.625 22.71875 14.15625 
Q 29.4375 6.6875 42.828125 6.6875 
Q 48.046875 6.6875 52.140625 7.59375 
Q 56.25 8.5 59.515625 10.40625 
z
" id="DejaVuSans-71"/>
     </defs>
     <g transform="translate(19.3575 173.3915)rotate(-90)scale(0.16 -0.16)">
      <use transform="translate(0 0.125)" xlink:href="#DejaVuSans-Oblique-68"/>
      <use transform="translate(77.001953 -16.28125)scale(0.7)" xlink:href="#DejaVuSans-105"/>
      <use transform="translate(96.450195 -16.28125)scale(0.7)" xlink:href="#DejaVuSans-110"/>
      <use transform="translate(140.81543 -16.28125)scale(0.7)" xlink:href="#DejaVuSans-116"/>
      <use transform="translate(170.996094 0.125)" xlink:href="#DejaVuSans-47"/>
      <use transform="translate(204.6875 0.125)" xlink:href="#DejaVuSans-50"/>
      <use transform="translate(268.310547 0.125)" xlink:href="#DejaVuSans-Oblique-960"/>
      <use transform="translate(328.515625 0.125)" xlink:href="#DejaVuSans-32"/>
      <use transform="translate(360.302734 0.125)" xlink:href="#DejaVuSans-40"/>
      <use transform="translate(399.316406 0.125)" xlink:href="#DejaVuSans-71"/>
      <use transform="translate(476.806641 0.125)" xlink:href="#DejaVuSans-72"/>
      <use transform="translate(552.001953 0.125)" xlink:href="#DejaVuSans-122"/>
      <use transform="translate(604.492188 0.125)" xlink:href="#DejaVuSans-41"/>
     </g>
    </g>
   </g>
   <g id="line2d_19">
    <defs>
     <path d="M 0 1.5 
C 0.397805 1.5 0.77937 1.341951 1.06066 1.06066 
C 1.341951 0.77937 1.5 0.397805 1.5 0 
C 1.5 -0.397805 1.341951 -0.77937 1.06066 -1.06066 
C 0.77937 -1.341951 0.397805 -1.5 0 -1.5 
C -0.397805 -1.5 -0.77937 -1.341951 -1.06066 -1.06066 
C -1.341951 -0.77937 -1.5 -0.397805 -1.5 0 
C -1.5 0.397805 -1.341951 0.77937 -1.06066 1.06066 
C -0.77937 1.341951 -0.397805 1.5 0 1.5 
z
" id="m4d2ab8bb25" style="stroke:#0000ff;"/>
    </defs>
    <g clip-path="url(#pdbb773a8ac)">
     <use style="fill:#0000ff;stroke:#0000ff;" x="72.490682" xlink:href="#m4d2ab8bb25" y="172.2715"/>
     <use style="fill:#0000ff;stroke:#0000ff;" x="73.97067" xlink:href="#m4d2ab8bb25" y="166.645428"/>
     <use style="fill:#0000ff;stroke:#0000ff;" x="75.437586" xlink:href="#m4d2ab8bb25" y="168.46743"/>
     <use style="fill:#0000ff;stroke:#0000ff;" x="76.911473" xlink:href="#m4d2ab8bb25" y="166.317483"/>
     <use style="fill:#0000ff;stroke:#0000ff;" x="78.382053" xlink:href="#m4d2ab8bb25" y="166.051526"/>
     <use style="fill:#0000ff;stroke:#0000ff;" x="79.859169" xlink:href="#m4d2ab8bb25" y="162.061688"/>
     <use style="fill:#0000ff;stroke:#0000ff;" x="81.33151" xlink:href="#m4d2ab8bb25" y="160.792837"/>
     <use style="fill:#0000ff;stroke:#0000ff;" x="82.802198" xlink:href="#m4d2ab8bb25" y="160.465365"/>
     <use style="fill:#0000ff;stroke:#0000ff;" x="84.280938" xlink:href="#m4d2ab8bb25" y="155.550525"/>
     <use style="fill:#0000ff;stroke:#0000ff;" x="85.755548" xlink:href="#m4d2ab8bb25" y="152.988732"/>
     <use style="fill:#0000ff;stroke:#0000ff;" x="87.232419" xlink:href="#m4d2ab8bb25" y="149.138868"/>
     <use style="fill:#0000ff;stroke:#0000ff;" x="88.709523" xlink:href="#m4d2ab8bb25" y="145.156241"/>
     <use style="fill:#0000ff;stroke:#0000ff;" x="90.175597" xlink:href="#m4d2ab8bb25" y="147.457109"/>
     <use style="fill:#0000ff;stroke:#0000ff;" x="91.649288" xlink:href="#m4d2ab8bb25" y="145.419075"/>
     <use style="fill:#0000ff;stroke:#0000ff;" x="93.12819" xlink:href="#m4d2ab8bb25" y="140.411877"/>
     <use style="fill:#0000ff;stroke:#0000ff;" x="94.600706" xlink:href="#m4d2ab8bb25" y="139.043268"/>
     <use style="fill:#0000ff;stroke:#0000ff;" x="96.077873" xlink:href="#m4d2ab8bb25" y="135.024518"/>
     <use style="fill:#0000ff;stroke:#0000ff;" x="97.552687" xlink:href="#m4d2ab8bb25" y="132.346407"/>
     <use style="fill:#0000ff;stroke:#0000ff;" x="99.019068" xlink:href="#m4d2ab8bb25" y="134.473212"/>
     <use style="fill:#0000ff;stroke:#0000ff;" x="100.493274" xlink:href="#m4d2ab8bb25" y="132.14119"/>
     <use style="fill:#0000ff;stroke:#0000ff;" x="101.96684" xlink:href="#m4d2ab8bb25" y="130.174055"/>
     <use style="fill:#0000ff;stroke:#0000ff;" x="103.442028" xlink:href="#m4d2ab8bb25" y="127.283303"/>
     <use style="fill:#0000ff;stroke:#0000ff;" x="104.917917" xlink:href="#m4d2ab8bb25" y="123.992407"/>
     <use style="fill:#0000ff;stroke:#0000ff;" x="106.39348" xlink:href="#m4d2ab8bb25" y="120.887638"/>
     <use style="fill:#0000ff;stroke:#0000ff;" x="107.870418" xlink:href="#m4d2ab8bb25" y="116.999692"/>
     <use style="fill:#0000ff;stroke:#0000ff;" x="109.341764" xlink:href="#m4d2ab8bb25" y="116.297337"/>
     <use style="fill:#0000ff;stroke:#0000ff;" x="110.815507" xlink:href="#m4d2ab8bb25" y="114.22981"/>
     <use style="fill:#0000ff;stroke:#0000ff;" x="112.281034" xlink:href="#m4d2ab8bb25" y="116.842374"/>
     <use style="fill:#0000ff;stroke:#0000ff;" x="113.753261" xlink:href="#m4d2ab8bb25" y="115.638093"/>
     <use style="fill:#0000ff;stroke:#0000ff;" x="115.223889" xlink:href="#m4d2ab8bb25" y="115.345143"/>
     <use style="fill:#0000ff;stroke:#0000ff;" x="116.698627" xlink:href="#m4d2ab8bb25" y="112.710352"/>
     <use style="fill:#0000ff;stroke:#0000ff;" x="118.178201" xlink:href="#m4d2ab8bb25" y="107.320267"/>
     <use style="fill:#0000ff;stroke:#0000ff;" x="119.646404" xlink:href="#m4d2ab8bb25" y="108.408821"/>
     <use style="fill:#0000ff;stroke:#0000ff;" x="121.120797" xlink:href="#m4d2ab8bb25" y="105.970718"/>
     <use style="fill:#0000ff;stroke:#0000ff;" x="122.591171" xlink:href="#m4d2ab8bb25" y="105.822241"/>
     <use style="fill:#0000ff;stroke:#0000ff;" x="124.066311" xlink:href="#m4d2ab8bb25" y="102.958481"/>
     <use style="fill:#0000ff;stroke:#0000ff;" x="125.546337" xlink:href="#m4d2ab8bb25" y="97.310979"/>
     <use style="fill:#0000ff;stroke:#0000ff;" x="127.012619" xlink:href="#m4d2ab8bb25" y="99.493576"/>
     <use style="fill:#0000ff;stroke:#0000ff;" x="128.487558" xlink:href="#m4d2ab8bb25" y="96.744567"/>
     <use style="fill:#0000ff;stroke:#0000ff;" x="129.9499" xlink:href="#m4d2ab8bb25" y="101.172104"/>
     <use style="fill:#0000ff;stroke:#0000ff;" x="131.420181" xlink:href="#m4d2ab8bb25" y="101.076488"/>
     <use style="fill:#0000ff;stroke:#0000ff;" x="132.896472" xlink:href="#m4d2ab8bb25" y="97.556941"/>
     <use style="fill:#0000ff;stroke:#0000ff;" x="134.360269" xlink:href="#m4d2ab8bb25" y="101.155715"/>
     <use style="fill:#0000ff;stroke:#0000ff;" x="135.839303" xlink:href="#m4d2ab8bb25" y="96.073287"/>
     <use style="fill:#0000ff;stroke:#0000ff;" x="137.31604" xlink:href="#m4d2ab8bb25" y="92.299752"/>
     <use style="fill:#0000ff;stroke:#0000ff;" x="138.783576" xlink:href="#m4d2ab8bb25" y="93.767911"/>
     <use style="fill:#0000ff;stroke:#0000ff;" x="140.256555" xlink:href="#m4d2ab8bb25" y="92.135456"/>
     <use style="fill:#0000ff;stroke:#0000ff;" x="141.730664" xlink:href="#m4d2ab8bb25" y="89.859082"/>
     <use style="fill:#0000ff;stroke:#0000ff;" x="143.205613" xlink:href="#m4d2ab8bb25" y="87.103995"/>
     <use style="fill:#0000ff;stroke:#0000ff;" x="144.66898" xlink:href="#m4d2ab8bb25" y="90.947443"/>
     <use style="fill:#0000ff;stroke:#0000ff;" x="146.140602" xlink:href="#m4d2ab8bb25" y="90.087911"/>
     <use style="fill:#0000ff;stroke:#0000ff;" x="147.611851" xlink:href="#m4d2ab8bb25" y="89.44125"/>
     <use style="fill:#0000ff;stroke:#0000ff;" x="149.077716" xlink:href="#m4d2ab8bb25" y="91.861413"/>
     <use style="fill:#0000ff;stroke:#0000ff;" x="150.54791" xlink:href="#m4d2ab8bb25" y="91.815871"/>
     <use style="fill:#0000ff;stroke:#0000ff;" x="152.024822" xlink:href="#m4d2ab8bb25" y="87.942551"/>
     <use style="fill:#0000ff;stroke:#0000ff;" x="153.502203" xlink:href="#m4d2ab8bb25" y="83.801746"/>
     <use style="fill:#0000ff;stroke:#0000ff;" x="154.970037" xlink:href="#m4d2ab8bb25" y="85.100164"/>
     <use style="fill:#0000ff;stroke:#0000ff;" x="156.448969" xlink:href="#m4d2ab8bb25" y="80.075917"/>
     <use style="fill:#0000ff;stroke:#0000ff;" x="157.925208" xlink:href="#m4d2ab8bb25" y="76.586116"/>
     <use style="fill:#0000ff;stroke:#0000ff;" x="159.388808" xlink:href="#m4d2ab8bb25" y="80.297304"/>
     <use style="fill:#0000ff;stroke:#0000ff;" x="160.861865" xlink:href="#m4d2ab8bb25" y="78.619754"/>
     <use style="fill:#0000ff;stroke:#0000ff;" x="162.328922" xlink:href="#m4d2ab8bb25" y="80.361541"/>
     <use style="fill:#0000ff;stroke:#0000ff;" x="163.793278" xlink:href="#m4d2ab8bb25" y="83.641675"/>
     <use style="fill:#0000ff;stroke:#0000ff;" x="165.261573" xlink:href="#m4d2ab8bb25" y="84.677158"/>
     <use style="fill:#0000ff;stroke:#0000ff;" x="166.739588" xlink:href="#m4d2ab8bb25" y="80.175495"/>
     <use style="fill:#0000ff;stroke:#0000ff;" x="168.207987" xlink:href="#m4d2ab8bb25" y="81.152209"/>
     <use style="fill:#0000ff;stroke:#0000ff;" x="169.682378" xlink:href="#m4d2ab8bb25" y="78.71546"/>
     <use style="fill:#0000ff;stroke:#0000ff;" x="171.144228" xlink:href="#m4d2ab8bb25" y="83.423214"/>
     <use style="fill:#0000ff;stroke:#0000ff;" x="172.620159" xlink:href="#m4d2ab8bb25" y="80.108859"/>
     <use style="fill:#0000ff;stroke:#0000ff;" x="174.087872" xlink:href="#m4d2ab8bb25" y="81.476462"/>
     <use style="fill:#0000ff;stroke:#0000ff;" x="175.554297" xlink:href="#m4d2ab8bb25" y="83.577425"/>
     <use style="fill:#0000ff;stroke:#0000ff;" x="177.027921" xlink:href="#m4d2ab8bb25" y="81.577373"/>
     <use style="fill:#0000ff;stroke:#0000ff;" x="178.496572" xlink:href="#m4d2ab8bb25" y="82.410656"/>
     <use style="fill:#0000ff;stroke:#0000ff;" x="179.968629" xlink:href="#m4d2ab8bb25" y="81.30331"/>
     <use style="fill:#0000ff;stroke:#0000ff;" x="181.44425" xlink:href="#m4d2ab8bb25" y="78.165638"/>
     <use style="fill:#0000ff;stroke:#0000ff;" x="182.916151" xlink:href="#m4d2ab8bb25" y="77.146994"/>
     <use style="fill:#0000ff;stroke:#0000ff;" x="184.381288" xlink:href="#m4d2ab8bb25" y="79.982285"/>
     <use style="fill:#0000ff;stroke:#0000ff;" x="185.846682" xlink:href="#m4d2ab8bb25" y="82.671236"/>
     <use style="fill:#0000ff;stroke:#0000ff;" x="187.312631" xlink:href="#m4d2ab8bb25" y="85.043709"/>
     <use style="fill:#0000ff;stroke:#0000ff;" x="188.799858" xlink:href="#m4d2ab8bb25" y="75.293597"/>
     <use style="fill:#0000ff;stroke:#0000ff;" x="190.268966" xlink:href="#m4d2ab8bb25" y="75.866143"/>
     <use style="fill:#0000ff;stroke:#0000ff;" x="191.737241" xlink:href="#m4d2ab8bb25" y="76.913733"/>
     <use style="fill:#0000ff;stroke:#0000ff;" x="193.202154" xlink:href="#m4d2ab8bb25" y="79.876329"/>
     <use style="fill:#0000ff;stroke:#0000ff;" x="194.681786" xlink:href="#m4d2ab8bb25" y="74.453518"/>
     <use style="fill:#0000ff;stroke:#0000ff;" x="196.148221" xlink:href="#m4d2ab8bb25" y="76.549343"/>
     <use style="fill:#0000ff;stroke:#0000ff;" x="197.624945" xlink:href="#m4d2ab8bb25" y="72.782761"/>
     <use style="fill:#0000ff;stroke:#0000ff;" x="199.092179" xlink:href="#m4d2ab8bb25" y="74.423326"/>
     <use style="fill:#0000ff;stroke:#0000ff;" x="200.561017" xlink:href="#m4d2ab8bb25" y="75.149998"/>
     <use style="fill:#0000ff;stroke:#0000ff;" x="202.029681" xlink:href="#m4d2ab8bb25" y="75.975572"/>
     <use style="fill:#0000ff;stroke:#0000ff;" x="203.503478" xlink:href="#m4d2ab8bb25" y="73.877319"/>
     <use style="fill:#0000ff;stroke:#0000ff;" x="204.9735" xlink:href="#m4d2ab8bb25" y="73.929235"/>
     <use style="fill:#0000ff;stroke:#0000ff;" x="206.445509" xlink:href="#m4d2ab8bb25" y="72.848966"/>
     <use style="fill:#0000ff;stroke:#0000ff;" x="207.912284" xlink:href="#m4d2ab8bb25" y="74.750925"/>
     <use style="fill:#0000ff;stroke:#0000ff;" x="209.381192" xlink:href="#m4d2ab8bb25" y="75.437828"/>
     <use style="fill:#0000ff;stroke:#0000ff;" x="210.848883" xlink:href="#m4d2ab8bb25" y="76.817669"/>
     <use style="fill:#0000ff;stroke:#0000ff;" x="212.316726" xlink:href="#m4d2ab8bb25" y="78.111435"/>
     <use style="fill:#0000ff;stroke:#0000ff;" x="213.794912" xlink:href="#m4d2ab8bb25" y="73.512397"/>
     <use style="fill:#0000ff;stroke:#0000ff;" x="215.26417" xlink:href="#m4d2ab8bb25" y="73.999768"/>
     <use style="fill:#0000ff;stroke:#0000ff;" x="216.732199" xlink:href="#m4d2ab8bb25" y="75.187326"/>
     <use style="fill:#0000ff;stroke:#0000ff;" x="218.205502" xlink:href="#m4d2ab8bb25" y="73.36962"/>
     <use style="fill:#0000ff;stroke:#0000ff;" x="219.674397" xlink:href="#m4d2ab8bb25" y="74.063902"/>
     <use style="fill:#0000ff;stroke:#0000ff;" x="221.142704" xlink:href="#m4d2ab8bb25" y="75.092905"/>
     <use style="fill:#0000ff;stroke:#0000ff;" x="222.603584" xlink:href="#m4d2ab8bb25" y="80.353564"/>
     <use style="fill:#0000ff;stroke:#0000ff;" x="224.07904" xlink:href="#m4d2ab8bb25" y="77.309707"/>
     <use style="fill:#0000ff;stroke:#0000ff;" x="225.538098" xlink:href="#m4d2ab8bb25" y="83.608418"/>
     <use style="fill:#0000ff;stroke:#0000ff;" x="227.020034" xlink:href="#m4d2ab8bb25" y="76.872555"/>
     <use style="fill:#0000ff;stroke:#0000ff;" x="228.487592" xlink:href="#m4d2ab8bb25" y="78.328584"/>
     <use style="fill:#0000ff;stroke:#0000ff;" x="229.957824" xlink:href="#m4d2ab8bb25" y="78.2611"/>
     <use style="fill:#0000ff;stroke:#0000ff;" x="231.438926" xlink:href="#m4d2ab8bb25" y="72.000725"/>
     <use style="fill:#0000ff;stroke:#0000ff;" x="232.909968" xlink:href="#m4d2ab8bb25" y="71.4715"/>
     <use style="fill:#0000ff;stroke:#0000ff;" x="234.370687" xlink:href="#m4d2ab8bb25" y="76.823843"/>
     <use style="fill:#0000ff;stroke:#0000ff;" x="235.84205" xlink:href="#m4d2ab8bb25" y="76.111769"/>
     <use style="fill:#0000ff;stroke:#0000ff;" x="237.314158" xlink:href="#m4d2ab8bb25" y="74.975299"/>
     <use style="fill:#0000ff;stroke:#0000ff;" x="238.774666" xlink:href="#m4d2ab8bb25" y="80.447871"/>
     <use style="fill:#0000ff;stroke:#0000ff;" x="240.242267" xlink:href="#m4d2ab8bb25" y="81.878855"/>
     <use style="fill:#0000ff;stroke:#0000ff;" x="241.719316" xlink:href="#m4d2ab8bb25" y="77.927929"/>
     <use style="fill:#0000ff;stroke:#0000ff;" x="243.18411" xlink:href="#m4d2ab8bb25" y="80.958469"/>
     <use style="fill:#0000ff;stroke:#0000ff;" x="244.654423" xlink:href="#m4d2ab8bb25" y="80.844741"/>
     <use style="fill:#0000ff;stroke:#0000ff;" x="246.119814" xlink:href="#m4d2ab8bb25" y="83.535303"/>
     <use style="fill:#0000ff;stroke:#0000ff;" x="247.595261" xlink:href="#m4d2ab8bb25" y="80.496445"/>
     <use style="fill:#0000ff;stroke:#0000ff;" x="249.06457" xlink:href="#m4d2ab8bb25" y="80.954391"/>
     <use style="fill:#0000ff;stroke:#0000ff;" x="250.536408" xlink:href="#m4d2ab8bb25" y="79.971946"/>
     <use style="fill:#0000ff;stroke:#0000ff;" x="252.005806" xlink:href="#m4d2ab8bb25" y="80.379828"/>
     <use style="fill:#0000ff;stroke:#0000ff;" x="253.470441" xlink:href="#m4d2ab8bb25" y="83.501031"/>
     <use style="fill:#0000ff;stroke:#0000ff;" x="254.936615" xlink:href="#m4d2ab8bb25" y="85.7453"/>
     <use style="fill:#0000ff;stroke:#0000ff;" x="256.399813" xlink:href="#m4d2ab8bb25" y="89.684717"/>
     <use style="fill:#0000ff;stroke:#0000ff;" x="257.8719" xlink:href="#m4d2ab8bb25" y="88.560715"/>
     <use style="fill:#0000ff;stroke:#0000ff;" x="259.341996" xlink:href="#m4d2ab8bb25" y="88.57044"/>
     <use style="fill:#0000ff;stroke:#0000ff;" x="260.808007" xlink:href="#m4d2ab8bb25" y="90.907875"/>
     <use style="fill:#0000ff;stroke:#0000ff;" x="262.283127" xlink:href="#m4d2ab8bb25" y="88.055221"/>
     <use style="fill:#0000ff;stroke:#0000ff;" x="263.763435" xlink:href="#m4d2ab8bb25" y="82.24719"/>
     <use style="fill:#0000ff;stroke:#0000ff;" x="265.22753" xlink:href="#m4d2ab8bb25" y="85.676119"/>
     <use style="fill:#0000ff;stroke:#0000ff;" x="266.687622" xlink:href="#m4d2ab8bb25" y="91.385586"/>
     <use style="fill:#0000ff;stroke:#0000ff;" x="268.165746" xlink:href="#m4d2ab8bb25" y="86.821786"/>
     <use style="fill:#0000ff;stroke:#0000ff;" x="269.636237" xlink:href="#m4d2ab8bb25" y="86.606628"/>
     <use style="fill:#0000ff;stroke:#0000ff;" x="271.102323" xlink:href="#m4d2ab8bb25" y="88.901077"/>
     <use style="fill:#0000ff;stroke:#0000ff;" x="272.575343" xlink:href="#m4d2ab8bb25" y="87.244884"/>
     <use style="fill:#0000ff;stroke:#0000ff;" x="274.035924" xlink:href="#m4d2ab8bb25" y="92.675943"/>
     <use style="fill:#0000ff;stroke:#0000ff;" x="275.504273" xlink:href="#m4d2ab8bb25" y="93.681233"/>
     <use style="fill:#0000ff;stroke:#0000ff;" x="276.976508" xlink:href="#m4d2ab8bb25" y="92.47207"/>
     <use style="fill:#0000ff;stroke:#0000ff;" x="278.443434" xlink:href="#m4d2ab8bb25" y="94.288137"/>
     <use style="fill:#0000ff;stroke:#0000ff;" x="279.906349" xlink:href="#m4d2ab8bb25" y="98.38936"/>
     <use style="fill:#0000ff;stroke:#0000ff;" x="281.378735" xlink:href="#m4d2ab8bb25" y="97.094333"/>
     <use style="fill:#0000ff;stroke:#0000ff;" x="282.849588" xlink:href="#m4d2ab8bb25" y="96.673397"/>
     <use style="fill:#0000ff;stroke:#0000ff;" x="284.316779" xlink:href="#m4d2ab8bb25" y="98.338284"/>
     <use style="fill:#0000ff;stroke:#0000ff;" x="285.783179" xlink:href="#m4d2ab8bb25" y="100.453514"/>
     <use style="fill:#0000ff;stroke:#0000ff;" x="287.259768" xlink:href="#m4d2ab8bb25" y="96.76425"/>
     <use style="fill:#0000ff;stroke:#0000ff;" x="288.727956" xlink:href="#m4d2ab8bb25" y="97.861396"/>
     <use style="fill:#0000ff;stroke:#0000ff;" x="290.192013" xlink:href="#m4d2ab8bb25" y="101.311691"/>
     <use style="fill:#0000ff;stroke:#0000ff;" x="291.667604" xlink:href="#m4d2ab8bb25" y="98.190982"/>
     <use style="fill:#0000ff;stroke:#0000ff;" x="293.137095" xlink:href="#m4d2ab8bb25" y="98.545475"/>
     <use style="fill:#0000ff;stroke:#0000ff;" x="294.5995" xlink:href="#m4d2ab8bb25" y="102.937083"/>
     <use style="fill:#0000ff;stroke:#0000ff;" x="296.081284" xlink:href="#m4d2ab8bb25" y="96.288027"/>
     <use style="fill:#0000ff;stroke:#0000ff;" x="297.549774" xlink:href="#m4d2ab8bb25" y="97.213327"/>
     <use style="fill:#0000ff;stroke:#0000ff;" x="299.012118" xlink:href="#m4d2ab8bb25" y="101.639646"/>
     <use style="fill:#0000ff;stroke:#0000ff;" x="300.4873" xlink:href="#m4d2ab8bb25" y="98.751718"/>
     <use style="fill:#0000ff;stroke:#0000ff;" x="301.950061" xlink:href="#m4d2ab8bb25" y="102.940374"/>
     <use style="fill:#0000ff;stroke:#0000ff;" x="303.420538" xlink:href="#m4d2ab8bb25" y="102.733659"/>
     <use style="fill:#0000ff;stroke:#0000ff;" x="304.893599" xlink:href="#m4d2ab8bb25" y="101.053955"/>
     <use style="fill:#0000ff;stroke:#0000ff;" x="306.361013" xlink:href="#m4d2ab8bb25" y="102.592239"/>
     <use style="fill:#0000ff;stroke:#0000ff;" x="307.823653" xlink:href="#m4d2ab8bb25" y="106.849691"/>
     <use style="fill:#0000ff;stroke:#0000ff;" x="309.279838" xlink:href="#m4d2ab8bb25" y="114.785077"/>
     <use style="fill:#0000ff;stroke:#0000ff;" x="310.757632" xlink:href="#m4d2ab8bb25" y="110.409299"/>
     <use style="fill:#0000ff;stroke:#0000ff;" x="312.230653" xlink:href="#m4d2ab8bb25" y="108.752588"/>
     <use style="fill:#0000ff;stroke:#0000ff;" x="313.707695" xlink:href="#m4d2ab8bb25" y="104.80537"/>
     <use style="fill:#0000ff;stroke:#0000ff;" x="315.170561" xlink:href="#m4d2ab8bb25" y="108.934504"/>
     <use style="fill:#0000ff;stroke:#0000ff;" x="316.640496" xlink:href="#m4d2ab8bb25" y="109.036234"/>
     <use style="fill:#0000ff;stroke:#0000ff;" x="318.115555" xlink:href="#m4d2ab8bb25" y="106.218596"/>
     <use style="fill:#0000ff;stroke:#0000ff;" x="319.577984" xlink:href="#m4d2ab8bb25" y="110.596456"/>
     <use style="fill:#0000ff;stroke:#0000ff;" x="321.051142" xlink:href="#m4d2ab8bb25" y="108.861565"/>
     <use style="fill:#0000ff;stroke:#0000ff;" x="322.506841" xlink:href="#m4d2ab8bb25" y="117.074156"/>
     <use style="fill:#0000ff;stroke:#0000ff;" x="323.976926" xlink:href="#m4d2ab8bb25" y="117.090287"/>
     <use style="fill:#0000ff;stroke:#0000ff;" x="325.447136" xlink:href="#m4d2ab8bb25" y="117.03489"/>
     <use style="fill:#0000ff;stroke:#0000ff;" x="326.922324" xlink:href="#m4d2ab8bb25" y="114.143717"/>
     <use style="fill:#0000ff;stroke:#0000ff;" x="328.394062" xlink:href="#m4d2ab8bb25" y="113.2183"/>
     <use style="fill:#0000ff;stroke:#0000ff;" x="329.868189" xlink:href="#m4d2ab8bb25" y="110.931466"/>
     <use style="fill:#0000ff;stroke:#0000ff;" x="331.335966" xlink:href="#m4d2ab8bb25" y="112.26262"/>
     <use style="fill:#0000ff;stroke:#0000ff;" x="332.808851" xlink:href="#m4d2ab8bb25" y="110.683814"/>
     <use style="fill:#0000ff;stroke:#0000ff;" x="334.281442" xlink:href="#m4d2ab8bb25" y="109.272328"/>
     <use style="fill:#0000ff;stroke:#0000ff;" x="335.747821" xlink:href="#m4d2ab8bb25" y="111.399952"/>
     <use style="fill:#0000ff;stroke:#0000ff;" x="337.213723" xlink:href="#m4d2ab8bb25" y="113.798869"/>
     <use style="fill:#0000ff;stroke:#0000ff;" x="338.671728" xlink:href="#m4d2ab8bb25" y="120.697536"/>
     <use style="fill:#0000ff;stroke:#0000ff;" x="340.14305" xlink:href="#m4d2ab8bb25" y="120.008998"/>
     <use style="fill:#0000ff;stroke:#0000ff;" x="341.604057" xlink:href="#m4d2ab8bb25" y="125.197197"/>
     <use style="fill:#0000ff;stroke:#0000ff;" x="343.078366" xlink:href="#m4d2ab8bb25" y="122.806527"/>
     <use style="fill:#0000ff;stroke:#0000ff;" x="344.541885" xlink:href="#m4d2ab8bb25" y="126.563446"/>
     <use style="fill:#0000ff;stroke:#0000ff;" x="346.002243" xlink:href="#m4d2ab8bb25" y="132.121299"/>
     <use style="fill:#0000ff;stroke:#0000ff;" x="347.483729" xlink:href="#m4d2ab8bb25" y="125.642325"/>
     <use style="fill:#0000ff;stroke:#0000ff;" x="348.948977" xlink:href="#m4d2ab8bb25" y="128.413923"/>
     <use style="fill:#0000ff;stroke:#0000ff;" x="350.418779" xlink:href="#m4d2ab8bb25" y="128.591718"/>
     <use style="fill:#0000ff;stroke:#0000ff;" x="351.888504" xlink:href="#m4d2ab8bb25" y="128.812773"/>
     <use style="fill:#0000ff;stroke:#0000ff;" x="353.350411" xlink:href="#m4d2ab8bb25" y="133.487953"/>
     <use style="fill:#0000ff;stroke:#0000ff;" x="354.816412" xlink:href="#m4d2ab8bb25" y="135.83135"/>
     <use style="fill:#0000ff;stroke:#0000ff;" x="356.283371" xlink:href="#m4d2ab8bb25" y="137.628534"/>
     <use style="fill:#0000ff;stroke:#0000ff;" x="357.765848" xlink:href="#m4d2ab8bb25" y="130.584688"/>
     <use style="fill:#0000ff;stroke:#0000ff;" x="359.225585" xlink:href="#m4d2ab8bb25" y="136.49614"/>
     <use style="fill:#0000ff;stroke:#0000ff;" x="360.694505" xlink:href="#m4d2ab8bb25" y="137.176041"/>
     <use style="fill:#0000ff;stroke:#0000ff;" x="362.170612" xlink:href="#m4d2ab8bb25" y="133.761329"/>
     <use style="fill:#0000ff;stroke:#0000ff;" x="363.648407" xlink:href="#m4d2ab8bb25" y="129.384653"/>
     <use style="fill:#0000ff;stroke:#0000ff;" x="365.114911" xlink:href="#m4d2ab8bb25" y="131.441302"/>
     <use style="fill:#0000ff;stroke:#0000ff;" x="366.577135" xlink:href="#m4d2ab8bb25" y="135.936105"/>
     <use style="fill:#0000ff;stroke:#0000ff;" x="368.054746" xlink:href="#m4d2ab8bb25" y="131.664688"/>
     <use style="fill:#0000ff;stroke:#0000ff;" x="369.517053" xlink:href="#m4d2ab8bb25" y="136.112099"/>
     <use style="fill:#0000ff;stroke:#0000ff;" x="370.97882" xlink:href="#m4d2ab8bb25" y="140.866868"/>
     <use style="fill:#0000ff;stroke:#0000ff;" x="372.447033" xlink:href="#m4d2ab8bb25" y="141.949775"/>
     <use style="fill:#0000ff;stroke:#0000ff;" x="373.917892" xlink:href="#m4d2ab8bb25" y="141.52519"/>
     <use style="fill:#0000ff;stroke:#0000ff;" x="375.390214" xlink:href="#m4d2ab8bb25" y="140.266836"/>
     <use style="fill:#0000ff;stroke:#0000ff;" x="376.854318" xlink:href="#m4d2ab8bb25" y="143.690201"/>
    </g>
   </g>
   <g id="line2d_20">
    <path clip-path="url(#pdbb773a8ac)" d="M 72.490682 170.984866 
L 78.382053 161.493914 
L 84.280938 152.580743 
L 88.709523 146.266779 
L 93.12819 140.26431 
L 97.552687 134.567547 
L 101.96684 129.170701 
L 106.39348 124.067985 
L 110.815507 119.25361 
L 115.223889 114.721787 
L 119.646404 110.466727 
L 124.066311 106.482643 
L 129.9499 101.582042 
L 134.360269 98.207722 
L 138.783576 95.085083 
L 143.205613 92.208334 
L 147.611851 89.571689 
L 152.024822 87.169358 
L 156.448969 84.995554 
L 160.861865 83.044487 
L 165.261573 81.310368 
L 169.682378 79.787411 
L 174.087872 78.469825 
L 178.496572 77.351823 
L 182.916151 76.427615 
L 187.312631 75.691414 
L 193.202154 74.992262 
L 197.624945 74.672231 
L 203.503478 74.506963 
L 209.381192 74.627906 
L 215.26417 75.021337 
L 221.142704 75.673537 
L 227.020034 76.570784 
L 232.909968 77.699358 
L 238.774666 79.045538 
L 244.654423 80.595602 
L 252.005806 82.798992 
L 259.341996 85.272714 
L 266.687622 87.98997 
L 274.035924 90.92396 
L 282.849588 94.693105 
L 293.137095 99.374345 
L 306.361013 105.729138 
L 326.922324 116.020664 
L 348.948977 127.005527 
L 360.694505 132.603192 
L 370.97882 137.239694 
L 376.854318 139.74969 
L 376.854318 139.74969 
" style="fill:none;stroke:#ff0000;stroke-dasharray:3.7,1.6;stroke-dashoffset:0;"/>
   </g>
   <g id="patch_5">
    <path d="M 57.2725 177.3115 
L 57.2725 66.4315 
" style="fill:none;stroke:#000000;stroke-linecap:square;stroke-linejoin:miter;stroke-width:0.8;"/>
   </g>
   <g id="patch_6">
    <path d="M 392.0725 177.3115 
L 392.0725 66.4315 
" style="fill:none;stroke:#000000;stroke-linecap:square;stroke-linejoin:miter;stroke-width:0.8;"/>
   </g>
   <g id="patch_7">
    <path d="M 57.2725 177.3115 
L 392.0725 177.3115 
" style="fill:none;stroke:#000000;stroke-linecap:square;stroke-linejoin:miter;stroke-width:0.8;"/>
   </g>
   <g id="patch_8">
    <path d="M 57.2725 66.4315 
L 392.0725 66.4315 
" style="fill:none;stroke:#000000;stroke-linecap:square;stroke-linejoin:miter;stroke-width:0.8;"/>
   </g>
   <g id="text_13">
    <!-- ligentec/191030-ligentec-gp1-dev4 -->
    <defs>
     <path d="M 40.578125 39.3125 
Q 47.65625 37.796875 51.625 33 
Q 55.609375 28.21875 55.609375 21.1875 
Q 55.609375 10.40625 48.1875 4.484375 
Q 40.765625 -1.421875 27.09375 -1.421875 
Q 22.515625 -1.421875 17.65625 -0.515625 
Q 12.796875 0.390625 7.625 2.203125 
L 7.625 11.71875 
Q 11.71875 9.328125 16.59375 8.109375 
Q 21.484375 6.890625 26.8125 6.890625 
Q 36.078125 6.890625 40.9375 10.546875 
Q 45.796875 14.203125 45.796875 21.1875 
Q 45.796875 27.640625 41.28125 31.265625 
Q 36.765625 34.90625 28.71875 34.90625 
L 20.21875 34.90625 
L 20.21875 43.015625 
L 29.109375 43.015625 
Q 36.375 43.015625 40.234375 45.921875 
Q 44.09375 48.828125 44.09375 54.296875 
Q 44.09375 59.90625 40.109375 62.90625 
Q 36.140625 65.921875 28.71875 65.921875 
Q 24.65625 65.921875 20.015625 65.03125 
Q 15.375 64.15625 9.8125 62.3125 
L 9.8125 71.09375 
Q 15.4375 72.65625 20.34375 73.4375 
Q 25.25 74.21875 29.59375 74.21875 
Q 40.828125 74.21875 47.359375 69.109375 
Q 53.90625 64.015625 53.90625 55.328125 
Q 53.90625 49.265625 50.4375 45.09375 
Q 46.96875 40.921875 40.578125 39.3125 
z
" id="DejaVuSans-51"/>
     <path d="M 4.890625 31.390625 
L 31.203125 31.390625 
L 31.203125 23.390625 
L 4.890625 23.390625 
z
" id="DejaVuSans-45"/>
     <path d="M 18.109375 8.203125 
L 18.109375 -20.796875 
L 9.078125 -20.796875 
L 9.078125 54.6875 
L 18.109375 54.6875 
L 18.109375 46.390625 
Q 20.953125 51.265625 25.265625 53.625 
Q 29.59375 56 35.59375 56 
Q 45.5625 56 51.78125 48.09375 
Q 58.015625 40.1875 58.015625 27.296875 
Q 58.015625 14.40625 51.78125 6.484375 
Q 45.5625 -1.421875 35.59375 -1.421875 
Q 29.59375 -1.421875 25.265625 0.953125 
Q 20.953125 3.328125 18.109375 8.203125 
z
M 48.6875 27.296875 
Q 48.6875 37.203125 44.609375 42.84375 
Q 40.53125 48.484375 33.40625 48.484375 
Q 26.265625 48.484375 22.1875 42.84375 
Q 18.109375 37.203125 18.109375 27.296875 
Q 18.109375 17.390625 22.1875 11.75 
Q 26.265625 6.109375 33.40625 6.109375 
Q 40.53125 6.109375 44.609375 11.75 
Q 48.6875 17.390625 48.6875 27.296875 
z
" id="DejaVuSans-112"/>
     <path d="M 45.40625 46.390625 
L 45.40625 75.984375 
L 54.390625 75.984375 
L 54.390625 0 
L 45.40625 0 
L 45.40625 8.203125 
Q 42.578125 3.328125 38.25 0.953125 
Q 33.9375 -1.421875 27.875 -1.421875 
Q 17.96875 -1.421875 11.734375 6.484375 
Q 5.515625 14.40625 5.515625 27.296875 
Q 5.515625 40.1875 11.734375 48.09375 
Q 17.96875 56 27.875 56 
Q 33.9375 56 38.25 53.625 
Q 42.578125 51.265625 45.40625 46.390625 
z
M 14.796875 27.296875 
Q 14.796875 17.390625 18.875 11.75 
Q 22.953125 6.109375 30.078125 6.109375 
Q 37.203125 6.109375 41.296875 11.75 
Q 45.40625 17.390625 45.40625 27.296875 
Q 45.40625 37.203125 41.296875 42.84375 
Q 37.203125 48.484375 30.078125 48.484375 
Q 22.953125 48.484375 18.875 42.84375 
Q 14.796875 37.203125 14.796875 27.296875 
z
" id="DejaVuSans-100"/>
     <path d="M 37.796875 64.3125 
L 12.890625 25.390625 
L 37.796875 25.390625 
z
M 35.203125 72.90625 
L 47.609375 72.90625 
L 47.609375 25.390625 
L 58.015625 25.390625 
L 58.015625 17.1875 
L 47.609375 17.1875 
L 47.609375 0 
L 37.796875 0 
L 37.796875 17.1875 
L 4.890625 17.1875 
L 4.890625 26.703125 
z
" id="DejaVuSans-52"/>
    </defs>
    <g transform="translate(55.5745 21.789)scale(0.192 -0.192)">
     <use xlink:href="#DejaVuSans-108"/>
     <use x="27.783203" xlink:href="#DejaVuSans-105"/>
     <use x="55.566406" xlink:href="#DejaVuSans-103"/>
     <use x="119.042969" xlink:href="#DejaVuSans-101"/>
     <use x="180.566406" xlink:href="#DejaVuSans-110"/>
     <use x="243.945312" xlink:href="#DejaVuSans-116"/>
     <use x="283.154297" xlink:href="#DejaVuSans-101"/>
     <use x="344.677734" xlink:href="#DejaVuSans-99"/>
     <use x="399.658203" xlink:href="#DejaVuSans-47"/>
     <use x="433.349609" xlink:href="#DejaVuSans-49"/>
     <use x="496.972656" xlink:href="#DejaVuSans-57"/>
     <use x="560.595703" xlink:href="#DejaVuSans-49"/>
     <use x="624.21875" xlink:href="#DejaVuSans-48"/>
     <use x="687.841797" xlink:href="#DejaVuSans-51"/>
     <use x="751.464844" xlink:href="#DejaVuSans-48"/>
     <use x="815.087891" xlink:href="#DejaVuSans-45"/>
     <use x="851.171875" xlink:href="#DejaVuSans-108"/>
     <use x="878.955078" xlink:href="#DejaVuSans-105"/>
     <use x="906.738281" xlink:href="#DejaVuSans-103"/>
     <use x="970.214844" xlink:href="#DejaVuSans-101"/>
     <use x="1031.738281" xlink:href="#DejaVuSans-110"/>
     <use x="1095.117188" xlink:href="#DejaVuSans-116"/>
     <use x="1134.326172" xlink:href="#DejaVuSans-101"/>
     <use x="1195.849609" xlink:href="#DejaVuSans-99"/>
     <use x="1250.830078" xlink:href="#DejaVuSans-45"/>
     <use x="1286.914062" xlink:href="#DejaVuSans-103"/>
     <use x="1350.390625" xlink:href="#DejaVuSans-112"/>
     <use x="1413.867188" xlink:href="#DejaVuSans-49"/>
     <use x="1477.490234" xlink:href="#DejaVuSans-45"/>
     <use x="1513.574219" xlink:href="#DejaVuSans-100"/>
     <use x="1577.050781" xlink:href="#DejaVuSans-101"/>
     <use x="1638.574219" xlink:href="#DejaVuSans-118"/>
     <use x="1697.753906" xlink:href="#DejaVuSans-52"/>
    </g>
   </g>
  </g>
 </g>
 <defs>
  <clipPath id="p23044c3a09">
   <rect height="0" width="334.8" x="57.2725" y="66.4315"/>
  </clipPath>
  <clipPath id="pdbb773a8ac">
   <rect height="110.88" width="334.8" x="57.2725" y="66.4315"/>
  </clipPath>
 </defs>
</svg>
