<?xml version="1.0" encoding="utf-8" standalone="no"?>
<!DOCTYPE svg PUBLIC "-//W3C//DTD SVG 1.1//EN"
  "http://www.w3.org/Graphics/SVG/1.1/DTD/svg11.dtd">
<!-- Created with matplotlib (https://matplotlib.org/) -->
<svg height="191.239375pt" version="1.1" viewBox="0 0 392.178461 191.239375" width="392.178461pt" xmlns="http://www.w3.org/2000/svg" xmlns:xlink="http://www.w3.org/1999/xlink">
 <defs>
  <style type="text/css">
*{stroke-linecap:butt;stroke-linejoin:round;white-space:pre;}
  </style>
 </defs>
 <g id="figure_1">
  <g id="patch_1">
   <path d="M 0 191.239375 
L 392.178461 191.239375 
L 392.178461 0 
L 0 0 
z
" style="fill:none;"/>
  </g>
  <g id="axes_1">
   <g id="patch_2">
    <path d="M 47.504375 149.811875 
L 382.304375 149.811875 
L 382.304375 38.931875 
L 47.504375 38.931875 
z
" style="fill:none;"/>
   </g>
   <g id="axes_2">
    <g id="patch_3">
     <path d="M 47.504375 38.931875 
L 382.304375 38.931875 
L 382.304375 38.931875 
L 47.504375 38.931875 
z
" style="fill:#ffffff;"/>
    </g>
    <g id="matplotlib.axis_1">
     <g id="xtick_1">
      <g id="line2d_1">
       <path clip-path="url(#p4c6bb81235)" d="M 368.776318 38.931875 
L 368.776318 38.931875 
" style="fill:none;stroke:#b0b0b0;stroke-dasharray:0.8,1.32;stroke-dashoffset:0;stroke-width:0.8;"/>
      </g>
      <g id="line2d_2">
       <defs>
        <path d="M 0 0 
L 0 -3.5 
" id="m24234f3b0e" style="stroke:#000000;stroke-width:0.8;"/>
       </defs>
       <g>
        <use style="stroke:#000000;stroke-width:0.8;" x="368.776318" xlink:href="#m24234f3b0e" y="38.931875"/>
       </g>
      </g>
      <g id="text_1">
       <!-- 1480 -->
       <defs>
        <path d="M 12.40625 8.296875 
L 28.515625 8.296875 
L 28.515625 63.921875 
L 10.984375 60.40625 
L 10.984375 69.390625 
L 28.421875 72.90625 
L 38.28125 72.90625 
L 38.28125 8.296875 
L 54.390625 8.296875 
L 54.390625 0 
L 12.40625 0 
z
" id="DejaVuSans-49"/>
        <path d="M 37.796875 64.3125 
L 12.890625 25.390625 
L 37.796875 25.390625 
z
M 35.203125 72.90625 
L 47.609375 72.90625 
L 47.609375 25.390625 
L 58.015625 25.390625 
L 58.015625 17.1875 
L 47.609375 17.1875 
L 47.609375 0 
L 37.796875 0 
L 37.796875 17.1875 
L 4.890625 17.1875 
L 4.890625 26.703125 
z
" id="DejaVuSans-52"/>
        <path d="M 31.78125 34.625 
Q 24.75 34.625 20.71875 30.859375 
Q 16.703125 27.09375 16.703125 20.515625 
Q 16.703125 13.921875 20.71875 10.15625 
Q 24.75 6.390625 31.78125 6.390625 
Q 38.8125 6.390625 42.859375 10.171875 
Q 46.921875 13.96875 46.921875 20.515625 
Q 46.921875 27.09375 42.890625 30.859375 
Q 38.875 34.625 31.78125 34.625 
z
M 21.921875 38.8125 
Q 15.578125 40.375 12.03125 44.71875 
Q 8.5 49.078125 8.5 55.328125 
Q 8.5 64.0625 14.71875 69.140625 
Q 20.953125 74.21875 31.78125 74.21875 
Q 42.671875 74.21875 48.875 69.140625 
Q 55.078125 64.0625 55.078125 55.328125 
Q 55.078125 49.078125 51.53125 44.71875 
Q 48 40.375 41.703125 38.8125 
Q 48.828125 37.15625 52.796875 32.3125 
Q 56.78125 27.484375 56.78125 20.515625 
Q 56.78125 9.90625 50.3125 4.234375 
Q 43.84375 -1.421875 31.78125 -1.421875 
Q 19.734375 -1.421875 13.25 4.234375 
Q 6.78125 9.90625 6.78125 20.515625 
Q 6.78125 27.484375 10.78125 32.3125 
Q 14.796875 37.15625 21.921875 38.8125 
z
M 18.3125 54.390625 
Q 18.3125 48.734375 21.84375 45.5625 
Q 25.390625 42.390625 31.78125 42.390625 
Q 38.140625 42.390625 41.71875 45.5625 
Q 45.3125 48.734375 45.3125 54.390625 
Q 45.3125 60.0625 41.71875 63.234375 
Q 38.140625 66.40625 31.78125 66.40625 
Q 25.390625 66.40625 21.84375 63.234375 
Q 18.3125 60.0625 18.3125 54.390625 
z
" id="DejaVuSans-56"/>
        <path d="M 31.78125 66.40625 
Q 24.171875 66.40625 20.328125 58.90625 
Q 16.5 51.421875 16.5 36.375 
Q 16.5 21.390625 20.328125 13.890625 
Q 24.171875 6.390625 31.78125 6.390625 
Q 39.453125 6.390625 43.28125 13.890625 
Q 47.125 21.390625 47.125 36.375 
Q 47.125 51.421875 43.28125 58.90625 
Q 39.453125 66.40625 31.78125 66.40625 
z
M 31.78125 74.21875 
Q 44.046875 74.21875 50.515625 64.515625 
Q 56.984375 54.828125 56.984375 36.375 
Q 56.984375 17.96875 50.515625 8.265625 
Q 44.046875 -1.421875 31.78125 -1.421875 
Q 19.53125 -1.421875 13.0625 8.265625 
Q 6.59375 17.96875 6.59375 36.375 
Q 6.59375 54.828125 13.0625 64.515625 
Q 19.53125 74.21875 31.78125 74.21875 
z
" id="DejaVuSans-48"/>
       </defs>
       <g transform="translate(353.506318 29.43625)scale(0.12 -0.12)">
        <use xlink:href="#DejaVuSans-49"/>
        <use x="63.623047" xlink:href="#DejaVuSans-52"/>
        <use x="127.246094" xlink:href="#DejaVuSans-56"/>
        <use x="190.869141" xlink:href="#DejaVuSans-48"/>
       </g>
      </g>
     </g>
     <g id="xtick_2">
      <g id="line2d_3">
       <path clip-path="url(#p4c6bb81235)" d="M 326.825362 38.931875 
L 326.825362 38.931875 
" style="fill:none;stroke:#b0b0b0;stroke-dasharray:0.8,1.32;stroke-dashoffset:0;stroke-width:0.8;"/>
      </g>
      <g id="line2d_4">
       <g>
        <use style="stroke:#000000;stroke-width:0.8;" x="326.825362" xlink:href="#m24234f3b0e" y="38.931875"/>
       </g>
      </g>
      <g id="text_2">
       <!-- 1500 -->
       <defs>
        <path d="M 10.796875 72.90625 
L 49.515625 72.90625 
L 49.515625 64.59375 
L 19.828125 64.59375 
L 19.828125 46.734375 
Q 21.96875 47.46875 24.109375 47.828125 
Q 26.265625 48.1875 28.421875 48.1875 
Q 40.625 48.1875 47.75 41.5 
Q 54.890625 34.8125 54.890625 23.390625 
Q 54.890625 11.625 47.5625 5.09375 
Q 40.234375 -1.421875 26.90625 -1.421875 
Q 22.3125 -1.421875 17.546875 -0.640625 
Q 12.796875 0.140625 7.71875 1.703125 
L 7.71875 11.625 
Q 12.109375 9.234375 16.796875 8.0625 
Q 21.484375 6.890625 26.703125 6.890625 
Q 35.15625 6.890625 40.078125 11.328125 
Q 45.015625 15.765625 45.015625 23.390625 
Q 45.015625 31 40.078125 35.4375 
Q 35.15625 39.890625 26.703125 39.890625 
Q 22.75 39.890625 18.8125 39.015625 
Q 14.890625 38.140625 10.796875 36.28125 
z
" id="DejaVuSans-53"/>
       </defs>
       <g transform="translate(311.555362 29.43625)scale(0.12 -0.12)">
        <use xlink:href="#DejaVuSans-49"/>
        <use x="63.623047" xlink:href="#DejaVuSans-53"/>
        <use x="127.246094" xlink:href="#DejaVuSans-48"/>
        <use x="190.869141" xlink:href="#DejaVuSans-48"/>
       </g>
      </g>
     </g>
     <g id="xtick_3">
      <g id="line2d_5">
       <path clip-path="url(#p4c6bb81235)" d="M 285.977153 38.931875 
L 285.977153 38.931875 
" style="fill:none;stroke:#b0b0b0;stroke-dasharray:0.8,1.32;stroke-dashoffset:0;stroke-width:0.8;"/>
      </g>
      <g id="line2d_6">
       <g>
        <use style="stroke:#000000;stroke-width:0.8;" x="285.977153" xlink:href="#m24234f3b0e" y="38.931875"/>
       </g>
      </g>
      <g id="text_3">
       <!-- 1520 -->
       <defs>
        <path d="M 19.1875 8.296875 
L 53.609375 8.296875 
L 53.609375 0 
L 7.328125 0 
L 7.328125 8.296875 
Q 12.9375 14.109375 22.625 23.890625 
Q 32.328125 33.6875 34.8125 36.53125 
Q 39.546875 41.84375 41.421875 45.53125 
Q 43.3125 49.21875 43.3125 52.78125 
Q 43.3125 58.59375 39.234375 62.25 
Q 35.15625 65.921875 28.609375 65.921875 
Q 23.96875 65.921875 18.8125 64.3125 
Q 13.671875 62.703125 7.8125 59.421875 
L 7.8125 69.390625 
Q 13.765625 71.78125 18.9375 73 
Q 24.125 74.21875 28.421875 74.21875 
Q 39.75 74.21875 46.484375 68.546875 
Q 53.21875 62.890625 53.21875 53.421875 
Q 53.21875 48.921875 51.53125 44.890625 
Q 49.859375 40.875 45.40625 35.40625 
Q 44.1875 33.984375 37.640625 27.21875 
Q 31.109375 20.453125 19.1875 8.296875 
z
" id="DejaVuSans-50"/>
       </defs>
       <g transform="translate(270.707153 29.43625)scale(0.12 -0.12)">
        <use xlink:href="#DejaVuSans-49"/>
        <use x="63.623047" xlink:href="#DejaVuSans-53"/>
        <use x="127.246094" xlink:href="#DejaVuSans-50"/>
        <use x="190.869141" xlink:href="#DejaVuSans-48"/>
       </g>
      </g>
     </g>
     <g id="xtick_4">
      <g id="line2d_7">
       <path clip-path="url(#p4c6bb81235)" d="M 246.200627 38.931875 
L 246.200627 38.931875 
" style="fill:none;stroke:#b0b0b0;stroke-dasharray:0.8,1.32;stroke-dashoffset:0;stroke-width:0.8;"/>
      </g>
      <g id="line2d_8">
       <g>
        <use style="stroke:#000000;stroke-width:0.8;" x="246.200627" xlink:href="#m24234f3b0e" y="38.931875"/>
       </g>
      </g>
      <g id="text_4">
       <!-- 1540 -->
       <g transform="translate(230.930627 29.43625)scale(0.12 -0.12)">
        <use xlink:href="#DejaVuSans-49"/>
        <use x="63.623047" xlink:href="#DejaVuSans-53"/>
        <use x="127.246094" xlink:href="#DejaVuSans-52"/>
        <use x="190.869141" xlink:href="#DejaVuSans-48"/>
       </g>
      </g>
     </g>
     <g id="xtick_5">
      <g id="line2d_9">
       <path clip-path="url(#p4c6bb81235)" d="M 207.433657 38.931875 
L 207.433657 38.931875 
" style="fill:none;stroke:#b0b0b0;stroke-dasharray:0.8,1.32;stroke-dashoffset:0;stroke-width:0.8;"/>
      </g>
      <g id="line2d_10">
       <g>
        <use style="stroke:#000000;stroke-width:0.8;" x="207.433657" xlink:href="#m24234f3b0e" y="38.931875"/>
       </g>
      </g>
      <g id="text_5">
       <!-- 1560 -->
       <defs>
        <path d="M 33.015625 40.375 
Q 26.375 40.375 22.484375 35.828125 
Q 18.609375 31.296875 18.609375 23.390625 
Q 18.609375 15.53125 22.484375 10.953125 
Q 26.375 6.390625 33.015625 6.390625 
Q 39.65625 6.390625 43.53125 10.953125 
Q 47.40625 15.53125 47.40625 23.390625 
Q 47.40625 31.296875 43.53125 35.828125 
Q 39.65625 40.375 33.015625 40.375 
z
M 52.59375 71.296875 
L 52.59375 62.3125 
Q 48.875 64.0625 45.09375 64.984375 
Q 41.3125 65.921875 37.59375 65.921875 
Q 27.828125 65.921875 22.671875 59.328125 
Q 17.53125 52.734375 16.796875 39.40625 
Q 19.671875 43.65625 24.015625 45.921875 
Q 28.375 48.1875 33.59375 48.1875 
Q 44.578125 48.1875 50.953125 41.515625 
Q 57.328125 34.859375 57.328125 23.390625 
Q 57.328125 12.15625 50.6875 5.359375 
Q 44.046875 -1.421875 33.015625 -1.421875 
Q 20.359375 -1.421875 13.671875 8.265625 
Q 6.984375 17.96875 6.984375 36.375 
Q 6.984375 53.65625 15.1875 63.9375 
Q 23.390625 74.21875 37.203125 74.21875 
Q 40.921875 74.21875 44.703125 73.484375 
Q 48.484375 72.75 52.59375 71.296875 
z
" id="DejaVuSans-54"/>
       </defs>
       <g transform="translate(192.163657 29.43625)scale(0.12 -0.12)">
        <use xlink:href="#DejaVuSans-49"/>
        <use x="63.623047" xlink:href="#DejaVuSans-53"/>
        <use x="127.246094" xlink:href="#DejaVuSans-54"/>
        <use x="190.869141" xlink:href="#DejaVuSans-48"/>
       </g>
      </g>
     </g>
     <g id="xtick_6">
      <g id="line2d_11">
       <path clip-path="url(#p4c6bb81235)" d="M 169.660712 38.931875 
L 169.660712 38.931875 
" style="fill:none;stroke:#b0b0b0;stroke-dasharray:0.8,1.32;stroke-dashoffset:0;stroke-width:0.8;"/>
      </g>
      <g id="line2d_12">
       <g>
        <use style="stroke:#000000;stroke-width:0.8;" x="169.660712" xlink:href="#m24234f3b0e" y="38.931875"/>
       </g>
      </g>
      <g id="text_6">
       <!-- 1580 -->
       <g transform="translate(154.390712 29.43625)scale(0.12 -0.12)">
        <use xlink:href="#DejaVuSans-49"/>
        <use x="63.623047" xlink:href="#DejaVuSans-53"/>
        <use x="127.246094" xlink:href="#DejaVuSans-56"/>
        <use x="190.869141" xlink:href="#DejaVuSans-48"/>
       </g>
      </g>
     </g>
     <g id="xtick_7">
      <g id="line2d_13">
       <path clip-path="url(#p4c6bb81235)" d="M 132.819665 38.931875 
L 132.819665 38.931875 
" style="fill:none;stroke:#b0b0b0;stroke-dasharray:0.8,1.32;stroke-dashoffset:0;stroke-width:0.8;"/>
      </g>
      <g id="line2d_14">
       <g>
        <use style="stroke:#000000;stroke-width:0.8;" x="132.819665" xlink:href="#m24234f3b0e" y="38.931875"/>
       </g>
      </g>
      <g id="text_7">
       <!-- 1600 -->
       <g transform="translate(117.549665 29.43625)scale(0.12 -0.12)">
        <use xlink:href="#DejaVuSans-49"/>
        <use x="63.623047" xlink:href="#DejaVuSans-54"/>
        <use x="127.246094" xlink:href="#DejaVuSans-48"/>
        <use x="190.869141" xlink:href="#DejaVuSans-48"/>
       </g>
      </g>
     </g>
     <g id="xtick_8">
      <g id="line2d_15">
       <path clip-path="url(#p4c6bb81235)" d="M 96.894986 38.931875 
L 96.894986 38.931875 
" style="fill:none;stroke:#b0b0b0;stroke-dasharray:0.8,1.32;stroke-dashoffset:0;stroke-width:0.8;"/>
      </g>
      <g id="line2d_16">
       <g>
        <use style="stroke:#000000;stroke-width:0.8;" x="96.894986" xlink:href="#m24234f3b0e" y="38.931875"/>
       </g>
      </g>
      <g id="text_8">
       <!-- 1620 -->
       <g transform="translate(81.624986 29.43625)scale(0.12 -0.12)">
        <use xlink:href="#DejaVuSans-49"/>
        <use x="63.623047" xlink:href="#DejaVuSans-54"/>
        <use x="127.246094" xlink:href="#DejaVuSans-50"/>
        <use x="190.869141" xlink:href="#DejaVuSans-48"/>
       </g>
      </g>
     </g>
     <g id="xtick_9">
      <g id="line2d_17">
       <path clip-path="url(#p4c6bb81235)" d="M 61.840077 38.931875 
L 61.840077 38.931875 
" style="fill:none;stroke:#b0b0b0;stroke-dasharray:0.8,1.32;stroke-dashoffset:0;stroke-width:0.8;"/>
      </g>
      <g id="line2d_18">
       <g>
        <use style="stroke:#000000;stroke-width:0.8;" x="61.840077" xlink:href="#m24234f3b0e" y="38.931875"/>
       </g>
      </g>
      <g id="text_9">
       <!-- 1640 -->
       <g transform="translate(46.570077 29.43625)scale(0.12 -0.12)">
        <use xlink:href="#DejaVuSans-49"/>
        <use x="63.623047" xlink:href="#DejaVuSans-54"/>
        <use x="127.246094" xlink:href="#DejaVuSans-52"/>
        <use x="190.869141" xlink:href="#DejaVuSans-48"/>
       </g>
      </g>
     </g>
     <g id="text_10">
      <!-- wavelength (nm) -->
      <defs>
       <path d="M 4.203125 54.6875 
L 13.1875 54.6875 
L 24.421875 12.015625 
L 35.59375 54.6875 
L 46.1875 54.6875 
L 57.421875 12.015625 
L 68.609375 54.6875 
L 77.59375 54.6875 
L 63.28125 0 
L 52.6875 0 
L 40.921875 44.828125 
L 29.109375 0 
L 18.5 0 
z
" id="DejaVuSans-119"/>
       <path d="M 34.28125 27.484375 
Q 23.390625 27.484375 19.1875 25 
Q 14.984375 22.515625 14.984375 16.5 
Q 14.984375 11.71875 18.140625 8.90625 
Q 21.296875 6.109375 26.703125 6.109375 
Q 34.1875 6.109375 38.703125 11.40625 
Q 43.21875 16.703125 43.21875 25.484375 
L 43.21875 27.484375 
z
M 52.203125 31.203125 
L 52.203125 0 
L 43.21875 0 
L 43.21875 8.296875 
Q 40.140625 3.328125 35.546875 0.953125 
Q 30.953125 -1.421875 24.3125 -1.421875 
Q 15.921875 -1.421875 10.953125 3.296875 
Q 6 8.015625 6 15.921875 
Q 6 25.140625 12.171875 29.828125 
Q 18.359375 34.515625 30.609375 34.515625 
L 43.21875 34.515625 
L 43.21875 35.40625 
Q 43.21875 41.609375 39.140625 45 
Q 35.0625 48.390625 27.6875 48.390625 
Q 23 48.390625 18.546875 47.265625 
Q 14.109375 46.140625 10.015625 43.890625 
L 10.015625 52.203125 
Q 14.9375 54.109375 19.578125 55.046875 
Q 24.21875 56 28.609375 56 
Q 40.484375 56 46.34375 49.84375 
Q 52.203125 43.703125 52.203125 31.203125 
z
" id="DejaVuSans-97"/>
       <path d="M 2.984375 54.6875 
L 12.5 54.6875 
L 29.59375 8.796875 
L 46.6875 54.6875 
L 56.203125 54.6875 
L 35.6875 0 
L 23.484375 0 
z
" id="DejaVuSans-118"/>
       <path d="M 56.203125 29.59375 
L 56.203125 25.203125 
L 14.890625 25.203125 
Q 15.484375 15.921875 20.484375 11.0625 
Q 25.484375 6.203125 34.421875 6.203125 
Q 39.59375 6.203125 44.453125 7.46875 
Q 49.3125 8.734375 54.109375 11.28125 
L 54.109375 2.78125 
Q 49.265625 0.734375 44.1875 -0.34375 
Q 39.109375 -1.421875 33.890625 -1.421875 
Q 20.796875 -1.421875 13.15625 6.1875 
Q 5.515625 13.8125 5.515625 26.8125 
Q 5.515625 40.234375 12.765625 48.109375 
Q 20.015625 56 32.328125 56 
Q 43.359375 56 49.78125 48.890625 
Q 56.203125 41.796875 56.203125 29.59375 
z
M 47.21875 32.234375 
Q 47.125 39.59375 43.09375 43.984375 
Q 39.0625 48.390625 32.421875 48.390625 
Q 24.90625 48.390625 20.390625 44.140625 
Q 15.875 39.890625 15.1875 32.171875 
z
" id="DejaVuSans-101"/>
       <path d="M 9.421875 75.984375 
L 18.40625 75.984375 
L 18.40625 0 
L 9.421875 0 
z
" id="DejaVuSans-108"/>
       <path d="M 54.890625 33.015625 
L 54.890625 0 
L 45.90625 0 
L 45.90625 32.71875 
Q 45.90625 40.484375 42.875 44.328125 
Q 39.84375 48.1875 33.796875 48.1875 
Q 26.515625 48.1875 22.3125 43.546875 
Q 18.109375 38.921875 18.109375 30.90625 
L 18.109375 0 
L 9.078125 0 
L 9.078125 54.6875 
L 18.109375 54.6875 
L 18.109375 46.1875 
Q 21.34375 51.125 25.703125 53.5625 
Q 30.078125 56 35.796875 56 
Q 45.21875 56 50.046875 50.171875 
Q 54.890625 44.34375 54.890625 33.015625 
z
" id="DejaVuSans-110"/>
       <path d="M 45.40625 27.984375 
Q 45.40625 37.75 41.375 43.109375 
Q 37.359375 48.484375 30.078125 48.484375 
Q 22.859375 48.484375 18.828125 43.109375 
Q 14.796875 37.75 14.796875 27.984375 
Q 14.796875 18.265625 18.828125 12.890625 
Q 22.859375 7.515625 30.078125 7.515625 
Q 37.359375 7.515625 41.375 12.890625 
Q 45.40625 18.265625 45.40625 27.984375 
z
M 54.390625 6.78125 
Q 54.390625 -7.171875 48.1875 -13.984375 
Q 42 -20.796875 29.203125 -20.796875 
Q 24.46875 -20.796875 20.265625 -20.09375 
Q 16.0625 -19.390625 12.109375 -17.921875 
L 12.109375 -9.1875 
Q 16.0625 -11.328125 19.921875 -12.34375 
Q 23.78125 -13.375 27.78125 -13.375 
Q 36.625 -13.375 41.015625 -8.765625 
Q 45.40625 -4.15625 45.40625 5.171875 
L 45.40625 9.625 
Q 42.625 4.78125 38.28125 2.390625 
Q 33.9375 0 27.875 0 
Q 17.828125 0 11.671875 7.65625 
Q 5.515625 15.328125 5.515625 27.984375 
Q 5.515625 40.671875 11.671875 48.328125 
Q 17.828125 56 27.875 56 
Q 33.9375 56 38.28125 53.609375 
Q 42.625 51.21875 45.40625 46.390625 
L 45.40625 54.6875 
L 54.390625 54.6875 
z
" id="DejaVuSans-103"/>
       <path d="M 18.3125 70.21875 
L 18.3125 54.6875 
L 36.8125 54.6875 
L 36.8125 47.703125 
L 18.3125 47.703125 
L 18.3125 18.015625 
Q 18.3125 11.328125 20.140625 9.421875 
Q 21.96875 7.515625 27.59375 7.515625 
L 36.8125 7.515625 
L 36.8125 0 
L 27.59375 0 
Q 17.1875 0 13.234375 3.875 
Q 9.28125 7.765625 9.28125 18.015625 
L 9.28125 47.703125 
L 2.6875 47.703125 
L 2.6875 54.6875 
L 9.28125 54.6875 
L 9.28125 70.21875 
z
" id="DejaVuSans-116"/>
       <path d="M 54.890625 33.015625 
L 54.890625 0 
L 45.90625 0 
L 45.90625 32.71875 
Q 45.90625 40.484375 42.875 44.328125 
Q 39.84375 48.1875 33.796875 48.1875 
Q 26.515625 48.1875 22.3125 43.546875 
Q 18.109375 38.921875 18.109375 30.90625 
L 18.109375 0 
L 9.078125 0 
L 9.078125 75.984375 
L 18.109375 75.984375 
L 18.109375 46.1875 
Q 21.34375 51.125 25.703125 53.5625 
Q 30.078125 56 35.796875 56 
Q 45.21875 56 50.046875 50.171875 
Q 54.890625 44.34375 54.890625 33.015625 
z
" id="DejaVuSans-104"/>
       <path id="DejaVuSans-32"/>
       <path d="M 31 75.875 
Q 24.46875 64.65625 21.28125 53.65625 
Q 18.109375 42.671875 18.109375 31.390625 
Q 18.109375 20.125 21.3125 9.0625 
Q 24.515625 -2 31 -13.1875 
L 23.1875 -13.1875 
Q 15.875 -1.703125 12.234375 9.375 
Q 8.59375 20.453125 8.59375 31.390625 
Q 8.59375 42.28125 12.203125 53.3125 
Q 15.828125 64.359375 23.1875 75.875 
z
" id="DejaVuSans-40"/>
       <path d="M 52 44.1875 
Q 55.375 50.25 60.0625 53.125 
Q 64.75 56 71.09375 56 
Q 79.640625 56 84.28125 50.015625 
Q 88.921875 44.046875 88.921875 33.015625 
L 88.921875 0 
L 79.890625 0 
L 79.890625 32.71875 
Q 79.890625 40.578125 77.09375 44.375 
Q 74.3125 48.1875 68.609375 48.1875 
Q 61.625 48.1875 57.5625 43.546875 
Q 53.515625 38.921875 53.515625 30.90625 
L 53.515625 0 
L 44.484375 0 
L 44.484375 32.71875 
Q 44.484375 40.625 41.703125 44.40625 
Q 38.921875 48.1875 33.109375 48.1875 
Q 26.21875 48.1875 22.15625 43.53125 
Q 18.109375 38.875 18.109375 30.90625 
L 18.109375 0 
L 9.078125 0 
L 9.078125 54.6875 
L 18.109375 54.6875 
L 18.109375 46.1875 
Q 21.1875 51.21875 25.484375 53.609375 
Q 29.78125 56 35.6875 56 
Q 41.65625 56 45.828125 52.96875 
Q 50 49.953125 52 44.1875 
z
" id="DejaVuSans-109"/>
       <path d="M 8.015625 75.875 
L 15.828125 75.875 
Q 23.140625 64.359375 26.78125 53.3125 
Q 30.421875 42.28125 30.421875 31.390625 
Q 30.421875 20.453125 26.78125 9.375 
Q 23.140625 -1.703125 15.828125 -13.1875 
L 8.015625 -13.1875 
Q 14.5 -2 17.703125 9.0625 
Q 20.90625 20.125 20.90625 31.390625 
Q 20.90625 42.671875 17.703125 53.65625 
Q 14.5 64.65625 8.015625 75.875 
z
" id="DejaVuSans-41"/>
      </defs>
      <g transform="translate(163.716875 16.318125)scale(0.12 -0.12)">
       <use xlink:href="#DejaVuSans-119"/>
       <use x="81.787109" xlink:href="#DejaVuSans-97"/>
       <use x="143.066406" xlink:href="#DejaVuSans-118"/>
       <use x="202.246094" xlink:href="#DejaVuSans-101"/>
       <use x="263.769531" xlink:href="#DejaVuSans-108"/>
       <use x="291.552734" xlink:href="#DejaVuSans-101"/>
       <use x="353.076172" xlink:href="#DejaVuSans-110"/>
       <use x="416.455078" xlink:href="#DejaVuSans-103"/>
       <use x="479.931641" xlink:href="#DejaVuSans-116"/>
       <use x="519.140625" xlink:href="#DejaVuSans-104"/>
       <use x="582.519531" xlink:href="#DejaVuSans-32"/>
       <use x="614.306641" xlink:href="#DejaVuSans-40"/>
       <use x="653.320312" xlink:href="#DejaVuSans-110"/>
       <use x="716.699219" xlink:href="#DejaVuSans-109"/>
       <use x="814.111328" xlink:href="#DejaVuSans-41"/>
      </g>
     </g>
    </g>
    <g id="matplotlib.axis_2"/>
    <g id="patch_4">
     <path d="M 382.304375 38.931875 
L 47.504375 38.931875 
" style="fill:none;stroke:#000000;stroke-linecap:square;stroke-linejoin:miter;stroke-width:0.8;"/>
    </g>
   </g>
   <g id="matplotlib.axis_3">
    <g id="xtick_10">
     <g id="line2d_19">
      <path clip-path="url(#pd933b51ba8)" d="M 57.167332 149.811875 
L 57.167332 38.931875 
" style="fill:none;stroke:#b0b0b0;stroke-dasharray:0.8,1.32;stroke-dashoffset:0;stroke-width:0.8;"/>
     </g>
     <g id="line2d_20">
      <defs>
       <path d="M 0 0 
L 0 3.5 
" id="mad186eb613" style="stroke:#000000;stroke-width:0.8;"/>
      </defs>
      <g>
       <use style="stroke:#000000;stroke-width:0.8;" x="57.167332" xlink:href="#mad186eb613" y="149.811875"/>
      </g>
     </g>
     <g id="text_11">
      <!-- 182.5 -->
      <defs>
       <path d="M 10.6875 12.40625 
L 21 12.40625 
L 21 0 
L 10.6875 0 
z
" id="DejaVuSans-46"/>
      </defs>
      <g transform="translate(39.990457 165.93)scale(0.12 -0.12)">
       <use xlink:href="#DejaVuSans-49"/>
       <use x="63.623047" xlink:href="#DejaVuSans-56"/>
       <use x="127.246094" xlink:href="#DejaVuSans-50"/>
       <use x="190.869141" xlink:href="#DejaVuSans-46"/>
       <use x="222.65625" xlink:href="#DejaVuSans-53"/>
      </g>
     </g>
    </g>
    <g id="xtick_11">
     <g id="line2d_21">
      <path clip-path="url(#pd933b51ba8)" d="M 95.996614 149.811875 
L 95.996614 38.931875 
" style="fill:none;stroke:#b0b0b0;stroke-dasharray:0.8,1.32;stroke-dashoffset:0;stroke-width:0.8;"/>
     </g>
     <g id="line2d_22">
      <g>
       <use style="stroke:#000000;stroke-width:0.8;" x="95.996614" xlink:href="#mad186eb613" y="149.811875"/>
      </g>
     </g>
     <g id="text_12">
      <!-- 185.0 -->
      <g transform="translate(78.819739 165.93)scale(0.12 -0.12)">
       <use xlink:href="#DejaVuSans-49"/>
       <use x="63.623047" xlink:href="#DejaVuSans-56"/>
       <use x="127.246094" xlink:href="#DejaVuSans-53"/>
       <use x="190.869141" xlink:href="#DejaVuSans-46"/>
       <use x="222.65625" xlink:href="#DejaVuSans-48"/>
      </g>
     </g>
    </g>
    <g id="xtick_12">
     <g id="line2d_23">
      <path clip-path="url(#pd933b51ba8)" d="M 134.825895 149.811875 
L 134.825895 38.931875 
" style="fill:none;stroke:#b0b0b0;stroke-dasharray:0.8,1.32;stroke-dashoffset:0;stroke-width:0.8;"/>
     </g>
     <g id="line2d_24">
      <g>
       <use style="stroke:#000000;stroke-width:0.8;" x="134.825895" xlink:href="#mad186eb613" y="149.811875"/>
      </g>
     </g>
     <g id="text_13">
      <!-- 187.5 -->
      <defs>
       <path d="M 8.203125 72.90625 
L 55.078125 72.90625 
L 55.078125 68.703125 
L 28.609375 0 
L 18.3125 0 
L 43.21875 64.59375 
L 8.203125 64.59375 
z
" id="DejaVuSans-55"/>
      </defs>
      <g transform="translate(117.64902 165.93)scale(0.12 -0.12)">
       <use xlink:href="#DejaVuSans-49"/>
       <use x="63.623047" xlink:href="#DejaVuSans-56"/>
       <use x="127.246094" xlink:href="#DejaVuSans-55"/>
       <use x="190.869141" xlink:href="#DejaVuSans-46"/>
       <use x="222.65625" xlink:href="#DejaVuSans-53"/>
      </g>
     </g>
    </g>
    <g id="xtick_13">
     <g id="line2d_25">
      <path clip-path="url(#pd933b51ba8)" d="M 173.655177 149.811875 
L 173.655177 38.931875 
" style="fill:none;stroke:#b0b0b0;stroke-dasharray:0.8,1.32;stroke-dashoffset:0;stroke-width:0.8;"/>
     </g>
     <g id="line2d_26">
      <g>
       <use style="stroke:#000000;stroke-width:0.8;" x="173.655177" xlink:href="#mad186eb613" y="149.811875"/>
      </g>
     </g>
     <g id="text_14">
      <!-- 190.0 -->
      <defs>
       <path d="M 10.984375 1.515625 
L 10.984375 10.5 
Q 14.703125 8.734375 18.5 7.8125 
Q 22.3125 6.890625 25.984375 6.890625 
Q 35.75 6.890625 40.890625 13.453125 
Q 46.046875 20.015625 46.78125 33.40625 
Q 43.953125 29.203125 39.59375 26.953125 
Q 35.25 24.703125 29.984375 24.703125 
Q 19.046875 24.703125 12.671875 31.3125 
Q 6.296875 37.9375 6.296875 49.421875 
Q 6.296875 60.640625 12.9375 67.421875 
Q 19.578125 74.21875 30.609375 74.21875 
Q 43.265625 74.21875 49.921875 64.515625 
Q 56.59375 54.828125 56.59375 36.375 
Q 56.59375 19.140625 48.40625 8.859375 
Q 40.234375 -1.421875 26.421875 -1.421875 
Q 22.703125 -1.421875 18.890625 -0.6875 
Q 15.09375 0.046875 10.984375 1.515625 
z
M 30.609375 32.421875 
Q 37.25 32.421875 41.125 36.953125 
Q 45.015625 41.5 45.015625 49.421875 
Q 45.015625 57.28125 41.125 61.84375 
Q 37.25 66.40625 30.609375 66.40625 
Q 23.96875 66.40625 20.09375 61.84375 
Q 16.21875 57.28125 16.21875 49.421875 
Q 16.21875 41.5 20.09375 36.953125 
Q 23.96875 32.421875 30.609375 32.421875 
z
" id="DejaVuSans-57"/>
      </defs>
      <g transform="translate(156.478302 165.93)scale(0.12 -0.12)">
       <use xlink:href="#DejaVuSans-49"/>
       <use x="63.623047" xlink:href="#DejaVuSans-57"/>
       <use x="127.246094" xlink:href="#DejaVuSans-48"/>
       <use x="190.869141" xlink:href="#DejaVuSans-46"/>
       <use x="222.65625" xlink:href="#DejaVuSans-48"/>
      </g>
     </g>
    </g>
    <g id="xtick_14">
     <g id="line2d_27">
      <path clip-path="url(#pd933b51ba8)" d="M 212.484459 149.811875 
L 212.484459 38.931875 
" style="fill:none;stroke:#b0b0b0;stroke-dasharray:0.8,1.32;stroke-dashoffset:0;stroke-width:0.8;"/>
     </g>
     <g id="line2d_28">
      <g>
       <use style="stroke:#000000;stroke-width:0.8;" x="212.484459" xlink:href="#mad186eb613" y="149.811875"/>
      </g>
     </g>
     <g id="text_15">
      <!-- 192.5 -->
      <g transform="translate(195.307584 165.93)scale(0.12 -0.12)">
       <use xlink:href="#DejaVuSans-49"/>
       <use x="63.623047" xlink:href="#DejaVuSans-57"/>
       <use x="127.246094" xlink:href="#DejaVuSans-50"/>
       <use x="190.869141" xlink:href="#DejaVuSans-46"/>
       <use x="222.65625" xlink:href="#DejaVuSans-53"/>
      </g>
     </g>
    </g>
    <g id="xtick_15">
     <g id="line2d_29">
      <path clip-path="url(#pd933b51ba8)" d="M 251.313741 149.811875 
L 251.313741 38.931875 
" style="fill:none;stroke:#b0b0b0;stroke-dasharray:0.8,1.32;stroke-dashoffset:0;stroke-width:0.8;"/>
     </g>
     <g id="line2d_30">
      <g>
       <use style="stroke:#000000;stroke-width:0.8;" x="251.313741" xlink:href="#mad186eb613" y="149.811875"/>
      </g>
     </g>
     <g id="text_16">
      <!-- 195.0 -->
      <g transform="translate(234.136866 165.93)scale(0.12 -0.12)">
       <use xlink:href="#DejaVuSans-49"/>
       <use x="63.623047" xlink:href="#DejaVuSans-57"/>
       <use x="127.246094" xlink:href="#DejaVuSans-53"/>
       <use x="190.869141" xlink:href="#DejaVuSans-46"/>
       <use x="222.65625" xlink:href="#DejaVuSans-48"/>
      </g>
     </g>
    </g>
    <g id="xtick_16">
     <g id="line2d_31">
      <path clip-path="url(#pd933b51ba8)" d="M 290.143022 149.811875 
L 290.143022 38.931875 
" style="fill:none;stroke:#b0b0b0;stroke-dasharray:0.8,1.32;stroke-dashoffset:0;stroke-width:0.8;"/>
     </g>
     <g id="line2d_32">
      <g>
       <use style="stroke:#000000;stroke-width:0.8;" x="290.143022" xlink:href="#mad186eb613" y="149.811875"/>
      </g>
     </g>
     <g id="text_17">
      <!-- 197.5 -->
      <g transform="translate(272.966147 165.93)scale(0.12 -0.12)">
       <use xlink:href="#DejaVuSans-49"/>
       <use x="63.623047" xlink:href="#DejaVuSans-57"/>
       <use x="127.246094" xlink:href="#DejaVuSans-55"/>
       <use x="190.869141" xlink:href="#DejaVuSans-46"/>
       <use x="222.65625" xlink:href="#DejaVuSans-53"/>
      </g>
     </g>
    </g>
    <g id="xtick_17">
     <g id="line2d_33">
      <path clip-path="url(#pd933b51ba8)" d="M 328.972304 149.811875 
L 328.972304 38.931875 
" style="fill:none;stroke:#b0b0b0;stroke-dasharray:0.8,1.32;stroke-dashoffset:0;stroke-width:0.8;"/>
     </g>
     <g id="line2d_34">
      <g>
       <use style="stroke:#000000;stroke-width:0.8;" x="328.972304" xlink:href="#mad186eb613" y="149.811875"/>
      </g>
     </g>
     <g id="text_18">
      <!-- 200.0 -->
      <g transform="translate(311.795429 165.93)scale(0.12 -0.12)">
       <use xlink:href="#DejaVuSans-50"/>
       <use x="63.623047" xlink:href="#DejaVuSans-48"/>
       <use x="127.246094" xlink:href="#DejaVuSans-48"/>
       <use x="190.869141" xlink:href="#DejaVuSans-46"/>
       <use x="222.65625" xlink:href="#DejaVuSans-48"/>
      </g>
     </g>
    </g>
    <g id="xtick_18">
     <g id="line2d_35">
      <path clip-path="url(#pd933b51ba8)" d="M 367.801586 149.811875 
L 367.801586 38.931875 
" style="fill:none;stroke:#b0b0b0;stroke-dasharray:0.8,1.32;stroke-dashoffset:0;stroke-width:0.8;"/>
     </g>
     <g id="line2d_36">
      <g>
       <use style="stroke:#000000;stroke-width:0.8;" x="367.801586" xlink:href="#mad186eb613" y="149.811875"/>
      </g>
     </g>
     <g id="text_19">
      <!-- 202.5 -->
      <g transform="translate(350.624711 165.93)scale(0.12 -0.12)">
       <use xlink:href="#DejaVuSans-50"/>
       <use x="63.623047" xlink:href="#DejaVuSans-48"/>
       <use x="127.246094" xlink:href="#DejaVuSans-50"/>
       <use x="190.869141" xlink:href="#DejaVuSans-46"/>
       <use x="222.65625" xlink:href="#DejaVuSans-53"/>
      </g>
     </g>
    </g>
    <g id="text_20">
     <!-- frequency (THz) -->
     <defs>
      <path d="M 37.109375 75.984375 
L 37.109375 68.5 
L 28.515625 68.5 
Q 23.6875 68.5 21.796875 66.546875 
Q 19.921875 64.59375 19.921875 59.515625 
L 19.921875 54.6875 
L 34.71875 54.6875 
L 34.71875 47.703125 
L 19.921875 47.703125 
L 19.921875 0 
L 10.890625 0 
L 10.890625 47.703125 
L 2.296875 47.703125 
L 2.296875 54.6875 
L 10.890625 54.6875 
L 10.890625 58.5 
Q 10.890625 67.625 15.140625 71.796875 
Q 19.390625 75.984375 28.609375 75.984375 
z
" id="DejaVuSans-102"/>
      <path d="M 41.109375 46.296875 
Q 39.59375 47.171875 37.8125 47.578125 
Q 36.03125 48 33.890625 48 
Q 26.265625 48 22.1875 43.046875 
Q 18.109375 38.09375 18.109375 28.8125 
L 18.109375 0 
L 9.078125 0 
L 9.078125 54.6875 
L 18.109375 54.6875 
L 18.109375 46.1875 
Q 20.953125 51.171875 25.484375 53.578125 
Q 30.03125 56 36.53125 56 
Q 37.453125 56 38.578125 55.875 
Q 39.703125 55.765625 41.0625 55.515625 
z
" id="DejaVuSans-114"/>
      <path d="M 14.796875 27.296875 
Q 14.796875 17.390625 18.875 11.75 
Q 22.953125 6.109375 30.078125 6.109375 
Q 37.203125 6.109375 41.296875 11.75 
Q 45.40625 17.390625 45.40625 27.296875 
Q 45.40625 37.203125 41.296875 42.84375 
Q 37.203125 48.484375 30.078125 48.484375 
Q 22.953125 48.484375 18.875 42.84375 
Q 14.796875 37.203125 14.796875 27.296875 
z
M 45.40625 8.203125 
Q 42.578125 3.328125 38.25 0.953125 
Q 33.9375 -1.421875 27.875 -1.421875 
Q 17.96875 -1.421875 11.734375 6.484375 
Q 5.515625 14.40625 5.515625 27.296875 
Q 5.515625 40.1875 11.734375 48.09375 
Q 17.96875 56 27.875 56 
Q 33.9375 56 38.25 53.625 
Q 42.578125 51.265625 45.40625 46.390625 
L 45.40625 54.6875 
L 54.390625 54.6875 
L 54.390625 -20.796875 
L 45.40625 -20.796875 
z
" id="DejaVuSans-113"/>
      <path d="M 8.5 21.578125 
L 8.5 54.6875 
L 17.484375 54.6875 
L 17.484375 21.921875 
Q 17.484375 14.15625 20.5 10.265625 
Q 23.53125 6.390625 29.59375 6.390625 
Q 36.859375 6.390625 41.078125 11.03125 
Q 45.3125 15.671875 45.3125 23.6875 
L 45.3125 54.6875 
L 54.296875 54.6875 
L 54.296875 0 
L 45.3125 0 
L 45.3125 8.40625 
Q 42.046875 3.421875 37.71875 1 
Q 33.40625 -1.421875 27.6875 -1.421875 
Q 18.265625 -1.421875 13.375 4.4375 
Q 8.5 10.296875 8.5 21.578125 
z
M 31.109375 56 
z
" id="DejaVuSans-117"/>
      <path d="M 48.78125 52.59375 
L 48.78125 44.1875 
Q 44.96875 46.296875 41.140625 47.34375 
Q 37.3125 48.390625 33.40625 48.390625 
Q 24.65625 48.390625 19.8125 42.84375 
Q 14.984375 37.3125 14.984375 27.296875 
Q 14.984375 17.28125 19.8125 11.734375 
Q 24.65625 6.203125 33.40625 6.203125 
Q 37.3125 6.203125 41.140625 7.25 
Q 44.96875 8.296875 48.78125 10.40625 
L 48.78125 2.09375 
Q 45.015625 0.34375 40.984375 -0.53125 
Q 36.96875 -1.421875 32.421875 -1.421875 
Q 20.0625 -1.421875 12.78125 6.34375 
Q 5.515625 14.109375 5.515625 27.296875 
Q 5.515625 40.671875 12.859375 48.328125 
Q 20.21875 56 33.015625 56 
Q 37.15625 56 41.109375 55.140625 
Q 45.0625 54.296875 48.78125 52.59375 
z
" id="DejaVuSans-99"/>
      <path d="M 32.171875 -5.078125 
Q 28.375 -14.84375 24.75 -17.8125 
Q 21.140625 -20.796875 15.09375 -20.796875 
L 7.90625 -20.796875 
L 7.90625 -13.28125 
L 13.1875 -13.28125 
Q 16.890625 -13.28125 18.9375 -11.515625 
Q 21 -9.765625 23.484375 -3.21875 
L 25.09375 0.875 
L 2.984375 54.6875 
L 12.5 54.6875 
L 29.59375 11.921875 
L 46.6875 54.6875 
L 56.203125 54.6875 
z
" id="DejaVuSans-121"/>
      <path d="M -0.296875 72.90625 
L 61.375 72.90625 
L 61.375 64.59375 
L 35.5 64.59375 
L 35.5 0 
L 25.59375 0 
L 25.59375 64.59375 
L -0.296875 64.59375 
z
" id="DejaVuSans-84"/>
      <path d="M 9.8125 72.90625 
L 19.671875 72.90625 
L 19.671875 43.015625 
L 55.515625 43.015625 
L 55.515625 72.90625 
L 65.375 72.90625 
L 65.375 0 
L 55.515625 0 
L 55.515625 34.71875 
L 19.671875 34.71875 
L 19.671875 0 
L 9.8125 0 
z
" id="DejaVuSans-72"/>
      <path d="M 5.515625 54.6875 
L 48.1875 54.6875 
L 48.1875 46.484375 
L 14.40625 7.171875 
L 48.1875 7.171875 
L 48.1875 0 
L 4.296875 0 
L 4.296875 8.203125 
L 38.09375 47.515625 
L 5.515625 47.515625 
z
" id="DejaVuSans-122"/>
     </defs>
     <g transform="translate(166.764688 181.54375)scale(0.12 -0.12)">
      <use xlink:href="#DejaVuSans-102"/>
      <use x="35.205078" xlink:href="#DejaVuSans-114"/>
      <use x="76.287109" xlink:href="#DejaVuSans-101"/>
      <use x="137.810547" xlink:href="#DejaVuSans-113"/>
      <use x="201.287109" xlink:href="#DejaVuSans-117"/>
      <use x="264.666016" xlink:href="#DejaVuSans-101"/>
      <use x="326.189453" xlink:href="#DejaVuSans-110"/>
      <use x="389.568359" xlink:href="#DejaVuSans-99"/>
      <use x="444.548828" xlink:href="#DejaVuSans-121"/>
      <use x="503.728516" xlink:href="#DejaVuSans-32"/>
      <use x="535.515625" xlink:href="#DejaVuSans-40"/>
      <use x="574.529297" xlink:href="#DejaVuSans-84"/>
      <use x="635.613281" xlink:href="#DejaVuSans-72"/>
      <use x="710.808594" xlink:href="#DejaVuSans-122"/>
      <use x="763.298828" xlink:href="#DejaVuSans-41"/>
     </g>
    </g>
   </g>
   <g id="matplotlib.axis_4">
    <g id="ytick_1">
     <g id="line2d_37">
      <path clip-path="url(#pd933b51ba8)" d="M 47.504375 119.592668 
L 382.304375 119.592668 
" style="fill:none;stroke:#b0b0b0;stroke-dasharray:0.8,1.32;stroke-dashoffset:0;stroke-width:0.8;"/>
     </g>
     <g id="line2d_38">
      <defs>
       <path d="M 0 0 
L -3.5 0 
" id="mc91d11e718" style="stroke:#000000;stroke-width:0.8;"/>
      </defs>
      <g>
       <use style="stroke:#000000;stroke-width:0.8;" x="47.504375" xlink:href="#mc91d11e718" y="119.592668"/>
      </g>
     </g>
     <g id="text_21">
      <!-- −5 -->
      <defs>
       <path d="M 10.59375 35.5 
L 73.1875 35.5 
L 73.1875 27.203125 
L 10.59375 27.203125 
z
" id="DejaVuSans-8722"/>
      </defs>
      <g transform="translate(22.81375 124.15173)scale(0.12 -0.12)">
       <use xlink:href="#DejaVuSans-8722"/>
       <use x="83.789062" xlink:href="#DejaVuSans-53"/>
      </g>
     </g>
    </g>
    <g id="ytick_2">
     <g id="line2d_39">
      <path clip-path="url(#pd933b51ba8)" d="M 47.504375 75.348728 
L 382.304375 75.348728 
" style="fill:none;stroke:#b0b0b0;stroke-dasharray:0.8,1.32;stroke-dashoffset:0;stroke-width:0.8;"/>
     </g>
     <g id="line2d_40">
      <g>
       <use style="stroke:#000000;stroke-width:0.8;" x="47.504375" xlink:href="#mc91d11e718" y="75.348728"/>
      </g>
     </g>
     <g id="text_22">
      <!-- 0 -->
      <g transform="translate(32.869375 79.90779)scale(0.12 -0.12)">
       <use xlink:href="#DejaVuSans-48"/>
      </g>
     </g>
    </g>
    <g id="text_23">
     <!-- $D_{int}/{2\pi}$ (GHz) -->
     <defs>
      <path d="M 16.890625 72.90625 
L 38.09375 72.90625 
Q 54.984375 72.90625 63.59375 65.75 
Q 72.21875 58.59375 72.21875 44.484375 
Q 72.21875 35.15625 68.9375 26.53125 
Q 65.671875 17.921875 59.90625 12.015625 
Q 54.109375 5.953125 45.171875 2.96875 
Q 36.234375 0 24.03125 0 
L 2.6875 0 
z
M 25.203125 64.796875 
L 14.203125 8.109375 
L 27.09375 8.109375 
Q 43.65625 8.109375 52.734375 17.625 
Q 61.8125 27.15625 61.8125 44.484375 
Q 61.8125 54.984375 55.953125 59.890625 
Q 50.09375 64.796875 37.59375 64.796875 
z
" id="DejaVuSans-Oblique-68"/>
      <path d="M 18.3125 75.984375 
L 27.296875 75.984375 
L 25.09375 64.59375 
L 16.109375 64.59375 
z
M 14.203125 54.6875 
L 23.1875 54.6875 
L 12.5 0 
L 3.515625 0 
z
" id="DejaVuSans-Oblique-105"/>
      <path d="M 55.71875 33.015625 
L 49.3125 0 
L 40.28125 0 
L 46.6875 32.671875 
Q 47.125 34.96875 47.359375 36.71875 
Q 47.609375 38.484375 47.609375 39.5 
Q 47.609375 43.609375 45.015625 45.890625 
Q 42.4375 48.1875 37.796875 48.1875 
Q 30.5625 48.1875 25.34375 43.375 
Q 20.125 38.578125 18.5 30.328125 
L 12.5 0 
L 3.515625 0 
L 14.109375 54.6875 
L 23.09375 54.6875 
L 21.296875 46.09375 
Q 25.046875 50.828125 30.3125 53.40625 
Q 35.59375 56 41.40625 56 
Q 48.640625 56 52.609375 52.09375 
Q 56.59375 48.1875 56.59375 41.109375 
Q 56.59375 39.359375 56.375 37.359375 
Q 56.15625 35.359375 55.71875 33.015625 
z
" id="DejaVuSans-Oblique-110"/>
      <path d="M 42.28125 54.6875 
L 40.921875 47.703125 
L 23 47.703125 
L 17.1875 18.015625 
Q 16.890625 16.359375 16.75 15.234375 
Q 16.609375 14.109375 16.609375 13.484375 
Q 16.609375 10.359375 18.484375 8.9375 
Q 20.359375 7.515625 24.515625 7.515625 
L 33.59375 7.515625 
L 32.078125 0 
L 23.484375 0 
Q 15.484375 0 11.546875 3.125 
Q 7.625 6.25 7.625 12.59375 
Q 7.625 13.71875 7.765625 15.0625 
Q 7.90625 16.40625 8.203125 18.015625 
L 14.015625 47.703125 
L 6.390625 47.703125 
L 7.8125 54.6875 
L 15.28125 54.6875 
L 18.3125 70.21875 
L 27.296875 70.21875 
L 24.3125 54.6875 
z
" id="DejaVuSans-Oblique-116"/>
      <path d="M 25.390625 72.90625 
L 33.6875 72.90625 
L 8.296875 -9.28125 
L 0 -9.28125 
z
" id="DejaVuSans-47"/>
      <path d="M 9.125 54.6875 
L 61.53125 54.6875 
L 59.765625 45.703125 
L 52.875 45.703125 
L 46.34375 12.109375 
Q 45.65625 8.59375 46.578125 7.03125 
Q 47.46875 5.515625 50.140625 5.515625 
Q 50.875 5.515625 51.953125 5.671875 
Q 53.078125 5.765625 53.421875 5.8125 
L 52.15625 -0.6875 
Q 50.34375 -1.3125 48.484375 -1.609375 
Q 46.578125 -1.90625 44.78125 -1.90625 
Q 38.921875 -1.90625 37.3125 1.265625 
Q 35.6875 4.5 37.359375 13.09375 
L 43.703125 45.703125 
L 23.53125 45.703125 
L 14.65625 0 
L 5.46875 0 
L 14.359375 45.703125 
L 7.375 45.703125 
z
" id="DejaVuSans-Oblique-960"/>
      <path d="M 59.515625 10.40625 
L 59.515625 29.984375 
L 43.40625 29.984375 
L 43.40625 38.09375 
L 69.28125 38.09375 
L 69.28125 6.78125 
Q 63.578125 2.734375 56.6875 0.65625 
Q 49.8125 -1.421875 42 -1.421875 
Q 24.90625 -1.421875 15.25 8.5625 
Q 5.609375 18.5625 5.609375 36.375 
Q 5.609375 54.25 15.25 64.234375 
Q 24.90625 74.21875 42 74.21875 
Q 49.125 74.21875 55.546875 72.453125 
Q 61.96875 70.703125 67.390625 67.28125 
L 67.390625 56.78125 
Q 61.921875 61.421875 55.765625 63.765625 
Q 49.609375 66.109375 42.828125 66.109375 
Q 29.4375 66.109375 22.71875 58.640625 
Q 16.015625 51.171875 16.015625 36.375 
Q 16.015625 21.625 22.71875 14.15625 
Q 29.4375 6.6875 42.828125 6.6875 
Q 48.046875 6.6875 52.140625 7.59375 
Q 56.25 8.5 59.515625 10.40625 
z
" id="DejaVuSans-71"/>
     </defs>
     <g transform="translate(16.318125 133.011875)rotate(-90)scale(0.12 -0.12)">
      <use transform="translate(0 0.125)" xlink:href="#DejaVuSans-Oblique-68"/>
      <use transform="translate(77.001953 -16.28125)scale(0.7)" xlink:href="#DejaVuSans-Oblique-105"/>
      <use transform="translate(96.450195 -16.28125)scale(0.7)" xlink:href="#DejaVuSans-Oblique-110"/>
      <use transform="translate(140.81543 -16.28125)scale(0.7)" xlink:href="#DejaVuSans-Oblique-116"/>
      <use transform="translate(170.996094 0.125)" xlink:href="#DejaVuSans-47"/>
      <use transform="translate(204.6875 0.125)" xlink:href="#DejaVuSans-50"/>
      <use transform="translate(268.310547 0.125)" xlink:href="#DejaVuSans-Oblique-960"/>
      <use transform="translate(328.515625 0.125)" xlink:href="#DejaVuSans-32"/>
      <use transform="translate(360.302734 0.125)" xlink:href="#DejaVuSans-40"/>
      <use transform="translate(399.316406 0.125)" xlink:href="#DejaVuSans-71"/>
      <use transform="translate(476.806641 0.125)" xlink:href="#DejaVuSans-72"/>
      <use transform="translate(552.001953 0.125)" xlink:href="#DejaVuSans-122"/>
      <use transform="translate(604.492188 0.125)" xlink:href="#DejaVuSans-41"/>
     </g>
    </g>
   </g>
   <g id="line2d_41">
    <defs>
     <path d="M 0 1.5 
C 0.397805 1.5 0.77937 1.341951 1.06066 1.06066 
C 1.341951 0.77937 1.5 0.397805 1.5 0 
C 1.5 -0.397805 1.341951 -0.77937 1.06066 -1.06066 
C 0.77937 -1.341951 0.397805 -1.5 0 -1.5 
C -0.397805 -1.5 -0.77937 -1.341951 -1.06066 -1.06066 
C -1.341951 -0.77937 -1.5 -0.397805 -1.5 0 
C -1.5 0.397805 -1.341951 0.77937 -1.06066 1.06066 
C -0.77937 1.341951 -0.397805 1.5 0 1.5 
z
" id="m57d83ce0f0" style="stroke:#0000ff;"/>
    </defs>
    <g clip-path="url(#pd933b51ba8)">
     <use style="fill:#0000ff;stroke:#0000ff;" x="62.722557" xlink:href="#m57d83ce0f0" y="144.771875"/>
     <use style="fill:#0000ff;stroke:#0000ff;" x="64.202545" xlink:href="#m57d83ce0f0" y="139.145803"/>
     <use style="fill:#0000ff;stroke:#0000ff;" x="65.669461" xlink:href="#m57d83ce0f0" y="140.967805"/>
     <use style="fill:#0000ff;stroke:#0000ff;" x="67.143348" xlink:href="#m57d83ce0f0" y="138.817858"/>
     <use style="fill:#0000ff;stroke:#0000ff;" x="68.613928" xlink:href="#m57d83ce0f0" y="138.551901"/>
     <use style="fill:#0000ff;stroke:#0000ff;" x="70.091044" xlink:href="#m57d83ce0f0" y="134.562063"/>
     <use style="fill:#0000ff;stroke:#0000ff;" x="71.563385" xlink:href="#m57d83ce0f0" y="133.293212"/>
     <use style="fill:#0000ff;stroke:#0000ff;" x="73.034073" xlink:href="#m57d83ce0f0" y="132.96574"/>
     <use style="fill:#0000ff;stroke:#0000ff;" x="74.512813" xlink:href="#m57d83ce0f0" y="128.0509"/>
     <use style="fill:#0000ff;stroke:#0000ff;" x="75.987423" xlink:href="#m57d83ce0f0" y="125.489107"/>
     <use style="fill:#0000ff;stroke:#0000ff;" x="77.464294" xlink:href="#m57d83ce0f0" y="121.639243"/>
     <use style="fill:#0000ff;stroke:#0000ff;" x="78.941398" xlink:href="#m57d83ce0f0" y="117.656616"/>
     <use style="fill:#0000ff;stroke:#0000ff;" x="80.407472" xlink:href="#m57d83ce0f0" y="119.957484"/>
     <use style="fill:#0000ff;stroke:#0000ff;" x="81.881163" xlink:href="#m57d83ce0f0" y="117.91945"/>
     <use style="fill:#0000ff;stroke:#0000ff;" x="83.360065" xlink:href="#m57d83ce0f0" y="112.912252"/>
     <use style="fill:#0000ff;stroke:#0000ff;" x="84.832581" xlink:href="#m57d83ce0f0" y="111.543643"/>
     <use style="fill:#0000ff;stroke:#0000ff;" x="86.309748" xlink:href="#m57d83ce0f0" y="107.524893"/>
     <use style="fill:#0000ff;stroke:#0000ff;" x="87.784562" xlink:href="#m57d83ce0f0" y="104.846782"/>
     <use style="fill:#0000ff;stroke:#0000ff;" x="89.250943" xlink:href="#m57d83ce0f0" y="106.973587"/>
     <use style="fill:#0000ff;stroke:#0000ff;" x="90.725149" xlink:href="#m57d83ce0f0" y="104.641565"/>
     <use style="fill:#0000ff;stroke:#0000ff;" x="92.198715" xlink:href="#m57d83ce0f0" y="102.67443"/>
     <use style="fill:#0000ff;stroke:#0000ff;" x="93.673903" xlink:href="#m57d83ce0f0" y="99.783678"/>
     <use style="fill:#0000ff;stroke:#0000ff;" x="95.149792" xlink:href="#m57d83ce0f0" y="96.492782"/>
     <use style="fill:#0000ff;stroke:#0000ff;" x="96.625355" xlink:href="#m57d83ce0f0" y="93.388013"/>
     <use style="fill:#0000ff;stroke:#0000ff;" x="98.102293" xlink:href="#m57d83ce0f0" y="89.500067"/>
     <use style="fill:#0000ff;stroke:#0000ff;" x="99.573639" xlink:href="#m57d83ce0f0" y="88.797712"/>
     <use style="fill:#0000ff;stroke:#0000ff;" x="101.047382" xlink:href="#m57d83ce0f0" y="86.730185"/>
     <use style="fill:#0000ff;stroke:#0000ff;" x="102.512909" xlink:href="#m57d83ce0f0" y="89.342749"/>
     <use style="fill:#0000ff;stroke:#0000ff;" x="103.985136" xlink:href="#m57d83ce0f0" y="88.138468"/>
     <use style="fill:#0000ff;stroke:#0000ff;" x="105.455764" xlink:href="#m57d83ce0f0" y="87.845518"/>
     <use style="fill:#0000ff;stroke:#0000ff;" x="106.930502" xlink:href="#m57d83ce0f0" y="85.210727"/>
     <use style="fill:#0000ff;stroke:#0000ff;" x="108.410076" xlink:href="#m57d83ce0f0" y="79.820642"/>
     <use style="fill:#0000ff;stroke:#0000ff;" x="109.878279" xlink:href="#m57d83ce0f0" y="80.909196"/>
     <use style="fill:#0000ff;stroke:#0000ff;" x="111.352672" xlink:href="#m57d83ce0f0" y="78.471093"/>
     <use style="fill:#0000ff;stroke:#0000ff;" x="112.823046" xlink:href="#m57d83ce0f0" y="78.322616"/>
     <use style="fill:#0000ff;stroke:#0000ff;" x="114.298186" xlink:href="#m57d83ce0f0" y="75.458856"/>
     <use style="fill:#0000ff;stroke:#0000ff;" x="115.778212" xlink:href="#m57d83ce0f0" y="69.811354"/>
     <use style="fill:#0000ff;stroke:#0000ff;" x="117.244494" xlink:href="#m57d83ce0f0" y="71.993951"/>
     <use style="fill:#0000ff;stroke:#0000ff;" x="118.719433" xlink:href="#m57d83ce0f0" y="69.244942"/>
     <use style="fill:#0000ff;stroke:#0000ff;" x="120.181775" xlink:href="#m57d83ce0f0" y="73.672479"/>
     <use style="fill:#0000ff;stroke:#0000ff;" x="121.652056" xlink:href="#m57d83ce0f0" y="73.576863"/>
     <use style="fill:#0000ff;stroke:#0000ff;" x="123.128347" xlink:href="#m57d83ce0f0" y="70.057316"/>
     <use style="fill:#0000ff;stroke:#0000ff;" x="124.592144" xlink:href="#m57d83ce0f0" y="73.65609"/>
     <use style="fill:#0000ff;stroke:#0000ff;" x="126.071178" xlink:href="#m57d83ce0f0" y="68.573662"/>
     <use style="fill:#0000ff;stroke:#0000ff;" x="127.547915" xlink:href="#m57d83ce0f0" y="64.800127"/>
     <use style="fill:#0000ff;stroke:#0000ff;" x="129.015451" xlink:href="#m57d83ce0f0" y="66.268286"/>
     <use style="fill:#0000ff;stroke:#0000ff;" x="130.48843" xlink:href="#m57d83ce0f0" y="64.635831"/>
     <use style="fill:#0000ff;stroke:#0000ff;" x="131.962539" xlink:href="#m57d83ce0f0" y="62.359457"/>
     <use style="fill:#0000ff;stroke:#0000ff;" x="133.437488" xlink:href="#m57d83ce0f0" y="59.60437"/>
     <use style="fill:#0000ff;stroke:#0000ff;" x="134.900855" xlink:href="#m57d83ce0f0" y="63.447818"/>
     <use style="fill:#0000ff;stroke:#0000ff;" x="136.372477" xlink:href="#m57d83ce0f0" y="62.588286"/>
     <use style="fill:#0000ff;stroke:#0000ff;" x="137.843726" xlink:href="#m57d83ce0f0" y="61.941625"/>
     <use style="fill:#0000ff;stroke:#0000ff;" x="139.309591" xlink:href="#m57d83ce0f0" y="64.361788"/>
     <use style="fill:#0000ff;stroke:#0000ff;" x="140.779785" xlink:href="#m57d83ce0f0" y="64.316246"/>
     <use style="fill:#0000ff;stroke:#0000ff;" x="142.256697" xlink:href="#m57d83ce0f0" y="60.442926"/>
     <use style="fill:#0000ff;stroke:#0000ff;" x="143.734078" xlink:href="#m57d83ce0f0" y="56.302121"/>
     <use style="fill:#0000ff;stroke:#0000ff;" x="145.201912" xlink:href="#m57d83ce0f0" y="57.600539"/>
     <use style="fill:#0000ff;stroke:#0000ff;" x="146.680844" xlink:href="#m57d83ce0f0" y="52.576292"/>
     <use style="fill:#0000ff;stroke:#0000ff;" x="148.157083" xlink:href="#m57d83ce0f0" y="49.086491"/>
     <use style="fill:#0000ff;stroke:#0000ff;" x="149.620683" xlink:href="#m57d83ce0f0" y="52.797679"/>
     <use style="fill:#0000ff;stroke:#0000ff;" x="151.09374" xlink:href="#m57d83ce0f0" y="51.120129"/>
     <use style="fill:#0000ff;stroke:#0000ff;" x="152.560797" xlink:href="#m57d83ce0f0" y="52.861916"/>
     <use style="fill:#0000ff;stroke:#0000ff;" x="154.025153" xlink:href="#m57d83ce0f0" y="56.14205"/>
     <use style="fill:#0000ff;stroke:#0000ff;" x="155.493448" xlink:href="#m57d83ce0f0" y="57.177533"/>
     <use style="fill:#0000ff;stroke:#0000ff;" x="156.971463" xlink:href="#m57d83ce0f0" y="52.67587"/>
     <use style="fill:#0000ff;stroke:#0000ff;" x="158.439862" xlink:href="#m57d83ce0f0" y="53.652584"/>
     <use style="fill:#0000ff;stroke:#0000ff;" x="159.914253" xlink:href="#m57d83ce0f0" y="51.215835"/>
     <use style="fill:#0000ff;stroke:#0000ff;" x="161.376103" xlink:href="#m57d83ce0f0" y="55.923589"/>
     <use style="fill:#0000ff;stroke:#0000ff;" x="162.852034" xlink:href="#m57d83ce0f0" y="52.609234"/>
     <use style="fill:#0000ff;stroke:#0000ff;" x="164.319747" xlink:href="#m57d83ce0f0" y="53.976837"/>
     <use style="fill:#0000ff;stroke:#0000ff;" x="165.786172" xlink:href="#m57d83ce0f0" y="56.0778"/>
     <use style="fill:#0000ff;stroke:#0000ff;" x="167.259796" xlink:href="#m57d83ce0f0" y="54.077748"/>
     <use style="fill:#0000ff;stroke:#0000ff;" x="168.728447" xlink:href="#m57d83ce0f0" y="54.911031"/>
     <use style="fill:#0000ff;stroke:#0000ff;" x="170.200504" xlink:href="#m57d83ce0f0" y="53.803685"/>
     <use style="fill:#0000ff;stroke:#0000ff;" x="171.676125" xlink:href="#m57d83ce0f0" y="50.666013"/>
     <use style="fill:#0000ff;stroke:#0000ff;" x="173.148026" xlink:href="#m57d83ce0f0" y="49.647369"/>
     <use style="fill:#0000ff;stroke:#0000ff;" x="174.613163" xlink:href="#m57d83ce0f0" y="52.48266"/>
     <use style="fill:#0000ff;stroke:#0000ff;" x="176.078557" xlink:href="#m57d83ce0f0" y="55.171611"/>
     <use style="fill:#0000ff;stroke:#0000ff;" x="177.544506" xlink:href="#m57d83ce0f0" y="57.544084"/>
     <use style="fill:#0000ff;stroke:#0000ff;" x="179.031733" xlink:href="#m57d83ce0f0" y="47.793972"/>
     <use style="fill:#0000ff;stroke:#0000ff;" x="180.500841" xlink:href="#m57d83ce0f0" y="48.366518"/>
     <use style="fill:#0000ff;stroke:#0000ff;" x="181.969116" xlink:href="#m57d83ce0f0" y="49.414108"/>
     <use style="fill:#0000ff;stroke:#0000ff;" x="183.434029" xlink:href="#m57d83ce0f0" y="52.376704"/>
     <use style="fill:#0000ff;stroke:#0000ff;" x="184.913661" xlink:href="#m57d83ce0f0" y="46.953893"/>
     <use style="fill:#0000ff;stroke:#0000ff;" x="186.380096" xlink:href="#m57d83ce0f0" y="49.049718"/>
     <use style="fill:#0000ff;stroke:#0000ff;" x="187.85682" xlink:href="#m57d83ce0f0" y="45.283136"/>
     <use style="fill:#0000ff;stroke:#0000ff;" x="189.324054" xlink:href="#m57d83ce0f0" y="46.923701"/>
     <use style="fill:#0000ff;stroke:#0000ff;" x="190.792892" xlink:href="#m57d83ce0f0" y="47.650373"/>
     <use style="fill:#0000ff;stroke:#0000ff;" x="192.261556" xlink:href="#m57d83ce0f0" y="48.475947"/>
     <use style="fill:#0000ff;stroke:#0000ff;" x="193.735353" xlink:href="#m57d83ce0f0" y="46.377694"/>
     <use style="fill:#0000ff;stroke:#0000ff;" x="195.205375" xlink:href="#m57d83ce0f0" y="46.42961"/>
     <use style="fill:#0000ff;stroke:#0000ff;" x="196.677384" xlink:href="#m57d83ce0f0" y="45.349341"/>
     <use style="fill:#0000ff;stroke:#0000ff;" x="198.144159" xlink:href="#m57d83ce0f0" y="47.2513"/>
     <use style="fill:#0000ff;stroke:#0000ff;" x="199.613067" xlink:href="#m57d83ce0f0" y="47.938203"/>
     <use style="fill:#0000ff;stroke:#0000ff;" x="201.080758" xlink:href="#m57d83ce0f0" y="49.318044"/>
     <use style="fill:#0000ff;stroke:#0000ff;" x="202.548601" xlink:href="#m57d83ce0f0" y="50.61181"/>
     <use style="fill:#0000ff;stroke:#0000ff;" x="204.026787" xlink:href="#m57d83ce0f0" y="46.012772"/>
     <use style="fill:#0000ff;stroke:#0000ff;" x="205.496045" xlink:href="#m57d83ce0f0" y="46.500143"/>
     <use style="fill:#0000ff;stroke:#0000ff;" x="206.964074" xlink:href="#m57d83ce0f0" y="47.687701"/>
     <use style="fill:#0000ff;stroke:#0000ff;" x="208.437377" xlink:href="#m57d83ce0f0" y="45.869995"/>
     <use style="fill:#0000ff;stroke:#0000ff;" x="209.906272" xlink:href="#m57d83ce0f0" y="46.564277"/>
     <use style="fill:#0000ff;stroke:#0000ff;" x="211.374579" xlink:href="#m57d83ce0f0" y="47.59328"/>
     <use style="fill:#0000ff;stroke:#0000ff;" x="212.835459" xlink:href="#m57d83ce0f0" y="52.853939"/>
     <use style="fill:#0000ff;stroke:#0000ff;" x="214.310915" xlink:href="#m57d83ce0f0" y="49.810082"/>
     <use style="fill:#0000ff;stroke:#0000ff;" x="215.769973" xlink:href="#m57d83ce0f0" y="56.108793"/>
     <use style="fill:#0000ff;stroke:#0000ff;" x="217.251909" xlink:href="#m57d83ce0f0" y="49.37293"/>
     <use style="fill:#0000ff;stroke:#0000ff;" x="218.719467" xlink:href="#m57d83ce0f0" y="50.828959"/>
     <use style="fill:#0000ff;stroke:#0000ff;" x="220.189699" xlink:href="#m57d83ce0f0" y="50.761475"/>
     <use style="fill:#0000ff;stroke:#0000ff;" x="221.670801" xlink:href="#m57d83ce0f0" y="44.5011"/>
     <use style="fill:#0000ff;stroke:#0000ff;" x="223.141843" xlink:href="#m57d83ce0f0" y="43.971875"/>
     <use style="fill:#0000ff;stroke:#0000ff;" x="224.602562" xlink:href="#m57d83ce0f0" y="49.324218"/>
     <use style="fill:#0000ff;stroke:#0000ff;" x="226.073925" xlink:href="#m57d83ce0f0" y="48.612144"/>
     <use style="fill:#0000ff;stroke:#0000ff;" x="227.546033" xlink:href="#m57d83ce0f0" y="47.475674"/>
     <use style="fill:#0000ff;stroke:#0000ff;" x="229.006541" xlink:href="#m57d83ce0f0" y="52.948246"/>
     <use style="fill:#0000ff;stroke:#0000ff;" x="230.474142" xlink:href="#m57d83ce0f0" y="54.37923"/>
     <use style="fill:#0000ff;stroke:#0000ff;" x="231.951191" xlink:href="#m57d83ce0f0" y="50.428304"/>
     <use style="fill:#0000ff;stroke:#0000ff;" x="233.415985" xlink:href="#m57d83ce0f0" y="53.458844"/>
     <use style="fill:#0000ff;stroke:#0000ff;" x="234.886298" xlink:href="#m57d83ce0f0" y="53.345116"/>
     <use style="fill:#0000ff;stroke:#0000ff;" x="236.351689" xlink:href="#m57d83ce0f0" y="56.035678"/>
     <use style="fill:#0000ff;stroke:#0000ff;" x="237.827136" xlink:href="#m57d83ce0f0" y="52.99682"/>
     <use style="fill:#0000ff;stroke:#0000ff;" x="239.296445" xlink:href="#m57d83ce0f0" y="53.454766"/>
     <use style="fill:#0000ff;stroke:#0000ff;" x="240.768283" xlink:href="#m57d83ce0f0" y="52.472321"/>
     <use style="fill:#0000ff;stroke:#0000ff;" x="242.237681" xlink:href="#m57d83ce0f0" y="52.880203"/>
     <use style="fill:#0000ff;stroke:#0000ff;" x="243.702316" xlink:href="#m57d83ce0f0" y="56.001406"/>
     <use style="fill:#0000ff;stroke:#0000ff;" x="245.16849" xlink:href="#m57d83ce0f0" y="58.245675"/>
     <use style="fill:#0000ff;stroke:#0000ff;" x="246.631688" xlink:href="#m57d83ce0f0" y="62.185092"/>
     <use style="fill:#0000ff;stroke:#0000ff;" x="248.103775" xlink:href="#m57d83ce0f0" y="61.06109"/>
     <use style="fill:#0000ff;stroke:#0000ff;" x="249.573871" xlink:href="#m57d83ce0f0" y="61.070815"/>
     <use style="fill:#0000ff;stroke:#0000ff;" x="251.039882" xlink:href="#m57d83ce0f0" y="63.40825"/>
     <use style="fill:#0000ff;stroke:#0000ff;" x="252.515002" xlink:href="#m57d83ce0f0" y="60.555596"/>
     <use style="fill:#0000ff;stroke:#0000ff;" x="253.99531" xlink:href="#m57d83ce0f0" y="54.747565"/>
     <use style="fill:#0000ff;stroke:#0000ff;" x="255.459405" xlink:href="#m57d83ce0f0" y="58.176494"/>
     <use style="fill:#0000ff;stroke:#0000ff;" x="256.919497" xlink:href="#m57d83ce0f0" y="63.885961"/>
     <use style="fill:#0000ff;stroke:#0000ff;" x="258.397621" xlink:href="#m57d83ce0f0" y="59.322161"/>
     <use style="fill:#0000ff;stroke:#0000ff;" x="259.868112" xlink:href="#m57d83ce0f0" y="59.107003"/>
     <use style="fill:#0000ff;stroke:#0000ff;" x="261.334198" xlink:href="#m57d83ce0f0" y="61.401452"/>
     <use style="fill:#0000ff;stroke:#0000ff;" x="262.807218" xlink:href="#m57d83ce0f0" y="59.745259"/>
     <use style="fill:#0000ff;stroke:#0000ff;" x="264.267799" xlink:href="#m57d83ce0f0" y="65.176318"/>
     <use style="fill:#0000ff;stroke:#0000ff;" x="265.736148" xlink:href="#m57d83ce0f0" y="66.181608"/>
     <use style="fill:#0000ff;stroke:#0000ff;" x="267.208383" xlink:href="#m57d83ce0f0" y="64.972445"/>
     <use style="fill:#0000ff;stroke:#0000ff;" x="268.675309" xlink:href="#m57d83ce0f0" y="66.788512"/>
     <use style="fill:#0000ff;stroke:#0000ff;" x="270.138224" xlink:href="#m57d83ce0f0" y="70.889735"/>
     <use style="fill:#0000ff;stroke:#0000ff;" x="271.61061" xlink:href="#m57d83ce0f0" y="69.594708"/>
     <use style="fill:#0000ff;stroke:#0000ff;" x="273.081463" xlink:href="#m57d83ce0f0" y="69.173772"/>
     <use style="fill:#0000ff;stroke:#0000ff;" x="274.548654" xlink:href="#m57d83ce0f0" y="70.838659"/>
     <use style="fill:#0000ff;stroke:#0000ff;" x="276.015054" xlink:href="#m57d83ce0f0" y="72.953889"/>
     <use style="fill:#0000ff;stroke:#0000ff;" x="277.491643" xlink:href="#m57d83ce0f0" y="69.264625"/>
     <use style="fill:#0000ff;stroke:#0000ff;" x="278.959831" xlink:href="#m57d83ce0f0" y="70.361771"/>
     <use style="fill:#0000ff;stroke:#0000ff;" x="280.423888" xlink:href="#m57d83ce0f0" y="73.812066"/>
     <use style="fill:#0000ff;stroke:#0000ff;" x="281.899479" xlink:href="#m57d83ce0f0" y="70.691357"/>
     <use style="fill:#0000ff;stroke:#0000ff;" x="283.36897" xlink:href="#m57d83ce0f0" y="71.04585"/>
     <use style="fill:#0000ff;stroke:#0000ff;" x="284.831375" xlink:href="#m57d83ce0f0" y="75.437458"/>
     <use style="fill:#0000ff;stroke:#0000ff;" x="286.313159" xlink:href="#m57d83ce0f0" y="68.788402"/>
     <use style="fill:#0000ff;stroke:#0000ff;" x="287.781649" xlink:href="#m57d83ce0f0" y="69.713702"/>
     <use style="fill:#0000ff;stroke:#0000ff;" x="289.243993" xlink:href="#m57d83ce0f0" y="74.140021"/>
     <use style="fill:#0000ff;stroke:#0000ff;" x="290.719175" xlink:href="#m57d83ce0f0" y="71.252093"/>
     <use style="fill:#0000ff;stroke:#0000ff;" x="292.181936" xlink:href="#m57d83ce0f0" y="75.440749"/>
     <use style="fill:#0000ff;stroke:#0000ff;" x="293.652413" xlink:href="#m57d83ce0f0" y="75.234034"/>
     <use style="fill:#0000ff;stroke:#0000ff;" x="295.125474" xlink:href="#m57d83ce0f0" y="73.55433"/>
     <use style="fill:#0000ff;stroke:#0000ff;" x="296.592888" xlink:href="#m57d83ce0f0" y="75.092614"/>
     <use style="fill:#0000ff;stroke:#0000ff;" x="298.055528" xlink:href="#m57d83ce0f0" y="79.350066"/>
     <use style="fill:#0000ff;stroke:#0000ff;" x="299.511713" xlink:href="#m57d83ce0f0" y="87.285452"/>
     <use style="fill:#0000ff;stroke:#0000ff;" x="300.989507" xlink:href="#m57d83ce0f0" y="82.909674"/>
     <use style="fill:#0000ff;stroke:#0000ff;" x="302.462528" xlink:href="#m57d83ce0f0" y="81.252963"/>
     <use style="fill:#0000ff;stroke:#0000ff;" x="303.93957" xlink:href="#m57d83ce0f0" y="77.305745"/>
     <use style="fill:#0000ff;stroke:#0000ff;" x="305.402436" xlink:href="#m57d83ce0f0" y="81.434879"/>
     <use style="fill:#0000ff;stroke:#0000ff;" x="306.872371" xlink:href="#m57d83ce0f0" y="81.536609"/>
     <use style="fill:#0000ff;stroke:#0000ff;" x="308.34743" xlink:href="#m57d83ce0f0" y="78.718971"/>
     <use style="fill:#0000ff;stroke:#0000ff;" x="309.809859" xlink:href="#m57d83ce0f0" y="83.096831"/>
     <use style="fill:#0000ff;stroke:#0000ff;" x="311.283017" xlink:href="#m57d83ce0f0" y="81.36194"/>
     <use style="fill:#0000ff;stroke:#0000ff;" x="312.738716" xlink:href="#m57d83ce0f0" y="89.574531"/>
     <use style="fill:#0000ff;stroke:#0000ff;" x="314.208801" xlink:href="#m57d83ce0f0" y="89.590662"/>
     <use style="fill:#0000ff;stroke:#0000ff;" x="315.679011" xlink:href="#m57d83ce0f0" y="89.535265"/>
     <use style="fill:#0000ff;stroke:#0000ff;" x="317.154199" xlink:href="#m57d83ce0f0" y="86.644092"/>
     <use style="fill:#0000ff;stroke:#0000ff;" x="318.625937" xlink:href="#m57d83ce0f0" y="85.718675"/>
     <use style="fill:#0000ff;stroke:#0000ff;" x="320.100064" xlink:href="#m57d83ce0f0" y="83.431841"/>
     <use style="fill:#0000ff;stroke:#0000ff;" x="321.567841" xlink:href="#m57d83ce0f0" y="84.762995"/>
     <use style="fill:#0000ff;stroke:#0000ff;" x="323.040726" xlink:href="#m57d83ce0f0" y="83.184189"/>
     <use style="fill:#0000ff;stroke:#0000ff;" x="324.513317" xlink:href="#m57d83ce0f0" y="81.772703"/>
     <use style="fill:#0000ff;stroke:#0000ff;" x="325.979696" xlink:href="#m57d83ce0f0" y="83.900327"/>
     <use style="fill:#0000ff;stroke:#0000ff;" x="327.445598" xlink:href="#m57d83ce0f0" y="86.299244"/>
     <use style="fill:#0000ff;stroke:#0000ff;" x="328.903603" xlink:href="#m57d83ce0f0" y="93.197911"/>
     <use style="fill:#0000ff;stroke:#0000ff;" x="330.374925" xlink:href="#m57d83ce0f0" y="92.509373"/>
     <use style="fill:#0000ff;stroke:#0000ff;" x="331.835932" xlink:href="#m57d83ce0f0" y="97.697572"/>
     <use style="fill:#0000ff;stroke:#0000ff;" x="333.310241" xlink:href="#m57d83ce0f0" y="95.306902"/>
     <use style="fill:#0000ff;stroke:#0000ff;" x="334.77376" xlink:href="#m57d83ce0f0" y="99.063821"/>
     <use style="fill:#0000ff;stroke:#0000ff;" x="336.234118" xlink:href="#m57d83ce0f0" y="104.621674"/>
     <use style="fill:#0000ff;stroke:#0000ff;" x="337.715604" xlink:href="#m57d83ce0f0" y="98.1427"/>
     <use style="fill:#0000ff;stroke:#0000ff;" x="339.180852" xlink:href="#m57d83ce0f0" y="100.914298"/>
     <use style="fill:#0000ff;stroke:#0000ff;" x="340.650654" xlink:href="#m57d83ce0f0" y="101.092093"/>
     <use style="fill:#0000ff;stroke:#0000ff;" x="342.120379" xlink:href="#m57d83ce0f0" y="101.313148"/>
     <use style="fill:#0000ff;stroke:#0000ff;" x="343.582286" xlink:href="#m57d83ce0f0" y="105.988328"/>
     <use style="fill:#0000ff;stroke:#0000ff;" x="345.048287" xlink:href="#m57d83ce0f0" y="108.331725"/>
     <use style="fill:#0000ff;stroke:#0000ff;" x="346.515246" xlink:href="#m57d83ce0f0" y="110.128909"/>
     <use style="fill:#0000ff;stroke:#0000ff;" x="347.997723" xlink:href="#m57d83ce0f0" y="103.085063"/>
     <use style="fill:#0000ff;stroke:#0000ff;" x="349.45746" xlink:href="#m57d83ce0f0" y="108.996515"/>
     <use style="fill:#0000ff;stroke:#0000ff;" x="350.92638" xlink:href="#m57d83ce0f0" y="109.676416"/>
     <use style="fill:#0000ff;stroke:#0000ff;" x="352.402487" xlink:href="#m57d83ce0f0" y="106.261704"/>
     <use style="fill:#0000ff;stroke:#0000ff;" x="353.880282" xlink:href="#m57d83ce0f0" y="101.885028"/>
     <use style="fill:#0000ff;stroke:#0000ff;" x="355.346786" xlink:href="#m57d83ce0f0" y="103.941677"/>
     <use style="fill:#0000ff;stroke:#0000ff;" x="356.80901" xlink:href="#m57d83ce0f0" y="108.43648"/>
     <use style="fill:#0000ff;stroke:#0000ff;" x="358.286621" xlink:href="#m57d83ce0f0" y="104.165063"/>
     <use style="fill:#0000ff;stroke:#0000ff;" x="359.748928" xlink:href="#m57d83ce0f0" y="108.612474"/>
     <use style="fill:#0000ff;stroke:#0000ff;" x="361.210695" xlink:href="#m57d83ce0f0" y="113.367243"/>
     <use style="fill:#0000ff;stroke:#0000ff;" x="362.678908" xlink:href="#m57d83ce0f0" y="114.45015"/>
     <use style="fill:#0000ff;stroke:#0000ff;" x="364.149767" xlink:href="#m57d83ce0f0" y="114.025565"/>
     <use style="fill:#0000ff;stroke:#0000ff;" x="365.622089" xlink:href="#m57d83ce0f0" y="112.767211"/>
     <use style="fill:#0000ff;stroke:#0000ff;" x="367.086193" xlink:href="#m57d83ce0f0" y="116.190576"/>
    </g>
   </g>
   <g id="line2d_42">
    <path clip-path="url(#pd933b51ba8)" d="M 62.722557 143.485241 
L 68.613928 133.994289 
L 74.512813 125.081118 
L 78.941398 118.767154 
L 83.360065 112.764685 
L 87.784562 107.067922 
L 92.198715 101.671076 
L 96.625355 96.56836 
L 101.047382 91.753985 
L 105.455764 87.222162 
L 109.878279 82.967102 
L 114.298186 78.983018 
L 120.181775 74.082417 
L 124.592144 70.708097 
L 129.015451 67.585458 
L 133.437488 64.708709 
L 137.843726 62.072064 
L 142.256697 59.669733 
L 146.680844 57.495929 
L 151.09374 55.544862 
L 155.493448 53.810743 
L 159.914253 52.287786 
L 164.319747 50.9702 
L 168.728447 49.852198 
L 173.148026 48.92799 
L 177.544506 48.191789 
L 183.434029 47.492637 
L 187.85682 47.172606 
L 193.735353 47.007338 
L 199.613067 47.128281 
L 205.496045 47.521712 
L 211.374579 48.173912 
L 217.251909 49.071159 
L 223.141843 50.199733 
L 229.006541 51.545913 
L 234.886298 53.095977 
L 242.237681 55.299367 
L 249.573871 57.773089 
L 256.919497 60.490345 
L 264.267799 63.424335 
L 273.081463 67.19348 
L 283.36897 71.87472 
L 296.592888 78.229513 
L 317.154199 88.521039 
L 339.180852 99.505902 
L 350.92638 105.103567 
L 361.210695 109.740069 
L 367.086193 112.250065 
L 367.086193 112.250065 
" style="fill:none;stroke:#ff0000;stroke-dasharray:3.7,1.6;stroke-dashoffset:0;"/>
   </g>
   <g id="patch_5">
    <path d="M 47.504375 149.811875 
L 47.504375 38.931875 
" style="fill:none;stroke:#000000;stroke-linecap:square;stroke-linejoin:miter;stroke-width:0.8;"/>
   </g>
   <g id="patch_6">
    <path d="M 382.304375 149.811875 
L 382.304375 38.931875 
" style="fill:none;stroke:#000000;stroke-linecap:square;stroke-linejoin:miter;stroke-width:0.8;"/>
   </g>
   <g id="patch_7">
    <path d="M 47.504375 149.811875 
L 382.304375 149.811875 
" style="fill:none;stroke:#000000;stroke-linecap:square;stroke-linejoin:miter;stroke-width:0.8;"/>
   </g>
   <g id="patch_8">
    <path d="M 47.504375 38.931875 
L 382.304375 38.931875 
" style="fill:none;stroke:#000000;stroke-linecap:square;stroke-linejoin:miter;stroke-width:0.8;"/>
   </g>
  </g>
 </g>
 <defs>
  <clipPath id="p4c6bb81235">
   <rect height="0" width="334.8" x="47.504375" y="38.931875"/>
  </clipPath>
  <clipPath id="pd933b51ba8">
   <rect height="110.88" width="334.8" x="47.504375" y="38.931875"/>
  </clipPath>
 </defs>
</svg>
